<?xml version="1.0" encoding="UTF-8" standalone="no"?>
<svg
   xmlns:dc="http://purl.org/dc/elements/1.1/"
   xmlns:cc="http://creativecommons.org/ns#"
   xmlns:rdf="http://www.w3.org/1999/02/22-rdf-syntax-ns#"
   xmlns:svg="http://www.w3.org/2000/svg"
   xmlns="http://www.w3.org/2000/svg"
   id="svg2"
   version="1.1"
   viewBox="161.05414 6.4043781 285.39061 90.755213">
  <metadata
     id="metadata11">
    <rdf:RDF>
      <cc:Work
         rdf:about="">
        <dc:format>image/svg+xml</dc:format>
        <dc:type
           rdf:resource="http://purl.org/dc/dcmitype/StillImage" />
      </cc:Work>
    </rdf:RDF>
  </metadata>
  <defs
     id="defs9" />
  <g
     id="text4521"
     style="font-style:normal;font-variant:normal;font-weight:normal;font-stretch:normal;font-size:26.66666603px;line-height:125%;font-family:'Andale Mono', monospace;font-variant-ligatures:normal;font-variant-caps:normal;font-variant-numeric:normal;font-feature-settings:normal;text-align:left;letter-spacing:0px;word-spacing:0px;writing-mode:lr-tb;text-anchor:start;fill:#000000;fill-opacity:1;stroke:none;stroke-width:1px;stroke-linecap:butt;stroke-linejoin:miter;stroke-opacity:1"
     aria-label="Съешь же ещё этихмягких французскихбулок да выпей чаю">
    <path
       id="path13"
       style=""
       d="m 173.47601,23.982503 q -2.16146,1.497395 -5.01302,1.497395 -3.56771,0 -5.42969,-2.447916 -1.84895,-2.447917 -1.84895,-7.083333 0,-4.479167 1.79687,-7.0052085 1.79688,-2.5390624 5.48177,-2.5390624 1.32813,0 2.63021,0.3385416 1.30208,0.3385417 2.09635,0.8984375 l -0.70312,1.6796875 q -1.83594,-1.0416667 -4.02344,-1.0416667 -2.53906,0 -3.77604,1.848958 -1.23698,1.835938 -1.23698,5.820313 0,7.656249 5.01302,7.656249 2.1224,0 4.34896,-1.302083 z" />
    <path
       id="path15"
       style=""
       d="m 182.26508,16.677815 h 1.41927 q 2.61718,0 4.03645,1.119792 1.4323,1.119792 1.4323,3.138021 0,1.992187 -1.39323,3.098958 -1.39323,1.09375 -4.04948,1.09375 h -3.47656 V 13.31844 h -4.17969 v -1.757812 h 6.21094 z m 0,6.692708 h 1.41927 q 1.5625,0 2.44791,-0.624999 0.88542,-0.625 0.88542,-1.809896 0,-1.341146 -0.97656,-1.914063 -0.96354,-0.585937 -2.35677,-0.585937 h -1.41927 z" />
    <path
       id="path17"
       style=""
       d="m 205.16872,18.409586 h -9.3099 q 0,2.304688 1.32813,3.802083 1.34115,1.497396 3.28125,1.497396 1.84896,0 3.8151,-0.664062 l 0.35157,1.627604 q -1.79688,0.807291 -4.19271,0.807291 -3.02084,0 -4.86979,-1.940104 -1.84896,-1.940104 -1.84896,-5.234375 0,-3.229166 1.65364,-5.143229 1.66667,-1.927083 4.29688,-1.927083 2.34375,0 3.91927,1.783854 1.57552,1.783854 1.57552,4.752604 z m -2.21354,-1.653646 q 0,-1.588541 -0.98958,-2.66927 -0.98959,-1.09375 -2.21355,-1.09375 -1.57552,0 -2.61718,1.041666 -1.02865,1.041667 -1.14584,2.721354 z" />
    <path
       id="path19"
       style=""
       d="M 221.97862,25.128336 H 209.02289 V 11.560628 h 2.01823 v 11.809895 h 3.45052 V 11.560628 h 2.01823 v 11.809895 h 3.4375 V 11.560628 h 2.03125 z" />
    <path
       id="path21"
       style=""
       d="m 229.64789,16.677815 h 1.41927 q 2.63021,0 4.03646,1.119792 1.41927,1.106771 1.41927,3.138021 0,2.044271 -1.39323,3.125 -1.38021,1.067708 -4.03646,1.067708 h -3.47656 V 11.560628 h 2.03125 z m 0,6.692708 h 1.41927 q 3.33333,0 3.33333,-2.434895 0,-2.5 -3.33333,-2.5 h -1.41927 z" />
    <path
       id="path23"
       style=""
       d="m 271.44476,25.128336 h -2.29166 l -3.35938,-6.640625 -1.3151,1.653646 v 4.986979 h -2.01823 v -4.986979 l -1.31511,-1.653646 -3.35937,6.640625 h -2.29167 l 4.40104,-8.268229 -4.1927,-5.299479 h 2.13541 l 4.6224,5.885416 v -5.885416 h 2.01823 v 5.885416 l 4.62239,-5.885416 h 2.1224 l -4.15365,5.299479 z" />
    <path
       id="path25"
       style=""
       d="m 285.11663,18.409586 h -9.30989 q 0,2.304688 1.32812,3.802083 1.34115,1.497396 3.28125,1.497396 1.84896,0 3.81511,-0.664062 l 0.35156,1.627604 q -1.79688,0.807291 -4.19271,0.807291 -3.02083,0 -4.86979,-1.940104 -1.84896,-1.940104 -1.84896,-5.234375 0,-3.229166 1.65365,-5.143229 1.66666,-1.927083 4.29687,-1.927083 2.34375,0 3.91927,1.783854 1.57552,1.783854 1.57552,4.752604 z m -2.21354,-1.653646 q 0,-1.588541 -0.98958,-2.66927 -0.98959,-1.09375 -2.21354,-1.09375 -1.57552,0 -2.61719,1.041666 -1.02865,1.041667 -1.14583,2.721354 z" />
    <path
       id="path27"
       style=""
       d="m 317.0958,18.409586 h -9.30989 q 0,2.304688 1.32812,3.802083 1.34115,1.497396 3.28125,1.497396 1.84896,0 3.81511,-0.664062 l 0.35156,1.627604 q -1.79687,0.807291 -4.19271,0.807291 -3.02083,0 -4.86979,-1.940104 -1.84896,-1.940104 -1.84896,-5.234375 0,-3.229166 1.65365,-5.143229 1.66666,-1.927083 4.29687,-1.927083 2.34375,0 3.91927,1.783854 1.57552,1.783854 1.57552,4.752604 z m -2.21354,-1.653646 q 0,-1.588541 -0.98958,-2.66927 -0.98958,-1.09375 -2.21354,-1.09375 -1.57552,0 -2.61719,1.041666 -1.02865,1.041667 -1.14583,2.721354 z" />
    <path
       id="path29"
       style=""
       d="M 333.37184,25.128336 H 320.94997 V 11.560628 h 2.01823 v 11.809895 h 3.45052 V 11.560628 h 2.01823 v 11.809895 h 3.4375 V 11.560628 h 2.03125 v 11.809895 h 1.52343 v 4.713542 h -2.05729 z" />
    <path
       id="path31"
       style=""
       d="m 349.07496,18.409586 h -9.30989 q 0,2.304688 1.32812,3.802083 1.34115,1.497396 3.28125,1.497396 1.84896,0 3.8151,-0.664062 l 0.35157,1.627604 q -1.79688,0.807291 -4.19271,0.807291 -3.02083,0 -4.86979,-1.940104 -1.84896,-1.940104 -1.84896,-5.234375 0,-3.229166 1.65364,-5.143229 1.66667,-1.927083 4.29688,-1.927083 2.34375,0 3.91927,1.783854 1.57552,1.783854 1.57552,4.752604 z m -2.21354,-1.653646 q 0,-1.588541 -0.98958,-2.66927 -0.98959,-1.09375 -2.21355,-1.09375 -1.57552,0 -2.61718,1.041666 -1.02865,1.041667 -1.14584,2.721354 z m -0.65104,-9.9479161 q 0.58594,0 0.97656,0.4036458 0.39063,0.4036458 0.39063,1.015625 0,0.5598958 -0.40365,0.9895833 -0.40365,0.4166667 -0.96354,0.4166667 -0.58594,0 -1.00261,-0.4166667 -0.40364,-0.4296875 -0.40364,-0.9895833 0,-0.6119792 0.40364,-1.015625 0.40365,-0.4036458 1.00261,-0.4036458 z m -5.14323,0 q 0.59896,0 0.98958,0.4036458 0.39063,0.390625 0.39063,1.015625 0,0.5729166 -0.40365,0.9895833 -0.40364,0.4166667 -0.97656,0.4166667 -0.57292,0 -1.00261,-0.4166667 -0.41666,-0.4296875 -0.41666,-0.9895833 0,-0.6119792 0.41666,-1.015625 0.41667,-0.4036458 1.00261,-0.4036458 z" />
    <path
       id="path33"
       style=""
       d="m 370.24684,11.951253 q 1.83594,-0.716146 3.89323,-0.716146 3.11198,0 5.03906,1.966146 1.92709,1.953125 1.92709,5.15625 0,3.216146 -1.90105,5.16927 -1.90104,1.953125 -5.11718,1.953125 -2.1224,0 -3.89323,-0.807291 l 0.35156,-1.627604 q 1.82292,0.664062 3.54167,0.664062 1.88802,0 3.21614,-1.223958 1.32813,-1.236979 1.61459,-3.333333 h -5.1823 v -1.757813 h 5.1823 q -0.28646,-2.109375 -1.5625,-3.255208 -1.26302,-1.145833 -3.24219,-1.145833 -1.48438,0 -3.33333,0.63802 z" />
    <path
       id="path35"
       style=""
       d="m 396.87444,13.31844 h -4.47917 v 11.809896 h -2.01823 V 13.31844 h -4.47916 v -1.757812 h 10.97656 z" />
    <path
       id="path37"
       style=""
       d="m 412.57758,25.128336 h -2.0573 V 14.620524 l -6.02864,10.507812 h -2.31771 V 11.560628 h 2.03125 v 10.559896 l 6.05469,-10.559896 h 2.31771 z" />
    <path
       id="path39"
       style=""
       d="m 429.10101,25.128336 h -2.29167 l -3.63281,-5.3125 -3.76302,5.3125 h -2.16146 l 4.83073,-6.796875 -4.83073,-6.770833 h 2.33073 l 3.64583,5.273437 3.71094,-5.273437 h 2.16146 l -4.80469,6.692708 z" />
    <path
       id="path41"
       style=""
       d="m 174.00987,58.461672 h -2.08334 V 46.54761 l -3.41145,11.914062 H 166.4057 L 163.02028,46.54761 v 11.914062 h -1.96614 V 44.893964 h 3.51562 l 2.95573,10.846354 3.09896,-10.846354 h 3.38542 z" />
    <path
       id="path43"
       style=""
       d="m 187.99424,58.461672 h -2.01823 v -5.546875 h -2.21354 l -3.89323,5.546875 h -2.34375 l 4.28386,-6.054688 q -1.32813,-0.403645 -2.10938,-1.41927 -0.76823,-1.015625 -0.76823,-2.265625 0,-1.783854 1.21094,-2.799479 1.21094,-1.028646 3.32031,-1.028646 h 4.53125 z m -2.01823,-7.304687 v -4.479167 h -2.26562 q -1.28906,0 -2.00521,0.546875 -0.71615,0.533854 -0.71615,1.497396 0,1.002604 0.83334,1.71875 0.83333,0.716146 1.99218,0.716146 z" />
    <path
       id="path45"
       style=""
       d="m 203.54112,46.651776 h -5.33855 v 11.809896 h -2.03125 V 44.893964 h 7.3698 z" />
    <path
       id="path47"
       style=""
       d="m 222.08278,58.461672 h -2.66927 l -5.75521,-6.744792 -1.32812,1.145834 v 5.598958 h -2.03125 V 44.893964 h 2.03125 v 5.729166 l 6.36719,-5.729166 h 2.59114 l -6.18489,5.546875 z" />
    <path
       id="path49"
       style=""
       d="m 236.69216,58.461672 h -2.05729 V 47.95386 l -6.02865,10.507812 h -2.31771 V 44.893964 h 2.03125 v 10.559895 l 6.05469,-10.559895 h 2.31771 z" />
    <path
       id="path51"
       style=""
       d="m 253.21559,58.461672 h -2.29166 l -3.63282,-5.3125 -3.76302,5.3125 h -2.16145 l 4.83072,-6.796875 -4.83072,-6.770833 h 2.33072 l 3.64584,5.273437 3.71094,-5.273437 h 2.16145 l -4.80468,6.692708 z" />
    <path
       id="path53"
       style=""
       d="m 280.4682,46.651776 q 0.9375,-2.083333 2.79947,-2.083333 3.55469,0 3.55469,6.901041 0,7.34375 -3.45052,7.34375 -0.97656,0 -1.65364,-0.494791 -0.66407,-0.494792 -1.25,-1.809896 v 7.317708 h -2.01823 v -7.317708 q -0.59896,1.315104 -1.26302,1.809896 -0.66407,0.494791 -1.65365,0.494791 -3.4375,0 -3.4375,-7.34375 0,-6.901041 3.55469,-6.901041 1.86198,0 2.79948,2.083333 v -6.5625 h 2.01823 z m -2.01823,7.65625 v -5.638021 q -0.41667,-1.09375 -1.01563,-1.71875 -0.59896,-0.625 -1.17187,-0.625 -1.01563,0 -1.52344,1.067709 -0.50781,1.067708 -0.50781,4.192708 0,2.239583 0.19531,3.320312 0.20833,1.08073 0.61198,1.588542 0.40364,0.494792 1.02864,0.494792 0.54688,0 0.98959,-0.351563 0.45573,-0.364583 0.92448,-1.302083 0.46875,-0.950521 0.46875,-1.028646 z m 2.01823,0 q 0.71614,1.692708 1.23697,2.1875 0.52084,0.494792 1.13282,0.494792 0.92448,0 1.38021,-1.132813 0.46875,-1.132812 0.46875,-4.270833 0,-2.252604 -0.22136,-3.268229 -0.22135,-1.028646 -0.67708,-1.510417 -0.44271,-0.481771 -1.13281,-0.481771 -0.76823,0 -1.48438,1.015625 -0.70312,1.002605 -0.70312,1.328125 z" />
    <path
       id="path55"
       style=""
       d="m 292.27809,46.651776 q 0.67709,-0.9375 1.82292,-1.510416 1.15885,-0.572917 2.4349,-0.572917 2.34375,0 3.67187,1.940104 1.34115,1.927083 1.34115,5.026042 0,3.125 -1.40625,5.208333 -1.39323,2.070312 -3.76302,2.070312 -1.26302,0 -2.3698,-0.625 -1.09375,-0.63802 -1.73177,-1.679687 v 7.317708 h -2.03125 V 44.893964 h 2.03125 z m 0,2.018229 v 5.638021 q 0.57292,1.145833 1.54948,1.914063 0.97657,0.768229 2.01823,0.768229 1.64063,0 2.60417,-1.536459 0.97656,-1.536458 0.97656,-3.815104 0,-2.34375 -0.92448,-3.828125 -0.92448,-1.484375 -2.57812,-1.484375 -2.14844,0 -3.64584,2.34375 z" />
    <path
       id="path57"
       style=""
       d="m 317.0307,58.461672 h -2.01823 q -0.24739,-0.820313 -0.24739,-2.1875 -1.73178,2.539062 -4.71355,2.539062 -1.51041,0 -2.66927,-1.067708 -1.14583,-1.080729 -1.14583,-2.773437 0,-1.002605 0.40365,-1.770834 0.40364,-0.768229 1.18489,-1.289062 0.78125,-0.533854 1.90104,-0.833333 1.11979,-0.3125 2.65625,-0.429688 l 2.27865,-0.182292 v -0.651041 q 0,-3.489584 -3.25521,-3.489584 -0.76823,0 -1.95312,0.338542 -1.17188,0.325521 -2.01823,0.78125 l -0.53386,-1.458333 q 2.77344,-1.419271 5.15625,-1.419271 4.63542,0 4.63542,4.908854 v 5.833333 q 0,1.770834 0.33854,3.151042 z m -2.36979,-4.023438 v -2.460937 q -2.7474,0.247396 -3.77604,0.46875 -1.01563,0.208333 -1.77084,0.794271 -0.74218,0.585937 -0.74218,1.588541 0,0.911459 0.63802,1.471355 0.63802,0.559895 1.6276,0.559895 1.08073,0 2.14844,-0.63802 1.06771,-0.651042 1.875,-1.783855 z" />
    <path
       id="path59"
       style=""
       d="m 332.62965,58.461672 h -2.05729 v -6.692708 h -6.3151 v 6.692708 h -2.03125 V 44.893964 h 2.03125 v 5.117187 h 6.3151 v -5.117187 h 2.05729 z" />
    <path
       id="path61"
       style=""
       d="m 350.16871,61.417401 h -2.05729 V 58.461672 H 337.4734 V 44.893964 h 2.01823 v 11.809895 h 7.12239 V 44.893964 h 2.0573 v 11.809895 h 1.49739 z" />
    <path
       id="path63"
       style=""
       d="m 365.27289,44.893964 -5.14323,13.567708 q -1.11979,2.994791 -2.22656,4.179687 -1.09375,1.184896 -2.5,1.184896 -1.25,0 -2.47396,-0.455729 l 0.33854,-1.627604 q 0.98958,0.3125 1.77083,0.3125 1.09375,0 1.79688,-0.846354 0.70312,-0.846355 1.41927,-2.773438 l -5.09115,-13.541666 h 2.21354 l 3.84115,10.820312 3.84115,-10.820312 z" />
    <path
       id="path65"
       style=""
       d="m 377.42132,51.209068 q 1.23698,0.182291 2.1224,1.119791 0.88541,0.92448 0.88541,2.109375 0,1.901042 -1.73177,3.138021 -1.73177,1.236979 -4.1276,1.236979 -2.33073,0 -4.58334,-1.289062 l 0.79428,-1.510417 q 1.92708,1.028646 3.8151,1.028646 1.58854,0 2.64323,-0.703125 1.06771,-0.716146 1.06771,-1.848958 0,-1.080729 -0.98959,-1.653646 -0.98958,-0.585938 -2.69531,-0.585938 h -1.47135 v -1.835937 h 1.26302 q 1.6276,0 2.55208,-0.585937 0.9375,-0.585938 0.9375,-1.627605 0,-0.768229 -0.84635,-1.315104 -0.84636,-0.559896 -2.00521,-0.559896 -2.00521,0 -3.6849,0.638021 l -0.82031,-1.536458 q 0.72917,-0.364583 2.01823,-0.611979 1.28906,-0.247396 2.40885,-0.247396 2.39584,0 3.78907,0.989583 1.40625,0.976563 1.40625,2.643229 0,0.950521 -0.78125,1.835938 -0.76823,0.872396 -1.96615,1.145833 z" />
    <path
       id="path67"
       style=""
       d="m 396.58798,58.005943 q -1.77083,0.807291 -3.89323,0.807291 -3.20312,0 -5.11718,-1.940104 -1.90105,-1.953125 -1.90105,-5.182291 0,-3.229167 1.91407,-5.169271 1.92708,-1.953125 5.05208,-1.953125 2.04427,0 3.89323,0.716146 l -0.53386,1.679687 q -1.84895,-0.638021 -3.33333,-0.638021 -2.23958,0 -3.55469,1.445313 -1.30208,1.445312 -1.30208,3.919271 0,2.265625 1.35417,3.815104 1.35416,1.536458 3.52864,1.536458 1.71875,0 3.54167,-0.664062 z" />
    <path
       id="path69"
       style=""
       d="m 413.95778,58.461672 h -2.66927 l -5.75521,-6.744792 -1.32812,1.145834 v 5.598958 h -2.03125 V 44.893964 h 2.03125 v 5.729166 l 6.36719,-5.729166 h 2.59114 l -6.18489,5.546875 z" />
    <path
       id="path71"
       style=""
       d="m 428.56715,58.461672 h -2.05729 V 47.95386 l -6.02864,10.507812 h -2.31771 V 44.893964 h 2.03125 v 10.559895 l 6.05469,-10.559895 h 2.3177 z" />
    <path
       id="path73"
       style=""
       d="m 445.09059,58.461672 h -2.29167 l -3.63281,-5.3125 -3.76302,5.3125 h -2.16146 l 4.83073,-6.796875 -4.83073,-6.770833 h 2.33073 l 3.64583,5.273437 3.71094,-5.273437 h 2.16146 l -4.80469,6.692708 z" />
    <path
       id="path75"
       style=""
       d="m 163.82758,79.399175 q 1.3151,-1.497396 3.69791,-1.497396 2.79948,0 4.45313,1.953125 1.65364,1.953125 1.65364,5.143229 0,3.216146 -1.65364,5.182291 -1.65365,1.966146 -4.45313,1.966146 -2.8125,0 -4.46614,-1.953125 -1.64063,-1.966146 -1.64063,-5.195312 v -0.07813 q 0,-11.679687 6.30208,-11.679687 0.92448,0 2.01823,0.15625 0.89844,0.130208 1.54948,0.130208 1.00261,0 1.52344,-0.260417 v 1.757813 q -0.80729,0.234375 -1.52344,0.234375 -0.84635,0 -1.97916,-0.143229 -0.96355,-0.117188 -1.5625,-0.117188 -1.64063,0 -2.59115,1.015625 -0.95052,1.002604 -1.32812,3.385417 z m 3.69791,10.976562 q 1.84896,0 2.91667,-1.5625 1.06771,-1.5625 1.06771,-3.789062 0,-2.34375 -1.05469,-3.854167 -1.05469,-1.510417 -2.92969,-1.510417 -1.88802,0 -2.92969,1.497396 -1.04166,1.484375 -1.04166,3.867188 0,2.265624 1.05469,3.815104 1.05468,1.536458 2.91666,1.536458 z" />
    <path
       id="path77"
       style=""
       d="m 189.38747,78.2273 -5.14323,13.567708 q -1.11979,2.994791 -2.22656,4.179687 -1.09375,1.184896 -2.5,1.184896 -1.25,0 -2.47396,-0.455729 l 0.33854,-1.627604 q 0.98959,0.3125 1.77084,0.3125 1.09375,0 1.79687,-0.846355 0.70313,-0.846354 1.41927,-2.773437 L 177.2781,78.2273 h 2.21354 l 3.84114,10.820312 3.84115,-10.820312 z" />
    <path
       id="path79"
       style=""
       d="M 204.71299,91.795008 H 202.6557 V 79.985112 h -6.3151 v 8.020833 q 0,2.330729 -0.83334,3.177084 -0.82031,0.846354 -2.85156,0.846354 h -0.50781 V 90.27157 h 0.13021 q 1.23698,0 1.6276,-0.572916 0.40365,-0.572917 0.40365,-1.901042 V 78.2273 h 10.40364 z" />
    <path
       id="path81"
       style=""
       d="m 215.49424,77.901779 q 2.79948,0 4.45313,1.953125 1.65364,1.953125 1.65364,5.143229 0,3.216146 -1.65364,5.182291 -1.65365,1.966146 -4.45313,1.966146 -2.8125,0 -4.46614,-1.953125 -1.64063,-1.966146 -1.64063,-5.195312 0,-3.203125 1.65365,-5.143229 1.65364,-1.953125 4.45312,-1.953125 z m 0,12.473958 q 1.84896,0 2.91667,-1.5625 1.06771,-1.5625 1.06771,-3.789062 0,-2.34375 -1.05469,-3.854167 -1.05469,-1.510417 -2.92969,-1.510417 -1.88802,0 -2.92969,1.497396 -1.04166,1.484375 -1.04166,3.867188 0,2.265624 1.05469,3.815104 1.05468,1.536458 2.91666,1.536458 z" />
    <path
       id="path83"
       style=""
       d="m 238.07237,91.795008 h -2.66928 l -5.7552,-6.744792 -1.32813,1.145834 v 5.598958 h -2.03125 V 78.2273 h 2.03125 v 5.729166 l 6.36719,-5.729166 h 2.59114 l -6.18489,5.546875 z" />
    <path
       id="path85"
       style=""
       d="m 269.94737,94.464278 h -2.03125 v -2.66927 h -9.51823 v 2.66927 h -2.01823 v -4.427083 h 1.09375 q 1.54948,-1.328125 2.51302,-3.776041 0.97656,-2.447917 0.97656,-5.559896 V 78.2273 h 7.48698 v 11.809895 h 1.4974 z m -3.51563,-4.427083 V 79.985112 h -3.4375 v 0.234375 q 0,3.059896 -0.82031,5.651042 -0.80729,2.578125 -2.09635,4.166666 z" />
    <path
       id="path87"
       style=""
       d="m 285.05153,91.795008 h -2.01823 q -0.2474,-0.820313 -0.2474,-2.1875 -1.73177,2.539062 -4.71354,2.539062 -1.51041,0 -2.66927,-1.067708 -1.14583,-1.080729 -1.14583,-2.773438 0,-1.002604 0.40364,-1.770833 0.40365,-0.768229 1.1849,-1.289062 0.78125,-0.533854 1.90104,-0.833334 1.11979,-0.3125 2.65625,-0.429687 l 2.27865,-0.182292 v -0.651041 q 0,-3.489584 -3.25521,-3.489584 -0.76823,0 -1.95313,0.338542 -1.17187,0.325521 -2.01823,0.78125 l -0.53385,-1.458333 q 2.77344,-1.419271 5.15625,-1.419271 4.63542,0 4.63542,4.908854 v 5.833333 q 0,1.770833 0.33854,3.151042 z m -2.36979,-4.023438 v -2.460937 q -2.7474,0.247396 -3.77604,0.46875 -1.01563,0.208333 -1.77084,0.794271 -0.74219,0.585937 -0.74219,1.588541 0,0.911459 0.63803,1.471354 0.63802,0.559896 1.6276,0.559896 1.08073,0 2.14844,-0.638021 1.06771,-0.651041 1.875,-1.783854 z" />
    <path
       id="path89"
       style=""
       d="m 314.25726,84.594487 q 1.22396,0.260417 2.03125,1.132813 0.80729,0.872395 0.80729,1.848958 0,2.018229 -1.40625,3.125 -1.39322,1.09375 -3.24218,1.09375 h -6.21094 V 78.2273 h 5.39062 q 2.1224,0 3.42448,0.976562 1.31511,0.976563 1.31511,2.617188 0,0.976562 -0.61198,1.757812 -0.61198,0.78125 -1.4974,1.015625 z m -5.98958,-0.794271 h 3.41146 q 2.55208,0 2.55208,-1.901041 0,-0.885417 -0.72917,-1.39323 -0.72916,-0.520833 -1.90104,-0.520833 h -3.33333 z m 0,6.236979 h 3.8151 q 1.25,0 2.04427,-0.638021 0.8073,-0.63802 0.8073,-1.757812 0,-0.989583 -0.88542,-1.536458 -0.8724,-0.546875 -2.29167,-0.546875 h -3.48958 z" />
    <path
       id="path91"
       style=""
       d="m 333.82757,91.795008 h -2.03125 V 78.2273 h 2.03125 z M 322.9682,83.344487 h 1.41927 q 2.59114,0 4.02343,1.145833 1.44532,1.132813 1.44532,3.111979 0,2.01823 -1.40625,3.11198 -1.40625,1.080729 -4.03646,1.080729 h -3.46354 V 78.2273 h 2.01823 z m 0,6.692708 h 1.41927 q 1.5625,0 2.43489,-0.611979 0.8724,-0.625 0.8724,-1.822917 0,-1.223958 -0.88542,-1.861979 -0.87239,-0.63802 -2.42187,-0.63802 h -1.41927 z" />
    <path
       id="path93"
       style=""
       d="m 348.61923,91.795008 h -2.05729 V 79.985112 h -6.3151 v 11.809896 h -2.03125 V 78.2273 h 10.40364 z" />
    <path
       id="path95"
       style=""
       d="m 365.06455,85.076258 h -9.30989 q 0,2.304687 1.32812,3.802083 1.34115,1.497396 3.28125,1.497396 1.84896,0 3.81511,-0.664063 l 0.35156,1.627605 q -1.79687,0.807291 -4.19271,0.807291 -3.02083,0 -4.86979,-1.940104 -1.84896,-1.940104 -1.84896,-5.234375 0,-3.229166 1.65365,-5.143229 1.66666,-1.927083 4.29687,-1.927083 2.34375,0 3.91927,1.783854 1.57552,1.783854 1.57552,4.752604 z m -2.21354,-1.653646 q 0,-1.588542 -0.98958,-2.669271 -0.98958,-1.09375 -2.21354,-1.09375 -1.57552,0 -2.61719,1.041667 -1.02865,1.041667 -1.14583,2.721354 z" />
    <path
       id="path97"
       style=""
       d="m 380.5984,91.795008 h -2.05729 V 81.287195 l -6.02864,10.507813 h -2.31771 V 78.2273 h 2.03125 V 88.787195 L 378.2807,78.2273 h 2.3177 z m -0.66406,-19.0625 q -0.6901,3.255208 -4.57031,3.255208 -1.79688,0 -3.00781,-0.846354 -1.19792,-0.859375 -1.54948,-2.408854 h 1.83593 q 0.57292,1.484375 2.72136,1.484375 1.43229,0 1.9401,-0.390625 0.50782,-0.403646 0.75521,-1.09375 z" />
    <path
       id="path99"
       style=""
       d="m 412.57758,91.795008 h -2.0573 v -6.184896 q -2.40885,2.265625 -4.77864,2.265625 -2.01823,0 -3.08594,-1.184896 -1.06771,-1.197916 -1.06771,-3.476562 V 78.2273 h 2.03125 v 4.38802 q 0,1.809896 0.66406,2.65625 0.66407,0.846355 2.08334,0.846355 1.83594,0 4.15364,-2.265625 v -5.625 h 2.0573 z" />
    <path
       id="path101"
       style=""
       d="m 428.95778,91.795008 h -2.01823 q -0.2474,-0.820313 -0.2474,-2.1875 -1.73177,2.539062 -4.71354,2.539062 -1.51041,0 -2.66927,-1.067708 -1.14583,-1.080729 -1.14583,-2.773438 0,-1.002604 0.40364,-1.770833 0.40365,-0.768229 1.1849,-1.289062 0.78125,-0.533854 1.90104,-0.833334 1.11979,-0.3125 2.65625,-0.429687 l 2.27865,-0.182292 v -0.651041 q 0,-3.489584 -3.25521,-3.489584 -0.76823,0 -1.95313,0.338542 -1.17187,0.325521 -2.01823,0.78125 l -0.53385,-1.458333 q 2.77344,-1.419271 5.15625,-1.419271 4.63542,0 4.63542,4.908854 v 5.833333 q 0,1.770833 0.33854,3.151042 z m -2.36979,-4.023438 v -2.460937 q -2.7474,0.247396 -3.77604,0.46875 -1.01563,0.208333 -1.77084,0.794271 -0.74219,0.585937 -0.74219,1.588541 0,0.911459 0.63803,1.471354 0.63802,0.559896 1.6276,0.559896 1.08073,0 2.14844,-0.638021 1.06771,-0.651041 1.875,-1.783854 z" />
    <path
       id="path103"
       style=""
       d="m 436.39267,84.060633 q 0.28646,-6.158854 5.01302,-6.158854 2.42188,0 3.72396,1.875 1.3151,1.875 1.3151,5.221354 0,3.242187 -1.27604,5.195312 -1.26302,1.953125 -3.76302,1.953125 -4.76562,0 -5.01302,-6.328125 h -1.4974 v 5.976563 h -2.01823 V 78.2273 h 2.01823 v 5.833333 z m 5.01302,6.315104 q 2.90365,0 2.90365,-5.351562 0,-2.8125 -0.72917,-4.088542 -0.71615,-1.276042 -2.17448,-1.276042 -1.45833,0 -2.1875,1.276042 -0.71615,1.276042 -0.71615,4.088542 0,5.351562 2.90365,5.351562 z" />
  </g>
</svg>
