<?xml version="1.0" encoding="UTF-8" standalone="no"?>
<svg
   xmlns:dc="http://purl.org/dc/elements/1.1/"
   xmlns:cc="http://creativecommons.org/ns#"
   xmlns:rdf="http://www.w3.org/1999/02/22-rdf-syntax-ns#"
   xmlns:svg="http://www.w3.org/2000/svg"
   xmlns="http://www.w3.org/2000/svg"
   id="svg2"
   version="1.1"
   viewBox="160.7156 5.7142739 248.51562 91.692713">
  <metadata
     id="metadata11">
    <rdf:RDF>
      <cc:Work
         rdf:about="">
        <dc:format>image/svg+xml</dc:format>
        <dc:type
           rdf:resource="http://purl.org/dc/dcmitype/StillImage" />
      </cc:Work>
    </rdf:RDF>
  </metadata>
  <defs
     id="defs9" />
  <g
     id="text4521"
     style="font-style:normal;font-variant:normal;font-weight:normal;font-stretch:normal;font-size:26.66666603px;line-height:125%;font-family:Arial, sans-serif;font-variant-ligatures:normal;font-variant-caps:normal;font-variant-numeric:normal;font-feature-settings:normal;text-align:left;letter-spacing:0px;word-spacing:0px;writing-mode:lr-tb;text-anchor:start;fill:#000000;fill-opacity:1;stroke:none;stroke-width:1px;stroke-linecap:butt;stroke-linejoin:miter;stroke-opacity:1"
     aria-label="Съешь же ещё этихмягких французскихбулок да выпей чаю">
    <path
       id="path13"
       style=""
       d="m 175.20778,18.435628 2.52605,0.638021 q -0.79428,3.111979 -2.86459,4.752604 -2.05729,1.627604 -5.03906,1.627604 -3.08594,0 -5.02604,-1.25 -1.92709,-1.263021 -2.94271,-3.645833 -1.0026,-2.382813 -1.0026,-5.117188 0,-2.981771 1.13281,-5.195312 1.14583,-2.2265626 3.24219,-3.3723959 2.10937,-1.1588542 4.63541,-1.1588542 2.86459,0 4.81771,1.4583333 1.95313,1.4583333 2.72135,4.1015628 l -2.48697,0.585937 q -0.66407,-2.0833332 -1.92709,-3.033854 -1.26302,-0.9505208 -3.17708,-0.9505208 -2.20052,0 -3.6849,1.0546875 -1.47135,1.0546874 -2.07031,2.8385413 -0.59896,1.770834 -0.59896,3.658854 0,2.434896 0.70313,4.257813 0.71614,1.809896 2.21354,2.708333 1.49739,0.898437 3.24219,0.898437 2.12239,0 3.59375,-1.223958 1.47135,-1.223958 1.99218,-3.632812 z" />
    <path
       id="path15"
       style=""
       d="m 179.32237,11.300211 h 6.18489 v 5.403646 h 2.98177 q 3.16406,0 4.59636,1.236979 1.43229,1.223958 1.43229,3.007813 0,1.848958 -1.39323,3.020833 -1.38021,1.158854 -4.08854,1.158854 h -5.8724 V 13.240315 h -3.84114 z m 6.18489,11.927083 h 2.46094 q 2.23958,0 3.17708,-0.533854 0.9375,-0.546875 0.9375,-1.744791 0,-1.09375 -0.80729,-1.692709 -0.79427,-0.598958 -2.99479,-0.598958 h -2.77344 z" />
    <path
       id="path17"
       style=""
       d="m 206.69216,20.675211 2.42187,0.299479 q -0.57291,2.122396 -2.12239,3.294271 -1.54948,1.171875 -3.95834,1.171875 -3.03385,0 -4.8177,-1.861979 -1.77084,-1.875 -1.77084,-5.247396 0,-3.489583 1.79688,-5.416666 1.79687,-1.927084 4.66146,-1.927084 2.77343,0 4.53125,1.888021 1.75781,1.888021 1.75781,5.3125 0,0.208333 -0.013,0.625 h -10.3125 q 0.13021,2.278646 1.28906,3.489583 1.15885,1.210938 2.89063,1.210938 1.28906,0 2.20052,-0.677084 0.91145,-0.677083 1.44531,-2.161458 z m -7.69531,-3.789062 h 7.72135 q -0.15625,-1.744792 -0.88542,-2.617188 -1.11979,-1.354166 -2.90364,-1.354166 -1.61459,0 -2.72136,1.080729 -1.09375,1.080729 -1.21093,2.890625 z" />
    <path
       id="path19"
       style=""
       d="m 212.14789,11.300211 h 2.34375 v 11.888021 h 5.33854 V 11.300211 h 2.34375 v 11.888021 h 5.35156 V 11.300211 h 2.33073 v 13.828125 h -17.70833 z" />
    <path
       id="path21"
       style=""
       d="m 233.43695,11.300211 h 2.34375 v 5.403646 h 2.96875 q 2.90365,0 4.46615,1.132812 1.57552,1.119792 1.57552,3.098959 0,1.731771 -1.31511,2.96875 -1.30208,1.223958 -4.17968,1.223958 h -5.85938 z m 2.34375,11.901042 h 2.46094 q 2.22656,0 3.17708,-0.546875 0.95052,-0.546875 0.95052,-1.705729 0,-0.898438 -0.70312,-1.601563 -0.70313,-0.703125 -3.11198,-0.703125 h -2.77344 z" />
    <path
       id="path23"
       style=""
       d="m 263.13747,11.300211 v 5.976563 q 1.11979,0 1.57552,-0.429688 0.45573,-0.429687 1.32812,-2.5 0.82031,-1.966146 1.47136,-2.513021 0.63802,-0.533854 2.03125,-0.533854 h 0.85937 v 1.940104 l -0.63802,-0.01302 q -0.9375,0 -1.19792,0.273437 -0.27343,0.286458 -0.83333,1.705729 -0.52083,1.354167 -0.96354,1.875 -0.44271,0.520833 -1.38021,0.950521 1.52344,0.403646 2.96875,2.8125 l 2.57813,4.283854 h -2.57813 l -2.51302,-4.283854 q -0.76823,-1.302083 -1.34115,-1.705729 -0.57291,-0.403646 -1.36718,-0.403646 v 6.393229 h -2.39584 v -6.393229 q -0.78125,0 -1.35416,0.403646 -0.57292,0.390625 -1.34115,1.705729 l -2.51302,4.283854 h -2.57813 l 2.56511,-4.283854 q 1.45833,-2.408854 2.98177,-2.8125 -1.04167,-0.481771 -1.45833,-1.041667 -0.41667,-0.572916 -1.25,-2.708333 -0.28646,-0.716146 -0.61198,-0.885417 -0.33854,-0.16927 -1.00261,-0.16927 -0.16927,0 -0.6901,0.01302 v -1.940104 h 0.32552 q 1.35417,0 1.90104,0.169271 0.5599,0.15625 0.98958,0.690104 0.44271,0.520834 1.14584,2.1875 0.85937,2.044271 1.30208,2.486979 0.45573,0.442709 1.58854,0.442709 v -5.976563 z" />
    <path
       id="path25"
       style=""
       d="m 282.10882,20.675211 2.42188,0.299479 q -0.57292,2.122396 -2.1224,3.294271 -1.54948,1.171875 -3.95833,1.171875 -3.03386,0 -4.81771,-1.861979 -1.77083,-1.875 -1.77083,-5.247396 0,-3.489583 1.79687,-5.416666 1.79688,-1.927084 4.66146,-1.927084 2.77344,0 4.53125,1.888021 1.75781,1.888021 1.75781,5.3125 0,0.208333 -0.013,0.625 h -10.3125 q 0.13021,2.278646 1.28906,3.489583 1.15886,1.210938 2.89063,1.210938 1.28906,0 2.20052,-0.677084 0.91146,-0.677083 1.44531,-2.161458 z m -7.69531,-3.789062 h 7.72135 q -0.15625,-1.744792 -0.88541,-2.617188 -1.11979,-1.354166 -2.90365,-1.354166 -1.61458,0 -2.72135,1.080729 -1.09375,1.080729 -1.21094,2.890625 z" />
    <path
       id="path27"
       style=""
       d="m 304.34841,20.675211 2.42187,0.299479 q -0.57291,2.122396 -2.12239,3.294271 -1.54948,1.171875 -3.95834,1.171875 -3.03385,0 -4.8177,-1.861979 -1.77084,-1.875 -1.77084,-5.247396 0,-3.489583 1.79688,-5.416666 1.79687,-1.927084 4.66146,-1.927084 2.77343,0 4.53125,1.888021 1.75781,1.888021 1.75781,5.3125 0,0.208333 -0.013,0.625 h -10.3125 q 0.13021,2.278646 1.28906,3.489583 1.15885,1.210938 2.89063,1.210938 1.28906,0 2.20052,-0.677084 0.91145,-0.677083 1.44531,-2.161458 z m -7.69531,-3.789062 h 7.72135 q -0.15625,-1.744792 -0.88542,-2.617188 -1.11979,-1.354166 -2.90364,-1.354166 -1.61459,0 -2.72136,1.080729 -1.09375,1.080729 -1.21093,2.890625 z" />
    <path
       id="path29"
       style=""
       d="m 309.80414,11.300211 h 2.34375 v 11.901042 h 5.33854 V 11.300211 h 2.34375 v 11.901042 h 5.35156 V 11.300211 h 2.33073 v 11.901042 h 1.54948 v 5.846354 h -1.9401 v -3.919271 h -17.31771 z" />
    <path
       id="path31"
       style=""
       d="m 341.11924,20.675211 2.42187,0.299479 q -0.57291,2.122396 -2.12239,3.294271 -1.54948,1.171875 -3.95834,1.171875 -3.03385,0 -4.81771,-1.861979 -1.77083,-1.875 -1.77083,-5.247396 0,-3.489583 1.79688,-5.416666 1.79687,-1.927084 4.66145,-1.927084 2.77344,0 4.53125,1.888021 1.75782,1.888021 1.75782,5.3125 0,0.208333 -0.013,0.625 h -10.3125 q 0.1302,2.278646 1.28906,3.489583 1.15885,1.210938 2.89062,1.210938 1.28907,0 2.20052,-0.677084 0.91146,-0.677083 1.44532,-2.161458 z m -7.69532,-3.789062 h 7.72136 q -0.15625,-1.744792 -0.88542,-2.617188 -1.11979,-1.354166 -2.90364,-1.354166 -1.61459,0 -2.72136,1.080729 -1.09375,1.080729 -1.21094,2.890625 z M 333.5932,8.591878 V 5.9226072 h 2.44791 V 8.591878 Z m 4.85677,0 V 5.9226072 h 2.44791 V 8.591878 Z" />
    <path
       id="path33"
       style=""
       d="m 357.46038,17.081461 v 1.927083 h 4.88281 q -0.22135,2.252605 -1.17187,3.385417 -0.9375,1.119792 -2.61719,1.119792 -2.96875,0 -3.50261,-3.4375 l -2.29166,0.299479 q 0.36458,2.278646 1.88802,3.671875 1.53646,1.393229 4.01041,1.393229 2.94271,0.169271 4.5573,-1.861979 1.61458,-2.044271 1.53645,-5.364583 0,-3.372396 -1.67968,-5.299479 -1.67969,-1.927084 -4.58334,-1.927084 -2.3177,0 -3.75,1.236979 -1.43229,1.223959 -1.74479,3.164063 l 2.27865,0.364583 q 0.57291,-2.825521 3.29427,-2.825521 1.5625,0 2.55208,1.158855 1.00261,1.145833 1.22396,2.994791 z" />
    <path
       id="path35"
       style=""
       d="m 365.67652,11.300211 h 11.23698 v 1.940104 h -4.45312 v 11.888021 h -2.33073 V 13.240315 h -4.45313 z" />
    <path
       id="path37"
       style=""
       d="m 379.20517,11.300211 h 2.34375 v 10.546875 l 6.4974,-10.546875 h 2.52604 v 13.828125 h -2.34375 V 14.646565 l -6.4974,10.481771 h -2.52604 z" />
    <path
       id="path39"
       style=""
       d="m 392.53851,25.128336 5.05209,-7.1875 -4.67448,-6.640625 h 2.92968 l 2.1224,3.242188 q 0.59896,0.924479 0.96354,1.549479 0.57292,-0.859375 1.05469,-1.523438 l 2.33073,-3.268229 h 2.79948 l -4.77865,6.510417 5.14323,7.317708 h -2.8776 l -2.83854,-4.296875 -0.75521,-1.158854 -3.63282,5.455729 z" />
    <path
       id="path41"
       style=""
       d="m 161.35362,44.633547 h 3.64583 l 3.63281,11.067708 4.03646,-11.067708 h 3.3724 v 13.828125 h -2.34375 V 47.32886 l -4.08854,11.132812 h -2.09636 l -3.86719,-11.666667 v 11.666667 h -2.29166 z" />
    <path
       id="path43"
       style=""
       d="m 190.50726,44.633547 v 13.828125 h -2.33073 v -5.390625 h -1.35416 q -1.23698,0 -1.84896,0.325521 -0.59896,0.3125 -1.75781,2.044271 l -2.04428,3.020833 h -2.90364 l 2.52604,-3.723958 q 1.15885,-1.70573 2.30469,-1.927084 -2.00521,-0.273437 -2.98177,-1.445312 -0.96354,-1.171875 -0.96354,-2.695313 0,-1.796875 1.26302,-2.916666 1.27604,-1.119792 3.68489,-1.119792 z m -2.33073,1.940104 h -3.33333 q -2.09635,0 -2.70833,0.651042 -0.59896,0.651042 -0.59896,1.523437 0,1.23698 0.88541,1.822917 0.89844,0.572917 3.16407,0.572917 h 2.59114 z" />
    <path
       id="path45"
       style=""
       d="m 194.06195,44.633547 h 7.95573 v 1.940104 h -5.61198 v 11.888021 h -2.34375 z" />
    <path
       id="path47"
       style=""
       d="m 203.77549,44.633547 h 2.34375 v 5.976563 q 1.11979,0 1.5625,-0.429688 0.45573,-0.429687 1.32813,-2.5 0.6901,-1.640625 1.11979,-2.161458 0.42969,-0.520834 0.98958,-0.703125 0.5599,-0.182292 1.79688,-0.182292 h 0.46875 v 1.940104 l -0.65104,-0.01302 q -0.92448,0 -1.1849,0.273438 -0.27344,0.286458 -0.83333,1.705729 -0.53386,1.354167 -0.97657,1.875 -0.4427,0.520833 -1.36718,0.950521 1.51041,0.403646 2.96875,2.8125 l 2.5651,4.283854 h -2.57812 l -2.5,-4.283854 q -0.76823,-1.289063 -1.34115,-1.692709 -0.57292,-0.416666 -1.36719,-0.416666 v 6.393229 h -2.34375 z" />
    <path
       id="path49"
       style=""
       d="m 215.45518,44.633547 h 2.34375 v 10.546875 l 6.49739,-10.546875 h 2.52604 v 13.828125 h -2.34375 V 47.979901 l -6.49739,10.481771 h -2.52604 z" />
    <path
       id="path51"
       style=""
       d="m 228.78851,58.461672 5.05209,-7.1875 -4.67448,-6.640625 h 2.92968 l 2.1224,3.242188 q 0.59896,0.924479 0.96354,1.549479 0.57292,-0.859375 1.05469,-1.523438 l 2.33073,-3.268229 h 2.79948 l -4.77865,6.510417 5.14323,7.317708 h -2.8776 l -2.83854,-4.296875 -0.75521,-1.158854 -3.63282,5.455729 z" />
    <path
       id="path53"
       style=""
       d="m 259.12705,39.373131 h 2.34375 v 6.601562 q 0.72917,-0.833333 1.60156,-1.236979 0.8724,-0.416667 1.875,-0.416667 2.46094,0 3.89323,2.057292 1.44532,2.044271 1.44532,5.15625 0,3.242187 -1.54948,5.247395 -1.54948,1.992188 -3.85417,1.992188 -0.75521,0 -1.53646,-0.234375 -0.78125,-0.234375 -1.875,-1.276042 v 6.497396 h -2.34375 v -6.497396 q -0.70312,0.755209 -1.5625,1.132813 -0.84635,0.377604 -1.83594,0.377604 -2.17447,0 -3.80208,-1.901042 -1.6276,-1.914062 -1.6276,-5.46875 0,-3.007812 1.47135,-5.039062 1.47136,-2.044271 3.95833,-2.044271 1.04167,0 1.88803,0.416667 0.84635,0.403646 1.51041,1.236979 z m 2.33073,12.226562 q 0,3.125 0.85938,4.205729 0.85937,1.067708 2.14843,1.067708 1.4323,0 2.4349,-1.315104 1.01562,-1.328125 1.01562,-4.114583 0,-2.630208 -0.9375,-3.919271 -0.92447,-1.289062 -2.38281,-1.289062 -1.5625,0 -2.35677,1.341145 -0.78125,1.341146 -0.78125,4.023438 z m -8.77604,-0.260417 q 0,2.929688 0.97656,4.21875 0.98959,1.289063 2.44792,1.289063 1.52344,0 2.27864,-1.276042 0.75521,-1.289063 0.75521,-3.854167 0,-2.734375 -0.79427,-4.101562 -0.79427,-1.367188 -2.39583,-1.367188 -1.44531,0 -2.35677,1.341146 -0.91146,1.328125 -0.91146,3.75 z" />
    <path
       id="path55"
       style=""
       d="M 273.00726,63.761151 V 44.633547 h 2.13541 v 1.796875 q 0.75521,-1.054687 1.70573,-1.575521 0.95052,-0.533854 2.30469,-0.533854 1.77083,0 3.125,0.911458 1.35417,0.911459 2.04427,2.578125 0.6901,1.653646 0.6901,3.632813 0,2.122396 -0.76823,3.828125 -0.7552,1.692708 -2.21354,2.604166 -1.44531,0.898438 -3.04687,0.898438 -1.17188,0 -2.10938,-0.494792 -0.92448,-0.494791 -1.52343,-1.25 v 6.731771 z m 2.12239,-12.135417 q 0,2.669271 1.08073,3.945313 1.08073,1.276042 2.61719,1.276042 1.5625,0 2.66927,-1.315105 1.11979,-1.328125 1.11979,-4.101562 0,-2.643229 -1.09375,-3.958333 -1.08073,-1.315104 -2.59115,-1.315104 -1.49739,0 -2.65625,1.40625 -1.14583,1.393229 -1.14583,4.062499 z" />
    <path
       id="path57"
       style=""
       d="m 296.87444,56.755943 q -1.30208,1.106771 -2.51302,1.5625 -1.19791,0.455729 -2.57812,0.455729 -2.27865,0 -3.50261,-1.106771 -1.22396,-1.119792 -1.22396,-2.851562 0,-1.015625 0.45573,-1.848959 0.46875,-0.846354 1.21094,-1.354166 0.75521,-0.507813 1.69271,-0.768229 0.6901,-0.182292 2.08333,-0.351563 2.83854,-0.338542 4.17969,-0.807292 0.013,-0.48177 0.013,-0.611979 0,-1.432291 -0.66406,-2.018229 -0.89844,-0.794271 -2.66927,-0.794271 -1.65365,0 -2.44792,0.585938 -0.78125,0.572916 -1.15885,2.044271 l -2.29167,-0.3125 q 0.3125,-1.471355 1.02865,-2.369792 0.71614,-0.911458 2.07031,-1.393229 1.35417,-0.494792 3.13802,-0.494792 1.77083,0 2.8776,0.416667 1.10677,0.416666 1.62761,1.054687 0.52083,0.625 0.72916,1.588542 0.11719,0.598958 0.11719,2.161458 v 3.125 q 0,3.268229 0.14323,4.140625 0.15625,0.859375 0.59896,1.653646 h -2.44792 q -0.36458,-0.729167 -0.46875,-1.705729 z m -0.19531,-5.234375 q -1.27604,0.520833 -3.82812,0.885416 -1.44532,0.208334 -2.04428,0.46875 -0.59895,0.260417 -0.92447,0.76823 -0.32553,0.494791 -0.32553,1.10677 0,0.9375 0.70313,1.5625 0.71615,0.625 2.08333,0.625 1.35417,0 2.40886,-0.585937 1.05468,-0.598958 1.54948,-1.627604 0.3776,-0.794271 0.3776,-2.34375 z" />
    <path
       id="path59"
       style=""
       d="m 302.70778,44.633547 h 2.34375 v 5.755208 h 6.4974 v -5.755208 h 2.34375 v 13.828125 h -2.34375 v -6.132813 h -6.4974 v 6.132813 h -2.34375 z" />
    <path
       id="path61"
       style=""
       d="m 317.4734,44.633547 h 2.34375 v 11.901042 h 6.48438 V 44.633547 h 2.34375 v 11.901042 h 1.51042 v 5.846354 h -1.92709 V 58.461672 H 317.4734 Z" />
    <path
       id="path63"
       style=""
       d="m 332.5906,63.787193 -0.26042,-2.200521 q 0.76823,0.208333 1.34115,0.208333 0.78125,0 1.25,-0.260417 0.46875,-0.260416 0.76822,-0.729166 0.22136,-0.351563 0.71615,-1.744792 0.0651,-0.195312 0.20833,-0.572917 l -5.24739,-13.854166 h 2.52604 l 2.8776,8.007812 q 0.5599,1.523438 1.00261,3.203125 0.40364,-1.614583 0.96354,-3.151041 l 2.95573,-8.059896 h 2.34375 l -5.26042,14.0625 q -0.84635,2.278646 -1.3151,3.138021 -0.625,1.158854 -1.43229,1.692708 -0.8073,0.546875 -1.92709,0.546875 -0.67708,0 -1.51041,-0.286458 z" />
    <path
       id="path65"
       style=""
       d="m 349.08799,52.211672 v -1.835937 q 1.48437,-0.01302 2.01823,-0.117188 0.54687,-0.104167 1.02864,-0.625 0.48177,-0.520833 0.48177,-1.302083 0,-0.950521 -0.63802,-1.510417 -0.625,-0.572917 -1.6276,-0.572917 -1.97917,0 -2.77344,2.33073 l -2.22656,-0.364584 q 1.04166,-3.893229 5.02604,-3.893229 2.21354,0 3.46354,1.210938 1.26302,1.210937 1.26302,2.890625 0,1.692708 -1.64062,2.695312 1.04166,0.559896 1.5625,1.432292 0.52083,0.859375 0.52083,2.04427 0,1.86198 -1.35417,3.020834 -1.35416,1.158854 -3.78906,1.158854 -4.72656,0 -5.48177,-4.205729 l 2.20052,-0.46875 q 0.29948,1.328125 1.21094,2.057291 0.92448,0.729167 2.10937,0.729167 1.1849,0 1.96615,-0.664062 0.79427,-0.677084 0.79427,-1.71875 0,-0.807292 -0.49479,-1.40625 -0.49479,-0.598959 -1.05469,-0.742188 -0.55989,-0.15625 -2.03125,-0.15625 -0.11719,0 -0.53385,0.01302 z" />
    <path
       id="path67"
       style=""
       d="m 366.97861,53.396568 2.30468,0.299479 q -0.3776,2.382812 -1.9401,3.736979 -1.54948,1.341146 -3.8151,1.341146 -2.83855,0 -4.57032,-1.848958 -1.71875,-1.86198 -1.71875,-5.325521 0,-2.239583 0.74219,-3.919271 0.74219,-1.679687 2.25261,-2.513021 1.52343,-0.846354 3.30729,-0.846354 2.2526,0 3.68489,1.145833 1.43229,1.132813 1.83594,3.229167 l -2.27865,0.351563 q -0.32552,-1.39323 -1.15885,-2.096355 -0.82031,-0.703125 -1.99219,-0.703125 -1.77083,0 -2.8776,1.276042 -1.10677,1.263021 -1.10677,4.010417 0,2.786458 1.06771,4.049479 1.0677,1.263021 2.78645,1.263021 1.38021,0 2.30469,-0.846355 0.92448,-0.846354 1.17188,-2.604166 z" />
    <path
       id="path69"
       style=""
       d="m 371.27549,44.633547 h 2.34375 v 5.976563 q 1.11979,0 1.5625,-0.429688 0.45573,-0.429687 1.32813,-2.5 0.6901,-1.640625 1.11979,-2.161458 0.42969,-0.520834 0.98958,-0.703125 0.5599,-0.182292 1.79688,-0.182292 h 0.46875 v 1.940104 l -0.65104,-0.01302 q -0.92448,0 -1.1849,0.273438 -0.27344,0.286458 -0.83333,1.705729 -0.53386,1.354167 -0.97657,1.875 -0.4427,0.520833 -1.36718,0.950521 1.51041,0.403646 2.96875,2.8125 l 2.5651,4.283854 h -2.57812 l -2.5,-4.283854 q -0.76823,-1.289063 -1.34115,-1.692709 -0.57292,-0.416666 -1.36719,-0.416666 v 6.393229 h -2.34375 z" />
    <path
       id="path71"
       style=""
       d="m 382.95517,44.633547 h 2.34375 v 10.546875 l 6.4974,-10.546875 h 2.52604 v 13.828125 h -2.34375 V 47.979901 l -6.4974,10.481771 h -2.52604 z" />
    <path
       id="path73"
       style=""
       d="m 396.28851,58.461672 5.05209,-7.1875 -4.67448,-6.640625 h 2.92968 l 2.1224,3.242188 q 0.59896,0.924479 0.96354,1.549479 0.57292,-0.859375 1.05469,-1.523438 l 2.33073,-3.268229 h 2.79948 l -4.77865,6.510417 5.14323,7.317708 h -2.8776 l -2.83854,-4.296875 -0.75521,-1.158854 -3.63282,5.455729 z" />
    <path
       id="path75"
       style=""
       d="m 171.41872,72.250737 2.07031,0.02604 q -0.14323,1.393229 -0.625,1.940104 -0.46875,0.546875 -1.22395,0.703125 -0.74219,0.15625 -2.92969,0.15625 -2.90365,0 -3.95834,0.559896 -1.05468,0.559896 -1.52343,1.796875 -0.45573,1.223958 -0.50782,3.164062 0.88542,-1.315104 2.07032,-1.966145 1.18489,-0.664063 2.66927,-0.664063 2.72135,0 4.50521,1.875 1.78385,1.861979 1.78385,5.052083 0,2.421875 -0.89844,3.971354 -0.89843,1.549479 -2.13541,2.395834 -1.22396,0.846354 -3.34636,0.846354 -2.46094,0 -3.82812,-1.119792 -1.36719,-1.132812 -2.09636,-2.890625 -0.72916,-1.757812 -0.72916,-6.119791 0,-5.481771 1.84895,-7.382813 1.86198,-1.901041 5.71615,-1.901041 2.39583,0 2.72135,-0.07813 0.32553,-0.07813 0.41667,-0.364584 z m -0.11719,12.578125 q 0,-2.161458 -1.02864,-3.541667 -1.01563,-1.380208 -2.87761,-1.380208 -1.9401,0 -2.99479,1.458333 -1.05469,1.458334 -1.05469,3.89323 0,2.408854 1.15886,3.684895 1.17187,1.276042 2.8776,1.276042 1.74479,0 2.82552,-1.471354 1.09375,-1.484375 1.09375,-3.919271 z" />
    <path
       id="path77"
       style=""
       d="m 175.89789,97.120528 -0.26042,-2.20052 q 0.76823,0.208333 1.34115,0.208333 0.78125,0 1.25,-0.260417 0.46875,-0.260416 0.76823,-0.729166 0.22135,-0.351563 0.71614,-1.744792 0.0651,-0.195312 0.20834,-0.572917 l -5.2474,-13.854166 h 2.52604 l 2.87761,8.007812 q 0.55989,1.523438 1.0026,3.203125 0.40365,-1.614583 0.96354,-3.151041 l 2.95573,-8.059896 h 2.34375 l -5.26042,14.0625 q -0.84635,2.278645 -1.3151,3.13802 -0.625,1.158855 -1.43229,1.692709 -0.80729,0.546875 -1.92708,0.546875 -0.67709,0 -1.51042,-0.286459 z" />
    <path
       id="path79"
       style=""
       d="m 189.9083,77.966883 h 10.88542 v 13.828125 h -2.33073 V 79.906987 h -6.21094 v 6.888021 q 0,2.408854 -0.15625,3.177083 -0.15625,0.768229 -0.85937,1.341146 -0.70313,0.572917 -2.03125,0.572917 -0.82031,0 -1.88802,-0.104167 v -1.953125 h 1.02864 q 0.72917,0 1.04167,-0.143229 0.3125,-0.15625 0.41667,-0.481771 0.10416,-0.325521 0.10416,-2.122396 z" />
    <path
       id="path81"
       style=""
       d="m 203.80153,84.880945 q 0,-3.841145 2.13542,-5.690104 1.78385,-1.536458 4.34896,-1.536458 2.85156,0 4.66145,1.875 1.8099,1.861979 1.8099,5.15625 0,2.669271 -0.80729,4.205729 -0.79427,1.523437 -2.33073,2.369792 -1.52344,0.846354 -3.33333,0.846354 -2.90365,0 -4.70052,-1.861979 -1.78386,-1.86198 -1.78386,-5.364584 z m 2.40886,0 q 0,2.65625 1.15885,3.984375 1.15885,1.315104 2.91667,1.315104 1.74479,0 2.90364,-1.328125 1.15886,-1.328125 1.15886,-4.049479 0,-2.565104 -1.17188,-3.880208 -1.15885,-1.328125 -2.89062,-1.328125 -1.75782,0 -2.91667,1.315104 -1.15885,1.315104 -1.15885,3.971354 z" />
    <path
       id="path83"
       style=""
       d="m 219.50466,77.966883 h 2.34375 v 5.976562 q 1.11979,0 1.5625,-0.429687 0.45573,-0.429688 1.32812,-2.5 0.69011,-1.640625 1.11979,-2.161458 0.42969,-0.520834 0.98959,-0.703125 0.55989,-0.182292 1.79687,-0.182292 h 0.46875 v 1.940104 l -0.65104,-0.01302 q -0.92448,0 -1.1849,0.273438 -0.27343,0.286458 -0.83333,1.705729 -0.53385,1.354167 -0.97656,1.875 -0.44271,0.520833 -1.36719,0.950521 1.51042,0.403646 2.96875,2.8125 l 2.5651,4.283854 h -2.57812 l -2.5,-4.283854 q -0.76823,-1.289063 -1.34115,-1.692709 -0.57291,-0.416666 -1.36718,-0.416666 v 6.393229 h -2.34375 z" />
    <path
       id="path85"
       style=""
       d="m 240.42914,77.966883 h 9.63541 v 11.901041 h 1.4974 v 5.846354 h -1.92709 v -3.91927 h -10.88541 v 3.91927 h -1.92709 v -5.846354 h 1.23698 q 2.47396,-3.359375 2.3698,-11.901041 z m 1.95312,1.940104 q -0.26042,6.731771 -2.08333,9.960937 h 7.43489 v -9.960937 z" />
    <path
       id="path87"
       style=""
       d="m 263.17653,90.089279 q -1.30208,1.10677 -2.51302,1.5625 -1.19792,0.455729 -2.57813,0.455729 -2.27864,0 -3.5026,-1.106771 -1.22396,-1.119792 -1.22396,-2.851563 0,-1.015625 0.45573,-1.848958 0.46875,-0.846354 1.21094,-1.354166 0.75521,-0.507813 1.69271,-0.76823 0.6901,-0.182291 2.08333,-0.351562 2.83854,-0.338542 4.17969,-0.807292 0.013,-0.481771 0.013,-0.611979 0,-1.432292 -0.66407,-2.018229 -0.89843,-0.794271 -2.66927,-0.794271 -1.65364,0 -2.44791,0.585938 -0.78125,0.572916 -1.15886,2.04427 l -2.29166,-0.3125 q 0.3125,-1.471354 1.02864,-2.369791 0.71615,-0.911458 2.07031,-1.393229 1.35417,-0.494792 3.13803,-0.494792 1.77083,0 2.8776,0.416667 1.10677,0.416666 1.6276,1.054687 0.52084,0.625 0.72917,1.588542 0.11719,0.598958 0.11719,2.161458 v 3.125 q 0,3.268229 0.14323,4.140625 0.15625,0.859375 0.59896,1.653646 h -2.44792 q -0.36458,-0.729167 -0.46875,-1.705729 z m -0.19531,-5.234375 q -1.27605,0.520833 -3.82813,0.885416 -1.44531,0.208334 -2.04427,0.46875 -0.59896,0.260417 -0.92448,0.768229 -0.32552,0.494792 -0.32552,1.106771 0,0.9375 0.70313,1.5625 0.71614,0.625 2.08333,0.625 1.35417,0 2.40885,-0.585937 1.05469,-0.598959 1.54948,-1.627604 0.37761,-0.794271 0.37761,-2.34375 z" />
    <path
       id="path89"
       style=""
       d="m 276.4057,77.966883 h 5.40364 q 1.99219,0 2.95573,0.338542 0.97657,0.325521 1.66667,1.210937 0.70312,0.885417 0.70312,2.122396 0,0.989583 -0.41666,1.731771 -0.40365,0.729166 -1.22396,1.223958 0.97656,0.325521 1.61458,1.223958 0.65104,0.885417 0.65104,2.109375 -0.1302,1.966146 -1.40625,2.916667 -1.27604,0.950521 -3.71093,0.950521 h -6.23698 z m 2.34375,5.820312 h 2.5 q 1.49739,0 2.05729,-0.15625 0.5599,-0.15625 1.0026,-0.625 0.44271,-0.48177 0.44271,-1.145833 0,-1.09375 -0.78125,-1.523437 -0.76823,-0.429688 -2.64323,-0.429688 h -2.57812 z m 0,6.080729 h 3.08594 q 1.99218,0 2.73437,-0.455729 0.74219,-0.46875 0.78125,-1.601562 0,-0.664063 -0.42969,-1.223959 -0.42968,-0.572916 -1.11979,-0.716145 -0.6901,-0.15625 -2.21354,-0.15625 h -2.83854 z" />
    <path
       id="path91"
       style=""
       d="m 303.7234,77.966883 h 2.34375 v 13.828125 h -2.34375 z m -13.11198,0 h 2.34375 v 5.403646 h 2.96875 q 2.90365,0 4.46615,1.132812 1.57552,1.119792 1.57552,3.098958 0,1.731771 -1.3151,2.96875 -1.30209,1.223959 -4.17969,1.223959 h -5.85938 z m 2.34375,11.901041 h 2.46094 q 2.22656,0 3.17709,-0.546875 0.95052,-0.546875 0.95052,-1.705729 0,-0.898437 -0.70313,-1.601562 -0.70312,-0.703125 -3.11198,-0.703125 h -2.77344 z" />
    <path
       id="path93"
       style=""
       d="m 309.73903,77.966883 h 10.91146 v 13.828125 h -2.34375 V 79.906987 h -6.22396 v 11.888021 h -2.34375 z" />
    <path
       id="path95"
       style=""
       d="m 333.61924,87.341883 2.42187,0.299479 q -0.57291,2.122396 -2.12239,3.294271 -1.54948,1.171875 -3.95834,1.171875 -3.03385,0 -4.81771,-1.861979 -1.77083,-1.875 -1.77083,-5.247396 0,-3.489583 1.79688,-5.416667 1.79687,-1.927083 4.66145,-1.927083 2.77344,0 4.53125,1.888021 1.75782,1.888021 1.75782,5.3125 0,0.208333 -0.013,0.625 h -10.3125 q 0.1302,2.278645 1.28906,3.489583 1.15885,1.210937 2.89062,1.210937 1.28907,0 2.20052,-0.677083 0.91146,-0.677083 1.44532,-2.161458 z m -7.69532,-3.789063 h 7.72136 q -0.15625,-1.744791 -0.88542,-2.617187 -1.11979,-1.354167 -2.90364,-1.354167 -1.61459,0 -2.72136,1.080729 -1.09375,1.08073 -1.21094,2.890625 z" />
    <path
       id="path97"
       style=""
       d="m 338.99684,77.966883 h 2.34375 v 10.546875 l 6.4974,-10.546875 h 2.52604 v 13.828125 h -2.34375 V 81.313237 l -6.4974,10.481771 h -2.52604 z m 8.13802,-5.234375 h 1.60156 q -0.19531,1.627604 -1.19791,2.5 -0.98959,0.872396 -2.64323,0.872396 -1.66667,0 -2.66927,-0.859375 -0.98959,-0.872396 -1.1849,-2.513021 h 1.60156 q 0.1823,0.885417 0.71615,1.328125 0.54688,0.429688 1.45833,0.429688 1.05469,0 1.58855,-0.416667 0.54687,-0.429688 0.72916,-1.341146 z" />
    <path
       id="path99"
       style=""
       d="m 360.42914,77.966883 h 2.34375 v 2.617187 q 0,1.692709 0.19531,2.460938 0.20833,0.755208 0.97656,1.328125 0.76823,0.559896 1.92709,0.559896 1.32812,0 3.4375,-0.703125 v -6.263021 h 2.34375 v 13.828125 h -2.34375 v -5.572917 q -2.16146,0.677083 -4.03646,0.677083 -1.57552,0 -2.78646,-0.79427 -1.19792,-0.807292 -1.6276,-1.966146 -0.42969,-1.158854 -0.42969,-2.552083 z" />
    <path
       id="path101"
       style=""
       d="m 384.2182,90.089279 q -1.30208,1.10677 -2.51302,1.5625 -1.19792,0.455729 -2.57813,0.455729 -2.27864,0 -3.5026,-1.106771 -1.22396,-1.119792 -1.22396,-2.851563 0,-1.015625 0.45573,-1.848958 0.46875,-0.846354 1.21094,-1.354166 0.75521,-0.507813 1.69271,-0.76823 0.6901,-0.182291 2.08333,-0.351562 2.83854,-0.338542 4.17969,-0.807292 0.013,-0.481771 0.013,-0.611979 0,-1.432292 -0.66406,-2.018229 -0.89844,-0.794271 -2.66927,-0.794271 -1.65365,0 -2.44792,0.585938 -0.78125,0.572916 -1.15886,2.04427 l -2.29166,-0.3125 q 0.3125,-1.471354 1.02864,-2.369791 0.71615,-0.911458 2.07032,-1.393229 1.35416,-0.494792 3.13802,-0.494792 1.77083,0 2.8776,0.416667 1.10677,0.416666 1.62761,1.054687 0.52083,0.625 0.72916,1.588542 0.11719,0.598958 0.11719,2.161458 v 3.125 q 0,3.268229 0.14323,4.140625 0.15625,0.859375 0.59896,1.653646 h -2.44792 q -0.36458,-0.729167 -0.46875,-1.705729 z m -0.19531,-5.234375 q -1.27604,0.520833 -3.82813,0.885416 -1.44531,0.208334 -2.04427,0.46875 -0.59896,0.260417 -0.92448,0.768229 -0.32552,0.494792 -0.32552,1.106771 0,0.9375 0.70313,1.5625 0.71614,0.625 2.08333,0.625 1.35417,0 2.40885,-0.585937 1.05469,-0.598959 1.54948,-1.627604 0.37761,-0.794271 0.37761,-2.34375 z" />
    <path
       id="path103"
       style=""
       d="m 390.06455,77.966883 h 2.34375 v 5.78125 h 2.83855 q 0.3125,-2.96875 1.84895,-4.53125 1.54948,-1.5625 4.01042,-1.5625 2.09636,0 3.30729,0.846354 1.21094,0.846354 1.99219,2.330729 0.79427,1.484375 0.79427,3.997396 0,3.580729 -1.6276,5.429687 -1.62761,1.848959 -4.41407,1.848959 -2.59114,0 -4.15364,-1.71875 -1.5625,-1.71875 -1.75781,-4.713542 h -2.83855 v 6.119792 h -2.34375 z m 11.17188,1.679687 q -1.71875,0 -2.68229,1.328125 -0.95052,1.315105 -0.95052,3.697917 0,2.851562 0.96354,4.179687 0.96354,1.328125 2.57812,1.328125 1.60157,0 2.61719,-1.223958 1.02865,-1.236979 1.02865,-3.971354 0,-2.669271 -0.88542,-3.997396 -0.88542,-1.341146 -2.66927,-1.341146 z" />
  </g>
</svg>
