<?xml version="1.0" encoding="UTF-8" standalone="no"?>
<svg
   xmlns:dc="http://purl.org/dc/elements/1.1/"
   xmlns:cc="http://creativecommons.org/ns#"
   xmlns:rdf="http://www.w3.org/1999/02/22-rdf-syntax-ns#"
   xmlns:svg="http://www.w3.org/2000/svg"
   xmlns="http://www.w3.org/2000/svg"
   id="svg2"
   version="1.1"
   viewBox="160.50726 5.7142739 204.27083 91.692713">
  <metadata
     id="metadata11">
    <rdf:RDF>
      <cc:Work
         rdf:about="">
        <dc:format>image/svg+xml</dc:format>
        <dc:type
           rdf:resource="http://purl.org/dc/dcmitype/StillImage" />
      </cc:Work>
    </rdf:RDF>
  </metadata>
  <defs
     id="defs9" />
  <g
     id="text4521"
     style="font-style:normal;font-variant:normal;font-weight:normal;font-stretch:normal;font-size:26.66666603px;line-height:125%;font-family:'Arial Narrow', sans-serif;font-variant-ligatures:normal;font-variant-caps:normal;font-variant-numeric:normal;font-feature-settings:normal;text-align:left;letter-spacing:0px;word-spacing:0px;writing-mode:lr-tb;text-anchor:start;fill:#000000;fill-opacity:1;stroke:none;stroke-width:1px;stroke-linecap:butt;stroke-linejoin:miter;stroke-opacity:1"
     aria-label="Съешь же ещё этихмягких французскихбулок да выпей чаю">
    <path
       id="path13"
       style=""
       d="m 172.33018,18.435628 2.08333,0.638021 q -0.6901,3.216145 -2.42187,4.804687 -1.71875,1.575521 -4.19271,1.575521 -2.17448,0 -3.72396,-1.054688 -1.53646,-1.067708 -2.52604,-3.411458 -0.97656,-2.34375 -0.97656,-5.533854 0,-3.151042 0.97656,-5.325521 0.98958,-2.1874996 2.66927,-3.2942704 1.67969,-1.1197917 3.75,-1.1197917 2.26563,0 3.89323,1.4192708 1.6276,1.40625 2.27865,4.1406253 l -2.03125,0.585937 q -1.04167,-3.9843748 -4.17969,-3.9843748 -1.5625,0 -2.70834,0.8072916 -1.14583,0.7942709 -1.83593,2.4869792 -0.67709,1.692708 -0.67709,4.283854 0,3.919271 1.38021,5.885417 1.38021,1.953124 3.67188,1.953124 1.69271,0 2.91666,-1.197916 1.23698,-1.210938 1.65365,-3.658854 z" />
    <path
       id="path15"
       style=""
       d="m 175.31195,11.300211 h 5.49479 v 5.403646 h 2.44792 q 2.23958,0 3.59375,1.080729 1.35417,1.067708 1.35417,3.164063 0,1.653645 -1.04167,2.916666 -1.04167,1.263021 -3.46354,1.263021 h -4.80469 V 13.240315 h -3.58073 z m 5.49479,11.927083 h 2.01823 q 2.20052,0 2.78646,-0.690104 0.59896,-0.703125 0.59896,-1.588541 0,-1.132813 -0.69011,-1.70573 -0.67708,-0.585937 -2.43489,-0.585937 h -2.27865 z" />
    <path
       id="path17"
       style=""
       d="m 198.12445,20.675211 1.97917,0.299479 q -0.4948,2.213542 -1.79688,3.346354 -1.28906,1.119792 -3.20312,1.119792 -2.40886,0 -3.90625,-1.822917 -1.48438,-1.835937 -1.48438,-5.286458 0,-3.580729 1.4974,-5.455729 1.51041,-1.888021 3.8151,-1.888021 2.20052,0 3.67188,1.848959 1.47135,1.848958 1.47135,5.351562 l -0.013,0.625 h -8.46354 q 0.11719,2.330729 1.08073,3.515625 0.96354,1.184896 2.34375,1.184896 2.16146,0 3.00781,-2.838542 z m -6.3151,-3.789062 h 6.32812 q -0.13021,-1.796875 -0.76823,-2.682292 -0.92448,-1.289062 -2.35677,-1.289062 -1.28906,0 -2.20052,1.080729 -0.91146,1.067708 -1.0026,2.890625 z" />
    <path
       id="path19"
       style=""
       d="m 202.6557,11.300211 h 1.91406 v 11.888021 h 4.38802 V 11.300211 h 1.92709 v 11.888021 h 4.375 V 11.300211 h 1.91406 V 25.128336 H 202.6557 Z" />
    <path
       id="path21"
       style=""
       d="m 220.10361,11.300211 h 1.91407 v 5.403646 h 2.44791 q 2.63021,0 3.78907,1.236979 1.15885,1.236979 1.15885,2.994792 0,1.666666 -1.05469,2.929687 -1.04166,1.263021 -3.45052,1.263021 h -4.80469 z m 1.91407,11.901042 h 2.01823 q 2.20052,0 2.79948,-0.703125 0.59895,-0.703125 0.59895,-1.549479 0,-1.106771 -0.6901,-1.70573 -0.6901,-0.598958 -2.44792,-0.598958 h -2.27864 z" />
    <path
       id="path23"
       style=""
       d="m 244.50466,11.300211 v 5.976563 q 0.91145,0 1.27604,-0.429688 0.3776,-0.429687 1.09375,-2.5 0.57291,-1.653646 0.92448,-2.174479 0.36458,-0.533854 0.80729,-0.703125 0.44271,-0.169271 1.5625,-0.169271 h 0.28646 v 1.940104 l -0.57292,-0.01302 q -0.57292,0 -0.84635,0.195312 -0.26042,0.195313 -0.46875,0.859375 -0.65105,2.096354 -1.02865,2.695312 -0.3776,0.598959 -1.19792,1.054688 1.25,0.403646 2.4349,2.8125 l 2.10937,4.283854 h -2.10937 l -2.05729,-4.283854 q -0.63802,-1.315104 -1.11979,-1.705729 -0.46875,-0.403646 -1.09375,-0.403646 v 6.393229 h -1.96615 v -6.393229 q -0.63802,0 -1.10677,0.390625 -0.46875,0.377604 -1.11979,1.71875 l -2.05729,4.283854 h -2.10938 l 2.10938,-4.283854 q 1.19791,-2.421875 2.43489,-2.8125 -0.79427,-0.442708 -1.17187,-0.989583 -0.36459,-0.546875 -1.05469,-2.760417 -0.19531,-0.651042 -0.46875,-0.846354 -0.26042,-0.208333 -0.84635,-0.208333 l -0.57292,0.01302 v -1.940104 h 0.28646 q 1.15885,0 1.64062,0.208334 0.48177,0.208333 0.80729,0.78125 0.33855,0.559895 1.04167,2.617187 0.54688,1.575521 0.91146,1.979167 0.36458,0.390625 1.27604,0.390625 v -5.976563 z" />
    <path
       id="path25"
       style=""
       d="m 259.99945,20.675211 1.97916,0.299479 q -0.49479,2.213542 -1.79687,3.346354 -1.28907,1.119792 -3.20313,1.119792 -2.40885,0 -3.90625,-1.822917 -1.48437,-1.835937 -1.48437,-5.286458 0,-3.580729 1.49739,-5.455729 1.51042,-1.888021 3.81511,-1.888021 2.20052,0 3.67187,1.848959 1.47136,1.848958 1.47136,5.351562 l -0.013,0.625 h -8.46355 q 0.11719,2.330729 1.08073,3.515625 0.96354,1.184896 2.34375,1.184896 2.16146,0 3.00782,-2.838542 z m -6.31511,-3.789062 h 6.32813 q -0.13021,-1.796875 -0.76823,-2.682292 -0.92448,-1.289062 -2.35677,-1.289062 -1.28907,0 -2.20052,1.080729 -0.91146,1.067708 -1.00261,2.890625 z" />
    <path
       id="path27"
       style=""
       d="m 278.2807,20.675211 1.97916,0.299479 q -0.49479,2.213542 -1.79687,3.346354 -1.28907,1.119792 -3.20313,1.119792 -2.40885,0 -3.90625,-1.822917 -1.48437,-1.835937 -1.48437,-5.286458 0,-3.580729 1.49739,-5.455729 1.51042,-1.888021 3.81511,-1.888021 2.20052,0 3.67187,1.848959 1.47136,1.848958 1.47136,5.351562 l -0.013,0.625 h -8.46355 q 0.11719,2.330729 1.08073,3.515625 0.96354,1.184896 2.34375,1.184896 2.16146,0 3.00782,-2.838542 z m -6.31511,-3.789062 h 6.32813 q -0.13021,-1.796875 -0.76823,-2.682292 -0.92448,-1.289062 -2.35677,-1.289062 -1.28907,0 -2.20052,1.080729 -0.91146,1.067708 -1.00261,2.890625 z" />
    <path
       id="path29"
       style=""
       d="m 282.79892,11.300211 h 1.91407 v 11.901042 h 4.38802 V 11.300211 h 1.92708 v 11.901042 h 4.375 V 11.300211 h 1.91406 v 11.901042 h 1.27605 v 7.226562 h -1.58855 v -5.299479 h -14.20573 z" />
    <path
       id="path31"
       style=""
       d="m 308.48902,20.675211 1.97917,0.299479 q -0.49479,2.213542 -1.79687,3.346354 -1.28907,1.119792 -3.20313,1.119792 -2.40885,0 -3.90625,-1.822917 -1.48437,-1.835937 -1.48437,-5.286458 0,-3.580729 1.49739,-5.455729 1.51042,-1.888021 3.81511,-1.888021 2.20052,0 3.67187,1.848959 1.47135,1.848958 1.47135,5.351562 l -0.013,0.625 h -8.46354 q 0.11719,2.330729 1.08073,3.515625 0.96354,1.184896 2.34375,1.184896 2.16146,0 3.00781,-2.838542 z m -6.3151,-3.789062 h 6.32812 q -0.1302,-1.796875 -0.76822,-2.682292 -0.92448,-1.289062 -2.35678,-1.289062 -1.28906,0 -2.20052,1.080729 -0.91145,1.067708 -1.0026,2.890625 z m 0.2474,-8.294271 V 5.9226072 h 2.0052 V 8.591878 Z m 3.98437,0 V 5.9226072 h 2.00521 V 8.591878 Z" />
    <path
       id="path33"
       style=""
       d="m 321.99163,17.081461 h 3.99739 q -0.15625,-1.757812 -0.97656,-2.955729 -0.80729,-1.197917 -2.12239,-1.197917 -2.23959,0 -2.69532,2.825521 l -1.875,-0.364583 q 0.20834,-1.901042 1.40625,-3.151042 1.21094,-1.25 3.11198,-1.25 2.38281,0 3.75,1.940104 1.38021,1.927084 1.38021,5.299479 0,3.294271 -1.35417,5.260417 -1.34114,1.953125 -3.59375,1.953125 -2.10937,0 -3.35937,-1.419271 -1.25,-1.419271 -1.53646,-3.645833 l 1.88802,-0.299479 q 0.42969,3.4375 2.87761,3.4375 2.74739,0 3.09895,-4.505209 h -3.99739 z" />
    <path
       id="path35"
       style=""
       d="m 329.1531,11.300211 h 9.21875 v 1.940104 h -3.64584 v 11.888021 h -1.92708 V 13.240315 h -3.64583 z" />
    <path
       id="path37"
       style=""
       d="m 340.19476,11.300211 h 1.91407 v 10.546875 l 5.33854,-10.546875 h 2.07031 v 13.828125 h -1.91406 V 14.646565 l -5.33854,10.481771 h -2.07032 z" />
    <path
       id="path39"
       style=""
       d="m 351.14528,25.128336 4.14062,-7.1875 -3.82812,-6.640625 h 2.39583 l 1.74479,3.242188 q 0.48177,0.898437 0.79427,1.549479 0.48178,-0.885417 0.85938,-1.523438 l 1.91406,-3.268229 h 2.29167 l -3.91927,6.510417 4.21875,7.317708 h -2.35677 l -2.33073,-4.296875 -0.61198,-1.158854 -2.98177,5.455729 z" />
    <path
       id="path41"
       style=""
       d="m 161.0281,44.633547 h 2.99479 l 2.98177,11.067708 3.29427,-11.067708 h 2.77344 v 13.828125 h -1.92709 V 47.32886 l -3.34635,11.132812 h -1.71875 L 162.9031,46.795005 v 11.666667 h -1.875 z" />
    <path
       id="path43"
       style=""
       d="m 184.96039,44.633547 v 13.828125 h -1.91406 v -5.390625 h -1.1198 q -0.97656,0 -1.48437,0.3125 -0.50781,0.3125 -1.47136,2.057292 l -1.66666,3.020833 h -2.38281 l 2.07031,-3.723958 q 0.95052,-1.70573 1.88802,-1.927084 -1.64063,-0.286458 -2.4349,-1.445312 -0.79427,-1.171875 -0.79427,-2.695313 0,-1.901041 1.06771,-2.96875 1.08073,-1.067708 2.98177,-1.067708 z m -1.91406,1.940104 h -2.73438 q -1.71875,0 -2.21354,0.664063 -0.49479,0.651041 -0.49479,1.510416 0,1.25 0.72916,1.822917 0.74219,0.572917 2.59115,0.572917 h 2.1224 z" />
    <path
       id="path45"
       style=""
       d="m 187.91612,44.633547 h 6.52343 v 1.940104 h -4.60937 v 11.888021 h -1.91406 z" />
    <path
       id="path47"
       style=""
       d="m 195.85882,44.633547 h 1.91407 v 5.976563 q 0.92448,0 1.28906,-0.429688 0.3776,-0.442708 1.09375,-2.5 0.5599,-1.653646 0.91146,-2.174479 0.36458,-0.533854 0.80729,-0.703125 0.45573,-0.169271 1.57552,-0.169271 h 0.28646 v 1.940104 l -0.57292,-0.01302 q -0.61198,0 -0.87239,0.221355 -0.26042,0.221354 -0.44271,0.833333 -0.65104,2.096354 -1.02865,2.695312 -0.3776,0.598959 -1.19791,1.054688 1.23697,0.403646 2.43489,2.8125 l 2.10938,4.283854 h -2.10938 l -2.05729,-4.283854 q -0.625,-1.302084 -1.10677,-1.705729 -0.46875,-0.403646 -1.11979,-0.403646 v 6.393229 h -1.91407 z" />
    <path
       id="path49"
       style=""
       d="m 205.45518,44.633547 h 1.91406 v 10.546875 l 5.33854,-10.546875 h 2.07031 v 13.828125 h -1.91406 V 47.979901 l -5.33854,10.481771 h -2.07031 z" />
    <path
       id="path51"
       style=""
       d="m 216.4057,58.461672 4.14063,-7.1875 -3.82813,-6.640625 h 2.39583 l 1.7448,3.242188 q 0.48177,0.898437 0.79427,1.549479 0.48177,-0.885417 0.85937,-1.523438 l 1.91406,-3.268229 h 2.29167 l -3.91927,6.510417 4.21875,7.317708 h -2.35677 l -2.33073,-4.296875 -0.61198,-1.158854 -2.98177,5.455729 z" />
    <path
       id="path53"
       style=""
       d="m 241.32758,39.373131 h 1.92708 v 6.601562 q 1.18489,-1.653646 2.85156,-1.653646 1.94011,0 3.15104,1.992188 1.22396,1.992187 1.22396,5.208333 0,3.255208 -1.27604,5.260416 -1.27604,1.992188 -3.16406,1.992188 -1.54948,0 -2.78646,-1.510417 v 6.497396 h -1.92708 v -6.497396 q -1.15886,1.510417 -2.78646,1.510417 -1.95313,0 -3.20313,-2.057292 -1.25,-2.057291 -1.25,-5.3125 0,-2.304687 0.65104,-3.932291 0.66407,-1.640625 1.62761,-2.395834 0.96354,-0.755208 2.17448,-0.755208 1.69271,0 2.78646,1.653646 z m 1.91406,12.395833 q 0,5.104166 2.48698,5.104166 1.19791,0 2.00521,-1.367187 0.80729,-1.367188 0.80729,-4.0625 0,-2.630208 -0.76823,-3.919271 -0.76823,-1.289062 -1.96615,-1.289062 -2.5651,0 -2.5651,5.533854 z m -7.20052,-0.234375 q 0,2.838541 0.83333,4.07552 0.84635,1.23698 1.97917,1.23698 2.48698,0 2.48698,-5.130209 0,-5.46875 -2.63021,-5.46875 -1.11979,0 -1.90104,1.302084 -0.76823,1.289062 -0.76823,3.984375 z" />
    <path
       id="path55"
       style=""
       d="M 252.70778,63.761151 V 44.633547 h 1.75781 v 1.796875 q 0.65104,-1.119792 1.44531,-1.614583 0.79427,-0.494792 1.82292,-0.494792 1.34115,0 2.42188,0.794271 1.08072,0.794271 1.73177,2.421875 0.66406,1.614583 0.66406,3.893229 0,3.528646 -1.48438,5.442708 -1.47135,1.901042 -3.46354,1.901042 -0.88541,0 -1.65364,-0.455729 -0.76823,-0.455729 -1.32813,-1.289063 v 6.731771 z m 1.73177,-12.135417 q 0,2.682292 0.89844,3.958334 0.89843,1.263021 2.17448,1.263021 1.22395,0 2.14843,-1.315105 0.92448,-1.315104 0.92448,-4.0625 0,-2.708333 -0.89843,-4.010416 -0.89844,-1.302083 -2.1875,-1.302083 -1.15886,0 -2.10938,1.40625 -0.95052,1.393229 -0.95052,4.062499 z" />
    <path
       id="path57"
       style=""
       d="m 272.29111,56.755943 q -0.96354,1.002604 -2.00521,1.510416 -1.04166,0.507813 -2.16145,0.507813 -1.77084,0 -2.82553,-1.067708 -1.05468,-1.067709 -1.05468,-2.877605 0,-1.197916 0.49479,-2.122395 0.49479,-0.92448 1.35417,-1.445313 0.85937,-0.520833 2.60416,-0.768229 2.34375,-0.338542 3.4375,-0.807292 l 0.013,-0.598958 q 0,-1.419271 -0.50781,-1.992187 -0.71615,-0.833334 -2.20052,-0.833334 -1.34115,0 -2.00521,0.559896 -0.66406,0.546875 -0.97656,2.070313 l -1.88802,-0.3125 q 0.40364,-2.226563 1.6276,-3.242188 1.23698,-1.015625 3.52865,-1.015625 1.78385,0 2.79948,0.677083 1.01562,0.664063 1.27604,1.653646 0.27344,0.989584 0.27344,2.890625 v 3.125 q 0,3.28125 0.11718,4.140625 0.13021,0.846354 0.4948,1.653646 h -2.00521 q -0.29948,-0.716146 -0.39063,-1.705729 z m -0.15625,-5.234375 q -1.05469,0.520833 -3.13802,0.885416 -1.21094,0.208334 -1.69271,0.481771 -0.48177,0.260417 -0.75521,0.755209 -0.26041,0.48177 -0.26041,1.119791 0,0.989584 0.61198,1.588542 0.61198,0.585937 1.69271,0.585937 1.02864,0 1.86197,-0.533854 0.84636,-0.533854 1.26303,-1.419271 0.41666,-0.898437 0.41666,-2.604166 z" />
    <path
       id="path59"
       style=""
       d="m 277.12184,44.633547 h 1.91406 v 5.755208 h 5.33855 v -5.755208 h 1.91406 v 13.828125 h -1.91406 v -6.132813 h -5.33855 v 6.132813 h -1.91406 z" />
    <path
       id="path61"
       style=""
       d="m 289.23121,44.633547 h 1.91406 v 11.901042 h 5.32552 V 44.633547 h 1.92709 v 11.901042 h 1.23698 v 7.226562 h -1.58854 v -5.299479 h -8.81511 z" />
    <path
       id="path63"
       style=""
       d="m 301.66612,63.787193 -0.20834,-2.200521 q 0.63802,0.208333 1.09375,0.208333 0.61198,0 1.00261,-0.247396 0.40364,-0.247396 0.66406,-0.768229 0.0911,-0.182292 0.75521,-2.291667 l -4.3099,-13.854166 h 2.07032 l 2.36979,8.007812 q 0.44271,1.497396 0.82031,3.203125 0.32552,-1.614583 0.78125,-3.151041 l 2.42187,-8.059896 h 1.92709 l -4.3099,14.0625 q -0.84635,2.734375 -1.34114,3.645833 -0.48177,0.924479 -1.10677,1.328125 -0.61198,0.403646 -1.39323,0.403646 -0.54688,0 -1.23698,-0.286458 z" />
    <path
       id="path65"
       style=""
       d="m 315.20778,52.211672 v -1.835937 q 1.22396,-0.01302 1.65365,-0.117188 0.44271,-0.104167 0.83333,-0.611979 0.39063,-0.520833 0.39063,-1.315104 0,-0.963542 -0.52084,-1.523438 -0.50781,-0.559896 -1.32812,-0.559896 -1.6276,0 -2.27865,2.33073 l -1.82291,-0.364584 q 0.87239,-3.893229 4.1276,-3.893229 1.79688,0 2.82552,1.210938 1.04167,1.197916 1.04167,2.890625 0,1.627604 -1.34115,2.695312 1.70573,1.132812 1.70573,3.476562 0,1.86198 -1.10677,3.020834 -1.10677,1.158854 -3.09896,1.158854 -3.86718,0 -4.50521,-4.205729 l 1.79688,-0.46875 q 0.2474,1.315104 1.0026,2.057291 0.75521,0.729167 1.71875,0.729167 0.98959,0 1.62761,-0.664062 0.63802,-0.677084 0.63802,-1.71875 0,-0.833334 -0.40365,-1.40625 -0.40364,-0.585938 -0.85937,-0.742188 -0.44271,-0.15625 -1.47136,-0.15625 z" />
    <path
       id="path67"
       style=""
       d="m 330.0906,53.396568 1.88802,0.299479 q -0.32552,2.473958 -1.64063,3.776042 -1.30208,1.302083 -3.13802,1.302083 -2.22656,0 -3.67187,-1.822917 -1.4323,-1.835937 -1.4323,-5.416666 0,-3.606771 1.44532,-5.403646 1.45833,-1.809896 3.73698,-1.809896 1.75781,0 2.95573,1.09375 1.21093,1.09375 1.54947,3.28125 l -1.86197,0.351563 q -0.27344,-1.40625 -0.95053,-2.096355 -0.67708,-0.703125 -1.6276,-0.703125 -1.41927,0 -2.35677,1.263021 -0.92448,1.25 -0.92448,3.984375 0,2.825521 0.88542,4.088542 0.89843,1.263021 2.29166,1.263021 1.09375,0 1.86198,-0.833334 0.78125,-0.846354 0.98959,-2.617187 z" />
    <path
       id="path69"
       style=""
       d="m 333.61924,44.633547 h 1.91406 v 5.976563 q 0.92448,0 1.28907,-0.429688 0.3776,-0.442708 1.09375,-2.5 0.55989,-1.653646 0.91146,-2.174479 0.36458,-0.533854 0.80729,-0.703125 0.45573,-0.169271 1.57552,-0.169271 h 0.28646 v 1.940104 l -0.57292,-0.01302 q -0.61198,0 -0.8724,0.221355 -0.26041,0.221354 -0.4427,0.833333 -0.65105,2.096354 -1.02865,2.695312 -0.3776,0.598959 -1.19792,1.054688 1.23698,0.403646 2.4349,2.8125 l 2.10937,4.283854 h -2.10937 l -2.05729,-4.283854 q -0.625,-1.302084 -1.10677,-1.705729 -0.46875,-0.403646 -1.1198,-0.403646 v 6.393229 h -1.91406 z" />
    <path
       id="path71"
       style=""
       d="m 343.21559,44.633547 h 1.91406 v 10.546875 l 5.33855,-10.546875 h 2.07031 v 13.828125 h -1.91406 V 47.979901 l -5.33855,10.481771 h -2.07031 z" />
    <path
       id="path73"
       style=""
       d="m 354.16611,58.461672 4.14062,-7.1875 -3.82812,-6.640625 h 2.39583 l 1.74479,3.242188 q 0.48177,0.898437 0.79427,1.549479 0.48177,-0.885417 0.85938,-1.523438 l 1.91406,-3.268229 h 2.29167 l -3.91927,6.510417 4.21875,7.317708 h -2.35677 l -2.33073,-4.296875 -0.61198,-1.158854 -2.98177,5.455729 z" />
    <path
       id="path75"
       style=""
       d="m 169.2833,72.263758 h 1.70573 q -0.11718,1.432292 -0.52083,1.979167 -0.40365,0.533854 -1.01562,0.677083 -0.61198,0.143229 -2.38282,0.143229 -2.33073,0 -3.21614,0.546875 -0.8724,0.533854 -1.26302,1.796875 -0.39063,1.25 -0.44271,3.190104 1.44531,-2.630208 3.88021,-2.630208 2.27864,0 3.72395,1.888021 1.44532,1.888021 1.44532,5.039062 0,3.007813 -1.34115,5.117188 -1.34114,2.096354 -3.89323,2.096354 -1.90104,0 -3.04687,-1.028646 -1.13282,-1.041667 -1.77084,-2.864583 -0.63802,-1.822917 -0.63802,-6.106771 0,-5.598958 1.51042,-7.5 1.52344,-1.901042 4.70052,-1.901042 1.96615,0 2.22656,-0.09115 0.27344,-0.09115 0.33854,-0.351563 z m -0.0911,12.565104 q 0,-2.317708 -0.89844,-3.619792 -0.88542,-1.302083 -2.30469,-1.302083 -1.60156,0 -2.46093,1.419271 -0.85938,1.419271 -0.85938,3.932292 0,2.486979 0.97656,3.723958 0.97657,1.236979 2.3698,1.236979 1.35416,0 2.26562,-1.458333 0.91146,-1.458334 0.91146,-3.932292 z" />
    <path
       id="path77"
       style=""
       d="m 173.43695,97.120528 -0.20833,-2.20052 q 0.63802,0.208333 1.09375,0.208333 0.61198,0 1.0026,-0.247396 0.40365,-0.247396 0.66406,-0.768229 0.0911,-0.182292 0.75521,-2.291667 l -4.30989,-13.854166 h 2.07031 l 2.36979,8.007812 q 0.44271,1.497396 0.82031,3.203125 0.32552,-1.614583 0.78125,-3.151041 l 2.42188,-8.059896 h 1.92708 l -4.30989,14.0625 q -0.84636,2.734375 -1.34115,3.645833 -0.48177,0.924479 -1.10677,1.328125 -0.61198,0.403646 -1.39323,0.403646 -0.54688,0 -1.23698,-0.286459 z" />
    <path
       id="path79"
       style=""
       d="m 185.39007,77.966883 h 8.9323 V 91.795008 H 192.4083 V 79.906987 h -5.09114 v 6.888021 q 0,2.356771 -0.13021,3.164062 -0.11719,0.807292 -0.71615,1.367188 -0.58593,0.559896 -1.67968,0.559896 -0.67709,0 -1.52344,-0.09115 v -1.966146 q 1.35417,-0.01302 1.60156,-0.09115 0.2474,-0.07813 0.37761,-0.390625 0.14322,-0.325521 0.14322,-2.265625 z" />
    <path
       id="path81"
       style=""
       d="m 196.4708,84.880945 q 0,-3.580729 1.4974,-5.403645 1.51042,-1.822917 3.8151,-1.822917 2.26563,0 3.78907,1.822917 1.52343,1.822916 1.52343,5.260416 0,3.723958 -1.49739,5.546875 -1.4974,1.822917 -3.81511,1.822917 -2.27864,0 -3.80208,-1.822917 -1.51042,-1.835937 -1.51042,-5.403646 z m 1.96615,0 q 0,2.682292 0.97656,3.997396 0.97657,1.302083 2.42188,1.302083 1.35416,0 2.31771,-1.315104 0.97656,-1.328125 0.97656,-3.984375 0,-2.66927 -0.97656,-3.971354 -0.97657,-1.315104 -2.42188,-1.315104 -1.36719,0 -2.33073,1.315104 -0.96354,1.315104 -0.96354,3.971354 z" />
    <path
       id="path83"
       style=""
       d="m 209.40049,77.966883 h 1.91406 v 5.976562 q 0.92448,0 1.28907,-0.429687 0.3776,-0.442708 1.09375,-2.5 0.55989,-1.653646 0.91146,-2.174479 0.36458,-0.533854 0.80729,-0.703125 0.45573,-0.169271 1.57552,-0.169271 h 0.28646 v 1.940104 l -0.57292,-0.01302 q -0.61198,0 -0.8724,0.221354 -0.26041,0.221355 -0.4427,0.833334 -0.65105,2.096354 -1.02865,2.695312 -0.3776,0.598959 -1.19792,1.054688 1.23698,0.403646 2.4349,2.8125 l 2.10937,4.283854 h -2.10937 l -2.05729,-4.283854 q -0.625,-1.302084 -1.10677,-1.705729 -0.46875,-0.403646 -1.1198,-0.403646 v 6.393229 h -1.91406 z" />
    <path
       id="path85"
       style=""
       d="m 226.61403,77.966883 h 7.89062 v 11.901041 h 1.22396 v 5.846354 h -1.57552 v -3.91927 h -8.91927 v 3.91927 h -1.58854 v -5.846354 h 1.01562 q 1.99219,-3.307291 1.95313,-11.901041 z m 1.58854,1.940104 q -0.20833,6.744792 -1.70573,9.960937 h 6.09375 v -9.960937 z" />
    <path
       id="path87"
       style=""
       d="m 245.20778,90.089279 q -0.96354,1.002604 -2.0052,1.510416 -1.04167,0.507813 -2.16146,0.507813 -1.77084,0 -2.82552,-1.067709 -1.05469,-1.067708 -1.05469,-2.877604 0,-1.197916 0.49479,-2.122395 0.49479,-0.92448 1.35417,-1.445313 0.85937,-0.520833 2.60416,-0.768229 2.34375,-0.338542 3.4375,-0.807292 l 0.013,-0.598958 q 0,-1.419271 -0.50781,-1.992188 -0.71614,-0.833333 -2.20052,-0.833333 -1.34114,0 -2.00521,0.559896 -0.66406,0.546875 -0.97656,2.070312 l -1.88802,-0.3125 q 0.40365,-2.226562 1.6276,-3.242187 1.23698,-1.015625 3.52865,-1.015625 1.78385,0 2.79948,0.677083 1.01562,0.664063 1.27604,1.653646 0.27344,0.989583 0.27344,2.890625 v 3.125 q 0,3.28125 0.11719,4.140625 0.1302,0.846354 0.49479,1.653646 h -2.00521 q -0.29948,-0.716146 -0.39063,-1.705729 z m -0.15625,-5.234375 q -1.05468,0.520833 -3.13802,0.885416 -1.21093,0.208334 -1.69271,0.481771 -0.48177,0.260417 -0.7552,0.755208 -0.26042,0.481771 -0.26042,1.119792 0,0.989583 0.61198,1.588542 0.61198,0.585937 1.69271,0.585937 1.02864,0 1.86198,-0.533854 0.84635,-0.533854 1.26302,-1.419271 0.41666,-0.898437 0.41666,-2.604166 z" />
    <path
       id="path89"
       style=""
       d="m 256.13226,77.966883 h 4.42709 q 1.51041,0 2.30468,0.286458 0.8073,0.286459 1.4323,1.184896 0.63802,0.885417 0.63802,2.200521 0,1.979167 -1.35417,2.955729 1.86198,0.833333 1.86198,3.333333 0,1.601563 -0.95052,2.734375 -0.95052,1.132813 -3.24219,1.132813 h -5.11719 z m 1.91407,5.820312 h 2.05729 q 1.22396,0 1.67968,-0.15625 0.46875,-0.15625 0.83334,-0.625 0.36458,-0.48177 0.36458,-1.171875 0,-1.09375 -0.65104,-1.510416 -0.63802,-0.416667 -2.16146,-0.416667 h -2.12239 z m 0,6.080729 h 2.53906 q 1.6276,0 2.2526,-0.494791 0.625,-0.507813 0.625,-1.5625 0,-1.119792 -0.66406,-1.601563 -0.65104,-0.494791 -2.40885,-0.494791 h -2.34375 z" />
    <path
       id="path91"
       style=""
       d="m 267.70778,77.966883 h 1.91406 v 5.403646 h 2.44792 q 2.63021,0 3.78906,1.236979 1.15885,1.236979 1.15885,2.994791 0,1.666667 -1.05468,2.929688 -1.04167,1.263021 -3.45052,1.263021 h -4.80469 z m 1.91406,11.901041 h 2.01823 q 2.20052,0 2.79948,-0.703125 0.59896,-0.703125 0.59896,-1.549479 0,-1.106771 -0.69011,-1.705729 -0.6901,-0.598958 -2.44791,-0.598958 h -2.27865 z m 9.3099,1.927084 V 77.966883 h 1.91406 v 13.828125 z" />
    <path
       id="path93"
       style=""
       d="m 284.00986,77.966883 h 8.94531 v 13.828125 h -1.91406 V 79.906987 h -5.11719 v 11.888021 h -1.91406 z" />
    <path
       id="path95"
       style=""
       d="m 303.5932,87.341883 1.97916,0.299479 q -0.49479,2.213542 -1.79687,3.346354 -1.28907,1.119792 -3.20313,1.119792 -2.40885,0 -3.90625,-1.822917 -1.48437,-1.835937 -1.48437,-5.286458 0,-3.580729 1.49739,-5.455729 1.51042,-1.888021 3.81511,-1.888021 2.20052,0 3.67187,1.848958 1.47136,1.848959 1.47136,5.351563 l -0.013,0.625 h -8.46355 q 0.11719,2.330729 1.08073,3.515625 0.96354,1.184895 2.34375,1.184895 2.16146,0 3.00782,-2.838541 z m -6.31511,-3.789063 h 6.32813 q -0.13021,-1.796875 -0.76823,-2.682291 -0.92448,-1.289063 -2.35677,-1.289063 -1.28907,0 -2.20052,1.080729 -0.91146,1.067709 -1.00261,2.890625 z" />
    <path
       id="path97"
       style=""
       d="m 308.05934,77.966883 h 1.91406 v 10.546875 l 5.33855,-10.546875 h 2.07031 V 91.795008 H 315.4682 V 81.313237 l -5.33855,10.481771 h -2.07031 z m 6.43229,-5.234375 h 1.31511 q -0.16927,1.679688 -1.01563,2.526042 -0.84635,0.846354 -2.14844,0.846354 -1.30208,0 -2.14843,-0.846354 -0.83334,-0.846354 -1.00261,-2.526042 h 1.31511 q 0.29948,1.757813 1.78385,1.757813 0.83333,0 1.28906,-0.416667 0.45573,-0.416667 0.61198,-1.341146 z" />
    <path
       id="path99"
       style=""
       d="m 325.67652,77.966883 h 1.91407 v 2.617187 q 0,1.71875 0.18229,2.513021 0.18229,0.78125 0.82031,1.315104 0.63802,0.520834 1.52344,0.520834 1.10677,0 2.85156,-0.703125 v -6.263021 h 1.91406 v 13.828125 h -1.91406 v -5.572917 q -1.78385,0.677083 -3.32031,0.677083 -1.67969,0 -2.82552,-1.315104 -1.14584,-1.328125 -1.14584,-3.997395 z" />
    <path
       id="path101"
       style=""
       d="m 345.15569,90.089279 q -0.96354,1.002604 -2.00521,1.510416 -1.04166,0.507813 -2.16146,0.507813 -1.77083,0 -2.82552,-1.067709 -1.05468,-1.067708 -1.05468,-2.877604 0,-1.197916 0.49479,-2.122395 0.49479,-0.92448 1.35416,-1.445313 0.85938,-0.520833 2.60417,-0.768229 2.34375,-0.338542 3.4375,-0.807292 l 0.013,-0.598958 q 0,-1.419271 -0.50781,-1.992188 -0.71615,-0.833333 -2.20052,-0.833333 -1.34115,0 -2.00521,0.559896 -0.66406,0.546875 -0.97656,2.070312 l -1.88802,-0.3125 q 0.40364,-2.226562 1.6276,-3.242187 1.23698,-1.015625 3.52865,-1.015625 1.78385,0 2.79948,0.677083 1.01562,0.664063 1.27604,1.653646 0.27343,0.989583 0.27343,2.890625 v 3.125 q 0,3.28125 0.11719,4.140625 0.13021,0.846354 0.49479,1.653646 h -2.0052 q -0.29948,-0.716146 -0.39063,-1.705729 z m -0.15625,-5.234375 q -1.05469,0.520833 -3.13802,0.885416 -1.21094,0.208334 -1.69271,0.481771 -0.48177,0.260417 -0.75521,0.755208 -0.26041,0.481771 -0.26041,1.119792 0,0.989583 0.61198,1.588542 0.61197,0.585937 1.6927,0.585937 1.02865,0 1.86198,-0.533854 0.84636,-0.533854 1.26302,-1.419271 0.41667,-0.898437 0.41667,-2.604166 z" />
    <path
       id="path103"
       style=""
       d="m 349.99944,77.966883 h 1.91406 v 5.78125 h 2.33073 q 0.57292,-6.09375 4.89584,-6.09375 2.23958,0 3.5677,1.901042 1.34115,1.901041 1.34115,5.273437 0,3.541667 -1.32813,5.416667 -1.3151,1.861979 -3.61979,1.861979 -2.16146,0 -3.41146,-1.71875 -1.23697,-1.71875 -1.44531,-4.713542 h -2.33073 v 6.119792 h -1.91406 z m 9.16667,1.679687 q -1.43229,0 -2.21354,1.328125 -0.76823,1.315105 -0.76823,3.697917 0,2.825521 0.78125,4.166667 0.78125,1.341145 2.12239,1.341145 1.23698,0 2.10938,-1.158854 0.88541,-1.158854 0.88541,-4.036458 0,-5.338542 -2.91666,-5.338542 z" />
  </g>
</svg>
