<?xml version="1.0" encoding="UTF-8" standalone="no"?>
<svg
   xmlns:dc="http://purl.org/dc/elements/1.1/"
   xmlns:cc="http://creativecommons.org/ns#"
   xmlns:rdf="http://www.w3.org/1999/02/22-rdf-syntax-ns#"
   xmlns:svg="http://www.w3.org/2000/svg"
   xmlns="http://www.w3.org/2000/svg"
   id="svg2"
   version="1.1"
   viewBox="160.70403 5.0750031 268.63042 91.840005">
  <metadata
     id="metadata11">
    <rdf:RDF>
      <cc:Work
         rdf:about="">
        <dc:format>image/svg+xml</dc:format>
        <dc:type
           rdf:resource="http://purl.org/dc/dcmitype/StillImage" />
      </cc:Work>
    </rdf:RDF>
  </metadata>
  <defs
     id="defs9" />
  <g
     id="text4521"
     style="font-style:normal;font-variant:normal;font-weight:normal;font-stretch:normal;font-size:26.66666603px;line-height:125%;font-family:Avantgarde, 'TeX Gyre Adventor', 'URW Gothic L', sans-serif;font-variant-ligatures:normal;font-variant-caps:normal;font-variant-numeric:normal;font-feature-settings:normal;text-align:left;letter-spacing:0px;word-spacing:0px;writing-mode:lr-tb;text-anchor:start;fill:#000000;fill-opacity:1;stroke:none;stroke-width:1px;stroke-linecap:butt;stroke-linejoin:miter;stroke-opacity:1"
     aria-label="Съешь же ещё этихмягких французскихбулок да выпей чаю">
    <path
       id="path13"
       style=""
       d="m 177.87737,19.955003 c -0.82667,1.04 -1.30667,1.573333 -1.97334,2.08 -1.30666,1.04 -3.09333,1.626666 -4.88,1.626666 -4.56,0 -8.32,-3.786666 -8.32,-8.399999 0,-4.746667 3.6,-8.3733336 8.29334,-8.3733336 1.70666,0 3.30666,0.4533333 4.61333,1.3333333 0.88,0.56 1.41333,1.1466666 2.16,2.3200003 h 2.21333 c -1.52,-3.386667 -4.98666,-5.4666669 -9.06666,-5.4666669 -5.86667,0 -10.21334,4.3733332 -10.21334,10.2666669 0,5.759999 4.45334,10.133333 10.34667,10.133333 4,0 7.04,-1.866667 9.01333,-5.52 z" />
    <path
       id="path15"
       style=""
       d="m 185.27737,25.128336 h 5.86666 c 3.2,0 5.57334,-1.946667 5.57334,-4.88 0,-2.933333 -2.4,-4.96 -5.68,-4.96 H 187.2507 V 10.54167 h -5.89333 v 2.053333 h 3.92 z m 1.97333,-1.786667 v -6.24 h 3.78667 c 2.16,0 3.70666,1.28 3.70666,3.146667 0,1.866667 -1.49333,3.066667 -3.62666,3.093333 z" />
    <path
       id="path17"
       style=""
       d="m 214.10528,18.488336 c 0,-2 -0.26666,-3.226666 -0.98666,-4.506666 -1.30667,-2.32 -3.84,-3.786667 -6.61334,-3.786667 -4.24,0 -7.57333,3.333333 -7.57333,7.573333 0,4.32 3.38667,7.706667 7.70667,7.706667 1.86666,0 3.62666,-0.693334 4.96,-1.946667 1.04,-0.986667 1.73333,-2 2.13333,-3.2 h -2.05333 c -0.82667,2 -2.88,3.333333 -5.09334,3.333333 -2.98666,0 -5.52,-2.293333 -5.68,-5.173333 z m -13.14666,-1.786667 c 0.53333,-2.799999 2.74666,-4.693333 5.52,-4.693333 2.82666,0 4.98666,1.786667 5.65333,4.693333 z" />
    <path
       id="path19"
       style=""
       d="m 216.8357,10.54167 v 14.586666 h 18.56 V 10.54167 h -1.97333 v 12.799999 h -6.32 V 10.54167 h -1.97334 v 12.799999 h -6.32 V 10.54167 Z" />
    <path
       id="path21"
       style=""
       d="M 240.73611,15.288336 V 10.54167 h -1.97333 v 14.586666 h 5.86667 c 3.2,0 5.57333,-1.946667 5.57333,-4.88 0,-2.933333 -2.4,-4.96 -5.68,-4.96 z m 0,8.053333 v -6.24 h 3.78667 c 2.16,0 3.70667,1.28 3.70667,3.146667 0,1.866667 -1.49334,3.066667 -3.62667,3.093333 z" />
    <path
       id="path23"
       style=""
       d="m 261.68403,10.54167 h -2.42667 l 5.68,7.333333 -6.05333,7.253333 h 2.45333 l 6.02667,-7.253333 z m 8.77333,0 h -1.97333 v 14.586666 h 1.97333 z m 6.8,0 -5.68,7.333333 6.02667,7.253333 h 2.45333 l -6.05333,-7.253333 5.68,-7.333333 z" />
    <path
       id="path25"
       style=""
       d="m 296.5532,18.488336 c 0,-2 -0.26667,-3.226666 -0.98667,-4.506666 -1.30667,-2.32 -3.84,-3.786667 -6.61333,-3.786667 -4.24,0 -7.57334,3.333333 -7.57334,7.573333 0,4.32 3.38667,7.706667 7.70667,7.706667 1.86667,0 3.62667,-0.693334 4.96,-1.946667 1.04,-0.986667 1.73333,-2 2.13333,-3.2 h -2.05333 c -0.82667,2 -2.88,3.333333 -5.09333,3.333333 -2.98667,0 -5.52,-2.293333 -5.68,-5.173333 z m -13.14667,-1.786667 c 0.53333,-2.799999 2.74667,-4.693333 5.52,-4.693333 2.82667,0 4.98667,1.786667 5.65333,4.693333 z" />
    <path
       id="path27"
       style=""
       d="m 321.29278,18.488336 c 0,-2 -0.26666,-3.226666 -0.98666,-4.506666 -1.30667,-2.32 -3.84,-3.786667 -6.61334,-3.786667 -4.24,0 -7.57333,3.333333 -7.57333,7.573333 0,4.32 3.38667,7.706667 7.70667,7.706667 1.86666,0 3.62666,-0.693334 4.96,-1.946667 1.04,-0.986667 1.73333,-2 2.13333,-3.2 h -2.05333 c -0.82667,2 -2.88,3.333333 -5.09334,3.333333 -2.98666,0 -5.52,-2.293333 -5.68,-5.173333 z m -13.14666,-1.786667 c 0.53333,-2.799999 2.74666,-4.693333 5.52,-4.693333 2.82666,0 4.98666,1.786667 5.65333,4.693333 z" />
    <path
       id="path29"
       style=""
       d="m 342.36987,25.128336 v 3.44 h 1.97333 v -5.226667 h -1.76 V 10.54167 h -1.97333 v 12.799999 h -6.32 V 10.54167 h -1.97334 v 12.799999 h -6.32 V 10.54167 h -1.97333 v 14.586666 z" />
    <path
       id="path31"
       style=""
       d="m 362.17819,18.488336 c 0,-2 -0.26667,-3.226666 -0.98667,-4.506666 -1.30666,-2.32 -3.84,-3.786667 -6.61333,-3.786667 -4.24,0 -7.57333,3.333333 -7.57333,7.573333 0,4.32 3.38666,7.706667 7.70666,7.706667 1.86667,0 3.62667,-0.693334 4.96,-1.946667 1.04,-0.986667 1.73334,-2 2.13334,-3.2 h -2.05334 c -0.82666,2 -2.88,3.333333 -5.09333,3.333333 -2.98667,0 -5.52,-2.293333 -5.68,-5.173333 z m -13.14667,-1.786667 c 0.53334,-2.799999 2.74667,-4.693333 5.52,-4.693333 2.82667,0 4.98667,1.786667 5.65334,4.693333 z M 351.72486,5.1550031 V 8.515003 h 1.97333 V 5.1550031 Z m 3.92,0 V 8.515003 h 1.97333 V 5.1550031 Z" />
    <path
       id="path33"
       style=""
       d="m 376.33112,18.728336 h 8.45333 c -0.42667,2.8 -2.82667,4.933333 -5.78667,4.933333 -2.08,0 -3.46666,-0.8 -5.01333,-2.826666 h -2.24 c 0.8,1.52 1.38667,2.24 2.29333,2.986666 1.38667,1.066667 3.04,1.653334 4.85334,1.653334 4.48,0 7.94666,-3.333334 7.94666,-7.68 0,-4.24 -3.41333,-7.6 -7.78666,-7.6 -3.30667,0 -6.08,1.84 -7.25334,4.773333 h 2.18667 c 1.12,-1.92 2.93333,-2.96 5.06667,-2.96 2.96,0 5.33333,2.08 5.76,4.933333 h -8.48 z" />
    <path
       id="path35"
       style=""
       d="m 393.0082,25.128336 h 1.97333 v -12.8 h 4.88 V 10.54167 H 388.1282 v 1.786666 h 4.88 z" />
    <path
       id="path37"
       style=""
       d="m 401.67945,25.128336 h 1.94667 l 8.96,-11.866666 v 11.866666 h 1.94666 V 10.54167 h -1.94666 l -8.96,11.866666 V 10.54167 h -1.94667 z" />
    <path
       id="path39"
       style=""
       d="m 416.41069,25.128336 h 2.24 l 3.94667,-5.84 3.92,5.84 h 2.26666 l -5.09333,-7.44 5.09333,-7.146666 h -2.26666 l -3.92,5.626666 -3.94667,-5.626666 h -2.24 l 5.06667,7.146666 z" />
    <path
       id="path41"
       style=""
       d="m 175.07737,46.275005 v 12.186667 h 1.97333 V 43.875006 h -2.96 l -5.01333,12.266666 -4.90667,-12.266666 h -2.96 v 14.586666 h 1.97333 V 46.275005 l 4.90667,12.186667 h 1.81333 z" />
    <path
       id="path43"
       style=""
       d="m 184.40278,53.528339 -4.10666,4.933333 h 2.45333 l 5.44,-6.56 h -2.08 c -2.16,0 -3.70667,-1.28 -3.70667,-3.146667 0,-1.866666 1.49334,-3.066666 3.62667,-3.093333 h 3.86667 v 12.8 h 1.97333 V 43.875006 h -5.86667 c -3.2,0 -5.57333,1.946666 -5.57333,4.879999 0,2.4 1.6,4.186667 3.97333,4.773334 z" />
    <path
       id="path45"
       style=""
       d="m 194.6482,58.461672 h 1.94667 V 45.688339 h 7.41333 v -1.813333 h -9.36 z" />
    <path
       id="path47"
       style=""
       d="m 207.81945,43.875006 h -1.97334 v 14.586666 h 1.97334 z m 6.8,0 -5.68,7.333333 6.02666,7.253333 h 2.45334 l -6.05334,-7.253333 5.68,-7.333333 z" />
    <path
       id="path49"
       style=""
       d="m 219.23153,58.461672 h 1.94667 l 8.96,-11.866667 v 11.866667 h 1.94667 V 43.875006 h -1.94667 l -8.96,11.866666 V 43.875006 h -1.94667 z" />
    <path
       id="path51"
       style=""
       d="m 233.96278,58.461672 h 2.24 l 3.94667,-5.84 3.92,5.84 h 2.26667 l -5.09334,-7.44 5.09334,-7.146666 h -2.26667 l -3.92,5.626666 -3.94667,-5.626666 h -2.24 l 5.06667,7.146666 z" />
    <path
       id="path53"
       style=""
       d="m 264.81111,61.341672 v -2.533334 c 4.26667,0 7.44,-3.226666 7.44,-7.599999 0,-4.32 -3.28,-7.68 -7.44,-7.68 v -1.893333 h -1.97333 v 1.893333 c -4.32,0 -7.76,3.28 -7.76,7.546666 0,4.48 3.22667,7.733333 7.76,7.733333 v 2.533334 z m -1.97333,-16 v 11.653333 c -3.33333,0 -5.76,-2.453333 -5.76,-5.866666 0,-3.306667 2.53333,-5.786667 5.76,-5.786667 z m 1.97333,11.653333 V 45.341672 c 3.01334,0 5.44,2.64 5.44,5.893333 0,3.306667 -2.26666,5.76 -5.44,5.76 z" />
    <path
       id="path55"
       style=""
       d="m 275.06486,43.875006 v 19.706666 h 1.97334 v -7.626667 c 1.28,1.866667 3.25333,2.853333 5.68,2.853333 4.34666,0 7.73333,-3.333333 7.73333,-7.599999 0,-4.346667 -3.33333,-7.68 -7.68,-7.68 -2.48,0 -4.50667,1.013333 -5.73333,2.853333 v -2.506666 z m 7.62667,1.466666 c 3.28,0 5.76,2.506667 5.76,5.866667 0,3.28 -2.48,5.786666 -5.73333,5.786666 -3.33334,0 -5.81334,-2.533333 -5.81334,-5.893333 0,-3.226667 2.56,-5.76 5.78667,-5.76 z" />
    <path
       id="path57"
       style=""
       d="m 308.09528,43.875006 h -1.97333 v 2.586666 c -1.44,-2.026667 -3.22667,-2.933333 -5.76,-2.933333 -4.37333,0 -7.68,3.306666 -7.68,7.68 0,4.346666 3.33333,7.599999 7.81333,7.599999 2.48,0 4.08,-0.826666 5.62667,-2.906666 v 2.56 h 1.97333 z m -7.68,1.466666 c 3.2,0 5.70667,2.506667 5.70667,5.76 0,3.306667 -2.45333,5.893333 -5.6,5.893333 -3.30667,0 -5.84,-2.586666 -5.84,-5.92 0,-3.173333 2.56,-5.733333 5.73333,-5.733333 z" />
    <path
       id="path59"
       style=""
       d="m 311.47111,58.461672 h 1.94666 v -6.666667 h 8.18667 v 6.666667 h 1.94667 V 43.875006 h -1.94667 v 6.133333 h -8.18667 v -6.133333 h -1.94666 z" />
    <path
       id="path61"
       style=""
       d="m 326.88778,43.875006 v 14.586666 h 10.56 v 3.44 h 1.97333 v -5.226667 h -1.76 V 43.875006 h -1.97333 v 12.799999 h -6.82667 V 43.875006 Z" />
    <path
       id="path63"
       style=""
       d="m 343.6757,63.581672 h 2.10667 l 8.42666,-19.706666 h -2.10666 l -4.93334,11.626666 -4.61333,-11.626666 h -2.16 l 5.65333,14.106666 z" />
    <path
       id="path65"
       style=""
       d="m 355.14653,54.435005 c 0,0 1.2,4.373333 5.84,4.373333 3.57333,0 5.78667,-1.919999 5.78667,-4.373333 0,-1.733333 -1.30667,-3.653333 -2.98667,-3.893333 0.93333,-0.4 1.81333,-1.84 1.81333,-3.2 0,-2.186667 -1.68,-3.813333 -4.61333,-3.813333 -3.84,0 -4.77333,3.813333 -4.77333,3.813333 h 1.78666 c 0,0 0.69334,-2 2.98667,-2 1.28,0 2.82667,0.746667 2.82667,2 0,1.68 -1.2,2.373333 -2.56,2.373333 h -1.92 v 1.946667 h 1.92 c 2.02666,0 3.65333,0.933333 3.65333,2.773333 0,1.466667 -1.73333,2.56 -3.92,2.56 -2.90667,0 -4.05333,-2.56 -4.05333,-2.56 z" />
    <path
       id="path67"
       style=""
       d="m 381.36861,54.168339 c -1.52,2.026666 -2.93333,2.826666 -4.98666,2.826666 -3.28,0 -5.86667,-2.586666 -5.86667,-5.813333 0,-3.28 2.53333,-5.84 5.78667,-5.84 2.16,0 3.94666,1.04 5.06666,2.96 h 2.21334 c -1.17334,-2.933333 -3.97334,-4.773333 -7.25334,-4.773333 -4.37333,0 -7.81333,3.36 -7.81333,7.6 0,4.346666 3.46667,7.679999 7.94667,7.679999 1.81333,0 3.49333,-0.586666 4.85333,-1.653333 0.93333,-0.746666 1.49333,-1.466666 2.29333,-2.986666 z" />
    <path
       id="path69"
       style=""
       d="m 388.28819,43.875006 h -1.97333 v 14.586666 h 1.97333 z m 6.8,0 -5.68,7.333333 6.02667,7.253333 h 2.45333 l -6.05333,-7.253333 5.68,-7.333333 z" />
    <path
       id="path71"
       style=""
       d="m 399.70028,58.461672 h 1.94667 l 8.96,-11.866667 v 11.866667 h 1.94666 V 43.875006 h -1.94666 l -8.96,11.866666 V 43.875006 h -1.94667 z" />
    <path
       id="path73"
       style=""
       d="m 414.43152,58.461672 h 2.24 l 3.94667,-5.84 3.92,5.84 h 2.26666 l -5.09333,-7.44 5.09333,-7.146666 h -2.26666 l -3.92,5.626666 -3.94667,-5.626666 h -2.24 l 5.06667,7.146666 z" />
    <path
       id="path75"
       style=""
       d="m 168.43737,76.861675 c -2.02667,0 -4.02667,0.533333 -5.70667,2.826666 0.21333,-0.773333 0.93333,-5.36 5.36,-5.706666 3.14667,-0.24 4.98667,-0.533334 6.56,-1.2 v -1.893333 c -2.26667,0.8 -3.44,0.8 -6.56,1.12 -6.74667,0.693333 -7.30667,7.066666 -7.30667,12.399999 0,4.506667 3.28,7.733333 7.81334,7.733333 4.26666,0 7.41333,-3.226666 7.41333,-7.599999 0,-4.453334 -3.2,-7.68 -7.57333,-7.68 z m 0,1.813333 c 3.2,0 5.57333,2.506667 5.57333,5.893333 0,3.333333 -2.29333,5.76 -5.46667,5.76 -3.36,0 -5.76,-2.453333 -5.76,-5.866666 0,-3.306667 2.42667,-5.786667 5.65334,-5.786667 z" />
    <path
       id="path77"
       style=""
       d="m 180.5507,96.915008 h 2.10667 l 8.42666,-19.706667 h -2.10666 l -4.93334,11.626667 -4.61333,-11.626667 h -2.16 l 5.65333,14.106667 z" />
    <path
       id="path79"
       style=""
       d="m 197.6482,77.208341 -6.13333,14.586667 h 2 l 5.12,-12.266667 5.22666,12.266667 h 2 L 199.7282,77.208341 Z" />
    <path
       id="path81"
       style=""
       d="m 214.86653,76.861675 c -4.32,0 -7.65333,3.28 -7.65333,7.546666 0,4.48 3.28,7.733333 7.81333,7.733333 4.26667,0 7.41334,-3.226666 7.41334,-7.599999 0,-4.453334 -3.2,-7.68 -7.57334,-7.68 z m 0,1.813333 c 3.2,0 5.57334,2.506667 5.57334,5.893333 0,3.333333 -2.29334,5.76 -5.46667,5.76 -3.36,0 -5.76,-2.453333 -5.76,-5.866666 0,-3.306667 2.42667,-5.786667 5.65333,-5.786667 z" />
    <path
       id="path83"
       style=""
       d="m 227.19445,77.208341 h -1.97334 v 14.586667 h 1.97334 z m 6.8,0 -5.68,7.333334 6.02666,7.253333 h 2.45334 l -6.05334,-7.253333 5.68,-7.333334 z" />
    <path
       id="path85"
       style=""
       d="m 257.62903,90.008341 h -8.85333 l 4.37333,-10.48 z m -10.34667,1.786667 h 11.89334 v 3.2 h 2.24 v -4.986667 h -1.76 l -5.38667,-12.8 h -2.08 l -5.38667,12.8 h -1.76 v 4.986667 h 2.24 z" />
    <path
       id="path87"
       style=""
       d="m 278.6682,77.208341 h -1.97334 v 2.586667 c -1.44,-2.026667 -3.22666,-2.933333 -5.76,-2.933333 -4.37333,0 -7.68,3.306666 -7.68,7.68 0,4.346666 3.33334,7.599999 7.81334,7.599999 2.48,0 4.08,-0.826666 5.62666,-2.906666 v 2.56 h 1.97334 z m -7.68,1.466667 c 3.2,0 5.70666,2.506667 5.70666,5.76 0,3.306666 -2.45333,5.893333 -5.6,5.893333 -3.30666,0 -5.84,-2.586667 -5.84,-5.92 0,-3.173333 2.56,-5.733333 5.73334,-5.733333 z" />
    <path
       id="path89"
       style=""
       d="m 291.41319,79.021675 h 3.06667 c 2.13333,0.02667 2.42666,1.013333 2.42666,1.813333 0,0.8 -0.34666,1.946667 -2.50666,1.946667 h -2.98667 z m 0,10.959999 v -5.413333 h 3.78667 c 2.16,0 3.70666,0.88 3.70666,2.746667 0,1.866666 -1.49333,2.64 -3.62666,2.666666 z m 6.56,-6.773333 c 0.64,-0.72 0.90667,-1.6 0.90667,-2.373333 0,-1.6 -1.17334,-3.626667 -4.37334,-3.626667 h -5.06666 v 14.586667 h 5.86666 c 3.2,0 5.57334,-1.546667 5.57334,-4.48 0,-2.026667 -1.14667,-3.413333 -2.90667,-4.106667 z" />
    <path
       id="path91"
       style=""
       d="m 305.57986,81.955008 v -4.746667 h -1.97333 v 14.586667 h 5.86667 c 3.2,0 5.57333,-1.946667 5.57333,-4.88 0,-2.933333 -2.4,-4.96 -5.68,-4.96 z m 0,8.053333 v -6.24 h 3.78667 c 2.16,0 3.70667,1.28 3.70667,3.146667 0,1.866666 -1.49334,3.066666 -3.62667,3.093333 z m 10.56,1.786667 h 1.97334 V 77.208341 h -1.97334 z" />
    <path
       id="path93"
       style=""
       d="m 321.47111,91.795008 h 1.97333 v -12.8 h 8.13333 v 12.8 h 1.97334 V 77.208341 h -12.08 z" />
    <path
       id="path95"
       style=""
       d="m 351.50111,85.155008 c 0,-2 -0.26666,-3.226667 -0.98666,-4.506667 -1.30667,-2.32 -3.84,-3.786666 -6.61334,-3.786666 -4.24,0 -7.57333,3.333333 -7.57333,7.573333 0,4.32 3.38667,7.706666 7.70667,7.706666 1.86666,0 3.62666,-0.693333 4.96,-1.946666 1.04,-0.986667 1.73333,-2 2.13333,-3.2 h -2.05333 c -0.82667,2 -2.88,3.333333 -5.09334,3.333333 -2.98666,0 -5.52,-2.293333 -5.68,-5.173333 z m -13.14666,-1.786667 c 0.53333,-2.8 2.74666,-4.693333 5.52,-4.693333 2.82666,0 4.98666,1.786667 5.65333,4.693333 z" />
    <path
       id="path97"
       style=""
       d="m 356.63153,72.248342 c 0.4,2.186666 1.68,3.199999 4.05333,3.199999 1.12,0 2.05334,-0.266666 2.74667,-0.773333 0.74667,-0.533333 1.06667,-1.12 1.30667,-2.426666 h -1.70667 c -0.10667,0.666666 -0.29333,0.959999 -0.69333,1.226666 -0.48,0.266667 -1.06667,0.426667 -1.65334,0.426667 -0.58666,0 -1.17333,-0.16 -1.65333,-0.426667 -0.4,-0.266667 -0.58667,-0.56 -0.69333,-1.226666 z m -2.4,19.546666 h 1.94667 l 8.96,-11.866667 v 11.866667 h 1.94666 V 77.208341 h -1.94666 l -8.96,11.866667 V 77.208341 h -1.94667 z" />
    <path
       id="path99"
       style=""
       d="m 377.05195,77.208341 v 4.613334 c 0,2.56 1.54666,4.613333 4.16,4.613333 h 4.64 v 5.36 h 1.94666 V 77.208341 h -1.94666 v 7.493334 h -2.98667 c -2.85333,0 -3.84,-0.24 -3.84,-2.986667 v -4.506667 z" />
    <path
       id="path101"
       style=""
       d="m 406.01194,77.208341 h -1.97333 v 2.586667 c -1.44,-2.026667 -3.22667,-2.933333 -5.76,-2.933333 -4.37334,0 -7.68,3.306666 -7.68,7.68 0,4.346666 3.33333,7.599999 7.81333,7.599999 2.48,0 4.08,-0.826666 5.62667,-2.906666 v 2.56 h 1.97333 z m -7.68,1.466667 c 3.2,0 5.70667,2.506667 5.70667,5.76 0,3.306666 -2.45334,5.893333 -5.6,5.893333 -3.30667,0 -5.84,-2.586667 -5.84,-5.92 0,-3.173333 2.56,-5.733333 5.73333,-5.733333 z" />
    <path
       id="path103"
       style=""
       d="m 411.33445,85.395008 h 2.82666 c 0.45334,3.973333 3.57334,6.746666 7.76,6.746666 4.26667,0 7.41334,-3.226666 7.41334,-7.599999 0,-4.453334 -3.2,-7.68 -7.57334,-7.68 -4.05333,0 -7.22666,2.88 -7.62666,6.746666 h -2.8 v -6.4 h -1.94667 v 14.586667 h 1.94667 z m 10.42666,-6.72 c 3.2,0 5.57334,2.506667 5.57334,5.893333 0,3.333333 -2.29334,5.76 -5.46667,5.76 -3.36,0 -5.76,-2.453333 -5.76,-5.866666 0,-3.306667 2.42667,-5.786667 5.65333,-5.786667 z" />
  </g>
</svg>
