<?xml version="1.0" encoding="UTF-8" standalone="no"?>
<svg
   xmlns:dc="http://purl.org/dc/elements/1.1/"
   xmlns:cc="http://creativecommons.org/ns#"
   xmlns:rdf="http://www.w3.org/1999/02/22-rdf-syntax-ns#"
   xmlns:svg="http://www.w3.org/2000/svg"
   xmlns="http://www.w3.org/2000/svg"
   id="svg2"
   version="1.1"
   viewBox="160.06403 6.6216697 279.69334 91.600004">
  <metadata
     id="metadata11">
    <rdf:RDF>
      <cc:Work
         rdf:about="">
        <dc:format>image/svg+xml</dc:format>
        <dc:type
           rdf:resource="http://purl.org/dc/dcmitype/StillImage" />
      </cc:Work>
    </rdf:RDF>
  </metadata>
  <defs
     id="defs9" />
  <g
     id="text4521"
     style="font-style:normal;font-variant:normal;font-weight:normal;font-stretch:normal;font-size:26.66666603px;line-height:125%;font-family:Bookman, 'URW Bookman L', serif;font-variant-ligatures:normal;font-variant-caps:normal;font-variant-numeric:normal;font-feature-settings:normal;text-align:left;letter-spacing:0px;word-spacing:0px;writing-mode:lr-tb;text-anchor:start;fill:#000000;fill-opacity:1;stroke:none;stroke-width:1px;stroke-linecap:butt;stroke-linejoin:miter;stroke-opacity:1"
     aria-label="Съешь же ещё этихмягких французскихбулок да выпей чаю">
    <path
       id="path13"
       style=""
       d="m 176.4107,7.2083364 h -0.88 l -0.56,1.12 c -1.57333,-1.2 -3.2,-1.7066667 -5.49333,-1.7066667 -2.13334,0 -4.64,1.1733333 -6.26667,2.9333333 -1.62667,1.733333 -2.50667,4.08 -2.50667,6.586667 0,5.333333 4.02667,9.333333 9.41334,9.333333 3.44,0 6.16,-1.52 8.13333,-4.586667 l -1.14667,-0.64 c -0.77333,1.146667 -1.30666,1.733333 -2.18666,2.373333 -1.28,0.96 -3.01334,1.573334 -4.4,1.573334 -1.65334,0 -3.57334,-0.88 -4.72,-2.16 -1.25334,-1.36 -1.94667,-3.52 -1.94667,-5.92 0,-4.72 2.61333,-8.2133333 6.13333,-8.2133333 1.97334,0 3.94667,1.12 5.2,2.9333333 0.50667,0.746667 0.82667,1.306667 1.65334,2.8 h 0.85333 z" />
    <path
       id="path15"
       style=""
       d="m 182.73695,25.128336 h 6.08 c 3.92,0 6.85333,-1.066667 6.85333,-4 0,-1.733333 -0.37333,-3.973333 -6.26666,-3.973333 -0.58667,0 -2.05334,0.4 -2.05334,0.4 v -2.106667 c 0,-1.626666 0.29334,-2.293333 1.68,-2.4 l 0.66667,-0.05333 v -0.8 h -9.25333 l -1.36,3.92 0.82666,0.293333 c 0.64,-1.306666 1.01334,-1.786666 1.70667,-2.373333 1.22667,-1.013333 3.46667,-0.986667 3.46667,1.146667 0,0 0,7.119999 0,7.013333 0,1.6 -0.29334,1.973333 -1.68,2.08 l -0.66667,0.05333 z m 4.61333,-6.506667 c 0,0 1.46667,-0.4 2.05334,-0.4 2.58666,0 3.54666,1.093334 3.54666,3.093334 0,1.733333 -1.01333,2.746666 -3.49333,2.746666 -1.25333,0 -2.10667,-0.24 -2.10667,-1.733333 z" />
    <path
       id="path17"
       style=""
       d="m 208.20237,21.608336 c -0.96,1.76 -2.18667,2.56 -3.84,2.56 -1.89334,0 -3.28,-0.96 -4,-2.746667 -0.4,-0.933333 -0.53334,-2.106666 -0.53334,-4 h 9.25334 c -0.0267,-1.546666 -0.37334,-2.506666 -1.25334,-3.519999 -1.06666,-1.253334 -2.69333,-1.946667 -4.56,-1.946667 -3.65333,0 -6.29333,2.746667 -6.29333,6.586666 0,1.786667 0.66667,3.573334 1.76,4.8 1.2,1.36 2.82667,2.026667 4.82667,2.026667 2.45333,0 4.16,-1.013333 5.52,-3.333333 z m -8.29334,-5.253333 c 0.18667,-1.12 0.34667,-1.6 0.77334,-2.16 0.56,-0.773333 1.41333,-1.173333 2.48,-1.173333 1.41333,0 2.42666,0.666666 2.93333,1.973333 0.13333,0.4 0.21333,0.906667 0.21333,1.36 z" />
    <path
       id="path19"
       style=""
       d="m 210.37653,25.128336 h 22.96 v -0.8 l -0.66666,-0.05333 c -1.17334,-0.106667 -1.65334,-0.613334 -1.65334,-2.08 V 15.26167 c 0,-1.466667 0.48,-2.106667 1.65334,-2.213334 l 0.66666,-0.05333 v -0.8 h -6.90666 v 0.8 l 0.66666,0.05333 c 1.17334,0.106667 1.65334,0.746667 1.65334,2.213334 v 8.719999 h -5.76 V 15.26167 c 0,-1.466667 0.48,-2.106667 1.65333,-2.213334 l 0.66667,-0.05333 v -0.8 h -6.90667 v 0.8 l 0.66667,0.05333 c 1.17333,0.106667 1.65333,0.746667 1.65333,2.213334 v 8.719999 h -5.76 V 15.26167 c 0,-1.466667 0.48,-2.106667 1.65333,-2.213334 l 0.66667,-0.05333 v -0.8 h -6.90667 v 0.8 l 0.66667,0.05333 c 1.17333,0.106667 1.65333,0.746667 1.65333,2.213334 v 6.933333 c 0,1.466666 -0.48,1.973333 -1.65333,2.08 l -0.66667,0.05333 z" />
    <path
       id="path21"
       style=""
       d="m 234.38695,12.195003 v 0.8 l 0.66666,0.05333 c 1.38667,0.106667 1.68,0.773334 1.68,2.4 v 6.746667 c 0,1.626666 -0.29333,1.973333 -1.68,2.08 l -0.66666,0.05333 v 0.8 h 6.08 c 3.92,0 6.85333,-1.066667 6.85333,-4 0,-1.973333 -0.37333,-3.973333 -6.26667,-3.973333 -0.58666,0 -2.05333,0.4 -2.05333,0.4 v -2.106667 c 0,-1.626666 0.29333,-2.293333 1.68,-2.4 l 0.66667,-0.05333 v -0.8 z m 4.61333,6.426666 c 0,0 1.46667,-0.4 2.05333,-0.4 2.58667,0 3.54667,1.093334 3.54667,3.093334 0,1.733333 -1.01333,2.746666 -3.49333,2.746666 -1.25334,0 -2.10667,-0.24 -2.10667,-1.733333 z" />
    <path
       id="path23"
       style=""
       d="m 266.30153,18.675003 v 3.76 c 0,1.546666 -0.34667,1.946666 -1.73333,2.053333 l -0.66667,0.05333 v 0.586667 h 7.06667 v -0.586667 l -0.66667,-0.05333 c -1.38667,-0.106667 -1.73333,-0.506667 -1.73333,-2.053333 v -3.76 c 2.08,0 3.09333,1.706666 3.38666,4.506666 0.10667,1.013334 0.93334,2.266667 2.64,2.266667 3.52,0 3.84,-2.8 3.84,-2.8 l -0.96,-0.186667 c 0,0 -0.45333,1.306667 -1.36,1.306667 -0.85333,0 -1.22666,-0.586667 -1.46666,-1.92 -0.26667,-1.466667 -1.49334,-3.333333 -4.50667,-3.573333 1.89333,-0.693334 2.82667,-2.533333 3.04,-4.16 0.0533,-0.426667 0.18667,-0.613333 0.50667,-0.613333 0.82666,0 -0.0533,1.546666 1.62666,1.546666 1.04,0 1.44,-0.826666 1.44,-1.493333 0,-1.2 -1.30666,-1.653333 -2.4,-1.653333 -1.68,0 -2.34666,0.826666 -2.72,2.346666 -0.48,1.893334 -0.82666,3.626667 -2.64,3.626667 h -0.42666 v -2.96 c 0,-1.546667 0.34666,-1.973333 1.73333,-2.08 l 0.66667,-0.05333 v -0.586667 h -7.06667 v 0.586667 l 0.66667,0.05333 c 1.38666,0.106667 1.73333,0.533333 1.73333,2.08 v 2.96 h -0.42667 c -1.81333,0 -2.16,-1.733333 -2.64,-3.626667 -0.37333,-1.52 -1.04,-2.346666 -2.72,-2.346666 -1.09333,0 -2.4,0.453333 -2.4,1.653333 0,0.666667 0.4,1.493333 1.44,1.493333 1.68,0 0.8,-1.546666 1.62667,-1.546666 0.32,0 0.45333,0.186666 0.50667,0.613333 0.21333,1.626667 1.14666,3.466666 3.04,4.16 -3.01334,0.24 -4.24,2.106666 -4.50667,3.573333 -0.24,1.333333 -0.61333,1.92 -1.46667,1.92 -0.90666,0 -1.36,-1.306667 -1.36,-1.306667 l -0.96,0.186667 c 0,0 0.32,2.8 3.84,2.8 1.70667,0 2.53334,-1.253333 2.64,-2.266667 0.29334,-2.8 1.30667,-4.506666 3.38667,-4.506666 z" />
    <path
       id="path25"
       style=""
       d="m 290.80653,21.608336 c -0.96,1.76 -2.18666,2.56 -3.84,2.56 -1.89333,0 -3.28,-0.96 -4,-2.746667 -0.4,-0.933333 -0.53333,-2.106666 -0.53333,-4 h 9.25333 c -0.0267,-1.546666 -0.37333,-2.506666 -1.25333,-3.519999 -1.06667,-1.253334 -2.69333,-1.946667 -4.56,-1.946667 -3.65333,0 -6.29333,2.746667 -6.29333,6.586666 0,1.786667 0.66666,3.573334 1.76,4.8 1.2,1.36 2.82666,2.026667 4.82666,2.026667 2.45334,0 4.16,-1.013333 5.52,-3.333333 z m -8.29333,-5.253333 c 0.18667,-1.12 0.34667,-1.6 0.77333,-2.16 0.56,-0.773333 1.41334,-1.173333 2.48,-1.173333 1.41334,0 2.42667,0.666666 2.93334,1.973333 0.13333,0.4 0.21333,0.906667 0.21333,1.36 z" />
    <path
       id="path27"
       style=""
       d="m 313.20236,21.608336 c -0.96,1.76 -2.18666,2.56 -3.84,2.56 -1.89333,0 -3.28,-0.96 -4,-2.746667 -0.4,-0.933333 -0.53333,-2.106666 -0.53333,-4 h 9.25333 c -0.0267,-1.546666 -0.37333,-2.506666 -1.25333,-3.519999 -1.06667,-1.253334 -2.69333,-1.946667 -4.56,-1.946667 -3.65333,0 -6.29333,2.746667 -6.29333,6.586666 0,1.786667 0.66666,3.573334 1.76,4.8 1.2,1.36 2.82666,2.026667 4.82666,2.026667 2.45334,0 4.16,-1.013333 5.52,-3.333333 z m -8.29333,-5.253333 c 0.18667,-1.12 0.34667,-1.6 0.77333,-2.16 0.56,-0.773333 1.41334,-1.173333 2.48,-1.173333 1.41334,0 2.42667,0.666666 2.93334,1.973333 0.13333,0.4 0.21333,0.906667 0.21333,1.36 z" />
    <path
       id="path29"
       style=""
       d="M 336.01653,22.195003 V 15.26167 c 0,-1.466667 0.48,-2.106667 1.65334,-2.213334 l 0.66666,-0.05333 v -0.8 h -6.90666 v 0.8 l 0.66666,0.05333 c 1.17334,0.106667 1.65334,0.746667 1.65334,2.213334 v 8.693333 h -5.76 V 15.26167 c 0,-1.466667 0.48,-2.106667 1.65333,-2.213334 l 0.66667,-0.05333 v -0.8 h -6.90667 v 0.8 l 0.66667,0.05333 c 1.17333,0.106667 1.65333,0.746667 1.65333,2.213334 v 8.693333 h -5.76 V 15.26167 c 0,-1.466667 0.48,-2.106667 1.65333,-2.213334 l 0.66667,-0.05333 v -0.8 h -6.90667 v 0.8 l 0.66667,0.05333 c 1.17333,0.106667 1.65333,0.746667 1.65333,2.213334 v 6.933333 c 0,1.466666 -0.48,1.973333 -1.65333,2.08 l -0.66667,0.05333 v 0.8 h 18.29334 c 2.61333,0 3.25333,0.08 4.4,3.2 l 0.82666,-0.293333 -0.56,-3.946667 h -0.66666 c -1.17334,0 -1.65334,-0.426667 -1.65334,-1.893333 z" />
    <path
       id="path31"
       style=""
       d="m 344.31153,6.9683364 c -0.88,0 -1.6,0.6933333 -1.6,1.5733333 0,0.8533333 0.72,1.5733333 1.57334,1.5733333 0.85333,0 1.57333,-0.72 1.57333,-1.5733333 0,-0.8533333 -0.72,-1.5733333 -1.54667,-1.5733333 z m 4.34667,0 c -0.88,0 -1.6,0.6933333 -1.6,1.5733333 0,0.8533333 0.72,1.5733333 1.57333,1.5733333 0.85334,0 1.57334,-0.72 1.57334,-1.5733333 0,-0.8533333 -0.72,-1.5733333 -1.54667,-1.5733333 z m 2.77333,14.6399996 c -0.96,1.76 -2.18666,2.56 -3.84,2.56 -1.89333,0 -3.28,-0.96 -4,-2.746667 -0.4,-0.933333 -0.53333,-2.106666 -0.53333,-4 h 9.25333 c -0.0267,-1.546666 -0.37333,-2.506666 -1.25333,-3.519999 -1.06667,-1.253334 -2.69333,-1.946667 -4.56,-1.946667 -3.65333,0 -6.29333,2.746667 -6.29333,6.586666 0,1.786667 0.66666,3.573334 1.76,4.8 1.2,1.36 2.82666,2.026667 4.82666,2.026667 2.45334,0 4.16,-1.013333 5.52,-3.333333 z m -8.29333,-5.253333 c 0.18667,-1.12 0.34667,-1.6 0.77333,-2.16 0.56,-0.773333 1.41334,-1.173333 2.48,-1.173333 1.41334,0 2.42667,0.666666 2.93334,1.973333 0.13333,0.4 0.21333,0.906667 0.21333,1.36 z" />
    <path
       id="path33"
       style=""
       d="m 363.42736,16.408336 c 0.64,-2.106666 2.90667,-3.386666 4.77334,-3.386666 2.4,0 3.86666,2.24 3.86666,4.959999 h -5.17333 v 1.146667 h 5.14667 c 0,3.173333 -2.02667,5.173333 -4.53334,5.173333 -1.62666,0 -2.72,-0.666666 -4.21333,-2.533333 l -0.77333,0.48 c 1.38666,2.16 3.17333,3.12 5.73333,3.12 3.92,0 6.56,-2.72 6.56,-6.693333 0,-3.84 -2.53333,-6.72 -6.50667,-6.72 -1.6,0 -2.72,0.426667 -3.86666,1.306667 l -0.26667,-0.96 h -0.74667 l -0.85333,4.106666 z" />
    <path
       id="path35"
       style=""
       d="m 389.00986,12.195003 h -11.84 l -0.96,3.92 0.82667,0.293333 c 1.17333,-2.4 1.81333,-3.2 5.04,-3.2 v 8.853333 c 0,1.466667 -0.48,2.106667 -1.65333,2.213334 l -0.66667,0.05333 v 0.8 h 6.88 v -0.8 l -0.64,-0.05333 c -1.2,-0.106667 -1.65333,-0.746667 -1.65333,-2.213334 v -8.853333 c 3.01333,0 3.65333,0.933334 4.77333,3.2 l 0.82667,-0.293333 z" />
    <path
       id="path37"
       style=""
       d="m 402.52277,22.088336 c 0,1.466667 -0.48,2.08 -1.65333,2.186667 l -0.66667,0.05333 v 0.8 h 6.90667 v -0.8 l -0.66667,-0.05333 c -1.17333,-0.106667 -1.65333,-0.72 -1.65333,-2.186667 V 15.26167 c 0,-1.466667 0.48,-2.106667 1.65333,-2.213334 l 0.66667,-0.05333 v -0.8 h -6.90667 v 0.8 l 0.66667,0.05333 c 1.17333,0.08 1.65333,0.773334 1.65333,2.24 l -6.98666,4.96 V 15.26167 c 0,-1.466667 0.48,-2.106667 1.65333,-2.213334 l 0.66667,-0.05333 v -0.8 h -6.90667 v 0.8 l 0.66667,0.05333 c 1.17333,0.106667 1.65333,0.746667 1.65333,2.213334 v 6.826666 c 0,1.466667 -0.48,2.08 -1.65333,2.186667 l -0.66667,0.05333 v 0.8 h 6.90667 v -0.8 l -0.66667,-0.05333 c -1.17333,-0.106667 -1.65333,-0.72 -1.65333,-2.186667 v -0.05333 l 6.98666,-4.96 z" />
    <path
       id="path39"
       style=""
       d="m 416.08361,17.715003 2.45333,-2.506667 c 1.44,-1.413333 2.24,-1.866666 4,-2.213333 v -0.8 h -5.62667 v 0.8 c 0.98667,0.133333 1.2,0.24 1.2,0.693333 0,0.186667 -0.10666,0.426667 -0.26666,0.64 l -2.4,2.613333 -2.13334,-2.613333 c -0.21333,-0.266666 -0.32,-0.506666 -0.32,-0.666666 0,-0.373334 0.32,-0.56 1.09334,-0.64 l 0.26666,-0.02667 v -0.8 h -6.45333 v 0.8 c 1.28,0.186667 1.76,0.506667 2.72,1.626667 l 3.12,3.919999 -3.38667,3.813334 c -1.2,1.36 -1.89333,1.786666 -3.17333,1.973333 v 0.8 h 5.97333 v -0.8 l -0.21333,-0.05333 c -1.14667,-0.16 -1.57333,-0.426667 -1.57333,-0.96 0,-0.266667 0.18666,-0.64 0.48,-0.96 l 2.66666,-2.986667 2.45334,3.36 c 0.16,0.213333 0.26666,0.533333 0.26666,0.72 0,0.506667 -0.32,0.693333 -1.6,0.88 v 0.8 h 7.2 v -0.8 c -1.44,-0.24 -1.92,-0.56 -3.09333,-1.973333 z" />
    <path
       id="path41"
       style=""
       d="m 162.38403,48.595005 v 6.8 c 0,1.466667 -0.48,2.106667 -1.65333,2.213334 l -0.66667,0.05333 v 0.8 h 6.16 v -0.8 l -0.66666,-0.05333 c -1.17334,-0.106667 -1.65334,-0.746667 -1.65334,-2.213334 v -8.746666 l 4.24,11.813333 h 1.2 l 3.97334,-11.6 v 8.533333 c 0,1.466667 -0.48,2.106667 -1.65334,2.213334 l -0.66666,0.05333 v 0.8 h 6.90666 v -0.8 l -0.66666,-0.05333 c -1.17334,-0.106667 -1.65334,-0.746667 -1.65334,-2.213334 v -6.8 c 0,-1.466666 0.48,-2.106666 1.65334,-2.213333 l 0.66666,-0.05333 v -0.8 h -5.6 l -3.06666,9.2 -3.28,-9.2 h -5.89334 v 0.8 l 0.66667,0.05333 c 1.17333,0.106667 1.65333,0.746667 1.65333,2.213333 z" />
    <path
       id="path43"
       style=""
       d="m 187.13028,53.101672 h 1.36 v 2.106667 c 0,1.626666 -0.29333,2.293333 -1.68,2.4 l -0.66666,0.05333 v 0.8 h 6.96 v -0.8 l -0.66667,-0.05333 c -1.38667,-0.106667 -1.68,-0.773334 -1.68,-2.4 v -6.746667 c 0,-1.626667 0.29333,-1.973333 1.68,-2.08 l 0.66667,-0.05333 v -0.8 h -5.89334 c -4.29333,0 -7.14666,0.853333 -7.14666,3.733333 0,1.786667 0.88,3.546667 4.18666,3.813333 -1.52,0.426667 -1.84,1.946667 -2.10666,2.773334 -0.26667,0.8 -0.42667,1.253333 -1.70667,1.253333 -1.17333,0 -1.22667,-1.306667 -1.22667,-1.306667 l -0.96,0.186667 c 0,0 0.0533,2.8 3.57334,2.8 1.70666,0 2.88,-1.413333 3.04,-2.453333 0.26666,-1.786667 1.12,-3.226667 2.26666,-3.226667 z m 1.36,-1.066667 h -1.6 c -2.69333,0 -4.53333,-0.693333 -4.53333,-2.693333 0,-2.186667 2.53333,-2.746667 4.21333,-2.746667 1.25334,0 1.92,0.24 1.92,1.733334 z" />
    <path
       id="path45"
       style=""
       d="m 196.47195,48.595005 v 6.8 c 0,1.466667 -0.45333,2.106667 -1.62667,2.213334 l -0.66666,0.05333 v 0.8 h 6.82666 v -0.8 l -0.64,-0.05333 c -1.2,-0.106667 -1.62666,-0.746667 -1.62666,-2.213334 v -6.88 c 0,-1.253333 0.82666,-1.786666 1.73333,-1.786666 2.82667,0 4,1.706666 4.64,3.013333 l 0.82667,-0.293333 -1.49334,-3.92 h -10.26666 v 0.8 l 0.66666,0.05333 c 1.17334,0.106667 1.62667,0.746667 1.62667,2.213333 z" />
    <path
       id="path47"
       style=""
       d="m 211.42153,48.568339 c 0,-1.466667 0.48,-2.08 1.65334,-2.186667 l 0.66666,-0.05333 v -0.8 h -6.90666 v 0.8 l 0.66666,0.05333 c 1.17334,0.106667 1.65334,0.72 1.65334,2.186667 v 6.853333 c 0,1.466667 -0.48,2.08 -1.65334,2.186667 l -0.66666,0.05333 v 0.8 h 6.90666 v -0.8 l -0.66666,-0.05333 c -1.17334,-0.106667 -1.65334,-0.72 -1.65334,-2.186667 v -3.413333 h 0.53334 c 2.29333,0 3.30666,1.973333 3.30666,4.053333 0,1.28 0.90667,2.72 3.09334,2.72 3.52,0 3.46666,-2.8 3.46666,-2.8 l -0.96,-0.186667 c 0,0 -0.45333,1.306667 -1.36,1.306667 -0.82666,0 -1.52,-0.56 -1.52,-2.026667 0,-1.893333 -2.24,-3.413333 -4.45333,-3.466666 1.89333,-0.693334 2.82667,-2.533334 3.04,-4.16 0.0533,-0.426667 0.18667,-0.613334 0.50667,-0.613334 0.85333,0 -0.0533,1.546667 1.62666,1.546667 1.04,0 1.33334,-0.826667 1.33334,-1.493333 0,-1.2 -1.14667,-1.653334 -2.24,-1.653334 -1.68,0 -2.4,0.826667 -2.77334,2.346667 -0.48,1.893333 -0.82666,3.626667 -2.64,3.626667 h -0.96 z" />
    <path
       id="path49"
       style=""
       d="m 234.0332,55.421672 c 0,1.466667 -0.48,2.08 -1.65333,2.186667 l -0.66667,0.05333 v 0.8 h 6.90667 v -0.8 l -0.66667,-0.05333 c -1.17333,-0.106667 -1.65333,-0.72 -1.65333,-2.186667 v -6.826667 c 0,-1.466666 0.48,-2.106666 1.65333,-2.213333 l 0.66667,-0.05333 v -0.8 h -6.90667 v 0.8 l 0.66667,0.05333 c 1.17333,0.08 1.65333,0.773333 1.65333,2.24 l -6.98667,4.96 v -4.986667 c 0,-1.466666 0.48,-2.106666 1.65334,-2.213333 l 0.66666,-0.05333 v -0.8 h -6.90666 v 0.8 l 0.66666,0.05333 c 1.17334,0.106667 1.65334,0.746667 1.65334,2.213333 v 6.826667 c 0,1.466667 -0.48,2.08 -1.65334,2.186667 l -0.66666,0.05333 v 0.8 h 6.90666 v -0.8 l -0.66666,-0.05333 c -1.17334,-0.106667 -1.65334,-0.72 -1.65334,-2.186667 v -0.05333 l 6.98667,-4.96 z" />
    <path
       id="path51"
       style=""
       d="m 247.59404,51.048339 2.45333,-2.506667 c 1.44,-1.413333 2.24,-1.866667 4,-2.213333 v -0.8 h -5.62667 v 0.8 c 0.98667,0.133333 1.2,0.24 1.2,0.693333 0,0.186667 -0.10666,0.426667 -0.26666,0.64 l -2.4,2.613333 -2.13334,-2.613333 c -0.21333,-0.266667 -0.32,-0.506667 -0.32,-0.666667 0,-0.373333 0.32,-0.56 1.09334,-0.64 l 0.26666,-0.02667 v -0.8 h -6.45333 v 0.8 c 1.28,0.186666 1.76,0.506666 2.72,1.626666 l 3.12,3.92 -3.38667,3.813334 c -1.2,1.36 -1.89333,1.786666 -3.17333,1.973333 v 0.8 h 5.97333 v -0.8 l -0.21333,-0.05333 c -1.14667,-0.16 -1.57333,-0.426667 -1.57333,-0.96 0,-0.266667 0.18666,-0.64 0.48,-0.96 l 2.66666,-2.986667 2.45334,3.36 c 0.16,0.213333 0.26666,0.533333 0.26666,0.72 0,0.506667 -0.32,0.693333 -1.6,0.88 v 0.8 h 7.2 v -0.8 c -1.44,-0.24 -1.92,-0.56 -3.09333,-1.973333 z" />
    <path
       id="path53"
       style=""
       d="m 272.6607,61.475005 c 0,1.44 -0.48,2.106667 -1.65334,2.213333 l -0.66666,0.05333 v 0.8 h 6.90666 v -0.8 l -0.66666,-0.05333 c -1.17334,-0.106666 -1.65334,-0.773333 -1.65334,-2.213333 v -4.346666 c 1.22667,0.933333 2.13334,1.573333 3.81334,1.573333 3.38666,0 5.54666,-2.933333 5.54666,-6.773333 0,-1.653334 -0.56,-3.386667 -1.46666,-4.586667 -0.96,-1.253333 -2.21334,-2.053333 -3.94667,-2.053333 -1.76,0 -2.74667,0.826666 -3.94667,2.186666 v -6.959999 h -0.64 c -1.54666,0.293333 -2.37333,0.4 -3.94666,0.533333 v 0.8 l 0.56,0.05333 c 1.38666,0.133334 1.76,0.613334 1.76,2.213334 v 3.359999 c -1.2,-1.36 -2.18667,-2.186666 -3.94667,-2.186666 -1.73333,0 -2.98667,0.8 -3.94667,2.053333 -0.90666,1.2 -1.46666,2.933333 -1.46666,4.586667 0,3.84 2.16,6.773333 5.54666,6.773333 1.68,0 2.58667,-0.64 3.81334,-1.573333 z m 0,-12.666666 v 7.013333 c -1.01334,0.96 -1.81334,1.68 -3.14667,1.68 -2.24,0 -3.49333,-2.213333 -3.49333,-5.253333 0,-3.493334 1.14666,-5.76 3.52,-5.76 1.36,0 2,0.826666 3.12,2.32 z m 2.26666,0 c 1.12,-1.493334 1.76,-2.32 3.12,-2.32 2.37334,0 3.52,2.266666 3.52,5.76 0,3.04 -1.25333,5.253333 -3.49333,5.253333 -1.33333,0 -2.13333,-0.72 -3.14667,-1.68 z" />
    <path
       id="path55"
       style=""
       d="m 290.2757,45.528339 h -0.64 c -1.54667,0.293333 -2.37333,0.4 -3.94667,0.533333 v 0.8 l 0.56,0.05333 c 1.38667,0.133334 1.76,0.613334 1.76,2.213334 v 12.346666 c 0,1.44 -0.48,2.106667 -1.65333,2.213333 l -0.66667,0.05333 v 0.8 h 6.90667 v -0.8 l -0.66667,-0.05333 c -1.17333,-0.106666 -1.65333,-0.773333 -1.65333,-2.213333 v -4.133333 c 1.22667,0.933333 2.53333,1.36 4.21333,1.36 3.38667,0 5.94667,-2.933333 5.94667,-6.773333 0,-1.653334 -0.56,-3.386667 -1.46667,-4.586667 -0.96,-1.253333 -2.61333,-2.053333 -4.34666,-2.053333 -1.76,0 -3.14667,0.64 -4.34667,2 z m 0,3.093333 c 1.12,-1.493333 2.16,-2.133333 3.52,-2.133333 2.37333,0 3.92,2.266666 3.92,5.76 0,3.04 -1.65333,5.253333 -3.89333,5.253333 -1.33334,0 -2.53334,-0.506667 -3.54667,-1.466667 z" />
    <path
       id="path57"
       style=""
       d="m 311.3257,50.888339 c -3.2,0.346666 -3.33333,0.373333 -4.50667,0.666666 -2.96,0.746667 -4.48,2.053334 -4.48,3.84 0,1.92 1.73334,3.306667 4.10667,3.306667 1.78667,0 3.09333,-0.56 4.88,-2.053333 0.50667,1.44 1.41333,2.053333 2.98667,2.053333 1.12,0 2,-0.32 2.74666,-1.04 l -0.50666,-0.693333 c -0.45334,0.4 -0.74667,0.533333 -1.2,0.533333 -0.56,0 -1.04,-0.293333 -1.25334,-0.746667 -0.18666,-0.373333 -0.24,-0.72 -0.24,-1.866666 v -5.653334 c 0,-1.6 -0.42666,-2.426666 -1.52,-3.04 -0.98666,-0.56 -2.37333,-0.906666 -3.6,-0.906666 -1.14666,0 -2.58666,0.32 -3.65333,0.773333 -1.25333,0.56 -2.16,1.68 -2.16,2.613333 0,0.64 0.58667,1.173334 1.28,1.173334 0.74667,0 1.36,-0.613334 1.36,-1.36 l -0.0267,-0.746667 c 0,-0.773333 1.2,-1.386667 2.69334,-1.386667 1.89333,0 3.09333,0.933334 3.09333,2.4 z m 0,4.56 c -1.49333,1.413333 -2.61333,1.973333 -3.94667,1.973333 -1.28,0 -2.32,-1.013333 -2.32,-2.293333 0,-1.786667 2.24,-2.96 6.26667,-3.306667 z" />
    <path
       id="path59"
       style=""
       d="m 328.71445,55.395005 c 0,1.466667 -0.48,2.106667 -1.65333,2.213334 l -0.66667,0.05333 v 0.8 h 6.90667 v -0.8 l -0.66667,-0.05333 c -1.17333,-0.106667 -1.65333,-0.746667 -1.65333,-2.213334 v -6.8 c 0,-1.466666 0.48,-2.106666 1.65333,-2.213333 l 0.66667,-0.05333 v -0.8 h -6.90667 v 0.8 l 0.66667,0.05333 c 1.17333,0.106667 1.65333,0.746667 1.65333,2.213333 v 2.24 h -6.72 v -2.24 c 0,-1.466666 0.48,-2.106666 1.65333,-2.213333 l 0.66667,-0.05333 v -0.8 h -6.90667 v 0.8 l 0.66667,0.05333 c 1.17333,0.106667 1.65333,0.746667 1.65333,2.213333 v 6.8 c 0,1.466667 -0.48,2.106667 -1.65333,2.213334 l -0.66667,0.05333 v 0.8 h 6.90667 v -0.8 l -0.66667,-0.05333 c -1.17333,-0.106667 -1.65333,-0.746667 -1.65333,-2.213334 v -3.306666 h 6.72 z" />
    <path
       id="path61"
       style=""
       d="m 334.38694,58.461672 h 10.66667 c 2.61333,0 3.28,0.08 4.42666,3.2 l 0.82667,-0.293334 -0.56,-3.946666 h -0.66667 c -1.17333,0 -1.65333,-0.426667 -1.65333,-1.893333 v -6.933334 c 0,-1.466666 0.48,-2.106666 1.65333,-2.213333 l 0.66667,-0.05333 v -0.8 h -6.90667 v 0.8 l 0.66667,0.05333 c 1.17333,0.106667 1.65333,0.746667 1.65333,2.213333 v 8.906667 h -6.18666 v -8.906667 c 0,-1.466666 0.48,-2.106666 1.65333,-2.213333 l 0.66667,-0.05333 v -0.8 h -6.90667 v 0.8 l 0.66667,0.05333 c 1.17333,0.106667 1.65333,0.746667 1.65333,2.213333 v 6.933334 c 0,1.466666 -0.48,1.973333 -1.65333,2.08 l -0.66667,0.05333 z" />
    <path
       id="path63"
       style=""
       d="m 358.09112,55.955005 -3.33334,-8.106666 c -0.08,-0.186667 -0.10666,-0.346667 -0.10666,-0.533334 0,-0.56 0.4,-0.853333 1.44,-0.986666 v -0.8 h -6.08 v 0.826666 c 1.30666,0.186667 1.62666,0.453334 2.13333,1.68 l 4.77333,11.146667 -0.66666,1.546666 c -0.58667,1.44 -1.52,2.426667 -2.24,2.426667 -0.26667,0 -0.53334,-0.16 -0.88,-0.506667 -0.66667,-0.72 -0.93334,-0.88 -1.46667,-0.88 -0.77333,0 -1.41333,0.613334 -1.41333,1.306667 0,1.04 1.06666,1.813333 2.50666,1.813333 1.06667,0 2.02667,-0.453333 2.90667,-1.36 0.82667,-0.853333 1.38667,-1.786666 2.26667,-3.92 l 4.48,-10.826666 c 0.64,-1.493333 1.28,-2.08 2.72,-2.426667 v -0.826666 h -5.86667 v 0.8 c 1.41333,0.266666 1.81333,0.56 1.81333,1.306666 0,0.48 -0.18666,1.226667 -0.50666,2.026667 z" />
    <path
       id="path65"
       style=""
       d="m 368.04195,56.008339 c 0,-0.48 0.16,-0.373334 0.16,-0.986667 0,-0.88 -0.58667,-1.146667 -1.36,-1.146667 -0.77334,0 -1.14667,0.693334 -1.14667,1.306667 0,2.24 2.69333,3.546666 5.62667,3.546666 4,0 5.68,-1.466666 5.68,-4.133333 0,-1.706666 -0.72,-2.933333 -2.05334,-3.226666 0.77334,-0.293334 1.6,-0.853334 1.6,-2.56 0,-1.893334 -1.65333,-3.653334 -5.36,-3.653334 -1.49333,0 -2.58666,0.586667 -3.22666,1.253334 l -0.21334,-0.773334 h -0.74666 l -0.32,4.106667 h 0.90666 c 0.26667,-1.946667 1.62667,-3.466667 3.44,-3.466667 1.81334,0 3.09334,0.613334 3.09334,2.24 0,1.626667 -0.74667,2.346667 -2.45334,2.346667 0,0 -1.78666,0.02667 -1.84,0 v 1.28 h 1.52 c 1.81334,0 3.14667,0.826667 3.14667,2.72 0,2.16 -1.86667,2.693333 -3.25333,2.693333 -1.38667,0 -3.2,-0.453333 -3.2,-1.546666 z" />
    <path
       id="path67"
       style=""
       d="m 390.3707,55.101672 c -1.49334,1.866667 -2.58667,2.533333 -4.21334,2.533333 -2.74666,0 -4.58666,-2.213333 -4.58666,-5.52 0,-1.493333 0.26666,-2.8 0.77333,-3.84 0.61333,-1.28 1.65333,-1.92 3.12,-1.92 1.38667,0 2.64,0.826667 2.64,1.76 l -0.0267,0.933334 c 0,0.773333 0.58667,1.36 1.36,1.36 0.77334,0 1.36,-0.64 1.36,-1.466667 0,-0.88 -0.56,-1.786667 -1.52,-2.506667 -1.06666,-0.773333 -2.32,-1.146666 -3.92,-1.146666 -1.92,0 -3.49333,0.586666 -4.61333,1.76 -1.2,1.226666 -1.89333,3.066666 -1.89333,4.96 0,3.973333 2.64,6.693333 6.56,6.693333 2.56,0 4.34666,-0.96 5.73333,-3.12 z" />
    <path
       id="path69"
       style=""
       d="m 396.8382,48.568339 c 0,-1.466667 0.48,-2.08 1.65333,-2.186667 l 0.66667,-0.05333 v -0.8 h -6.90667 v 0.8 l 0.66667,0.05333 c 1.17333,0.106667 1.65333,0.72 1.65333,2.186667 v 6.853333 c 0,1.466667 -0.48,2.08 -1.65333,2.186667 l -0.66667,0.05333 v 0.8 h 6.90667 v -0.8 l -0.66667,-0.05333 c -1.17333,-0.106667 -1.65333,-0.72 -1.65333,-2.186667 v -3.413333 h 0.53333 c 2.29334,0 3.30667,1.973333 3.30667,4.053333 0,1.28 0.90667,2.72 3.09333,2.72 3.52,0 3.46667,-2.8 3.46667,-2.8 l -0.96,-0.186667 c 0,0 -0.45333,1.306667 -1.36,1.306667 -0.82667,0 -1.52,-0.56 -1.52,-2.026667 0,-1.893333 -2.24,-3.413333 -4.45333,-3.466666 1.89333,-0.693334 2.82666,-2.533334 3.04,-4.16 0.0533,-0.426667 0.18666,-0.613334 0.50666,-0.613334 0.85334,0 -0.0533,1.546667 1.62667,1.546667 1.04,0 1.33333,-0.826667 1.33333,-1.493333 0,-1.2 -1.14666,-1.653334 -2.24,-1.653334 -1.68,0 -2.4,0.826667 -2.77333,2.346667 -0.48,1.893333 -0.82667,3.626667 -2.64,3.626667 h -0.96 z" />
    <path
       id="path71"
       style=""
       d="m 419.44987,55.421672 c 0,1.466667 -0.48,2.08 -1.65334,2.186667 l -0.66666,0.05333 v 0.8 h 6.90666 v -0.8 l -0.66666,-0.05333 c -1.17334,-0.106667 -1.65334,-0.72 -1.65334,-2.186667 v -6.826667 c 0,-1.466666 0.48,-2.106666 1.65334,-2.213333 l 0.66666,-0.05333 v -0.8 h -6.90666 v 0.8 l 0.66666,0.05333 c 1.17334,0.08 1.65334,0.773333 1.65334,2.24 l -6.98667,4.96 v -4.986667 c 0,-1.466666 0.48,-2.106666 1.65333,-2.213333 l 0.66667,-0.05333 v -0.8 h -6.90667 v 0.8 l 0.66667,0.05333 c 1.17333,0.106667 1.65333,0.746667 1.65333,2.213333 v 6.826667 c 0,1.466667 -0.48,2.08 -1.65333,2.186667 l -0.66667,0.05333 v 0.8 h 6.90667 v -0.8 l -0.66667,-0.05333 c -1.17333,-0.106667 -1.65333,-0.72 -1.65333,-2.186667 v -0.05333 l 6.98667,-4.96 z" />
    <path
       id="path73"
       style=""
       d="m 433.0107,51.048339 2.45333,-2.506667 c 1.44,-1.413333 2.24,-1.866667 4,-2.213333 v -0.8 h -5.62666 v 0.8 c 0.98666,0.133333 1.2,0.24 1.2,0.693333 0,0.186667 -0.10667,0.426667 -0.26667,0.64 l -2.4,2.613333 -2.13333,-2.613333 c -0.21334,-0.266667 -0.32,-0.506667 -0.32,-0.666667 0,-0.373333 0.32,-0.56 1.09333,-0.64 l 0.26667,-0.02667 v -0.8 h -6.45334 v 0.8 c 1.28,0.186666 1.76,0.506666 2.72,1.626666 l 3.12,3.92 -3.38666,3.813334 c -1.2,1.36 -1.89334,1.786666 -3.17334,1.973333 v 0.8 h 5.97334 v -0.8 l -0.21334,-0.05333 c -1.14666,-0.16 -1.57333,-0.426667 -1.57333,-0.96 0,-0.266667 0.18667,-0.64 0.48,-0.96 l 2.66667,-2.986667 2.45333,3.36 c 0.16,0.213333 0.26667,0.533333 0.26667,0.72 0,0.506667 -0.32,0.693333 -1.6,0.88 v 0.8 h 7.2 v -0.8 c -1.44,-0.24 -1.92,-0.56 -3.09334,-1.973333 z" />
    <path
       id="path75"
       style=""
       d="m 171.39737,72.915008 c 0,1.04 -1.25334,1.146667 -2.29334,1.28 -0.8,0.106667 -2.61333,-0.133333 -4.53333,0.853333 -3.44,1.76 -4.13333,5.706667 -4.13333,10.32 0,4.026667 2.50666,6.666667 6.48,6.666667 3.86666,0 6.48,-2.666667 6.48,-6.613333 0,-1.733334 -0.61334,-3.493334 -1.6,-4.72 -1.12,-1.333334 -2.90667,-2.08 -4.98667,-2.08 -1.52,0 -3.41333,0.16 -4.72,2.826666 0.45333,-1.866666 1.22667,-3.306666 3.49333,-4.506666 1.14667,-0.613334 2.72,-0.533334 4.32,-0.746667 1.68,-0.213333 2.56,-1.733333 2.56,-3.28 z m -4.56,6.773333 c 2.4,0 3.84,2.213334 3.84,5.866667 0,3.386666 -1.38667,5.413333 -3.73334,5.413333 -2.45333,0 -3.86666,-2.053333 -3.86666,-5.653333 0,-3.413333 1.49333,-5.626667 3.76,-5.626667 z" />
    <path
       id="path77"
       style=""
       d="m 181.78903,89.288341 -3.33333,-8.106666 c -0.08,-0.186667 -0.10667,-0.346667 -0.10667,-0.533334 0,-0.56 0.4,-0.853333 1.44,-0.986666 v -0.8 h -6.08 v 0.826666 c 1.30667,0.186667 1.62667,0.453334 2.13334,1.68 l 4.77333,11.146667 -0.66667,1.546666 c -0.58666,1.44 -1.52,2.426667 -2.24,2.426667 -0.26666,0 -0.53333,-0.16 -0.88,-0.506667 -0.66666,-0.72 -0.93333,-0.88 -1.46666,-0.88 -0.77334,0 -1.41334,0.613334 -1.41334,1.306667 0,1.04 1.06667,1.813333 2.50667,1.813333 1.06667,0 2.02667,-0.453333 2.90667,-1.36 0.82666,-0.853333 1.38666,-1.786666 2.26666,-3.92 l 4.48,-10.826666 c 0.64,-1.493333 1.28,-2.08 2.72,-2.426667 v -0.826666 h -5.86666 v 0.8 c 1.41333,0.266666 1.81333,0.56 1.81333,1.306666 0,0.48 -0.18667,1.226667 -0.50667,2.026667 z" />
    <path
       id="path79"
       style=""
       d="m 202.00653,88.755008 v -6.853333 c 0,-1.466667 0.48,-2.08 1.65334,-2.186667 l 0.66666,-0.05333 v -0.8 h -11.84 v 0.8 l 0.66667,0.05333 c 1.38667,0.106667 1.73333,0.88 1.73333,1.866667 0,3.573333 -0.98666,8.853333 -2.50666,8.853333 -1.01334,0 -0.56,-1.28 -1.94667,-1.28 -1.04,0 -1.52,0.613333 -1.52,1.386666 0,1.253334 0.72,1.52 1.94667,1.52 1.68,0 2.93333,-0.266666 3.94666,-2.266666 0.93334,-1.84 1.62667,-7.013333 1.62667,-8.986667 0,-0.746666 0.4,-1.146666 1.01333,-1.146666 h 1.25334 c 0.88,0 1.04,0.32 1.04,1.946666 v 7.146667 c 0,1.466666 -0.48,2.08 -1.65334,2.186666 l -0.66666,0.05333 v 0.8 h 6.90666 v -0.8 l -0.66666,-0.05333 c -1.17334,-0.106666 -1.65334,-0.72 -1.65334,-2.186666 z" />
    <path
       id="path81"
       style=""
       d="m 212.2832,78.621675 c -1.86667,0 -3.52,0.64 -4.58667,1.733333 -1.12,1.173333 -1.86666,3.146667 -1.86666,5.013333 0,4.026667 2.58666,6.666667 6.56,6.666667 3.86666,0 6.48,-2.666667 6.48,-6.613333 0,-1.733334 -0.61334,-3.493334 -1.6,-4.72 -1.12,-1.333334 -2.90667,-2.08 -4.98667,-2.08 z m 0.0267,1.066666 c 2.4,0 3.84,2.213334 3.84,5.866667 0,3.386666 -1.38667,5.413333 -3.73334,5.413333 -2.45333,0 -3.86666,-2.053333 -3.86666,-5.653333 0,-3.413333 1.49333,-5.626667 3.76,-5.626667 z" />
    <path
       id="path83"
       style=""
       d="m 224.91111,81.901675 c 0,-1.466667 0.48,-2.08 1.65334,-2.186667 l 0.66666,-0.05333 v -0.8 h -6.90666 v 0.8 l 0.66666,0.05333 c 1.17334,0.106667 1.65334,0.72 1.65334,2.186667 v 6.853333 c 0,1.466666 -0.48,2.08 -1.65334,2.186666 l -0.66666,0.05333 v 0.8 h 6.90666 v -0.8 l -0.66666,-0.05333 c -1.17334,-0.106666 -1.65334,-0.72 -1.65334,-2.186666 v -3.413333 h 0.53334 c 2.29333,0 3.30666,1.973333 3.30666,4.053333 0,1.28 0.90667,2.72 3.09334,2.72 3.52,0 3.46666,-2.8 3.46666,-2.8 l -0.96,-0.186667 c 0,0 -0.45333,1.306667 -1.36,1.306667 -0.82666,0 -1.52,-0.56 -1.52,-2.026667 0,-1.893333 -2.24,-3.413333 -4.45333,-3.466666 1.89333,-0.693334 2.82667,-2.533334 3.04,-4.16 0.0533,-0.426667 0.18667,-0.613334 0.50667,-0.613334 0.85333,0 -0.0533,1.546667 1.62666,1.546667 1.04,0 1.33334,-0.826667 1.33334,-1.493333 0,-1.2 -1.14667,-1.653334 -2.24,-1.653334 -1.68,0 -2.4,0.826667 -2.77334,2.346667 -0.48,1.893333 -0.82666,3.626667 -2.64,3.626667 h -0.96 z" />
    <path
       id="path85"
       style=""
       d="m 252.33111,90.701674 h -3.22666 c -0.32,0 -0.50667,-0.16 -0.50667,-0.373333 0,-0.586667 1.73333,-2.933333 1.73333,-9.52 0,-0.64 0.45334,-1.146666 1.06667,-1.146666 h 1.6 c 0.88,0 1.04,0.32 1.04,1.946666 v 7.173333 c 0,1.546667 -0.32,1.92 -1.70667,1.92 z m -7.36,0.293334 -0.58666,3.706666 0.82666,0.293334 c 1.06667,-3.04 1.68,-3.2 3.62667,-3.2 h 5.44 c 1.94667,0 2.56,0.16 3.62667,3.2 l 0.82666,-0.293334 -0.56,-3.706666 h -0.53333 c -1.04,0 -1.33333,-0.293334 -1.33333,-1.84 v -7.36 c 0,-1.546667 0.34666,-1.973333 1.73333,-2.08 l 0.66667,-0.05333 v -0.8 h -12.4 v 0.8 l 0.66666,0.02667 c 1.33334,0.106667 1.73334,0.613334 1.73334,1.76 0,3.733334 -1.28,9.546667 -3.36,9.546667 z" />
    <path
       id="path87"
       style=""
       d="m 269.4507,84.221675 c -3.2,0.346666 -3.33333,0.373333 -4.50667,0.666666 -2.96,0.746667 -4.48,2.053333 -4.48,3.84 0,1.92 1.73334,3.306667 4.10667,3.306667 1.78667,0 3.09333,-0.56 4.88,-2.053334 0.50667,1.44 1.41333,2.053334 2.98667,2.053334 1.12,0 2,-0.32 2.74666,-1.04 l -0.50666,-0.693334 c -0.45334,0.4 -0.74667,0.533334 -1.2,0.533334 -0.56,0 -1.04,-0.293334 -1.25334,-0.746667 -0.18666,-0.373333 -0.24,-0.72 -0.24,-1.866667 v -5.653333 c 0,-1.6 -0.42666,-2.426666 -1.52,-3.04 -0.98666,-0.56 -2.37333,-0.906666 -3.6,-0.906666 -1.14666,0 -2.58666,0.32 -3.65333,0.773333 -1.25333,0.56 -2.16,1.68 -2.16,2.613333 0,0.64 0.58667,1.173334 1.28,1.173334 0.74667,0 1.36,-0.613334 1.36,-1.36 l -0.0267,-0.746667 c 0,-0.773333 1.2,-1.386667 2.69334,-1.386667 1.89333,0 3.09333,0.933334 3.09333,2.4 z m 0,4.559999 c -1.49333,1.413334 -2.61333,1.973334 -3.94667,1.973334 -1.28,0 -2.32,-1.013334 -2.32,-2.293334 0,-1.786666 2.24,-2.959999 6.26667,-3.306666 z" />
    <path
       id="path89"
       style=""
       d="m 284.07445,78.861675 v 0.8 l 0.66666,0.05333 c 1.38667,0.106667 1.68,0.773333 1.68,2.4 v 6.746666 c 0,1.626667 -0.29333,1.973334 -1.68,2.08 l -0.66666,0.05333 v 0.8 h 6.08 c 3.89333,0 7.41333,-0.773334 7.41333,-3.733334 0,-2.453333 -2.58667,-3.119999 -4.88,-3.386666 1.92,-0.346667 3.86667,-1.173333 3.86667,-2.826667 0,-2.853333 -3.49334,-2.986666 -6.74667,-2.986666 z m 4.61333,5.413333 v -3.013333 c 0,-1.44 0.53333,-1.466667 1.89333,-1.466667 2.50667,0 3.25334,0.96 3.25334,2.266667 0,1.093333 -0.48,2.213333 -3.73334,2.213333 z m 0,1.013333 h 1.28 c 2.98667,0 4.58667,0.586667 4.58667,2.693333 0,2 -1.65334,2.746667 -3.76,2.746667 -1.25334,0 -2.10667,-0.24 -2.10667,-1.733333 z" />
    <path
       id="path91"
       style=""
       d="m 298.55361,78.861675 v 0.8 l 0.66667,0.05333 c 1.38667,0.106667 1.68,0.773333 1.68,2.4 v 6.746666 c 0,1.626667 -0.29333,1.973334 -1.68,2.08 l -0.66667,0.05333 v 0.8 h 6.08 c 3.92,0 6.85334,-1.066667 6.85334,-4 0,-1.973333 -0.37334,-3.973333 -6.26667,-3.973333 -0.58667,0 -2.05333,0.4 -2.05333,0.4 v -2.106667 c 0,-1.626667 0.29333,-2.293333 1.68,-2.4 l 0.66666,-0.05333 v -0.8 z m 4.61334,6.426666 c 0,0 1.46666,-0.4 2.05333,-0.4 2.58667,0 3.54667,1.093334 3.54667,3.093333 0,1.733334 -1.01334,2.746667 -3.49334,2.746667 -1.25333,0 -2.10666,-0.24 -2.10666,-1.733333 z m 12.72,-3.36 c 0,-1.466666 0.48,-2.106666 1.65333,-2.213333 l 0.66667,-0.05333 v -0.8 h -6.90667 v 0.8 l 0.66667,0.05333 c 1.17333,0.106667 1.65333,0.746667 1.65333,2.213333 v 6.8 c 0,1.466667 -0.48,2.106667 -1.65333,2.213333 l -0.66667,0.05333 v 0.8 h 6.90667 v -0.8 l -0.66667,-0.05333 c -1.17333,-0.106666 -1.65333,-0.746666 -1.65333,-2.213333 z" />
    <path
       id="path93"
       style=""
       d="m 323.86945,79.821675 h 6.18667 v 8.906666 c 0,1.466667 -0.48,2.106667 -1.65334,2.213333 l -0.66666,0.05333 v 0.8 h 6.90666 v -0.8 l -0.66666,-0.05333 c -1.17334,-0.106666 -1.65334,-0.746666 -1.65334,-2.213333 v -6.933333 c 0,-1.466667 0.48,-1.973333 1.65334,-2.08 l 0.66666,-0.05333 v -0.8 h -15.36 v 0.8 l 0.66667,0.05333 c 1.17333,0.106667 1.65333,0.613333 1.65333,2.08 v 6.933333 c 0,1.466667 -0.48,2.106667 -1.65333,2.213333 l -0.66667,0.05333 v 0.8 h 6.90667 v -0.8 l -0.66667,-0.05333 c -1.17333,-0.106666 -1.65333,-0.746666 -1.65333,-2.213333 z" />
    <path
       id="path95"
       style=""
       d="m 347.36903,88.275008 c -0.96,1.76 -2.18666,2.56 -3.84,2.56 -1.89333,0 -3.28,-0.96 -4,-2.746667 -0.4,-0.933333 -0.53333,-2.106666 -0.53333,-4 h 9.25333 c -0.0267,-1.546666 -0.37333,-2.506666 -1.25333,-3.52 -1.06667,-1.253333 -2.69333,-1.946666 -4.56,-1.946666 -3.65333,0 -6.29333,2.746666 -6.29333,6.586666 0,1.786667 0.66666,3.573333 1.76,4.8 1.2,1.36 2.82666,2.026667 4.82666,2.026667 2.45334,0 4.16,-1.013334 5.52,-3.333334 z m -8.29333,-5.253333 c 0.18667,-1.12 0.34667,-1.6 0.77333,-2.16 0.56,-0.773334 1.41334,-1.173334 2.48,-1.173334 1.41334,0 2.42667,0.666667 2.93334,1.973334 0.13333,0.4 0.21333,0.906666 0.21333,1.36 z" />
    <path
       id="path97"
       style=""
       d="m 353.24986,74.328341 c 0.8,1.706667 2.37333,2.693334 4.34666,2.693334 1.84,0 3.57334,-1.066667 4.4,-2.693334 l -0.61333,-0.48 c -0.90667,0.826667 -2.4,1.386667 -3.73333,1.386667 -1.38667,0 -2.66667,-0.48 -3.78667,-1.386667 z m 7.86666,14.426667 c 0,1.466666 -0.48,2.08 -1.65333,2.186666 l -0.66667,0.05333 v 0.8 h 6.90667 v -0.8 l -0.66667,-0.05333 c -1.17333,-0.106666 -1.65333,-0.72 -1.65333,-2.186666 v -6.826667 c 0,-1.466666 0.48,-2.106666 1.65333,-2.213333 l 0.66667,-0.05333 v -0.8 h -6.90667 v 0.8 l 0.66667,0.05333 c 1.17333,0.08 1.65333,0.773333 1.65333,2.24 l -6.98666,4.96 v -4.986667 c 0,-1.466666 0.48,-2.106666 1.65333,-2.213333 l 0.66667,-0.05333 v -0.8 h -6.90667 v 0.8 l 0.66667,0.05333 c 1.17333,0.106667 1.65333,0.746667 1.65333,2.213333 v 6.826667 c 0,1.466666 -0.48,2.08 -1.65333,2.186666 l -0.66667,0.05333 v 0.8 h 6.90667 v -0.8 l -0.66667,-0.05333 c -1.17333,-0.106666 -1.65333,-0.72 -1.65333,-2.186666 v -0.05333 l 6.98666,-4.959999 z" />
    <path
       id="path99"
       style=""
       d="m 385.9657,88.728341 c 0,1.466667 -0.48,2.106667 -1.65334,2.213333 l -0.66666,0.05333 v 0.8 h 6.90666 v -0.8 l -0.66666,-0.05333 c -1.17334,-0.106666 -1.65334,-0.746666 -1.65334,-2.213333 v -6.8 c 0,-1.466666 0.48,-2.106666 1.65334,-2.213333 l 0.66666,-0.05333 v -0.8 h -6.90666 v 0.8 l 0.66666,0.05333 c 1.17334,0.106667 1.65334,0.746667 1.65334,2.213333 v 3.12 c -0.85334,0.666667 -1.81334,1.173334 -3.14667,1.173334 -1.86667,0 -2.96,-1.28 -2.96,-2.32 v -1.973334 c 0,-1.466666 0.48,-2.106666 1.65333,-2.213333 l 0.66667,-0.05333 v -0.8 h -6.90667 v 0.8 l 0.66667,0.05333 c 1.17333,0.106667 1.65333,0.746667 1.65333,2.213333 v 2.026667 c 0,2.053333 1.54667,3.6 5.22667,3.6 1.33333,0 2.08,-0.373334 3.14667,-0.986667 z" />
    <path
       id="path101"
       style=""
       d="m 400.96111,84.221675 c -3.2,0.346666 -3.33334,0.373333 -4.50667,0.666666 -2.96,0.746667 -4.48,2.053333 -4.48,3.84 0,1.92 1.73333,3.306667 4.10667,3.306667 1.78666,0 3.09333,-0.56 4.88,-2.053334 0.50666,1.44 1.41333,2.053334 2.98666,2.053334 1.12,0 2,-0.32 2.74667,-1.04 l -0.50667,-0.693334 c -0.45333,0.4 -0.74666,0.533334 -1.2,0.533334 -0.56,0 -1.04,-0.293334 -1.25333,-0.746667 -0.18667,-0.373333 -0.24,-0.72 -0.24,-1.866667 v -5.653333 c 0,-1.6 -0.42667,-2.426666 -1.52,-3.04 -0.98667,-0.56 -2.37333,-0.906666 -3.6,-0.906666 -1.14667,0 -2.58667,0.32 -3.65333,0.773333 -1.25334,0.56 -2.16,1.68 -2.16,2.613333 0,0.64 0.58666,1.173334 1.28,1.173334 0.74666,0 1.36,-0.613334 1.36,-1.36 l -0.0267,-0.746667 c 0,-0.773333 1.2,-1.386667 2.69333,-1.386667 1.89334,0 3.09334,0.933334 3.09334,2.4 z m 0,4.559999 c -1.49334,1.413334 -2.61334,1.973334 -3.94667,1.973334 -1.28,0 -2.32,-1.013334 -2.32,-2.293334 0,-1.786666 2.24,-2.959999 6.26667,-3.306666 z" />
    <path
       id="path103"
       style=""
       d="m 411.62986,84.035008 v -2.56 c 0,-1.466667 0.48,-1.653333 1.65333,-1.76 l 0.66667,-0.05333 v -0.8 h -6.90667 v 0.8 l 0.66667,0.05333 c 1.17333,0.106667 1.65333,0.293333 1.65333,1.76 v 7.253333 c 0,1.466667 -0.48,2.106667 -1.65333,2.213333 l -0.66667,0.05333 v 0.8 h 6.90667 v -0.8 l -0.66667,-0.05333 c -1.17333,-0.106666 -1.65333,-0.746666 -1.65333,-2.213333 v -3.173333 h 2.05333 c 0,3.92 2.61333,6.48 6.53333,6.48 3.86667,0 6.48,-2.666667 6.48,-6.613333 0,-1.733334 -0.61333,-3.493334 -1.6,-4.72 -1.12,-1.333334 -2.90666,-2.08 -4.98666,-2.08 -4.93334,0 -6.29334,4.346666 -6.29334,5.413333 z m 8.50666,-4.346667 c 2.4,0 3.84,2.213334 3.84,5.866667 0,3.386666 -1.38666,5.413333 -3.73333,5.413333 -2.45333,0 -3.84,-2.133333 -3.84,-5.466666 0,-3.626667 1.46667,-5.813334 3.73333,-5.813334 z" />
  </g>
</svg>
