<?xml version="1.0" encoding="UTF-8" standalone="no"?>
<svg
   xmlns:dc="http://purl.org/dc/elements/1.1/"
   xmlns:cc="http://creativecommons.org/ns#"
   xmlns:rdf="http://www.w3.org/1999/02/22-rdf-syntax-ns#"
   xmlns:svg="http://www.w3.org/2000/svg"
   xmlns="http://www.w3.org/2000/svg"
   id="svg2"
   version="1.1"
   viewBox="159.02289 7.7194822 183.3073 90.664067">
  <metadata
     id="metadata11">
    <rdf:RDF>
      <cc:Work
         rdf:about="">
        <dc:format>image/svg+xml</dc:format>
        <dc:type
           rdf:resource="http://purl.org/dc/dcmitype/StillImage" />
      </cc:Work>
    </rdf:RDF>
  </metadata>
  <defs
     id="defs9" />
  <g
     id="text4521"
     style="font-style:normal;font-variant:normal;font-weight:normal;font-stretch:normal;font-size:26.66666603px;line-height:125%;font-family:'Brush Script MT', 'Brush Script Std', cursive;font-variant-ligatures:normal;font-variant-caps:normal;font-variant-numeric:normal;font-feature-settings:normal;text-align:left;letter-spacing:0px;word-spacing:0px;writing-mode:lr-tb;text-anchor:start;fill:#000000;fill-opacity:1;stroke:none;stroke-width:1px;stroke-linecap:butt;stroke-linejoin:miter;stroke-opacity:1"
     aria-label="Съешь же ещё этихмягких французскихбулок да выпей чаю">
    <path
       id="path13"
       style=""
       d="m 175.96299,20.97469 v 0.846354 q -2.1875,2.434896 -4.02344,4.010417 -1.82291,1.588542 -3.5677,2.434896 -1.7448,0.859375 -3.3724,0.859375 -1.40625,0 -2.42187,-0.559896 -1.00261,-0.559896 -1.52344,-1.640625 -0.50781,-1.067708 -0.50781,-2.539063 0,-1.158854 0.36458,-2.447916 0.3776,-1.302083 1.08073,-2.617188 0.70312,-1.328125 1.71875,-2.734375 1.02864,-1.406249 2.40885,-2.955729 1.43229,-1.601562 2.82552,-2.760416 1.39323,-1.1718752 2.52604,-1.8359377 1.13282,-0.6640624 2.09636,-0.9895833 0.97656,-0.3255208 1.61458,-0.3255208 0.65104,0 1.10677,0.3125 0.45573,0.3125 0.70313,0.9114583 0.24739,0.5989583 0.24739,1.3802085 0,1.471354 -1.0026,3.28125 -1.0026,1.796875 -2.5,3.476562 -1.4974,1.679688 -2.86458,2.747396 -1.35417,1.054687 -1.95313,1.054687 -0.40364,0 -0.75521,-0.3125 -0.33854,-0.32552 -0.33854,-0.729166 0,-0.742188 0.78125,-1.796875 0.79427,-1.054688 1.71875,-1.927083 0.9375,-0.885417 1.11979,-0.885417 0.0911,0 0.0911,0.07813 0,0.117187 -0.14323,0.403646 -0.13021,0.286458 -0.13021,0.351562 0,0.104167 0.0781,0.104167 0.22135,0 1.27604,-1.184896 1.05469,-1.184896 1.92708,-2.604167 0.88542,-1.432291 0.88542,-2.34375 0,-0.3776037 -0.16927,-0.5729162 -0.15625,-0.2083333 -0.48177,-0.2083333 -0.91146,0 -2.77344,1.4843745 -1.84896,1.471355 -3.80208,3.763021 -1.94011,2.278646 -3.24219,4.713542 -1.30209,2.434896 -1.30209,4.283854 0,1.067708 0.3125,1.783854 0.32553,0.716146 0.9375,1.106771 0.625,0.390625 1.4974,0.390625 1.88802,0 4.28385,-1.471354 2.39584,-1.471355 5.27344,-4.335938 z" />
    <path
       id="path15"
       style=""
       d="m 182.19997,17.992919 q -0.26042,0.507813 -0.71614,1.08073 -0.44271,0.559895 -0.88542,1.171875 -0.42969,0.598958 -0.75521,1.223958 -0.3125,0.625 -0.3125,1.236979 0,0.286458 0.16927,0.46875 0.16927,0.169271 0.625,0.169271 0.5599,0 1.875,-0.963542 -0.15625,-0.625 -0.15625,-1.145833 0,-0.104167 0.026,-0.364583 0.026,-0.260417 0.0911,-0.572917 0.0781,-0.325521 0.20833,-0.664063 0.13021,-0.351562 0.35156,-0.63802 0.22136,-0.286459 0.53386,-0.46875 0.3125,-0.182292 0.75521,-0.182292 0.45573,0 0.70312,0.169271 0.2474,0.15625 0.2474,0.611979 0,0.546875 -0.26042,1.171875 -0.24739,0.625 -0.6901,1.367187 0.013,0.104167 0.13021,0.169271 0.1302,0.0651 0.29947,0.0651 0.33855,0 0.67709,-0.234375 0.35156,-0.247395 0.88541,-0.664062 v 0.872396 q -0.39062,0.364583 -0.6901,0.611979 -0.28646,0.247396 -0.5599,0.403646 -0.27343,0.15625 -0.57291,0.234375 -0.29948,0.0651 -0.70313,0.0651 -0.15625,0 -0.35156,-0.0651 -1.69271,2.005208 -2.96875,2.005208 -0.40365,0 -0.74219,-0.15625 -0.33854,-0.169271 -0.58593,-0.442708 -0.23438,-0.273438 -0.37761,-0.638021 -0.13021,-0.377604 -0.13021,-0.807292 0,-0.494791 0.11719,-1.145833 0.13021,-0.651042 0.44271,-1.236979 0.41667,-0.78125 0.80729,-1.276042 0.40365,-0.494792 0.66406,-0.807292 -0.0651,-0.117187 -0.24739,-0.3125 -0.16927,-0.195312 -0.37761,-0.390625 -0.19531,-0.208333 -0.40364,-0.390625 -0.19532,-0.182291 -0.29948,-0.260416 -0.19531,0.377604 -0.49479,0.963541 -0.28646,0.585938 -0.70313,1.25 -0.40364,0.664063 -0.9375,1.341146 -0.52083,0.664063 -1.18489,1.210938 v -0.846354 q 0.33854,-0.403646 0.58593,-0.742188 0.2474,-0.338542 0.44271,-0.611979 0.46875,-0.690104 0.83333,-1.523438 0.36459,-0.846354 0.75521,-1.614583 -0.42968,-0.351562 -0.42968,-0.494792 0,-0.104166 0.0911,-0.234374 0.10417,-0.130209 0.2474,-0.260417 0.14323,-0.130208 0.28646,-0.247396 0.15625,-0.117187 0.27343,-0.195312 0.15625,-0.104167 0.39063,-0.195313 0.23437,-0.104167 0.46875,-0.104167 0.19531,0 0.53385,0.05208 0.35156,0.03906 0.61198,0.247396 0.5599,0.455729 0.89844,0.79427 0.33854,0.338542 0.50781,0.585938 0.18229,0.234375 0.23438,0.390625 0.0521,0.143229 0.0521,0.221354 0,0.15625 -0.0911,0.338542 -0.0911,0.182291 -0.19531,0.403645 z" />
    <path
       id="path17"
       style=""
       d="m 188.02028,21.495524 v 0.32552 q 0,0.76823 0.37761,1.197917 0.3776,0.429687 0.98958,0.429687 0.63802,0 1.3151,-0.299479 0.69011,-0.299479 1.36719,-0.79427 0.67709,-0.494792 1.65365,-1.328125 v 0.79427 q -1.47136,1.770834 -2.76042,2.721354 -1.28906,0.9375 -2.61719,0.9375 -1.15885,0 -1.83593,-0.898437 -0.67709,-0.898438 -0.67709,-2.460937 0,-1.367188 0.63802,-2.473959 0.63803,-1.119791 2.08334,-2.356771 0.98958,-0.846354 1.96614,-1.276041 0.97657,-0.429688 1.74479,-0.429688 0.61198,0 0.96355,0.286459 0.36458,0.273437 0.36458,0.833333 0,0.820312 -0.61198,1.640625 -0.61198,0.807292 -1.875,1.614583 -1.25,0.794271 -3.08594,1.536459 z m 0.13021,-0.846355 q 1.17188,-0.455729 2.00521,-1.132812 0.83333,-0.677083 1.22396,-1.289063 0.40364,-0.625 0.40364,-0.911458 0,-0.299479 -0.27343,-0.299479 -0.23438,0 -0.76823,0.299479 -0.52084,0.299479 -1.06771,0.78125 -0.53386,0.481771 -0.96354,1.132813 -0.42969,0.651041 -0.5599,1.41927 z" />
    <path
       id="path19"
       style=""
       d="m 208.56716,21.847086 q -0.26042,0.260417 -0.53386,0.533854 -0.27344,0.273438 -0.53385,0.520834 -0.2474,0.247395 -0.45573,0.442708 -0.19531,0.182291 -0.29948,0.273437 -0.32552,0.286459 -0.72917,0.494792 -0.39062,0.208333 -0.75521,0.208333 -0.3776,0 -0.6901,-0.247396 -0.3125,-0.260416 -0.3125,-0.807291 0,-0.208333 0.013,-0.455729 0.013,-0.247396 0.0651,-0.559896 0.0651,-0.3125 0.18229,-0.690104 0.11718,-0.390625 0.32552,-0.898438 -0.84636,1.106771 -1.48438,1.835938 -0.63802,0.716145 -1.11979,1.145833 -0.46875,0.416667 -0.83333,0.585937 -0.35156,0.169271 -0.63802,0.169271 -0.66407,0 -1.04167,-0.559896 -0.3776,-0.559895 -0.3776,-1.536458 0,-0.559896 0.14323,-1.09375 0.14322,-0.546875 0.3776,-1.067708 -0.95052,1.263021 -1.70573,2.148437 -0.74219,0.885417 -1.3151,1.445313 -0.57292,0.559896 -1.00261,0.820312 -0.42969,0.247396 -0.74219,0.247396 -0.3776,0 -0.66406,-0.234375 -0.27344,-0.247396 -0.46875,-0.585937 -0.18229,-0.351563 -0.28646,-0.742188 -0.0911,-0.403646 -0.0911,-0.716146 0,-0.755208 0.10416,-1.354166 0.11719,-0.598959 0.37761,-1.171875 0.27344,-0.572917 0.71614,-1.171875 0.44271,-0.598959 1.10678,-1.354167 l 0.65104,-0.768229 q 0.14323,-0.169271 0.26041,-0.273438 0.13021,-0.104166 0.27344,-0.15625 0.15625,-0.0651 0.35156,-0.07813 0.19532,-0.02604 0.46875,-0.02604 0.50782,0 0.83334,0.143229 0.33854,0.130208 0.33854,0.273437 -0.0521,0.234375 -0.32552,0.664063 -0.27344,0.429687 -0.72917,0.976562 -0.45573,0.533855 -1.10677,1.145834 -0.63802,0.598958 -1.43229,1.197916 -0.11719,0.403646 -0.18229,0.690105 -0.0651,0.286458 -0.0651,0.507812 0,0.533854 0.42969,0.533854 0.11719,0 0.32552,-0.104166 0.20833,-0.104167 0.58594,-0.390625 0.3776,-0.286459 0.95052,-0.807292 0.58594,-0.520833 1.44531,-1.341146 0.42969,-0.416667 0.80729,-0.898437 0.37761,-0.494792 0.72917,-0.911459 0.36458,-0.416666 0.72917,-0.690104 0.3776,-0.273437 0.80729,-0.273437 0.13021,0 0.23437,0.09115 0.11719,0.07813 0.20834,0.221355 0.0911,0.130208 0.14323,0.299479 0.0521,0.15625 0.0521,0.325521 0,0.195312 -0.13021,0.455729 -0.11719,0.247396 -0.29948,0.520833 -0.16927,0.273438 -0.3776,0.533854 -0.19531,0.260417 -0.35156,0.46875 -0.40365,0.546875 -0.61198,1.067709 -0.20834,0.520833 -0.20834,0.911458 0,0.572917 0.39063,0.572917 0.14323,0 0.29948,-0.0651 0.16927,-0.0651 0.32552,-0.15625 0.15625,-0.104166 0.29948,-0.208333 0.14323,-0.117187 0.26041,-0.221354 0.8073,-0.729167 1.38021,-1.341146 0.57292,-0.611979 0.82031,-0.872396 0.53386,-0.546875 0.91146,-0.729166 0.37761,-0.182292 0.74219,-0.182292 0.10417,0 0.19531,0.130208 0.10417,0.130209 0.16927,0.299479 0.0781,0.169271 0.11719,0.338542 0.0521,0.15625 0.0521,0.221354 0,0.143229 -0.0911,0.455729 -0.0781,0.29948 -0.18229,0.651042 -0.10417,0.351563 -0.19532,0.677083 -0.0781,0.325521 -0.0781,0.494792 0,0.221354 0.0781,0.338542 0.0911,0.104166 0.3125,0.104166 0.14323,0 0.29948,-0.05208 0.16927,-0.0651 0.40365,-0.208333 0.23437,-0.15625 0.5599,-0.390625 0.32552,-0.247396 0.79427,-0.611979 z" />
    <path
       id="path21"
       style=""
       d="m 217.44736,21.873128 q -0.40364,0.364583 -0.70312,0.611979 -0.28646,0.234375 -0.5599,0.390625 -0.27343,0.143229 -0.58593,0.208333 -0.29948,0.05208 -0.70313,0.05208 -0.0781,0 -0.15625,0 -0.0781,0 -0.16927,-0.01302 -1.69271,2.005208 -2.96875,2.005208 -0.80729,0 -1.15885,-0.481771 -0.35157,-0.494792 -0.35157,-1.302083 0,-0.859375 0.35157,-1.901042 0.35156,-1.054687 0.95052,-2.200521 0.66406,-1.276041 1.15885,-2.35677 -1.52344,1.848958 -2.63021,3.151041 -1.10677,1.289063 -1.88802,2.083334 v -0.911459 q 0.66406,-0.729166 1.25,-1.458333 0.59896,-0.742188 1.10677,-1.445313 0.52084,-0.703125 0.97657,-1.341145 0.45572,-0.638021 0.84635,-1.171875 0.2474,-0.338542 0.46875,-0.585938 0.22135,-0.247396 0.44271,-0.403646 0.22135,-0.15625 0.45573,-0.221354 0.24739,-0.07813 0.54687,-0.07813 0.0651,0 0.23438,0.130209 0.18229,0.117187 0.36458,0.286458 0.18229,0.169271 0.32552,0.338542 0.14323,0.16927 0.14323,0.247395 0,0.14323 -0.0391,0.260417 -0.026,0.117188 -0.11719,0.273438 -0.0781,0.156249 -0.2474,0.390624 -0.16927,0.234375 -0.4427,0.61198 -0.0911,0.130208 -0.37761,0.533854 -0.27344,0.390625 -0.65104,0.9375 -0.3776,0.546875 -0.79427,1.197916 -0.40365,0.638021 -0.75521,1.263021 -0.33854,0.611979 -0.57292,1.145834 -0.22135,0.520833 -0.22135,0.833333 0,0.234375 0.0781,0.3125 0.0781,0.07813 0.26041,0.07813 0.625,0 1.14584,-0.234375 0.53385,-0.247396 1.18489,-0.729167 -0.15625,-0.625 -0.15625,-1.145833 0,-0.104167 0.026,-0.364583 0.026,-0.260417 0.0911,-0.572917 0.0781,-0.325521 0.20833,-0.664063 0.13021,-0.351562 0.35156,-0.63802 0.22136,-0.286459 0.53386,-0.46875 0.3125,-0.182292 0.75521,-0.182292 0.45573,0 0.70312,0.169271 0.2474,0.15625 0.2474,0.611979 0,0.546875 -0.26042,1.171875 -0.24739,0.625 -0.6901,1.367187 0.026,0.104167 0.10416,0.169271 0.0911,0.0651 0.32552,0.0651 0.16928,0 0.29948,-0.03906 0.13021,-0.03906 0.28646,-0.130208 0.15625,-0.104167 0.37761,-0.273438 0.23437,-0.182292 0.59895,-0.455729 z" />
    <path
       id="path23"
       style=""
       d="m 242.36924,21.925211 q -1.71875,1.848958 -2.85157,2.786458 -1.13281,0.924479 -1.79687,0.924479 -0.50781,0 -0.89844,-0.182291 -0.39062,-0.169271 -0.66406,-0.481771 -0.26042,-0.3125 -0.40365,-0.742188 -0.1302,-0.442708 -0.1302,-0.963541 0,-0.260417 0.026,-0.520833 0.0391,-0.273438 0.11718,-0.572917 -0.76822,0.585937 -1.3151,1.067708 -0.53385,0.481771 -0.96354,0.976563 -0.41667,0.494791 -0.76823,1.054687 -0.33854,0.559896 -0.70313,1.276042 -0.0781,0.234375 -0.29947,0.481771 -0.22136,0.247395 -0.50782,0.442708 -0.28646,0.208333 -0.58593,0.325521 -0.29948,0.130208 -0.53386,0.130208 -0.16927,0 -0.28646,-0.09115 -0.10416,-0.07813 -0.10416,-0.273437 0,-0.195313 0.16927,-0.598959 0.16927,-0.390625 0.39062,-0.872395 0.23438,-0.481771 0.46875,-1.002605 0.2474,-0.520833 0.39063,-0.976562 0.13021,-0.403646 0.29948,-0.859375 0.16927,-0.455729 0.35156,-0.924479 0.19531,-0.481771 0.3776,-0.963542 0.19532,-0.481771 0.37761,-0.9375 -0.22136,0.195313 -0.46875,0.442709 -0.2474,0.234375 -0.49479,0.48177 -0.23438,0.234375 -0.45573,0.45573 -0.22136,0.208333 -0.37761,0.364583 -0.66406,0.625 -1.35416,1.25 -0.69011,0.625 -1.32813,1.119791 -0.63802,0.481771 -1.17187,0.78125 -0.52084,0.3125 -0.84636,0.3125 -0.26042,0 -0.54687,-0.208333 -0.28646,-0.195312 -0.53386,-0.572917 -0.23437,-0.390625 -0.39062,-0.95052 -0.15625,-0.559896 -0.15625,-1.263021 0,-0.338542 0.0781,-0.651042 0.0651,-0.3125 0.22136,-0.546875 0.15625,-0.234375 0.40364,-0.377604 0.2474,-0.143229 0.61198,-0.143229 0.32552,0 0.32552,0.377604 0,0.221354 -0.026,0.390625 -0.013,0.169271 -0.013,0.338542 0,0.247396 0.0521,0.481771 0.0651,0.234375 0.19532,0.429687 0.14322,0.182292 0.36458,0.299479 0.23437,0.104167 0.57292,0.104167 0.23437,0 0.625,-0.247396 0.39062,-0.247396 0.83333,-0.651042 0.44271,-0.403645 0.89844,-0.924479 0.46875,-0.520833 0.83333,-1.054687 0.36458,-0.546875 0.59896,-1.067709 0.23437,-0.520833 0.23437,-0.924479 0,-0.481771 -0.0911,-0.611979 -0.0781,-0.143229 -0.29948,-0.143229 -0.27344,0 -0.65104,0.15625 -0.36459,0.15625 -0.76823,0.390625 -0.40365,0.221354 -0.82032,0.494792 -0.40364,0.273437 -0.7552,0.507812 -0.33855,0.221354 -0.58594,0.377604 -0.2474,0.15625 -0.32552,0.15625 -0.18229,0 -0.33854,-0.143229 -0.15625,-0.15625 -0.27344,-0.377604 -0.10417,-0.234375 -0.16927,-0.494792 -0.0521,-0.273437 -0.0521,-0.507812 0,-0.260417 0.10417,-0.481771 0.10417,-0.234375 0.33854,-0.403646 0.57292,-0.390625 1.21094,-0.690104 0.63802,-0.299479 1.27604,-0.494792 0.63802,-0.208333 1.22396,-0.3125 0.59896,-0.104166 1.08073,-0.104166 0.54687,0 0.83333,0.325521 0.28646,0.312499 0.28646,1.210937 0,0.664062 -0.27344,1.276042 -0.27343,0.598958 -0.59895,1.25 l 0.0781,0.09115 q 0.22135,-0.15625 0.52083,-0.429687 0.29948,-0.286458 0.58594,-0.585938 0.29948,-0.3125 0.53386,-0.585937 0.23437,-0.286458 0.32552,-0.442708 0.29948,-0.546875 0.55989,-1.054688 0.26042,-0.520833 0.49479,-0.924479 0.23438,-0.403646 0.44271,-0.664062 0.20834,-0.260417 0.42969,-0.29948 0.49479,-0.104166 0.78125,-0.130208 0.28646,-0.03906 0.59896,-0.03906 0.44271,0 0.44271,0.338541 0,0.143229 -0.19532,0.429688 -0.19531,0.286458 -0.42968,0.559896 -0.0781,0.09114 -0.28646,0.48177 -0.20834,0.390625 -0.49479,0.976563 -0.28646,0.585937 -0.63802,1.315104 -0.33855,0.716146 -0.67709,1.471354 -0.33854,0.742188 -0.65104,1.458333 -0.3125,0.716146 -0.53385,1.289063 l 0.0911,0.02604 q 0.28646,-0.377605 0.63802,-0.76823 0.36459,-0.390625 0.72917,-0.742187 0.36458,-0.364583 0.67708,-0.664063 0.3125,-0.299479 0.49479,-0.48177 0.625,-0.820313 1.28907,-1.497396 0.67708,-0.690104 1.28906,-1.171875 0.625,-0.494792 1.13281,-0.768229 0.50781,-0.273438 0.82031,-0.273438 0.32553,0 0.5599,0.325521 0.23438,0.325521 0.23438,0.820312 0,0.29948 -0.14323,0.677084 -0.14323,0.377604 -0.41667,0.716146 -0.27344,0.338541 -0.66406,0.572916 -0.37761,0.234375 -0.85938,0.234375 -0.14323,0 -0.29948,-0.01302 -0.15625,-0.02604 -0.3125,-0.09115 -0.0391,-0.01302 -0.0781,-0.01302 -0.026,-0.01302 -0.0651,-0.01302 -0.24739,0 -0.55989,0.286458 -0.3125,0.286459 -0.59896,0.690104 -0.27344,0.390625 -0.46875,0.807292 -0.18229,0.416667 -0.18229,0.664063 0,0.338541 0.13021,0.559895 0.14323,0.208334 0.36458,0.325521 0.22135,0.117188 0.50781,0.169271 0.29948,0.03906 0.59896,0.03906 0.70313,0 1.67969,-0.572916 0.98958,-0.585938 2.33073,-1.901042 z" />
    <path
       id="path25"
       style=""
       d="m 244.42653,21.495524 v 0.32552 q 0,0.76823 0.37761,1.197917 0.3776,0.429687 0.98958,0.429687 0.63802,0 1.3151,-0.299479 0.69011,-0.299479 1.36719,-0.79427 0.67708,-0.494792 1.65365,-1.328125 v 0.79427 q -1.47136,1.770834 -2.76042,2.721354 -1.28906,0.9375 -2.61719,0.9375 -1.15885,0 -1.83594,-0.898437 -0.67708,-0.898438 -0.67708,-2.460937 0,-1.367188 0.63802,-2.473959 0.63802,-1.119791 2.08334,-2.356771 0.98958,-0.846354 1.96614,-1.276041 0.97656,-0.429688 1.74479,-0.429688 0.61198,0 0.96354,0.286459 0.36459,0.273437 0.36459,0.833333 0,0.820312 -0.61198,1.640625 -0.61198,0.807292 -1.875,1.614583 -1.25,0.794271 -3.08594,1.536459 z m 0.13021,-0.846355 q 1.17187,-0.455729 2.00521,-1.132812 0.83333,-0.677083 1.22396,-1.289063 0.40364,-0.625 0.40364,-0.911458 0,-0.299479 -0.27344,-0.299479 -0.23437,0 -0.76822,0.299479 -0.52084,0.299479 -1.06771,0.78125 -0.53386,0.481771 -0.96354,1.132813 -0.42969,0.651041 -0.5599,1.41927 z" />
    <path
       id="path27"
       style=""
       d="m 259.73903,21.495524 v 0.32552 q 0,0.76823 0.37761,1.197917 0.3776,0.429687 0.98958,0.429687 0.63802,0 1.3151,-0.299479 0.69011,-0.299479 1.36719,-0.79427 0.67708,-0.494792 1.65365,-1.328125 v 0.79427 q -1.47136,1.770834 -2.76042,2.721354 -1.28906,0.9375 -2.61719,0.9375 -1.15885,0 -1.83594,-0.898437 -0.67708,-0.898438 -0.67708,-2.460937 0,-1.367188 0.63802,-2.473959 0.63802,-1.119791 2.08334,-2.356771 0.98958,-0.846354 1.96614,-1.276041 0.97656,-0.429688 1.74479,-0.429688 0.61198,0 0.96354,0.286459 0.36459,0.273437 0.36459,0.833333 0,0.820312 -0.61198,1.640625 -0.61198,0.807292 -1.875,1.614583 -1.25,0.794271 -3.08594,1.536459 z m 0.13021,-0.846355 q 1.17187,-0.455729 2.00521,-1.132812 0.83333,-0.677083 1.22396,-1.289063 0.40364,-0.625 0.40364,-0.911458 0,-0.299479 -0.27344,-0.299479 -0.23437,0 -0.76822,0.299479 -0.52084,0.299479 -1.06771,0.78125 -0.53386,0.481771 -0.96354,1.132813 -0.42969,0.651041 -0.5599,1.41927 z" />
    <path
       id="path29"
       style=""
       d="m 277.77289,22.420003 q 0,0.234375 0.0651,0.429687 0.0781,0.182292 0.26042,0.299479 0.23437,-0.09115 0.55989,-0.3125 0.33854,-0.234375 0.65104,-0.455729 0.29948,-0.221354 0.75521,-0.533854 0.45573,-0.325521 1.11979,-0.846354 v 0.872396 q -0.66406,0.598958 -1.30208,1.184896 -0.63802,0.585937 -1.3151,1.171874 0.0391,0.117188 0.0651,0.29948 0.0391,0.16927 0.0391,0.364583 0,0.9375 -0.75521,1.666667 -0.7552,0.729166 -2.21354,1.471354 -0.0391,0.02604 -0.22135,0.07813 -0.16927,0.0651 -0.42969,0.117187 -0.24739,0.0651 -0.54687,0.104167 -0.28646,0.05208 -0.5599,0.05208 -0.98958,0 -0.98958,-0.664062 0,-0.3125 0.22135,-0.625 0.22136,-0.3125 0.5599,-0.611979 0.33854,-0.29948 0.75521,-0.585938 0.41666,-0.273437 0.80729,-0.520833 0.39062,-0.234375 0.70312,-0.429688 0.3125,-0.208333 0.44271,-0.338541 -0.29948,-0.234375 -0.50781,-0.572917 -0.20834,-0.338542 -0.20834,-0.755208 0,-0.247396 0.0651,-0.533854 0.0651,-0.29948 0.20833,-0.664063 0.15625,-0.377604 0.39063,-0.846354 0.23437,-0.481771 0.57291,-1.09375 -0.95052,1.276042 -1.65364,2.096354 -0.70313,0.820313 -1.22396,1.302083 -0.52083,0.481771 -0.91146,0.677084 -0.3776,0.182291 -0.6901,0.182291 -0.66407,0 -1.04167,-0.559896 -0.3776,-0.559895 -0.3776,-1.536458 0,-0.559896 0.14323,-1.09375 0.14322,-0.546875 0.3776,-1.067708 -0.95052,1.263021 -1.70573,2.148437 -0.74219,0.885417 -1.3151,1.445313 -0.57292,0.559896 -1.00261,0.820312 -0.42969,0.247396 -0.74219,0.247396 -0.3776,0 -0.66406,-0.234375 -0.27344,-0.247396 -0.46875,-0.585937 -0.18229,-0.351563 -0.28646,-0.742188 -0.0911,-0.403646 -0.0911,-0.716146 0,-0.755208 0.10416,-1.354166 0.11719,-0.598959 0.37761,-1.171875 0.27344,-0.572917 0.71614,-1.171875 0.44271,-0.598959 1.10678,-1.354167 l 0.65104,-0.768229 q 0.14323,-0.169271 0.26041,-0.273438 0.13021,-0.104166 0.27344,-0.15625 0.15625,-0.0651 0.35156,-0.07813 0.19532,-0.02604 0.46875,-0.02604 0.50782,0 0.83334,0.143229 0.33854,0.130208 0.33854,0.273437 -0.0521,0.234375 -0.32552,0.664063 -0.27344,0.429687 -0.72917,0.976562 -0.45573,0.533855 -1.10677,1.145834 -0.63802,0.598958 -1.43229,1.197916 -0.11719,0.403646 -0.18229,0.690105 -0.0651,0.286458 -0.0651,0.507812 0,0.533854 0.42969,0.533854 0.11719,0 0.3125,-0.09115 0.20833,-0.104166 0.58594,-0.390625 0.3776,-0.286458 0.95052,-0.79427 0.58594,-0.520834 1.45833,-1.367188 0.42969,-0.416667 0.80729,-0.898437 0.37761,-0.494792 0.72917,-0.911459 0.36458,-0.416666 0.72917,-0.690104 0.3776,-0.273437 0.80729,-0.273437 0.13021,0 0.23437,0.09115 0.11719,0.07813 0.20834,0.221355 0.0911,0.130208 0.14323,0.299479 0.0521,0.15625 0.0521,0.325521 0,0.195312 -0.13021,0.455729 -0.11719,0.247396 -0.29948,0.520833 -0.16927,0.273438 -0.3776,0.533854 -0.19531,0.260417 -0.35156,0.46875 -0.40365,0.546875 -0.61198,1.067709 -0.20834,0.520833 -0.20834,0.911458 0,0.572917 0.39063,0.572917 0.14323,0 0.29948,-0.0651 0.16927,-0.0651 0.32552,-0.15625 0.15625,-0.104166 0.29948,-0.208333 0.14323,-0.117187 0.26041,-0.221354 0.8073,-0.729167 1.38021,-1.341146 0.57292,-0.611979 0.82031,-0.872396 0.53386,-0.546875 0.91146,-0.729166 0.37761,-0.182292 0.74219,-0.182292 0.10417,0 0.19531,0.117187 0.10417,0.117188 0.16927,0.286459 0.0781,0.15625 0.11719,0.325521 0.0521,0.16927 0.0521,0.260416 0,0.195313 -0.10416,0.533854 -0.0912,0.338542 -0.20834,0.742188 -0.10416,0.390625 -0.20833,0.807292 -0.0911,0.416666 -0.0911,0.768229 z m -0.85938,3.020833 q -0.22135,0.234375 -0.48177,0.416667 -0.26042,0.195312 -0.48177,0.338541 -0.22136,0.15625 -0.37761,0.273438 -0.14322,0.130208 -0.14322,0.234375 0,0.0651 0.0391,0.117187 0.0521,0.05208 0.22135,0.05208 0.18229,0 0.36459,-0.15625 0.19531,-0.14323 0.35156,-0.364584 0.16927,-0.208333 0.29948,-0.455729 0.13021,-0.247396 0.20833,-0.455729 z" />
    <path
       id="path31"
       style=""
       d="m 283.22862,21.495524 v 0.32552 q 0,0.76823 0.3776,1.197917 0.37761,0.429687 0.98958,0.429687 0.63803,0 1.31511,-0.299479 0.6901,-0.299479 1.36719,-0.79427 0.67708,-0.494792 1.65364,-1.328125 v 0.79427 q -1.47135,1.770834 -2.76041,2.721354 -1.28907,0.9375 -2.61719,0.9375 -1.15886,0 -1.83594,-0.898437 -0.67708,-0.898438 -0.67708,-2.460937 0,-1.367188 0.63802,-2.473959 0.63802,-1.119791 2.08333,-2.356771 0.98958,-0.846354 1.96615,-1.276041 0.97656,-0.429688 1.74479,-0.429688 0.61198,0 0.96354,0.286459 0.36458,0.273437 0.36458,0.833333 0,0.820312 -0.61198,1.640625 -0.61197,0.807292 -1.875,1.614583 -1.25,0.794271 -3.08593,1.536459 z m 0.13021,-0.846355 q 1.17187,-0.455729 2.0052,-1.132812 0.83334,-0.677083 1.22396,-1.289063 0.40365,-0.625 0.40365,-0.911458 0,-0.299479 -0.27344,-0.299479 -0.23437,0 -0.76823,0.299479 -0.52083,0.299479 -1.06771,0.78125 -0.53385,0.481771 -0.96354,1.132813 -0.42969,0.651041 -0.55989,1.41927 z m 2.03125,-6.015624 q -0.3125,0 -0.50782,-0.195313 -0.19531,-0.195312 -0.19531,-0.507812 0,-0.221355 0.3125,-0.820313 0.3125,-0.611979 0.75521,-1.09375 0.45573,-0.481771 0.91146,-0.481771 0.33854,0 0.53385,0.195313 0.20833,0.182291 0.20833,0.520833 0,0.559896 -0.71614,1.471354 -0.71615,0.911459 -1.30208,0.911459 z m 3.69791,0 q -0.27344,0 -0.48177,-0.169271 -0.20833,-0.169271 -0.20833,-0.416667 0,-0.286458 0.32552,-0.898437 0.33854,-0.625 0.79427,-1.119792 0.46875,-0.494792 0.88542,-0.494792 0.26041,0 0.4427,0.182292 0.19532,0.169271 0.19532,0.455729 0,0.585938 -0.65104,1.523438 -0.63803,0.9375 -1.30209,0.9375 z" />
    <path
       id="path33"
       style=""
       d="m 301.06716,20.453857 q -0.33854,0 -0.88542,0.03906 -0.54687,0.02604 -1.05469,0.0651 l -1.25,0.104166 q -0.14322,0 -0.18229,-0.02604 -0.0391,-0.02604 -0.0391,-0.130209 0,-0.15625 0.18229,-0.481771 0.19531,-0.338541 0.49479,-0.651041 0.37761,-0.377604 1.02865,-0.481771 0.65104,-0.117188 1.66667,-0.117188 0.29948,0 0.65104,0.01302 0.35156,0.01302 0.70312,0.03906 0.13021,-0.299479 0.20834,-0.546875 0.0781,-0.260417 0.0781,-0.481771 0,-0.481771 -0.0911,-0.611979 -0.0781,-0.143229 -0.29948,-0.143229 -0.27344,0 -0.63802,0.104166 -0.36459,0.09115 -0.76823,0.234375 -0.39063,0.130209 -0.79427,0.299479 -0.39063,0.169271 -0.72917,0.3125 -0.33854,0.130209 -0.58594,0.234375 -0.23437,0.09115 -0.3125,0.09115 -0.54687,0 -0.74219,-0.130208 -0.18229,-0.143229 -0.18229,-0.442708 0,-0.260417 0.10417,-0.481771 0.10417,-0.234375 0.33854,-0.403646 0.57292,-0.390625 1.21094,-0.690104 0.63802,-0.3125 1.27604,-0.520833 0.63802,-0.221355 1.22396,-0.325521 0.59896,-0.117188 1.08073,-0.117188 0.54687,0 0.83333,0.351563 0.28646,0.338541 0.28646,1.236979 0,0.559896 -0.16927,1.119791 -0.15625,0.546875 -0.33854,1.041667 0.26041,0.05208 0.41666,0.117188 0.16927,0.05208 0.16927,0.117187 -0.013,0.104167 -0.0521,0.247396 -0.026,0.143229 -0.11719,0.286458 -0.24739,0.416667 -0.42968,0.611979 -0.1823,0.182292 -0.37761,0.182292 h -0.3125 q -0.26042,0.494792 -0.53385,0.950521 -0.27344,0.455729 -0.53386,0.859375 h 0.32552 q 0.70313,0 1.39323,-0.377604 0.69011,-0.390625 1.35417,-0.976563 v 0.898438 q -0.32552,0.338541 -0.70313,0.690104 -0.3776,0.351562 -0.80729,0.638021 -0.41666,0.273437 -0.88541,0.455729 -0.45573,0.182291 -0.95052,0.182291 -0.28646,0 -0.45573,-0.05208 -0.15625,-0.0651 -0.26042,-0.169271 -0.46875,0.507813 -0.97656,0.911459 -0.50782,0.390625 -0.97657,0.664062 -0.46875,0.273438 -0.87239,0.416667 -0.40365,0.15625 -0.65104,0.15625 -0.27344,0 -0.5599,-0.208334 -0.28646,-0.208333 -0.52083,-0.585937 -0.2474,-0.390625 -0.39063,-0.9375 -0.15625,-0.559896 -0.15625,-1.263021 0,-0.338541 0.0781,-0.651041 0.0651,-0.3125 0.22135,-0.546875 0.15625,-0.234375 0.40365,-0.377605 0.24739,-0.143229 0.61198,-0.143229 0.32552,0 0.32552,0.377604 0,0.221355 -0.026,0.390625 -0.013,0.169271 -0.013,0.338542 0,0.247396 0.0521,0.481771 0.0651,0.234375 0.19531,0.429687 0.14323,0.182292 0.36458,0.299479 0.23438,0.104167 0.57292,0.104167 0.20833,0 0.57292,-0.247396 0.36458,-0.260416 0.79427,-0.677083 0.42969,-0.429687 0.88542,-0.976562 0.46875,-0.546875 0.87239,-1.119792 z" />
    <path
       id="path35"
       style=""
       d="m 310.5333,22.810628 q 1.79688,-1.588542 3.08594,-2.760417 1.28906,-1.184896 2.01823,-1.861979 0.74219,-0.677083 1.30208,-1.145833 0.5599,-0.46875 0.71615,-0.46875 0.29948,-0.01302 0.57292,0.625 0.27343,0.625 0.27343,1.002604 0,0.247396 -0.83333,1.171875 -0.82031,0.911458 -1.23698,1.458333 -0.40364,0.546875 -0.40364,1.145833 0,0.351563 0.23437,0.572917 0.23438,0.208333 0.5599,0.208333 0.3776,0 0.89843,-0.390625 0.53386,-0.390625 1.66667,-1.393229 v 0.924479 q -1.13281,1.067709 -2.05729,1.848959 -0.92448,0.768229 -1.61458,1.158854 -0.67709,0.377604 -1.13282,0.377604 -0.40364,0 -0.67708,-0.299479 -0.27344,-0.3125 -0.27344,-0.768229 0,-0.442709 0.15625,-0.898438 0.15625,-0.455729 0.48177,-1.080729 0.32552,-0.625 0.85938,-1.497396 0.53385,-0.885416 0.97656,-1.614583 -1.32812,1.080729 -2.35677,2.083333 -1.02865,1.002604 -1.67969,1.757813 -0.65104,0.742187 -1.02864,1.171875 -0.72917,0.807291 -1.35417,0.807291 -0.67708,0 -0.67708,-0.963541 0,-0.390625 0.50781,-1.393229 0.50781,-1.015625 1.44531,-2.578125 0.0781,-0.104167 0.0781,-0.325521 0,-0.260417 -0.26042,-0.260417 -0.28646,0 -0.83333,0.546875 -0.53386,0.533854 -2.08334,2.252604 -0.42968,0.481771 -0.97656,1.263021 -0.53385,0.768229 -0.76823,1.028646 -0.23437,0.260416 -0.46875,0.260416 -0.46875,0 -0.87239,-0.833333 -0.40365,-0.833333 -0.40365,-1.940104 0,-0.807292 0.26042,-1.393229 0.27343,-0.585938 0.83333,-1.458333 0.8724,-1.263021 1.41927,-1.796875 0.5599,-0.546875 1.17188,-0.546875 0.3776,0 0.63802,0.15625 0.26041,0.143229 0.26041,0.403645 0,0.273438 -0.48177,0.898438 -0.46875,0.625 -1.19791,1.289062 -0.39063,0.377605 -0.74219,0.9375 -0.35156,0.546875 -0.35156,0.794271 0,0.351563 0.27343,0.351563 0.22136,0 1.1198,-0.911459 0.89843,-0.911458 1.96614,-1.979166 1.08073,-1.080729 1.99219,-1.783854 0.92448,-0.716146 1.5625,-0.716146 0.39062,0 0.63802,0.299479 0.26042,0.286458 0.26042,0.716146 0,0.286458 -0.39063,1.041666 -0.39062,0.742188 -1.14583,1.848959 -0.74219,1.09375 -1.92709,2.65625 z" />
    <path
       id="path37"
       style=""
       d="m 325.45517,20.141357 q -1.88802,2.5 -2.8776,3.554687 -0.97656,1.054688 -1.60156,1.054688 -0.49479,0 -0.91146,-0.403646 -0.41667,-0.416667 -0.65104,-1.106771 -0.22136,-0.703125 -0.22136,-1.497396 0,-0.520833 0.0911,-0.9375 0.10417,-0.416666 0.3776,-0.911458 0.27344,-0.507812 0.71615,-1.09375 0.45573,-0.585937 1.10677,-1.328125 0.39063,-0.455729 0.65104,-0.768229 0.27344,-0.3125 0.52084,-0.416667 0.26041,-0.117187 0.83333,-0.117187 0.41667,0 0.79427,0.117187 0.3776,0.104167 0.3776,0.221354 0,0.234375 -0.39062,0.846355 -0.37761,0.611979 -1.23698,1.497395 -0.84635,0.872396 -1.96615,1.71875 -0.24739,0.76823 -0.24739,1.171875 0,0.559896 0.42969,0.559896 0.15625,0 0.52083,-0.260416 0.36458,-0.273438 1.22396,-1.028646 0.87239,-0.768229 1.5625,-1.354167 0.50781,-0.442708 1.17187,-1.315104 0.67709,-0.885417 1.09375,-1.328125 0.96354,-1.015625 1.31511,-1.315104 0.35156,-0.3125 0.67708,-0.3125 0.3125,0 0.41667,0.195312 0.11718,0.195313 0.11718,0.794271 0,0.273438 -0.0521,0.442708 -0.0521,0.169271 -0.22135,0.442709 -0.15625,0.260416 -0.65105,0.976562 -0.49479,0.716146 -1.17187,1.692709 -0.36458,0.520833 -0.63802,1.145833 -0.27344,0.611979 -0.27344,0.924479 0,0.677083 0.53386,0.677083 0.4427,0 1.02864,-0.364583 0.58594,-0.364583 1.79688,-1.315104 v 0.872396 q -1.52344,1.40625 -2.25261,2.04427 -0.72916,0.638021 -1.26302,0.963542 -0.53385,0.325521 -1.01562,0.325521 -1.09375,0 -1.09375,-1.302083 0,-0.494792 0.32552,-1.328125 0.32552,-0.846354 1.05468,-2.434896 z" />
    <path
       id="path39"
       style=""
       d="m 332.14789,21.026774 v -3.072917 q -0.48177,0.117187 -0.92448,0.416667 -0.42969,0.299479 -0.92448,0.742187 -0.48177,0.442708 -0.59896,0.442708 -0.14323,0 -0.14323,-0.377604 0,-0.377604 0.76823,-1.328125 0.78125,-0.963541 1.71875,-1.770833 0.9375,-0.820312 1.35417,-0.820312 0.24739,0 0.42969,0.286458 0.18229,0.286458 0.18229,0.78125 0,0.325521 -0.013,0.598958 -0.013,0.273438 -0.026,0.729167 -0.013,0.455729 -0.0391,1.315104 2.87761,-3.072917 3.41146,-3.072917 0.15625,0 0.2474,0.130209 0.10416,0.117187 0.10416,0.299479 0,0.429687 -0.70312,1.328125 -0.69011,0.885416 -0.92448,0.885416 -0.32552,0 -0.50781,-0.104166 l -1.65365,2.109375 q 0.026,1.145833 0.19531,1.705729 0.18229,0.559896 0.63802,0.559896 0.39063,0 0.91146,-0.390625 0.52084,-0.390625 1.69271,-1.445313 v 0.898438 q -2.66927,3.684895 -3.77604,3.684895 -0.69011,0 -0.98958,-0.729166 -0.28646,-0.729167 -0.37761,-2.239583 -0.45573,0.46875 -1.06771,1.132812 -0.61198,0.664062 -0.89843,0.950521 -0.27344,0.273437 -0.50782,0.455729 -0.22135,0.182292 -0.40364,0.182292 -0.18229,0 -0.18229,-0.3125 0,-0.520834 0.54687,-1.432292 0.5599,-0.911458 0.80729,-0.911458 0.026,0 0.11719,0.02604 0.0912,0.02604 0.0912,0.02604 z" />
    <path
       id="path41"
       style=""
       d="m 175.72862,55.206464 q -0.9375,0.924479 -1.62761,1.57552 -0.6901,0.651042 -1.21093,1.067709 -0.52084,0.416666 -0.91146,0.611979 -0.37761,0.182291 -0.70313,0.182291 -0.46875,0 -0.78125,-0.3125 -0.29948,-0.312499 -0.29948,-0.976562 0,-0.494792 0.2474,-1.210937 0.24739,-0.716146 0.87239,-1.744792 0.19532,-0.3125 0.44271,-0.742188 0.26042,-0.429687 0.50782,-0.859375 0.24739,-0.442708 0.42968,-0.820312 0.18229,-0.377604 0.22136,-0.572917 -0.76823,0.533854 -1.36719,1.119792 -0.58594,0.572917 -1.22396,1.210937 -0.66406,0.651042 -1.3151,1.328125 -0.65104,0.664063 -1.23698,1.328125 -0.83334,0.9375 -1.34115,1.419271 -0.50781,0.46875 -0.95052,0.46875 -0.27344,0 -0.48177,-0.208333 -0.20833,-0.208333 -0.20833,-0.611979 0,-0.286459 0.20833,-0.885417 0.20833,-0.611979 0.58594,-1.40625 0.19531,-0.416667 0.36458,-0.755208 0.16927,-0.351563 0.32552,-0.742188 0.15625,-0.390625 0.29948,-0.872396 0.14323,-0.48177 0.28646,-1.171875 -0.26042,0.3125 -0.45573,0.572917 -0.19531,0.260417 -0.3776,0.507813 -0.1823,0.247395 -0.39063,0.507812 -0.19531,0.247396 -0.45573,0.546875 -0.75521,0.859375 -1.49739,1.666667 -0.74219,0.794271 -1.32813,1.380208 -0.33854,0.338542 -0.58594,0.572917 -0.24739,0.234375 -0.4427,0.377604 -0.1823,0.143229 -0.33855,0.208333 -0.14323,0.0651 -0.27343,0.0651 -0.20834,0 -0.41667,-0.247395 -0.19531,-0.247396 -0.35156,-0.651042 -0.15625,-0.416667 -0.26042,-0.924479 -0.0911,-0.507813 -0.0911,-1.041667 0,-0.351562 0.0781,-0.729167 0.0911,-0.390625 0.27344,-0.703125 0.19531,-0.3125 0.49479,-0.520833 0.29948,-0.208333 0.71614,-0.208333 0.37761,0 0.63803,0.130208 0.26041,0.130208 0.26041,0.416667 0,0.130208 -0.10416,0.273437 -0.0911,0.143229 -0.20834,0.286459 -0.11719,0.130208 -0.22135,0.260416 -0.10417,0.130209 -0.11719,0.234375 -0.013,0.01302 -0.013,0.130209 0,0.221354 0.13021,0.3125 0.14323,0.07813 0.24739,0.07813 0.10417,0 0.59896,-0.46875 0.49479,-0.46875 1.22396,-1.23698 0.74219,-0.78125 1.45833,-1.770833 0.72917,-0.989583 1.62761,-2.096354 0.19531,-0.234375 0.3776,-0.442708 0.19531,-0.208334 0.40365,-0.364584 0.20833,-0.15625 0.45573,-0.247395 0.24739,-0.09115 0.57291,-0.09115 0.0911,0 0.26042,0.182291 0.18229,0.169271 0.35156,0.442709 0.18229,0.273437 0.3125,0.585937 0.13021,0.3125 0.13021,0.585938 0,0.195312 -0.0521,0.377604 -0.0521,0.182292 -0.15625,0.442708 -0.29948,0.742188 -0.70313,1.380208 -0.39062,0.638021 -0.72916,1.23698 -0.33855,0.585937 -0.76823,1.210937 -0.41667,0.625 -0.80729,1.289063 0.89843,-0.794271 1.64062,-1.536459 0.74219,-0.755208 1.40625,-1.484375 0.66406,-0.729166 1.27604,-1.458333 0.625,-0.742187 1.27604,-1.510417 0.19532,-0.234375 0.37761,-0.442708 0.19531,-0.208333 0.40364,-0.364583 0.20834,-0.15625 0.45573,-0.247396 0.2474,-0.09115 0.57292,-0.09115 0.0911,0 0.26042,0.182292 0.18229,0.182291 0.35156,0.455729 0.18229,0.260417 0.3125,0.585937 0.14323,0.3125 0.14323,0.585938 0,0.195312 -0.0781,0.364583 -0.0651,0.169271 -0.20833,0.442708 -0.33854,0.651042 -0.6901,1.223959 -0.35157,0.572916 -0.65105,1.041666 -0.28645,0.46875 -0.49479,0.833334 -0.20833,0.364583 -0.26041,0.598958 -0.0391,0.15625 -0.0391,0.273438 0,0.260416 0.13021,0.390625 0.13021,0.130208 0.33854,0.130208 0.19532,0 0.41667,-0.09115 0.23437,-0.09115 0.5599,-0.299479 0.32552,-0.221354 0.78125,-0.559896 0.46875,-0.351562 1.11979,-0.859375 z" />
    <path
       id="path43"
       style=""
       d="m 186.62705,56.183026 q -0.18229,0.182292 -0.41666,0.390625 -0.22136,0.195313 -0.57292,0.416667 -0.3776,0.247396 -0.87239,0.390625 -0.4948,0.130208 -0.9375,0.130208 -0.45573,0 -0.83334,-0.09115 -0.3776,-0.09115 -0.65104,-0.3125 -0.27344,-0.221354 -0.42969,-0.598958 -0.15625,-0.390625 -0.15625,-0.963542 0,-0.104166 0.026,-0.273437 0.026,-0.182292 0.0651,-0.286459 -0.3125,0.351563 -0.72917,0.742188 -0.41666,0.390625 -0.88541,0.78125 -0.45573,0.377604 -0.9375,0.729167 -0.46875,0.338541 -0.91146,0.611979 -0.42969,0.260416 -0.79427,0.416666 -0.36459,0.15625 -0.58594,0.15625 -0.41667,0 -0.78125,-0.130208 -0.35156,-0.143229 -0.625,-0.429687 -0.26042,-0.286459 -0.40365,-0.729167 -0.15625,-0.442708 -0.15625,-1.054688 0,-0.286458 0.0781,-0.651041 0.0651,-0.377604 0.23437,-0.703125 0.15625,-0.338542 0.42969,-0.559896 0.28646,-0.234375 0.70313,-0.234375 0.18229,0 0.36458,0.117187 0.18229,0.104167 0.18229,0.286459 0,0.299479 -0.13021,0.598958 -0.11719,0.286458 -0.11719,0.546875 0,0.585938 0.1823,0.846354 0.19531,0.247396 0.36458,0.247396 0.23437,0 0.59896,-0.15625 0.36458,-0.15625 0.75521,-0.390625 0.40364,-0.247396 0.78125,-0.533854 0.39062,-0.286458 0.66406,-0.546875 V 54.84188 q -0.44271,0.104167 -0.76823,0.104167 -0.22135,0 -0.50781,-0.15625 -0.27344,-0.15625 -0.53386,-0.390625 -0.24739,-0.234375 -0.42968,-0.520833 -0.16928,-0.286459 -0.16928,-0.546875 0,-0.416667 0.10417,-0.716146 0.11719,-0.3125 0.42969,-0.677084 0.26042,-0.299479 0.70312,-0.651041 0.44271,-0.351563 0.98959,-0.690104 0.54687,-0.338542 1.14583,-0.651042 0.61198,-0.3125 1.19792,-0.546875 0.59896,-0.247396 1.13281,-0.390625 0.54687,-0.143229 0.96354,-0.143229 0.27344,0 0.52083,0.390625 0.2474,0.377604 0.2474,1.041667 0,0.15625 -0.026,0.3125 -0.013,0.15625 -0.0391,0.338541 0.0781,-0.104166 0.19531,-0.260416 0.13021,-0.15625 0.26042,-0.29948 0.1302,-0.143229 0.26041,-0.234375 0.13021,-0.104166 0.23438,-0.104166 0.0651,0 0.14323,0.0651 0.0911,0.0651 0.15625,0.182292 0.0781,0.117187 0.1302,0.273437 0.0521,0.143229 0.0521,0.3125 0,0.15625 -0.0651,0.286458 -0.0651,0.117188 -0.19531,0.273438 -0.11719,0.15625 -0.3125,0.364583 -0.19531,0.208333 -0.45573,0.520833 -0.52083,0.625 -0.85937,1.054688 -0.33854,0.416667 -0.54688,0.716146 -0.19531,0.299479 -0.27344,0.533854 -0.0781,0.221354 -0.0781,0.46875 0,0.481771 0.28646,0.664062 0.28646,0.182292 0.65104,0.182292 0.45573,0 0.8724,-0.169271 0.41666,-0.182291 0.78125,-0.429687 0.36458,-0.260417 0.65104,-0.546875 0.29948,-0.286459 0.49479,-0.494792 v 0.78125 q -0.14323,0.260417 -0.37761,0.546875 -0.22135,0.286458 -0.46875,0.546875 z m -3.5026,-3.893229 q 0.18229,-0.299479 0.2474,-0.494792 0.0651,-0.208333 0.0651,-0.429687 0,-0.260417 -0.13021,-0.416667 -0.11719,-0.169271 -0.41666,-0.169271 -0.40365,0 -0.85938,0.14323 -0.45573,0.130208 -0.8724,0.507812 -0.40364,0.364583 -0.66406,0.690104 -0.26041,0.3125 -0.41666,0.598958 -0.15625,0.273438 -0.22136,0.533855 -0.0521,0.247395 -0.0521,0.48177 0,0.403646 0.49479,0.403646 0.48177,0 0.92448,-0.182291 0.44271,-0.182292 0.80729,-0.45573 0.36458,-0.286458 0.63802,-0.611979 0.28646,-0.325521 0.45573,-0.598958 z" />
    <path
       id="path45"
       style=""
       d="m 194.83018,55.206464 q -0.88542,0.924479 -1.61458,1.653645 -0.72917,0.716146 -1.35417,1.210938 -0.61198,0.494791 -1.13281,0.755208 -0.52084,0.260417 -0.98959,0.260417 -0.26041,0 -0.53385,-0.15625 -0.27344,-0.143229 -0.50781,-0.364584 -0.23438,-0.208333 -0.39063,-0.416666 -0.14323,-0.221354 -0.14323,-0.364583 0,-0.585938 0.28646,-1.25 0.28646,-0.664063 0.69011,-1.289063 0.40364,-0.638021 0.84635,-1.184896 0.44271,-0.559896 0.75521,-0.9375 0.16927,-0.208333 0.24739,-0.299479 0.0781,-0.09115 0.13021,-0.15625 0.0651,-0.0651 0.14323,-0.15625 0.0781,-0.104167 0.23438,-0.3125 -0.026,-0.104167 -0.19532,-0.104167 -0.11718,0 -0.50781,0.29948 -0.39062,0.299479 -1.13281,0.885416 -0.29948,0.234375 -0.65104,0.533854 -0.33854,0.29948 -0.67709,0.61198 -0.33854,0.299479 -0.625,0.572916 -0.28645,0.273438 -0.45573,0.442709 l -0.013,-0.898438 q 0.29948,-0.3125 0.65105,-0.716146 0.35156,-0.416666 0.7552,-0.885416 0.40365,-0.46875 0.85938,-0.963542 0.45573,-0.494792 0.95052,-0.963542 0.2474,-0.234375 0.52083,-0.494791 0.28646,-0.260417 0.58594,-0.481771 0.29948,-0.234375 0.59896,-0.377604 0.29948,-0.143229 0.59896,-0.143229 0.11718,0 0.29948,0.195312 0.19531,0.182292 0.3776,0.455729 0.18229,0.273438 0.3125,0.585938 0.13021,0.299479 0.13021,0.533854 0,0.09115 -0.0521,0.208333 -0.0521,0.117188 -0.13021,0.247396 -0.0781,0.117187 -0.16927,0.234375 -0.0781,0.117187 -0.14323,0.195312 -0.29948,0.351563 -0.5599,0.585938 -0.24739,0.234375 -0.52083,0.494792 -0.26042,0.260416 -0.5599,0.598958 -0.28646,0.338542 -0.65104,0.885417 -0.0651,0.07813 -0.15625,0.260416 -0.0781,0.182292 -0.16927,0.390625 -0.0781,0.195313 -0.14323,0.390625 -0.0521,0.182292 -0.0521,0.286459 0,0.208333 0.0911,0.338541 0.0911,0.130209 0.29948,0.130209 0.11719,0 0.36459,-0.07813 0.26041,-0.09115 0.57291,-0.234375 0.32552,-0.15625 0.67709,-0.338542 0.36458,-0.195313 0.6901,-0.403646 0.33854,-0.221354 0.71615,-0.494792 0.39062,-0.273437 0.84635,-0.651041 z" />
    <path
       id="path47"
       style=""
       d="m 205.45518,55.232505 q -1.45833,1.731771 -2.44792,2.604167 -0.98958,0.859375 -1.65364,0.859375 -0.46875,0 -0.85938,-0.182292 -0.3776,-0.182292 -0.72916,-0.572916 -0.35157,-0.390625 -0.70313,-1.002605 -0.35156,-0.625 -0.75521,-1.510416 -0.78125,0.911458 -1.25,1.432291 -0.45573,0.520834 -0.72916,0.78125 -0.26042,0.260417 -0.39063,0.325521 -0.11719,0.0651 -0.22135,0.0651 -0.20834,0 -0.41667,-0.247395 -0.19531,-0.247396 -0.35156,-0.651042 -0.15625,-0.416667 -0.26042,-0.924479 -0.0911,-0.507813 -0.0911,-1.041667 0,-0.260417 0.013,-0.46875 0.013,-0.221354 0.0911,-0.46875 0.0781,-0.247396 0.23438,-0.559896 0.16927,-0.325521 0.48177,-0.807291 0.88541,-1.380209 1.53646,-2.018229 0.65104,-0.651042 1.25,-0.651042 0.3776,0 0.63802,0.130208 0.27343,0.130209 0.27343,0.429688 0,0.130208 -0.026,0.221354 -0.026,0.09115 -0.10416,0.195312 -0.0651,0.104167 -0.19532,0.247396 -0.13021,0.130208 -0.32552,0.351563 -1.06771,1.184895 -1.57552,1.914062 -0.49479,0.729167 -0.49479,1.080729 0,0.169271 0.0781,0.260417 0.0781,0.07813 0.1823,0.07813 0.0911,0 0.32552,-0.182292 0.24739,-0.182291 0.54687,-0.455729 0.3125,-0.286458 0.65104,-0.625 0.35157,-0.338542 0.66407,-0.651042 0.3125,-0.32552 0.54687,-0.559895 0.23438,-0.247396 0.33854,-0.351563 1.62761,-1.601562 2.73438,-2.369791 1.11979,-0.78125 1.82291,-0.78125 0.19532,0 0.35157,0.130208 0.15625,0.117187 0.26041,0.338542 0.11719,0.208333 0.16927,0.494791 0.0651,0.273438 0.0651,0.585938 0,0.63802 -0.26042,1.210937 -0.26041,0.572917 -0.80729,1.145833 -0.54687,0.572917 -1.39323,1.197917 -0.83333,0.611979 -1.99219,1.328125 0.39063,0.585938 0.69011,0.859375 0.29948,0.260417 0.75521,0.260417 0.28645,0 0.57291,-0.104167 0.28646,-0.117187 0.65104,-0.377604 0.37761,-0.273438 0.8724,-0.716146 0.50781,-0.442708 1.23698,-1.119792 z m -5.14323,-0.208333 q 0.41667,-0.273438 0.9375,-0.742188 0.52083,-0.46875 0.97656,-0.989583 0.46875,-0.520833 0.78125,-1.015625 0.3125,-0.507812 0.3125,-0.859375 0,-0.260416 -0.18229,-0.260416 -0.23437,0 -0.6901,0.260416 -0.45573,0.260417 -1.01563,0.716146 -0.55989,0.455729 -1.17187,1.080729 -0.61198,0.611979 -1.17188,1.328125 0.50781,0 1.22396,0.481771 z" />
    <path
       id="path49"
       style=""
       d="m 211.54893,53.474693 q -1.88802,2.5 -2.87761,3.554687 -0.97656,1.054688 -1.60156,1.054688 -0.49479,0 -0.91146,-0.403646 -0.41666,-0.416667 -0.65104,-1.106771 -0.22135,-0.703125 -0.22135,-1.497396 0,-0.520833 0.0911,-0.9375 0.10417,-0.416666 0.37761,-0.911458 0.27344,-0.507813 0.71614,-1.09375 0.45573,-0.585938 1.10677,-1.328125 0.39063,-0.455729 0.65105,-0.768229 0.27343,-0.3125 0.52083,-0.416667 0.26042,-0.117187 0.83333,-0.117187 0.41667,0 0.79427,0.117187 0.37761,0.104167 0.37761,0.221354 0,0.234375 -0.39063,0.846355 -0.3776,0.611979 -1.23698,1.497395 -0.84635,0.872396 -1.96614,1.71875 -0.2474,0.768229 -0.2474,1.171875 0,0.559896 0.42969,0.559896 0.15625,0 0.52083,-0.260417 0.36459,-0.273437 1.22396,-1.028645 0.8724,-0.76823 1.5625,-1.354167 0.50781,-0.442708 1.17188,-1.315104 0.67708,-0.885417 1.09375,-1.328125 0.96354,-1.015625 1.3151,-1.315104 0.35156,-0.3125 0.67708,-0.3125 0.3125,0 0.41667,0.195312 0.11719,0.195313 0.11719,0.794271 0,0.273438 -0.0521,0.442708 -0.0521,0.169271 -0.22135,0.442709 -0.15625,0.260416 -0.65104,0.976562 -0.49479,0.716146 -1.17188,1.692708 -0.36458,0.520834 -0.63802,1.145834 -0.27343,0.611979 -0.27343,0.924479 0,0.677083 0.53385,0.677083 0.44271,0 1.02865,-0.364583 0.58593,-0.364583 1.79687,-1.315104 v 0.872396 q -1.52344,1.40625 -2.2526,2.04427 -0.72917,0.638021 -1.26302,0.963542 -0.53386,0.325521 -1.01563,0.325521 -1.09375,0 -1.09375,-1.302083 0,-0.494792 0.32552,-1.328125 0.32552,-0.846355 1.05469,-2.434896 z" />
    <path
       id="path51"
       style=""
       d="m 218.24164,54.360109 v -3.072916 q -0.48177,0.117187 -0.92448,0.416666 -0.42969,0.29948 -0.92448,0.742188 -0.48177,0.442708 -0.59896,0.442708 -0.14323,0 -0.14323,-0.377604 0,-0.377604 0.76823,-1.328125 0.78125,-0.963541 1.71875,-1.770833 0.9375,-0.820313 1.35417,-0.820313 0.24739,0 0.42969,0.286459 0.18229,0.286458 0.18229,0.78125 0,0.325521 -0.013,0.598958 -0.013,0.273438 -0.026,0.729167 -0.013,0.455729 -0.0391,1.315104 2.87761,-3.072917 3.41146,-3.072917 0.15625,0 0.2474,0.130209 0.10416,0.117187 0.10416,0.299479 0,0.429687 -0.70312,1.328125 -0.69011,0.885416 -0.92448,0.885416 -0.32552,0 -0.50781,-0.104166 l -1.65365,2.109375 q 0.026,1.145833 0.19531,1.705729 0.18229,0.559896 0.63802,0.559896 0.39063,0 0.91146,-0.390625 0.52084,-0.390625 1.69271,-1.445313 v 0.898438 q -2.66927,3.684895 -3.77604,3.684895 -0.69011,0 -0.98958,-0.729166 -0.28646,-0.729167 -0.37761,-2.239584 -0.45573,0.46875 -1.06771,1.132813 -0.61198,0.664062 -0.89843,0.950521 -0.27344,0.273437 -0.50782,0.455729 -0.22135,0.182291 -0.40364,0.182291 -0.18229,0 -0.18229,-0.3125 0,-0.520833 0.54687,-1.432291 0.5599,-0.911458 0.80729,-0.911458 0.026,0 0.11719,0.02604 0.0911,0.02604 0.0911,0.02604 z" />
    <path
       id="path53"
       style=""
       d="m 239.64789,56.09188 q 1.34114,-1.380208 1.9401,-2.317708 0.61198,-0.9375 0.61198,-1.445313 0,-0.48177 -0.48177,-0.48177 -0.3776,0 -1.01562,0.442708 -0.625,0.442708 -1.38021,1.223958 -0.74219,0.78125 -1.53646,1.848959 -0.78125,1.054687 -1.47136,2.304687 -0.20833,0.377604 -0.46875,0.950521 -0.24739,0.585937 -0.49479,1.197916 -0.24739,0.625 -0.46875,1.184896 -0.22135,0.572917 -0.3776,0.924479 -0.10417,0.234375 -0.28646,0.546875 -0.18229,0.3125 -0.39062,0.598959 -0.19532,0.286458 -0.39063,0.481771 -0.19531,0.195312 -0.3125,0.195312 -0.57292,0 -0.57292,-1.002604 0,-0.664063 0.14323,-1.263021 0.15625,-0.598958 0.52084,-1.341146 0.36458,-0.729166 0.96354,-1.692708 0.61198,-0.976562 1.52344,-2.382812 -0.28646,0.260416 -0.67709,0.664062 -0.39062,0.403646 -0.80729,0.794271 -0.40365,0.377604 -0.76823,0.664062 -0.36458,0.273438 -0.59896,0.273438 -0.44271,0 -0.82031,-0.247396 -0.36458,-0.260417 -0.63802,-0.703125 -0.27344,-0.442708 -0.42969,-1.015625 -0.14323,-0.572917 -0.14323,-1.223958 0,-0.729167 0.18229,-1.328125 0.1823,-0.598959 0.50782,-1.106771 0.33854,-0.507813 0.79427,-0.9375 0.45573,-0.429688 0.98958,-0.820312 1.28906,-0.9375 2.23958,-1.315105 0.96355,-0.390625 1.70573,-0.390625 0.32552,0 0.61198,0.325521 0.28646,0.325521 0.28646,1.054688 0.32552,-0.664063 0.66406,-1.367188 0.33855,-0.716146 0.67709,-1.393229 0.33854,-0.677083 0.66406,-1.276042 0.33854,-0.611979 0.63802,-1.067708 0.3125,-0.455729 0.58594,-0.716146 0.27344,-0.273437 0.49479,-0.273437 0.20833,0 0.36458,0.104166 0.16927,0.104167 0.27344,0.247396 0.10417,0.143229 0.15625,0.325521 0.0651,0.169271 0.0651,0.299479 0,0.455729 -0.23437,0.885417 -0.22135,0.429687 -0.50781,0.846354 -0.3125,0.455729 -0.72917,1.080729 -0.41667,0.625 -0.8724,1.367188 -0.45572,0.729166 -0.9375,1.549479 -0.46875,0.820312 -0.91145,1.679687 1.0026,-0.78125 1.75781,-1.40625 0.75521,-0.63802 1.36719,-1.067708 0.625,-0.442708 1.15885,-0.677083 0.54688,-0.234375 1.11979,-0.234375 0.32552,0 0.45573,0.15625 0.14323,0.15625 0.14323,0.494791 0,0.716146 -0.27344,1.432292 -0.27343,0.703125 -0.80729,1.445312 -0.52083,0.742188 -1.28906,1.536459 -0.75521,0.794271 -1.71875,1.679687 0.3776,0.169271 0.9375,0.169271 1.51042,0 4.04948,-2.304687 v 0.9375 q -0.74219,0.664062 -1.45834,1.276041 -0.71614,0.611979 -1.39322,1.080729 -0.66407,0.46875 -1.27605,0.755209 -0.59895,0.273437 -1.11979,0.273437 -0.11719,0 -0.33854,-0.0651 -0.22135,-0.0651 -0.45573,-0.15625 -0.22135,-0.104167 -0.42969,-0.208333 -0.20833,-0.104167 -0.3125,-0.195313 -0.41666,0.221354 -0.7552,0.221354 -0.10417,0 -0.22136,-0.01302 -0.11719,-0.02604 -0.22135,-0.09115 -0.0911,-0.0651 -0.16927,-0.169271 -0.0651,-0.117188 -0.0651,-0.299479 0,-0.364584 0.14323,-0.690104 0.14323,-0.325521 0.32552,-0.559896 0.19531,-0.247396 0.37761,-0.377604 0.19531,-0.14323 0.29948,-0.14323 0.39062,0 0.65104,0.07813 0.27343,0.0651 0.63802,0.169271 z m -5.10417,-0.716146 q 0.59896,-0.546875 1.22396,-1.184895 0.63802,-0.651042 1.22396,-1.484375 0.10416,-0.14323 0.19531,-0.377605 0.0911,-0.247395 0.0911,-0.494791 0,-0.195313 -0.0781,-0.325521 -0.0651,-0.130208 -0.16927,-0.208333 -0.10417,-0.09115 -0.22135,-0.130209 -0.10417,-0.03906 -0.16927,-0.03906 -0.28646,0 -0.66407,0.195312 -0.3776,0.195313 -0.76823,0.481771 -0.3776,0.273438 -0.72916,0.585938 -0.33854,0.299479 -0.5599,0.533854 -0.74219,0.78125 -1.05469,1.445312 -0.3125,0.664063 -0.3125,1.25 0,0.325521 0.14323,0.46875 0.15625,0.130209 0.3125,0.130209 0.26042,0 0.69011,-0.234375 0.44271,-0.247396 0.84635,-0.61198 z" />
    <path
       id="path55"
       style=""
       d="m 245.20778,55.453859 v -0.911458 q 1.82292,-1.979167 3.13802,-3.723958 1.32813,-1.744792 2.09636,-2.773438 0.76823,-1.028645 1.35417,-1.445312 0.58593,-0.429688 1.47135,-0.429688 0.44271,0 0.44271,0.338542 0,0.273438 -0.36459,0.807292 -0.35156,0.533854 -0.91145,1.09375 -0.74219,0.729166 -1.45834,1.835937 -0.70312,1.09375 -1.60156,2.799479 0.70313,-0.546875 1.61458,-1.289062 0.92448,-0.755208 1.4974,-1.171875 0.58594,-0.429688 1.14583,-0.677083 0.57292,-0.247396 1.14584,-0.247396 0.36458,0 0.46875,0.130208 0.11718,0.130208 0.11718,0.507813 0,0.989583 -0.48177,1.940104 -0.48177,0.9375 -1.38021,1.953125 -0.89843,1.015625 -2.21354,2.213541 0.45573,0.169271 0.9375,0.169271 1.51042,0 4.04948,-2.304687 v 0.9375 q -0.98958,0.885416 -1.9401,1.666666 -0.9375,0.78125 -1.77084,1.25 -0.83333,0.46875 -1.53645,0.46875 -0.26042,0 -0.5599,-0.0651 -0.28646,-0.05208 -0.53385,-0.130208 -0.2474,-0.09115 -0.63802,-0.247396 -0.39063,-0.15625 -0.59896,-0.221354 -0.41667,0.104166 -0.46875,0.104166 -0.45573,0 -1.06771,-0.364583 -0.42969,0.833333 -0.95052,2.148437 -0.50781,1.328125 -0.85938,2.109375 -0.35156,0.78125 -0.9375,1.497396 -0.32552,0.325521 -0.45573,0.325521 -0.55989,0 -0.55989,-0.989583 0,-0.859375 0.35156,-1.796875 0.33854,-0.924479 0.84635,-1.757813 0.4948,-0.833333 1.09375,-1.679687 0.59896,-0.859375 0.84636,-1.276042 2.05729,-3.541666 3.20312,-6.028645 -2.99479,3.645833 -4.53125,5.234374 z m 5.28646,0.638021 q 1.28906,-1.354166 1.91406,-2.304687 0.63803,-0.950521 0.63803,-1.458334 0,-0.48177 -0.48178,-0.48177 -0.65104,0 -1.83593,1.080729 -1.17188,1.067708 -2.42188,2.890625 0.96354,-0.104167 1.28906,-0.0651 0.32553,0.02604 0.89844,0.338541 z" />
    <path
       id="path57"
       style=""
       d="m 257.7208,52.02938 q 1.97917,-1.796875 3.84115,-2.66927 1.86197,-0.872396 2.8776,-0.872396 0.27344,0 0.50781,0.234375 0.23438,0.221354 0.36459,0.520833 0.14322,0.299479 0.14322,0.442708 0,0.234375 -0.18229,0.351563 -0.18229,0.104167 -0.63802,0.260417 0.0911,0.208333 0.23438,0.533854 0.14323,0.325521 0.22135,0.533854 0.0781,0.195312 0.0781,0.351562 0,0.3125 -0.63802,1.171875 -0.625,0.846354 -0.88542,1.25 -0.2474,0.403646 -0.2474,0.989584 0,0.963541 0.88542,0.963541 0.91146,0 2.85156,-1.705729 v 0.794271 q -3.29427,3.658854 -4.71354,3.658854 -0.50781,0 -0.72917,-0.338542 -0.20833,-0.32552 -0.20833,-0.976562 0,-1.028646 0.74219,-2.981771 -1.90104,2.109375 -2.82552,3.007813 -0.92448,0.885416 -1.52344,0.885416 -0.28646,0 -0.71615,-0.494791 -0.42968,-0.494792 -0.76823,-1.276042 -0.32552,-0.794271 -0.32552,-1.640625 0,-0.611979 0.11719,-1.015625 0.11719,-0.416667 0.45573,-0.846354 0.33854,-0.429688 1.08073,-1.132813 z m 6.23698,-1.432291 q -3.38542,1.549479 -4.83073,2.630208 -1.43229,1.080729 -1.43229,2.226562 0,0.416667 0.14323,0.690105 0.14323,0.260416 0.39062,0.260416 0.14323,0 0.50781,-0.182291 1.36719,-0.807292 2.5,-2.096355 1.13282,-1.302083 2.72136,-3.528645 z" />
    <path
       id="path59"
       style=""
       d="m 276.93955,55.206464 q -0.9375,0.924479 -1.6276,1.57552 -0.69011,0.651042 -1.21094,1.067709 -0.52083,0.416666 -0.91146,0.611979 -0.3776,0.182291 -0.70312,0.182291 -0.46875,0 -0.78125,-0.3125 -0.29948,-0.312499 -0.29948,-0.976562 0,-0.286458 0.0521,-0.572917 0.0521,-0.286458 0.18229,-0.625 0.13021,-0.351562 0.35157,-0.78125 0.22135,-0.429687 0.55989,-1.002604 -0.625,0.130209 -1.30208,0.46875 -0.66406,0.338542 -1.32813,0.820313 -0.66406,0.46875 -1.3151,1.041666 -0.65104,0.559896 -1.25,1.145834 -0.10417,0.104166 -0.29948,0.195312 -0.19531,0.07813 -0.39063,0.07813 -0.26041,0 -0.4427,-0.143229 -0.1823,-0.15625 -0.1823,-0.572917 0,-0.182291 0.0651,-0.507812 0.0651,-0.325521 0.18229,-0.729167 0.11719,-0.403646 0.28646,-0.846354 0.15625,-0.455729 0.33854,-0.898437 0.18229,-0.442709 0.39063,-0.846355 0.20833,-0.403645 0.40364,-0.716145 0.44271,-0.690105 0.82031,-1.184896 0.37761,-0.507813 0.71615,-0.833333 0.33854,-0.338542 0.63802,-0.494792 0.3125,-0.15625 0.61198,-0.15625 0.3776,0 0.63802,0.130208 0.27344,0.130209 0.27344,0.429688 0,0.130208 -0.026,0.221354 -0.026,0.09115 -0.10417,0.195312 -0.0781,0.09115 -0.20833,0.234375 -0.11719,0.143229 -0.3125,0.364584 -0.58594,0.664062 -0.97657,1.145833 -0.3776,0.46875 -0.65104,0.885417 -0.27344,0.416666 -0.48177,0.820312 -0.20833,0.403646 -0.44271,0.924479 0.37761,-0.442708 0.88542,-0.885416 0.50781,-0.45573 1.15885,-0.859375 0.65105,-0.416667 1.45834,-0.76823 0.80729,-0.364583 1.78385,-0.625 0.50781,-1.09375 0.84636,-1.653645 0.33854,-0.572917 0.54687,-0.872396 0.32552,-0.481771 0.82031,-0.481771 0.16927,0 0.29948,0.143229 0.13021,0.143229 0.22136,0.364584 0.10416,0.221354 0.15625,0.494791 0.0651,0.273438 0.0911,0.533854 0,0.104167 -0.10416,0.260417 -0.0912,0.143229 -0.2474,0.338542 -0.14323,0.182291 -0.32552,0.390625 -0.16927,0.208333 -0.3125,0.403645 0,0.45573 -0.10417,0.76823 -0.0391,0.09115 -0.0911,0.182291 -0.0521,0.07813 -0.16927,0.169271 -0.10417,0.09115 -0.29948,0.208333 -0.1823,0.104167 -0.4948,0.247396 -0.0391,0.09115 -0.16927,0.273438 -0.11718,0.182291 -0.24739,0.416666 -0.11719,0.234375 -0.22136,0.494792 -0.0911,0.260417 -0.0911,0.507813 0,0.260416 0.13021,0.390625 0.1302,0.130208 0.33854,0.130208 0.19531,0 0.41666,-0.09115 0.23438,-0.09115 0.5599,-0.299479 0.32552,-0.221354 0.78125,-0.559896 0.46875,-0.351562 1.11979,-0.859375 z" />
    <path
       id="path61"
       style=""
       d="m 283.47601,53.474693 q -0.95052,1.263021 -1.73177,2.148437 -0.78125,0.872396 -1.40625,1.419271 -0.61198,0.546875 -1.08073,0.794271 -0.45573,0.247396 -0.78125,0.247396 -0.36459,0 -0.69011,-0.234375 -0.32552,-0.234375 -0.57291,-0.638021 -0.23438,-0.403646 -0.37761,-0.9375 -0.14323,-0.533854 -0.14323,-1.119792 0,-0.520833 0.11719,-0.989583 0.11719,-0.481771 0.37761,-0.976563 0.27343,-0.494791 0.70312,-1.067708 0.44271,-0.572917 1.09375,-1.315104 l 0.65104,-0.768229 q 0.14323,-0.169271 0.26042,-0.273438 0.11719,-0.104166 0.26042,-0.15625 0.15625,-0.0651 0.35156,-0.07813 0.19531,-0.02604 0.48177,-0.02604 0.19531,0 0.39062,0.03906 0.20834,0.02604 0.37761,0.07813 0.18229,0.03906 0.28646,0.104167 0.11718,0.0651 0.11718,0.117187 0,0.182292 -0.24739,0.598959 -0.23438,0.416666 -0.70313,0.976562 -0.45573,0.559896 -1.11979,1.210938 -0.66406,0.63802 -1.52344,1.276041 -0.24739,0.729167 -0.24739,1.171875 0,0.559896 0.42969,0.559896 0.0781,0 0.27343,-0.05208 0.20834,-0.0651 0.49479,-0.208334 0.29948,-0.143229 0.67709,-0.390625 0.3776,-0.247395 0.82031,-0.63802 l 1.5625,-1.354167 q 0.22135,-0.195313 0.53385,-0.559896 0.32553,-0.364583 0.63803,-0.768229 0.32552,-0.403646 0.61197,-0.755208 0.29948,-0.364584 0.48178,-0.559896 0.49479,-0.533854 0.80729,-0.846354 0.3125,-0.325521 0.52083,-0.494792 0.20833,-0.182292 0.35156,-0.234375 0.14323,-0.05208 0.3125,-0.05208 0.3125,0 0.41667,0.195312 0.11719,0.195313 0.11719,0.794271 0,0.260417 -0.0781,0.494792 -0.0781,0.221354 -0.29948,0.585937 -0.22135,0.351563 -0.63802,0.9375 -0.41666,0.585938 -1.08073,1.536458 -0.18229,0.260417 -0.36458,0.598959 -0.16927,0.325521 -0.3125,0.677083 -0.0911,0.221354 -0.19531,0.559896 -0.0911,0.338542 -0.0911,0.651042 0,0.234375 0.0651,0.429687 0.0781,0.182292 0.26041,0.299479 0.23438,-0.09115 0.5599,-0.3125 0.33854,-0.234375 0.65104,-0.455729 0.29948,-0.221354 0.75521,-0.533854 0.45573,-0.325521 1.11979,-0.846354 v 0.872396 q -0.66406,0.598958 -1.30208,1.184895 -0.63802,0.585938 -1.31511,1.171875 0.0391,0.117188 0.0651,0.29948 0.0391,0.16927 0.0391,0.364583 0,0.9375 -0.75521,1.666666 -0.75521,0.729167 -2.21354,1.471355 -0.0391,0.02604 -0.22136,0.07813 -0.16927,0.0651 -0.42968,0.117187 -0.2474,0.0651 -0.54688,0.104167 -0.28646,0.05208 -0.55989,0.05208 -0.98959,0 -0.98959,-0.664062 0,-0.3125 0.22136,-0.638021 0.22135,-0.3125 0.55989,-0.611979 0.33854,-0.29948 0.75521,-0.572917 0.41667,-0.273438 0.80729,-0.520833 0.39063,-0.234375 0.70313,-0.429688 0.3125,-0.208333 0.44271,-0.338541 -0.29948,-0.234375 -0.52084,-0.572917 -0.20833,-0.351563 -0.20833,-0.768229 0,-0.325521 0.0912,-0.638021 0.0911,-0.3125 0.24739,-0.677083 0.15625,-0.364584 0.37761,-0.794271 0.23437,-0.442709 0.50781,-1.015625 z m -0.026,5.299479 q -0.22136,0.234375 -0.48177,0.416666 -0.26042,0.195313 -0.48178,0.338542 -0.22135,0.15625 -0.3776,0.273438 -0.14323,0.130208 -0.14323,0.234375 0,0.0651 0.0391,0.117187 0.0521,0.05208 0.22136,0.05208 0.18229,0 0.36458,-0.15625 0.19531,-0.143229 0.35156,-0.364583 0.16927,-0.208333 0.29948,-0.455729 0.13021,-0.247396 0.20834,-0.455729 z" />
    <path
       id="path63"
       style=""
       d="m 293.6583,54.867922 -2.31771,1.966146 q -1.65364,1.445312 -2.21354,1.445312 -0.50781,0 -1.06771,-1.158854 -0.55989,-1.171875 -0.55989,-2.044271 0,-0.742187 0.22135,-1.25 0.23438,-0.520833 0.79427,-1.341146 0.79427,-1.10677 1.52344,-1.874999 0.72917,-0.76823 1.28906,-1.184896 0.5599,-0.429688 0.78125,-0.429688 0.35157,0 0.67709,0.364584 0.33854,0.364583 0.33854,0.755208 0,0.247396 -0.36459,0.794271 -0.35156,0.546875 -1.13281,1.393229 -0.76823,0.833333 -2.14844,2.005208 l -0.24739,0.716146 q -0.10417,0.208333 -0.10417,0.364583 0,0.351563 0.35156,0.351563 0.36459,0 1.70573,-0.924479 1.35417,-0.92448 2.92969,-2.48698 0.61198,-0.611979 1.01563,-1.080729 0.40364,-0.46875 0.72916,-0.872395 0.32552,-0.416667 0.53386,-0.625 0.22135,-0.208334 0.39062,-0.221355 0.32552,-0.03906 0.50781,0.273438 0.1823,0.3125 0.1823,0.924479 0,0.351563 -0.3125,0.885417 -0.3125,0.520833 -1.17188,1.796875 -0.85937,1.26302 -1.71875,2.630208 -0.84635,1.354167 -1.73177,3.059896 0.0391,-0.03906 0.79427,-0.78125 0.76823,-0.742188 1.61458,-1.549479 0.84636,-0.807292 1.39323,-1.289063 0.54688,-0.494792 1.36719,-1.145833 v 0.872396 q -1.75781,1.88802 -3.1901,3.580729 -1.41927,1.692708 -2.20052,2.708333 -0.76823,1.015625 -0.89844,1.184896 -0.35156,0.455729 -0.63802,0.846354 -0.27344,0.403646 -0.46875,0.611979 -0.18229,0.221354 -0.29948,0.221354 -0.27344,0 -0.49479,-0.546875 -0.20834,-0.533854 -0.20834,-0.950521 0,-0.377604 0.14323,-0.664062 0.9375,-2.109375 4.20573,-7.330729 z" />
    <path
       id="path65"
       style=""
       d="m 297.29111,55.505943 v -0.963542 q 0.71614,-0.755208 1.47135,-2.109375 -0.72917,-0.104167 -0.72917,-0.585937 0,-0.403646 0.48178,-1.041667 0.49479,-0.638021 1.14583,-1.145833 0.66406,-0.507813 1.04167,-0.507813 0.42968,0 0.42968,0.351563 0,0.143229 -0.0781,0.182291 -0.10417,0.0651 -0.10417,0.221355 0,0.130208 0.20833,0.130208 0.65105,0 1.62761,-0.260417 0.98958,-0.273437 1.35417,-0.273437 0.29947,0 0.40364,0.559896 0.27344,1.484374 0.27344,1.679687 0,0.182292 -0.16927,0.351562 -0.15625,0.15625 -0.91146,0.638021 -0.74219,0.481771 -1.38021,0.9375 -0.63802,0.442709 -1.65364,1.25 0.70312,0.325521 1.01562,0.729167 0.32552,0.403646 0.5599,1.236979 l 3.2552,-2.552083 v 0.872396 l -3.28125,2.643229 q -0.1302,1.25 -0.87239,2.539062 -0.72917,1.289063 -1.70573,2.317708 -0.97656,1.028646 -1.9401,1.679688 -0.96355,0.664062 -1.40625,0.664062 -0.42969,0 -0.59896,-0.286458 -0.16927,-0.273437 -0.16927,-0.807292 0,-0.768229 0.33854,-1.458333 0.32552,-0.690104 0.96354,-1.380208 0.625,-0.677084 1.51042,-1.393229 0.89843,-0.703125 2.38281,-1.71875 -0.14323,-0.924479 -0.48177,-1.145834 -0.33854,-0.234375 -1.04167,-0.455729 -0.6901,-0.234375 -0.6901,-0.690104 0,-0.507812 4.88281,-3.893229 -0.78125,0.15625 -1.83594,0.351562 -1.05469,0.182292 -2.00521,0.260417 -0.66406,1.054688 -1.26302,1.848958 -0.59896,0.794271 -1.02864,1.223959 z m 3.33333,3.723958 q -0.9375,0.651042 -1.8099,1.458333 -0.87239,0.820313 -1.49739,1.549479 -0.63802,0.729167 -0.63802,0.885417 0,0.299479 0.26041,0.299479 0.46875,0 1.21094,-0.520833 0.74219,-0.520833 1.44531,-1.497396 0.70313,-0.963542 1.02865,-2.174479 z" />
    <path
       id="path67"
       style=""
       d="m 313.30673,54.386151 v 0.872396 q -1.39323,1.367187 -2.27864,2.122396 -0.8724,0.755208 -1.64063,1.171875 -0.75521,0.416666 -1.48437,0.416666 -0.71615,0 -1.31511,-0.559896 -0.59896,-0.572916 -0.9375,-1.484374 -0.33854,-0.92448 -0.33854,-1.953125 0,-0.885417 0.39063,-1.575521 0.39062,-0.690104 1.51041,-1.783854 1.32813,-1.302084 2.46094,-2.005209 1.14583,-0.716145 1.79687,-0.716145 0.46875,0 0.79428,0.32552 0.32552,0.325521 0.32552,0.820313 0,0.416667 -0.42969,1.184896 -0.42969,0.768229 -0.96354,1.341145 -0.53386,0.559896 -0.84636,0.559896 -0.33854,0 -0.33854,-0.364583 0.013,-0.104167 0.013,-0.195313 0.013,-0.09115 0.013,-0.182291 0,-0.15625 -0.11718,-0.169271 -0.10417,-0.02604 -0.26042,0.09115 -1.30208,0.911458 -1.78386,1.289062 -0.48177,0.364584 -0.76822,0.742188 -0.27344,0.377604 -0.27344,0.794271 0,0.768229 0.49479,1.25 0.49479,0.48177 1.28906,0.48177 0.82031,0 1.96615,-0.625 1.15885,-0.63802 2.72135,-1.848958 z" />
    <path
       id="path69"
       style=""
       d="m 323.99684,55.232505 q -1.45834,1.731771 -2.44792,2.604167 -0.98958,0.859375 -1.65365,0.859375 -0.46875,0 -0.85937,-0.182292 -0.37761,-0.182292 -0.72917,-0.572916 -0.35156,-0.390625 -0.70312,-1.002605 -0.35157,-0.625 -0.75521,-1.510416 -0.78125,0.911458 -1.25,1.432291 -0.45573,0.520834 -0.72917,0.78125 -0.26041,0.260417 -0.39062,0.325521 -0.11719,0.0651 -0.22136,0.0651 -0.20833,0 -0.41666,-0.247395 -0.19532,-0.247396 -0.35157,-0.651042 -0.15625,-0.416667 -0.26041,-0.924479 -0.0912,-0.507813 -0.0912,-1.041667 0,-0.260417 0.013,-0.46875 0.013,-0.221354 0.0911,-0.46875 0.0781,-0.247396 0.23437,-0.559896 0.16927,-0.325521 0.48177,-0.807291 0.88542,-1.380209 1.53646,-2.018229 0.65104,-0.651042 1.25,-0.651042 0.37761,0 0.63802,0.130208 0.27344,0.130209 0.27344,0.429688 0,0.130208 -0.026,0.221354 -0.026,0.09115 -0.10417,0.195312 -0.0651,0.104167 -0.19531,0.247396 -0.13021,0.130208 -0.32552,0.351563 -1.06771,1.184895 -1.57552,1.914062 -0.49479,0.729167 -0.49479,1.080729 0,0.169271 0.0781,0.260417 0.0781,0.07813 0.18229,0.07813 0.0912,0 0.32552,-0.182292 0.2474,-0.182291 0.54688,-0.455729 0.3125,-0.286458 0.65104,-0.625 0.35156,-0.338542 0.66406,-0.651042 0.3125,-0.32552 0.54688,-0.559895 0.23437,-0.247396 0.33854,-0.351563 1.6276,-1.601562 2.73437,-2.369791 1.1198,-0.78125 1.82292,-0.78125 0.19531,0 0.35156,0.130208 0.15625,0.117187 0.26042,0.338542 0.11719,0.208333 0.16927,0.494791 0.0651,0.273438 0.0651,0.585938 0,0.63802 -0.26042,1.210937 -0.26042,0.572917 -0.80729,1.145833 -0.54688,0.572917 -1.39323,1.197917 -0.83334,0.611979 -1.99219,1.328125 0.39063,0.585938 0.6901,0.859375 0.29948,0.260417 0.75521,0.260417 0.28646,0 0.57292,-0.104167 0.28646,-0.117187 0.65104,-0.377604 0.37761,-0.273438 0.8724,-0.716146 0.50781,-0.442708 1.23698,-1.119792 z m -5.14323,-0.208333 q 0.41666,-0.273438 0.9375,-0.742188 0.52083,-0.46875 0.97656,-0.989583 0.46875,-0.520833 0.78125,-1.015625 0.3125,-0.507812 0.3125,-0.859375 0,-0.260416 -0.18229,-0.260416 -0.23438,0 -0.69011,0.260416 -0.45573,0.260417 -1.01562,0.716146 -0.5599,0.455729 -1.17188,1.080729 -0.61198,0.611979 -1.17187,1.328125 0.50781,0 1.22396,0.481771 z" />
    <path
       id="path71"
       style=""
       d="m 330.0906,53.474693 q -1.88802,2.5 -2.87761,3.554687 -0.97656,1.054688 -1.60156,1.054688 -0.49479,0 -0.91146,-0.403646 -0.41667,-0.416667 -0.65104,-1.106771 -0.22135,-0.703125 -0.22135,-1.497396 0,-0.520833 0.0911,-0.9375 0.10417,-0.416666 0.37761,-0.911458 0.27343,-0.507813 0.71614,-1.09375 0.45573,-0.585938 1.10677,-1.328125 0.39063,-0.455729 0.65104,-0.768229 0.27344,-0.3125 0.52084,-0.416667 0.26041,-0.117187 0.83333,-0.117187 0.41667,0 0.79427,0.117187 0.37761,0.104167 0.37761,0.221354 0,0.234375 -0.39063,0.846355 -0.3776,0.611979 -1.23698,1.497395 -0.84635,0.872396 -1.96614,1.71875 -0.2474,0.768229 -0.2474,1.171875 0,0.559896 0.42969,0.559896 0.15625,0 0.52083,-0.260417 0.36458,-0.273437 1.22396,-1.028645 0.87239,-0.76823 1.5625,-1.354167 0.50781,-0.442708 1.17187,-1.315104 0.67709,-0.885417 1.09375,-1.328125 0.96355,-1.015625 1.31511,-1.315104 0.35156,-0.3125 0.67708,-0.3125 0.3125,0 0.41667,0.195312 0.11719,0.195313 0.11719,0.794271 0,0.273438 -0.0521,0.442708 -0.0521,0.169271 -0.22135,0.442709 -0.15625,0.260416 -0.65104,0.976562 -0.4948,0.716146 -1.17188,1.692708 -0.36458,0.520834 -0.63802,1.145834 -0.27344,0.611979 -0.27344,0.924479 0,0.677083 0.53386,0.677083 0.44271,0 1.02864,-0.364583 0.58594,-0.364583 1.79688,-1.315104 v 0.872396 q -1.52344,1.40625 -2.25261,2.04427 -0.72916,0.638021 -1.26302,0.963542 -0.53385,0.325521 -1.01562,0.325521 -1.09375,0 -1.09375,-1.302083 0,-0.494792 0.32552,-1.328125 0.32552,-0.846355 1.05469,-2.434896 z" />
    <path
       id="path73"
       style=""
       d="m 336.78329,54.360109 v -3.072916 q -0.48177,0.117187 -0.92447,0.416666 -0.42969,0.29948 -0.92448,0.742188 -0.48177,0.442708 -0.59896,0.442708 -0.14323,0 -0.14323,-0.377604 0,-0.377604 0.76823,-1.328125 0.78125,-0.963541 1.71875,-1.770833 0.9375,-0.820313 1.35416,-0.820313 0.2474,0 0.42969,0.286459 0.18229,0.286458 0.18229,0.78125 0,0.325521 -0.013,0.598958 -0.013,0.273438 -0.026,0.729167 -0.013,0.455729 -0.0391,1.315104 2.8776,-3.072917 3.41146,-3.072917 0.15625,0 0.24739,0.130209 0.10417,0.117187 0.10417,0.299479 0,0.429687 -0.70313,1.328125 -0.6901,0.885416 -0.92447,0.885416 -0.32553,0 -0.50782,-0.104166 l -1.65364,2.109375 q 0.026,1.145833 0.19531,1.705729 0.18229,0.559896 0.63802,0.559896 0.39063,0 0.91146,-0.390625 0.52083,-0.390625 1.69271,-1.445313 v 0.898438 q -2.66927,3.684895 -3.77604,3.684895 -0.69011,0 -0.98959,-0.729166 -0.28646,-0.729167 -0.3776,-2.239584 -0.45573,0.46875 -1.06771,1.132813 -0.61198,0.664062 -0.89844,0.950521 -0.27344,0.273437 -0.50781,0.455729 -0.22135,0.182291 -0.40365,0.182291 -0.18229,0 -0.18229,-0.3125 0,-0.520833 0.54688,-1.432291 0.55989,-0.911458 0.80729,-0.911458 0.026,0 0.11719,0.02604 0.0911,0.02604 0.0911,0.02604 z" />
    <path
       id="path75"
       style=""
       d="m 165.59841,84.95907 q -1.14583,0.416667 -2.05729,1.002605 -0.91146,0.572916 -1.54948,1.197916 -0.63802,0.625 -0.98959,1.223958 -0.33854,0.598959 -0.33854,1.067709 0,0.338541 0.15625,0.572916 0.15625,0.221355 0.70313,0.221355 0.20833,0 0.45573,-0.104167 0.26041,-0.117188 0.50781,-0.273438 0.2474,-0.16927 0.45573,-0.338541 0.22135,-0.182292 0.33854,-0.3125 0.74219,-0.78125 1.35417,-1.861979 0.61198,-1.080729 0.96354,-2.395834 z m 1.52344,-2.018229 q 0.0911,-0.03906 0.18229,-0.03906 0.13021,0 0.22135,0.07813 0.0911,0.0651 0.0911,0.208333 0,0.130208 -0.013,0.3125 -0.013,0.169271 -0.0781,0.351563 -0.0651,0.182291 -0.19531,0.351562 -0.13021,0.169271 -0.36458,0.286458 -0.22136,1.39323 -0.53386,2.369792 -0.3125,0.963542 -0.72916,1.679687 -0.41667,0.716146 -0.9375,1.263021 -0.52084,0.533854 -1.15886,1.054688 -0.42969,0.351562 -0.85937,0.625 -0.41667,0.273437 -0.79427,0.442708 -0.36459,0.182292 -0.67709,0.273438 -0.29948,0.09114 -0.49479,0.09114 -0.32552,0 -0.63802,-0.234375 -0.3125,-0.234375 -0.5599,-0.572916 -0.24739,-0.351563 -0.40364,-0.729167 -0.15625,-0.390625 -0.15625,-0.690104 0,-0.143229 0.013,-0.351563 0.013,-0.208333 0.0651,-0.442708 0.0521,-0.234375 0.14323,-0.481771 0.0781,-0.260416 0.22136,-0.494791 0.59895,-0.989584 1.28906,-1.71875 0.6901,-0.742188 1.47135,-1.315104 0.78125,-0.572917 1.65365,-1.041667 0.87239,-0.481771 1.83594,-0.950521 0.013,-0.963542 0.10416,-1.888021 0.10417,-0.924479 0.37761,-1.783854 0.27343,-0.859375 0.76823,-1.627604 0.49479,-0.768229 1.3151,-1.419271 0.48177,-0.390625 1.02865,-0.729166 0.54687,-0.338542 1.11979,-0.585938 0.58594,-0.260417 1.18489,-0.403646 0.59896,-0.15625 1.19792,-0.15625 0.59896,0 0.78125,0.117188 0.19531,0.104166 0.19531,0.338541 0,0.403646 -0.13021,0.664063 -0.11718,0.260417 -0.3125,0.429687 -0.18229,0.15625 -0.40364,0.247396 -0.22136,0.09115 -0.41667,0.15625 -0.55989,0.182292 -1.05469,0.351563 -0.48177,0.169271 -0.9375,0.377604 -0.45572,0.208333 -0.89843,0.494792 -0.42969,0.286458 -0.8724,0.716145 -0.50781,0.481771 -0.83333,0.989584 -0.3125,0.507812 -0.49479,1.054687 -0.1823,0.533854 -0.2474,1.119792 -0.0651,0.572916 -0.0651,1.210937 z" />
    <path
       id="path77"
       style=""
       d="m 173.0333,88.201258 -2.3177,1.966146 q -1.65365,1.445312 -2.21355,1.445312 -0.50781,0 -1.0677,-1.158854 -0.5599,-1.171875 -0.5599,-2.044271 0,-0.742187 0.22135,-1.25 0.23438,-0.520833 0.79428,-1.341146 0.79427,-1.10677 1.52343,-1.875 0.72917,-0.768229 1.28907,-1.184895 0.55989,-0.429688 0.78125,-0.429688 0.35156,0 0.67708,0.364583 0.33854,0.364584 0.33854,0.755209 0,0.247396 -0.36458,0.794271 -0.35157,0.546875 -1.13282,1.393229 -0.76822,0.833333 -2.14843,2.005208 l -0.2474,0.716146 q -0.10417,0.208333 -0.10417,0.364583 0,0.351563 0.35157,0.351563 0.36458,0 1.70573,-0.92448 1.35416,-0.924479 2.92968,-2.486979 0.61198,-0.611979 1.01563,-1.080729 0.40364,-0.46875 0.72917,-0.872396 0.32552,-0.416666 0.53385,-0.625 0.22135,-0.208333 0.39062,-0.221354 0.32553,-0.03906 0.50782,0.273438 0.18229,0.3125 0.18229,0.924479 0,0.351562 -0.3125,0.885417 -0.3125,0.520833 -1.17188,1.796874 -0.85937,1.263021 -1.71875,2.630209 -0.84635,1.354166 -1.73177,3.059896 0.0391,-0.03906 0.79427,-0.78125 0.76823,-0.742188 1.61459,-1.54948 0.84635,-0.807291 1.39323,-1.289062 0.54687,-0.494792 1.36718,-1.145833 v 0.872395 q -1.75781,1.888021 -3.1901,3.58073 -1.41927,1.692708 -2.20052,2.708333 -0.76823,1.015625 -0.89844,1.184896 -0.35156,0.455729 -0.63802,0.846354 -0.27344,0.403646 -0.46875,0.611979 -0.18229,0.221354 -0.29948,0.221354 -0.27344,0 -0.49479,-0.546875 -0.20833,-0.533854 -0.20833,-0.950521 0,-0.377604 0.14323,-0.664062 0.9375,-2.109375 4.20572,-7.330729 z" />
    <path
       id="path79"
       style=""
       d="m 188.26768,88.539799 q -0.9375,0.92448 -1.62761,1.575521 -0.6901,0.651042 -1.21093,1.067709 -0.52084,0.416666 -0.91146,0.611979 -0.37761,0.182291 -0.70313,0.182291 -0.46875,0 -0.78125,-0.3125 -0.29948,-0.3125 -0.29948,-0.976562 0,-0.351563 0.0911,-0.755208 0.10417,-0.416667 0.39063,-1.015625 0.29947,-0.598959 0.84635,-1.445313 0.5599,-0.859375 1.47135,-2.083333 -0.1302,-0.234375 -0.40364,-0.481771 -0.26042,-0.260417 -0.52084,-0.403646 -0.42968,0.494792 -1.04166,1.223959 -0.61198,0.729166 -1.30209,1.523437 -0.67708,0.78125 -1.36718,1.549479 -0.67709,0.768229 -1.25,1.341146 -0.33854,0.338542 -0.58594,0.572917 -0.2474,0.234375 -0.44271,0.377604 -0.18229,0.143229 -0.33854,0.208333 -0.14323,0.0651 -0.27344,0.0651 -0.20833,0 -0.41666,-0.247396 -0.19532,-0.247395 -0.35157,-0.651041 -0.15625,-0.416667 -0.26041,-0.924479 -0.0911,-0.507813 -0.0911,-1.041667 0,-0.416667 0.10417,-0.807292 0.10416,-0.390625 0.29948,-0.690104 0.19531,-0.299479 0.48177,-0.481771 0.29948,-0.182291 0.67708,-0.182291 0.37761,0 0.63802,0.130208 0.26042,0.130208 0.26042,0.416667 0,0.130208 -0.10417,0.273437 -0.0911,0.143229 -0.20833,0.286458 -0.11719,0.130209 -0.22136,0.260417 -0.10416,0.130208 -0.11718,0.234375 -0.013,0.01302 -0.013,0.130208 0,0.221355 0.1302,0.3125 0.14323,0.07813 0.2474,0.07813 0.0911,0 0.50781,-0.403645 0.41667,-0.416667 1.04167,-1.08073 0.625,-0.677083 1.39323,-1.549479 0.76823,-0.885416 1.57552,-1.822916 -0.39063,-0.364584 -0.39063,-0.481771 0,-0.104167 0.0911,-0.234375 0.0911,-0.143229 0.22135,-0.273438 0.13021,-0.143229 0.27344,-0.260416 0.14323,-0.130209 0.26042,-0.208334 0.18229,-0.117187 0.32552,-0.182291 0.14323,-0.07813 0.32552,-0.07813 0.14323,0 0.35156,0.0651 0.20834,0.05208 0.50781,0.169271 0.10417,0.03906 0.42969,0.221354 0.33854,0.182292 0.69011,0.442708 0.36458,0.247396 0.63802,0.546875 0.28646,0.299479 0.28646,0.585938 0,0.15625 -0.0911,0.338541 -0.0911,0.182292 -0.19531,0.403646 -0.33854,0.664063 -0.72917,1.289063 -0.39062,0.611979 -0.74219,1.132812 -0.33854,0.520833 -0.58593,0.924479 -0.23438,0.403646 -0.28646,0.651042 -0.0391,0.15625 -0.0391,0.273437 0,0.260417 0.13021,0.390625 0.13021,0.130209 0.33854,0.130209 0.19532,0 0.41667,-0.09115 0.23438,-0.09115 0.5599,-0.299479 0.32552,-0.221354 0.78125,-0.559896 0.46875,-0.351563 1.11979,-0.859375 z" />
    <path
       id="path81"
       style=""
       d="m 196.60101,87.667404 v 0.872395 q -0.85937,0.78125 -1.38021,1.041667 -0.52083,0.260417 -1.49739,0.208333 -1.69271,2.005209 -2.98177,2.005209 -0.72917,0 -1.32813,-0.481771 -0.59896,-0.481771 -0.96354,-1.315104 -0.35156,-0.833334 -0.35156,-1.861979 0,-0.833334 0.54687,-1.848959 0.5599,-1.015625 1.43229,-1.88802 0.88542,-0.885417 1.88803,-1.419271 1.0026,-0.546875 1.86197,-0.546875 0.61198,0 0.96355,0.195312 0.35156,0.182292 0.35156,0.520834 0,0.260416 -0.29948,0.598958 0.49479,0.104167 0.67708,0.351562 0.18229,0.234375 0.18229,0.872396 0,0.625 -0.29947,1.575521 -0.28646,0.950521 -0.79428,1.783854 l 0.23438,0.234375 h 0.19531 q 0.22136,0 0.42969,-0.104167 0.22135,-0.117187 0.39062,-0.234375 0.16928,-0.130208 0.74219,-0.559895 z m -2.68229,-3.424479 q -1.08073,0.651041 -1.84896,1.184895 -0.76823,0.520834 -1.30208,1.067709 -0.53386,0.533854 -0.71615,1.080729 -0.32552,1.458333 -0.32552,1.575521 0,0.859375 1.19792,0.859375 0.55989,0 1.875,-0.963542 -0.22136,-0.611979 -0.22136,-1.171875 0,-0.820313 0.33855,-1.666667 0.33854,-0.859375 1.0026,-1.966145 z" />
    <path
       id="path83"
       style=""
       d="m 207.27809,88.565841 q -1.45833,1.731771 -2.44791,2.604167 -0.98959,0.859375 -1.65365,0.859375 -0.46875,0 -0.85937,-0.182292 -0.37761,-0.182292 -0.72917,-0.572917 -0.35156,-0.390625 -0.70313,-1.002604 -0.35156,-0.625 -0.7552,-1.510416 -0.78125,0.911458 -1.25,1.432291 -0.45573,0.520834 -0.72917,0.78125 -0.26042,0.260417 -0.39063,0.325521 -0.11718,0.0651 -0.22135,0.0651 -0.20833,0 -0.41667,-0.247396 -0.19531,-0.247395 -0.35156,-0.651041 -0.15625,-0.416667 -0.26042,-0.924479 -0.0911,-0.507813 -0.0911,-1.041667 0,-0.260417 0.013,-0.46875 0.013,-0.221354 0.0911,-0.46875 0.0781,-0.247396 0.23437,-0.559896 0.16927,-0.325521 0.48177,-0.807291 0.88542,-1.380209 1.53646,-2.01823 0.65104,-0.651041 1.25,-0.651041 0.3776,0 0.63802,0.130208 0.27344,0.130208 0.27344,0.429688 0,0.130208 -0.026,0.221354 -0.026,0.09115 -0.10417,0.195312 -0.0651,0.104167 -0.19531,0.247396 -0.13021,0.130208 -0.32552,0.351563 -1.06771,1.184895 -1.57552,1.914062 -0.4948,0.729167 -0.4948,1.080729 0,0.169271 0.0781,0.260417 0.0781,0.07813 0.18229,0.07813 0.0911,0 0.32552,-0.182292 0.2474,-0.182292 0.54688,-0.455729 0.3125,-0.286458 0.65104,-0.625 0.35156,-0.338542 0.66406,-0.651042 0.3125,-0.32552 0.54688,-0.559895 0.23437,-0.247396 0.33854,-0.351563 1.6276,-1.601562 2.73437,-2.369792 1.11979,-0.78125 1.82292,-0.78125 0.19531,0 0.35156,0.130209 0.15625,0.117187 0.26042,0.338541 0.11719,0.208334 0.16927,0.494792 0.0651,0.273438 0.0651,0.585938 0,0.63802 -0.26041,1.210937 -0.26042,0.572917 -0.8073,1.145833 -0.54687,0.572917 -1.39322,1.197917 -0.83334,0.611979 -1.99219,1.328125 0.39062,0.585937 0.6901,0.859375 0.29948,0.260417 0.75521,0.260417 0.28646,0 0.57292,-0.104167 0.28646,-0.117188 0.65104,-0.377604 0.3776,-0.273438 0.87239,-0.716146 0.50782,-0.442708 1.23698,-1.119792 z m -5.14323,-0.208333 q 0.41667,-0.273438 0.9375,-0.742188 0.52084,-0.46875 0.97657,-0.989583 0.46875,-0.520833 0.78125,-1.015625 0.3125,-0.507812 0.3125,-0.859375 0,-0.260417 -0.18229,-0.260417 -0.23438,0 -0.69011,0.260417 -0.45573,0.260417 -1.01562,0.716146 -0.5599,0.455729 -1.17188,1.080729 -0.61198,0.611979 -1.17187,1.328125 0.50781,0 1.22395,0.481771 z" />
    <path
       id="path85"
       style=""
       d="m 225.0906,88.565841 -4.32292,3.554688 q -1.82292,3.151041 -3.32031,4.70052 -1.4974,1.5625 -2.22657,1.5625 -0.39062,0 -0.39062,-0.481771 0,-0.9375 0.95052,-2.395833 0.3776,-0.572917 0.85938,-1.119792 0.49479,-0.546875 0.92447,-0.95052 0.44271,-0.390625 1.15886,-0.989584 0.71614,-0.585937 0.97656,-0.807291 1.30208,-2.65625 1.875,-4.0625 -1.22396,1.302083 -2.13542,2.135416 -0.91145,0.833334 -1.67968,1.289063 -0.75521,0.442708 -1.36719,0.442708 -0.66406,0 -1.22396,-1.054687 -0.55989,-1.067709 -0.55989,-2.1875 0,-0.520834 0.23437,-1.09375 0.2474,-0.572917 0.75521,-1.223958 0.52083,-0.651042 1.3151,-1.328125 0.79427,-0.690105 1.86198,-1.341146 2.01823,-1.263021 3.13802,-1.263021 0.83334,0 0.83334,0.611979 0,0.846354 -1.8099,1.653646 -1.10677,0.481771 -2.20052,1.276042 -1.08073,0.79427 -1.75781,1.692708 -0.66407,0.885416 -0.66407,1.601562 0,0.351563 0.16928,0.559896 0.16927,0.208333 0.4427,0.208333 0.45573,0 1.04167,-0.416666 0.58594,-0.416667 1.73177,-1.471354 0.52083,-0.481771 1.38021,-1.549479 0.8724,-1.08073 1.43229,-1.640625 0.57292,-0.572917 1.02865,-0.572917 0.26041,0 0.41666,0.169271 0.16927,0.15625 0.16927,0.46875 0,0.598958 -0.48177,1.744791 -0.46875,1.132813 -1.70573,3.723959 l 3.15105,-2.291667 z" />
    <path
       id="path87"
       style=""
       d="m 226.52289,85.362716 q 1.97916,-1.796875 3.84114,-2.669271 1.86198,-0.872395 2.87761,-0.872395 0.27343,0 0.50781,0.234375 0.23437,0.221354 0.36458,0.520833 0.14323,0.299479 0.14323,0.442708 0,0.234375 -0.18229,0.351563 -0.18229,0.104166 -0.63802,0.260416 0.0911,0.208334 0.23437,0.533855 0.14323,0.32552 0.22136,0.533854 0.0781,0.195312 0.0781,0.351562 0,0.3125 -0.63802,1.171875 -0.625,0.846354 -0.88542,1.25 -0.24739,0.403646 -0.24739,0.989583 0,0.963542 0.88542,0.963542 0.91145,0 2.85156,-1.705729 v 0.794271 q -3.29427,3.658854 -4.71354,3.658854 -0.50782,0 -0.72917,-0.338542 -0.20833,-0.325521 -0.20833,-0.976562 0,-1.028646 0.74218,-2.981771 -1.90104,2.109375 -2.82552,3.007812 -0.92448,0.885417 -1.52343,0.885417 -0.28646,0 -0.71615,-0.494792 -0.42969,-0.494791 -0.76823,-1.276041 -0.32552,-0.794271 -0.32552,-1.640625 0,-0.611979 0.11719,-1.015625 0.11718,-0.416667 0.45573,-0.846354 0.33854,-0.429688 1.08073,-1.132813 z m 6.23697,-1.432291 q -3.38541,1.549479 -4.83072,2.630208 -1.4323,1.080729 -1.4323,2.226562 0,0.416667 0.14323,0.690104 0.14323,0.260417 0.39063,0.260417 0.14323,0 0.50781,-0.182292 1.36719,-0.807291 2.5,-2.096354 1.13281,-1.302083 2.72135,-3.528645 z" />
    <path
       id="path89"
       style=""
       d="m 251.95258,87.719487 v 0.846354 q -1.35417,0.859375 -2.13542,0.859375 -0.42969,0 -0.91146,-0.143229 -1.17187,1.484375 -2.01823,2.174479 -0.83333,0.690104 -1.67969,0.690104 -0.97656,0 -1.51041,-1.028646 -0.52084,-1.028645 -0.52084,-2.552083 0,-2.070312 1.25,-4.505208 1.25,-2.447917 3.00782,-4.570313 1.77083,-2.135416 3.42448,-3.528645 1.65364,-1.393229 2.23958,-1.393229 0.55989,0 0.55989,0.768229 0,3.411458 -8.75,11.901041 -0.026,0.234375 -0.026,0.924479 0,1.796875 0.96354,1.796875 0.37761,0 0.75521,-0.299479 0.39063,-0.3125 1.1849,-1.171875 -0.3125,-0.703125 -0.3125,-1.041667 0,-0.716145 0.58594,-1.549479 0.58593,-0.833333 1.32812,-1.432291 0.75521,-0.611979 1.09375,-0.611979 0.53386,0 0.53386,0.768229 0,0.585937 -0.3125,1.40625 -0.29948,0.820312 -0.88542,1.875 0.22135,0.182291 0.35156,0.273437 0.13021,0.07813 0.39063,0.07813 0.59895,0 1.39323,-0.533854 z m -6.61459,-1.953125 q 0.67709,-0.585937 1.35417,-1.380208 0.6901,-0.807292 2.00521,-2.460938 1.26302,-1.588541 1.97916,-2.643229 0.72917,-1.067708 1.09375,-1.770833 0.36459,-0.703125 0.36459,-0.963542 0,-0.195312 -0.10417,-0.195312 -0.28646,0 -1.19792,0.950521 -0.89843,0.9375 -2.05729,2.578124 -1.60156,2.265625 -2.31771,3.411459 -0.71614,1.145833 -1.11979,2.473958 z" />
    <path
       id="path91"
       style=""
       d="m 267.43434,88.643966 q -1.26302,1.653646 -2.35677,2.473958 -1.08073,0.807292 -1.86198,0.807292 -0.49479,0 -0.87239,-0.273437 -0.37761,-0.273438 -0.65105,-0.729167 -0.26041,-0.46875 -0.40364,-1.054688 -0.14323,-0.585937 -0.16927,-1.210937 -0.37761,0.338542 -0.65104,0.559896 -0.27344,0.208333 -0.54688,0.351562 -0.26042,0.130209 -0.5599,0.182292 -0.28645,0.05208 -0.67708,0.05208 -0.0781,0 -0.15625,0 -0.0781,0 -0.16927,-0.01302 -1.69271,2.005209 -2.96875,2.005209 -0.80729,0 -1.15885,-0.481771 -0.35157,-0.494792 -0.35157,-1.302083 0,-0.859375 0.35157,-1.914063 0.35156,-1.054687 0.95052,-2.1875 0.66406,-1.276041 1.15885,-2.356771 -1.52344,1.848959 -2.63021,3.151042 -1.10677,1.289062 -1.88802,2.083333 v -0.911458 q 0.91146,-0.989583 1.67969,-1.914062 0.78125,-0.9375 1.44531,-1.809896 0.67709,-0.885417 1.1849,-1.575521 0.50781,-0.690104 0.89844,-1.197917 0.40364,-0.520833 0.72916,-0.872396 0.32552,-0.364583 0.63802,-0.585937 0.32552,-0.221354 0.67709,-0.3125 0.35156,-0.104167 0.79427,-0.104167 0.44271,0 0.44271,0.338542 0,0.143229 -0.10417,0.364583 -0.0912,0.208334 -0.27344,0.46875 -0.16927,0.247396 -0.40364,0.520834 -0.22136,0.273437 -0.4948,0.546875 -0.35156,0.351562 -0.70312,0.78125 -0.33854,0.416666 -0.69011,0.95052 -0.33854,0.520834 -0.71614,1.158855 -0.36458,0.63802 -0.78125,1.41927 -0.27344,0.507813 -0.52083,0.989584 -0.2474,0.48177 -0.44271,0.911458 -0.19532,0.416667 -0.3125,0.78125 -0.10417,0.351562 -0.10417,0.625 0,0.3125 0.18229,0.481771 0.18229,0.169271 0.61198,0.169271 0.5599,0 1.875,-0.963542 -0.15625,-0.625 -0.15625,-1.145833 0,-0.221355 0.026,-0.442709 0.026,-0.221354 0.0781,-0.442708 0.0521,-0.286458 0.18229,-0.638021 0.14323,-0.351562 0.3776,-0.651041 0.23438,-0.3125 0.54688,-0.507813 0.32552,-0.208333 0.75521,-0.208333 0.45573,0 0.70312,0.169271 0.2474,0.15625 0.2474,0.611979 0,0.546875 -0.26042,1.171875 -0.24739,0.625 -0.6901,1.367187 l 0.23437,0.234375 h 0.19531 q 0.16928,0 0.29948,-0.02604 0.13021,-0.03906 0.27344,-0.130208 0.15625,-0.104167 0.36458,-0.260417 0.20834,-0.16927 0.54688,-0.429687 l 0.0391,-0.208333 q 0.0651,-0.286459 0.11719,-0.46875 0.0521,-0.195313 0.13021,-0.377605 0.0781,-0.182291 0.20833,-0.403645 0.13021,-0.221354 0.35156,-0.572917 1.82292,-2.877604 3.3724,-2.877604 0.79427,0 0.79427,0.625 0,0.195312 -0.15625,0.559896 -0.15625,0.351562 -0.3776,0.742187 -0.22136,0.377604 -0.46875,0.729167 -0.2474,0.351562 -0.42969,0.520833 -0.57292,0.546875 -0.9375,0.898438 -0.35156,0.351562 -0.54688,0.611979 -0.19531,0.260416 -0.27343,0.481771 -0.0651,0.208333 -0.0651,0.46875 0,0.48177 0.32552,0.807291 0.33854,0.325521 0.9375,0.325521 0.3125,0 0.63802,-0.104167 0.32552,-0.117187 0.70313,-0.338541 0.39062,-0.234375 0.85937,-0.585938 0.46875,-0.364583 1.05469,-0.859375 z" />
    <path
       id="path93"
       style=""
       d="m 276.11924,85.336675 q -2.29167,2.552083 -2.29167,3.554687 0,0.559896 0.45573,0.559896 0.37761,0 0.97656,-0.390625 0.61198,-0.403646 1.90105,-1.419271 v 0.898437 q -1.84896,1.822917 -2.83855,2.630209 -0.98958,0.807291 -1.61458,0.807291 -1.06771,0 -1.06771,-1.40625 0,-0.416666 0.13021,-0.820312 0.13021,-0.403646 0.35156,-0.833333 0.23438,-0.442709 0.70313,-1.25 0.46875,-0.820313 1.08073,-1.848959 -0.74219,0.377605 -1.86198,1.497396 -0.72917,0.703125 -1.23698,1.341146 -0.50781,0.625 -1.09375,1.40625 -0.57292,0.768229 -0.84635,1.041667 -0.26042,0.260416 -0.53386,0.260416 -0.41667,0 -0.76823,-0.872396 -0.35156,-0.872395 -0.35156,-2.03125 0,-0.716145 0.15625,-1.119791 0.16927,-0.403646 0.65104,-1.145833 0.89844,-1.380209 1.54948,-2.01823 0.65104,-0.651041 1.25,-0.651041 0.41667,0 0.66406,0.143229 0.26042,0.143229 0.26042,0.442708 0,0.130209 -0.0781,0.273438 -0.0781,0.143229 -0.18229,0.260416 -0.0911,0.117188 -0.40364,0.45573 -2.05729,2.278645 -2.05729,2.955729 0,0.377604 0.24739,0.377604 0.15625,0 0.59896,-0.494792 0.45573,-0.507812 1.15885,-1.315104 0.71615,-0.820312 1.67969,-1.705729 0.97656,-0.885417 2.21354,-1.705729 0.69011,-0.481771 1.14584,-0.481771 0.20833,0 0.40364,0.572917 0.20834,0.572916 0.20834,1.158854 0,0.286458 -0.5599,0.872396 z" />
    <path
       id="path95"
       style=""
       d="m 279.16612,88.162195 v 0.325521 q 0,0.768229 0.3776,1.197917 0.37761,0.429687 0.98958,0.429687 0.63803,0 1.31511,-0.299479 0.6901,-0.299479 1.36719,-0.794271 0.67708,-0.494791 1.65364,-1.328125 v 0.794271 q -1.47135,1.770833 -2.76041,2.721354 -1.28907,0.9375 -2.61719,0.9375 -1.15886,0 -1.83594,-0.898437 -0.67708,-0.898438 -0.67708,-2.460938 0,-1.367187 0.63802,-2.473958 0.63802,-1.119792 2.08333,-2.356771 0.98958,-0.846354 1.96615,-1.276041 0.97656,-0.429688 1.74479,-0.429688 0.61198,0 0.96354,0.286458 0.36458,0.273438 0.36458,0.833334 0,0.820312 -0.61198,1.640625 -0.61197,0.807291 -1.875,1.614583 -1.25,0.794271 -3.08593,1.536458 z m 0.13021,-0.846354 q 1.17187,-0.455729 2.0052,-1.132812 0.83334,-0.677084 1.22396,-1.289063 0.40365,-0.625 0.40365,-0.911458 0,-0.299479 -0.27344,-0.299479 -0.23437,0 -0.76823,0.299479 -0.52083,0.299479 -1.06771,0.78125 -0.53385,0.481771 -0.96354,1.132812 -0.42969,0.651042 -0.55989,1.419271 z" />
    <path
       id="path97"
       style=""
       d="m 291.0281,86.808029 q -1.88802,2.5 -2.87761,3.554687 -0.97656,1.054688 -1.60156,1.054688 -0.49479,0 -0.91146,-0.403646 -0.41667,-0.416667 -0.65104,-1.106771 -0.22135,-0.703125 -0.22135,-1.497396 0,-0.520833 0.0911,-0.9375 0.10417,-0.416667 0.37761,-0.911458 0.27343,-0.507813 0.71614,-1.09375 0.45573,-0.585938 1.10677,-1.328125 0.39063,-0.455729 0.65104,-0.768229 0.27344,-0.3125 0.52084,-0.416667 0.26041,-0.117187 0.83333,-0.117187 0.41667,0 0.79427,0.117187 0.37761,0.104167 0.37761,0.221354 0,0.234375 -0.39063,0.846354 -0.3776,0.61198 -1.23698,1.497396 -0.84635,0.872396 -1.96614,1.71875 -0.2474,0.768229 -0.2474,1.171875 0,0.559896 0.42969,0.559896 0.15625,0 0.52083,-0.260417 0.36458,-0.273437 1.22396,-1.028646 0.87239,-0.768229 1.5625,-1.354166 0.50781,-0.442708 1.17187,-1.315104 0.67709,-0.885417 1.09375,-1.328125 0.96355,-1.015625 1.31511,-1.315104 0.35156,-0.3125 0.67708,-0.3125 0.3125,0 0.41667,0.195312 0.11719,0.195313 0.11719,0.794271 0,0.273437 -0.0521,0.442708 -0.0521,0.169271 -0.22135,0.442709 -0.15625,0.260416 -0.65104,0.976562 -0.4948,0.716146 -1.17188,1.692708 -0.36458,0.520834 -0.63802,1.145834 -0.27344,0.611979 -0.27344,0.924479 0,0.677083 0.53386,0.677083 0.44271,0 1.02864,-0.364583 0.58594,-0.364584 1.79688,-1.315104 v 0.872395 q -1.52344,1.40625 -2.25261,2.044271 -0.72916,0.638021 -1.26302,0.963542 -0.53385,0.325521 -1.01562,0.325521 -1.09375,0 -1.09375,-1.302084 0,-0.494791 0.32552,-1.328125 0.32552,-0.846354 1.05469,-2.434895 z m -0.33855,-8.945313 q 0.32553,0 0.8073,0.481771 0.49479,0.46875 0.9375,0.677084 0.45573,0.195312 1.05468,0.195312 1.09375,0 2.16146,-0.846354 0.48177,-0.403646 0.71615,-0.403646 0.23437,0 0.39062,0.169271 0.16927,0.169271 0.16927,0.46875 0,0.507812 -0.52083,1.119791 -0.50781,0.598959 -1.38021,1.028646 -0.85937,0.416667 -1.77083,0.416667 -1.35417,0 -2.29167,-0.859375 -0.9375,-0.859375 -0.9375,-1.679687 0,-0.3125 0.18229,-0.533855 0.19532,-0.234375 0.48177,-0.234375 z" />
    <path
       id="path99"
       style=""
       d="m 302.52548,88.696049 v -0.846354 q 0.70313,-0.833333 1.06771,-1.41927 -0.41667,-0.14323 -0.61198,-0.351563 -0.18229,-0.208333 -0.18229,-0.625 0,-0.46875 0.39062,-1.184896 0.39063,-0.716146 0.96355,-1.341146 0.57291,-0.625 1.04166,-0.807291 0.18229,-0.09115 0.35157,-0.09115 0.26041,0 0.26041,0.247396 0,0.221354 -0.40364,0.898437 2.68229,-0.416666 3.38541,-0.416666 0.27344,0 0.37761,0.05208 0.22135,0.117187 0.36458,0.546875 0.14323,0.429687 0.14323,0.859375 0,0.273437 -0.2474,0.598958 -0.23437,0.3125 -0.82031,0.924479 -0.6901,0.742188 -1.15885,1.614584 -0.46875,0.872395 -0.46875,1.315104 0,0.611979 0.75521,0.611979 0.79427,0 2.76041,-1.614583 v 0.872395 q -1.08073,1.132813 -1.78385,1.783855 -0.70313,0.651041 -1.30209,1.041666 -0.59895,0.377604 -1.0677,0.377604 -0.54688,0 -0.91146,-0.494791 -0.36459,-0.507813 -0.36459,-1.458334 0,-0.559895 0.28646,-1.276041 0.28646,-0.716146 0.83334,-1.549479 0.55989,-0.846354 1.25,-1.679688 -0.36459,0.07813 -0.82032,0.169271 -0.45573,0.07813 -0.96354,0.169271 -0.50781,0.09115 -0.78125,0.143229 -0.80729,1.614583 -2.34375,2.929687 z" />
    <path
       id="path101"
       style=""
       d="m 311.99163,85.362716 q 1.97916,-1.796875 3.84114,-2.669271 1.86198,-0.872395 2.87761,-0.872395 0.27344,0 0.50781,0.234375 0.23438,0.221354 0.36458,0.520833 0.14323,0.299479 0.14323,0.442708 0,0.234375 -0.18229,0.351563 -0.18229,0.104166 -0.63802,0.260416 0.0912,0.208334 0.23438,0.533855 0.14322,0.32552 0.22135,0.533854 0.0781,0.195312 0.0781,0.351562 0,0.3125 -0.63802,1.171875 -0.625,0.846354 -0.88541,1.25 -0.2474,0.403646 -0.2474,0.989583 0,0.963542 0.88542,0.963542 0.91146,0 2.85156,-1.705729 v 0.794271 q -3.29427,3.658854 -4.71354,3.658854 -0.50781,0 -0.72917,-0.338542 -0.20833,-0.325521 -0.20833,-0.976562 0,-1.028646 0.74219,-2.981771 -1.90105,2.109375 -2.82552,3.007812 -0.92448,0.885417 -1.52344,0.885417 -0.28646,0 -0.71615,-0.494792 -0.42969,-0.494791 -0.76823,-1.276041 -0.32552,-0.794271 -0.32552,-1.640625 0,-0.611979 0.11719,-1.015625 0.11719,-0.416667 0.45573,-0.846354 0.33854,-0.429688 1.08073,-1.132813 z m 6.23698,-1.432291 q -3.38542,1.549479 -4.83073,2.630208 -1.43229,1.080729 -1.43229,2.226562 0,0.416667 0.14323,0.690104 0.14322,0.260417 0.39062,0.260417 0.14323,0 0.50781,-0.182292 1.36719,-0.807291 2.5,-2.096354 1.13282,-1.302083 2.72136,-3.528645 z" />
    <path
       id="path103"
       style=""
       d="m 334.75205,87.667404 v 0.872395 q -0.41666,0.377605 -0.71614,0.625 -0.28646,0.234375 -0.5599,0.377605 -0.27343,0.143229 -0.57291,0.208333 -0.29948,0.05208 -0.71615,0.05208 -0.14323,0 -0.29948,-0.03906 -1.70573,2.03125 -2.99479,2.03125 -0.54688,0 -1.02865,-0.273438 -0.46875,-0.286458 -0.83333,-0.78125 -0.36458,-0.494791 -0.57292,-1.158854 -0.20833,-0.664062 -0.20833,-1.445312 0,-0.06511 0,-0.130209 0,-0.07813 0.013,-0.143229 -0.57292,0.195313 -1.17187,0.546875 -0.59896,0.351563 -1.19792,0.794271 -0.58594,0.442708 -1.15885,0.950521 -0.57292,0.507812 -1.10678,1.028646 -0.10416,0.104166 -0.29947,0.195312 -0.19532,0.07813 -0.39063,0.07813 -0.26042,0 -0.44271,-0.143229 -0.18229,-0.15625 -0.18229,-0.572917 0,-0.286458 0.15625,-0.846354 0.14323,-0.572917 0.3776,-1.236979 0.23438,-0.664063 0.53386,-1.328125 0.29948,-0.664063 0.59896,-1.132812 0.88541,-1.380209 1.53646,-2.01823 0.66406,-0.651041 1.25,-0.651041 0.3776,0 0.63802,0.130208 0.27343,0.130208 0.27343,0.429688 0,0.130208 -0.026,0.221354 -0.026,0.09115 -0.10416,0.195312 -0.0781,0.09115 -0.20834,0.234375 -0.11719,0.143229 -0.3125,0.364584 -0.58594,0.664062 -0.97656,1.145833 -0.3776,0.481771 -0.65104,0.898437 -0.27344,0.403646 -0.48177,0.807292 -0.20834,0.403646 -0.44271,0.924479 0.67708,-0.794271 1.77083,-1.575521 1.10677,-0.78125 2.73438,-1.328125 0.41666,-0.677083 1.0026,-1.315104 0.59896,-0.638021 1.26302,-1.132812 0.67709,-0.494792 1.38021,-0.794271 0.70313,-0.299479 1.35417,-0.299479 0.625,0 0.96354,0.195312 0.35156,0.182292 0.35156,0.520834 0,0.260416 -0.29948,0.598958 0.2474,0.05208 0.41667,0.130208 0.16927,0.07813 0.26042,0.221354 0.10416,0.130209 0.14322,0.351563 0.0391,0.208333 0.0391,0.520833 0,0.299479 -0.0781,0.716146 -0.0781,0.403646 -0.22135,0.859375 -0.14323,0.455729 -0.35156,0.924479 -0.19532,0.455729 -0.44271,0.859375 0.026,0.130208 0.11718,0.182292 0.0912,0.05208 0.3125,0.05208 0.22136,0 0.42969,-0.104167 0.20834,-0.117187 0.39063,-0.234375 z m -3.24218,-3.515625 q -0.57292,0.234375 -1.09375,0.585937 -0.52084,0.351563 -0.82032,0.651042 0.16928,0.169271 0.16928,0.46875 0,0.299479 -0.10417,0.507812 -0.10417,0.208334 -0.29948,0.377604 -0.18229,0.15625 -0.45573,0.29948 -0.27344,0.130208 -0.61198,0.273437 -0.0651,0.182292 -0.14323,0.429688 -0.0651,0.247395 -0.13021,0.507812 -0.0651,0.247396 -0.10416,0.494792 -0.0391,0.234375 -0.0391,0.403646 0,0.859375 1.19792,0.859375 0.5599,0 1.875,-0.963542 -0.22135,-0.729167 -0.22135,-1.171875 0,-0.481771 0.0651,-0.976563 0.0781,-0.507812 0.18229,-0.976562 0.11719,-0.481771 0.2474,-0.924479 0.14323,-0.455729 0.28646,-0.846354 z" />
  </g>
</svg>
