<?xml version="1.0" encoding="UTF-8" standalone="no"?>
<svg
   xmlns:dc="http://purl.org/dc/elements/1.1/"
   xmlns:cc="http://creativecommons.org/ns#"
   xmlns:rdf="http://www.w3.org/1999/02/22-rdf-syntax-ns#"
   xmlns:svg="http://www.w3.org/2000/svg"
   xmlns="http://www.w3.org/2000/svg"
   id="svg2"
   version="1.1"
   viewBox="160.10362 5.2976071 264.25781 94.036463">
  <metadata
     id="metadata11">
    <rdf:RDF>
      <cc:Work
         rdf:about="">
        <dc:format>image/svg+xml</dc:format>
        <dc:type
           rdf:resource="http://purl.org/dc/dcmitype/StillImage" />
      </cc:Work>
    </rdf:RDF>
  </metadata>
  <defs
     id="defs9" />
  <g
     id="text4521"
     style="font-style:normal;font-variant:normal;font-weight:normal;font-stretch:normal;font-size:26.66666603px;line-height:125%;font-family:'Comic Sans MS', 'Comic Sans', cursive;font-variant-ligatures:normal;font-variant-caps:normal;font-variant-numeric:normal;font-feature-settings:normal;text-align:left;letter-spacing:0px;word-spacing:0px;writing-mode:lr-tb;text-anchor:start;fill:#000000;fill-opacity:1;stroke:none;stroke-width:1px;stroke-linecap:butt;stroke-linejoin:miter;stroke-opacity:1"
     aria-label="Съешь же ещё этихмягких французскихбулок да выпей чаю">
    <path
       id="path13"
       style=""
       d="m 173.9057,10.518961 q -0.83333,0 -1.25,-0.9765622 -0.36458,-0.8333333 -0.67708,-1.015625 -0.27344,-0.1432291 -1.35417,-0.1432291 -1.88802,0 -4.19271,2.8906253 -3.125,3.880208 -3.125,7.35677 0,1.679688 1.08073,2.890625 1.10677,1.25 2.66927,1.25 1.34115,0 2.69531,-0.690104 0.75521,-0.390625 2.31771,-1.536458 0.74219,-0.546875 1.11979,-0.546875 0.5599,0 0.9375,0.429687 0.37761,0.416667 0.37761,0.9375 0,0.585938 -0.49479,1.028646 -3.4375,3.046875 -6.95313,3.046875 -2.69531,0 -4.55729,-2.070313 -1.79687,-2.005208 -1.79687,-4.739583 0,-4.414062 3.69791,-9.0494787 3.08594,-3.8671874 6.22396,-3.8671874 0.63802,0 1.14583,0.065104 0.50782,0.052083 0.89844,0.1822916 0.45573,-0.6640624 1.1849,-0.6640624 0.89843,0 1.13281,1.1848958 0.20833,1.0546874 0.20833,2.5911457 0,0.5338542 -0.28646,0.9375002 -0.35156,0.507812 -1.0026,0.507812 z" />
    <path
       id="path15"
       style=""
       d="m 191.49685,20.935628 q 0,2.34375 -1.88802,3.463541 -1.52344,0.911459 -4.04948,0.911459 -0.42969,0 -1.30209,-0.03906 -0.87239,-0.03906 -1.30208,-0.03906 -0.0651,0 -0.11719,0.01302 l -0.10416,0.01302 q -0.14323,0.02604 -0.20834,0.02604 -1.32812,0 -1.32812,-1.796875 0,-0.273438 0.14323,-1.5625 0.18229,-1.71875 0.18229,-3.268229 0,-0.9375 -0.0911,-2.539062 -0.13021,-1.888021 -0.14323,-2.591146 -1.54948,0.07813 -2.34375,0.07813 -1.39323,0 -1.96614,-0.143229 -1.13282,-0.29948 -1.13282,-1.223959 0,-0.533854 0.33855,-0.911458 0.33854,-0.377604 0.84635,-0.377604 0.2474,0 0.88542,0.09115 0.65104,0.09115 1.02864,0.09115 0.65104,0 1.62761,-0.05208 0.97656,-0.05208 1.6276,-0.05208 0.92448,0 1.27604,0.260416 0.40365,0.3125 0.40365,1.23698 0,1.393229 0.16927,3.828124 0.625,-0.02604 1.0026,-0.02604 3.03386,0 4.47917,0.78125 1.96615,1.067708 1.96615,3.828125 z m -2.51302,0 q 0,-1.5625 -1.08073,-2.070313 -0.69011,-0.325521 -2.42188,-0.325521 -0.52083,0 -1.40625,0.05208 l 0.013,0.520833 q 0.013,0.820313 -0.23437,3.932292 1.06771,0.02604 1.70573,0.02604 3.42448,0 3.42448,-2.135416 z" />
    <path
       id="path17"
       style=""
       d="m 200.07758,25.727294 q -2.94271,0 -4.76563,-1.471354 -1.99219,-1.627604 -1.99219,-4.557291 0,-3.385417 1.64063,-5.677084 1.78385,-2.5 4.76562,-2.5 2.16146,0 3.52865,0.729167 1.67969,0.898438 1.67969,2.760417 0,1.302083 -1.47136,2.369791 -0.65104,0.46875 -2.76041,1.458334 l -4.97396,2.35677 q 0.72916,1.08073 1.80989,1.627605 1.09375,0.546874 2.53907,0.546874 0.89843,0 2.10937,-0.338541 1.53646,-0.429688 1.97917,-1.119792 0.44271,-0.703125 0.95052,-0.703125 0.45573,0 0.80729,0.351563 0.36458,0.338541 0.36458,0.794271 0,1.445312 -2.33073,2.486979 -1.99218,0.885416 -3.8802,0.885416 z m -0.35157,-11.861979 q -1.58854,0 -2.64323,1.23698 -1.05468,1.223958 -1.57552,3.697916 l 3.9974,-1.901042 q 2.35677,-1.145833 3.35937,-1.992187 -1.11979,-1.041667 -3.13802,-1.041667 z" />
    <path
       id="path19"
       style=""
       d="m 226.02809,12.485107 q 0,0.260417 -0.15625,1.080729 -0.14323,0.807292 -0.14323,1.289063 0,0.898437 0.0651,2.708333 0.0781,1.809896 0.0781,2.721354 0,0.442708 -0.0651,1.341146 -0.0651,0.885417 -0.0651,1.328125 0,1.588541 -0.33855,2.109375 -0.48177,0.729166 -2.04427,0.729166 -2.31771,0 -6.92708,-0.130208 -4.60938,-0.117187 -6.92708,-0.117187 -0.50782,0 -0.89844,-0.390625 -0.39063,-0.390625 -0.39063,-0.911459 0,-0.104166 0.23438,-2.851562 0.27344,-2.942708 0.27344,-9.088542 0,-0.546875 0.36458,-0.911458 0.3776,-0.377604 0.92448,-0.377604 0.54687,0 0.91146,0.377604 0.3776,0.364583 0.3776,0.911458 0,6.796875 -0.42969,10.742188 0.96355,0.09115 2.17448,0.09115 0.33854,0 1.28907,-0.05208 0.80729,-0.02604 1.30208,-0.01302 l 0.0781,-0.02604 q 0.14323,-1.054688 0.14323,-2.526042 0,-0.976562 -0.0651,-2.903646 -0.0651,-1.940104 -0.0651,-2.903645 0,-3.476563 1.53646,-3.476563 0.53386,0 0.9375,0.364583 0.40365,0.364584 0.40365,0.885417 0,0.260417 -0.15625,1.080729 -0.14323,0.807292 -0.14323,1.289063 0,0.898437 0.0651,2.708333 0.0781,1.809896 0.0781,2.721354 0,0.442708 -0.0651,1.341146 -0.0651,0.898437 -0.0651,1.328125 v 0.09115 q 0.96354,0.09115 2.14844,0.09115 0.33854,0 1.28906,-0.05208 0.80729,-0.02604 1.30208,-0.01302 l 0.0781,-0.02604 q 0.14323,-1.054688 0.14323,-2.526042 0,-0.976562 -0.0651,-2.903646 -0.0651,-1.940104 -0.0651,-2.903645 0,-3.476563 1.53646,-3.476563 0.53385,0 0.9375,0.364583 0.40364,0.364584 0.40364,0.885417 z" />
    <path
       id="path21"
       style=""
       d="m 239.36142,20.935628 q 0,2.291666 -1.79687,3.411458 -1.52344,0.963542 -4.14063,0.963542 -0.48177,0 -1.30208,-0.02604 -0.95052,-0.05208 -1.3151,-0.05208 -0.20834,0.05208 -0.41667,0.05208 -1.32812,0 -1.32812,-1.796875 0,-0.247396 0.14322,-1.5625 0.1823,-1.744792 0.1823,-3.268229 0,-1.041667 -0.13021,-2.942708 -0.11719,-1.914063 -0.11719,-2.955729 0,-1.380209 1.26302,-1.380209 1.34115,0 1.34115,1.197917 0,1.367187 0.16927,3.776041 0.63802,-0.02604 1.0026,-0.02604 3.13802,0 4.60938,0.846354 1.83593,1.067708 1.83593,3.763021 z m -2.51302,0 q 0,-1.458334 -0.89843,-1.966146 -0.72917,-0.429688 -2.60417,-0.429688 -0.50781,0 -1.40625,0.05208 0.013,0.273437 0.013,0.520833 0,0.989583 -0.23437,3.932292 1.08072,0.02604 1.70572,0.02604 3.42448,0 3.42448,-2.135416 z" />
    <path
       id="path23"
       style=""
       d="m 265.41611,24.242919 q 0,0.46875 -0.36458,0.768229 -0.35156,0.286459 -0.83333,0.286459 -0.82032,0 -1.1198,-0.846354 -0.35156,-0.963542 -1.92708,-3.216146 -1.67969,-2.421875 -2.23958,-2.434896 -0.13021,0 -0.39063,0 0,0.559896 -0.013,1.614583 -0.013,1.09375 -0.013,1.627605 0,2.161458 -0.0521,2.460937 -0.19532,0.963542 -1.15886,0.963542 -1.18489,0 -1.18489,-1.067709 0,-0.638021 0.0521,-1.966145 0.0651,-1.341146 0.0651,-1.966146 0,-0.911459 -0.013,-1.666667 h -0.40364 q -0.53386,0 -2.22656,2.421875 -1.57553,2.265625 -1.91407,3.229167 -0.3125,0.846354 -1.13281,0.846354 -0.46875,0 -0.83333,-0.299479 -0.36459,-0.29948 -0.36459,-0.76823 0,-1.10677 1.52344,-3.372395 1.4974,-2.226563 2.76042,-3.059896 -0.66406,-0.46875 -1.60156,-2.565104 -0.82032,-1.848958 -1.62761,-1.848958 -0.75521,0 -0.75521,-0.911459 0,-0.390625 0.57292,-0.651041 0.46875,-0.221355 0.92448,-0.221355 0.87239,0 1.45833,0.690105 0.3125,0.364583 0.80729,1.41927 0.29948,0.742188 0.98959,1.901042 0.46875,0.507813 1.74479,0.546875 -0.10417,-2.135417 -0.10417,-3.255208 0,-1.588542 1.21094,-1.588542 0.50781,0 0.84635,0.3125 0.33855,0.299479 0.33855,0.78125 0,0.664063 0.0781,3.776042 1.30208,-0.02604 1.8099,-0.559896 0.22135,-0.221354 1.02864,-1.914063 0.49479,-1.041666 0.80729,-1.41927 0.58594,-0.690105 1.47136,-0.690105 0.44271,0 0.91146,0.221355 0.57291,0.260416 0.57291,0.651041 0,0.911459 -0.75521,0.911459 -0.80729,0 -1.6276,1.848958 -0.54687,1.236979 -0.63802,1.393229 -0.42969,0.794271 -0.96354,1.184896 1.26302,0.833333 2.76041,3.046875 1.52344,2.265625 1.52344,3.385416 z" />
    <path
       id="path25"
       style=""
       d="m 274.60883,25.727294 q -2.94271,0 -4.76563,-1.471354 -1.99219,-1.627604 -1.99219,-4.557291 0,-3.385417 1.64063,-5.677084 1.78385,-2.5 4.76562,-2.5 2.16146,0 3.52865,0.729167 1.67969,0.898438 1.67969,2.760417 0,1.302083 -1.47136,2.369791 -0.65104,0.46875 -2.76041,1.458334 l -4.97396,2.35677 q 0.72916,1.08073 1.80989,1.627605 1.09375,0.546874 2.53907,0.546874 0.89843,0 2.10937,-0.338541 1.53646,-0.429688 1.97917,-1.119792 0.44271,-0.703125 0.95052,-0.703125 0.45573,0 0.80729,0.351563 0.36458,0.338541 0.36458,0.794271 0,1.445312 -2.33073,2.486979 -1.99218,0.885416 -3.8802,0.885416 z m -0.35157,-11.861979 q -1.58854,0 -2.64323,1.23698 -1.05468,1.223958 -1.57552,3.697916 l 3.9974,-1.901042 q 2.35677,-1.145833 3.35937,-1.992187 -1.11979,-1.041667 -3.13802,-1.041667 z" />
    <path
       id="path27"
       style=""
       d="m 297.21298,25.727294 q -2.94271,0 -4.76562,-1.471354 -1.99219,-1.627604 -1.99219,-4.557291 0,-3.385417 1.64062,-5.677084 1.78386,-2.5 4.76563,-2.5 2.16146,0 3.52865,0.729167 1.67968,0.898438 1.67968,2.760417 0,1.302083 -1.47135,2.369791 -0.65104,0.46875 -2.76042,1.458334 l -4.97396,2.35677 q 0.72917,1.08073 1.8099,1.627605 1.09375,0.546874 2.53906,0.546874 0.89844,0 2.10938,-0.338541 1.53646,-0.429688 1.97916,-1.119792 0.44271,-0.703125 0.95052,-0.703125 0.45573,0 0.8073,0.351563 0.36458,0.338541 0.36458,0.794271 0,1.445312 -2.33073,2.486979 -1.99219,0.885416 -3.88021,0.885416 z m -0.35156,-11.861979 q -1.58854,0 -2.64323,1.23698 -1.05469,1.223958 -1.57552,3.697916 l 3.9974,-1.901042 q 2.35677,-1.145833 3.35937,-1.992187 -1.11979,-1.041667 -3.13802,-1.041667 z" />
    <path
       id="path29"
       style=""
       d="m 324.85622,24.334065 q 0,0.651042 -0.0651,1.875 -0.0521,1.236979 -0.0521,1.953125 0,0.611979 -0.39063,0.950521 -0.3776,0.351562 -0.89843,0.351562 -0.52084,0 -0.88542,-0.32552 -0.40365,-0.364584 -0.40365,-0.976563 0,-0.507812 0.0781,-2.552083 -0.29948,0 -0.8724,0.09115 -0.55989,0.09114 -0.87239,0.09114 -2.31771,0 -6.92709,-0.130208 -4.60937,-0.117187 -6.92708,-0.117187 -0.50781,0 -0.89844,-0.390625 -0.39062,-0.390625 -0.39062,-0.911459 0,-0.104166 0.23437,-2.851562 0.27344,-2.942708 0.27344,-9.088542 0,-0.546875 0.36458,-0.911458 0.37761,-0.377604 0.92448,-0.377604 0.54688,0 0.91146,0.377604 0.37761,0.364583 0.37761,0.911458 0,6.796875 -0.42969,10.742188 0.96354,0.09115 2.17448,0.09115 0.33854,0 1.28906,-0.05208 0.80729,-0.02604 1.30208,-0.01302 l 0.0781,-0.02604 q 0.14323,-1.054688 0.14323,-2.526042 0,-0.976562 -0.0651,-2.903646 -0.0651,-1.940104 -0.0651,-2.903645 0,-3.476563 1.53646,-3.476563 0.53385,0 0.9375,0.364583 0.40364,0.364584 0.40364,0.885417 0,0.260417 -0.15625,1.080729 -0.14323,0.807292 -0.14323,1.289063 0,0.898437 0.0651,2.708333 0.0781,1.809896 0.0781,2.721354 0,0.442708 -0.0651,1.341146 -0.0651,0.898437 -0.0651,1.328125 v 0.09115 q 0.96355,0.09115 2.14844,0.09115 1.58854,0 2.66927,-0.169271 0.14323,-1.015625 0.14323,-2.447917 0,-0.976562 -0.0651,-2.903646 -0.0651,-1.940104 -0.0651,-2.903645 0,-3.476563 1.53646,-3.476563 0.53386,0 0.9375,0.364583 0.40365,0.364584 0.40365,0.885417 0,0.260417 -0.15625,1.080729 -0.14323,0.807292 -0.14323,1.289063 0,0.898437 0.0651,2.708333 0.0781,1.809896 0.0781,2.721354 0,0.442708 -0.0651,1.341146 -0.0651,0.898437 -0.0651,1.328125 v 0.07813 h 0.67708 q 0.52084,0 0.91146,0.390625 0.39063,0.390625 0.39063,0.911458 z" />
    <path
       id="path31"
       style=""
       d="m 332.99423,25.727294 q -2.94271,0 -4.76562,-1.471354 -1.99219,-1.627604 -1.99219,-4.557291 0,-3.385417 1.64062,-5.677084 1.78386,-2.5 4.76563,-2.5 2.16146,0 3.52865,0.729167 1.67968,0.898438 1.67968,2.760417 0,1.302083 -1.47135,2.369791 -0.65104,0.46875 -2.76042,1.458334 l -4.97396,2.35677 q 0.72917,1.08073 1.8099,1.627605 1.09375,0.546874 2.53906,0.546874 0.89844,0 2.10938,-0.338541 1.53646,-0.429688 1.97916,-1.119792 0.44271,-0.703125 0.95052,-0.703125 0.45573,0 0.8073,0.351563 0.36458,0.338541 0.36458,0.794271 0,1.445312 -2.33073,2.486979 -1.99219,0.885416 -3.88021,0.885416 z m -0.35156,-11.861979 q -1.58854,0 -2.64323,1.23698 -1.05469,1.223958 -1.57552,3.697916 l 3.9974,-1.901042 q 2.35677,-1.145833 3.35937,-1.992187 -1.11979,-1.041667 -3.13802,-1.041667 z m -2.61719,-7.8645828 q 1.70573,0 1.70573,1.3671875 0,0.390625 -0.57292,0.7552083 -0.52083,0.3255209 -0.97656,0.3255209 -1.60156,0 -1.60156,-1.3411459 0,-0.3776041 0.48177,-0.7421874 0.49479,-0.3645834 0.96354,-0.3645834 z m 7.01823,-0.1041666 q 0.44271,0 0.89844,0.4166666 0.45573,0.4036459 0.45573,0.7942708 0,1.1979167 -1.86198,1.1979167 -0.53386,0 -0.95052,-0.2734375 -0.46875,-0.3125 -0.46875,-0.8203125 0,-0.8984375 0.58594,-1.1588541 0.32552,-0.15625 1.34114,-0.15625 z" />
    <path
       id="path33"
       style=""
       d="m 360.20778,19.125732 q 0,2.981771 -1.62761,4.6875 -1.75781,1.848958 -5.10416,1.848958 -2.1224,0 -3.58073,-0.507812 -0.78125,-0.273438 -0.78125,-1.08073 0,-0.533854 0.36458,-0.963541 0.37761,-0.442708 0.92448,-0.442708 0.23438,0 0.45573,0.07813 1.21094,0.442708 2.61719,0.442708 1.70573,0 2.82552,-0.924479 1.08073,-0.911459 1.36719,-2.486979 -3.21615,-0.182292 -4.12761,-0.182292 -1.22396,0 -1.22396,-1.236979 0,-1.25 1.22396,-1.25 1.01563,0 4.10156,0.182291 -0.26041,-1.861979 -1.22395,-2.656249 -0.88542,-0.742188 -2.64323,-0.742188 -1.13282,0 -2.44792,0.533854 -0.39062,0.169271 -0.75521,0.169271 -0.54687,0 -0.89844,-0.3125 -0.33854,-0.3125 -0.33854,-0.768229 0,-0.533854 0.49479,-0.976563 1.27605,-1.132812 3.94532,-1.132812 3.72396,0 5.26041,2.408854 1.17188,1.822917 1.17188,5.3125 z" />
    <path
       id="path35"
       style=""
       d="m 373.20258,12.719482 q 0,0.572917 -0.36459,0.950521 -0.35156,0.364583 -0.91146,0.364583 -0.35156,0 -1.05468,-0.02604 -0.69011,-0.03906 -1.04167,-0.03906 -0.39063,0 -0.96354,0.07813 0.28646,6.861979 0.28646,9.309896 0,2.604166 -1.38021,2.604166 -0.52084,0 -0.91146,-0.338541 -0.3776,-0.338542 -0.3776,-0.846355 0,-0.494791 0.0391,-1.484375 0.0391,-0.989583 0.0391,-1.484374 0,-1.71875 -0.26042,-7.734375 -0.42968,-0.02604 -1.65364,-0.02604 -1.13281,0 -1.57552,-0.15625 -0.82032,-0.286458 -0.82032,-1.197917 0,-0.546875 0.33855,-0.9375 0.35156,-0.390625 0.91145,-0.390625 h 7.6823 q 0.96354,0 1.39323,0.195313 0.625,0.299479 0.625,1.158854 z" />
    <path
       id="path37"
       style=""
       d="m 388.85361,21.573649 q 0,0.507812 -0.0521,1.510416 -0.0521,1.002604 -0.0521,1.510417 0,0.546875 -0.37761,0.911458 -0.36458,0.377604 -0.91146,0.377604 -0.55989,0 -0.9375,-0.377604 -0.36458,-0.364583 -0.36458,-0.911458 0,-0.846354 0.0781,-2.526042 0.0781,-1.679687 0.0781,-2.526041 0,-1.601563 -0.2474,-3.046875 -1.58854,2.34375 -2.30468,3.268229 -1.38021,1.770833 -2.72136,2.916666 -1.77083,1.497396 -2.63021,2.395834 -0.6901,0.716145 -1.44531,0.716145 -0.57292,0 -0.98958,-0.299479 -0.45573,-0.338541 -0.45573,-0.898437 0,-3.710938 -0.13021,-7.734375 -0.14323,-4.179687 -0.14323,-4.075521 0,-1.328125 1.30208,-1.328125 1.10678,0 1.28907,1.25 0.026,0.195313 0.0911,2.565104 l 0.15625,6.471354 q 1.96615,-1.73177 4.10157,-4.375 0.66406,-0.820312 3.63281,-4.765624 0.76823,-1.028646 1.64062,-1.028646 0.54688,0 0.91146,0.364583 0.37761,0.364583 0.37761,0.924479 0,1.445313 0.0521,4.361979 0.0521,2.903646 0.0521,4.348959 z" />
    <path
       id="path39"
       style=""
       d="m 404.71299,13.956461 -1.90104,1.783854 -2.31771,2.304688 4.24479,5.546875 q 0.32552,0.416666 0.32552,0.820312 0,0.507813 -0.39062,0.898438 -0.39063,0.390625 -0.88542,0.390625 -0.49479,0 -0.89843,-0.481771 -1.19792,-1.393229 -4.21875,-5.364583 l -2.53907,2.617187 q -0.76823,0.690104 -2.23958,2.148437 -0.41667,0.46875 -0.89844,0.46875 -0.49479,0 -0.88541,-0.390625 -0.37761,-0.390625 -0.37761,-0.898437 0,-0.403646 0.32552,-0.820312 0.36459,-0.481771 1.13281,-1.158855 0.89844,-0.79427 1.1849,-1.09375 l 2.77344,-2.903645 -1.70573,-2.460938 q -1.02865,-1.471354 -1.79688,-2.148437 -0.49479,-0.442709 -0.49479,-0.963542 0,-0.520833 0.36459,-0.924479 0.3776,-0.403646 0.85937,-0.403646 0.76823,0 2.31771,2.005208 l 2.2526,3.11198 2.55209,-2.34375 q 1.58854,-1.497396 2.14843,-2.34375 0.41667,-0.61198 0.98959,-0.61198 0.50781,0 0.89843,0.377605 0.39063,0.377604 0.39063,0.872395 0,0.716146 -1.21094,1.966146 z" />
    <path
       id="path41"
       style=""
       d="m 178.33278,58.240318 q 0,0.429687 -0.39062,0.703125 -0.39063,0.273437 -0.85938,0.273437 -1.11979,0 -1.66666,-1.992187 -0.13021,-0.546875 -0.40365,-1.523438 -0.50781,-1.601562 -1.40625,-6.10677 -0.6901,1.783854 -2.14844,5.182291 -0.33854,0.859375 -0.67708,1.71875 -0.40365,1.028646 -0.83333,1.653646 -0.48177,0.703125 -1.31511,0.703125 -0.6901,0 -1.09375,-0.598958 -0.14323,-0.221355 -0.78125,-1.966146 -1.05468,-2.942709 -1.92708,-6.523438 l -0.33854,1.354167 q -0.50781,1.5625 -1.43229,4.726562 -0.10417,0.846355 -0.57292,2.473959 -0.35156,0.742187 -1.15885,0.742187 -1.22396,0 -1.22396,-1.054687 0,-1.497396 0.78125,-3.684896 1.14583,-3.268229 1.22396,-3.59375 0.32552,-1.432292 0.65104,-2.864583 0.49479,-1.953125 1.05468,-2.578125 0.46875,-0.533854 1.15886,-0.533854 0.75521,0 1.13281,0.690104 0.44271,0.807291 0.9375,3.268229 0.57292,2.8125 1.79688,6.223958 1.64062,-3.463542 2.79948,-7.03125 0.15625,-0.716146 0.58593,-2.096354 0.50782,-1.197917 1.52344,-1.197917 1.30208,0 1.79688,2.591146 0,0.02604 0.16927,1.067709 0.65104,4.036458 1.6276,6.88802 0.98958,2.851563 0.98958,3.085938 z" />
    <path
       id="path43"
       style=""
       d="m 191.01507,57.641359 q 0,0.546875 -0.41666,0.911459 -0.40365,0.377604 -0.96354,0.377604 -0.57292,0 -0.97657,-0.377604 -0.40364,-0.364584 -0.40364,-0.911459 0,-0.546875 -0.026,-1.471354 -0.0391,-1.276041 -0.0521,-1.705729 -1.79687,0.598958 -3.42448,1.757813 -0.88541,0.63802 -2.83854,2.330729 -0.44271,0.390625 -0.96354,0.390625 -0.5599,0 -0.97656,-0.390625 -0.41667,-0.377604 -0.41667,-0.911459 0,-1.223958 4.3099,-3.710937 -3.33334,-1.458333 -3.33334,-3.528646 0,-2.916666 3.97136,-4.804687 1.65364,-0.78125 4.66146,-0.78125 0.67708,0 1.13281,0.494791 0.46875,0.481771 0.46875,1.197917 0,1.848958 0.11719,5.559896 0.1302,3.710937 0.1302,5.572916 z m -2.8776,-5.338541 q -0.14323,-4.895833 -0.15625,-5.065104 -0.65104,0.03906 -0.84635,0.0651 -1.1198,0.117187 -2.3698,0.989583 -1.45833,1.002604 -1.47135,2.161459 0.65104,1.289062 2.10938,1.666666 0.80729,0.208333 2.73437,0.182292 z" />
    <path
       id="path45"
       style=""
       d="m 204.80414,46.026776 q 0,0.976563 -1.06771,1.25 -0.48177,0.117188 -1.875,0.117188 -0.67709,0 -2.27865,-0.09115 -1.45833,-0.07813 -2.26562,-0.0651 l -0.35157,0.01302 q 0.11719,0.872395 0.26042,2.643229 0.19531,5.63802 0.19531,7.877604 0,0.559895 -0.36458,0.924479 -0.36458,0.364583 -0.9375,0.364583 -0.5599,0 -0.92448,-0.364583 -0.36458,-0.364584 -0.36458,-0.924479 0,-2.174479 -0.18229,-7.8125 -0.013,-0.507813 -0.16928,-1.679688 -0.1302,-1.080729 -0.1302,-1.679687 0,-1.927083 3.00781,-1.927083 0.72917,0 2.20052,0.07813 1.48437,0.0651 2.21354,0.0651 0.29948,0 0.88542,-0.05208 0.59896,-0.05208 0.89844,-0.05208 0.54687,0 0.89843,0.377604 0.35157,0.377604 0.35157,0.9375 z" />
    <path
       id="path47"
       style=""
       d="m 217.77289,57.472089 q 0,0.520833 -0.41667,0.846354 -0.40364,0.32552 -0.91146,0.32552 -0.91146,0 -1.26302,-0.924479 -0.33854,-0.924479 -1.88802,-3.125 -1.65364,-2.330729 -2.13542,-2.34375 -0.1302,0 -1.5625,0 0,0.429688 -0.013,1.523438 -0.013,1.015625 -0.013,1.536458 0,2.135417 -0.0651,2.434896 -0.20833,1.054687 -1.27604,1.054687 -0.54688,0 -0.9375,-0.32552 -0.37761,-0.325521 -0.37761,-0.859375 0,-0.611979 0.0521,-1.914063 0.0521,-1.315104 0.0521,-1.940104 0,-1.236979 -0.0911,-3.710937 -0.0911,-2.473959 -0.0911,-3.723959 0,-1.679687 1.34114,-1.679687 0.54688,0 0.92448,0.338542 0.37761,0.338541 0.37761,0.859375 0,0.95052 0.0911,3.841145 0.35157,0 0.95052,0 1.58855,-0.104166 2.29167,-1.41927 0.20833,-0.481771 0.54688,-1.25 1.0026,-2.083334 2.48697,-2.083334 0.46875,0 0.97657,0.221354 0.65104,0.286459 0.65104,0.755209 0,1.028646 -0.88542,1.028646 -0.72916,0 -1.51041,1.744791 -0.54688,1.184896 -0.61198,1.315104 -0.40365,0.742188 -0.89844,1.145834 1.30208,0.924479 2.73437,3.046875 1.47136,2.174479 1.47136,3.28125 z" />
    <path
       id="path49"
       style=""
       d="m 233.17653,54.906984 q 0,0.507813 -0.0521,1.510417 -0.0521,1.002604 -0.0521,1.510417 0,0.546875 -0.37761,0.911458 -0.36458,0.377604 -0.91146,0.377604 -0.55989,0 -0.9375,-0.377604 -0.36458,-0.364583 -0.36458,-0.911458 0,-0.846354 0.0781,-2.526042 0.0781,-1.679687 0.0781,-2.526042 0,-1.601562 -0.24739,-3.046874 -1.58855,2.343749 -2.30469,3.268229 -1.38021,1.770833 -2.72136,2.916666 -1.77083,1.497396 -2.6302,2.395833 -0.69011,0.716146 -1.44532,0.716146 -0.57291,0 -0.98958,-0.299479 -0.45573,-0.338542 -0.45573,-0.898437 0,-3.710938 -0.13021,-7.734375 -0.14323,-4.179688 -0.14323,-4.075521 0,-1.328125 1.30209,-1.328125 1.10677,0 1.28906,1.25 0.026,0.195313 0.0911,2.565104 l 0.15625,6.471354 q 1.96615,-1.731771 4.10157,-4.375 0.66406,-0.820312 3.63281,-4.765625 0.76823,-1.028645 1.64062,-1.028645 0.54688,0 0.91146,0.364583 0.37761,0.364583 0.37761,0.924479 0,1.445313 0.0521,4.361979 0.0521,2.903646 0.0521,4.348958 z" />
    <path
       id="path51"
       style=""
       d="m 249.03591,47.289797 -1.90105,1.783854 -2.3177,2.304688 4.24479,5.546875 q 0.32552,0.416666 0.32552,0.820312 0,0.507813 -0.39063,0.898437 -0.39062,0.390625 -0.88541,0.390625 -0.49479,0 -0.89844,-0.48177 -1.19792,-1.393229 -4.21875,-5.364584 l -2.53906,2.617188 q -0.76823,0.690104 -2.23959,2.148437 -0.41666,0.46875 -0.89843,0.46875 -0.4948,0 -0.88542,-0.390625 -0.3776,-0.390625 -0.3776,-0.898437 0,-0.403646 0.32552,-0.820313 0.36458,-0.48177 1.13281,-1.158854 0.89844,-0.794271 1.18489,-1.09375 l 2.77344,-2.903645 -1.70573,-2.460938 q -1.02864,-1.471354 -1.79687,-2.148437 -0.49479,-0.442709 -0.49479,-0.963542 0,-0.520833 0.36458,-0.924479 0.3776,-0.403646 0.85937,-0.403646 0.76823,0 2.31771,2.005208 l 2.25261,3.111979 2.55208,-2.34375 q 1.58854,-1.497395 2.14844,-2.34375 0.41666,-0.611979 0.98958,-0.611979 0.50781,0 0.89844,0.377604 0.39062,0.377605 0.39062,0.872396 0,0.716146 -1.21093,1.966146 z" />
    <path
       id="path53"
       style=""
       d="m 279.83017,52.354901 q 0,2.773438 -1.48437,4.596354 -1.58854,1.966146 -4.29688,1.966146 -1.30208,0 -2.86458,-0.416667 -0.026,1.783854 -0.026,6.223959 0,0.559895 -0.36458,0.924479 -0.35157,0.377604 -0.91146,0.377604 -0.5599,0 -0.92448,-0.377604 -0.35156,-0.364584 -0.35156,-0.924479 0,-1.25 0.013,-3.242188 0.026,-2.591146 0.026,-3.255208 -1.32813,0.651041 -3.22917,0.651041 -2.59114,0 -4.0625,-2.20052 -1.28906,-1.914063 -1.28906,-4.622396 0,-2.773437 1.36719,-4.765625 1.54948,-2.278646 4.20573,-2.278646 0.6901,0 1.39323,0.338542 0.625,0.338542 1.25,0.677083 0.19531,-1.875 1.44531,-1.875 0.50781,0 0.84635,0.364584 0.35156,0.364583 0.35156,0.872395 0,-0.16927 -0.1302,1.171875 2.23958,-1.536458 4.15364,-1.536458 2.72136,0 3.95834,2.447917 0.92447,1.875 0.92447,4.882812 z m -2.55208,0 q 0,-4.726562 -2.33073,-4.726562 -1.18489,0 -2.14844,0.533854 -0.71614,0.390625 -1.75781,1.380208 0.16927,2.955729 0.16927,6.210938 1.41927,0.546875 2.83854,0.546875 1.61459,0 2.47396,-1.197917 0.75521,-1.054688 0.75521,-2.747396 z m -8.63281,2.760417 q -0.026,-3.697917 -0.19531,-6.002604 -0.65105,-0.481771 -1.31511,-0.963542 -0.79427,-0.546875 -1.49739,-0.546875 -1.4974,0 -2.31771,1.5625 -0.67709,1.263021 -0.67709,2.890625 0,1.575521 0.59896,2.747396 0.74219,1.484375 2.17448,1.484375 1.90104,0 2.82552,-0.872396 0.23438,-0.221354 0.40365,-0.299479 z" />
    <path
       id="path55"
       style=""
       d="m 287.91611,58.917401 q -1.30208,0 -2.86458,-0.416667 l -0.026,6.223959 q 0,0.572916 -0.36458,0.937499 -0.35157,0.364584 -0.91146,0.364584 -0.5599,0 -0.92448,-0.364584 -0.35156,-0.364583 -0.35156,-0.937499 l 0.0391,-5.208334 v -5.195312 q -0.0391,-2.851563 -0.19531,-5.195312 l -0.19532,-2.64323 q 0,-0.924479 0.33855,-1.5625 0.39062,-0.768229 1.13281,-0.768229 0.50781,0 0.84635,0.364584 0.35156,0.351562 0.35156,0.872395 0,0.117188 -0.0391,0.429688 -0.0651,0.403646 -0.0911,0.742187 1.11979,-0.768229 2.16145,-1.145833 1.04167,-0.390625 1.99219,-0.390625 2.66927,0 3.90625,2.369792 0.97656,1.875 0.97656,4.960937 0,2.8125 -1.51041,4.635417 -1.60156,1.927083 -4.27084,1.927083 z m 0.89844,-11.289062 q -1.19791,0 -2.16146,0.533854 -0.6901,0.377604 -1.74479,1.380208 0.16927,2.955729 0.16927,6.210938 1.41927,0.546875 2.83854,0.546875 1.62761,0 2.48698,-1.210938 0.74219,-1.054687 0.74219,-2.734375 0,-2.369791 -0.58594,-3.541666 -0.57291,-1.184896 -1.74479,-1.184896 z" />
    <path
       id="path57"
       style=""
       d="m 306.82237,59.321047 q -0.2474,0 -0.89844,-0.572917 -0.58594,-0.533854 -0.8724,-0.950521 -1.25,0.677084 -2.20052,1.015625 -0.95052,0.351563 -1.58854,0.351563 -3.04687,0 -4.4401,-1.71875 -1.31511,-1.614583 -1.31511,-4.947917 0,-3.151041 2.16146,-5.390625 2.17448,-2.239583 5.18229,-2.239583 1.13282,0 2.53907,0.585938 1.77083,0.729166 1.77083,1.757812 0,0.351563 -0.26042,0.625 -0.13021,0.494792 -0.20833,1.627604 -0.0651,1.132813 -0.0781,2.903646 -0.013,1.614583 0.22136,2.552083 0.13021,0.572917 0.82031,2.291667 0.0911,0.234375 0.29948,0.690104 l 0.0781,0.221354 q 0,0.520833 -0.36458,0.859375 -0.36458,0.338542 -0.84635,0.338542 z m -2.70834,-9.049479 q 0,-0.559896 0.0651,-1.210938 0.0781,-0.664062 0.22135,-1.40625 -0.48177,-0.247395 -0.83333,-0.364583 -0.33854,-0.117187 -0.54688,-0.117187 -2.01823,0 -3.48958,1.653645 -1.45833,1.640625 -1.45833,3.789063 0,2.135416 0.75521,3.203125 0.7552,1.067708 2.26562,1.067708 1.25,0 2.1224,-0.455729 0.46875,-0.247396 1.3151,-0.989583 -0.41667,-3.450521 -0.41667,-5.169271 z" />
    <path
       id="path59"
       style=""
       d="m 321.83538,57.641359 q 0,0.572917 -0.36458,0.924479 -0.36458,0.364584 -0.92448,0.364584 -0.57292,0 -0.9375,-0.364584 -0.36458,-0.351562 -0.36458,-0.924479 0,-1.002604 -0.0651,-4.830729 -0.96354,-0.03906 -0.9375,-0.03906 -3.07291,0 -5.9375,0.703125 0,0.742187 -0.13021,2.1875 -0.1302,1.393229 -0.1302,2.1875 0,0.572916 -0.36459,0.9375 -0.35156,0.364583 -0.92448,0.364583 -0.55989,0 -0.92448,-0.364583 -0.36458,-0.364584 -0.36458,-0.9375 0,-0.46875 0.11719,-1.276042 0.13021,-0.820312 0.13021,-1.289062 0,-0.78125 -0.0391,-2.34375 -0.0391,-1.575521 -0.0391,-2.356771 0,-0.833333 0,-2.421875 0.013,-1.588542 0.013,-2.421875 0,-0.572917 0.36459,-0.924479 0.36458,-0.364584 0.92448,-0.364584 0.57291,0 0.9375,0.364584 0.36458,0.351562 0.36458,0.924479 0,0.9375 0.026,2.539062 0.0391,1.770834 0.0521,2.539063 3.20313,-0.742188 6.82292,-0.598958 V 49.37313 q 0,-0.78125 0.0521,-2.018229 0.0521,-1.341146 0.0521,-2.018229 0,-0.559896 0.36458,-0.924479 0.36458,-0.364583 0.9375,-0.364583 0.5599,0 0.92448,0.364583 0.36458,0.364583 0.36458,0.924479 0,0.690104 -0.0521,2.018229 -0.0521,1.315104 -0.0521,2.018229 0,1.419271 0.0521,4.140625 0.0521,2.708334 0.0521,4.127604 z" />
    <path
       id="path61"
       style=""
       d="m 339.17914,57.576255 q 0,0.481771 -0.0912,1.432292 -0.0781,0.950521 -0.0781,1.432291 0,0.559896 -0.36459,0.92448 -0.36458,0.364583 -0.92448,0.364583 -0.57291,0 -0.9375,-0.364583 -0.35156,-0.364584 -0.35156,-0.92448 0,-0.442708 0.0912,-1.588541 h -0.19531 q -0.9375,0 -2.16146,0.07813 -1.28907,0.07813 -2.14844,0.07813 -0.83333,0 -2.5,-0.0651 -1.65365,-0.06511 -2.48698,-0.06511 -0.52083,0 -0.91146,-0.390625 -0.3776,-0.390624 -0.3776,-0.911458 0,0.03906 0.23437,-2.851562 0.27344,-3.098959 0.27344,-9.088542 0,-0.572916 0.35156,-0.924479 0.36459,-0.364583 0.9375,-0.364583 0.5599,0 0.92448,0.364583 0.36459,0.351563 0.36459,0.924479 0,6.809896 -0.42969,10.742188 0.96354,0.09115 2.17448,0.09115 0.63802,0 2.14843,-0.0651 1.15886,-0.03906 2.13542,0 l 0.0781,-0.02604 q 0.14323,-1.041667 0.14323,-2.526042 0,-0.976563 -0.0651,-2.903646 -0.0651,-1.940104 -0.0651,-2.903646 0,-3.476562 1.53646,-3.476562 0.53385,0 0.9375,0.364583 0.40364,0.364584 0.40364,0.885417 0,0.195312 -0.0781,0.455729 -0.22136,0.768229 -0.22136,1.914063 0,0.898437 0.0651,2.708333 0.0781,1.809896 0.0781,2.721354 0,1.601562 -0.13021,2.669271 1.64063,-0.03906 1.64063,1.289062 z" />
    <path
       id="path63"
       style=""
       d="m 353.11142,46.847089 -4.50521,9.739583 q -1.66667,3.554687 -2.55208,5.950521 l -0.85938,2.526041 q -0.33854,0.9375 -1.17187,0.9375 -0.54688,0 -0.95052,-0.364583 -0.39063,-0.351563 -0.39063,-0.885417 0,-1.302083 2.8125,-7.539062 l -4.66146,-8.971354 -0.58593,-0.950521 q -0.35157,-0.598958 -0.35157,-1.002604 0,-0.533854 0.40365,-0.9375 0.41667,-0.403646 0.92448,-0.403646 0.59896,0 0.92448,0.455729 2.21354,3.072917 4.7526,8.75 l 1.92709,-4.492187 q 1.04166,-2.330729 2.0052,-4.010417 0.41667,-0.729167 1.09375,-0.729167 0.53386,0 0.9375,0.377605 0.41667,0.377604 0.41667,0.898437 0,0.286458 -0.16927,0.651042 z" />
    <path
       id="path65"
       style=""
       d="m 364.19215,54.607505 q 0,2.057292 -1.21094,3.268229 -1.19792,1.197917 -3.22917,1.197917 -1.64062,0 -2.8125,-0.403646 -1.70572,-0.585937 -1.70572,-1.861979 0,-0.351562 0.3776,-0.755208 0.39062,-0.403646 0.74219,-0.403646 0.52083,0 1.5625,0.481771 1.05468,0.46875 1.83593,0.46875 0.71615,0 1.34115,-0.625 0.63802,-0.638021 0.63802,-1.367188 0,-0.950521 -0.97656,-1.458333 -0.33854,-0.182292 -1.8099,-0.585938 -1.22396,-0.338541 -1.22396,-0.872395 0,-0.755209 0.625,-1.028646 0.27344,-0.104167 1.26303,-0.234375 0.95052,-0.104167 1.35416,-0.390625 0.63802,-0.442708 0.63802,-1.497396 0,-1.549479 -2.51302,-1.549479 -0.58594,0 -1.28906,0.533854 -0.70313,0.520833 -1.17188,0.520833 -0.50781,0 -0.89843,-0.32552 -0.37761,-0.325521 -0.37761,-0.807292 0,-0.898438 1.44532,-1.692708 1.27604,-0.703125 2.29166,-0.703125 1.86198,0 3.32031,0.846354 1.71875,1.015625 1.71875,2.734375 0,2.252604 -1.45833,3.4375 1.52344,1.601562 1.52344,3.072916 z" />
    <path
       id="path67"
       style=""
       d="m 373.26767,59.281984 q -2.66927,0 -4.45313,-1.614583 -1.875,-1.692708 -1.875,-4.466146 0,-2.643229 1.75782,-5.455729 1.95312,-3.125 4.40104,-3.125 1.27604,0 2.85156,0.598959 1.99219,0.768229 1.99219,1.875 0,0.494791 -0.32552,0.885416 -0.32552,0.377604 -0.80729,0.377604 -0.37761,0 -0.66407,-0.221354 -0.27343,-0.234375 -0.53385,-0.455729 -0.76823,-0.611979 -2.51302,-0.611979 -1.32813,0 -2.63021,2.369792 -1.1849,2.174479 -1.1849,3.76302 0,1.71875 1.17188,2.708334 1.09375,0.924479 2.8125,0.924479 0.78125,0 1.66667,-0.416667 l 1.51041,-0.807292 q 0.39063,-0.208333 0.5599,-0.208333 0.48177,0 0.83333,0.390625 0.35156,0.377604 0.35156,0.872396 0,0.950521 -2.0052,1.835937 -1.75782,0.78125 -2.91667,0.78125 z" />
    <path
       id="path69"
       style=""
       d="m 391.88747,57.472089 q 0,0.520833 -0.41667,0.846354 -0.40365,0.32552 -0.91146,0.32552 -0.91146,0 -1.26302,-0.924479 -0.33854,-0.924479 -1.88802,-3.125 -1.65365,-2.330729 -2.13542,-2.34375 -0.13021,0 -1.5625,0 0,0.429688 -0.013,1.523438 -0.013,1.015625 -0.013,1.536458 0,2.135417 -0.0651,2.434896 -0.20834,1.054687 -1.27604,1.054687 -0.54688,0 -0.9375,-0.32552 -0.37761,-0.325521 -0.37761,-0.859375 0,-0.611979 0.0521,-1.914063 0.0521,-1.315104 0.0521,-1.940104 0,-1.236979 -0.0911,-3.710937 -0.0911,-2.473959 -0.0911,-3.723959 0,-1.679687 1.34114,-1.679687 0.54688,0 0.92448,0.338542 0.37761,0.338541 0.37761,0.859375 0,0.95052 0.0911,3.841145 0.35156,0 0.95052,0 1.58854,-0.104166 2.29167,-1.41927 0.20833,-0.481771 0.54687,-1.25 1.00261,-2.083334 2.48698,-2.083334 0.46875,0 0.97657,0.221354 0.65104,0.286459 0.65104,0.755209 0,1.028646 -0.88542,1.028646 -0.72917,0 -1.51042,1.744791 -0.54687,1.184896 -0.61198,1.315104 -0.40364,0.742188 -0.89843,1.145834 1.30208,0.924479 2.73437,3.046875 1.47136,2.174479 1.47136,3.28125 z" />
    <path
       id="path71"
       style=""
       d="m 407.29111,54.906984 q 0,0.507813 -0.0521,1.510417 -0.0521,1.002604 -0.0521,1.510417 0,0.546875 -0.37761,0.911458 -0.36458,0.377604 -0.91146,0.377604 -0.55989,0 -0.9375,-0.377604 -0.36458,-0.364583 -0.36458,-0.911458 0,-0.846354 0.0781,-2.526042 0.0781,-1.679687 0.0781,-2.526042 0,-1.601562 -0.2474,-3.046874 -1.58854,2.343749 -2.30468,3.268229 -1.38021,1.770833 -2.72136,2.916666 -1.77083,1.497396 -2.63021,2.395833 -0.6901,0.716146 -1.44531,0.716146 -0.57292,0 -0.98958,-0.299479 -0.45573,-0.338542 -0.45573,-0.898437 0,-3.710938 -0.13021,-7.734375 -0.14323,-4.179688 -0.14323,-4.075521 0,-1.328125 1.30208,-1.328125 1.10678,0 1.28907,1.25 0.026,0.195313 0.0911,2.565104 l 0.15625,6.471354 q 1.96615,-1.731771 4.10157,-4.375 0.66406,-0.820312 3.63281,-4.765625 0.76823,-1.028645 1.64062,-1.028645 0.54688,0 0.91146,0.364583 0.37761,0.364583 0.37761,0.924479 0,1.445313 0.0521,4.361979 0.0521,2.903646 0.0521,4.348958 z" />
    <path
       id="path73"
       style=""
       d="m 423.15049,47.289797 -1.90104,1.783854 -2.31771,2.304688 4.24479,5.546875 q 0.32552,0.416666 0.32552,0.820312 0,0.507813 -0.39062,0.898437 -0.39063,0.390625 -0.88542,0.390625 -0.49479,0 -0.89843,-0.48177 -1.19792,-1.393229 -4.21875,-5.364584 l -2.53907,2.617188 q -0.76823,0.690104 -2.23958,2.148437 -0.41667,0.46875 -0.89844,0.46875 -0.49479,0 -0.88541,-0.390625 -0.37761,-0.390625 -0.37761,-0.898437 0,-0.403646 0.32552,-0.820313 0.36459,-0.48177 1.13281,-1.158854 0.89844,-0.794271 1.1849,-1.09375 l 2.77344,-2.903645 -1.70573,-2.460938 q -1.02865,-1.471354 -1.79688,-2.148437 -0.49479,-0.442709 -0.49479,-0.963542 0,-0.520833 0.36459,-0.924479 0.3776,-0.403646 0.85937,-0.403646 0.76823,0 2.31771,2.005208 l 2.2526,3.111979 2.55209,-2.34375 q 1.58854,-1.497395 2.14843,-2.34375 0.41667,-0.611979 0.98959,-0.611979 0.50781,0 0.89843,0.377604 0.39063,0.377605 0.39063,0.872396 0,0.716146 -1.21094,1.966146 z" />
    <path
       id="path75"
       style=""
       d="m 172.9682,72.953862 q 0,1.302084 -1.9401,1.888021 -0.28646,0.07813 -1.92709,0.07813 -2.55208,0 -3.76302,1.328125 -0.66406,0.729167 -1.48437,3.007813 1.35416,-0.963542 3.32031,-0.963542 2.53906,0 3.88021,2.265625 1.09375,1.875 1.09375,4.596354 0,2.929687 -1.47136,5.026041 -1.65364,2.382813 -4.45312,2.382813 -3.02083,0 -4.47917,-2.552083 -1.22396,-2.135417 -1.22396,-5.78125 0,-3.515625 1.35417,-6.796875 1.66667,-4.036458 4.57031,-4.778646 0.54688,-0.143229 2.08334,-0.143229 1.40625,-0.01302 1.90104,-0.208333 0.23437,-1.080729 1.01562,-1.080729 0.59896,0 1.05469,0.559895 0.46875,0.559896 0.46875,1.171875 z m -3.22917,12.421875 q 0,-4.440104 -2.73437,-4.440104 -1.86198,0 -2.91667,1.731771 -0.91146,1.471354 -0.91146,3.450521 0,1.523437 0.75521,2.591145 0.84636,1.223959 2.29167,1.223959 1.77083,0 2.72135,-1.458334 0.79427,-1.236979 0.79427,-3.098958 z" />
    <path
       id="path77"
       style=""
       d="m 186.70518,80.180425 -4.50521,9.739583 q -1.66667,3.554687 -2.55208,5.95052 l -0.85938,2.526042 q -0.33854,0.9375 -1.17187,0.9375 -0.54688,0 -0.95052,-0.364583 -0.39063,-0.351563 -0.39063,-0.885417 0,-1.302083 2.8125,-7.539062 l -4.66146,-8.971354 -0.58593,-0.950521 q -0.35157,-0.598958 -0.35157,-1.002604 0,-0.533854 0.40365,-0.9375 0.41667,-0.403646 0.92448,-0.403646 0.59896,0 0.92448,0.455729 2.21354,3.072917 4.7526,8.75 l 1.92708,-4.492187 q 1.04167,-2.33073 2.00521,-4.010417 0.41667,-0.729167 1.09375,-0.729167 0.53386,0 0.9375,0.377605 0.41667,0.377604 0.41667,0.898437 0,0.286458 -0.16927,0.651042 z" />
    <path
       id="path79"
       style=""
       d="m 202.85101,91.013758 q 0,0.559896 -0.36458,0.924479 -0.36458,0.364583 -0.9375,0.364583 -0.5599,0 -0.92448,-0.364583 -0.36458,-0.364583 -0.36458,-0.924479 0,-0.429688 -0.0651,-1.158854 -0.0781,-0.833334 -0.0911,-1.145834 -0.0391,-1.054687 -0.0391,-2.708333 0,0.403646 0.0521,-5.234375 -0.85938,0.117188 -1.73177,0.117188 -2.17448,0 -4.21875,-0.07813 0,0.533854 0.013,1.627604 0.013,1.080729 0.013,1.627604 0,4.114583 -0.46875,5.638021 -0.79427,2.51302 -3.30729,2.51302 -0.97657,0 -1.70573,-0.403645 -0.8724,-0.494792 -0.8724,-1.40625 0,-0.481771 0.29948,-0.820313 0.3125,-0.338542 0.80729,-0.338542 0.26042,0 0.74219,0.195313 0.48177,0.195312 0.72917,0.195312 0.95052,0 1.25,-1.367187 0.15625,-0.78125 0.15625,-2.747396 0,-1.015625 -0.14323,-3.046875 -0.13021,-2.03125 -0.13021,-3.033854 0,-0.585937 0.39062,-0.9375 0.40365,-0.351562 0.98959,-0.351562 0.33854,0 0.89843,0.03906 0.70313,0.05208 0.91146,0.05208 1.43229,0.0651 3.64584,0.0651 0.48177,0 1.43229,-0.182292 0.95052,-0.182292 1.44531,-0.182292 1.44531,0 1.44531,1.25 0,1.132813 -0.0391,3.385417 -0.026,2.252604 -0.026,3.385417 0,1.588541 0.0391,2.656249 0.013,0.325521 0.0911,1.197917 0.0781,0.755208 0.0781,1.197917 z" />
    <path
       id="path81"
       style=""
       d="m 219.58278,83.735112 q 0,3.216146 -1.79687,5.833333 -2.09636,3.033854 -5.46875,3.033854 -2.76042,0 -4.6875,-1.627604 -2.04427,-1.71875 -2.04427,-4.453125 0,-3.216145 1.96614,-5.872395 2.20052,-2.994792 5.57292,-2.994792 6.45833,0 6.45833,6.080729 z m -2.70833,0 q 0,-1.979167 -0.84635,-2.721354 -0.83334,-0.742188 -2.90365,-0.742188 -2.00521,0 -3.46354,2.01823 -1.36719,1.914062 -1.36719,4.23177 0,1.5625 1.1849,2.539063 1.13281,0.924479 2.83854,0.924479 1.97917,0 3.32031,-2.018229 1.23698,-1.861979 1.23698,-4.231771 z" />
    <path
       id="path83"
       style=""
       d="m 233.08539,90.805424 q 0,0.520834 -0.41667,0.846355 -0.40364,0.32552 -0.91146,0.32552 -0.91146,0 -1.26302,-0.924479 -0.33854,-0.924479 -1.88802,-3.125 -1.65364,-2.330729 -2.13542,-2.34375 -0.1302,0 -1.5625,0 0,0.429688 -0.013,1.523438 -0.013,1.015625 -0.013,1.536458 0,2.135417 -0.0651,2.434896 -0.20833,1.054687 -1.27604,1.054687 -0.54688,0 -0.9375,-0.32552 -0.37761,-0.325521 -0.37761,-0.859375 0,-0.61198 0.0521,-1.914063 0.0521,-1.315104 0.0521,-1.940104 0,-1.236979 -0.0911,-3.710937 -0.0911,-2.473959 -0.0911,-3.723959 0,-1.679687 1.34114,-1.679687 0.54688,0 0.92448,0.338542 0.37761,0.338541 0.37761,0.859375 0,0.95052 0.0911,3.841145 0.35157,0 0.95052,0 1.58855,-0.104166 2.29167,-1.419271 0.20833,-0.48177 0.54688,-1.25 1.0026,-2.083333 2.48697,-2.083333 0.46875,0 0.97657,0.221354 0.65104,0.286459 0.65104,0.755209 0,1.028645 -0.88542,1.028645 -0.72916,0 -1.51041,1.744792 -0.54688,1.184896 -0.61198,1.315104 -0.40365,0.742188 -0.89844,1.145834 1.30208,0.924479 2.73437,3.046874 1.47136,2.17448 1.47136,3.28125 z" />
    <path
       id="path85"
       style=""
       d="m 256.75726,93.826258 q 0,0.559895 -0.36458,0.924479 -0.36458,0.364583 -0.92448,0.364583 -1.34115,0 -1.34115,-2.135416 0,-0.182292 0.013,-0.625 0,-0.377605 0,-0.559896 h -7.22657 q -0.40364,0 -1.14583,0.07813 -0.80729,0.07813 -1.15885,0.09115 -0.013,0.377604 0,0.976562 0.026,0.742187 0.026,0.976562 0,0.572917 -0.36459,0.92448 -0.36458,0.364583 -0.92448,0.364583 -1.35416,0 -1.35416,-1.927083 0,-0.494792 0.026,-1.471354 0.026,-0.976563 0.026,-1.471355 0,-0.63802 0.42969,-0.989583 0.44271,-0.364583 1.06771,-0.286458 1.32812,-1.875 1.79687,-4.244792 0.35156,-1.71875 0.35156,-4.596354 0,-1.210937 0.52084,-1.705729 0.52083,-0.494792 1.74479,-0.494792 0.32552,0 1.21094,0.05208 0.89843,0.05208 1.41927,0.05208 0.49479,0 1.47135,-0.07813 0.97656,-0.09115 1.40625,-0.09115 1.01563,0 1.31511,0.859375 0.15625,0.455729 0.15625,1.71875 0,0.598958 -0.0781,1.783854 -0.0651,1.171875 -0.0651,1.757813 0,1.015625 0.026,2.630208 0.0391,2.174479 0.0391,2.630208 1.84896,0 1.84896,1.302084 0,0.533854 0.026,1.588541 0.026,1.067709 0.026,1.601563 z m -4.40104,-13.164063 q -3.25521,0.05208 -4.10156,0 0,4.713542 -2.10938,8.567709 0.32552,-0.02604 0.76823,-0.02604 h 5.36459 q 0,-0.559896 -0.0521,-2.565104 -0.026,-1.588542 -0.026,-2.565104 0,-0.559896 0.0781,-1.692709 0.0781,-1.145833 0.0781,-1.71875 z" />
    <path
       id="path87"
       style=""
       d="m 269.37445,92.654383 q -0.2474,0 -0.89844,-0.572917 -0.58594,-0.533854 -0.8724,-0.950521 -1.25,0.677084 -2.20052,1.015625 -0.95052,0.351563 -1.58854,0.351563 -3.04688,0 -4.4401,-1.71875 -1.31511,-1.614584 -1.31511,-4.947917 0,-3.151041 2.16146,-5.390625 2.17448,-2.239583 5.18229,-2.239583 1.13281,0 2.53906,0.585938 1.77084,0.729166 1.77084,1.757812 0,0.351562 -0.26042,0.625 -0.13021,0.494792 -0.20833,1.627604 -0.0651,1.132813 -0.0781,2.903646 -0.013,1.614583 0.22136,2.552083 0.1302,0.572917 0.82031,2.291667 0.0911,0.234375 0.29948,0.690104 l 0.0781,0.221354 q 0,0.520833 -0.36458,0.859375 -0.36458,0.338542 -0.84635,0.338542 z m -2.70834,-9.049479 q 0,-0.559896 0.0651,-1.210938 0.0781,-0.664062 0.22135,-1.40625 -0.48177,-0.247396 -0.83333,-0.364583 -0.33854,-0.117188 -0.54688,-0.117188 -2.01823,0 -3.48958,1.653646 -1.45833,1.640625 -1.45833,3.789063 0,2.135416 0.7552,3.203125 0.75521,1.067708 2.26563,1.067708 1.25,0 2.12239,-0.455729 0.46875,-0.247396 1.31511,-0.989584 -0.41667,-3.45052 -0.41667,-5.16927 z" />
    <path
       id="path89"
       style=""
       d="m 291.48382,88.39657 q 0,2.382813 -3.69791,3.372396 -2.31771,0.625 -5.63802,0.625 -0.50782,0 -0.97657,-0.403646 -0.45573,-0.403646 -0.45573,-0.898437 v -2.473959 q 0,-0.03906 0.13021,-6.979166 0,-0.651042 0,-1.302083 0.013,-0.794271 0.16927,-1.276042 0.10417,-0.364583 0.39063,-0.507812 0.13021,-0.07813 0.71614,-0.208334 0.78125,-0.195312 2.60417,-0.195312 2.09635,0 3.80208,1.015625 1.99219,1.184895 1.99219,3.151041 0,1.822917 -1.95312,2.669271 0.98958,0.429688 1.88802,1.393229 1.02864,1.09375 1.02864,2.018229 z m -3.39843,-6.080729 q 0,-0.794271 -1.09375,-1.393229 -0.96355,-0.533854 -1.82292,-0.533854 h -0.53386 q -0.98958,0 -1.34114,0.03906 -0.013,0.442709 -0.013,1.432292 0,0.247396 0.0651,0.976563 0.0521,0.611979 0.026,0.989583 0.74219,0.07813 1.34115,0.07813 1.45833,0 2.1224,-0.182292 1.25,-0.351562 1.25,-1.40625 z m 0.82031,5.963542 q 0,-0.703125 -1.02865,-1.328125 -0.79427,-0.494792 -1.66666,-0.677083 -0.50782,-0.104167 -1.4974,-0.117188 -1.23698,-0.02604 -1.51042,-0.05208 -0.0521,0.885416 -0.0521,1.497395 v 2.539063 q 5.75521,-0.247396 5.75521,-1.861979 z" />
    <path
       id="path91"
       style=""
       d="m 312.82496,90.623133 q 0,1.184896 -1.84896,1.184896 -2.16146,0 -4.86979,0.533854 -0.16927,0.03906 -0.3125,0.03906 -0.50781,0 -0.84635,-0.377604 -0.33854,-0.377604 -0.33854,-0.898437 0,-0.976563 1.83593,-1.23698 0.29948,-0.03906 0.91146,-0.117187 -0.0651,-2.591146 -0.0651,-2.903646 0,-1.184896 0.0521,-3.111979 0.0651,-2.669271 0.0781,-3.164062 -0.52084,-0.05208 -1.10678,-0.05208 -0.18229,0 -0.53385,0.0651 -0.35156,0.05208 -0.53385,0.05208 -1.1849,0 -1.1849,-1.171875 0,-1.236979 1.83594,-1.236979 0.32552,0 0.98958,0.03906 0.66406,0.02604 1.00261,0.02604 0.54687,0 1.64062,-0.07813 1.10677,-0.09115 1.66667,-0.09115 1.22396,0 1.22396,1.236979 0,1.132813 -1.22396,1.132813 -0.95052,0 -1.45834,0.07813 -0.1302,6.666666 -0.1302,6.276041 0,0.598958 0.0651,2.617188 0.71615,-0.05208 1.30208,-0.05208 1.84896,0 1.84896,1.210938 z m -8.41146,-3.020834 q 0,2.34375 -1.88802,3.463542 -1.52344,0.911458 -4.04948,0.911458 -0.42968,0 -1.30208,-0.03906 -0.8724,-0.03906 -1.30208,-0.03906 -0.0651,0 -0.11719,0 l -0.10417,0.02604 q -0.14323,0.02604 -0.20833,0.02604 -1.32813,0 -1.32813,-1.809896 0,-0.273438 0.14323,-1.549479 0.18229,-1.705729 0.18229,-3.268229 0,-0.989584 -0.1302,-2.942709 -0.11719,-1.966145 -0.11719,-2.955729 0,-1.380208 1.26302,-1.380208 1.34115,0 1.34115,1.197917 0,1.354166 0.16927,3.776041 0.625,-0.02604 1.0026,-0.02604 3.03385,0 4.47917,0.78125 1.96614,1.054687 1.96614,3.828124 z m -2.51302,0 q 0,-1.562499 -1.08073,-2.070312 -0.6901,-0.325521 -2.42187,-0.325521 -0.52084,0 -1.40625,0.05208 l 0.013,0.520833 q 0.013,0.820312 -0.23438,3.932291 1.06771,0.02604 1.70573,0.02604 3.42448,0 3.42448,-2.135417 z" />
    <path
       id="path93"
       style=""
       d="m 328.99684,90.974695 q 0,0.559896 -0.36459,0.924479 -0.36458,0.364584 -0.9375,0.364584 -0.55989,0 -0.92448,-0.364584 -0.36458,-0.364583 -0.36458,-0.924479 0,-1.054687 -0.16927,-3.138021 -0.16927,-2.083333 -0.16927,-3.13802 0,-0.286459 0.10417,-3.880209 -0.50782,0 -2.70834,-0.02604 -1.66666,-0.02604 -2.72135,-0.02604 -0.45573,0 -1.84896,0.182292 0.026,0.898437 0.18229,3.190104 0.13021,2.005208 0.13021,3.177083 0,0.625 -0.11719,1.875 -0.11719,1.25 -0.11719,1.888021 0,0.559896 -0.36458,0.924479 -0.36458,0.364583 -0.9375,0.364583 -0.55989,0 -0.92448,-0.364583 -0.36458,-0.364583 -0.36458,-0.924479 0,-0.638021 0.11719,-1.888021 0.1302,-1.25 0.1302,-1.875 0,-1.210937 -0.16927,-3.606771 -0.15625,-2.408854 -0.15625,-3.619791 0,-0.716146 0.44271,-1.171875 0.45573,-0.46875 1.17188,-0.46875 0.46875,0 1.40625,-0.130208 0.9375,-0.14323 1.41927,-0.14323 1.11979,0 3.37239,0.03906 2.25261,0.02604 3.3724,0.02604 0.52083,0 0.89844,0.390625 0.39062,0.377604 0.39062,0.898437 0,0.846354 -0.0651,2.539062 -0.0651,1.692709 -0.0651,2.539063 0,1.067708 0.16927,3.177083 0.1823,2.109375 0.1823,3.190104 z" />
    <path
       id="path95"
       style=""
       d="m 338.67133,92.393966 q -2.94271,0 -4.76563,-1.471354 -1.99219,-1.627604 -1.99219,-4.557292 0,-3.385416 1.64063,-5.677083 1.78385,-2.5 4.76562,-2.5 2.16146,0 3.52865,0.729167 1.67969,0.898437 1.67969,2.760416 0,1.302084 -1.47136,2.369792 -0.65104,0.46875 -2.76041,1.458333 l -4.97396,2.356771 q 0.72916,1.080729 1.80989,1.627604 1.09375,0.546875 2.53907,0.546875 0.89843,0 2.10937,-0.338541 1.53646,-0.429688 1.97917,-1.119792 0.44271,-0.703125 0.95052,-0.703125 0.45573,0 0.80729,0.351562 0.36458,0.338542 0.36458,0.794271 0,1.445313 -2.33073,2.486979 -1.99218,0.885417 -3.8802,0.885417 z m -0.35157,-11.861979 q -1.58854,0 -2.64323,1.236979 -1.05468,1.223959 -1.57552,3.697917 l 3.9974,-1.901042 q 2.35677,-1.145833 3.35937,-1.992187 -1.11979,-1.041667 -3.13802,-1.041667 z" />
    <path
       id="path97"
       style=""
       d="m 360.31194,88.24032 q 0,0.507813 -0.0521,1.510417 -0.0521,1.002604 -0.0521,1.510417 0,0.546875 -0.3776,0.911458 -0.36458,0.377604 -0.91146,0.377604 -0.55989,0 -0.9375,-0.377604 -0.36458,-0.364583 -0.36458,-0.911458 0,-0.846355 0.0781,-2.526042 0.0781,-1.679688 0.0781,-2.526042 0,-1.601562 -0.2474,-3.046875 -1.58854,2.34375 -2.30469,3.26823 -1.3802,1.770833 -2.72135,2.916666 -1.77083,1.497396 -2.63021,2.395833 -0.6901,0.716146 -1.44531,0.716146 -0.57292,0 -0.98958,-0.299479 -0.45573,-0.338542 -0.45573,-0.898437 0,-3.710938 -0.13021,-7.734375 -0.14323,-4.179688 -0.14323,-4.075521 0,-1.328125 1.30208,-1.328125 1.10677,0 1.28907,1.25 0.026,0.195312 0.0911,2.565104 l 0.15625,6.471354 q 1.96615,-1.731771 4.10156,-4.375 0.66407,-0.820312 3.63282,-4.765625 0.76823,-1.028645 1.64062,-1.028645 0.54688,0 0.91146,0.364583 0.3776,0.364583 0.3776,0.924479 0,1.445312 0.0521,4.361979 0.0521,2.903646 0.0521,4.348958 z m -7.1875,-13.749999 q 3.8151,0 4.375,-2.083334 0.22135,-0.820312 0.9375,-0.820312 0.41667,0 0.71615,0.273437 0.3125,0.273438 0.28645,0.677084 l -0.026,0.182291 q -0.15625,1.979167 -2.29166,2.96875 -1.66667,0.755209 -3.9974,0.755209 -1.84896,0 -3.24219,-1.25 -1.43229,-1.276042 -1.43229,-3.111979 0,-0.976563 0.96354,-0.976563 0.97657,0 0.97657,0.976563 0,1.015624 0.87239,1.73177 0.82031,0.677084 1.86198,0.677084 z" />
    <path
       id="path99"
       style=""
       d="m 383.15049,91.183029 q 0,0.572916 -0.36459,0.924479 -0.36458,0.364583 -0.92448,0.364583 -0.57291,0 -0.9375,-0.364583 -0.36458,-0.351563 -0.36458,-0.924479 0,-1.054688 -0.0781,-4.453125 -1.58855,1.132812 -3.91927,1.132812 -2.76042,0 -3.9974,-1.901041 -1.22396,-1.901042 -1.22396,-6.184896 0,-2.135417 1.38021,-2.135417 0.5599,0 0.92448,0.364584 0.36458,0.351562 0.36458,0.924479 0,0.143229 -0.0391,0.429687 -0.0391,0.273438 -0.0391,0.416667 0,3.450521 0.65104,4.583333 0.59896,1.054688 2.36979,1.054688 0.79427,0 1.91406,-0.546875 1.19792,-0.598959 1.61459,-1.302084 0,-0.364583 0.026,-1.601562 0.026,-1.236979 0.026,-1.5625 0,-0.260417 -0.0521,-0.78125 -0.0391,-0.520833 -0.0391,-0.768229 0,-0.546875 0.37761,-0.898438 0.39062,-0.351562 0.9375,-0.351562 1.38021,0 1.38021,2.382812 0,0.351563 -0.0391,0.9375 -0.026,0.585938 -0.026,0.768229 0,1.497396 0.0391,4.752604 0.0391,3.242188 0.0391,4.739584 z" />
    <path
       id="path101"
       style=""
       d="m 396.56195,92.654383 q -0.2474,0 -0.89844,-0.572917 -0.58594,-0.533854 -0.8724,-0.950521 -1.25,0.677084 -2.20052,1.015625 -0.95052,0.351563 -1.58854,0.351563 -3.04688,0 -4.4401,-1.71875 -1.31511,-1.614584 -1.31511,-4.947917 0,-3.151041 2.16146,-5.390625 2.17448,-2.239583 5.18229,-2.239583 1.13281,0 2.53906,0.585938 1.77084,0.729166 1.77084,1.757812 0,0.351562 -0.26042,0.625 -0.13021,0.494792 -0.20833,1.627604 -0.0651,1.132813 -0.0781,2.903646 -0.013,1.614583 0.22136,2.552083 0.1302,0.572917 0.82031,2.291667 0.0911,0.234375 0.29948,0.690104 l 0.0781,0.221354 q 0,0.520833 -0.36458,0.859375 -0.36458,0.338542 -0.84635,0.338542 z m -2.70834,-9.049479 q 0,-0.559896 0.0651,-1.210938 0.0781,-0.664062 0.22135,-1.40625 -0.48177,-0.247396 -0.83333,-0.364583 -0.33854,-0.117188 -0.54688,-0.117188 -2.01823,0 -3.48958,1.653646 -1.45833,1.640625 -1.45833,3.789063 0,2.135416 0.7552,3.203125 0.75521,1.067708 2.26563,1.067708 1.25,0 2.12239,-0.455729 0.46875,-0.247396 1.31511,-0.989584 -0.41667,-3.45052 -0.41667,-5.16927 z" />
    <path
       id="path103"
       style=""
       d="m 421.15829,83.735112 q 0,3.216146 -1.79687,5.833333 -2.07031,3.033854 -5.41667,3.033854 -2.73437,0 -4.64843,-1.627604 -2.03125,-1.71875 -2.00521,-4.440104 v -0.247396 q -0.36459,-0.01302 -0.57292,-0.01302 -1.1849,0 -2.44792,0.208333 -0.71614,0.130208 -2.46093,0.416666 -0.15625,2.304688 -0.15625,4.388021 0,0.572917 -0.36459,0.885417 -0.35156,0.3125 -0.82031,0.299479 -1.14583,-0.02604 -1.14583,-1.184896 0,-2.369791 0.20833,-5.091145 0.3776,-4.98698 0.3776,-5.091146 0.026,-0.299479 0.13021,-1.328125 0.0912,-0.794271 0.0912,-1.393229 0,-1.184896 1.15885,-1.184896 1.15886,0 1.15886,1.184896 0,0.638021 -0.0781,1.471354 -0.11719,1.09375 -0.13021,1.393229 -0.0781,1.276042 -0.23437,3.229167 3.58073,-0.572917 4.71354,-0.572917 0.23438,0 0.9375,0.03906 0.78125,-2.66927 2.52604,-4.361979 1.96615,-1.914062 4.58334,-1.914062 6.39322,0 6.39322,6.067708 z m -2.59114,0 q 0,-2.03125 -0.85938,-2.799479 -0.84635,-0.768229 -2.9427,-0.768229 -2.04428,0 -3.51563,2.070312 -1.38021,1.940104 -1.38021,4.296875 0,1.614583 1.19792,2.604167 1.14583,0.963541 2.8776,0.963541 2.01823,0 3.38542,-2.070312 1.23698,-1.888021 1.23698,-4.296875 z" />
  </g>
</svg>
