<?xml version="1.0" encoding="UTF-8" standalone="no"?>
<svg
   xmlns:dc="http://purl.org/dc/elements/1.1/"
   xmlns:cc="http://creativecommons.org/ns#"
   xmlns:rdf="http://www.w3.org/1999/02/22-rdf-syntax-ns#"
   xmlns:svg="http://www.w3.org/2000/svg"
   xmlns="http://www.w3.org/2000/svg"
   id="svg2"
   version="1.1"
   viewBox="160.91737 8.4083364 286.35624 88.346672">
  <metadata
     id="metadata11">
    <rdf:RDF>
      <cc:Work
         rdf:about="">
        <dc:format>image/svg+xml</dc:format>
        <dc:type
           rdf:resource="http://purl.org/dc/dcmitype/StillImage" />
      </cc:Work>
    </rdf:RDF>
  </metadata>
  <defs
     id="defs9" />
  <g
     id="text4521"
     style="font-style:normal;font-variant:normal;font-weight:normal;font-stretch:normal;font-size:26.66666603px;line-height:125%;font-family:Courier, monospace;font-variant-ligatures:normal;font-variant-caps:normal;font-variant-numeric:normal;font-feature-settings:normal;text-align:left;letter-spacing:0px;word-spacing:0px;writing-mode:lr-tb;text-anchor:start;fill:#000000;fill-opacity:1;stroke:none;stroke-width:1px;stroke-linecap:butt;stroke-linejoin:miter;stroke-opacity:1"
     aria-label="Съешь же ещё этихмягких французскихбулок да выпей чаю">
    <path
       id="path13"
       style=""
       d="m 172.3307,11.58167 c -1.28,-1.173334 -2.88,-1.8400003 -4.64,-1.8400003 -1.81333,0 -3.36,0.7200003 -4.53333,1.9733333 -1.17334,1.253333 -1.92,3.146667 -1.92,4.746666 v 2.213334 c 0,3.6 3.30666,6.88 6.88,6.88 1.70666,0 3.36,-0.64 4.69333,-1.893334 0.69333,-0.64 1.01333,-1.093333 1.01333,-1.333333 0,-0.293333 -0.26666,-0.56 -0.53333,-0.56 -0.21333,0 -0.32,0.08 -0.48,0.293333 -1.49333,1.733334 -2.77333,2.4 -4.69333,2.4 -3.09334,0 -5.78667,-2.72 -5.78667,-5.92 v -1.92 c 0,-3.199999 2.37333,-5.759999 5.36,-5.759999 2.4,0 4.53333,1.44 4.64,3.04 0,0.4 0.21333,0.666666 0.48,0.666666 0.42667,0 0.58667,-0.293333 0.58667,-0.72 v -3.013333 c 0,-0.453333 -0.16,-0.72 -0.53334,-0.72 -0.32,0 -0.53333,0.266667 -0.53333,0.72 z" />
    <path
       id="path15"
       style=""
       d="m 177.17362,13.98167 v 3.519999 c 0,0.453334 0.16,0.746667 0.58666,0.746667 0.37334,0 0.50667,-0.293333 0.50667,-0.746667 V 15.10167 h 3.01333 v 8.933333 h -0.96 c -0.48,0 -0.64,0.293333 -0.64,0.56 0,0.293333 0.16,0.533333 0.64,0.533333 h 6.29334 c 2.4,0 3.22666,-1.333333 3.22666,-3.013333 0,-1.68 -1.09333,-3.306667 -3.22666,-3.306667 h -4.24 V 15.10167 h 0.98666 c 0.48,0 0.64,-0.293334 0.64,-0.533334 0,-0.293333 -0.21333,-0.586666 -0.69333,-0.586666 z m 5.2,10.053333 v -4.16 h 3.81333 c 1.6,0 2.56,0.64 2.56,2.24 0,1.253333 -0.37333,1.92 -2.29333,1.92 z" />
    <path
       id="path17"
       style=""
       d="m 205.58987,19.795003 c 0,-1.2 -0.0533,-1.706667 -0.42667,-2.586667 -0.96,-2.24 -3.09333,-3.573333 -5.65333,-3.573333 -3.46667,0 -6.08,2.48 -6.08,5.706666 0,3.44 2.82666,6.213334 6.45333,6.213334 2.45333,0 5.65333,-1.253334 5.65333,-2.186667 0,-0.293333 -0.26666,-0.533333 -0.53333,-0.533333 -0.10667,0 -0.26667,0.08 -0.42667,0.186666 -1.06666,0.853334 -2.98666,1.44 -4.64,1.44 -2.93333,0 -5.06666,-1.813333 -5.44,-4.666666 z m -11.09334,-1.093334 c 0.53334,-2.426666 2.4,-3.973333 5.01334,-3.973333 2.61333,0 4.53333,1.546667 5.01333,3.973333 z" />
    <path
       id="path19"
       style=""
       d="M 216.08612,24.035003 V 15.10167 h 0.85333 c 0.48,0 0.8,-0.213334 0.8,-0.533334 0,-0.373333 -0.32,-0.586666 -0.8,-0.586666 h -2.88 c -0.48,0 -0.69333,0.213333 -0.69333,0.586666 0,0.32 0.21333,0.533334 0.69333,0.533334 h 0.90667 v 8.933333 h -4.58667 V 15.10167 h 0.96 c 0.48,0 0.69333,-0.213334 0.69333,-0.533334 0,-0.373333 -0.21333,-0.586666 -0.69333,-0.586666 h -2.88 c -0.53333,0 -0.74667,0.213333 -0.74667,0.586666 0,0.32 0.21334,0.533334 0.74667,0.533334 h 0.85333 v 8.933333 h -0.85333 c -0.42667,0 -0.74667,0.16 -0.74667,0.586666 0,0.293334 0.32,0.506667 0.74667,0.506667 h 14.13333 c 0.42667,0 0.69334,-0.213333 0.69334,-0.506667 0,-0.426666 -0.26667,-0.586666 -0.69334,-0.586666 h -0.93333 V 15.10167 h 0.93333 c 0.42667,0 0.69334,-0.213334 0.69334,-0.533334 0,-0.373333 -0.26667,-0.586666 -0.69334,-0.586666 h -2.88 c -0.53333,0 -0.74666,0.213333 -0.74666,0.586666 0,0.32 0.21333,0.533334 0.74666,0.533334 h 0.90667 v 8.933333 z" />
    <path
       id="path21"
       style=""
       d="m 230.10237,15.10167 c 0.42666,0 0.58666,-0.293334 0.58666,-0.533334 0,-0.293333 -0.16,-0.586666 -0.58666,-0.586666 h -3.04 c -0.53334,0 -0.69334,0.293333 -0.69334,0.586666 0,0.24 0.16,0.533334 0.64,0.533334 h 0.96 v 8.933333 h -0.90666 c -0.48,0 -0.69334,0.293333 -0.69334,0.56 0,0.293333 0.21334,0.533333 0.69334,0.533333 h 6.24 c 2.4,0 3.33333,-1.333333 3.33333,-3.013333 0,-1.68 -1.09333,-3.306667 -3.33333,-3.306667 h -4.21334 V 15.10167 Z m -1.01334,8.933333 v -4.16 h 3.78667 c 1.65333,0 2.66667,0.64 2.66667,2.24 0,1.253333 -0.42667,1.92 -2.29334,1.92 z" />
    <path
       id="path23"
       style=""
       d="m 264.9082,25.128336 c 0.53333,0 0.74667,-0.213333 0.74667,-0.533333 0,-0.4 -0.21334,-0.56 -0.74667,-0.56 h -0.88 v -3.973334 c 1.97333,1.04 3.6,2.186667 4.50667,3.973334 h -0.74667 c -0.53333,0 -0.69333,0.16 -0.69333,0.56 0,0.32 0.16,0.533333 0.69333,0.533333 h 2.66667 c 0.53333,0 0.69333,-0.213333 0.69333,-0.533333 0,-0.4 -0.16,-0.56 -0.69333,-0.56 h -0.69334 c -0.90666,-2.08 -2.50666,-3.52 -4.85333,-4.693334 l 4.8,-4.239999 h 0.48 c 0.53333,0 0.72,-0.213334 0.72,-0.533334 0,-0.373333 -0.18667,-0.586666 -0.72,-0.586666 h -2.61333 c -0.48,0 -0.74667,0.213333 -0.74667,0.586666 0,0.32 0.26667,0.533334 0.74667,0.533334 h 0.58666 l -4.13333,3.599999 V 15.10167 h 0.88 c 0.53333,0 0.74667,-0.213334 0.74667,-0.533334 0,-0.373333 -0.21334,-0.586666 -0.74667,-0.586666 h -2.93333 c -0.48,0 -0.74667,0.213333 -0.74667,0.586666 0,0.32 0.26667,0.533334 0.74667,0.533334 h 0.96 v 3.599999 L 258.8282,15.10167 h 0.53333 c 0.48,0 0.77334,-0.213334 0.77334,-0.533334 0,-0.373333 -0.29334,-0.586666 -0.77334,-0.586666 h -2.61333 c -0.48,0 -0.69333,0.213333 -0.69333,0.586666 0,0.32 0.21333,0.533334 0.69333,0.533334 h 0.48 l 4.8,4.239999 c -2.4,1.173334 -3.94667,2.613334 -4.85333,4.693334 h -0.69334 c -0.53333,0 -0.69333,0.16 -0.69333,0.56 0,0.32 0.16,0.533333 0.69333,0.533333 h 2.72 c 0.42667,0 0.64,-0.213333 0.64,-0.533333 0,-0.4 -0.21333,-0.56 -0.64,-0.56 h -0.8 c 0.90667,-1.786667 2.56,-2.933334 4.53334,-3.973334 v 3.973334 h -0.96 c -0.48,0 -0.74667,0.16 -0.74667,0.56 0,0.32 0.26667,0.533333 0.74667,0.533333 z" />
    <path
       id="path25"
       style=""
       d="m 285.53778,19.795003 c 0,-1.2 -0.0533,-1.706667 -0.42667,-2.586667 -0.96,-2.24 -3.09333,-3.573333 -5.65333,-3.573333 -3.46667,0 -6.08,2.48 -6.08,5.706666 0,3.44 2.82667,6.213334 6.45333,6.213334 2.45334,0 5.65334,-1.253334 5.65334,-2.186667 0,-0.293333 -0.26667,-0.533333 -0.53334,-0.533333 -0.10666,0 -0.26666,0.08 -0.42666,0.186666 -1.06667,0.853334 -2.98667,1.44 -4.64,1.44 -2.93334,0 -5.06667,-1.813333 -5.44,-4.666666 z m -11.09333,-1.093334 c 0.53333,-2.426666 2.4,-3.973333 5.01333,-3.973333 2.61333,0 4.53333,1.546667 5.01333,3.973333 z" />
    <path
       id="path27"
       style=""
       d="m 317.51695,19.795003 c 0,-1.2 -0.0533,-1.706667 -0.42667,-2.586667 -0.96,-2.24 -3.09333,-3.573333 -5.65333,-3.573333 -3.46667,0 -6.08,2.48 -6.08,5.706666 0,3.44 2.82667,6.213334 6.45333,6.213334 2.45334,0 5.65334,-1.253334 5.65334,-2.186667 0,-0.293333 -0.26667,-0.533333 -0.53334,-0.533333 -0.10666,0 -0.26666,0.08 -0.42666,0.186666 -1.06667,0.853334 -2.98667,1.44 -4.64,1.44 -2.93334,0 -5.06667,-1.813333 -5.44,-4.666666 z m -11.09333,-1.093334 c 0.53333,-2.426666 2.4,-3.973333 5.01333,-3.973333 2.61333,0 4.53333,1.546667 5.01333,3.973333 z" />
    <path
       id="path29"
       style=""
       d="m 334.0932,25.128336 v 2.426667 c 0,0.453333 0.16,0.72 0.48,0.72 0.42666,0 0.61333,-0.266667 0.61333,-0.72 v -3.52 h -1.70667 V 15.10167 h 0.93334 c 0.48,0 0.69333,-0.213334 0.69333,-0.533334 0,-0.373333 -0.21333,-0.586666 -0.69333,-0.586666 h -2.88 c -0.48,0 -0.74667,0.213333 -0.74667,0.586666 0,0.32 0.26667,0.533334 0.74667,0.533334 h 0.90666 v 8.933333 H 327.9332 V 15.10167 h 0.82666 c 0.48,0 0.96,-0.213334 0.96,-0.533334 0,-0.373333 -0.48,-0.586666 -0.96,-0.586666 h -2.82666 c -0.48,0 -0.74667,0.213333 -0.74667,0.586666 0,0.32 0.26667,0.533334 0.74667,0.533334 h 0.90666 v 8.933333 H 322.3332 V 15.10167 h 0.98666 c 0.48,0 0.74667,-0.213334 0.74667,-0.533334 0,-0.373333 -0.26667,-0.586666 -0.74667,-0.586666 h -2.88 c -0.42666,0 -0.74666,0.213333 -0.74666,0.586666 0,0.32 0.32,0.533334 0.74666,0.533334 h 0.85334 v 8.933333 h -0.85334 c -0.42666,0 -0.74666,0.16 -0.74666,0.586666 0,0.293334 0.32,0.506667 0.74666,0.506667 z" />
    <path
       id="path31"
       style=""
       d="m 340.96277,8.4083364 c -0.32,0 -0.53333,0.2133333 -0.53333,0.6933333 V 10.62167 c 0,0.506666 0.21333,0.72 0.53333,0.72 h 0.69334 c 0.32,0 0.50666,-0.213334 0.50666,-0.72 V 9.1016697 c 0,-0.48 -0.18666,-0.6933333 -0.50666,-0.6933333 z m 4.69334,0 c -0.32,0 -0.53334,0.2133333 -0.53334,0.6933333 V 10.62167 c 0,0.506666 0.21334,0.72 0.53334,0.72 h 0.69333 c 0.26667,0 0.50667,-0.213334 0.50667,-0.72 V 9.1016697 c 0,-0.48 -0.24,-0.6933333 -0.50667,-0.6933333 z m 3.84,11.3866666 c 0,-1.2 -0.0533,-1.706667 -0.42667,-2.586667 -0.96,-2.24 -3.09333,-3.573333 -5.65333,-3.573333 -3.46667,0 -6.08,2.48 -6.08,5.706666 0,3.44 2.82666,6.213334 6.45333,6.213334 2.45333,0 5.65333,-1.253334 5.65333,-2.186667 0,-0.293333 -0.26666,-0.533333 -0.53333,-0.533333 -0.10667,0 -0.26667,0.08 -0.42667,0.186666 -1.06666,0.853334 -2.98666,1.44 -4.64,1.44 -2.93333,0 -5.06666,-1.813333 -5.44,-4.666666 z m -11.09334,-1.093334 c 0.53334,-2.426666 2.4,-3.973333 5.01334,-3.973333 2.61333,0 4.53333,1.546667 5.01333,3.973333 z" />
    <path
       id="path33"
       style=""
       d="m 380.35528,20.221669 c -0.26667,2.506667 -2.24,4.24 -4.96,4.24 -1.92,0 -3.57333,-0.64 -4.96,-1.92 -0.26667,-0.213333 -0.37333,-0.266666 -0.53333,-0.266666 -0.26667,0 -0.53334,0.213333 -0.53334,0.506666 0,0.293334 0.42667,0.8 1.17334,1.306667 1.38666,0.96 3.09333,1.466667 4.85333,1.466667 3.52,0 6.02667,-2.48 6.02667,-5.866667 0,-3.52 -2.56,-6.053333 -6.13334,-6.053333 -1.65333,0 -3.09333,0.506667 -4.10666,1.466667 v -0.373334 c 0,-0.453333 -0.26667,-0.746666 -0.64,-0.746666 -0.32,0 -0.48,0.293333 -0.48,0.746666 v 2.426667 c 0,0.506666 0.16,0.773333 0.48,0.773333 0.37333,0 0.53333,-0.213333 0.64,-0.693333 0.10666,-1.413333 1.92,-2.506667 4.21333,-2.506667 2.72,0 4.69333,1.813333 4.96,4.4 h -7.25333 c -0.53334,0 -0.8,0.16 -0.8,0.56 0,0.373333 0.26666,0.533333 0.8,0.533333 z" />
    <path
       id="path35"
       style=""
       d="m 386.10486,13.98167 v 3.546666 c 0,0.426667 0.16,0.72 0.58666,0.72 0.32,0 0.56,-0.24 0.56,-0.72 V 15.10167 h 3.6 v 8.986666 h -1.22666 c -0.48,0 -0.74667,0.16 -0.74667,0.533333 0,0.346667 0.26667,0.56 0.74667,0.56 h 3.52 c 0.48,0 0.8,-0.213333 0.8,-0.56 0,-0.373333 -0.32,-0.533333 -0.8,-0.533333 h -1.17334 V 15.10167 h 3.57334 v 2.426666 c 0,0.48 0.21333,0.72 0.53333,0.72 0.42667,0 0.56,-0.293333 0.56,-0.72 V 13.98167 Z" />
    <path
       id="path37"
       style=""
       d="m 403.82778,15.10167 h 1.2 c 0.48,0 0.69334,-0.213334 0.69334,-0.533334 0,-0.373333 -0.21334,-0.586666 -0.69334,-0.586666 h -3.2 c -0.48,0 -0.69333,0.213333 -0.69333,0.586666 0,0.32 0.21333,0.533334 0.69333,0.533334 h 0.90667 v 8.933333 h -0.90667 c -0.48,0 -0.69333,0.16 -0.69333,0.56 0,0.32 0.21333,0.533333 0.69333,0.533333 h 3.2 c 0.48,0 0.69334,-0.213333 0.69334,-0.533333 0,-0.4 -0.21334,-0.56 -0.69334,-0.56 h -1.2 v -1.12 l 7.12,-5.04 v 6.16 h -1.22666 c -0.53334,0 -0.74667,0.16 -0.74667,0.56 0,0.32 0.21333,0.533333 0.74667,0.533333 h 3.2 c 0.42666,0 0.69333,-0.213333 0.69333,-0.533333 0,-0.4 -0.26667,-0.56 -0.69333,-0.56 h -0.88 V 15.10167 h 0.88 c 0.42666,0 0.69333,-0.213334 0.69333,-0.533334 0,-0.373333 -0.26667,-0.586666 -0.69333,-0.586666 h -1.97334 -1.22666 c -0.53334,0 -0.74667,0.213333 -0.74667,0.586666 0,0.32 0.21333,0.533334 0.74667,0.533334 h 1.22666 v 1.359999 l -7.12,5.013334 z" />
    <path
       id="path39"
       style=""
       d="m 424.16403,19.288336 4.32,-4.186666 h 0.16 c 0.53333,0 0.72,-0.213334 0.72,-0.533334 0,-0.373333 -0.18667,-0.586666 -0.72,-0.586666 h -2.88 c -0.48,0 -0.74667,0.213333 -0.74667,0.586666 0,0.32 0.26667,0.533334 0.74667,0.533334 h 1.28 l -3.68,3.439999 -3.52,-3.439999 h 1.17333 c 0.53334,0 0.72,-0.213334 0.72,-0.533334 0,-0.426666 -0.18666,-0.586666 -0.72,-0.586666 h -2.93333 c -0.53333,0 -0.74667,0.213333 -0.74667,0.586666 0,0.32 0.21334,0.533334 0.74667,0.533334 h 0.16 l 4.32,4.186666 -4.85333,4.746667 h -0.26667 c -0.48,0 -0.74667,0.16 -0.74667,0.56 0,0.32 0.26667,0.533333 0.74667,0.533333 h 3.57333 c 0.48,0 0.66667,-0.213333 0.66667,-0.533333 0,-0.4 -0.18667,-0.56 -0.66667,-0.56 h -1.81333 l 4.16,-3.973334 4.10667,3.973334 h -1.70667 c -0.42667,0 -0.69333,0.16 -0.69333,0.56 0,0.32 0.26666,0.533333 0.69333,0.533333 h 3.52 c 0.48,0 0.74667,-0.213333 0.74667,-0.533333 0,-0.4 -0.26667,-0.56 -0.74667,-0.56 h -0.21333 z" />
    <path
       id="path41"
       style=""
       d="m 170.5707,47.315005 -3.04,6.373334 -3.14667,-6.373334 h -2.66666 c -0.42667,0 -0.64,0.213334 -0.64,0.586667 0,0.32 0.21333,0.533333 0.64,0.533333 h 0.69333 v 8.933334 h -0.74667 c -0.53333,0 -0.74666,0.16 -0.74666,0.56 0,0.32 0.21333,0.533333 0.74666,0.533333 h 2.93334 c 0.48,0 0.69333,-0.213333 0.69333,-0.533333 0,-0.4 -0.21333,-0.56 -0.69333,-0.56 h -1.04 v -8.933334 h 0.18666 l 3.30667,6.64 h 0.85333 l 3.30667,-6.64 h 0.21333 v 8.933334 h -0.90666 c -0.48,0 -0.74667,0.16 -0.74667,0.56 0,0.32 0.26667,0.533333 0.74667,0.533333 h 2.93333 c 0.42667,0 0.69333,-0.213333 0.69333,-0.533333 0,-0.4 -0.26666,-0.56 -0.69333,-0.56 h -0.96 v -8.933334 h 0.96 c 0.42667,0 0.69333,-0.213333 0.69333,-0.533333 0,-0.373333 -0.26666,-0.586667 -0.69333,-0.586667 z" />
    <path
       id="path43"
       style=""
       d="m 184.64028,53.688339 -4.90666,3.68 h -1.17334 c -0.48,0 -0.69333,0.16 -0.69333,0.56 0,0.32 0.21333,0.533333 0.69333,0.533333 h 3.52 c 0.48,0 0.69334,-0.213333 0.69334,-0.533333 0,-0.4 -0.21334,-0.56 -0.69334,-0.56 h -0.74666 l 5.12,-3.68 v 3.68 h -0.96 c -0.53334,0 -0.69334,0.293333 -0.69334,0.586666 0,0.266667 0.16,0.506667 0.69334,0.506667 h 2.98666 c 0.53334,0 0.69334,-0.24 0.69334,-0.506667 0,-0.293333 -0.16,-0.586666 -0.69334,-0.586666 h -0.93333 v -8.933334 h 0.93333 c 0.42667,0 0.69334,-0.293333 0.69334,-0.533333 0,-0.293333 -0.26667,-0.586667 -0.69334,-0.586667 h -6.24 c -2.4,0 -3.36,1.386667 -3.36,3.066667 0,1.626667 1.17334,3.306667 3.30667,3.306667 z m 1.81334,-5.253334 v 4.16 h -3.78667 c -1.65333,0 -2.64,-0.586666 -2.64,-2.213333 0,-1.226667 0.34667,-1.946667 2.32,-1.946667 z" />
    <path
       id="path45"
       style=""
       d="m 204.4432,50.861672 v -3.546667 h -8.88 c -0.48,0 -0.69333,0.213334 -0.69333,0.586667 0,0.32 0.21333,0.533333 0.69333,0.533333 h 0.90667 v 8.933334 h -1.17334 c -0.53333,0 -0.74666,0.16 -0.74666,0.56 0,0.32 0.21333,0.533333 0.74666,0.533333 h 3.52 c 0.42667,0 0.69334,-0.213333 0.69334,-0.533333 0,-0.4 -0.26667,-0.56 -0.69334,-0.56 h -1.25333 v -8.933334 h 5.78667 v 2.426667 c 0,0.48 0.16,0.72 0.53333,0.72 0.42667,0 0.56,-0.293333 0.56,-0.72 z" />
    <path
       id="path47"
       style=""
       d="m 212.59278,58.461672 v -5.066667 l 5.57334,3.973334 h -0.74667 c -0.48,0 -0.74667,0.16 -0.74667,0.56 0,0.32 0.26667,0.533333 0.74667,0.533333 h 3.46667 c 0.48,0 0.74666,-0.213333 0.74666,-0.533333 0,-0.4 -0.26666,-0.56 -0.74666,-0.56 h -1.17334 l -6.29333,-4.693334 5.44,-4.24 h 1.22667 c 0.53333,0 0.74666,-0.213333 0.74666,-0.533333 0,-0.373333 -0.21333,-0.586667 -0.74666,-0.586667 h -3.46667 c -0.48,0 -0.69333,0.213334 -0.69333,0.586667 0,0.32 0.21333,0.533333 0.69333,0.533333 h 0.58667 l -4.61334,3.6 v -4.72 h -2.53333 c -0.48,0 -0.69333,0.213334 -0.69333,0.586667 0,0.32 0.21333,0.533333 0.69333,0.533333 h 1.44 v 8.933334 h -1.44 c -0.48,0 -0.69333,0.16 -0.69333,0.56 0,0.32 0.21333,0.533333 0.69333,0.533333 z" />
    <path
       id="path49"
       style=""
       d="m 227.94237,48.435005 h 1.2 c 0.48,0 0.69333,-0.213333 0.69333,-0.533333 0,-0.373333 -0.21333,-0.586667 -0.69333,-0.586667 h -3.2 c -0.48,0 -0.69334,0.213334 -0.69334,0.586667 0,0.32 0.21334,0.533333 0.69334,0.533333 h 0.90666 v 8.933334 h -0.90666 c -0.48,0 -0.69334,0.16 -0.69334,0.56 0,0.32 0.21334,0.533333 0.69334,0.533333 h 3.2 c 0.48,0 0.69333,-0.213333 0.69333,-0.533333 0,-0.4 -0.21333,-0.56 -0.69333,-0.56 h -1.2 v -1.12 l 7.12,-5.04 v 6.16 h -1.22667 c -0.53333,0 -0.74667,0.16 -0.74667,0.56 0,0.32 0.21334,0.533333 0.74667,0.533333 h 3.2 c 0.42667,0 0.69333,-0.213333 0.69333,-0.533333 0,-0.4 -0.26666,-0.56 -0.69333,-0.56 h -0.88 v -8.933334 h 0.88 c 0.42667,0 0.69333,-0.213333 0.69333,-0.533333 0,-0.373333 -0.26666,-0.586667 -0.69333,-0.586667 h -1.97333 -1.22667 c -0.53333,0 -0.74667,0.213334 -0.74667,0.586667 0,0.32 0.21334,0.533333 0.74667,0.533333 h 1.22667 v 1.36 l -7.12,5.013334 z" />
    <path
       id="path51"
       style=""
       d="m 248.27861,52.621672 4.32,-4.186667 h 0.16 c 0.53334,0 0.72,-0.213333 0.72,-0.533333 0,-0.373333 -0.18666,-0.586667 -0.72,-0.586667 h -2.88 c -0.48,0 -0.74666,0.213334 -0.74666,0.586667 0,0.32 0.26666,0.533333 0.74666,0.533333 h 1.28 l -3.68,3.44 -3.52,-3.44 h 1.17334 c 0.53333,0 0.72,-0.213333 0.72,-0.533333 0,-0.426667 -0.18667,-0.586667 -0.72,-0.586667 h -2.93334 c -0.53333,0 -0.74666,0.213334 -0.74666,0.586667 0,0.32 0.21333,0.533333 0.74666,0.533333 h 0.16 l 4.32,4.186667 -4.85333,4.746667 h -0.26667 c -0.48,0 -0.74666,0.16 -0.74666,0.56 0,0.32 0.26666,0.533333 0.74666,0.533333 h 3.57334 c 0.48,0 0.66666,-0.213333 0.66666,-0.533333 0,-0.4 -0.18666,-0.56 -0.66666,-0.56 h -1.81334 l 4.16,-3.973334 4.10667,3.973334 h -1.70667 c -0.42666,0 -0.69333,0.16 -0.69333,0.56 0,0.32 0.26667,0.533333 0.69333,0.533333 h 3.52 c 0.48,0 0.74667,-0.213333 0.74667,-0.533333 0,-0.4 -0.26667,-0.56 -0.74667,-0.56 h -0.21333 z" />
    <path
       id="path53"
       style=""
       d="m 278.87111,62.328338 h -1.38666 c -0.53334,0 -0.8,0.16 -0.8,0.533334 0,0.346666 0.26666,0.56 0.8,0.56 h 3.94666 c 0.48,0 0.69334,-0.213334 0.69334,-0.56 0,-0.373334 -0.21334,-0.533334 -0.69334,-0.533334 h -1.46666 v -4.106666 c 0,0 -0.24,0 1.84,0 3.30666,0 5.57333,-2.48 5.57333,-5.626667 0,-3.2 -2.26667,-5.626666 -5.57333,-5.626666 -2.02667,0 -1.84,0 -1.84,0 v -3.76 h -2.48 c -0.53334,0 -0.8,0.16 -0.8,0.506667 0,0.373333 0.26666,0.586666 0.8,0.586666 h 1.38666 v 2.666667 c 0,0 0.16,0 -1.81333,0 -3.36,0 -5.54667,2.426666 -5.54667,5.626666 0,3.146667 2.29334,5.626667 5.54667,5.626667 2.08,0 1.81333,0 1.81333,0 z m -1.76,-14.266666 h 1.76 v 9.066667 h -1.76 c -2.61333,0 -4.50666,-2.026667 -4.50666,-4.506667 0,-2.586667 1.73333,-4.56 4.50666,-4.56 z m 4.69334,0 c 2.72,0 4.48,1.973333 4.48,4.56 0,2.48 -1.92,4.506667 -4.48,4.506667 h -1.84 v -9.066667 z" />
    <path
       id="path55"
       style=""
       d="m 291.79403,47.315005 h -2.53333 c -0.48,0 -0.74667,0.213334 -0.74667,0.586667 0,0.32 0.26667,0.533333 0.74667,0.533333 h 1.44 v 13.893333 h -1.44 c -0.48,0 -0.74667,0.16 -0.74667,0.533334 0,0.346666 0.26667,0.56 0.74667,0.56 h 5.12 c 0.48,0 0.74666,-0.213334 0.74666,-0.56 0,-0.373334 -0.26666,-0.533334 -0.74666,-0.533334 h -2.58667 v -6.666666 c 1.2,1.76 2.74667,2.56 4.72,2.56 3.36,0 5.84,-2.48 5.84,-5.626667 0,-3.2 -2.48,-5.626666 -5.84,-5.626666 -1.97333,0 -3.33333,0.72 -4.72,2.56 z m 4.72,0.746667 c 2.72,0 4.74667,1.973333 4.74667,4.56 0,2.48 -2.13334,4.506667 -4.74667,4.506667 -2.61333,0 -4.72,-2.026667 -4.72,-4.533334 0,-2.56 2.10667,-4.533333 4.72,-4.533333 z" />
    <path
       id="path57"
       style=""
       d="m 314.42362,58.461672 h 2.56 c 0.42666,0 0.72,-0.213333 0.72,-0.533333 0,-0.4 -0.29334,-0.56 -0.72,-0.56 h -1.41334 v -7.12 c 0,-1.893334 -1.84,-3.28 -4.34666,-3.28 -0.96,0 -2.72,0.346666 -4.16,0.853333 -0.32,0.106667 -0.42667,0.293333 -0.42667,0.586667 0,0.293333 0.21333,0.506666 0.48,0.506666 0.0533,0 0.16,0 0.26667,-0.05333 2.02666,-0.64 2.77333,-0.8 3.78666,-0.8 1.92,0 3.25334,0.88 3.25334,2.186667 v 1.893333 c -1.54667,-0.426667 -2.4,-0.56 -3.62667,-0.56 -3.36,0 -5.6,1.546667 -5.6,3.893333 0,2.026667 1.65333,3.413333 4.16,3.413333 1.86667,0 3.46667,-0.666666 5.06667,-2.186666 z m 0,-2.986667 c -1.76,1.68 -3.2,2.32 -5.12,2.32 -1.86667,0 -3.01334,-0.933333 -3.01334,-2.266666 0,-1.68 1.89334,-2.853334 4.72,-2.853334 1.17334,0 2.50667,0.16 3.41334,0.426667 z" />
    <path
       id="path59"
       style=""
       d="m 323.79986,48.435005 h 1.17334 c 0.53333,0 0.69333,-0.213333 0.69333,-0.533333 0,-0.373333 -0.16,-0.586667 -0.69333,-0.586667 h -3.14667 c -0.53333,0 -0.74667,0.213334 -0.74667,0.586667 0,0.32 0.21334,0.533333 0.74667,0.533333 h 0.85333 v 8.933334 h -0.85333 c -0.53333,0 -0.74667,0.16 -0.74667,0.56 0,0.32 0.21334,0.533333 0.74667,0.533333 h 3.14667 c 0.53333,0 0.69333,-0.213333 0.69333,-0.533333 0,-0.4 -0.16,-0.56 -0.69333,-0.56 h -1.17334 v -3.813334 h 7.09334 v 3.813334 h -1.22667 c -0.48,0 -0.74667,0.16 -0.74667,0.56 0,0.32 0.26667,0.533333 0.74667,0.533333 h 3.41333 c 0.48,0 0.69334,-0.213333 0.69334,-0.533333 0,-0.4 -0.21334,-0.56 -0.69334,-0.56 h -1.09333 v -8.933334 h 1.09333 c 0.48,0 0.69334,-0.213333 0.69334,-0.533333 0,-0.373333 -0.21334,-0.586667 -0.69334,-0.586667 h -2.18666 -1.22667 c -0.48,0 -0.74667,0.213334 -0.74667,0.586667 0,0.32 0.26667,0.533333 0.74667,0.533333 h 1.22667 v 4.026667 h -7.09334 z" />
    <path
       id="path61"
       style=""
       d="m 348.64277,58.461672 v 2.426666 c 0,0.453334 0.16,0.72 0.48,0.72 0.42667,0 0.58667,-0.266666 0.58667,-0.72 v -3.519999 h -1.46667 v -8.933334 h 0.88 c 0.48,0 0.74667,-0.213333 0.74667,-0.533333 0,-0.373333 -0.26667,-0.586667 -0.74667,-0.586667 h -2.88 c -0.48,0 -0.74666,0.213334 -0.74666,0.586667 0,0.32 0.26666,0.533333 0.74666,0.533333 h 0.90667 v 8.933334 h -7.09333 v -8.933334 h 1.17333 c 0.48,0 0.69333,-0.213333 0.69333,-0.533333 0,-0.373333 -0.21333,-0.586667 -0.69333,-0.586667 h -3.46667 c -0.58666,0 -0.8,0.213334 -0.8,0.586667 0,0.32 0.21334,0.533333 0.8,0.533333 h 1.17334 v 8.933334 h -0.90667 c -0.48,0 -0.69333,0.16 -0.69333,0.586666 0,0.293334 0.21333,0.506667 0.69333,0.506667 z" />
    <path
       id="path63"
       style=""
       d="m 358.9257,58.461672 -1.86667,3.866666 h -3.41333 c -0.48,0 -0.69333,0.16 -0.69333,0.533334 0,0.346666 0.21333,0.56 0.69333,0.56 h 6.18667 c 0.53333,0 0.74666,-0.213334 0.74666,-0.56 0,-0.373334 -0.21333,-0.533334 -0.74666,-0.533334 h -1.65334 l 6.77334,-13.893333 h 0.37333 c 0.48,0 0.74667,-0.213333 0.74667,-0.533333 0,-0.373333 -0.26667,-0.586667 -0.74667,-0.586667 h -2.93333 c -0.42667,0 -0.69334,0.213334 -0.69334,0.586667 0,0.32 0.26667,0.533333 0.69334,0.533333 h 1.44 l -4.26667,8.8 -4.37333,-8.8 h 1.38666 c 0.48,0 0.69334,-0.213333 0.69334,-0.533333 0,-0.373333 -0.21334,-0.586667 -0.69334,-0.586667 h -3.09333 c -0.48,0 -0.74667,0.213334 -0.74667,0.586667 0,0.32 0.26667,0.533333 0.74667,0.533333 h 0.42667 z" />
    <path
       id="path65"
       style=""
       d="m 373.52861,51.875005 c -0.42666,0 -0.69333,0.16 -0.69333,0.56 0,0.32 0.26667,0.533334 0.69333,0.533334 h 1.86667 c 1.54667,0 2.18667,0.346666 2.82667,0.72 0.74666,0.373333 1.17333,1.04 1.17333,1.68 0,1.386666 -1.76,2.426666 -4.05333,2.426666 -2.24,0 -4.08,-0.96 -4.08,-2.213333 v -0.186667 c 0,-0.32 -0.29334,-0.586666 -0.56,-0.586666 -0.37334,0 -0.53334,0.266666 -0.53334,0.72 v 2.213333 c 0,0.506667 0.16,0.72 0.53334,0.72 0.32,0 0.56,-0.213333 0.56,-0.72 v -0.293333 c 1.09333,0.959999 2.42666,1.439999 4.13333,1.439999 3.04,0 5.22667,-1.466666 5.22667,-3.519999 0,-0.933334 -0.48,-1.813334 -1.33334,-2.4 -0.26666,-0.213334 -0.58666,-0.346667 -0.90666,-0.506667 v -0.16 l 0.42666,-0.213333 c 0.69334,-0.506667 1.2,-1.253334 1.2,-2.106667 0,-1.76 -1.94666,-3.013333 -4.56,-3.013333 -1.54666,0 -2.72,0.373333 -3.68,1.226666 v -0.133333 c 0,-0.453333 -0.16,-0.746667 -0.50666,-0.746667 -0.37334,0 -0.56,0.293334 -0.56,0.746667 v 1.84 c 0,0.506667 0.18666,0.773333 0.56,0.773333 0.34666,0 0.45333,-0.213333 0.50666,-0.64 0.16,-1.173333 1.54667,-1.973333 3.57334,-1.973333 1.97333,0 3.46666,0.853333 3.46666,1.973333 0,0.453334 -0.26666,0.933334 -0.85333,1.253334 -0.58667,0.346666 -0.74667,0.586666 -3.09333,0.586666 z" />
    <path
       id="path67"
       style=""
       d="m 395.65152,48.435005 c -1.12,-0.96 -2.50666,-1.466666 -4.10666,-1.466666 -3.62667,0 -6.18667,2.533333 -6.18667,6.053333 0,3.386667 2.56,5.866666 6.08,5.866666 1.70667,0 3.46667,-0.506666 4.85333,-1.466666 0.69334,-0.506667 1.12,-1.013333 1.12,-1.306667 0,-0.293333 -0.26666,-0.506666 -0.48,-0.506666 -0.26666,0 -0.26666,0.05333 -0.53333,0.266666 -1.33333,1.28 -3.04,1.92 -4.96,1.92 -2.93333,0 -4.93333,-1.973333 -4.93333,-4.773333 0,-2.986667 2,-4.96 4.93333,-4.96 2.24,0 4.10667,1.093333 4.21333,2.506667 0.10667,0.48 0.26667,0.693333 0.64,0.693333 0.26667,0 0.48,-0.266667 0.48,-0.773333 v -2.426667 c 0,-0.453333 -0.21333,-0.746667 -0.48,-0.746667 -0.42666,0 -0.64,0.293334 -0.64,0.746667 z" />
    <path
       id="path69"
       style=""
       d="m 404.46778,58.461672 v -5.066667 l 5.57334,3.973334 h -0.74667 c -0.48,0 -0.74667,0.16 -0.74667,0.56 0,0.32 0.26667,0.533333 0.74667,0.533333 h 3.46667 c 0.48,0 0.74666,-0.213333 0.74666,-0.533333 0,-0.4 -0.26666,-0.56 -0.74666,-0.56 h -1.17334 l -6.29333,-4.693334 5.44,-4.24 h 1.22667 c 0.53333,0 0.74666,-0.213333 0.74666,-0.533333 0,-0.373333 -0.21333,-0.586667 -0.74666,-0.586667 h -3.46667 c -0.48,0 -0.69333,0.213334 -0.69333,0.586667 0,0.32 0.21333,0.533333 0.69333,0.533333 h 0.58667 l -4.61334,3.6 v -4.72 h -2.53333 c -0.48,0 -0.69333,0.213334 -0.69333,0.586667 0,0.32 0.21333,0.533333 0.69333,0.533333 h 1.44 v 8.933334 h -1.44 c -0.48,0 -0.69333,0.16 -0.69333,0.56 0,0.32 0.21333,0.533333 0.69333,0.533333 z" />
    <path
       id="path71"
       style=""
       d="m 419.81736,48.435005 h 1.2 c 0.48,0 0.69334,-0.213333 0.69334,-0.533333 0,-0.373333 -0.21334,-0.586667 -0.69334,-0.586667 h -3.2 c -0.48,0 -0.69333,0.213334 -0.69333,0.586667 0,0.32 0.21333,0.533333 0.69333,0.533333 h 0.90667 v 8.933334 h -0.90667 c -0.48,0 -0.69333,0.16 -0.69333,0.56 0,0.32 0.21333,0.533333 0.69333,0.533333 h 3.2 c 0.48,0 0.69334,-0.213333 0.69334,-0.533333 0,-0.4 -0.21334,-0.56 -0.69334,-0.56 h -1.2 v -1.12 l 7.12,-5.04 v 6.16 h -1.22666 c -0.53334,0 -0.74667,0.16 -0.74667,0.56 0,0.32 0.21333,0.533333 0.74667,0.533333 h 3.2 c 0.42666,0 0.69333,-0.213333 0.69333,-0.533333 0,-0.4 -0.26667,-0.56 -0.69333,-0.56 h -0.88 v -8.933334 h 0.88 c 0.42666,0 0.69333,-0.213333 0.69333,-0.533333 0,-0.373333 -0.26667,-0.586667 -0.69333,-0.586667 h -1.97334 -1.22666 c -0.53334,0 -0.74667,0.213334 -0.74667,0.586667 0,0.32 0.21333,0.533333 0.74667,0.533333 h 1.22666 v 1.36 l -7.12,5.013334 z" />
    <path
       id="path73"
       style=""
       d="m 440.15361,52.621672 4.32,-4.186667 h 0.16 c 0.53333,0 0.72,-0.213333 0.72,-0.533333 0,-0.373333 -0.18667,-0.586667 -0.72,-0.586667 h -2.88 c -0.48,0 -0.74667,0.213334 -0.74667,0.586667 0,0.32 0.26667,0.533333 0.74667,0.533333 h 1.28 l -3.68,3.44 -3.52,-3.44 h 1.17333 c 0.53333,0 0.72,-0.213333 0.72,-0.533333 0,-0.426667 -0.18667,-0.586667 -0.72,-0.586667 h -2.93333 c -0.53334,0 -0.74667,0.213334 -0.74667,0.586667 0,0.32 0.21333,0.533333 0.74667,0.533333 h 0.16 l 4.32,4.186667 -4.85334,4.746667 h -0.26666 c -0.48,0 -0.74667,0.16 -0.74667,0.56 0,0.32 0.26667,0.533333 0.74667,0.533333 h 3.57333 c 0.48,0 0.66667,-0.213333 0.66667,-0.533333 0,-0.4 -0.18667,-0.56 -0.66667,-0.56 h -1.81333 l 4.16,-3.973334 4.10666,3.973334 h -1.70666 c -0.42667,0 -0.69334,0.16 -0.69334,0.56 0,0.32 0.26667,0.533333 0.69334,0.533333 h 3.52 c 0.48,0 0.74666,-0.213333 0.74666,-0.533333 0,-0.4 -0.26666,-0.56 -0.74666,-0.56 h -0.21334 z" />
    <path
       id="path75"
       style=""
       d="m 172.43737,77.955008 v -2.133333 c 0,-0.506667 -0.21334,-0.72 -0.53334,-0.72 -0.37333,0 -0.58666,0.213333 -0.58666,0.72 v 1.013333 c -9.12,-0.05333 -9.6,2 -9.6,9.333333 0,3.44 2.50666,6.08 5.86666,6.053333 3.36,-0.05333 5.78667,-2.693333 5.78667,-6.053333 0,-3.253333 -2.58667,-5.866666 -5.78667,-5.866666 -1.97333,0 -2.93333,0.373333 -4.48,2.053333 0,-4.906667 4.77334,-4.426667 9.33334,-4.4 z m -4.90667,3.44 c 2.66667,0 4.74667,2.133333 4.74667,4.96 0,2.586666 -2.18667,4.773333 -4.74667,4.773333 -2.66667,0 -4.72,-2.186667 -4.72,-4.88 0,-2.72 2.05333,-4.853333 4.72,-4.853333 z" />
    <path
       id="path77"
       style=""
       d="m 183.04028,91.795008 -1.86666,3.866666 h -3.41334 c -0.48,0 -0.69333,0.16 -0.69333,0.533334 0,0.346666 0.21333,0.56 0.69333,0.56 h 6.18667 c 0.53333,0 0.74667,-0.213334 0.74667,-0.56 0,-0.373334 -0.21334,-0.533334 -0.74667,-0.533334 h -1.65333 l 6.77333,-13.893333 h 0.37333 c 0.48,0 0.74667,-0.213333 0.74667,-0.533333 0,-0.373333 -0.26667,-0.586667 -0.74667,-0.586667 h -2.93333 c -0.42667,0 -0.69333,0.213334 -0.69333,0.586667 0,0.32 0.26666,0.533333 0.69333,0.533333 h 1.44 l -4.26667,8.8 -4.37333,-8.8 h 1.38667 c 0.48,0 0.69333,-0.213333 0.69333,-0.533333 0,-0.373333 -0.21333,-0.586667 -0.69333,-0.586667 h -3.09334 c -0.48,0 -0.74666,0.213334 -0.74666,0.586667 0,0.32 0.26666,0.533333 0.74666,0.533333 h 0.42667 z" />
    <path
       id="path79"
       style=""
       d="m 194.9232,90.035008 v -0.586667 c 0,-0.506667 -0.16,-0.746667 -0.53333,-0.746667 -0.37334,0 -0.53334,0.24 -0.53334,0.746667 v 0.746667 c 0,1.093333 0.74667,1.653333 1.70667,1.6 1.38667,0 2.08,-0.506667 1.97333,-1.76 v -8.266667 h 4.90667 v 8.933333 h -1.22667 c -0.48,0 -0.69333,0.16 -0.69333,0.56 0,0.32 0.21333,0.533334 0.69333,0.533334 h 3.25334 c 0.42666,0 0.69333,-0.213334 0.69333,-0.533334 0,-0.4 -0.26667,-0.56 -0.69333,-0.56 h -0.93334 v -8.933333 h 0.93334 c 0.42666,0 0.69333,-0.213333 0.69333,-0.533333 0,-0.373333 -0.26667,-0.586667 -0.69333,-0.586667 h -8.96 c -0.42667,0 -0.64,0.213334 -0.64,0.586667 0,0.32 0.21333,0.533333 0.64,0.533333 h 0.96 v 8.266667 c 0,0.426666 -0.32,0.72 -0.8,0.72 -0.37334,0 -0.74667,-0.266667 -0.74667,-0.72 z" />
    <path
       id="path81"
       style=""
       d="m 215.49945,80.301675 c -3.41333,0 -6.08,2.64 -6.08,5.946666 0,3.36 2.66667,5.973333 6.08,5.973333 3.36,0 6.05333,-2.613333 6.05333,-5.866666 0,-3.413333 -2.64,-6.053333 -6.05333,-6.053333 z m 0,1.093333 c 2.82667,0 4.96,2.133333 4.96,4.96 0,2.64 -2.18667,4.773333 -4.96,4.773333 -2.77333,0 -4.98667,-2.133333 -4.98667,-4.88 0,-2.72 2.21334,-4.853333 4.98667,-4.853333 z" />
    <path
       id="path83"
       style=""
       d="m 228.58237,91.795008 v -5.066667 l 5.57333,3.973333 h -0.74667 c -0.48,0 -0.74666,0.16 -0.74666,0.56 0,0.32 0.26666,0.533334 0.74666,0.533334 h 3.46667 c 0.48,0 0.74667,-0.213334 0.74667,-0.533334 0,-0.4 -0.26667,-0.56 -0.74667,-0.56 h -1.17333 l -6.29334,-4.693333 5.44,-4.24 h 1.22667 c 0.53333,0 0.74667,-0.213333 0.74667,-0.533333 0,-0.373333 -0.21334,-0.586667 -0.74667,-0.586667 h -3.46667 c -0.48,0 -0.69333,0.213334 -0.69333,0.586667 0,0.32 0.21333,0.533333 0.69333,0.533333 h 0.58667 l -4.61333,3.6 v -4.72 h -2.53334 c -0.48,0 -0.69333,0.213334 -0.69333,0.586667 0,0.32 0.21333,0.533333 0.69333,0.533333 h 1.44 v 8.933333 h -1.44 c -0.48,0 -0.69333,0.16 -0.69333,0.56 0,0.32 0.21333,0.533334 0.69333,0.533334 z" />
    <path
       id="path85"
       style=""
       d="m 259.9482,90.701674 h -3.09333 v 3.52 c 0,0.453334 0.10666,0.72 0.58666,0.72 0.26667,0 0.50667,-0.266666 0.50667,-0.72 v -2.426666 h 11.06667 v 2.426666 c 0,0.453334 0.21333,0.72 0.53333,0.72 0.42667,0 0.56,-0.266666 0.56,-0.72 v -3.52 h -2.72 v -8.933333 h 0.93333 c 0.48,0 0.74667,-0.213333 0.74667,-0.533333 0,-0.373333 -0.26667,-0.586667 -0.74667,-0.586667 h -8.90666 c -0.48,0 -0.69334,0.213334 -0.69334,0.586667 0,0.32 0.21334,0.533333 0.69334,0.533333 h 0.90666 v 7.84 c 0,0.8 -0.37333,1.093333 -0.37333,1.093333 z m 1.44,-1.093333 v -7.84 h 4.90667 v 8.933333 h -5.17334 c 0,0 0.26667,-0.426666 0.26667,-1.093333 z" />
    <path
       id="path87"
       style=""
       d="m 282.44445,91.795008 h 2.56 c 0.42666,0 0.72,-0.213334 0.72,-0.533334 0,-0.4 -0.29334,-0.56 -0.72,-0.56 h -1.41334 v -7.119999 c 0,-1.893334 -1.84,-3.28 -4.34666,-3.28 -0.96,0 -2.72,0.346666 -4.16,0.853333 -0.32,0.106667 -0.42667,0.293333 -0.42667,0.586667 0,0.293333 0.21333,0.506666 0.48,0.506666 0.0533,0 0.16,0 0.26667,-0.05333 2.02666,-0.64 2.77333,-0.8 3.78666,-0.8 1.92,0 3.25334,0.88 3.25334,2.186667 v 1.893333 c -1.54667,-0.426667 -2.4,-0.56 -3.62667,-0.56 -3.36,0 -5.6,1.546666 -5.6,3.893333 0,2.026667 1.65333,3.413333 4.16,3.413333 1.86667,0 3.46667,-0.666666 5.06667,-2.186666 z m 0,-2.986667 c -1.76,1.68 -3.2,2.32 -5.12,2.32 -1.86667,0 -3.01334,-0.933333 -3.01334,-2.266667 0,-1.68 1.89334,-2.853333 4.72,-2.853333 1.17334,0 2.50667,0.16 3.41334,0.426667 z" />
    <path
       id="path89"
       style=""
       d="m 307.91695,90.701674 h -0.90667 c -0.48,0 -0.69333,0.293334 -0.69333,0.56 0,0.293334 0.21333,0.533334 0.69333,0.533334 h 6.24 c 2.4,0 3.33334,-1.333334 3.33334,-3.013334 0,-1.466666 -0.77334,-2.346666 -2.37334,-2.853333 1.01334,-0.213333 1.62667,-1.386666 1.62667,-2.4 0,-1.573333 -1.25333,-2.88 -3.86667,-2.88 h -4.96 c -0.53333,0 -0.69333,0.293334 -0.69333,0.586667 0,0.24 0.16,0.533333 0.64,0.533333 h 0.96 z m 1.12,-5.226666 v -3.706667 h 2.98667 c 1.97333,0 2.72,0.586667 2.72,1.76 0,1.226667 -0.90667,1.946667 -3.2,1.946667 z m 0,5.226666 v -4.16 h 2.50667 c 2.24,0 3.94666,0.693334 3.94666,2.24 0,1.253334 -0.58666,1.92 -2.29333,1.92 z" />
    <path
       id="path91"
       style=""
       d="m 332.43986,90.701674 h -1.17333 c -0.48,0 -0.69333,0.16 -0.69333,0.56 0,0.32 0.21333,0.533334 0.69333,0.533334 h 3.2 c 0.48,0 0.69333,-0.213334 0.69333,-0.533334 0,-0.4 -0.21333,-0.56 -0.69333,-0.56 h -0.88 v -8.933333 h 0.88 c 0.48,0 0.69333,-0.213333 0.69333,-0.533333 0,-0.373333 -0.21333,-0.586667 -0.69333,-0.586667 h -2.02667 -1.17333 c -0.48,0 -0.69333,0.213334 -0.69333,0.586667 0,0.32 0.21333,0.533333 0.69333,0.533333 h 1.17333 z m -9.06666,-8.933333 c 0.53333,0 0.69333,-0.293333 0.69333,-0.533333 0,-0.293333 -0.21333,-0.586667 -0.74667,-0.586667 h -2.93333 c -0.48,0 -0.69333,0.293334 -0.69333,0.586667 0,0.24 0.16,0.533333 0.69333,0.533333 h 0.8 v 8.933333 h -0.8 c -0.42667,0 -0.69333,0.293334 -0.69333,0.56 0,0.293334 0.26666,0.533334 0.69333,0.533334 h 6.08 c 2.45333,0 3.33333,-1.333334 3.33333,-3.013334 0,-1.68 -1.09333,-3.306666 -3.28,-3.306666 h -4.29333 v -3.706667 z m -1.14667,8.933333 v -4.16 h 3.81333 c 1.65334,0 2.66667,0.64 2.66667,2.24 0,1.253334 -0.42667,1.92 -2.29333,1.92 z" />
    <path
       id="path93"
       style=""
       d="m 337.86944,80.648341 c -0.53333,0 -0.74667,0.213334 -0.74667,0.586667 0,0.32 0.21334,0.533333 0.74667,0.533333 h 0.90667 v 8.933333 h -0.90667 c -0.53333,0 -0.74667,0.16 -0.74667,0.56 0,0.32 0.21334,0.533334 0.74667,0.533334 h 3.2 c 0.48,0 0.69333,-0.213334 0.69333,-0.533334 0,-0.4 -0.21333,-0.56 -0.69333,-0.56 h -1.17333 v -8.933333 h 7.04 v 8.933333 h -1.17334 c -0.48,0 -0.74666,0.16 -0.74666,0.56 0,0.32 0.26666,0.533334 0.74666,0.533334 h 3.14667 c 0.53333,0 0.8,-0.213334 0.8,-0.533334 0,-0.4 -0.26667,-0.56 -0.8,-0.56 h -0.88 v -8.933333 h 0.88 c 0.53333,0 0.8,-0.213333 0.8,-0.533333 0,-0.373333 -0.26667,-0.586667 -0.8,-0.586667 z" />
    <path
       id="path95"
       style=""
       d="m 365.4857,86.461674 c 0,-1.199999 -0.0533,-1.706666 -0.42667,-2.586666 -0.96,-2.24 -3.09333,-3.573333 -5.65333,-3.573333 -3.46667,0 -6.08,2.48 -6.08,5.706666 0,3.44 2.82667,6.213333 6.45333,6.213333 2.45334,0 5.65334,-1.253333 5.65334,-2.186666 0,-0.293334 -0.26667,-0.533334 -0.53334,-0.533334 -0.10666,0 -0.26666,0.08 -0.42666,0.186667 -1.06667,0.853333 -2.98667,1.44 -4.64,1.44 -2.93334,0 -5.06667,-1.813333 -5.44,-4.666667 z m -11.09333,-1.093333 c 0.53333,-2.426666 2.4,-3.973333 5.01333,-3.973333 2.61333,0 4.53333,1.546667 5.01333,3.973333 z" />
    <path
       id="path97"
       style=""
       d="m 371.84861,81.768341 h 1.2 c 0.48,0 0.69334,-0.213333 0.69334,-0.533333 0,-0.373333 -0.21334,-0.586667 -0.69334,-0.586667 h -3.2 c -0.48,0 -0.69333,0.213334 -0.69333,0.586667 0,0.32 0.21333,0.533333 0.69333,0.533333 h 0.90667 v 8.933333 h -0.90667 c -0.48,0 -0.69333,0.16 -0.69333,0.56 0,0.32 0.21333,0.533334 0.69333,0.533334 h 3.2 c 0.48,0 0.69334,-0.213334 0.69334,-0.533334 0,-0.4 -0.21334,-0.56 -0.69334,-0.56 h -1.2 v -1.12 l 7.12,-5.039999 v 6.159999 h -1.22666 c -0.53334,0 -0.74667,0.16 -0.74667,0.56 0,0.32 0.21333,0.533334 0.74667,0.533334 h 3.2 c 0.42666,0 0.69333,-0.213334 0.69333,-0.533334 0,-0.4 -0.26667,-0.56 -0.69333,-0.56 h -0.88 v -8.933333 h 0.88 c 0.42666,0 0.69333,-0.213333 0.69333,-0.533333 0,-0.373333 -0.26667,-0.586667 -0.69333,-0.586667 h -1.97334 -1.22666 c -0.53334,0 -0.74667,0.213334 -0.74667,0.586667 0,0.32 0.21333,0.533333 0.74667,0.533333 h 1.22666 v 1.36 l -7.12,5.013333 z m 0.24,-7.2 c -0.37333,0 -0.53333,0.213334 -0.53333,0.586667 0,1.6 1.70667,2.853333 3.84,2.853333 2.18667,0 3.84,-1.253333 3.84,-2.853333 0,-0.373333 -0.21333,-0.586667 -0.53333,-0.586667 -0.32,0 -0.48,0.16 -0.53334,0.533334 -0.10666,1.013333 -1.33333,1.813333 -2.77333,1.813333 -1.49333,0 -2.66667,-0.8 -2.77333,-1.813333 -0.10667,-0.373334 -0.21334,-0.533334 -0.53334,-0.533334 z" />
    <path
       id="path99"
       style=""
       d="m 404.60112,81.768341 h 1.17333 c 0.53333,0 0.74667,-0.213333 0.74667,-0.533333 0,-0.373333 -0.21334,-0.586667 -0.74667,-0.586667 h -3.14667 c -0.48,0 -0.69333,0.213334 -0.69333,0.586667 0,0.32 0.21333,0.533333 0.69333,0.533333 h 0.90667 v 4.32 c 0.0533,1.92 2.02667,1.92 3.89333,1.92 1.12,0 2.08,-0.24 2.66667,-0.826667 v 3.52 h -0.90667 c -0.48,0 -0.69333,0.16 -0.69333,0.56 0,0.32 0.21333,0.533334 0.69333,0.533334 h 2.93334 c 0.48,0 0.69333,-0.213334 0.69333,-0.533334 0,-0.4 -0.21333,-0.56 -0.69333,-0.56 h -0.93334 v -8.933333 h 0.93334 c 0.48,0 0.69333,-0.213333 0.69333,-0.533333 0,-0.373333 -0.21333,-0.586667 -0.69333,-0.586667 h -2.02667 -0.90667 c -0.48,0 -0.69333,0.213334 -0.69333,0.586667 0,0.32 0.21333,0.533333 0.69333,0.533333 h 0.90667 v 4.24 c -0.37333,0.453333 -1.54667,0.88 -2.66667,0.933333 -1.22666,0.02667 -2.69333,-0.266666 -2.82666,-0.879999 z" />
    <path
       id="path101"
       style=""
       d="m 426.3507,91.795008 h 2.56 c 0.42666,0 0.72,-0.213334 0.72,-0.533334 0,-0.4 -0.29334,-0.56 -0.72,-0.56 h -1.41334 v -7.119999 c 0,-1.893334 -1.84,-3.28 -4.34666,-3.28 -0.96,0 -2.72,0.346666 -4.16,0.853333 -0.32,0.106667 -0.42667,0.293333 -0.42667,0.586667 0,0.293333 0.21333,0.506666 0.48,0.506666 0.0533,0 0.16,0 0.26667,-0.05333 2.02666,-0.64 2.77333,-0.8 3.78666,-0.8 1.92,0 3.25334,0.88 3.25334,2.186667 v 1.893333 c -1.54667,-0.426667 -2.4,-0.56 -3.62667,-0.56 -3.36,0 -5.6,1.546666 -5.6,3.893333 0,2.026667 1.65333,3.413333 4.16,3.413333 1.86667,0 3.46667,-0.666666 5.06667,-2.186666 z m 0,-2.986667 c -1.76,1.68 -3.2,2.32 -5.12,2.32 -1.86667,0 -3.01334,-0.933333 -3.01334,-2.266667 0,-1.68 1.89334,-2.853333 4.72,-2.853333 1.17334,0 2.50667,0.16 3.41334,0.426667 z" />
    <path
       id="path103"
       style=""
       d="m 436.74027,86.888341 c 0.37334,2.986667 2.08,5.333333 5.28,5.333333 3.36,0 5.25334,-2.613333 5.25334,-5.866666 0,-3.413333 -1.78667,-6.053333 -5.25334,-6.053333 -3.25333,0 -5.01333,2.426666 -5.28,5.493333 h -2.29333 v -4.026667 h 1.17333 c 0.48,0 0.74667,-0.213333 0.74667,-0.533333 0,-0.373333 -0.26667,-0.586667 -0.74667,-0.586667 h -3.2 c -0.48,0 -0.74666,0.213334 -0.74666,0.586667 0,0.32 0.26666,0.533333 0.74666,0.533333 h 0.96 v 8.933333 h -1.22666 c -0.48,0 -0.74667,0.16 -0.74667,0.56 0,0.32 0.26667,0.533334 0.74667,0.533334 h 3.46666 c 0.48,0 0.74667,-0.213334 0.74667,-0.533334 0,-0.4 -0.26667,-0.56 -0.74667,-0.56 h -1.17333 v -3.813333 z m 5.28,-5.493333 c 2.77334,0 4.16,2.133333 4.16,4.96 0,2.64 -1.44,4.773333 -4.16,4.773333 -2.77333,0 -4.16,-2.133333 -4.16,-4.88 0,-2.72 1.38667,-4.853333 4.16,-4.853333 z" />
  </g>
</svg>
