<?xml version="1.0" encoding="UTF-8" standalone="no"?>
<svg
   xmlns:dc="http://purl.org/dc/elements/1.1/"
   xmlns:cc="http://creativecommons.org/ns#"
   xmlns:rdf="http://www.w3.org/1999/02/22-rdf-syntax-ns#"
   xmlns:svg="http://www.w3.org/2000/svg"
   xmlns="http://www.w3.org/2000/svg"
   id="svg2"
   version="1.1"
   viewBox="159.93434 9.138753 286.9401 86.64063">
  <metadata
     id="metadata11">
    <rdf:RDF>
      <cc:Work
         rdf:about="">
        <dc:format>image/svg+xml</dc:format>
        <dc:type
           rdf:resource="http://purl.org/dc/dcmitype/StillImage" />
      </cc:Work>
    </rdf:RDF>
  </metadata>
  <defs
     id="defs9" />
  <g
     id="text4521"
     style="font-style:normal;font-variant:normal;font-weight:normal;font-stretch:normal;font-size:26.66666603px;line-height:125%;font-family:'Courier New', monospace;font-variant-ligatures:normal;font-variant-caps:normal;font-variant-numeric:normal;font-feature-settings:normal;text-align:left;letter-spacing:0px;word-spacing:0px;writing-mode:lr-tb;text-anchor:start;fill:#000000;fill-opacity:1;stroke:none;stroke-width:1px;stroke-linecap:butt;stroke-linejoin:miter;stroke-opacity:1"
     aria-label="Съешь же ещё этихмягких французскихбулок да выпей чаю">
    <path
       id="path13"
       style=""
       d="m 172.3432,11.391357 v -0.768229 q 0,-0.390625 0.14323,-0.559896 0.15625,-0.1692707 0.40365,-0.1692707 0.24739,0 0.39062,0.1692707 0.15625,0.169271 0.15625,0.559896 v 3.033854 q 0,0.403646 -0.15625,0.572917 -0.14323,0.169271 -0.39062,0.169271 -0.22136,0 -0.37761,-0.15625 -0.14323,-0.15625 -0.16927,-0.507813 -0.0651,-1.09375 -1.1849,-1.940104 -1.51041,-1.158854 -3.4375,-1.158854 -1.26302,0 -2.38281,0.559896 -0.83333,0.403645 -1.32812,0.989583 -0.85938,1.015625 -1.36719,2.252604 -0.36458,0.911458 -0.36458,2.057292 v 1.914062 q 0,2.447917 1.77083,4.257813 1.77083,1.796874 4.11458,1.796874 1.40625,0 2.51302,-0.611979 1.1198,-0.611979 2.16146,-1.848958 0.22136,-0.273437 0.49479,-0.273437 0.23438,0 0.37761,0.143229 0.14323,0.143229 0.14323,0.364583 0,0.299479 -0.5599,0.911458 -1.06771,1.197917 -2.40885,1.809896 -1.32813,0.598958 -2.69532,0.598958 -1.18489,0 -2.40885,-0.455729 -0.9375,-0.351562 -1.54948,-0.820312 -0.61198,-0.46875 -1.51042,-1.575521 -0.88541,-1.119792 -1.21093,-2.057292 -0.32552,-0.95052 -0.32552,-2.083333 v -2.226562 q 0,-1.614584 0.85937,-3.294271 0.8724,-1.692708 2.36979,-2.591146 1.51042,-0.9114582 3.26823,-0.9114582 2.70834,0 4.66146,1.8489582 z" />
    <path
       id="path15"
       style=""
       d="m 177.5906,14.959065 v 2.669271 q 0,0.729167 -0.54688,0.729167 -0.54687,0 -0.54687,-0.729167 v -3.776041 h 7.61718 q 0.72917,0 0.72917,0.559895 0,0.546875 -0.72917,0.546875 h -1.47135 v 3.684896 h 2.98177 q 5.05208,0 5.05208,3.098958 0,1.341146 -0.84635,2.369792 -0.84635,1.015625 -4.20573,1.015625 h -4.71354 q -0.72917,0 -0.72917,-0.546875 0,-0.546875 0.72917,-0.546875 h 0.63802 v -9.075521 z m 5.05208,9.075521 h 2.92969 q 2.47396,0 3.22916,-0.585938 0.75521,-0.585937 0.75521,-1.653645 0,-1.171875 -0.91146,-1.601563 -0.89843,-0.442708 -3.11198,-0.442708 h -2.89062 z" />
    <path
       id="path17"
       style=""
       d="M 205.42914,19.750732 H 194.2833 q 0.28646,2.122396 1.77084,3.424479 1.49739,1.289062 3.69791,1.289062 1.22396,0 2.56511,-0.403645 1.34114,-0.403646 2.1875,-1.067709 0.24739,-0.195312 0.42969,-0.195312 0.20833,0 0.36458,0.169271 0.15625,0.15625 0.15625,0.377604 0,0.221354 -0.20833,0.429687 -0.625,0.651042 -2.22657,1.223959 -1.58854,0.559895 -3.26823,0.559895 -2.8125,0 -4.70052,-1.835937 -1.875,-1.848958 -1.875,-4.466146 0,-2.382812 1.75782,-4.088541 1.77083,-1.705729 4.375,-1.705729 2.68229,0 4.41406,1.757812 1.73177,1.744792 1.70573,4.53125 z m -1.10677,-1.106771 q -0.32552,-1.809896 -1.71875,-2.942708 -1.38021,-1.132813 -3.29427,-1.132813 -1.91407,0 -3.29428,1.119792 -1.3802,1.119792 -1.71875,2.955729 z" />
    <path
       id="path19"
       style=""
       d="m 220.4031,24.034586 v -9.075521 h -0.61198 q -0.72917,0 -0.72917,-0.546875 0,-0.559895 0.72917,-0.559895 h 2.30468 q 0.74219,0 0.74219,0.559895 0,0.546875 -0.74219,0.546875 h -0.59895 v 9.075521 h 0.83333 q 0.74219,0 0.74219,0.546875 0,0.546875 -0.74219,0.546875 H 208.6583 q -0.72916,0 -0.72916,-0.546875 0,-0.546875 0.72916,-0.546875 h 0.84636 v -9.075521 h -0.61198 q -0.72917,0 -0.72917,-0.546875 0,-0.559895 0.72917,-0.559895 h 2.30469 q 0.74218,0 0.74218,0.559895 0,0.546875 -0.74218,0.546875 h -0.59896 v 9.075521 h 4.34896 v -9.075521 h -0.59896 q -0.72917,0 -0.72917,-0.546875 0,-0.559895 0.72917,-0.559895 h 2.30469 q 0.72916,0 0.72916,0.559895 0,0.546875 -0.72916,0.546875 h -0.59896 v 9.075521 z" />
    <path
       id="path21"
       style=""
       d="m 228.11143,14.959065 v 3.684896 h 3.26823 q 5.05208,0 5.05208,3.098958 0,1.341146 -0.85937,2.369792 -0.84636,1.015625 -4.19271,1.015625 h -5 q -0.72917,0 -0.72917,-0.546875 0,-0.546875 0.72917,-0.546875 h 0.63802 v -9.075521 h -0.58594 q -0.74219,0 -0.74219,-0.546875 0,-0.559895 0.74219,-0.559895 h 3.15104 q 0.72917,0 0.72917,0.559895 0,0.546875 -0.72917,0.546875 z m 0,9.075521 h 3.21614 q 2.46094,0 3.21615,-0.585938 0.75521,-0.585937 0.75521,-1.653645 0,-1.236979 -0.98959,-1.640625 -0.98958,-0.403646 -3.03385,-0.403646 h -3.16406 z" />
    <path
       id="path23"
       style=""
       d="m 264.02289,14.959065 v 3.567709 h 0.26041 q 0.52084,0 0.92448,-0.403646 0.40365,-0.403646 1.36719,-1.901042 0.97656,-1.523437 1.53646,-1.940104 0.57292,-0.429687 1.66667,-0.429687 0.59895,0 0.7552,0.182291 0.15625,0.182292 0.15625,0.742188 v 0.911458 q 0,0.833333 -0.53385,0.833333 -0.57292,0 -0.57292,-0.742187 v -0.820313 q -0.57291,0 -0.97656,0.29948 -0.39062,0.286458 -1.17187,1.536458 -1.04167,1.705729 -1.58855,2.096354 1.19792,0.664062 2.26563,2.565104 l 1.43229,2.578125 h 0.74219 q 0.91146,0 0.91146,0.546875 0,0.546875 -0.91146,0.546875 h -0.70313 q -0.53385,0 -0.66406,-0.0651 -0.13021,-0.07813 -0.3776,-0.533854 l -1.43229,-2.578125 q -1.28907,-2.330729 -2.72136,-2.330729 h -0.36458 v 4.414062 h 0.75521 q 0.92448,0 0.92448,0.546875 0,0.546875 -0.92448,0.546875 h -2.63021 q -0.92448,0 -0.92448,-0.546875 0,-0.546875 0.92448,-0.546875 h 0.76823 v -4.414062 h -0.37761 q -1.43229,0 -2.72135,2.330729 l -1.43229,2.578125 q -0.2474,0.442708 -0.37761,0.520833 -0.11718,0.07813 -0.625,0.07813 h -0.74218 q -0.91146,0 -0.91146,-0.546875 0,-0.546875 0.91146,-0.546875 h 0.74218 l 1.44532,-2.578125 q 0.97656,-1.744792 2.2526,-2.565104 -0.54688,-0.442708 -1.58854,-2.096354 -0.79427,-1.236979 -1.1849,-1.536458 -0.3776,-0.29948 -0.96354,-0.29948 v 0.820313 q 0,0.742187 -0.54687,0.742187 -0.5599,0 -0.5599,-0.833333 v -0.911458 q 0,-0.559896 0.14323,-0.742188 0.14323,-0.182291 0.59896,-0.182291 1.14583,0 1.79687,0.429687 0.66406,0.416667 1.58854,1.940104 0.96355,1.601563 1.41927,1.953125 0.46875,0.351563 0.85938,0.351563 h 0.27344 v -3.567709 h -0.76823 q -0.92448,0 -0.92448,-0.546875 0,-0.559895 0.92448,-0.559895 h 2.63021 q 0.92448,0 0.92448,0.559895 0,0.546875 -0.92448,0.546875 z" />
    <path
       id="path25"
       style=""
       d="m 285.37705,19.750732 h -11.14583 q 0.28645,2.122396 1.77083,3.424479 1.4974,1.289062 3.69792,1.289062 1.22395,0 2.5651,-0.403645 1.34115,-0.403646 2.1875,-1.067709 0.2474,-0.195312 0.42969,-0.195312 0.20833,0 0.36458,0.169271 0.15625,0.15625 0.15625,0.377604 0,0.221354 -0.20833,0.429687 -0.625,0.651042 -2.22656,1.223959 -1.58855,0.559895 -3.26823,0.559895 -2.8125,0 -4.70052,-1.835937 -1.875,-1.848958 -1.875,-4.466146 0,-2.382812 1.75781,-4.088541 1.77083,-1.705729 4.375,-1.705729 2.68229,0 4.41406,1.757812 1.73177,1.744792 1.70573,4.53125 z m -1.10677,-1.106771 q -0.32552,-1.809896 -1.71875,-2.942708 -1.38021,-1.132813 -3.29427,-1.132813 -1.91406,0 -3.29427,1.119792 -1.38021,1.119792 -1.71875,2.955729 z" />
    <path
       id="path27"
       style=""
       d="m 317.35622,19.750732 h -11.14583 q 0.28646,2.122396 1.77083,3.424479 1.4974,1.289062 3.69792,1.289062 1.22396,0 2.5651,-0.403645 1.34115,-0.403646 2.1875,-1.067709 0.2474,-0.195312 0.42969,-0.195312 0.20833,0 0.36458,0.169271 0.15625,0.15625 0.15625,0.377604 0,0.221354 -0.20833,0.429687 -0.625,0.651042 -2.22656,1.223959 -1.58854,0.559895 -3.26823,0.559895 -2.8125,0 -4.70052,-1.835937 -1.875,-1.848958 -1.875,-4.466146 0,-2.382812 1.75781,-4.088541 1.77083,-1.705729 4.375,-1.705729 2.68229,0 4.41406,1.757812 1.73177,1.744792 1.70573,4.53125 z m -1.10677,-1.106771 q -0.32552,-1.809896 -1.71875,-2.942708 -1.38021,-1.132813 -3.29427,-1.132813 -1.91406,0 -3.29427,1.119792 -1.38021,1.119792 -1.71875,2.955729 z" />
    <path
       id="path29"
       style=""
       d="m 333.42392,24.034586 h 1.08073 q 0.61198,0 0.76823,0.143229 0.15625,0.143229 0.15625,0.768229 v 2.044271 q 0,0.885417 -0.54687,0.885417 -0.5599,0 -0.5599,-0.846354 v -1.901042 h -13.73698 q -0.72916,0 -0.72916,-0.546875 0,-0.546875 0.72916,-0.546875 h 0.84636 v -9.075521 h -0.61198 q -0.72917,0 -0.72917,-0.546875 0,-0.559895 0.72917,-0.559895 h 2.30469 q 0.74218,0 0.74218,0.559895 0,0.546875 -0.74218,0.546875 h -0.59896 v 9.075521 h 4.34896 v -9.075521 h -0.59896 q -0.72917,0 -0.72917,-0.546875 0,-0.559895 0.72917,-0.559895 h 2.30468 q 0.72917,0 0.72917,0.559895 0,0.546875 -0.72917,0.546875 h -0.59895 v 9.075521 h 4.34895 v -9.075521 h -0.61197 q -0.72917,0 -0.72917,-0.546875 0,-0.559895 0.72917,-0.559895 h 2.30468 q 0.74219,0 0.74219,0.559895 0,0.546875 -0.74219,0.546875 h -0.59896 z" />
    <path
       id="path31"
       style=""
       d="m 349.33538,19.750732 h -11.14584 q 0.28646,2.122396 1.77084,3.424479 1.49739,1.289062 3.69791,1.289062 1.22396,0 2.56511,-0.403645 1.34114,-0.403646 2.1875,-1.067709 0.24739,-0.195312 0.42969,-0.195312 0.20833,0 0.36458,0.169271 0.15625,0.15625 0.15625,0.377604 0,0.221354 -0.20833,0.429687 -0.625,0.651042 -2.22657,1.223959 -1.58854,0.559895 -3.26823,0.559895 -2.8125,0 -4.70052,-1.835937 -1.875,-1.848958 -1.875,-4.466146 0,-2.382812 1.75782,-4.088541 1.77083,-1.705729 4.375,-1.705729 2.68229,0 4.41406,1.757812 1.73177,1.744792 1.70573,4.53125 z m -1.10677,-1.106771 q -0.32552,-1.809896 -1.71875,-2.942708 -1.38021,-1.132813 -3.29427,-1.132813 -1.91407,0 -3.29427,1.119792 -1.38021,1.119792 -1.71875,2.955729 z m -6.48438,-8.4375 q 0,0.442709 -0.3125,0.755209 -0.3125,0.299479 -0.75521,0.299479 -0.42968,0 -0.74218,-0.3125 -0.3125,-0.3125 -0.3125,-0.742188 0,-0.442708 0.3125,-0.755208 0.3125,-0.3125 0.74218,-0.3125 0.44271,0 0.75521,0.3125 0.3125,0.3125 0.3125,0.755208 z m 5.58594,0 q 0,0.442709 -0.3125,0.755209 -0.3125,0.299479 -0.75521,0.299479 -0.44271,0 -0.75521,-0.3125 -0.29948,-0.3125 -0.29948,-0.742188 0,-0.442708 0.29948,-0.755208 0.3125,-0.3125 0.75521,-0.3125 0.44271,0 0.75521,0.3125 0.3125,0.3125 0.3125,0.755208 z" />
    <path
       id="path33"
       style=""
       d="m 380.05153,19.034586 h -5.76823 q -0.74219,0 -0.74219,0.546875 0,0.546875 0.74219,0.546875 h 5.76823 q -0.2474,2.044271 -1.64063,3.190104 -1.3802,1.145833 -3.33333,1.145833 -2.95573,0 -4.98698,-1.979166 -0.27344,-0.260417 -0.48177,-0.260417 -0.52083,0 -0.52083,0.520834 0,0.690104 1.875,1.757812 1.875,1.054687 4.16666,1.054687 2.6823,0 4.36198,-1.705729 1.67969,-1.705729 1.67969,-4.257812 0,-2.604167 -1.73177,-4.361979 -1.71875,-1.770833 -4.38802,-1.770833 -2.51302,0 -4.21875,1.497395 v -0.364583 q 0,-0.742187 -0.54688,-0.742187 -0.55989,0 -0.55989,0.742187 v 2.473958 q 0,0.742188 0.55989,0.742188 0.4948,0 0.54688,-0.651042 0.0911,-1.054687 1.32812,-1.822916 1.25,-0.76823 2.95573,-0.76823 2.00521,0 3.33334,1.171875 1.34114,1.171875 1.60156,3.294271 z" />
    <path
       id="path35"
       style=""
       d="m 391.92652,14.959065 v 9.075521 h 2.83855 q 0.74218,0 0.74218,0.546875 0,0.546875 -0.74218,0.546875 h -6.77084 q -0.74219,0 -0.74219,-0.546875 0,-0.546875 0.74219,-0.546875 h 2.83854 v -9.075521 h -4.1927 v 3.789063 q 0,0.729166 -0.54688,0.729166 -0.54687,0 -0.54687,-0.729166 V 13.852295 H 397.226 v 4.895833 q 0,0.729166 -0.54687,0.729166 -0.5599,0 -0.5599,-0.729166 v -3.789063 z" />
    <path
       id="path37"
       style=""
       d="m 403.46299,25.128336 h -2.60416 q -0.72917,0 -0.72917,-0.546875 0,-0.546875 0.72917,-0.546875 h 1.3151 v -9.075521 h -1.3151 q -0.72917,0 -0.72917,-0.546875 0,-0.559895 0.72917,-0.559895 h 3.8802 q 0.72917,0 0.72917,0.559895 0,0.546875 -0.72917,0.546875 h -1.47135 v 8.59375 l 7.8776,-9.70052 h 2.7474 q 0.72917,0 0.72917,0.559895 0,0.546875 -0.72917,0.546875 h -1.47135 v 9.075521 h 1.47135 q 0.72917,0 0.72917,0.546875 0,0.546875 -0.72917,0.546875 h -4.03646 q -0.72917,0 -0.72917,-0.546875 0,-0.546875 0.72917,-0.546875 h 1.47136 v -8.580729 z" />
    <path
       id="path39"
       style=""
       d="m 424.11403,19.229899 5.01302,4.804687 q 0.49479,0 0.625,0.05208 0.13021,0.03906 0.22135,0.182292 0.10417,0.143229 0.10417,0.3125 0,0.234375 -0.16927,0.390625 -0.16927,0.15625 -0.57292,0.15625 h -3.51562 q -0.40365,0 -0.57292,-0.15625 -0.16927,-0.15625 -0.16927,-0.390625 0,-0.247396 0.16927,-0.390625 0.16927,-0.15625 0.57292,-0.15625 h 1.80989 l -4.25781,-4.075521 -4.23177,4.075521 h 1.82292 q 0.39062,0 0.55989,0.15625 0.16927,0.143229 0.16927,0.390625 0,0.234375 -0.16927,0.390625 -0.16927,0.15625 -0.55989,0.15625 h -3.55469 q -0.39063,0 -0.5599,-0.15625 -0.16927,-0.15625 -0.16927,-0.390625 0,-0.169271 0.0912,-0.3125 0.10417,-0.143229 0.22135,-0.182292 0.13021,-0.05208 0.625,-0.05208 l 5.01302,-4.804687 -4.45312,-4.270834 q -0.46875,0 -0.59896,-0.05208 -0.11719,-0.05208 -0.22135,-0.195312 -0.0912,-0.14323 -0.0912,-0.3125 0,-0.234375 0.16927,-0.390625 0.16927,-0.15625 0.57292,-0.15625 h 2.98177 q 0.40364,0 0.55989,0.15625 0.16928,0.15625 0.16928,0.403645 0,0.234375 -0.16928,0.390625 -0.15625,0.15625 -0.55989,0.15625 h -1.30208 l 3.68489,3.554688 3.71094,-3.554688 h -1.30208 q -0.39063,0 -0.57292,-0.15625 -0.16927,-0.15625 -0.16927,-0.403645 0,-0.234375 0.16927,-0.390625 0.16927,-0.15625 0.57292,-0.15625 h 2.98177 q 0.39062,0 0.55989,0.15625 0.16927,0.15625 0.16927,0.403645 0,0.15625 -0.10416,0.29948 -0.0912,0.143229 -0.22136,0.195312 -0.11719,0.05208 -0.58594,0.05208 z" />
    <path
       id="path41"
       style=""
       d="m 168.18955,57.367922 h -1.25 l -4.20572,-9.075521 h -0.0521 v 9.075521 h 2.01823 q 0.72917,0 0.72917,0.546875 0,0.546875 -0.72917,0.546875 h -4.03646 q -0.72916,0 -0.72916,-0.546875 0,-0.546875 0.72916,-0.546875 h 0.92448 v -9.075521 h -0.6901 q -0.72917,0 -0.72917,-0.546875 0,-0.559896 0.72917,-0.559896 h 2.52604 l 4.14062,8.945313 4.07553,-8.945313 h 2.52604 q 0.74218,0 0.74218,0.559896 0,0.546875 -0.74218,0.546875 h -0.67709 v 9.075521 h 0.91146 q 0.74219,0 0.74219,0.546875 0,0.546875 -0.74219,0.546875 h -4.02344 q -0.74218,0 -0.74218,-0.546875 0,-0.546875 0.74218,-0.546875 h 2.00521 v -9.075521 h -0.0651 z" />
    <path
       id="path43"
       style=""
       d="m 186.7833,53.943443 h -3.15104 q -3.76302,1.536458 -4.28385,4.518229 h -1.51042 q -0.61198,0 -0.61198,-0.546875 0,-0.546875 0.61198,-0.546875 h 0.66406 q 0.84636,-2.421875 3.65886,-3.658854 -3.02083,-0.638021 -3.02083,-3.333333 0,-1.40625 0.9375,-2.291667 0.95052,-0.898438 2.9427,-0.898438 h 6.04167 q 0.61198,0 0.61198,0.559896 0,0.546875 -0.61198,0.546875 h -1.17187 v 9.075521 h 1.17187 q 0.61198,0 0.61198,0.546875 0,0.546875 -0.61198,0.546875 h -3.88021 q -0.61198,0 -0.61198,-0.546875 0,-0.546875 0.61198,-0.546875 h 1.60156 z m 0,-1.09375 v -4.557292 h -3.52864 q -3.00781,0 -3.00781,2.122396 0,1.223958 0.80729,1.835937 0.80729,0.598959 3.04687,0.598959 z" />
    <path
       id="path45"
       style=""
       d="m 197.92914,57.367922 h 2.60416 q 0.72917,0 0.72917,0.546875 0,0.546875 -0.72917,0.546875 h -6.3151 q -0.72917,0 -0.72917,-0.546875 0,-0.546875 0.72917,-0.546875 h 2.60417 v -9.075521 h -2.60417 q -0.72917,0 -0.72917,-0.546875 0,-0.559896 0.72917,-0.559896 h 11.45833 v 5.455729 q 0,0.729167 -0.55989,0.729167 -0.54688,0 -0.54688,-0.729167 v -4.348958 h -6.64062 z" />
    <path
       id="path47"
       style=""
       d="m 220.70258,48.292401 q -0.97657,0 -1.4323,0.286459 -0.45573,0.273437 -1.54948,1.614583 -1.3802,1.692708 -2.08333,2.122396 0.625,0.15625 1.15886,0.494791 0.54687,0.338542 1.6927,1.966146 l 1.82292,2.591146 h 1.53646 q 0.91146,0 0.91146,0.546875 0,0.546875 -0.91146,0.546875 h -1.53646 q -0.66406,0 -0.88542,-0.338542 -0.0391,-0.07813 -0.1302,-0.208333 l -1.84896,-2.734375 q -0.9375,-1.393229 -1.875,-1.809896 -0.9375,-0.416667 -2.35677,-0.416667 h -0.8073 v 4.414063 h 1.32813 q 0.91146,0 0.91146,0.546875 0,0.546875 -0.91146,0.546875 h -3.76302 q -0.91146,0 -0.91146,-0.546875 0,-0.546875 0.91146,-0.546875 h 1.32812 v -9.075521 h -1.32812 q -0.91146,0 -0.91146,-0.546875 0,-0.559896 0.91146,-0.559896 h 3.76302 q 0.91146,0 0.91146,0.559896 0,0.546875 -0.91146,0.546875 h -1.32813 v 3.567708 h 0.8073 q 1.05468,0 1.61458,-0.3125 0.5599,-0.312499 1.48437,-1.445312 1.60157,-1.953125 2.30469,-2.434896 0.70313,-0.481771 2.10938,-0.481771 0.66406,0 0.85937,0.15625 0.20834,0.15625 0.20834,0.76823 v 1.497395 q 0,0.78125 -0.5599,0.78125 -0.53385,0 -0.53385,-0.690104 z" />
    <path
       id="path49"
       style=""
       d="m 227.57757,58.461672 h -2.60416 q -0.72917,0 -0.72917,-0.546875 0,-0.546875 0.72917,-0.546875 h 1.3151 v -9.075521 h -1.3151 q -0.72917,0 -0.72917,-0.546875 0,-0.559896 0.72917,-0.559896 h 3.88021 q 0.72916,0 0.72916,0.559896 0,0.546875 -0.72916,0.546875 h -1.47136 v 8.59375 l 7.87761,-9.700521 h 2.74739 q 0.72917,0 0.72917,0.559896 0,0.546875 -0.72917,0.546875 h -1.47135 v 9.075521 h 1.47135 q 0.72917,0 0.72917,0.546875 0,0.546875 -0.72917,0.546875 h -4.03646 q -0.72916,0 -0.72916,-0.546875 0,-0.546875 0.72916,-0.546875 h 1.47136 v -8.580729 z" />
    <path
       id="path51"
       style=""
       d="m 248.22861,52.563234 5.01303,4.804688 q 0.49479,0 0.625,0.05208 0.1302,0.03906 0.22135,0.182292 0.10417,0.143229 0.10417,0.3125 0,0.234375 -0.16927,0.390625 -0.16928,0.15625 -0.57292,0.15625 h -3.51563 q -0.40364,0 -0.57291,-0.15625 -0.16927,-0.15625 -0.16927,-0.390625 0,-0.247396 0.16927,-0.390625 0.16927,-0.15625 0.57291,-0.15625 h 1.8099 l -4.25781,-4.075521 -4.23177,4.075521 h 1.82291 q 0.39063,0 0.5599,0.15625 0.16927,0.143229 0.16927,0.390625 0,0.234375 -0.16927,0.390625 -0.16927,0.15625 -0.5599,0.15625 h -3.55468 q -0.39063,0 -0.5599,-0.15625 -0.16927,-0.15625 -0.16927,-0.390625 0,-0.169271 0.0911,-0.3125 0.10417,-0.143229 0.22136,-0.182292 0.13021,-0.05208 0.625,-0.05208 l 5.01302,-4.804688 -4.45313,-4.270833 q -0.46875,0 -0.59895,-0.05208 -0.11719,-0.05208 -0.22136,-0.195313 -0.0911,-0.143229 -0.0911,-0.3125 0,-0.234375 0.16927,-0.390625 0.16927,-0.15625 0.57291,-0.15625 h 2.98177 q 0.40365,0 0.5599,0.15625 0.16927,0.15625 0.16927,0.403646 0,0.234375 -0.16927,0.390625 -0.15625,0.15625 -0.5599,0.15625 h -1.30208 l 3.6849,3.554688 3.71093,-3.554688 h -1.30208 q -0.39062,0 -0.57292,-0.15625 -0.16927,-0.15625 -0.16927,-0.403646 0,-0.234375 0.16927,-0.390625 0.16928,-0.15625 0.57292,-0.15625 h 2.98177 q 0.39063,0 0.5599,0.15625 0.16927,0.15625 0.16927,0.403646 0,0.15625 -0.10417,0.299479 -0.0911,0.14323 -0.22135,0.195313 -0.11719,0.05208 -0.58594,0.05208 z" />
    <path
       id="path53"
       style=""
       d="m 280.01247,47.315839 q 0.9375,-0.520834 1.80989,-0.520834 1.77084,0 2.92969,1.757813 1.15885,1.757812 1.15885,4.322916 0,2.356771 -1.08073,4.153646 -1.08072,1.783854 -3.125,1.783854 -0.9375,0 -1.6927,-0.351562 v 3.085937 h 2.34375 q 0.89843,0 0.89843,0.546875 0,0.533854 -0.89843,0.533854 h -5.78125 q -0.91146,0 -0.91146,-0.533854 0,-0.546875 0.91146,-0.546875 h 2.34375 v -3.085937 q -0.72917,0.351562 -1.67969,0.351562 -1.86198,0 -3.04688,-1.627604 -1.18489,-1.640625 -1.18489,-4.309896 0,-2.591145 1.14583,-4.335937 1.15886,-1.744792 2.96875,-1.744792 0.89844,0 1.79688,0.520834 v -3.723958 l -1.57552,0.117187 q -0.28646,0.01302 -0.37761,0.01302 -0.61198,0 -0.61198,-0.559896 0,-0.533854 0.91146,-0.585937 l 1.78385,-0.130209 q 0.27344,-0.01302 0.37761,-0.01302 0.58594,0 0.58594,0.911459 z m 0,9.674479 q 0.76823,0.729166 1.61458,0.729166 1.47135,0 2.27865,-1.471354 0.82031,-1.471354 0.82031,-3.372396 0,-1.953124 -0.82031,-3.463541 -0.8073,-1.510417 -2.25261,-1.510417 -0.95052,0 -1.64062,0.690104 z m -1.09375,0.01302 V 48.59188 q -0.59896,-0.690104 -1.60157,-0.690104 -1.49739,0 -2.3177,1.523438 -0.8073,1.523437 -0.8073,3.4375 0,1.927083 0.8073,3.398437 0.82031,1.458333 2.27864,1.458333 0.98958,0 1.64063,-0.716145 z" />
    <path
       id="path55"
       style=""
       d="m 291.32757,47.18563 v 1.992188 q 0.97657,-1.184896 2.09636,-1.783854 1.11979,-0.598959 2.64323,-0.598959 1.61458,0 2.98177,0.755209 1.36718,0.755208 2.10937,2.109375 0.75521,1.341146 0.75521,2.82552 0,2.356771 -1.69271,4.036459 -1.67969,1.666666 -4.14062,1.666666 -2.92969,0 -4.75261,-2.382812 v 6.588541 h 2.65625 q 0.39063,0 0.5599,0.14323 0.16927,0.15625 0.16927,0.403645 0,0.234375 -0.16927,0.390625 -0.16927,0.15625 -0.5599,0.15625 h -5.22135 q -0.39063,0 -0.5599,-0.15625 -0.16927,-0.143229 -0.16927,-0.390625 0,-0.247395 0.16927,-0.403645 0.16927,-0.14323 0.5599,-0.14323 h 1.47135 V 48.292401 h -1.47135 q -0.39063,0 -0.5599,-0.15625 -0.16927,-0.15625 -0.16927,-0.403646 0,-0.234375 0.16927,-0.390625 0.16927,-0.15625 0.5599,-0.15625 z m 9.47917,5.299479 q 0,-1.88802 -1.38021,-3.229166 -1.36719,-1.354167 -3.34635,-1.354167 -1.99219,0 -3.3724,1.354167 -1.38021,1.354167 -1.38021,3.229166 0,1.888021 1.38021,3.242188 1.38021,1.354167 3.3724,1.354167 1.96614,0 3.34635,-1.341146 1.38021,-1.354167 1.38021,-3.255209 z" />
    <path
       id="path57"
       style=""
       d="m 314.58278,58.461672 v -1.575521 q -2.38281,2.005208 -5.09114,2.005208 -1.96615,0 -3.07292,-0.989583 -1.10677,-1.002604 -1.10677,-2.447917 0,-1.588541 1.45833,-2.773437 1.45834,-1.184896 4.25782,-1.184896 0.7552,0 1.64062,0.104167 0.88542,0.09115 1.91406,0.299479 v -1.770833 q 0,-0.898438 -0.83333,-1.5625 -0.83333,-0.664063 -2.5,-0.664063 -1.27604,0 -3.58073,0.742188 -0.41667,0.130208 -0.53385,0.130208 -0.20834,0 -0.36459,-0.15625 -0.14323,-0.15625 -0.14323,-0.390625 0,-0.221354 0.13021,-0.351562 0.18229,-0.195313 1.47136,-0.533855 2.03125,-0.546875 3.07291,-0.546875 2.07032,0 3.22917,1.028646 1.15885,1.015625 1.15885,2.304688 v 7.239583 h 1.45834 q 0.40364,0 0.57291,0.15625 0.16928,0.143229 0.16928,0.390625 0,0.234375 -0.16928,0.390625 -0.16927,0.15625 -0.57291,0.15625 z m 0,-5.442708 q -0.76823,-0.221355 -1.6276,-0.325521 -0.85938,-0.104167 -1.8099,-0.104167 -2.38281,0 -3.72395,1.028646 -1.01563,0.768229 -1.01563,1.835937 0,0.989584 0.76823,1.666667 0.78125,0.677083 2.26562,0.677083 1.41928,0 2.63021,-0.559895 1.22396,-0.572917 2.51302,-1.809896 z" />
    <path
       id="path59"
       style=""
       d="m 330.97601,53.084068 h -7.09636 v 4.283854 h 1.23698 q 0.72917,0 0.72917,0.546875 0,0.546875 -0.72917,0.546875 h -3.56771 q -0.72916,0 -0.72916,-0.546875 0,-0.546875 0.72916,-0.546875 h 1.23698 v -9.075521 h -0.84635 q -0.72917,0 -0.72917,-0.546875 0,-0.559896 0.72917,-0.559896 h 2.78646 q 0.72916,0 0.72916,0.559896 0,0.546875 -0.72916,0.546875 h -0.84636 v 3.684896 h 7.09636 v -3.684896 h -0.83334 q -0.74218,0 -0.74218,-0.546875 0,-0.559896 0.74218,-0.559896 h 2.77344 q 0.72917,0 0.72917,0.559896 0,0.546875 -0.72917,0.546875 h -0.84635 v 9.075521 h 1.23698 q 0.72916,0 0.72916,0.546875 0,0.546875 -0.72916,0.546875 h -3.56771 q -0.72917,0 -0.72917,-0.546875 0,-0.546875 0.72917,-0.546875 h 1.23698 z" />
    <path
       id="path61"
       style=""
       d="m 349.14007,58.461672 h -11.99219 q -0.72917,0 -0.72917,-0.546875 0,-0.546875 0.72917,-0.546875 h 1.23698 v -9.075521 h -0.84636 q -0.72916,0 -0.72916,-0.546875 0,-0.559896 0.72916,-0.559896 h 2.78646 q 0.72917,0 0.72917,0.559896 0,0.546875 -0.72917,0.546875 h -0.84635 v 9.075521 h 7.09635 v -9.075521 h -0.83333 q -0.74219,0 -0.74219,-0.546875 0,-0.559896 0.74219,-0.559896 h 2.77344 q 0.72916,0 0.72916,0.559896 0,0.546875 -0.72916,0.546875 h -0.84636 v 9.075521 h 1.65365 q 0.58593,0 0.75521,0.15625 0.16927,0.15625 0.16927,0.755208 v 2.044271 q 0,0.885417 -0.54688,0.885417 -0.55989,0 -0.55989,-0.846355 z" />
    <path
       id="path63"
       style=""
       d="m 354.99945,48.292401 4.6224,8.385417 4.58333,-8.385417 h -0.96354 q -0.91146,0 -0.91146,-0.546875 0,-0.559896 0.91146,-0.559896 h 2.79948 q 0.91146,0 0.91146,0.559896 0,0.546875 -0.91146,0.546875 h -0.61198 l -6.32813,11.575521 q -0.79427,1.445312 -1.52343,2.005208 -0.72917,0.572917 -1.65365,0.572917 -0.70313,0 -1.26302,-0.143229 -0.54688,-0.130209 -0.72917,-0.325521 -0.18229,-0.195313 -0.18229,-0.768229 v -1.510417 q 0,-0.885417 0.54688,-0.885417 0.54687,0 0.54687,0.820313 v 1.601562 q 0.48177,0.117188 0.89844,0.117188 0.78125,0 1.25,-0.377604 0.48177,-0.377605 1.14583,-1.601563 l 0.83333,-1.523437 -5.22135,-9.557292 h -0.65104 q -0.91146,0 -0.91146,-0.546875 0,-0.559896 0.91146,-0.559896 h 2.90364 q 0.91146,0 0.91146,0.559896 0,0.546875 -0.91146,0.546875 z" />
    <path
       id="path65"
       style=""
       d="m 378.64528,52.49813 0.79427,0.182292 q 0.8724,0.195312 1.53646,0.950521 0.66406,0.742187 0.66406,1.744791 0,1.54948 -1.41927,2.539063 -1.40625,0.976562 -4.57031,0.976562 -2.08334,0 -4.23177,-0.598958 -2.14844,-0.611979 -2.14844,-1.289062 0,-0.247396 0.18229,-0.416667 0.18229,-0.182292 0.36458,-0.182292 0.16927,0 0.45573,0.143229 2.53907,1.25 5.48177,1.25 2.34375,0 3.51563,-0.677083 1.18489,-0.690104 1.18489,-1.744792 0,-1.197916 -1.36718,-1.692708 -1.35417,-0.507812 -4.6875,-0.507812 h -0.71615 q -0.91146,0 -0.91146,-0.507813 0,-0.598958 0.91146,-0.598958 h 0.71615 q 5.49479,0 5.49479,-2.174479 0,-0.911459 -1.09375,-1.445313 -1.08073,-0.546875 -3.125,-0.546875 -3.9974,0 -4.6224,2.578125 -0.16927,0.703125 -0.57291,0.703125 -0.48177,0 -0.48177,-0.572916 v -2.877605 q 0,-0.9375 0.53385,-0.9375 0.5599,0 0.5599,0.9375 v 0.820313 q 1.67968,-1.757813 4.84375,-1.757813 2.26562,0 3.69791,0.820313 1.43229,0.807292 1.43229,2.265625 0,1.848958 -2.42187,2.617187 z" />
    <path
       id="path67"
       style=""
       d="m 395.94996,48.292401 v -0.364583 q 0,-0.403646 0.15625,-0.572917 0.15625,-0.169271 0.39063,-0.169271 0.24739,0 0.40364,0.169271 0.15625,0.169271 0.15625,0.572917 v 2.473958 q -0.013,0.403646 -0.16927,0.572917 -0.14323,0.169271 -0.39062,0.169271 -0.22136,0 -0.37761,-0.143229 -0.14323,-0.15625 -0.16927,-0.507813 -0.0781,-0.924479 -1.22396,-1.757812 -1.13281,-0.833334 -3.05989,-0.833334 -2.4349,0 -3.69792,1.523438 -1.26302,1.523437 -1.26302,3.489583 0,2.122396 1.39323,3.502604 1.39323,1.380208 3.60677,1.380208 1.27604,0 2.59115,-0.46875 1.32812,-0.46875 2.39583,-1.510416 0.27344,-0.260417 0.48177,-0.260417 0.22135,0 0.36458,0.15625 0.15625,0.143229 0.15625,0.364583 0,0.559896 -1.3151,1.419271 -2.1224,1.393229 -4.72656,1.393229 -2.64323,0 -4.34896,-1.679687 -1.69271,-1.692708 -1.69271,-4.283854 0,-2.643229 1.73177,-4.388021 1.74479,-1.744792 4.38802,-1.744792 2.51302,0 4.21875,1.497396 z" />
    <path
       id="path69"
       style=""
       d="m 412.57758,48.292401 q -0.97657,0 -1.4323,0.286459 -0.45573,0.273437 -1.54948,1.614583 -1.3802,1.692708 -2.08333,2.122396 0.625,0.15625 1.15886,0.494791 0.54687,0.338542 1.6927,1.966146 l 1.82292,2.591146 h 1.53646 q 0.91146,0 0.91146,0.546875 0,0.546875 -0.91146,0.546875 h -1.53646 q -0.66406,0 -0.88542,-0.338542 -0.0391,-0.07813 -0.1302,-0.208333 l -1.84896,-2.734375 q -0.9375,-1.393229 -1.875,-1.809896 -0.9375,-0.416667 -2.35677,-0.416667 h -0.8073 v 4.414063 h 1.32813 q 0.91146,0 0.91146,0.546875 0,0.546875 -0.91146,0.546875 h -3.76302 q -0.91146,0 -0.91146,-0.546875 0,-0.546875 0.91146,-0.546875 h 1.32812 v -9.075521 h -1.32812 q -0.91146,0 -0.91146,-0.546875 0,-0.559896 0.91146,-0.559896 h 3.76302 q 0.91146,0 0.91146,0.559896 0,0.546875 -0.91146,0.546875 h -1.32813 v 3.567708 h 0.8073 q 1.05468,0 1.61458,-0.3125 0.5599,-0.312499 1.48437,-1.445312 1.60157,-1.953125 2.30469,-2.434896 0.70313,-0.481771 2.10938,-0.481771 0.66406,0 0.85937,0.15625 0.20834,0.15625 0.20834,0.76823 v 1.497395 q 0,0.78125 -0.5599,0.78125 -0.53385,0 -0.53385,-0.690104 z" />
    <path
       id="path71"
       style=""
       d="m 419.45257,58.461672 h -2.60417 q -0.72916,0 -0.72916,-0.546875 0,-0.546875 0.72916,-0.546875 h 1.31511 v -9.075521 h -1.31511 q -0.72916,0 -0.72916,-0.546875 0,-0.559896 0.72916,-0.559896 h 3.88021 q 0.72917,0 0.72917,0.559896 0,0.546875 -0.72917,0.546875 h -1.47135 v 8.59375 l 7.8776,-9.700521 h 2.7474 q 0.72916,0 0.72916,0.559896 0,0.546875 -0.72916,0.546875 h -1.47136 v 9.075521 h 1.47136 q 0.72916,0 0.72916,0.546875 0,0.546875 -0.72916,0.546875 h -4.03646 q -0.72917,0 -0.72917,-0.546875 0,-0.546875 0.72917,-0.546875 h 1.47135 v -8.580729 z" />
    <path
       id="path73"
       style=""
       d="m 440.10361,52.563234 5.01302,4.804688 q 0.49479,0 0.625,0.05208 0.13021,0.03906 0.22135,0.182292 0.10417,0.143229 0.10417,0.3125 0,0.234375 -0.16927,0.390625 -0.16927,0.15625 -0.57292,0.15625 h -3.51562 q -0.40365,0 -0.57292,-0.15625 -0.16927,-0.15625 -0.16927,-0.390625 0,-0.247396 0.16927,-0.390625 0.16927,-0.15625 0.57292,-0.15625 h 1.80989 l -4.25781,-4.075521 -4.23177,4.075521 h 1.82292 q 0.39062,0 0.55989,0.15625 0.16927,0.143229 0.16927,0.390625 0,0.234375 -0.16927,0.390625 -0.16927,0.15625 -0.55989,0.15625 h -3.55469 q -0.39063,0 -0.5599,-0.15625 -0.16927,-0.15625 -0.16927,-0.390625 0,-0.169271 0.0912,-0.3125 0.10416,-0.143229 0.22135,-0.182292 0.13021,-0.05208 0.625,-0.05208 l 5.01302,-4.804688 -4.45312,-4.270833 q -0.46875,0 -0.59896,-0.05208 -0.11719,-0.05208 -0.22136,-0.195313 -0.0911,-0.143229 -0.0911,-0.3125 0,-0.234375 0.16927,-0.390625 0.16927,-0.15625 0.57292,-0.15625 h 2.98177 q 0.40364,0 0.55989,0.15625 0.16927,0.15625 0.16927,0.403646 0,0.234375 -0.16927,0.390625 -0.15625,0.15625 -0.55989,0.15625 h -1.30209 l 3.6849,3.554688 3.71094,-3.554688 h -1.30209 q -0.39062,0 -0.57291,-0.15625 -0.16927,-0.15625 -0.16927,-0.403646 0,-0.234375 0.16927,-0.390625 0.16927,-0.15625 0.57291,-0.15625 h 2.98177 q 0.39063,0 0.5599,0.15625 0.16927,0.15625 0.16927,0.403646 0,0.15625 -0.10417,0.299479 -0.0911,0.14323 -0.22135,0.195313 -0.11719,0.05208 -0.58594,0.05208 z" />
    <path
       id="path75"
       style=""
       d="m 162.38226,82.667404 q 1.95313,-2.539063 5.26042,-2.539063 2.94271,0 4.64844,1.757813 1.71875,1.744791 1.71875,4.296875 0,2.552083 -1.74479,4.296875 -1.73178,1.744791 -4.64844,1.744791 -2.08334,0 -3.56771,-0.885416 -1.47135,-0.898438 -2.16146,-2.265625 -0.6901,-1.380209 -0.6901,-3.932292 0,-3.580729 0.45573,-4.947917 0.45573,-1.380208 1.53645,-2.174479 1.08073,-0.79427 3.09896,-0.79427 h 2.48698 q 1.94011,0 2.20052,-0.794271 0.15625,-0.442709 0.26042,-0.546875 0.10417,-0.104167 0.36458,-0.104167 0.61198,0 0.61198,0.638021 0,0.729167 -0.72916,1.315104 -0.72917,0.585938 -2.57813,0.585938 h -2.61719 q -1.30208,0 -2.14843,0.455729 -0.83334,0.442708 -1.21094,1.25 -0.36459,0.807291 -0.54688,2.643229 z m 0.013,3.489583 q 0,1.888021 1.32813,3.411458 1.32812,1.523438 3.89323,1.523438 2.35677,0 3.77604,-1.432292 1.43229,-1.445312 1.43229,-3.502604 0,-2.057292 -1.43229,-3.489583 -1.41927,-1.432292 -3.77604,-1.432292 -2.36979,0 -3.80209,1.432292 -1.41927,1.432291 -1.41927,3.489583 z" />
    <path
       id="path77"
       style=""
       d="m 179.11403,81.625737 4.6224,8.385417 4.58333,-8.385417 h -0.96354 q -0.91146,0 -0.91146,-0.546875 0,-0.559896 0.91146,-0.559896 h 2.79948 q 0.91146,0 0.91146,0.559896 0,0.546875 -0.91146,0.546875 h -0.61198 l -6.32812,11.575521 q -0.79427,1.445312 -1.52344,2.005208 -0.72917,0.572917 -1.65365,0.572917 -0.70312,0 -1.26302,-0.14323 -0.54687,-0.130208 -0.72916,-0.32552 -0.1823,-0.195313 -0.1823,-0.76823 v -1.510416 q 0,-0.885417 0.54688,-0.885417 0.54687,0 0.54687,0.820313 v 1.601562 q 0.48177,0.117188 0.89844,0.117188 0.78125,0 1.25,-0.377605 0.48177,-0.377604 1.14583,-1.601562 l 0.83334,-1.523437 -5.22136,-9.557292 h -0.65104 q -0.91146,0 -0.91146,-0.546875 0,-0.559896 0.91146,-0.559896 h 2.90365 q 0.91146,0 0.91146,0.559896 0,0.546875 -0.91146,0.546875 z" />
    <path
       id="path79"
       style=""
       d="m 204.33539,81.625737 v 9.075521 h 1.09375 q 0.91146,0 0.91146,0.546875 0,0.546875 -0.91146,0.546875 h -3.26823 q -0.91146,0 -0.91146,-0.546875 0,-0.546875 0.91146,-0.546875 h 1.08073 v -9.075521 h -5.37761 v 6.289062 q 0,2.278646 -0.98958,3.294271 -0.98958,1.015625 -2.5651,1.015625 -0.65105,0 -1.27605,-0.15625 -0.625,-0.15625 -0.74218,-0.325521 -0.11719,-0.182291 -0.11719,-0.716145 v -1.08073 q 0,-0.820312 0.58594,-0.820312 0.50781,0 0.50781,0.755208 v 1.067709 q 0.59896,0.143229 1.06771,0.143229 2.42187,0 2.42187,-3.177084 v -6.289062 h -1.43229 q -0.91146,0 -0.91146,-0.546875 0,-0.559896 0.91146,-0.559896 h 10.10417 q 0.91146,0 0.91146,0.559896 0,0.546875 -0.91146,0.546875 z" />
    <path
       id="path81"
       style=""
       d="m 221.61403,86.183029 q 0,2.5 -1.79687,4.270833 -1.78386,1.770833 -4.3099,1.770833 -2.55208,0 -4.33593,-1.770833 -1.78386,-1.783854 -1.78386,-4.270833 0,-2.5 1.78386,-4.270834 1.78385,-1.783854 4.33593,-1.783854 2.52604,0 4.3099,1.770834 1.79687,1.770833 1.79687,4.283854 z m -1.10677,0 q 0,-2.057292 -1.47135,-3.502604 -1.45833,-1.445313 -3.54167,-1.445313 -2.08333,0 -3.55469,1.458333 -1.45833,1.445313 -1.45833,3.489584 0,2.03125 1.45833,3.489583 1.47136,1.458333 3.55469,1.458333 2.08334,0 3.54167,-1.445312 1.47135,-1.458334 1.47135,-3.502604 z" />
    <path
       id="path83"
       style=""
       d="m 236.69216,81.625737 q -0.97657,0 -1.43229,0.286458 -0.45573,0.273438 -1.54948,1.614584 -1.38021,1.692708 -2.08334,2.122396 0.625,0.15625 1.15886,0.494791 0.54687,0.338542 1.69271,1.966146 l 1.82291,2.591146 h 1.53646 q 0.91146,0 0.91146,0.546875 0,0.546875 -0.91146,0.546875 h -1.53646 q -0.66406,0 -0.88541,-0.338542 -0.0391,-0.07813 -0.13021,-0.208333 l -1.84896,-2.734375 q -0.9375,-1.393229 -1.875,-1.809896 -0.9375,-0.416667 -2.35677,-0.416667 h -0.80729 v 4.414063 h 1.32812 q 0.91146,0 0.91146,0.546875 0,0.546875 -0.91146,0.546875 h -3.76302 q -0.91146,0 -0.91146,-0.546875 0,-0.546875 0.91146,-0.546875 h 1.32813 v -9.075521 h -1.32813 q -0.91146,0 -0.91146,-0.546875 0,-0.559896 0.91146,-0.559896 h 3.76302 q 0.91146,0 0.91146,0.559896 0,0.546875 -0.91146,0.546875 h -1.32812 v 3.567708 h 0.80729 q 1.05469,0 1.61458,-0.3125 0.5599,-0.3125 1.48438,-1.445312 1.60156,-1.953125 2.30468,-2.434896 0.70313,-0.481771 2.10938,-0.481771 0.66406,0 0.85937,0.15625 0.20834,0.15625 0.20834,0.768229 v 1.497396 q 0,0.78125 -0.5599,0.78125 -0.53385,0 -0.53385,-0.690104 z" />
    <path
       id="path85"
       style=""
       d="m 269.20518,91.795008 h -11.47135 v 1.927083 q 0,0.820312 -0.5599,0.820312 -0.53385,0 -0.53385,-0.872395 v -2.070313 q 0,-0.677083 0.15625,-0.78125 0.16927,-0.117187 0.52083,-0.143229 0.9375,-0.0651 2.17448,-0.911458 1.23698,-0.859375 1.23698,-3.489583 v -4.648438 h -1.43229 q -0.92448,0 -0.92448,-0.546875 0,-0.559896 0.92448,-0.559896 h 10.09114 q 0.91146,0 0.91146,0.559896 0,0.546875 -0.91146,0.546875 h -1.08073 v 9.075521 h 1.08073 q 0.58594,0 0.74219,0.15625 0.16927,0.143229 0.16927,0.742187 v 2.070313 q 0,0.872395 -0.53385,0.872395 -0.5599,0 -0.5599,-0.820312 z m -7.38281,-10.169271 v 4.648438 q 0,3.216145 -1.84896,4.427083 h 7.22656 v -9.075521 z" />
    <path
       id="path87"
       style=""
       d="m 282.60361,91.795008 v -1.575521 q -2.38281,2.005208 -5.09114,2.005208 -1.96615,0 -3.07292,-0.989583 -1.10677,-1.002604 -1.10677,-2.447917 0,-1.588541 1.45833,-2.773437 1.45834,-1.184896 4.25781,-1.184896 0.75521,0 1.64063,0.104167 0.88542,0.09115 1.91406,0.299479 v -1.770833 q 0,-0.898438 -0.83333,-1.5625 -0.83333,-0.664063 -2.5,-0.664063 -1.27604,0 -3.58073,0.742188 -0.41667,0.130208 -0.53385,0.130208 -0.20834,0 -0.36459,-0.15625 -0.14323,-0.15625 -0.14323,-0.390625 0,-0.221354 0.13021,-0.351563 0.18229,-0.195312 1.47136,-0.533854 2.03125,-0.546875 3.07291,-0.546875 2.07031,0 3.22917,1.028646 1.15885,1.015625 1.15885,2.304688 v 7.239583 h 1.45834 q 0.40364,0 0.57291,0.15625 0.16927,0.143229 0.16927,0.390625 0,0.234375 -0.16927,0.390625 -0.16927,0.15625 -0.57291,0.15625 z m 0,-5.442708 q -0.76823,-0.221355 -1.6276,-0.325521 -0.85938,-0.104167 -1.8099,-0.104167 -2.38281,0 -3.72396,1.028646 -1.01562,0.768229 -1.01562,1.835937 0,0.989584 0.76823,1.666667 0.78125,0.677083 2.26562,0.677083 1.41927,0 2.63021,-0.559896 1.22396,-0.572916 2.51302,-1.809895 z" />
    <path
       id="path89"
       style=""
       d="m 307.23903,90.701258 v -9.075521 h -1.47135 q -0.72917,0 -0.72917,-0.546875 0,-0.559896 0.72917,-0.559896 h 5.9375 q 4.4401,0 4.4401,2.8125 0,1.757813 -2.29166,2.252604 3.45052,0.45573 3.45052,2.994792 0,3.216146 -4.29688,3.216146 h -7.23958 q -0.72917,0 -0.72917,-0.546875 0,-0.546875 0.72917,-0.546875 z m 1.09375,-5.611979 h 2.92969 q 3.78906,0 3.78906,-1.822917 0,-0.768229 -0.63802,-1.197917 -0.63802,-0.442708 -2.69531,-0.442708 h -3.38542 z m 0,5.611979 h 4.58334 q 3.28125,0 3.28125,-2.109375 0,-1.028646 -0.83334,-1.71875 -0.83333,-0.690104 -4.03645,-0.690104 h -2.9948 z" />
    <path
       id="path91"
       style=""
       d="m 333.15049,81.625737 v 9.075521 h 1.45833 q 0.74219,0 0.74219,0.546875 0,0.546875 -0.74219,0.546875 h -4.02344 q -0.72916,0 -0.72916,-0.546875 0,-0.546875 0.72916,-0.546875 h 1.45834 v -9.075521 h -1.45834 q -0.72916,0 -0.72916,-0.546875 0,-0.559896 0.72916,-0.559896 h 4.02344 q 0.74219,0 0.74219,0.559896 0,0.546875 -0.74219,0.546875 z m -10.95052,0 v 3.684896 h 2.5651 q 5.05208,0 5.05208,3.098958 0,1.341146 -0.84635,2.369792 -0.84635,1.015625 -4.20573,1.015625 h -4.29687 q -0.72917,0 -0.72917,-0.546875 0,-0.546875 0.72917,-0.546875 h 0.63802 v -9.075521 h -0.58594 q -0.74219,0 -0.74219,-0.546875 0,-0.559896 0.74219,-0.559896 h 3.15104 q 0.72917,0 0.72917,0.559896 0,0.546875 -0.72917,0.546875 z m 0,9.075521 h 2.51302 q 2.26562,0 3.125,-0.507813 0.85937,-0.507812 0.85937,-1.731771 0,-1.171875 -0.91146,-1.601562 -0.89843,-0.442708 -3.11198,-0.442708 h -2.47395 z" />
    <path
       id="path93"
       style=""
       d="m 346.96559,81.625737 h -7.09636 v 9.075521 h 1.23698 q 0.72917,0 0.72917,0.546875 0,0.546875 -0.72917,0.546875 h -3.56771 q -0.72916,0 -0.72916,-0.546875 0,-0.546875 0.72916,-0.546875 h 1.23698 v -9.075521 h -0.84635 q -0.72917,0 -0.72917,-0.546875 0,-0.559896 0.72917,-0.559896 h 10.97656 q 0.72917,0 0.72917,0.559896 0,0.546875 -0.72917,0.546875 h -0.84635 v 9.075521 h 1.23698 q 0.72916,0 0.72916,0.546875 0,0.546875 -0.72916,0.546875 h -3.56771 q -0.72917,0 -0.72917,-0.546875 0,-0.546875 0.72917,-0.546875 h 1.23698 z" />
    <path
       id="path95"
       style=""
       d="m 365.32497,86.417404 h -11.14583 q 0.28646,2.122395 1.77083,3.424479 1.4974,1.289062 3.69792,1.289062 1.22396,0 2.5651,-0.403646 1.34115,-0.403645 2.1875,-1.067708 0.2474,-0.195312 0.42969,-0.195312 0.20833,0 0.36458,0.16927 0.15625,0.15625 0.15625,0.377605 0,0.221354 -0.20833,0.429687 -0.625,0.651042 -2.22656,1.223958 -1.58854,0.559896 -3.26823,0.559896 -2.8125,0 -4.70052,-1.835937 -1.875,-1.848959 -1.875,-4.466146 0,-2.382812 1.75781,-4.088542 1.77083,-1.705729 4.375,-1.705729 2.68229,0 4.41406,1.757813 1.73177,1.744791 1.70573,4.53125 z m -1.10677,-1.106771 q -0.32552,-1.809896 -1.71875,-2.942708 -1.38021,-1.132813 -3.29427,-1.132813 -1.91406,0 -3.29427,1.119792 -1.38021,1.119791 -1.71875,2.955729 z" />
    <path
       id="path97"
       style=""
       d="m 371.48382,91.795008 h -2.60417 q -0.72916,0 -0.72916,-0.546875 0,-0.546875 0.72916,-0.546875 h 1.31511 v -9.075521 h -1.31511 q -0.72916,0 -0.72916,-0.546875 0,-0.559896 0.72916,-0.559896 h 3.88021 q 0.72917,0 0.72917,0.559896 0,0.546875 -0.72917,0.546875 h -1.47135 v 8.59375 l 7.8776,-9.700521 h 2.7474 q 0.72916,0 0.72916,0.559896 0,0.546875 -0.72916,0.546875 h -1.47136 v 9.075521 h 1.47136 q 0.72916,0 0.72916,0.546875 0,0.546875 -0.72916,0.546875 h -4.03646 q -0.72917,0 -0.72917,-0.546875 0,-0.546875 0.72917,-0.546875 h 1.47135 V 82.120529 Z M 372.23903,75.4148 q 0.23437,0 0.3776,0.143229 0.14323,0.130208 0.16927,0.481771 0.0781,0.742187 0.84636,1.328125 0.75521,0.585937 1.97916,0.585937 1.21094,0 1.96615,-0.585937 0.76823,-0.585938 0.84635,-1.328125 0.0391,-0.351563 0.15625,-0.46875 0.16928,-0.15625 0.39063,-0.15625 0.23437,0 0.39062,0.169271 0.16928,0.15625 0.16928,0.429687 0,1.171875 -1.06771,2.109375 -1.05469,0.9375 -2.85157,0.9375 -1.79687,0 -2.86458,-0.9375 -1.05469,-0.9375 -1.05469,-2.109375 0,-0.273437 0.15625,-0.429687 0.15625,-0.169271 0.39063,-0.169271 z" />
    <path
       id="path99"
       style=""
       d="m 410.79372,90.701258 v -4.088542 q -2.16146,1.510417 -4.85677,1.510417 -1.45833,0 -2.55208,-0.638021 -1.08073,-0.638021 -1.08073,-2.786458 v -3.072917 h -1.10677 q -0.91146,0 -0.91146,-0.546875 0,-0.559896 0.91146,-0.559896 h 3.59375 q 0.92448,0 0.92448,0.559896 0,0.546875 -0.92448,0.546875 h -1.39323 v 3.072917 q 0,1.236979 0.53385,1.796875 0.53386,0.546875 2.00521,0.546875 2.2526,0 4.85677,-1.679688 v -3.736979 h -1.15885 q -0.92448,0 -0.92448,-0.546875 0,-0.559896 0.92448,-0.559896 h 3.39843 q 0.91146,0 0.91146,0.559896 0,0.546875 -0.91146,0.546875 h -1.13281 v 9.075521 h 1.13281 q 0.91146,0 0.91146,0.546875 0,0.546875 -0.91146,0.546875 h -5.19531 q -0.92448,0 -0.92448,-0.546875 0,-0.546875 0.92448,-0.546875 z" />
    <path
       id="path101"
       style=""
       d="m 426.50986,91.795008 v -1.575521 q -2.38281,2.005208 -5.09114,2.005208 -1.96615,0 -3.07292,-0.989583 -1.10677,-1.002604 -1.10677,-2.447917 0,-1.588541 1.45833,-2.773437 1.45834,-1.184896 4.25781,-1.184896 0.75521,0 1.64063,0.104167 0.88542,0.09115 1.91406,0.299479 v -1.770833 q 0,-0.898438 -0.83333,-1.5625 -0.83333,-0.664063 -2.5,-0.664063 -1.27604,0 -3.58073,0.742188 -0.41667,0.130208 -0.53385,0.130208 -0.20834,0 -0.36459,-0.15625 -0.14323,-0.15625 -0.14323,-0.390625 0,-0.221354 0.13021,-0.351563 0.18229,-0.195312 1.47136,-0.533854 2.03125,-0.546875 3.07291,-0.546875 2.07031,0 3.22917,1.028646 1.15885,1.015625 1.15885,2.304688 v 7.239583 h 1.45834 q 0.40364,0 0.57291,0.15625 0.16927,0.143229 0.16927,0.390625 0,0.234375 -0.16927,0.390625 -0.16927,0.15625 -0.57291,0.15625 z m 0,-5.442708 q -0.76823,-0.221355 -1.6276,-0.325521 -0.85938,-0.104167 -1.8099,-0.104167 -2.38281,0 -3.72396,1.028646 -1.01562,0.768229 -1.01562,1.835937 0,0.989584 0.76823,1.666667 0.78125,0.677083 2.26562,0.677083 1.41927,0 2.63021,-0.559896 1.22396,-0.572916 2.51302,-1.809895 z" />
    <path
       id="path103"
       style=""
       d="m 437.10882,86.417404 h -2.22657 v 4.283854 h 1.47136 q 0.72916,0 0.72916,0.546875 0,0.546875 -0.72916,0.546875 h -3.80209 q -0.72916,0 -0.72916,-0.546875 0,-0.546875 0.72916,-0.546875 h 1.23698 v -9.075521 h -0.67708 q -0.74219,0 -0.74219,-0.546875 0,-0.559896 0.74219,-0.559896 h 3.24219 q 0.72916,0 0.72916,0.559896 0,0.546875 -0.72916,0.546875 h -1.47136 v 3.684896 h 2.26563 q 0.26041,-2.213542 1.57552,-3.697917 1.3151,-1.484375 3.33333,-1.484375 2.22656,0 3.51563,1.71875 1.30208,1.705729 1.30208,4.244792 0,2.695312 -1.38021,4.414062 -1.38021,1.71875 -3.52864,1.71875 -1.94011,0 -3.3073,-1.510416 -1.36718,-1.523438 -1.54947,-4.296875 z m 1.09375,-0.143229 q 0,2.083333 1.02864,3.476562 1.04167,1.380208 2.76042,1.380208 1.69271,0 2.73437,-1.367187 1.05469,-1.380209 1.05469,-3.606771 0,-2.213542 -1.05469,-3.567708 -1.04166,-1.354167 -2.72135,-1.354167 -1.8099,0 -2.8125,1.432292 -0.98958,1.432291 -0.98958,3.606771 z" />
  </g>
</svg>
