<?xml version="1.0" encoding="UTF-8" standalone="no"?>
<svg
   xmlns:dc="http://purl.org/dc/elements/1.1/"
   xmlns:cc="http://creativecommons.org/ns#"
   xmlns:rdf="http://www.w3.org/1999/02/22-rdf-syntax-ns#"
   xmlns:svg="http://www.w3.org/2000/svg"
   xmlns="http://www.w3.org/2000/svg"
   id="svg2"
   version="1.1"
   viewBox="160.32497 5.3366698 287.12238 92.005213">
  <metadata
     id="metadata11">
    <rdf:RDF>
      <cc:Work
         rdf:about="">
        <dc:format>image/svg+xml</dc:format>
        <dc:type
           rdf:resource="http://purl.org/dc/dcmitype/StillImage" />
      </cc:Work>
    </rdf:RDF>
  </metadata>
  <defs
     id="defs9" />
  <g
     id="text4521"
     style="font-style:normal;font-variant:normal;font-weight:normal;font-stretch:normal;font-size:26.66666603px;line-height:125%;font-family:'DejaVu Sans Mono', monospace;font-variant-ligatures:normal;font-variant-caps:normal;font-variant-numeric:normal;font-feature-settings:normal;text-align:left;letter-spacing:0px;word-spacing:0px;writing-mode:lr-tb;text-anchor:start;fill:#000000;fill-opacity:1;stroke:none;stroke-width:1px;stroke-linecap:butt;stroke-linejoin:miter;stroke-opacity:1"
     aria-label="Съешь же ещё этихмягких французскихбулок да выпей чаю">
    <path
       id="path13"
       style=""
       d="m 173.50205,24.438232 q -1.0026,0.533854 -2.05729,0.794271 -1.05468,0.273437 -2.23958,0.273437 -3.73698,0 -5.80729,-2.643229 -2.05729,-2.643229 -2.05729,-7.434896 0,-4.765625 2.07031,-7.4218745 2.08333,-2.6692707 5.79427,-2.6692707 1.1849,0 2.23958,0.2734375 1.05469,0.2604166 2.05729,0.7942708 v 2.6953124 q -0.96354,-0.7942708 -2.07031,-1.2109375 -1.10677,-0.4166666 -2.22656,-0.4166666 -2.5651,0 -3.84115,1.9791666 -1.27604,1.979167 -1.27604,5.976562 0,3.984375 1.27604,5.963542 1.27605,1.979166 3.84115,1.979166 1.14583,0 2.23958,-0.416666 1.10677,-0.416667 2.05729,-1.210938 z" />
    <path
       id="path15"
       style=""
       d="m 181.58799,23.097086 h 3.22917 q 1.61458,0 2.48698,-0.572917 0.87239,-0.572916 0.87239,-1.744791 0,-1.171875 -0.89843,-1.757813 -0.88542,-0.585937 -2.46094,-0.585937 h -3.22917 z m -2.39583,2.03125 V 12.498128 h -3.22917 v -1.953125 h 5.625 v 5.898437 h 3.33333 q 2.72136,0 4.25782,1.09375 1.54948,1.080729 1.54948,3.268229 0,2.1875 -1.51042,3.255209 -1.51042,1.067708 -4.29688,1.067708 z" />
    <path
       id="path17"
       style=""
       d="m 206.0932,17.237711 v 1.171875 h -10.3776 v 0.07813 q 0,2.382813 1.23697,3.684896 1.25,1.302083 3.51563,1.302083 1.14583,0 2.39583,-0.364583 1.25,-0.364583 2.66927,-1.106771 v 2.382812 q -1.36718,0.559896 -2.64323,0.833334 -1.26302,0.286458 -2.44791,0.286458 -3.39844,0 -5.3125,-2.03125 -1.91406,-2.044271 -1.91406,-5.625 0,-3.489583 1.875,-5.572916 1.875,-2.083334 5,-2.083334 2.78645,0 4.38802,1.888021 1.61458,1.888021 1.61458,5.15625 z m -2.39583,-0.703125 q -0.0521,-2.109375 -1.00261,-3.203125 -0.9375,-1.106771 -2.70833,-1.106771 -1.73177,0 -2.85156,1.145834 -1.1198,1.145833 -1.32813,3.177083 z" />
    <path
       id="path19"
       style=""
       d="M 222.0958,25.128336 H 209.2833 V 10.545003 h 2.1875 v 12.630208 h 3.125 V 10.545003 h 2.1875 v 12.630208 h 3.125 V 10.545003 h 2.1875 z" />
    <path
       id="path21"
       style=""
       d="m 228.63226,23.136149 h 3.22917 q 1.67968,0 2.51302,-0.572917 0.83333,-0.585938 0.83333,-1.757813 0,-1.223958 -0.84635,-1.796875 -0.83334,-0.572916 -2.5,-0.572916 h -3.22917 z m -2.39583,1.992187 V 10.545003 h 2.39583 v 5.898437 h 3.33333 q 2.70834,0 4.2448,1.09375 1.54947,1.080729 1.54947,3.268229 0,2.1875 -1.51041,3.255209 -1.4974,1.067708 -4.28386,1.067708 z" />
    <path
       id="path23"
       style=""
       d="m 262.7208,10.545003 h 2.1875 v 5.625 l 3.32032,-5.625 h 2.59114 l -3.11198,5.260417 3.3724,9.322916 h -2.33073 l -2.48698,-6.875 -1.35417,2.304688 v 4.570312 h -2.1875 v -4.570312 l -1.35416,-2.304688 -2.48698,6.875 h -2.33073 l 3.3724,-9.322916 -3.11198,-5.260417 h 2.59114 l 3.32031,5.625 z" />
    <path
       id="path25"
       style=""
       d="m 286.30153,17.237711 v 1.171875 h -10.3776 v 0.07813 q 0,2.382813 1.23698,3.684896 1.25,1.302083 3.51562,1.302083 1.14583,0 2.39583,-0.364583 1.25,-0.364583 2.66928,-1.106771 v 2.382812 q -1.36719,0.559896 -2.64323,0.833334 -1.26302,0.286458 -2.44792,0.286458 -3.39844,0 -5.3125,-2.03125 -1.91406,-2.044271 -1.91406,-5.625 0,-3.489583 1.875,-5.572916 1.875,-2.083334 5,-2.083334 2.78646,0 4.38802,1.888021 1.61458,1.888021 1.61458,5.15625 z m -2.39583,-0.703125 q -0.0521,-2.109375 -1.00261,-3.203125 -0.9375,-1.106771 -2.70833,-1.106771 -1.73177,0 -2.85156,1.145834 -1.11979,1.145833 -1.32813,3.177083 z" />
    <path
       id="path27"
       style=""
       d="m 318.38487,17.237711 v 1.171875 h -10.37761 v 0.07813 q 0,2.382813 1.23698,3.684896 1.25,1.302083 3.51563,1.302083 1.14583,0 2.39583,-0.364583 1.25,-0.364583 2.66927,-1.106771 v 2.382812 q -1.36719,0.559896 -2.64323,0.833334 -1.26302,0.286458 -2.44791,0.286458 -3.39844,0 -5.3125,-2.03125 -1.91407,-2.044271 -1.91407,-5.625 0,-3.489583 1.875,-5.572916 1.875,-2.083334 5,-2.083334 2.78646,0 4.38802,1.888021 1.61459,1.888021 1.61459,5.15625 z m -2.39584,-0.703125 q -0.0521,-2.109375 -1.0026,-3.203125 -0.9375,-1.106771 -2.70833,-1.106771 -1.73177,0 -2.85157,1.145834 -1.11979,1.145833 -1.32812,3.177083 z" />
    <path
       id="path29"
       style=""
       d="M 333.7234,25.128336 H 320.98902 V 10.545003 h 2.1875 v 12.630208 h 3.125 V 10.545003 h 2.1875 v 12.630208 h 3.125 V 10.545003 h 2.1875 v 12.630208 h 1.875 v 5.677083 h -1.95312 z" />
    <path
       id="path31"
       style=""
       d="m 350.4682,17.237711 v 1.171875 h -10.37761 v 0.07813 q 0,2.382813 1.23698,3.684896 1.25,1.302083 3.51563,1.302083 1.14583,0 2.39583,-0.364583 1.25,-0.364583 2.66927,-1.106771 v 2.382812 q -1.36719,0.559896 -2.64323,0.833334 -1.26302,0.286458 -2.44792,0.286458 -3.39843,0 -5.3125,-2.03125 -1.91406,-2.044271 -1.91406,-5.625 0,-3.489583 1.875,-5.572916 1.875,-2.083334 5,-2.083334 2.78646,0 4.38802,1.888021 1.61459,1.888021 1.61459,5.15625 z m -2.39584,-0.703125 q -0.0521,-2.109375 -1.0026,-3.203125 -0.9375,-1.106771 -2.70834,-1.106771 -1.73177,0 -2.85156,1.145834 -1.11979,1.145833 -1.32812,3.177083 z M 340.5984,5.9746906 h 2.64323 v 2.6302082 h -2.64323 z m 5.10417,0 h 2.63021 v 2.6302082 h -2.63021 z" />
    <path
       id="path33"
       style=""
       d="m 370.61142,24.386148 v -2.486979 q 0.84635,0.807292 1.83594,1.197917 0.98958,0.377604 2.23958,0.377604 2.23958,0 3.46354,-1.471354 1.08073,-1.302083 1.19792,-3.59375 h -7.05729 v -1.875 h 6.99218 q -0.23437,-1.783854 -1.13281,-2.851562 -1.22396,-1.458334 -3.46354,-1.458334 -1.21094,0 -2.17448,0.377605 -0.95052,0.377604 -1.90104,1.223958 v -2.513021 q 1.01562,-0.572917 2.01823,-0.846354 1.0026,-0.273438 2.05729,-0.273438 3.38542,0 5.28646,2.03125 1.91406,2.03125 1.91406,5.625 0,3.59375 -1.91406,5.625 -1.90104,2.03125 -5.28646,2.03125 -1.06771,0 -2.09635,-0.286458 -1.01563,-0.273438 -1.97917,-0.833334 z" />
    <path
       id="path35"
       style=""
       d="M 393.48903,12.498128 V 25.128336 H 391.0932 V 12.498128 h -4.04948 v -1.953125 h 10.49479 v 1.953125 z" />
    <path
       id="path37"
       style=""
       d="m 411.43173,14.594482 -6.34115,10.533854 h -2.39583 V 10.545003 h 2.39583 v 10.533854 l 6.34115,-10.533854 h 2.39583 v 14.583333 h -2.39583 z" />
    <path
       id="path39"
       style=""
       d="m 430.75465,10.545003 -5.22136,6.979166 5.72917,7.604167 h -2.77344 l -4.27083,-5.846354 -4.25781,5.846354 h -2.77344 l 5.72917,-7.604167 -5.22136,-6.979166 h 2.65625 l 3.86719,5.273437 3.84115,-5.273437 z" />
    <path
       id="path41"
       style=""
       d="m 160.32497,43.878339 h 2.39583 l 4.88282,8.997395 4.88281,-8.997395 h 2.39583 v 14.583333 h -2.39583 v -9.648437 l -3.6849,6.26302 h -2.39583 l -3.6849,-6.26302 v 9.648437 h -2.39583 z" />
    <path
       id="path43"
       style=""
       d="m 180.81976,48.214276 q 0,1.263021 0.74219,1.822917 0.74219,0.546875 1.45833,0.546875 h 2.96875 v -4.752604 h -2.95573 q -0.72916,0 -1.47135,0.559896 -0.74219,0.559895 -0.74219,1.822916 z m -3.05989,10.247396 3.54166,-6.236979 q -0.6901,-0.286459 -1.79687,-1.132813 -1.10677,-0.846354 -1.10677,-3.020833 0,-2.1875 1.43229,-3.190104 1.43229,-1.002604 3.38542,-1.002604 h 5.16927 v 14.583333 h -2.39584 v -5.924479 h -2.51302 l -3.35937,5.924479 z" />
    <path
       id="path45"
       style=""
       d="m 197.35622,45.831464 v 12.630208 h -2.39583 V 43.878339 h 9.79166 v 1.953125 z" />
    <path
       id="path47"
       style=""
       d="m 210.72862,43.878339 h 2.47396 v 6.054687 l 6.28906,-6.054687 h 2.91666 l -5.74218,5.494791 6.64062,9.088542 h -2.92969 l -5.39062,-7.526042 -1.78385,1.679688 v 5.846354 h -2.47396 z" />
    <path
       id="path49"
       style=""
       d="m 234.97341,47.927818 -6.34115,10.533854 h -2.39583 V 43.878339 h 2.39583 v 10.533854 l 6.34115,-10.533854 h 2.39583 v 14.583333 h -2.39583 z" />
    <path
       id="path51"
       style=""
       d="m 254.29632,43.878339 -5.22135,6.979166 5.72916,7.604167 h -2.77343 l -4.27084,-5.846354 -4.25781,5.846354 h -2.77344 l 5.72917,-7.604167 -5.22136,-6.979166 h 2.65625 l 3.86719,5.273437 3.84115,-5.273437 z" />
    <path
       id="path53"
       style=""
       d="m 278.5932,45.675214 q -1.5625,0.325521 -2.25261,1.328125 -0.6901,0.989583 -0.6901,4.179687 0,3.190104 0.6901,4.244792 0.69011,1.054687 2.25261,1.380208 z m 0,13.164062 q -2.86459,-0.286458 -4.17969,-2.018229 -1.30208,-1.744792 -1.30208,-5.638021 0,-3.893229 1.28906,-5.625 1.30208,-1.744791 4.19271,-2.03125 v -5.32552 h 2.39583 v 5.32552 q 2.89063,0.286459 4.17969,2.03125 1.30208,1.731771 1.30208,5.625 0,3.893229 -1.3151,5.638021 -1.30209,1.731771 -4.16667,2.018229 v 5.169271 h -2.39583 z m 2.39583,-13.164062 v 11.132812 q 1.5625,-0.325521 2.25261,-1.380208 0.6901,-1.054688 0.6901,-4.244792 0,-3.190104 -0.6901,-4.179687 -0.69011,-1.002604 -2.25261,-1.328125 z" />
    <path
       id="path55"
       style=""
       d="m 292.74684,56.625734 v 7.382813 h -2.40885 V 43.878339 h 2.40885 v 1.861979 q 0.59896,-1.080729 1.58854,-1.640625 1.00261,-0.572917 2.30469,-0.572917 2.64323,0 4.14063,2.044271 1.51041,2.044271 1.51041,5.664063 0,3.554687 -1.51041,5.585937 -1.51042,2.018229 -4.14063,2.018229 -1.32812,0 -2.33073,-0.559896 -0.98958,-0.572916 -1.5625,-1.653646 z m 7.03125,-5.442708 q 0,-2.786458 -0.88542,-4.205729 -0.87239,-1.419271 -2.60416,-1.419271 -1.74479,0 -2.64323,1.432292 -0.89844,1.419271 -0.89844,4.192708 0,2.760417 0.89844,4.192708 0.89844,1.432292 2.64323,1.432292 1.73177,0 2.60416,-1.419271 0.88542,-1.419271 0.88542,-4.205729 z" />
    <path
       id="path57"
       style=""
       d="m 313.04633,51.130943 h -0.79428 q -2.09635,0 -3.16406,0.742187 -1.05469,0.729167 -1.05469,2.1875 0,1.315104 0.79428,2.044271 0.79427,0.729167 2.20052,0.729167 1.97916,0 3.11198,-1.367188 1.13281,-1.380208 1.14583,-3.802083 v -0.533854 z m 4.64843,-0.989583 v 8.320312 h -2.40885 v -2.161458 q -0.76823,1.302083 -1.94011,1.927083 -1.15885,0.611979 -2.82552,0.611979 -2.22656,0 -3.55468,-1.25 -1.32813,-1.263021 -1.32813,-3.372396 0,-2.434896 1.62761,-3.697916 1.64062,-1.263021 4.80468,-1.263021 h 3.21615 v -0.377604 q -0.013,-1.744792 -0.88542,-2.526042 -0.87239,-0.794271 -2.78646,-0.794271 -1.22395,0 -2.47395,0.351563 -1.25,0.351562 -2.4349,1.028646 v -2.395834 q 1.32812,-0.507812 2.53906,-0.755208 1.22396,-0.260417 2.36979,-0.260417 1.8099,0 3.08594,0.533855 1.28906,0.533854 2.08333,1.601562 0.4948,0.651042 0.70313,1.614583 0.20833,0.950521 0.20833,2.864584 z" />
    <path
       id="path59"
       style=""
       d="m 331.2234,51.755943 h -6.34115 v 6.705729 h -2.39583 V 43.878339 h 2.39583 v 5.924479 h 6.34115 v -5.924479 h 2.39583 v 14.583333 h -2.39583 z" />
    <path
       id="path61"
       style=""
       d="M 350.54632,56.508547 V 62.18563 H 348.5932 V 58.461672 H 337.60361 V 43.878339 h 2.39584 v 12.630208 h 6.32812 V 43.878339 h 2.39583 v 12.630208 z" />
    <path
       id="path63"
       style=""
       d="m 363.20258,53.774172 q -0.59896,1.523437 -1.52344,4.010417 -1.28906,3.437499 -1.73177,4.192708 -0.59896,1.015625 -1.4974,1.523437 -0.89844,0.507813 -2.09635,0.507813 h -1.92709 v -2.005209 h 1.41927 q 1.05469,0 1.65365,-0.611979 0.59896,-0.611979 1.52344,-3.164062 l -5.63802,-14.348958 h 2.53906 l 4.32292,11.40625 4.25781,-11.40625 h 2.53906 z" />
    <path
       id="path65"
       style=""
       d="m 378.26767,50.558026 q 1.71875,0.299479 2.68229,1.263021 0.97656,0.963542 0.97656,2.382812 0,2.161459 -1.80989,3.359375 -1.79688,1.184896 -5.11719,1.184896 -1.10677,0 -2.29167,-0.182292 -1.18489,-0.182291 -2.43489,-0.546874 v -2.252605 q 0.98958,0.442709 2.17448,0.677084 1.18489,0.221354 2.48698,0.221354 2.2526,0 3.42448,-0.677083 1.18489,-0.690105 1.18489,-1.966146 0,-1.054688 -1.10677,-1.770834 -1.09375,-0.716145 -3.04687,-0.716145 h -2.0573 v -1.875 h 2.14844 q 1.77083,0 2.70833,-0.559896 0.9375,-0.572917 0.9375,-1.367188 0,-0.963541 -0.97656,-1.523437 -0.96354,-0.559896 -2.76041,-0.559896 -0.97657,0 -2.10938,0.169271 -1.11979,0.15625 -2.47396,0.507812 v -2.174479 q 1.36719,-0.3125 2.55209,-0.46875 1.19791,-0.15625 2.23958,-0.15625 2.73437,0 4.32292,1.028646 1.58854,1.028646 1.58854,2.773438 0,1.223958 -0.84636,2.070312 -0.84635,0.833333 -2.39583,1.158854 z" />
    <path
       id="path67"
       style=""
       d="m 397.92913,57.719484 q -0.96354,0.559896 -1.99218,0.833334 -1.01563,0.286458 -2.08334,0.286458 -3.38541,0 -5.29948,-2.03125 -1.90104,-2.03125 -1.90104,-5.625 0,-3.59375 1.90104,-5.625 1.91407,-2.03125 5.29948,-2.03125 1.05469,0 2.05729,0.273438 1.00261,0.273437 2.01823,0.846354 v 2.513021 q -0.95052,-0.846354 -1.91406,-1.223959 -0.95052,-0.377604 -2.16146,-0.377604 -2.2526,0 -3.46354,1.458334 -1.21094,1.458333 -1.21094,4.166666 0,2.695313 1.21094,4.166667 1.22396,1.458333 3.46354,1.458333 1.25,0 2.23959,-0.377604 0.98958,-0.390625 1.83593,-1.197917 z" />
    <path
       id="path69"
       style=""
       d="m 403.2286,43.878339 h 2.47396 v 6.054687 l 6.28906,-6.054687 h 2.91667 l -5.74219,5.494791 6.64063,9.088542 h -2.92969 l -5.39063,-7.526042 -1.78385,1.679688 v 5.846354 h -2.47396 z" />
    <path
       id="path71"
       style=""
       d="m 427.4734,47.927818 -6.34115,10.533854 h -2.39583 V 43.878339 h 2.39583 v 10.533854 l 6.34115,-10.533854 h 2.39583 v 14.583333 h -2.39583 z" />
    <path
       id="path73"
       style=""
       d="m 446.7963,43.878339 -5.22135,6.979166 5.72917,7.604167 h -2.77344 l -4.27083,-5.846354 -4.25782,5.846354 h -2.77343 l 5.72916,-7.604167 -5.22135,-6.979166 h 2.65625 l 3.86719,5.273437 3.84114,-5.273437 z" />
    <path
       id="path75"
       style=""
       d="m 171.26247,84.516362 q 0,-5.625 -3.71094,-5.625 -3.69791,0 -3.69791,5.625 0,2.773437 0.9375,4.205729 0.9375,1.419271 2.76041,1.419271 3.71094,0 3.71094,-5.625 z m -8.02083,-6.054687 q 1.5625,-1.601563 4.45312,-1.601563 2.89063,0 4.49219,1.966146 1.61458,1.966146 1.61458,5.703125 0,3.723958 -1.60156,5.690104 -1.60156,1.953125 -4.64844,1.953125 -3.03385,0 -4.67448,-1.992188 -1.6276,-2.005208 -1.5625,-5.664062 0.013,-0.585937 0,-0.807292 l -0.0911,-2.174479 q -0.0651,-1.549479 -0.0651,-2.083333 0,-0.533854 0.026,-0.729167 0.26041,-1.940104 0.72916,-2.890625 1.1849,-2.408854 3.35938,-3.515624 1.66666,-0.846355 5.36458,-1.002605 0.66406,-0.02604 1.11979,-0.234375 l 0.91146,1.848959 q -0.45573,0.16927 -1.11979,0.234375 l -3.125,0.3125 q -1.27604,0.130208 -2.23958,0.690104 -2.56511,1.510416 -2.83855,3.515625 z" />
    <path
       id="path77"
       style=""
       d="m 186.74424,87.107508 q -0.59896,1.523437 -1.52344,4.010416 -1.28906,3.4375 -1.73177,4.192709 -0.59896,1.015625 -1.49739,1.523437 -0.89844,0.507813 -2.09636,0.507813 h -1.92708 v -2.005209 h 1.41927 q 1.05469,0 1.65365,-0.611979 0.59895,-0.611979 1.52343,-3.164062 l -5.63802,-14.348958 h 2.53907 l 4.32291,11.406249 4.25781,-11.406249 h 2.53907 z" />
    <path
       id="path79"
       style=""
       d="m 195.06455,77.211675 h 10.22136 v 14.583333 h -2.39584 V 79.1648 h -5.42968 v 3.190104 q 0,2.460937 -0.18229,4.440104 -0.16928,1.966146 -1.15886,3.489583 -0.97656,1.510417 -3.39844,1.510417 h -0.71614 v -1.953125 h 0.45573 q 1.10677,0 1.71875,-0.768229 0.61198,-0.76823 0.74218,-2.591146 0.14323,-1.822917 0.14323,-4.088542 z" />
    <path
       id="path81"
       style=""
       d="m 215.67653,78.891362 q -1.82291,0 -2.76041,1.419271 -0.9375,1.419271 -0.9375,4.205729 0,2.773437 0.9375,4.205729 0.9375,1.419271 2.76041,1.419271 1.83594,0 2.77344,-1.419271 0.9375,-1.432292 0.9375,-4.205729 0,-2.786458 -0.9375,-4.205729 -0.9375,-1.419271 -2.77344,-1.419271 z m 0,-2.03125 q 3.03386,0 4.63542,1.966146 1.61458,1.966146 1.61458,5.690104 0,3.736979 -1.60156,5.703125 -1.60156,1.953125 -4.64844,1.953125 -3.03385,0 -4.63541,-1.953125 -1.60157,-1.966146 -1.60157,-5.703125 0,-3.723958 1.60157,-5.690104 1.60156,-1.966146 4.63541,-1.966146 z" />
    <path
       id="path83"
       style=""
       d="m 226.77028,77.211675 h 2.47396 v 6.054687 l 6.28906,-6.054687 h 2.91667 l -5.74219,5.494791 6.64063,9.088542 h -2.92969 l -5.39063,-7.526042 -1.78385,1.679688 v 5.846354 h -2.47396 z" />
    <path
       id="path85"
       style=""
       d="m 268.89268,89.841883 h 1.57552 v 5.677083 h -1.95312 v -3.723958 h -9.41407 v 3.723958 h -1.95312 v -5.677083 h 0.87239 q 0.71615,0 0.92448,-2.955729 0.20834,-2.955729 0.20834,-4.257813 v -5.416666 h 9.73958 z m -2.40885,0 V 79.1648 h -4.94792 v 3.515625 q 0,1.302083 -0.26042,4.518229 -0.10416,1.875 -0.19531,2.096354 -0.0911,0.208333 -0.0911,0.377604 0,0.169271 0.44271,0.169271 z" />
    <path
       id="path87"
       style=""
       d="m 280.96299,84.464279 h -0.79427 q -2.09636,0 -3.16406,0.742187 -1.05469,0.729167 -1.05469,2.1875 0,1.315104 0.79427,2.044271 0.79427,0.729167 2.20052,0.729167 1.97917,0 3.11198,-1.367188 1.13281,-1.380208 1.14583,-3.802083 v -0.533854 z m 4.64844,-0.989584 v 8.320313 h -2.40886 v -2.161459 q -0.76823,1.302084 -1.9401,1.927084 -1.15886,0.611979 -2.82552,0.611979 -2.22656,0 -3.55469,-1.25 -1.32812,-1.263021 -1.32812,-3.372396 0,-2.434896 1.6276,-3.697916 1.64062,-1.263021 4.80469,-1.263021 h 3.21614 v -0.377604 q -0.013,-1.744792 -0.88541,-2.526042 -0.8724,-0.794271 -2.78646,-0.794271 -1.22396,0 -2.47396,0.351563 -1.25,0.351562 -2.4349,1.028645 v -2.395833 q 1.32813,-0.507812 2.53907,-0.755208 1.22395,-0.260417 2.36979,-0.260417 1.80989,0 3.08594,0.533854 1.28906,0.533855 2.08333,1.601563 0.49479,0.651041 0.70312,1.614583 0.20834,0.950521 0.20834,2.864583 z" />
    <path
       id="path89"
       style=""
       d="m 309.02289,85.089279 v 4.752604 h 3.11198 q 1.23698,0 1.88802,-0.729167 0.66406,-0.729167 0.66406,-1.770833 0,-1.028646 -0.5599,-1.640625 -0.54687,-0.611979 -1.9401,-0.611979 z m 0,-5.924479 v 3.971354 h 2.96875 q 1.10677,0 1.65364,-0.546875 0.54688,-0.559896 0.54688,-1.432292 0,-0.872396 -0.54688,-1.432292 -0.54687,-0.559895 -1.66666,-0.559895 z m -2.39584,-1.953125 h 5.16928 q 2.21354,0 3.51562,1.002604 1.30208,1.002604 1.30208,2.460937 0,1.445313 -0.625,2.291667 -0.61198,0.833333 -1.90104,1.015625 1.73177,0.325521 2.4349,1.210937 0.71614,0.885417 0.71614,2.408854 0,2.005209 -1.36718,3.098959 -1.35417,1.09375 -3.86719,1.09375 h -5.37761 z" />
    <path
       id="path91"
       style=""
       d="M 332.25204,91.795008 V 77.211675 h 2.39584 v 14.583333 z m -8.58072,-2.005209 h 1.08072 q 1.61459,0 2.48698,-0.572916 0.8724,-0.585938 0.8724,-1.770834 0,-1.184895 -0.89844,-1.770833 -0.88541,-0.598958 -2.46094,-0.598958 h -1.08072 z m -2.3698,2.005209 V 77.211675 h 2.3698 v 5.898437 h 1.18489 q 2.72136,0 4.25781,1.09375 1.54948,1.080729 1.54948,3.268229 0,2.1875 -1.51041,3.255208 -1.51042,1.067709 -4.29688,1.067709 z" />
    <path
       id="path93"
       style=""
       d="m 347.26507,79.1648 h -6.34115 v 12.630208 h -2.39583 V 77.211675 h 11.13281 v 14.583333 h -2.39583 z" />
    <path
       id="path95"
       style=""
       d="m 366.50987,83.904383 v 1.171875 h -10.37761 v 0.07813 q 0,2.382812 1.23698,3.684896 1.25,1.302083 3.51563,1.302083 1.14583,0 2.39583,-0.364583 1.25,-0.364584 2.66927,-1.106771 v 2.382812 q -1.36719,0.559896 -2.64323,0.833334 -1.26302,0.286458 -2.44791,0.286458 -3.39844,0 -5.3125,-2.03125 -1.91407,-2.044271 -1.91407,-5.625 0,-3.489583 1.875,-5.572916 1.875,-2.083334 5,-2.083334 2.78646,0 4.38802,1.888021 1.61459,1.888021 1.61459,5.15625 z m -2.39584,-0.703125 q -0.0521,-2.109375 -1.0026,-3.203125 -0.9375,-1.106771 -2.70833,-1.106771 -1.73177,0 -2.85157,1.145833 -1.11979,1.145834 -1.32812,3.177084 z" />
    <path
       id="path97"
       style=""
       d="m 372.01767,70.857508 h 1.54948 q 0.14323,0.989584 0.76823,1.471354 0.625,0.481771 1.75781,0.481771 1.10677,0 1.73177,-0.481771 0.625,-0.48177 0.80729,-1.471354 h 1.54948 q -0.14323,1.861979 -1.17187,2.799479 -1.02865,0.9375 -2.91667,0.9375 -1.875,0 -2.90365,-0.9375 -1.02864,-0.9375 -1.17187,-2.799479 z m 7.33073,10.403646 -6.34115,10.533854 h -2.39583 V 77.211675 h 2.39583 v 10.533854 l 6.34115,-10.533854 h 2.39583 v 14.583333 h -2.39583 z" />
    <path
       id="path99"
       style=""
       d="m 402.69475,81.964279 v -4.778646 h 2.39583 v 4.778646 q 0,1.302083 0.69011,1.914062 0.70312,0.598959 2.13541,0.598959 1.14584,0 1.88802,-0.130209 0.74219,-0.130208 1.64063,-0.638021 v -6.523437 h 2.39583 v 14.609375 h -2.39583 V 85.7273 q -0.69011,0.273437 -1.60156,0.559895 -0.91146,0.273438 -2.72136,0.273438 -1.82292,0 -3.125,-1.054688 -1.30208,-1.067708 -1.30208,-3.541666 z" />
    <path
       id="path101"
       style=""
       d="m 425.33798,84.464279 h -0.79427 q -2.09635,0 -3.16406,0.742187 -1.05469,0.729167 -1.05469,2.1875 0,1.315104 0.79427,2.044271 0.79427,0.729167 2.20052,0.729167 1.97917,0 3.11198,-1.367188 1.13281,-1.380208 1.14584,-3.802083 v -0.533854 z m 4.64844,-0.989584 v 8.320313 h -2.40885 v -2.161459 q -0.76823,1.302084 -1.94011,1.927084 -1.15885,0.611979 -2.82552,0.611979 -2.22656,0 -3.55469,-1.25 -1.32812,-1.263021 -1.32812,-3.372396 0,-2.434896 1.6276,-3.697916 1.64063,-1.263021 4.80469,-1.263021 h 3.21615 v -0.377604 q -0.013,-1.744792 -0.88542,-2.526042 -0.8724,-0.794271 -2.78646,-0.794271 -1.22396,0 -2.47396,0.351563 -1.25,0.351562 -2.43489,1.028645 v -2.395833 q 1.32812,-0.507812 2.53906,-0.755208 1.22396,-0.260417 2.36979,-0.260417 1.8099,0 3.08594,0.533854 1.28906,0.533855 2.08333,1.601563 0.49479,0.651041 0.70313,1.614583 0.20833,0.950521 0.20833,2.864583 z" />
    <path
       id="path103"
       style=""
       d="m 444.90828,84.308029 q 0,-2.578125 -0.72916,-3.984375 -0.72917,-1.419271 -1.71875,-1.419271 -0.98959,0 -1.73177,1.588542 -0.72917,1.588541 -0.72917,4.101562 0,2.513021 0.6901,4.036458 0.69011,1.523438 1.79688,1.510417 1.10677,0 1.75781,-1.627604 0.66406,-1.627604 0.66406,-4.205729 z M 435.65047,83.5398 h 1.84896 q 0.22135,-3.333334 1.58854,-5 1.36719,-1.679688 3.41146,-1.679688 2.04427,0 3.48958,1.901042 1.45834,1.901041 1.45834,5.820312 0,3.932292 -1.4974,5.768229 -1.49739,1.822917 -3.5026,1.822917 -1.99219,0 -3.3724,-1.796875 -1.36719,-1.796875 -1.57552,-4.882812 h -1.84896 v 6.302083 h -2.39583 V 77.211675 h 2.39583 z" />
  </g>
</svg>
