<?xml version="1.0" encoding="UTF-8" standalone="no"?>
<svg
   xmlns:dc="http://purl.org/dc/elements/1.1/"
   xmlns:cc="http://creativecommons.org/ns#"
   xmlns:rdf="http://www.w3.org/1999/02/22-rdf-syntax-ns#"
   xmlns:svg="http://www.w3.org/2000/svg"
   xmlns="http://www.w3.org/2000/svg"
   id="svg2"
   version="1.1"
   viewBox="160.91737 9.0216697 286.16957 87.733338">
  <metadata
     id="metadata11">
    <rdf:RDF>
      <cc:Work
         rdf:about="">
        <dc:format>image/svg+xml</dc:format>
        <dc:type
           rdf:resource="http://purl.org/dc/dcmitype/StillImage" />
      </cc:Work>
    </rdf:RDF>
  </metadata>
  <defs
     id="defs9" />
  <g
     id="text4521"
     style="font-style:normal;font-variant:normal;font-weight:normal;font-stretch:normal;font-size:26.66666603px;line-height:125%;font-family:FreeMono, monospace;font-variant-ligatures:normal;font-variant-caps:normal;font-variant-numeric:normal;font-feature-settings:normal;text-align:left;letter-spacing:0px;word-spacing:0px;writing-mode:lr-tb;text-anchor:start;fill:#000000;fill-opacity:1;stroke:none;stroke-width:1px;stroke-linecap:butt;stroke-linejoin:miter;stroke-opacity:1"
     aria-label="Съешь же ещё этихмягких французскихбулок да выпей чаю">
    <path
       id="path13"
       style=""
       d="m 161.2107,16.461669 v 2.213334 c 0,3.6 3.28,6.88 6.90667,6.88 3.38666,0 5.65333,-2.72 5.65333,-3.253334 0,-0.293333 -0.21333,-0.506666 -0.53333,-0.506666 -0.18667,0 -0.29334,0.05333 -0.48,0.266666 -1.44,1.706667 -2.8,2.4 -4.64,2.4 -3.14667,0 -5.81334,-2.746666 -5.81334,-5.946666 v -1.893334 c 0,-3.173333 2.4,-5.759999 5.36,-5.759999 2.37334,0 4.50667,1.413333 4.61334,3.04 0.0267,0.426666 0.21333,0.64 0.53333,0.64 0.37333,0 0.56,-0.24 0.56,-0.72 v -2.986667 c 0,-0.48 -0.18667,-0.72 -0.53333,-0.72 -0.37334,0 -0.56,0.24 -0.56,0.72 v 0.773333 c -1.25334,-1.2 -2.85334,-1.8399997 -4.61334,-1.8399997 -5.33333,0 -6.45333,5.2799997 -6.45333,6.6933327 z" />
    <path
       id="path15"
       style=""
       d="m 177.22695,14.008336 v 3.493333 c 0,0.453334 0.13333,0.72 0.56,0.72 0.34667,0 0.53333,-0.24 0.53333,-0.72 V 15.10167 h 2.98667 v 8.933333 h -0.93333 c -0.48,0 -0.69334,0.293333 -0.69334,0.533333 0,0.293333 0.21334,0.56 0.69334,0.56 h 6.24 c 2.42666,0 3.30666,-1.36 3.30666,-3.013333 0,-1.68 -1.09333,-3.306667 -3.25333,-3.306667 h -4.26667 V 15.10167 h 0.98667 c 0.48,0 0.64,-0.293334 0.64,-0.56 0,-0.266667 -0.18667,-0.533334 -0.66667,-0.533334 z m 5.17333,10.026667 v -4.133334 h 3.78667 c 1.65333,0 2.64,0.586667 2.64,2.213334 0,1.226666 -0.4,1.92 -2.29333,1.92 z" />
    <path
       id="path17"
       style=""
       d="m 205.37653,19.821669 c 0,-3.759999 -2.56,-6.186666 -6.10666,-6.186666 -3.41334,0 -6.08,2.48 -6.08,5.706666 0,3.466667 2.85333,6.213334 6.45333,6.213334 2.42667,0 5.62667,-1.253334 5.62667,-2.186667 0,-0.293333 -0.24,-0.533333 -0.50667,-0.533333 -0.13333,0 -0.24,0.05333 -0.42667,0.186666 -1.06666,0.853334 -3.01333,1.44 -4.66666,1.44 -2.88,0 -5.01334,-1.84 -5.38667,-4.64 z M 194.2832,18.728336 c 0.48,-2.453333 2.4,-4 4.98667,-4 2.58666,0 4.56,1.573333 4.98666,4 z" />
    <path
       id="path19"
       style=""
       d="M 216.05945,24.035003 V 15.10167 h 0.90667 c 0.48,0 0.74666,-0.186667 0.74666,-0.533334 0,-0.373333 -0.26666,-0.56 -0.74666,-0.56 h -2.90667 c -0.48,0 -0.74667,0.186667 -0.74667,0.56 0,0.346667 0.26667,0.533334 0.74667,0.533334 h 0.90667 v 8.933333 h -4.56 V 15.10167 h 0.90666 c 0.48,0 0.74667,-0.186667 0.74667,-0.533334 0,-0.373333 -0.26667,-0.56 -0.74667,-0.56 h -2.82666 c -0.53334,0 -0.74667,0.186667 -0.74667,0.56 0,0.346667 0.21333,0.533334 0.74667,0.533334 h 0.82666 v 8.933333 h -0.85333 c -0.48,0 -0.69333,0.186666 -0.69333,0.56 0,0.346666 0.21333,0.533333 0.69333,0.533333 h 14.10667 c 0.48,0 0.69333,-0.186667 0.69333,-0.533333 0,-0.373334 -0.21333,-0.56 -0.69333,-0.56 h -0.88 V 15.10167 h 0.90666 c 0.48,0 0.69334,-0.186667 0.69334,-0.533334 0,-0.373333 -0.21334,-0.56 -0.69334,-0.56 h -2.90666 c -0.48,0 -0.69334,0.186667 -0.69334,0.56 0,0.346667 0.21334,0.533334 0.69334,0.533334 h 0.90666 v 8.933333 z" />
    <path
       id="path21"
       style=""
       d="m 230.0757,15.10167 c 0.48,0 0.64,-0.293334 0.64,-0.56 0,-0.266667 -0.18667,-0.533334 -0.66667,-0.533334 h -3.01333 c -0.48,0 -0.66667,0.266667 -0.66667,0.533334 0,0.266666 0.16,0.56 0.64,0.56 h 0.98667 v 8.933333 h -0.93333 c -0.48,0 -0.69334,0.293333 -0.69334,0.533333 0,0.293333 0.21334,0.56 0.69334,0.56 h 6.24 c 2.42666,0 3.30666,-1.36 3.30666,-3.013333 0,-1.68 -1.09333,-3.306667 -3.25333,-3.306667 h -4.26667 V 15.10167 Z m -0.98667,8.933333 v -4.133334 h 3.78667 c 1.65333,0 2.64,0.586667 2.64,2.213334 0,1.226666 -0.4,1.92 -2.29333,1.92 z" />
    <path
       id="path23"
       style=""
       d="m 264.96153,25.128336 c 0.48,0 0.74667,-0.186667 0.74667,-0.56 0,-0.346667 -0.26667,-0.533333 -0.74667,-0.533333 h -0.93333 v -4 c 1.97333,1.093333 3.6,2.213333 4.50667,4 h -0.74667 c -0.48,0 -0.69333,0.186666 -0.69333,0.533333 0,0.373333 0.21333,0.56 0.69333,0.56 h 2.69333 c 0.48,0 0.69334,-0.186667 0.69334,-0.56 0,-0.346667 -0.21334,-0.533333 -0.69334,-0.533333 h -0.69333 c -0.90667,-2.106667 -2.50667,-3.546667 -4.90667,-4.693334 l 4.85334,-4.239999 h 0.48 c 0.48,0 0.69333,-0.186667 0.69333,-0.56 0,-0.346667 -0.21333,-0.533334 -0.69333,-0.533334 h -2.64 c -0.48,0 -0.74667,0.186667 -0.74667,0.533334 0,0.373333 0.26667,0.56 0.74667,0.56 h 0.58666 l -4.13333,3.626666 V 15.10167 h 0.93333 c 0.48,0 0.74667,-0.186667 0.74667,-0.56 0,-0.346667 -0.26667,-0.533334 -0.74667,-0.533334 h -2.96 c -0.48,0 -0.74666,0.186667 -0.74666,0.533334 0,0.373333 0.26666,0.56 0.74666,0.56 h 0.93334 v 3.626666 l -4.13334,-3.626666 h 0.58667 c 0.48,0 0.74667,-0.186667 0.74667,-0.56 0,-0.346667 -0.26667,-0.533334 -0.74667,-0.533334 h -2.64 c -0.48,0 -0.69333,0.186667 -0.69333,0.533334 0,0.373333 0.21333,0.56 0.69333,0.56 h 0.48 l 4.85333,4.239999 c -2.4,1.146667 -4,2.586667 -4.90666,4.693334 h -0.69334 c -0.48,0 -0.69333,0.186666 -0.69333,0.533333 0,0.373333 0.21333,0.56 0.69333,0.56 h 2.69334 c 0.48,0 0.69333,-0.186667 0.69333,-0.56 0,-0.346667 -0.21333,-0.533333 -0.69333,-0.533333 h -0.74667 c 0.90667,-1.786667 2.53333,-2.906667 4.50667,-4 v 4 h -0.93334 c -0.48,0 -0.74666,0.186666 -0.74666,0.533333 0,0.373333 0.26666,0.56 0.74666,0.56 z" />
    <path
       id="path25"
       style=""
       d="m 285.32445,19.821669 c 0,-3.759999 -2.56,-6.186666 -6.10667,-6.186666 -3.41333,0 -6.08,2.48 -6.08,5.706666 0,3.466667 2.85333,6.213334 6.45333,6.213334 2.42667,0 5.62667,-1.253334 5.62667,-2.186667 0,-0.293333 -0.24,-0.533333 -0.50667,-0.533333 -0.13333,0 -0.24,0.05333 -0.42666,0.186666 -1.06667,0.853334 -3.01334,1.44 -4.66667,1.44 -2.88,0 -5.01333,-1.84 -5.38667,-4.64 z m -11.09334,-1.093333 c 0.48,-2.453333 2.4,-4 4.98667,-4 2.58667,0 4.56,1.573333 4.98667,4 z" />
    <path
       id="path27"
       style=""
       d="m 317.30362,19.821669 c 0,-3.759999 -2.56,-6.186666 -6.10667,-6.186666 -3.41333,0 -6.08,2.48 -6.08,5.706666 0,3.466667 2.85333,6.213334 6.45333,6.213334 2.42667,0 5.62667,-1.253334 5.62667,-2.186667 0,-0.293333 -0.24,-0.533333 -0.50667,-0.533333 -0.13333,0 -0.24,0.05333 -0.42666,0.186666 -1.06667,0.853334 -3.01334,1.44 -4.66667,1.44 -2.88,0 -5.01333,-1.84 -5.38667,-4.64 z m -11.09334,-1.093333 c 0.48,-2.453333 2.4,-4 4.98667,-4 2.58667,0 4.56,1.573333 4.98667,4 z" />
    <path
       id="path29"
       style=""
       d="m 334.0132,25.128336 v 2.426667 c 0,0.48 0.18666,0.72 0.53333,0.72 0.42667,0 0.56,-0.266667 0.56,-0.72 v -3.52 H 333.4532 V 15.10167 h 0.88 c 0.48,0 0.72,-0.186667 0.72,-0.533334 0,-0.373333 -0.24,-0.56 -0.72,-0.56 h -2.85334 c -0.48,0 -0.72,0.186667 -0.72,0.56 0,0.346667 0.24,0.533334 0.72,0.533334 h 0.88 v 8.933333 h -4.45333 V 15.10167 h 0.82667 c 0.48,0 0.90666,-0.186667 0.90666,-0.533334 0,-0.373333 -0.42666,-0.56 -0.90666,-0.56 h -2.85334 c -0.48,0 -0.72,0.186667 -0.72,0.56 0,0.346667 0.24,0.533334 0.72,0.533334 h 0.93334 v 8.933333 h -4.48 V 15.10167 h 0.93333 c 0.48,0 0.72,-0.186667 0.72,-0.533334 0,-0.373333 -0.24,-0.56 -0.72,-0.56 h -2.85333 c -0.50667,0 -0.74667,0.186667 -0.74667,0.56 0,0.346667 0.24,0.533334 0.74667,0.533334 h 0.82666 v 8.933333 h -0.85333 c -0.48,0 -0.72,0.186666 -0.72,0.56 0,0.346666 0.24,0.533333 0.72,0.533333 z" />
    <path
       id="path31"
       style=""
       d="m 349.28277,19.821669 c 0,-3.759999 -2.56,-6.186666 -6.10666,-6.186666 -3.41334,0 -6.08,2.48 -6.08,5.706666 0,3.466667 2.85333,6.213334 6.45333,6.213334 2.42667,0 5.62667,-1.253334 5.62667,-2.186667 0,-0.293333 -0.24,-0.533333 -0.50667,-0.533333 -0.13333,0 -0.24,0.05333 -0.42667,0.186666 -1.06666,0.853334 -3.01333,1.44 -4.66666,1.44 -2.88,0 -5.01334,-1.84 -5.38667,-4.64 z m -11.09333,-1.093333 c 0.48,-2.453333 2.4,-4 4.98667,-4 2.58666,0 4.56,1.573333 4.98666,4 z m 2.05333,-9.7066663 c -0.72,0 -1.33333,0.6133333 -1.33333,1.3333333 0,0.72 0.61333,1.333333 1.33333,1.333333 0.72,0 1.33334,-0.613333 1.33334,-1.306666 0,-0.746667 -0.58667,-1.3600003 -1.33334,-1.3600003 z m 5.89334,0 c -0.72,0 -1.33334,0.6133333 -1.33334,1.3333333 0,0.72 0.61334,1.333333 1.33334,1.333333 0.72,0 1.33333,-0.613333 1.33333,-1.306666 0,-0.746667 -0.58667,-1.3600003 -1.33333,-1.3600003 z" />
    <path
       id="path33"
       style=""
       d="m 369.90195,22.275003 c -0.26667,0 -0.53334,0.24 -0.53334,0.506666 0,0.64 2.42667,2.773334 6.02667,2.773334 3.52,0 6.02667,-2.453334 6.02667,-5.866667 0,-3.52 -2.56,-6.053333 -6.13334,-6.053333 -1.65333,0 -3.09333,0.506667 -4.16,1.466667 v -0.346667 c 0,-0.506667 -0.21333,-0.746667 -0.58666,-0.746667 -0.32,0 -0.53334,0.24 -0.53334,0.746667 v 2.426666 c 0,0.48 0.21334,0.72 0.53334,0.72 0.37333,0 0.53333,-0.186666 0.58666,-0.64 0.10667,-1.413333 1.97334,-2.533333 4.21334,-2.533333 2.74666,0 4.69333,1.786667 4.96,4.4 h -7.25334 c -0.48,0 -0.74666,0.186667 -0.74666,0.533333 0,0.373334 0.26666,0.56 0.74666,0.56 h 7.25334 c -0.24,2.506667 -2.24,4.24 -4.96,4.24 -4,0 -4.61334,-2.186666 -5.44,-2.186666 z" />
    <path
       id="path35"
       style=""
       d="m 386.10486,14.008336 v 3.52 c 0,0.453333 0.16,0.72 0.58666,0.72 0.32,0 0.53334,-0.24 0.53334,-0.72 V 15.10167 h 3.62666 v 8.959999 h -1.22666 c -0.48,0 -0.74667,0.186667 -0.74667,0.533334 0,0.373333 0.26667,0.56 0.74667,0.56 h 3.52 c 0.48,0 0.74666,-0.186667 0.74666,-0.56 0,-0.346667 -0.26666,-0.533334 -0.74666,-0.533334 h -1.2 V 15.10167 h 3.6 v 2.426666 c 0,0.48 0.21333,0.72 0.53333,0.72 0.42667,0 0.58667,-0.266667 0.58667,-0.72 v -3.52 z" />
    <path
       id="path37"
       style=""
       d="m 403.82778,15.10167 h 1.2 c 0.48,0 0.72,-0.186667 0.72,-0.56 0,-0.346667 -0.24,-0.533334 -0.72,-0.533334 h -3.2 c -0.48,0 -0.72,0.186667 -0.72,0.533334 0,0.373333 0.24,0.56 0.72,0.56 h 0.90667 v 8.933333 h -0.88 c -0.50667,0 -0.74667,0.186666 -0.74667,0.533333 0,0.373333 0.24,0.56 0.74667,0.56 h 3.17333 c 0.48,0 0.72,-0.186667 0.72,-0.56 0,-0.346667 -0.24,-0.533333 -0.72,-0.533333 h -1.2 v -1.146667 l 7.09334,-5.013333 v 6.16 h -1.2 c -0.48,0 -0.72,0.186666 -0.72,0.533333 0,0.373333 0.24,0.56 0.72,0.56 h 3.2 c 0.48,0 0.72,-0.186667 0.72,-0.56 0,-0.346667 -0.24,-0.533333 -0.72,-0.533333 h -0.90667 V 15.10167 h 0.90667 c 0.48,0 0.72,-0.186667 0.72,-0.56 0,-0.346667 -0.24,-0.533334 -0.72,-0.533334 h -3.2 c -0.48,0 -0.72,0.186667 -0.72,0.533334 0,0.373333 0.24,0.56 0.72,0.56 h 1.2 v 1.359999 l -7.09334,5.013334 z" />
    <path
       id="path39"
       style=""
       d="m 424.13736,19.288336 4.34667,-4.186666 h 0.18667 c 0.48,0 0.72,-0.186667 0.72,-0.56 0,-0.346667 -0.24,-0.533334 -0.72,-0.533334 h -2.93334 c -0.48,0 -0.72,0.186667 -0.72,0.533334 0,0.373333 0.24,0.56 0.72,0.56 h 1.28 l -3.65333,3.466666 -3.57333,-3.466666 h 1.22666 c 0.48,0 0.72,-0.186667 0.72,-0.56 0,-0.373334 -0.24,-0.533334 -0.72,-0.533334 h -2.96 c -0.48,0 -0.72,0.186667 -0.72,0.533334 0,0.373333 0.24,0.56 0.72,0.56 h 0.18667 l 4.34667,4.186666 -4.90667,4.746667 h -0.24 c -0.48,0 -0.72,0.186666 -0.72,0.533333 0,0.373333 0.24,0.56 0.72,0.56 h 3.54667 c 0.48,0 0.72,-0.186667 0.72,-0.56 0,-0.346667 -0.24,-0.533333 -0.72,-0.533333 h -1.81334 l 4.18667,-3.973334 4.13333,3.973334 h -1.73333 c -0.48,0 -0.72,0.186666 -0.72,0.533333 0,0.373333 0.24,0.56 0.72,0.56 h 3.52 c 0.48,0 0.72,-0.186667 0.72,-0.56 0,-0.346667 -0.24,-0.533333 -0.72,-0.533333 h -0.24 z" />
    <path
       id="path41"
       style=""
       d="m 170.59737,47.341672 -3.06667,6.32 -3.17333,-6.32 h -2.61334 c -0.48,0 -0.72,0.186667 -0.72,0.533333 0,0.373334 0.24,0.56 0.72,0.56 h 0.69334 v 8.933334 h -0.77334 c -0.50666,0 -0.74666,0.186666 -0.74666,0.533333 0,0.373333 0.24,0.56 0.74666,0.56 h 2.93334 c 0.48,0 0.72,-0.186667 0.72,-0.56 0,-0.346667 -0.24,-0.533333 -0.72,-0.533333 h -1.06667 v -8.933334 h 0.18667 l 3.36,6.64 h 0.82666 l 3.33334,-6.64 h 0.21333 v 8.933334 h -0.90667 c -0.48,0 -0.72,0.186666 -0.72,0.533333 0,0.373333 0.24,0.56 0.72,0.56 h 2.90667 c 0.48,0 0.72,-0.186667 0.72,-0.56 0,-0.346667 -0.24,-0.533333 -0.72,-0.533333 h -0.90667 v -8.933334 h 0.90667 c 0.48,0 0.72,-0.186666 0.72,-0.56 0,-0.346666 -0.24,-0.533333 -0.72,-0.533333 z" />
    <path
       id="path43"
       style=""
       d="m 184.69362,53.661672 -4.90667,3.706667 h -1.22667 c -0.48,0 -0.69333,0.186666 -0.69333,0.533333 0,0.373333 0.21333,0.56 0.69333,0.56 h 3.52 c 0.48,0 0.69334,-0.186667 0.69334,-0.56 0,-0.346667 -0.21334,-0.533333 -0.69334,-0.533333 h -0.74666 l 5.12,-3.706667 v 3.706667 h -0.96 c -0.48,0 -0.64,0.293333 -0.64,0.56 0,0.266666 0.16,0.533333 0.64,0.533333 h 3.04 c 0.48,0 0.64,-0.266667 0.64,-0.533333 0,-0.266667 -0.16,-0.56 -0.64,-0.56 h -0.96 v -8.933334 h 0.90666 c 0.48,0 0.69334,-0.293333 0.69334,-0.533333 0,-0.293333 -0.21334,-0.56 -0.69334,-0.56 h -6.24 c -2.4,0 -3.30666,1.36 -3.30666,3.013333 0,1.68 1.12,3.306667 3.25333,3.306667 z m 1.76,-5.226667 v 4.133334 h -3.78667 c -1.65333,0 -2.61333,-0.586667 -2.61333,-2.213334 0,-1.226666 0.37333,-1.92 2.29333,-1.92 z" />
    <path
       id="path45"
       style=""
       d="m 204.46987,50.861672 v -3.52 h -8.88 c -0.48,0 -0.72,0.186667 -0.72,0.533333 0,0.373334 0.24,0.56 0.72,0.56 h 0.90666 v 8.933334 h -1.2 c -0.50666,0 -0.74666,0.186666 -0.74666,0.533333 0,0.373333 0.24,0.56 0.74666,0.56 h 3.49334 c 0.48,0 0.72,-0.186667 0.72,-0.56 0,-0.346667 -0.24,-0.533333 -0.72,-0.533333 h -1.2 v -8.933334 h 5.78666 v 2.426667 c 0,0.48 0.18667,0.72 0.53334,0.72 0.42666,0 0.56,-0.266667 0.56,-0.72 z" />
    <path
       id="path47"
       style=""
       d="m 212.61945,58.461672 v -5.093333 l 5.54667,4 h -0.74667 c -0.48,0 -0.72,0.186666 -0.72,0.533333 0,0.373333 0.24,0.56 0.72,0.56 h 3.49333 c 0.48,0 0.72,-0.186667 0.72,-0.56 0,-0.346667 -0.24,-0.533333 -0.72,-0.533333 h -1.2 l -6.26666,-4.693334 5.41333,-4.24 h 1.25333 c 0.48,0 0.72,-0.186666 0.72,-0.56 0,-0.346666 -0.24,-0.533333 -0.72,-0.533333 h -3.46666 c -0.48,0 -0.72,0.186667 -0.72,0.533333 0,0.373334 0.24,0.56 0.72,0.56 h 0.58666 l -4.61333,3.626667 v -4.72 h -2.53333 c -0.48,0 -0.72,0.186667 -0.72,0.533333 0,0.373334 0.24,0.56 0.72,0.56 h 1.44 v 8.933334 h -1.44 c -0.48,0 -0.72,0.186666 -0.72,0.533333 0,0.373333 0.24,0.56 0.72,0.56 z" />
    <path
       id="path49"
       style=""
       d="m 227.94237,48.435005 h 1.2 c 0.48,0 0.72,-0.186666 0.72,-0.56 0,-0.346666 -0.24,-0.533333 -0.72,-0.533333 h -3.2 c -0.48,0 -0.72,0.186667 -0.72,0.533333 0,0.373334 0.24,0.56 0.72,0.56 h 0.90666 v 8.933334 h -0.88 c -0.50666,0 -0.74666,0.186666 -0.74666,0.533333 0,0.373333 0.24,0.56 0.74666,0.56 h 3.17334 c 0.48,0 0.72,-0.186667 0.72,-0.56 0,-0.346667 -0.24,-0.533333 -0.72,-0.533333 h -1.2 v -1.146667 l 7.09333,-5.013333 v 6.16 h -1.2 c -0.48,0 -0.72,0.186666 -0.72,0.533333 0,0.373333 0.24,0.56 0.72,0.56 h 3.2 c 0.48,0 0.72,-0.186667 0.72,-0.56 0,-0.346667 -0.24,-0.533333 -0.72,-0.533333 h -0.90667 v -8.933334 h 0.90667 c 0.48,0 0.72,-0.186666 0.72,-0.56 0,-0.346666 -0.24,-0.533333 -0.72,-0.533333 h -3.2 c -0.48,0 -0.72,0.186667 -0.72,0.533333 0,0.373334 0.24,0.56 0.72,0.56 h 1.2 v 1.36 l -7.09333,5.013334 z" />
    <path
       id="path51"
       style=""
       d="m 248.25195,52.621672 4.34666,-4.186667 h 0.18667 c 0.48,0 0.72,-0.186666 0.72,-0.56 0,-0.346666 -0.24,-0.533333 -0.72,-0.533333 h -2.93333 c -0.48,0 -0.72,0.186667 -0.72,0.533333 0,0.373334 0.24,0.56 0.72,0.56 h 1.28 l -3.65334,3.466667 -3.57333,-3.466667 h 1.22667 c 0.48,0 0.72,-0.186666 0.72,-0.56 0,-0.373333 -0.24,-0.533333 -0.72,-0.533333 h -2.96 c -0.48,0 -0.72,0.186667 -0.72,0.533333 0,0.373334 0.24,0.56 0.72,0.56 h 0.18666 l 4.34667,4.186667 -4.90667,4.746667 h -0.24 c -0.48,0 -0.72,0.186666 -0.72,0.533333 0,0.373333 0.24,0.56 0.72,0.56 h 3.54667 c 0.48,0 0.72,-0.186667 0.72,-0.56 0,-0.346667 -0.24,-0.533333 -0.72,-0.533333 h -1.81333 l 4.18666,-3.973334 4.13334,3.973334 h -1.73334 c -0.48,0 -0.72,0.186666 -0.72,0.533333 0,0.373333 0.24,0.56 0.72,0.56 h 3.52 c 0.48,0 0.72,-0.186667 0.72,-0.56 0,-0.346667 -0.24,-0.533333 -0.72,-0.533333 h -0.24 z" />
    <path
       id="path53"
       style=""
       d="m 278.92445,62.328338 h -1.44 c -0.48,0 -0.74667,0.186667 -0.74667,0.533334 0,0.373333 0.26667,0.56 0.74667,0.56 h 3.94666 c 0.48,0 0.74667,-0.186667 0.74667,-0.56 0,-0.346667 -0.26667,-0.533334 -0.74667,-0.533334 h -1.44 v -4.133333 h 0.8 c 3.25334,0 5.81334,-2.453333 5.81334,-5.626666 0,-3.173334 -2.50667,-5.6 -5.81334,-5.6 h -0.8 v -3.786667 h -2.50666 c -0.48,0 -0.74667,0.186667 -0.74667,0.533334 0,0.373333 0.26667,0.56 0.74667,0.56 h 1.44 v 2.693333 h -0.8 c -3.30667,0 -5.81334,2.426666 -5.81334,5.6 0,3.173333 2.56,5.626666 5.81334,5.626666 h 0.8 z m -0.74667,-14.266666 h 0.74667 v 9.04 h -0.74667 c -2.61333,0 -4.74667,-2 -4.74667,-4.48 0,-2.586667 2.02667,-4.56 4.74667,-4.56 z m 2.56,0 c 2.72,0 4.74667,1.973333 4.74667,4.56 0,2.48 -2.13334,4.48 -4.74667,4.48 h -0.74667 v -9.04 z" />
    <path
       id="path55"
       style=""
       d="m 291.28736,47.341672 h -2.53333 c -0.48,0 -0.72,0.186667 -0.72,0.533333 0,0.373334 0.24,0.56 0.72,0.56 h 1.44 v 13.893333 h -1.44 c -0.48,0 -0.72,0.186667 -0.72,0.533334 0,0.373333 0.24,0.56 0.72,0.56 h 5.14667 c 0.48,0 0.72,-0.186667 0.72,-0.56 0,-0.346667 -0.24,-0.533334 -0.72,-0.533334 h -2.61334 v -6.693333 c 1.22667,1.76 2.72,2.56 4.77334,2.56 3.28,0 5.81333,-2.453333 5.81333,-5.626666 0,-3.173334 -2.50667,-5.6 -5.81333,-5.6 -2.02667,0 -3.36,0.72 -4.77334,2.56 z m 4.74667,0.72 c 2.69333,0 4.74667,1.973333 4.74667,4.56 0,2.48 -2.13334,4.48 -4.74667,4.48 -2.64,0 -4.74667,-2 -4.74667,-4.533333 0,-2.506667 2.10667,-4.506667 4.74667,-4.506667 z" />
    <path
       id="path57"
       style=""
       d="m 306.77028,48.381672 c 0,0.293333 0.24,0.533333 0.50667,0.533333 0.77333,0 1.92,-0.853333 4.05333,-0.853333 1.94667,0 3.28,0.88 3.28,2.186667 v 1.893333 c -1.57333,-0.426667 -2.4,-0.56 -3.62666,-0.56 -3.33334,0 -5.62667,1.573333 -5.62667,3.893333 0,2.026667 1.68,3.413333 4.16,3.413333 1.86667,0 3.46667,-0.693333 5.09333,-2.213333 v 1.786667 h 2.53334 c 0.48,0 0.72,-0.186667 0.72,-0.56 0,-0.346667 -0.24,-0.533333 -0.72,-0.533333 h -1.44 v -7.12 c 0,-1.893334 -1.81334,-3.28 -4.29334,-3.28 -0.88,0 -4.64,0.533333 -4.64,1.413333 z m 7.84,7.093333 c -1.78666,1.68 -3.22666,2.32 -5.12,2.32 -1.84,0 -3.04,-0.906666 -3.04,-2.293333 0,-1.68 1.92,-2.826667 4.74667,-2.826667 1.17333,0 2.45333,0.16 3.41333,0.4 z" />
    <path
       id="path59"
       style=""
       d="m 323.87986,48.435005 h 1.2 c 0.48,0 0.72,-0.186666 0.72,-0.56 0,-0.346666 -0.24,-0.533333 -0.72,-0.533333 h -3.2 c -0.48,0 -0.72,0.186667 -0.72,0.533333 0,0.373334 0.24,0.56 0.72,0.56 h 0.90667 v 8.933334 h -0.88 c -0.50667,0 -0.74667,0.186666 -0.74667,0.533333 0,0.373333 0.24,0.56 0.74667,0.56 h 3.17333 c 0.48,0 0.72,-0.186667 0.72,-0.56 0,-0.346667 -0.24,-0.533333 -0.72,-0.533333 h -1.2 v -3.813334 h 7.09334 v 3.813334 h -1.2 c -0.48,0 -0.72,0.186666 -0.72,0.533333 0,0.373333 0.24,0.56 0.72,0.56 h 3.41333 c 0.48,0 0.72,-0.186667 0.72,-0.56 0,-0.346667 -0.24,-0.533333 -0.72,-0.533333 h -1.12 v -8.933334 h 1.12 c 0.48,0 0.72,-0.186666 0.72,-0.56 0,-0.346666 -0.24,-0.533333 -0.72,-0.533333 h -3.41333 c -0.48,0 -0.72,0.186667 -0.72,0.533333 0,0.373334 0.24,0.56 0.72,0.56 h 1.2 v 4.026667 h -7.09334 z" />
    <path
       id="path61"
       style=""
       d="m 348.48277,58.461672 v 2.426666 c 0,0.48 0.18667,0.72 0.53334,0.72 0.42666,0 0.56,-0.266666 0.56,-0.72 v -3.519999 h -1.49334 v -8.933334 h 0.90667 c 0.48,0 0.72,-0.186666 0.72,-0.533333 0,-0.373333 -0.24,-0.56 -0.72,-0.56 h -2.90667 c -0.48,0 -0.72,0.186667 -0.72,0.56 0,0.346667 0.24,0.533333 0.72,0.533333 h 0.90667 v 8.933334 h -7.12 v -8.933334 h 1.2 c 0.48,0 0.72,-0.186666 0.72,-0.533333 0,-0.373333 -0.24,-0.56 -0.72,-0.56 h -3.49333 c -0.50667,0 -0.74667,0.186667 -0.74667,0.56 0,0.346667 0.24,0.533333 0.74667,0.533333 h 1.2 v 8.933334 h -0.90667 c -0.48,0 -0.72,0.186666 -0.72,0.56 0,0.346666 0.24,0.533333 0.72,0.533333 z" />
    <path
       id="path63"
       style=""
       d="m 358.9257,58.461672 -1.89333,3.866666 h -3.38667 c -0.48,0 -0.72,0.186667 -0.72,0.533334 0,0.373333 0.24,0.56 0.72,0.56 h 6.21333 c 0.48,0 0.72,-0.186667 0.72,-0.56 0,-0.346667 -0.24,-0.533334 -0.72,-0.533334 h -1.73333 l 6.82667,-13.893333 h 0.37333 c 0.48,0 0.72,-0.186666 0.72,-0.56 0,-0.346666 -0.24,-0.533333 -0.72,-0.533333 h -2.93333 c -0.48,0 -0.72,0.186667 -0.72,0.533333 0,0.373334 0.24,0.56 0.72,0.56 h 1.44 l -4.29334,8.826667 -4.37333,-8.826667 h 1.38667 c 0.48,0 0.72,-0.186666 0.72,-0.56 0,-0.346666 -0.24,-0.533333 -0.72,-0.533333 h -3.06667 c -0.48,0 -0.72,0.186667 -0.72,0.533333 0,0.373334 0.24,0.56 0.72,0.56 h 0.42667 z" />
    <path
       id="path65"
       style=""
       d="m 379.44861,55.341672 c 0,1.413333 -1.76,2.453333 -4.10666,2.453333 -2.26667,0 -4.10667,-0.986666 -4.10667,-2.213333 v -0.186667 c 0,-0.346666 -0.21333,-0.586666 -0.53333,-0.586666 -0.37334,0 -0.56,0.24 -0.56,0.72 v 2.213333 c 0,0.48 0.18666,0.72 0.56,0.72 0.34666,0 0.53333,-0.24 0.53333,-0.72 v -0.293333 c 1.12,0.986666 2.45333,1.439999 4.18667,1.439999 3.01333,0 5.22666,-1.493333 5.22666,-3.519999 0,-1.84 -1.65333,-2.64 -2.26666,-2.88 v -0.16 l 0.4,-0.24 c 0.74666,-0.48 1.22666,-1.28 1.22666,-2.106667 0,-1.733333 -1.94666,-3.013333 -4.56,-3.013333 -1.52,0 -2.72,0.4 -3.65333,1.226666 v -0.106666 c 0,-0.453334 -0.21333,-0.746667 -0.56,-0.746667 -0.34667,0 -0.53333,0.24 -0.53333,0.746667 v 1.84 c 0,0.48 0.18666,0.72 0.53333,0.72 0.32,0 0.50667,-0.186667 0.56,-0.613334 0.13333,-1.2 1.52,-1.973333 3.54667,-1.973333 1.97333,0 3.46666,0.853333 3.46666,2 0,0.773333 -0.8,1.813333 -3.94666,1.813333 h -1.28 c -0.48,0 -0.72,0.186667 -0.72,0.533334 0,0.373333 0.24,0.56 0.72,0.56 h 1.81333 c 3.44,0 4.05333,1.893333 4.05333,2.373333 z" />
    <path
       id="path67"
       style=""
       d="m 397.65152,56.115005 c 0,-0.266666 -0.24,-0.506666 -0.50666,-0.506666 -0.18667,0 -0.26667,0.05333 -0.48,0.266666 -1.38667,1.28 -3.04,1.92 -4.98667,1.92 -2.90667,0 -4.96,-2 -4.96,-4.8 0,-2.933333 2.02667,-4.933333 4.96,-4.933333 2.24,0 4.13333,1.12 4.24,2.533333 0.0533,0.453334 0.21333,0.64 0.56,0.64 0.34667,0 0.53333,-0.24 0.53333,-0.72 v -2.426666 c 0,-0.506667 -0.18666,-0.746667 -0.53333,-0.746667 -0.37333,0 -0.56,0.24 -0.56,0.746667 v 0.346666 c -1.09333,-0.96 -2.53333,-1.466666 -4.16,-1.466666 -3.57333,0 -6.13333,2.533333 -6.13333,6.053333 0,3.413333 2.50666,5.866666 6,5.866666 3.62666,0 6.02666,-2.213333 6.02666,-2.773333 z" />
    <path
       id="path69"
       style=""
       d="m 404.49445,58.461672 v -5.093333 l 5.54667,4 h -0.74667 c -0.48,0 -0.72,0.186666 -0.72,0.533333 0,0.373333 0.24,0.56 0.72,0.56 h 3.49333 c 0.48,0 0.72,-0.186667 0.72,-0.56 0,-0.346667 -0.24,-0.533333 -0.72,-0.533333 h -1.2 l -6.26666,-4.693334 5.41333,-4.24 h 1.25333 c 0.48,0 0.72,-0.186666 0.72,-0.56 0,-0.346666 -0.24,-0.533333 -0.72,-0.533333 h -3.46666 c -0.48,0 -0.72,0.186667 -0.72,0.533333 0,0.373334 0.24,0.56 0.72,0.56 h 0.58666 l -4.61333,3.626667 v -4.72 h -2.53333 c -0.48,0 -0.72,0.186667 -0.72,0.533333 0,0.373334 0.24,0.56 0.72,0.56 h 1.44 v 8.933334 h -1.44 c -0.48,0 -0.72,0.186666 -0.72,0.533333 0,0.373333 0.24,0.56 0.72,0.56 z" />
    <path
       id="path71"
       style=""
       d="m 419.81736,48.435005 h 1.2 c 0.48,0 0.72,-0.186666 0.72,-0.56 0,-0.346666 -0.24,-0.533333 -0.72,-0.533333 h -3.2 c -0.48,0 -0.72,0.186667 -0.72,0.533333 0,0.373334 0.24,0.56 0.72,0.56 h 0.90667 v 8.933334 h -0.88 c -0.50667,0 -0.74667,0.186666 -0.74667,0.533333 0,0.373333 0.24,0.56 0.74667,0.56 h 3.17333 c 0.48,0 0.72,-0.186667 0.72,-0.56 0,-0.346667 -0.24,-0.533333 -0.72,-0.533333 h -1.2 v -1.146667 l 7.09334,-5.013333 v 6.16 h -1.2 c -0.48,0 -0.72,0.186666 -0.72,0.533333 0,0.373333 0.24,0.56 0.72,0.56 h 3.2 c 0.48,0 0.72,-0.186667 0.72,-0.56 0,-0.346667 -0.24,-0.533333 -0.72,-0.533333 h -0.90667 v -8.933334 h 0.90667 c 0.48,0 0.72,-0.186666 0.72,-0.56 0,-0.346666 -0.24,-0.533333 -0.72,-0.533333 h -3.2 c -0.48,0 -0.72,0.186667 -0.72,0.533333 0,0.373334 0.24,0.56 0.72,0.56 h 1.2 v 1.36 l -7.09334,5.013334 z" />
    <path
       id="path73"
       style=""
       d="m 440.12694,52.621672 4.34667,-4.186667 h 0.18666 c 0.48,0 0.72,-0.186666 0.72,-0.56 0,-0.346666 -0.24,-0.533333 -0.72,-0.533333 h -2.93333 c -0.48,0 -0.72,0.186667 -0.72,0.533333 0,0.373334 0.24,0.56 0.72,0.56 h 1.28 l -3.65333,3.466667 -3.57334,-3.466667 h 1.22667 c 0.48,0 0.72,-0.186666 0.72,-0.56 0,-0.373333 -0.24,-0.533333 -0.72,-0.533333 h -2.96 c -0.48,0 -0.72,0.186667 -0.72,0.533333 0,0.373334 0.24,0.56 0.72,0.56 h 0.18667 l 4.34666,4.186667 -4.90666,4.746667 h -0.24 c -0.48,0 -0.72,0.186666 -0.72,0.533333 0,0.373333 0.24,0.56 0.72,0.56 h 3.54666 c 0.48,0 0.72,-0.186667 0.72,-0.56 0,-0.346667 -0.24,-0.533333 -0.72,-0.533333 h -1.81333 l 4.18667,-3.973334 4.13333,3.973334 h -1.73333 c -0.48,0 -0.72,0.186666 -0.72,0.533333 0,0.373333 0.24,0.56 0.72,0.56 h 3.52 c 0.48,0 0.72,-0.186667 0.72,-0.56 0,-0.346667 -0.24,-0.533333 -0.72,-0.533333 h -0.24 z" />
    <path
       id="path75"
       style=""
       d="m 173.3707,86.195008 c 0,-3.306667 -2.53333,-5.893333 -5.78667,-5.893333 -1.97333,0 -2.93333,0.4 -4.42666,2.053333 0,-4.053333 3.22666,-4.453333 6.90666,-4.453333 0.77334,0 1.57334,0.02667 2.37334,0.02667 v -2.133333 c 0,-0.48 -0.21334,-0.693333 -0.53334,-0.693333 -0.37333,0 -0.58666,0.213333 -0.58666,0.693333 v 1.013333 c -9.01334,0 -9.62667,2 -9.62667,9.386667 0,3.386666 2.50667,6.026666 5.84,6.026666 3.33333,0 5.84,-2.666666 5.84,-6.026666 z m -5.84,-4.8 c 2.66667,0 4.74667,2.16 4.74667,4.933333 0,2.613333 -2.16,4.8 -4.74667,4.8 -2.64,0 -4.74667,-2.186667 -4.74667,-4.88 0,-2.693333 2.10667,-4.853333 4.74667,-4.853333 z" />
    <path
       id="path77"
       style=""
       d="m 183.04028,91.795008 -1.89333,3.866666 h -3.38667 c -0.48,0 -0.72,0.186667 -0.72,0.533334 0,0.373333 0.24,0.56 0.72,0.56 h 6.21334 c 0.48,0 0.72,-0.186667 0.72,-0.56 0,-0.346667 -0.24,-0.533334 -0.72,-0.533334 h -1.73334 l 6.82667,-13.893333 h 0.37333 c 0.48,0 0.72,-0.186666 0.72,-0.56 0,-0.346666 -0.24,-0.533333 -0.72,-0.533333 h -2.93333 c -0.48,0 -0.72,0.186667 -0.72,0.533333 0,0.373334 0.24,0.56 0.72,0.56 h 1.44 l -4.29333,8.826667 -4.37334,-8.826667 h 1.38667 c 0.48,0 0.72,-0.186666 0.72,-0.56 0,-0.346666 -0.24,-0.533333 -0.72,-0.533333 h -3.06667 c -0.48,0 -0.72,0.186667 -0.72,0.533333 0,0.373334 0.24,0.56 0.72,0.56 h 0.42667 z" />
    <path
       id="path79"
       style=""
       d="m 194.94987,90.061674 v -0.613333 c 0,-0.506667 -0.18667,-0.746667 -0.53334,-0.746667 -0.37333,0 -0.56,0.24 -0.56,0.746667 v 0.773333 c 0.0267,1.066667 0.72,1.573334 1.65334,1.573334 h 0.08 c 1.33333,0 1.97333,-0.48 1.97333,-1.653334 v -8.373333 h 4.88 v 8.933333 h -1.2 c -0.48,0 -0.72,0.186667 -0.72,0.533334 0,0.373333 0.24,0.56 0.72,0.56 h 3.2 c 0.48,0 0.72,-0.186667 0.72,-0.56 0,-0.346667 -0.24,-0.533334 -0.72,-0.533334 h -0.90667 v -8.933333 h 0.90667 c 0.48,0 0.72,-0.186666 0.72,-0.56 0,-0.346666 -0.24,-0.533333 -0.72,-0.533333 h -8.88 c -0.48,0 -0.72,0.186667 -0.72,0.533333 0,0.373334 0.24,0.56 0.72,0.56 h 0.90667 v 8.293333 c 0,0.4 -0.29334,0.666667 -0.82667,0.666667 -0.37333,0 -0.69333,-0.213333 -0.69333,-0.666667 z" />
    <path
       id="path81"
       style=""
       d="m 215.49945,80.301675 c -3.38667,0 -6.08,2.666666 -6.08,5.946666 0,3.333333 2.69333,5.973333 6.08,5.973333 3.36,0 6.08,-2.64 6.08,-5.893333 0,-3.386666 -2.66667,-6.026666 -6.08,-6.026666 z m 0,1.093333 c 2.8,0 4.98667,2.133333 4.98667,4.933333 0,2.64 -2.24,4.8 -4.98667,4.8 -2.77333,0 -4.98667,-2.16 -4.98667,-4.88 0,-2.693333 2.21334,-4.853333 4.98667,-4.853333 z" />
    <path
       id="path83"
       style=""
       d="m 228.60903,91.795008 v -5.093334 l 5.54667,4 h -0.74667 c -0.48,0 -0.72,0.186667 -0.72,0.533334 0,0.373333 0.24,0.56 0.72,0.56 h 3.49334 c 0.48,0 0.72,-0.186667 0.72,-0.56 0,-0.346667 -0.24,-0.533334 -0.72,-0.533334 h -1.2 l -6.26667,-4.693333 5.41333,-4.24 h 1.25334 c 0.48,0 0.72,-0.186666 0.72,-0.56 0,-0.346666 -0.24,-0.533333 -0.72,-0.533333 h -3.46667 c -0.48,0 -0.72,0.186667 -0.72,0.533333 0,0.373334 0.24,0.56 0.72,0.56 h 0.58667 l -4.61334,3.626667 v -4.72 h -2.53333 c -0.48,0 -0.72,0.186667 -0.72,0.533333 0,0.373334 0.24,0.56 0.72,0.56 h 1.44 v 8.933333 h -1.44 c -0.48,0 -0.72,0.186667 -0.72,0.533334 0,0.373333 0.24,0.56 0.72,0.56 z" />
    <path
       id="path85"
       style=""
       d="m 260.0282,90.701674 h -3.09333 v 3.52 c 0,0.453334 0.13333,0.72 0.56,0.72 0.34666,0 0.53333,-0.24 0.53333,-0.72 v -2.426666 h 11.06667 v 2.426666 c 0,0.48 0.18666,0.72 0.53333,0.72 0.42667,0 0.56,-0.266666 0.56,-0.72 v -3.52 h -2.69333 v -8.933333 h 0.90666 c 0.48,0 0.72,-0.186666 0.72,-0.56 0,-0.346666 -0.24,-0.533333 -0.72,-0.533333 h -8.88 c -0.48,0 -0.72,0.186667 -0.72,0.533333 0,0.373334 0.24,0.56 0.72,0.56 h 0.90667 v 7.813333 c 0,0.826667 -0.4,1.12 -0.4,1.12 z m 1.49333,-1.093333 v -7.84 h 4.88 v 8.933333 h -5.17333 c 0,0 0.29333,-0.426666 0.29333,-1.093333 z" />
    <path
       id="path87"
       style=""
       d="m 274.79111,81.715008 c 0,0.293333 0.24,0.533333 0.50667,0.533333 0.77333,0 1.92,-0.853333 4.05333,-0.853333 1.94667,0 3.28,0.88 3.28,2.186667 v 1.893333 c -1.57333,-0.426667 -2.4,-0.56 -3.62666,-0.56 -3.33334,0 -5.62667,1.573333 -5.62667,3.893333 0,2.026667 1.68,3.413333 4.16,3.413333 1.86667,0 3.46667,-0.693333 5.09333,-2.213333 v 1.786667 h 2.53334 c 0.48,0 0.72,-0.186667 0.72,-0.56 0,-0.346667 -0.24,-0.533334 -0.72,-0.533334 h -1.44 v -7.119999 c 0,-1.893334 -1.81334,-3.28 -4.29334,-3.28 -0.88,0 -4.64,0.533333 -4.64,1.413333 z m 7.84,7.093333 c -1.78666,1.68 -3.22666,2.32 -5.12,2.32 -1.84,0 -3.04,-0.906667 -3.04,-2.293333 0,-1.68 1.92,-2.826667 4.74667,-2.826667 1.17333,0 2.45333,0.16 3.41333,0.4 z" />
    <path
       id="path89"
       style=""
       d="m 307.94362,90.701674 h -0.93334 c -0.48,0 -0.69333,0.293334 -0.69333,0.533334 0,0.293333 0.21333,0.56 0.69333,0.56 h 6.24 c 2.42667,0 3.30667,-1.36 3.30667,-3.013334 0,-1.493333 -0.74667,-2.373333 -2.37333,-2.879999 1.04,-0.186667 1.6,-1.36 1.6,-2.373334 0,-1.6 -1.22667,-2.853333 -3.81334,-2.853333 h -4.98666 c -0.48,0 -0.66667,0.266667 -0.66667,0.533333 0,0.266667 0.16,0.56 0.64,0.56 h 0.98667 z m 1.09333,-5.226666 v -3.706667 h 2.96 c 1.94667,0 2.69333,0.613334 2.69333,1.76 0,1.226667 -0.88,1.946667 -3.14666,1.946667 z m 0,5.226666 v -4.133333 h 2.50667 c 2.24,0 3.92,0.666667 3.92,2.213333 0,1.226667 -0.53334,1.92 -2.29334,1.92 z" />
    <path
       id="path91"
       style=""
       d="m 332.43986,90.701674 h -1.2 c -0.48,0 -0.72,0.186667 -0.72,0.533334 0,0.373333 0.24,0.56 0.72,0.56 h 3.2 c 0.48,0 0.72,-0.186667 0.72,-0.56 0,-0.346667 -0.24,-0.533334 -0.72,-0.533334 h -0.90666 v -8.933333 h 0.90666 c 0.48,0 0.72,-0.186666 0.72,-0.56 0,-0.346666 -0.24,-0.533333 -0.72,-0.533333 h -3.2 c -0.48,0 -0.72,0.186667 -0.72,0.533333 0,0.373334 0.24,0.56 0.72,0.56 h 1.2 z m -9.06666,-8.933333 c 0.48,0 0.64,-0.293333 0.64,-0.56 0,-0.266666 -0.18667,-0.533333 -0.66667,-0.533333 h -2.98667 c -0.48,0 -0.66666,0.266667 -0.66666,0.533333 0,0.266667 0.16,0.56 0.64,0.56 h 0.82666 v 8.933333 h -0.77333 c -0.48,0 -0.69333,0.293334 -0.69333,0.533334 0,0.293333 0.21333,0.56 0.69333,0.56 h 6.08 c 2.42667,0 3.30667,-1.36 3.30667,-3.013334 0,-1.68 -1.09334,-3.306666 -3.25334,-3.306666 h -4.26666 v -3.706667 z m -1.12,8.933333 v -4.133333 h 3.78666 c 1.65334,0 2.64,0.586667 2.64,2.213333 0,1.226667 -0.4,1.92 -2.29333,1.92 z" />
    <path
       id="path93"
       style=""
       d="m 337.86944,80.675008 c -0.48,0 -0.72,0.186667 -0.72,0.533333 0,0.373334 0.24,0.56 0.72,0.56 h 0.90667 v 8.933333 h -0.88 c -0.50667,0 -0.74667,0.186667 -0.74667,0.533334 0,0.373333 0.24,0.56 0.74667,0.56 h 3.17333 c 0.48,0 0.72,-0.186667 0.72,-0.56 0,-0.346667 -0.24,-0.533334 -0.72,-0.533334 h -1.2 v -8.933333 h 7.12 v 8.933333 h -1.2 c -0.48,0 -0.72,0.186667 -0.72,0.533334 0,0.373333 0.24,0.56 0.72,0.56 h 3.2 c 0.48,0 0.72,-0.186667 0.72,-0.56 0,-0.346667 -0.24,-0.533334 -0.72,-0.533334 h -0.90667 v -8.933333 h 0.90667 c 0.48,0 0.72,-0.186666 0.72,-0.56 0,-0.346666 -0.24,-0.533333 -0.72,-0.533333 z" />
    <path
       id="path95"
       style=""
       d="m 365.27237,86.488341 c 0,-3.76 -2.56,-6.186666 -6.10667,-6.186666 -3.41333,0 -6.08,2.48 -6.08,5.706666 0,3.466667 2.85333,6.213333 6.45333,6.213333 2.42667,0 5.62667,-1.253333 5.62667,-2.186666 0,-0.293334 -0.24,-0.533334 -0.50667,-0.533334 -0.13333,0 -0.24,0.05333 -0.42666,0.186667 -1.06667,0.853333 -3.01334,1.44 -4.66667,1.44 -2.88,0 -5.01333,-1.84 -5.38667,-4.64 z m -11.09334,-1.093333 c 0.48,-2.453333 2.4,-4 4.98667,-4 2.58667,0 4.56,1.573333 4.98667,4 z" />
    <path
       id="path97"
       style=""
       d="m 371.84861,81.768341 h 1.2 c 0.48,0 0.72,-0.186666 0.72,-0.56 0,-0.346666 -0.24,-0.533333 -0.72,-0.533333 h -3.2 c -0.48,0 -0.72,0.186667 -0.72,0.533333 0,0.373334 0.24,0.56 0.72,0.56 h 0.90667 v 8.933333 h -0.88 c -0.50667,0 -0.74667,0.186667 -0.74667,0.533334 0,0.373333 0.24,0.56 0.74667,0.56 h 3.17333 c 0.48,0 0.72,-0.186667 0.72,-0.56 0,-0.346667 -0.24,-0.533334 -0.72,-0.533334 h -1.2 v -1.146666 l 7.09334,-5.013333 v 6.159999 h -1.2 c -0.48,0 -0.72,0.186667 -0.72,0.533334 0,0.373333 0.24,0.56 0.72,0.56 h 3.2 c 0.48,0 0.72,-0.186667 0.72,-0.56 0,-0.346667 -0.24,-0.533334 -0.72,-0.533334 h -0.90667 v -8.933333 h 0.90667 c 0.48,0 0.72,-0.186666 0.72,-0.56 0,-0.346666 -0.24,-0.533333 -0.72,-0.533333 h -3.2 c -0.48,0 -0.72,0.186667 -0.72,0.533333 0,0.373334 0.24,0.56 0.72,0.56 h 1.2 v 1.36 l -7.09334,5.013333 z m 0.24,-7.146666 c -0.34666,0 -0.56,0.24 -0.56,0.613333 0,1.6 1.68,2.853333 3.86667,2.853333 2.18667,0 3.86667,-1.253333 3.86667,-2.853333 0,-0.373333 -0.24,-0.613333 -0.53334,-0.613333 -0.34666,0 -0.50666,0.186666 -0.56,0.586666 -0.10666,1.013334 -1.28,1.786667 -2.77333,1.786667 -1.49333,0 -2.69333,-0.773333 -2.77333,-1.786667 -0.0533,-0.4 -0.21334,-0.586666 -0.53334,-0.586666 z" />
    <path
       id="path99"
       style=""
       d="m 404.65445,81.768341 h 1.2 c 0.48,0 0.72,-0.186666 0.72,-0.56 0,-0.346666 -0.24,-0.533333 -0.72,-0.533333 h -3.2 c -0.48,0 -0.72,0.186667 -0.72,0.533333 0,0.373334 0.24,0.56 0.72,0.56 h 0.90667 v 4.32 c 0,1.546667 2.02666,1.946667 3.86666,1.946667 1.14667,0 2.08,-0.293334 2.72,-0.826667 v 3.493333 h -0.90666 c -0.48,0 -0.72,0.186667 -0.72,0.533334 0,0.373333 0.24,0.56 0.72,0.56 h 2.90666 c 0.48,0 0.72,-0.186667 0.72,-0.56 0,-0.346667 -0.24,-0.533334 -0.72,-0.533334 h -0.90666 v -8.933333 h 0.90666 c 0.48,0 0.72,-0.186666 0.72,-0.56 0,-0.346666 -0.24,-0.533333 -0.72,-0.533333 h -2.90666 c -0.48,0 -0.72,0.186667 -0.72,0.533333 0,0.373334 0.24,0.56 0.72,0.56 h 0.90666 v 4.24 c -0.64,0.693333 -1.73333,0.933333 -2.77333,0.933333 -1.36,0 -2.72,-0.266666 -2.72,-1.146666 z" />
    <path
       id="path101"
       style=""
       d="m 418.69736,81.715008 c 0,0.293333 0.24,0.533333 0.50667,0.533333 0.77333,0 1.92,-0.853333 4.05333,-0.853333 1.94667,0 3.28,0.88 3.28,2.186667 v 1.893333 c -1.57333,-0.426667 -2.4,-0.56 -3.62666,-0.56 -3.33334,0 -5.62667,1.573333 -5.62667,3.893333 0,2.026667 1.68,3.413333 4.16,3.413333 1.86667,0 3.46667,-0.693333 5.09333,-2.213333 v 1.786667 h 2.53334 c 0.48,0 0.72,-0.186667 0.72,-0.56 0,-0.346667 -0.24,-0.533334 -0.72,-0.533334 h -1.44 v -7.119999 c 0,-1.893334 -1.81334,-3.28 -4.29334,-3.28 -0.88,0 -4.64,0.533333 -4.64,1.413333 z m 7.84,7.093333 c -1.78666,1.68 -3.22666,2.32 -5.12,2.32 -1.84,0 -3.04,-0.906667 -3.04,-2.293333 0,-1.68 1.92,-2.826667 4.74667,-2.826667 1.17333,0 2.45333,0.16 3.41333,0.4 z" />
    <path
       id="path103"
       style=""
       d="m 436.02027,86.888341 c 0.32,3.013333 2.34667,5.333333 5.52,5.333333 3.36,0 5.54667,-2.64 5.54667,-5.893333 0,-3.386666 -2.13333,-6.026666 -5.54667,-6.026666 -3.25333,0 -5.30666,2.426666 -5.54666,5.493333 h -1.33334 v -4.026667 h 0.69334 c 0.48,0 0.69333,-0.186666 0.69333,-0.56 0,-0.346666 -0.21333,-0.533333 -0.69333,-0.533333 h -2.66667 c -0.48,0 -0.74667,0.186667 -0.74667,0.533333 0,0.373334 0.26667,0.56 0.74667,0.56 h 0.90667 v 8.933333 h -1.22667 c -0.48,0 -0.74667,0.186667 -0.74667,0.533334 0,0.373333 0.26667,0.56 0.74667,0.56 h 2.98667 c 0.48,0 0.69333,-0.186667 0.69333,-0.56 0,-0.346667 -0.21333,-0.533334 -0.69333,-0.533334 h -0.69334 v -3.813333 z m 5.52,-5.493333 c 2.77334,0 4.42667,2.133333 4.42667,4.933333 0,2.64 -1.70667,4.8 -4.42667,4.8 -2.77333,0 -4.48,-2.16 -4.48,-4.88 0,-2.693333 1.70667,-4.853333 4.48,-4.853333 z" />
  </g>
</svg>
