<?xml version="1.0" encoding="UTF-8" standalone="no"?>
<svg
   xmlns:dc="http://purl.org/dc/elements/1.1/"
   xmlns:cc="http://creativecommons.org/ns#"
   xmlns:rdf="http://www.w3.org/1999/02/22-rdf-syntax-ns#"
   xmlns:svg="http://www.w3.org/2000/svg"
   xmlns="http://www.w3.org/2000/svg"
   id="svg2"
   version="1.1"
   viewBox="160.4031 5.7663572 258.94533 91.809901">
  <metadata
     id="metadata11">
    <rdf:RDF>
      <cc:Work
         rdf:about="">
        <dc:format>image/svg+xml</dc:format>
        <dc:type
           rdf:resource="http://purl.org/dc/dcmitype/StillImage" />
      </cc:Work>
    </rdf:RDF>
  </metadata>
  <defs
     id="defs9" />
  <g
     id="text4521"
     style="font-style:normal;font-variant:normal;font-weight:normal;font-stretch:normal;font-size:26.66666603px;line-height:125%;font-family:Georgia, serif;font-variant-ligatures:normal;font-variant-caps:normal;font-variant-numeric:normal;font-feature-settings:normal;text-align:left;letter-spacing:0px;word-spacing:0px;writing-mode:lr-tb;text-anchor:start;fill:#000000;fill-opacity:1;stroke:none;stroke-width:1px;stroke-linecap:butt;stroke-linejoin:miter;stroke-opacity:1"
     aria-label="Съешь же ещё этихмягких французскихбулок да выпей чаю">
    <path
       id="path13"
       style=""
       d="m 168.94476,25.558023 q -1.65364,0 -3.17708,-0.651041 -1.51042,-0.651042 -2.68229,-1.875 -1.15886,-1.223958 -1.84896,-2.981771 -0.6901,-1.770833 -0.6901,-3.984375 0,-2.213541 0.67708,-4.010416 0.67708,-1.809896 1.875,-3.1119795 1.18489,-1.2890625 2.79948,-1.9921874 1.61458,-0.703125 3.45052,-0.703125 1.36719,0 2.47396,0.3385416 1.10677,0.3385417 2.10937,0.9505208 l 0.53386,-0.8854166 h 1.04166 l 0.11719,6.5885411 h -1.06771 q -0.20833,-0.963541 -0.625,-2.083333 -0.41666,-1.132812 -0.97656,-1.9140623 -0.625,-0.8854167 -1.48438,-1.3802083 -0.85937,-0.5078125 -1.96614,-0.5078125 -1.26302,0 -2.35677,0.5598958 -1.08073,0.5598958 -1.875,1.6536458 -0.75521,1.0546875 -1.1849,2.6822915 -0.42969,1.627604 -0.42969,3.632813 0,1.770833 0.44271,3.255208 0.45573,1.471354 1.28907,2.591146 0.83333,1.10677 1.96614,1.73177 1.14583,0.625 2.55208,0.625 1.05469,0 1.94011,-0.325521 0.88542,-0.338541 1.53646,-0.885416 0.65104,-0.572917 1.14583,-1.302083 0.49479,-0.729167 0.80729,-1.588542 l 0.97656,0.46875 q -1.11979,2.747396 -2.96875,3.932291 -1.84895,1.171875 -4.40104,1.171875 z" />
    <path
       id="path15"
       style=""
       d="m 188.86664,21.117919 q 0,-1.09375 -0.79427,-1.861979 -0.79427,-0.78125 -2.31771,-0.78125 -0.63802,0 -1.05469,0.05208 -0.41667,0.03906 -0.63802,0.03906 v 4.583333 q 0,0.546875 0.39062,0.820313 0.40365,0.273437 1.44532,0.273437 0.88541,0 1.47135,-0.286458 0.59896,-0.286458 0.91146,-0.729167 0.33854,-0.48177 0.45573,-1.002604 0.13021,-0.520833 0.13021,-1.106771 z m 2.63021,0.0651 q 0,1.028645 -0.44271,1.783854 -0.44271,0.742187 -1.14584,1.223958 -0.70312,0.46875 -1.5625,0.703125 -0.85937,0.234375 -1.79687,0.234375 h -6.90104 v -0.859375 q 0.29948,-0.02604 0.67708,-0.05208 0.39063,-0.02604 0.625,-0.104167 0.36458,-0.117188 0.53385,-0.403646 0.1823,-0.299479 0.1823,-0.768229 v -9.6875 q -0.45573,0.01302 -0.96355,0.03906 -0.49479,0.01302 -0.85937,0.03906 -0.33854,0.02604 -0.72917,0.429688 -0.3776,0.390625 -0.66406,0.833333 -0.33854,0.559896 -0.53385,1.015625 -0.18229,0.442708 -0.29948,0.768229 h -0.79427 v -4.088541 h 9.33593 v 0.859375 q -0.39062,0.02604 -0.76823,0.0651 -0.36458,0.02604 -0.61197,0.09115 -0.40365,0.117187 -0.5599,0.442708 -0.15625,0.325521 -0.15625,0.729167 v 3.059895 q 0.52083,-0.01302 0.88542,-0.02604 0.3776,-0.02604 1.08073,-0.02604 1.26302,0 2.21354,0.208333 0.96354,0.195313 1.66666,0.611979 0.75521,0.442709 1.17188,1.132813 0.41667,0.690104 0.41667,1.744792 z" />
    <path
       id="path17"
       style=""
       d="m 204.42653,22.107503 q -0.80729,1.536458 -2.16146,2.447916 -1.35416,0.911459 -3.11197,0.911459 -1.54948,0 -2.72136,-0.546875 -1.15885,-0.546875 -1.91406,-1.484375 -0.75521,-0.9375 -1.13281,-2.1875 -0.36459,-1.25 -0.36459,-2.643229 0,-1.25 0.39063,-2.447917 0.40364,-1.210937 1.17187,-2.174479 0.74219,-0.924479 1.83594,-1.484375 1.10677,-0.572917 2.47396,-0.572917 1.40625,0 2.40885,0.442709 1.00261,0.442708 1.62761,1.210937 0.59895,0.729167 0.88541,1.71875 0.29948,0.989583 0.29948,2.148437 v 0.859375 h -8.5026 q 0,1.263021 0.23437,2.291667 0.2474,1.028646 0.76823,1.809896 0.50782,0.755208 1.32813,1.197916 0.82031,0.429688 1.95312,0.429688 1.15886,0 1.99219,-0.533854 0.84635,-0.546875 1.6276,-1.953125 z m -2.8776,-4.895834 q 0,-0.729166 -0.13021,-1.562499 -0.11719,-0.833334 -0.39062,-1.39323 -0.29948,-0.598958 -0.82032,-0.976562 -0.52083,-0.377604 -1.34114,-0.377604 -1.36719,0 -2.27865,1.145833 -0.89844,1.132813 -0.97656,3.164062 z" />
    <path
       id="path19"
       style=""
       d="m 227.16091,25.128336 h -21.25 v -0.859375 q 0.29948,-0.02604 0.63802,-0.05208 0.35156,-0.02604 0.58594,-0.104167 0.36458,-0.117188 0.53385,-0.403646 0.18229,-0.299479 0.18229,-0.768229 v -8.333333 q 0,-0.429688 -0.15625,-0.716146 -0.15625,-0.286458 -0.53385,-0.455729 -0.33854,-0.15625 -0.66406,-0.208333 -0.3125,-0.05208 -0.58594,-0.07813 v -0.859375 h 6.14583 v 0.859375 q -0.3776,0.02604 -0.625,0.0651 -0.24739,0.03906 -0.48177,0.09115 -0.40364,0.117187 -0.54687,0.455729 -0.13021,0.338541 -0.13021,0.716146 v 8.385416 q 0,0.703125 0.32552,0.976562 0.32552,0.260417 0.89844,0.273438 0.29948,0 0.63802,0.02604 0.33854,0.01302 0.83333,0.01302 0.39063,0 0.71615,-0.01302 0.32552,-0.01302 0.82031,-0.02604 0.55989,-0.02604 0.67708,-0.247396 0.11719,-0.221354 0.11719,-0.768229 v -8.489583 q 0,-0.429688 -0.13021,-0.716146 -0.13021,-0.299479 -0.49479,-0.455729 -0.33854,-0.15625 -0.63802,-0.208333 -0.28646,-0.05208 -0.57292,-0.07813 v -0.859375 h 6.05469 v 0.859375 q -0.3776,0.02604 -0.65104,0.0651 -0.26042,0.03906 -0.49479,0.09115 -0.39063,0.104166 -0.52084,0.442708 -0.13021,0.338542 -0.13021,0.729167 v 8.411458 q 0,0.703125 0.32553,0.963541 0.33854,0.247396 0.89843,0.260417 0.28646,0 0.67709,0.02604 0.40364,0.01302 0.82031,0.01302 0.27344,0 0.6901,-0.01302 0.42969,-0.01302 0.82032,-0.02604 0.55989,-0.02604 0.67708,-0.247396 0.11719,-0.221354 0.11719,-0.768229 v -8.489583 q 0,-0.429688 -0.13021,-0.716146 -0.13021,-0.299479 -0.49479,-0.455729 -0.33855,-0.15625 -0.63802,-0.208333 -0.28646,-0.05208 -0.57292,-0.07813 v -0.859375 h 6.14583 v 0.859375 q -0.3776,0.02604 -0.66406,0.0651 -0.27344,0.03906 -0.50781,0.09115 -0.36459,0.104166 -0.54688,0.416666 -0.16927,0.299479 -0.16927,0.755209 v 8.333333 q 0,0.455729 0.15625,0.742187 0.15625,0.273438 0.53386,0.429688 0.28645,0.130208 0.61197,0.195312 0.33855,0.0651 0.69011,0.09115 z" />
    <path
       id="path21"
       style=""
       d="m 238.07236,21.117919 q 0,-1.09375 -0.79427,-1.861979 -0.79427,-0.78125 -2.31771,-0.78125 -0.63802,0 -1.05468,0.05208 -0.41667,0.03906 -0.63803,0.03906 v 4.583333 q 0,0.546875 0.39063,0.820313 0.40365,0.273437 1.44531,0.273437 0.88542,0 1.47136,-0.286458 0.59895,-0.286458 0.91145,-0.729167 0.33855,-0.48177 0.45573,-1.002604 0.13021,-0.520833 0.13021,-1.106771 z m 2.63021,0.0651 q 0,1.028645 -0.44271,1.783854 -0.44271,0.742187 -1.14583,1.223958 -0.70313,0.46875 -1.5625,0.703125 -0.85938,0.234375 -1.79688,0.234375 h -6.77083 v -0.859375 q 0.29948,-0.02604 0.61198,-0.05208 0.32552,-0.02604 0.5599,-0.104167 0.36458,-0.117188 0.53385,-0.403646 0.18229,-0.299479 0.18229,-0.768229 v -8.333333 q 0,-0.429688 -0.18229,-0.716146 -0.18229,-0.299479 -0.54688,-0.455729 -0.33854,-0.15625 -0.66406,-0.208333 -0.3125,-0.05208 -0.58594,-0.07813 v -0.859375 h 6.47136 v 0.859375 q -0.39063,0.02604 -0.76823,0.0651 -0.36458,0.02604 -0.61198,0.09115 -0.40365,0.117187 -0.5599,0.442708 -0.15625,0.325521 -0.15625,0.729167 v 3.059895 q 0.52084,-0.01302 0.88542,-0.02604 0.37761,-0.02604 1.08073,-0.02604 1.26302,0 2.21354,0.208333 0.96354,0.195313 1.66667,0.611979 0.75521,0.442709 1.17187,1.132813 0.41667,0.690104 0.41667,1.744792 z" />
    <path
       id="path23"
       style=""
       d="m 268.55414,25.128336 h -4.32292 q -0.32552,-1.067708 -0.58594,-1.822917 -0.26042,-0.768229 -0.76823,-1.770833 -0.61198,-1.223958 -1.32812,-1.770833 -0.70313,-0.546875 -1.86198,-0.546875 h -0.2474 v 3.619791 q 0,0.442709 0.16927,0.729167 0.18229,0.286458 0.54688,0.442708 0.27344,0.130209 0.57291,0.182292 0.3125,0.05208 0.65105,0.07813 v 0.859375 h -6.15886 v -0.859375 q 0.29948,-0.02604 0.59896,-0.03906 0.3125,-0.01302 0.54688,-0.09114 0.36458,-0.117188 0.53385,-0.403646 0.16927,-0.299479 0.16927,-0.768229 v -3.75 h -0.2474 q -1.21093,0 -1.90104,0.546875 -0.6901,0.533854 -1.3151,1.770833 -0.46875,0.911458 -0.74219,1.679687 -0.26042,0.76823 -0.61198,1.914063 h -4.29687 v -0.859375 q 0.22135,-0.02604 0.55989,-0.0651 0.35157,-0.05208 0.59896,-0.104167 0.46875,-0.09115 0.72917,-0.3125 0.26041,-0.234375 0.52083,-0.768229 0.13021,-0.299479 0.36458,-0.820312 0.23438,-0.533855 0.54688,-1.158855 0.48177,-0.963541 1.13281,-1.57552 0.65104,-0.61198 1.82292,-0.859375 v -0.169271 q -0.70313,-0.442709 -1.09375,-1.158854 -0.37761,-0.729167 -0.61198,-1.432292 -0.19531,-0.611979 -0.40365,-1.276042 -0.20833,-0.677083 -0.46875,-0.898437 -0.65104,0.78125 -0.98958,1.054687 -0.33854,0.273438 -0.85937,0.273438 -0.61198,0 -0.98959,-0.377604 -0.36458,-0.390625 -0.36458,-0.950521 0,-0.664063 0.44271,-1.09375 0.45573,-0.442708 1.48437,-0.442708 0.75521,0 1.23698,0.195312 0.49479,0.195313 1.09375,0.872396 0.32552,0.377604 0.54688,0.950521 0.22135,0.559896 0.42968,1.223958 0.19532,0.625 0.44271,1.25 0.26042,0.611979 0.59896,0.976562 0.3125,0.325521 0.70313,0.481771 0.39062,0.15625 0.87239,0.15625 h 0.76823 v -3.658854 q 0,-0.429687 -0.18229,-0.716146 -0.16927,-0.299479 -0.53386,-0.455729 -0.33854,-0.15625 -0.65104,-0.195312 -0.3125,-0.03906 -0.57291,-0.0651 v -0.859375 h 6.15885 v 0.859375 q -0.40365,0.02604 -0.65104,0.05208 -0.2474,0.01302 -0.49479,0.07813 -0.36459,0.104167 -0.53386,0.416667 -0.16927,0.299479 -0.16927,0.755208 v 3.789062 h 0.76823 q 0.42969,0 0.85938,-0.169271 0.42968,-0.16927 0.71614,-0.46875 0.36459,-0.390625 0.61198,-1.028645 0.26042,-0.638021 0.42969,-1.197917 0.19531,-0.638021 0.41667,-1.210937 0.23437,-0.585938 0.55989,-0.963542 0.5599,-0.638021 1.09375,-0.846354 0.53386,-0.221354 1.23698,-0.221354 1.0026,0 1.45833,0.442708 0.46875,0.442708 0.46875,1.09375 0,0.572917 -0.3776,0.950521 -0.3776,0.377604 -0.97656,0.377604 -0.5599,0 -0.91146,-0.299479 -0.33854,-0.299479 -0.9375,-1.028646 -0.28646,0.221354 -0.49479,0.911458 -0.20834,0.677084 -0.37761,1.25 -0.24739,0.807292 -0.66406,1.510417 -0.40365,0.690104 -1.04167,1.09375 v 0.169271 q 1.1849,0.234375 1.83594,0.859375 0.66406,0.625 1.14583,1.57552 0.23438,0.45573 0.52084,1.119792 0.29948,0.651042 0.39062,0.859375 0.19532,0.442708 0.49479,0.716146 0.3125,0.273437 0.72917,0.351562 0.32552,0.0651 0.63802,0.117188 0.3125,0.05208 0.52084,0.0651 z" />
    <path
       id="path25"
       style=""
       d="m 281.09319,22.107503 q -0.80729,1.536458 -2.16146,2.447916 -1.35416,0.911459 -3.11197,0.911459 -1.54948,0 -2.72136,-0.546875 -1.15885,-0.546875 -1.91406,-1.484375 -0.75521,-0.9375 -1.13281,-2.1875 -0.36459,-1.25 -0.36459,-2.643229 0,-1.25 0.39063,-2.447917 0.40364,-1.210937 1.17187,-2.174479 0.74219,-0.924479 1.83594,-1.484375 1.10677,-0.572917 2.47396,-0.572917 1.40625,0 2.40885,0.442709 1.00261,0.442708 1.62761,1.210937 0.59896,0.729167 0.88541,1.71875 0.29948,0.989583 0.29948,2.148437 v 0.859375 h -8.5026 q 0,1.263021 0.23437,2.291667 0.2474,1.028646 0.76823,1.809896 0.50782,0.755208 1.32813,1.197916 0.82031,0.429688 1.95312,0.429688 1.15886,0 1.99219,-0.533854 0.84635,-0.546875 1.6276,-1.953125 z m -2.8776,-4.895834 q 0,-0.729166 -0.13021,-1.562499 -0.11719,-0.833334 -0.39062,-1.39323 -0.29948,-0.598958 -0.82032,-0.976562 -0.52083,-0.377604 -1.34114,-0.377604 -1.36719,0 -2.27865,1.145833 -0.89844,1.132813 -0.97656,3.164062 z" />
    <path
       id="path27"
       style=""
       d="m 300.4682,22.107503 q -0.80729,1.536458 -2.16146,2.447916 -1.35416,0.911459 -3.11198,0.911459 -1.54948,0 -2.72135,-0.546875 -1.15886,-0.546875 -1.91406,-1.484375 -0.75521,-0.9375 -1.13282,-2.1875 -0.36458,-1.25 -0.36458,-2.643229 0,-1.25 0.39063,-2.447917 0.40364,-1.210937 1.17187,-2.174479 0.74219,-0.924479 1.83594,-1.484375 1.10677,-0.572917 2.47396,-0.572917 1.40625,0 2.40885,0.442709 1.0026,0.442708 1.6276,1.210937 0.59896,0.729167 0.88542,1.71875 0.29948,0.989583 0.29948,2.148437 v 0.859375 h -8.5026 q 0,1.263021 0.23437,2.291667 0.2474,1.028646 0.76823,1.809896 0.50781,0.755208 1.32813,1.197916 0.82031,0.429688 1.95312,0.429688 1.15885,0 1.99219,-0.533854 0.84635,-0.546875 1.6276,-1.953125 z m -2.8776,-4.895834 q 0,-0.729166 -0.13021,-1.562499 -0.11719,-0.833334 -0.39063,-1.39323 -0.29948,-0.598958 -0.82031,-0.976562 -0.52083,-0.377604 -1.34115,-0.377604 -1.36718,0 -2.27864,1.145833 -0.89844,1.132813 -0.97656,3.164062 z" />
    <path
       id="path29"
       style=""
       d="m 320.16871,25.128336 h -18.21614 v -0.859375 q 0.29947,-0.02604 0.63802,-0.05208 0.35156,-0.02604 0.58593,-0.104167 0.36459,-0.117188 0.53386,-0.403646 0.18229,-0.299479 0.18229,-0.768229 v -8.333333 q 0,-0.429688 -0.15625,-0.716146 -0.15625,-0.286458 -0.53385,-0.455729 -0.33855,-0.15625 -0.66407,-0.208333 -0.3125,-0.05208 -0.58593,-0.07813 v -0.859375 h 6.14583 v 0.859375 q -0.37761,0.02604 -0.625,0.0651 -0.2474,0.03906 -0.48177,0.09115 -0.40365,0.117187 -0.54688,0.455729 -0.13021,0.338541 -0.13021,0.716146 v 8.385416 q 0,0.703125 0.32553,0.976562 0.32552,0.260417 0.89843,0.273438 0.29948,0 0.63802,0.02604 0.33855,0.01302 0.83334,0.01302 0.39062,0 0.71614,-0.01302 0.32552,-0.01302 0.82032,-0.02604 0.55989,-0.02604 0.67708,-0.247396 0.11719,-0.221354 0.11719,-0.768229 v -8.489583 q 0,-0.429688 -0.13021,-0.716146 -0.13021,-0.299479 -0.49479,-0.455729 -0.33855,-0.15625 -0.63802,-0.208333 -0.28646,-0.05208 -0.57292,-0.07813 v -0.859375 h 6.05469 v 0.859375 q -0.37761,0.02604 -0.65105,0.0651 -0.26041,0.03906 -0.49479,0.09115 -0.39062,0.104166 -0.52083,0.442708 -0.13021,0.338542 -0.13021,0.729167 v 8.411458 q 0,0.703125 0.32552,0.963541 0.33854,0.247396 0.89844,0.260417 0.28646,0 0.67708,0.02604 0.40365,0.01302 0.82032,0.01302 0.27343,0 0.6901,-0.01302 0.42969,-0.01302 0.82031,-0.02604 0.5599,-0.02604 0.67709,-0.247396 0.11718,-0.221354 0.11718,-0.768229 v -8.489583 q 0,-0.429688 -0.13021,-0.716146 -0.1302,-0.299479 -0.49479,-0.455729 -0.33854,-0.15625 -0.63802,-0.208333 -0.28646,-0.05208 -0.57291,-0.07813 v -0.859375 h 6.14583 v 0.859375 q -0.37761,0.02604 -0.66406,0.0651 -0.27344,0.03906 -0.50782,0.09115 -0.36458,0.104166 -0.54687,0.416666 -0.16927,0.299479 -0.16927,0.755209 v 8.359374 q 0,0.690104 0.26041,0.989584 0.27344,0.286458 1.13282,0.286458 h 0.83333 v 4.817708 h -0.9375 q -0.22135,-1.106771 -0.8724,-2.369791 -0.65104,-1.263021 -1.45833,-1.432292 z" />
    <path
       id="path31"
       style=""
       d="m 336.45778,22.107503 q -0.80729,1.536458 -2.16146,2.447916 -1.35417,0.911459 -3.11198,0.911459 -1.54948,0 -2.72135,-0.546875 -1.15886,-0.546875 -1.91407,-1.484375 -0.7552,-0.9375 -1.13281,-2.1875 -0.36458,-1.25 -0.36458,-2.643229 0,-1.25 0.39062,-2.447917 0.40365,-1.210937 1.17188,-2.174479 0.74219,-0.924479 1.83594,-1.484375 1.10677,-0.572917 2.47395,-0.572917 1.40625,0 2.40886,0.442709 1.0026,0.442708 1.6276,1.210937 0.59896,0.729167 0.88542,1.71875 0.29948,0.989583 0.29948,2.148437 v 0.859375 h -8.50261 q 0,1.263021 0.23438,2.291667 0.2474,1.028646 0.76823,1.809896 0.50781,0.755208 1.32812,1.197916 0.82032,0.429688 1.95313,0.429688 1.15885,0 1.99219,-0.533854 0.84635,-0.546875 1.6276,-1.953125 z m -2.87761,-4.895834 q 0,-0.729166 -0.1302,-1.562499 -0.11719,-0.833334 -0.39063,-1.39323 -0.29948,-0.598958 -0.82031,-0.976562 -0.52083,-0.377604 -1.34115,-0.377604 -1.36718,0 -2.27864,1.145833 -0.89844,1.132813 -0.97657,3.164062 z m 1.75782,-9.8437493 q 0,0.6640625 -0.45573,1.1328125 -0.44271,0.46875 -1.08073,0.46875 -0.63802,0 -1.09375,-0.46875 -0.44271,-0.46875 -0.44271,-1.1328125 0,-0.6640625 0.44271,-1.1328125 0.45573,-0.46875 1.09375,-0.46875 0.63802,0 1.08073,0.46875 0.45573,0.46875 0.45573,1.1328125 z m -5.59896,0 q 0,0.6640625 -0.45573,1.1328125 -0.44271,0.46875 -1.08073,0.46875 -0.63802,0 -1.09375,-0.46875 -0.44271,-0.46875 -0.44271,-1.1328125 0,-0.6640625 0.44271,-1.1328125 0.45573,-0.46875 1.09375,-0.46875 0.63802,0 1.08073,0.46875 0.45573,0.46875 0.45573,1.1328125 z" />
    <path
       id="path33"
       style=""
       d="m 355.52028,18.149169 q 0,1.497396 -0.42969,2.864584 -0.42969,1.354166 -1.23698,2.317708 -0.87239,1.028646 -2.04427,1.588542 -1.15885,0.546875 -2.79948,0.546875 -1.17187,0 -2.05729,-0.260417 -0.88542,-0.247396 -1.47135,-0.677083 -0.59896,-0.429688 -0.89844,-1.002605 -0.29948,-0.572916 -0.29948,-1.210937 0,-0.585937 0.3125,-0.963542 0.3125,-0.377604 0.97656,-0.377604 0.67709,0 1.05469,0.377604 0.3776,0.377605 0.3776,0.807292 0,0.377604 -0.11718,0.846354 -0.10417,0.455729 -0.1823,0.742188 0.0781,0.05208 0.23438,0.182291 0.15625,0.117188 0.46875,0.247396 0.33854,0.143229 0.67708,0.234375 0.35157,0.09115 0.95052,0.09115 0.91146,0 1.64063,-0.403646 0.74219,-0.416667 1.25,-1.171875 0.50781,-0.768229 0.76823,-1.757812 0.26041,-0.989584 0.26041,-2.213542 h -5.15625 v -1.210937 h 5.1823 q -0.013,-1.445313 -0.3125,-2.356771 -0.28646,-0.924479 -0.72917,-1.458333 -0.46875,-0.559896 -1.06771,-0.78125 -0.59896,-0.234375 -1.22396,-0.234375 -0.76823,0 -1.39323,0.338541 -0.625,0.338542 -1.10677,0.872396 -0.48177,0.559896 -0.76823,1.158854 -0.27343,0.585938 -0.48177,1.171875 h -0.87239 l 0.0781,-4.518229 h 0.88542 l 0.40364,0.611979 q 0.70313,-0.377604 1.64063,-0.494791 0.95052,-0.117188 1.73177,-0.117188 1.41927,0 2.48698,0.507813 1.06771,0.494791 1.79687,1.341145 0.71615,0.846355 1.09375,1.979167 0.37761,1.119792 0.37761,2.382812 z" />
    <path
       id="path35"
       style=""
       d="m 368.7234,16.404378 h -0.79427 q -0.11718,-0.364583 -0.35156,-0.859375 -0.22135,-0.494792 -0.49479,-0.9375 -0.28646,-0.481771 -0.65104,-0.846354 -0.35157,-0.377604 -0.74219,-0.429688 -0.40365,-0.03906 -0.89844,-0.05208 -0.49479,-0.02604 -0.84635,-0.02604 v 9.557292 q 0,0.442708 0.18229,0.729166 0.18229,0.286459 0.54687,0.442709 0.28646,0.130208 0.65105,0.195312 0.36458,0.0651 0.71614,0.09115 v 0.859375 h -6.53646 v -0.859375 q 0.29948,-0.02604 0.67709,-0.05208 0.39062,-0.02604 0.625,-0.104167 0.36458,-0.117188 0.53385,-0.403646 0.18229,-0.299479 0.18229,-0.768229 v -9.6875 q -0.41666,0.01302 -0.9375,0.03906 -0.52083,0.01302 -0.82031,0.03906 -0.33854,0.02604 -0.72917,0.429688 -0.3776,0.403646 -0.66406,0.846354 -0.27344,0.442708 -0.50781,0.989583 -0.23438,0.533854 -0.32552,0.807292 h -0.79427 v -4.114583 h 11.97916 z" />
    <path
       id="path37"
       style=""
       d="m 384.42652,25.128336 h -6.23698 v -0.859375 q 0.29948,-0.02604 0.61198,-0.05208 0.32552,-0.02604 0.5599,-0.104167 0.36458,-0.117188 0.5599,-0.403646 0.19531,-0.299479 0.19531,-0.768229 v -6.744792 l -5.91146,6.39323 v 0.221354 q 0,0.442708 0.18229,0.729166 0.18229,0.286459 0.54688,0.442709 0.28645,0.130208 0.59895,0.195312 0.32553,0.0651 0.67709,0.09115 v 0.859375 h -6.23698 v -0.859375 q 0.29948,-0.02604 0.61198,-0.05208 0.32552,-0.02604 0.55989,-0.104167 0.36459,-0.117188 0.53386,-0.403646 0.18229,-0.299479 0.18229,-0.768229 v -8.333333 q 0,-0.429688 -0.18229,-0.716146 -0.18229,-0.299479 -0.54688,-0.455729 -0.33854,-0.15625 -0.66406,-0.208333 -0.3125,-0.05208 -0.58594,-0.07813 v -0.859375 h 6.23698 v 0.859375 q -0.3776,0.02604 -0.66406,0.0651 -0.27344,0.03906 -0.50781,0.09115 -0.36459,0.104166 -0.54688,0.416666 -0.16927,0.299479 -0.16927,0.755209 v 6.640624 l 5.91146,-6.406249 q 0,-0.572917 -0.18229,-0.846355 -0.18229,-0.273437 -0.54688,-0.429687 -0.33854,-0.15625 -0.67708,-0.208333 -0.32552,-0.05208 -0.59896,-0.07813 v -0.859375 h 6.23698 v 0.859375 q -0.3776,0.02604 -0.66406,0.0651 -0.27344,0.03906 -0.50781,0.09115 -0.36459,0.104166 -0.54688,0.416666 -0.16927,0.299479 -0.16927,0.755209 v 8.333333 q 0,0.455729 0.15625,0.742187 0.15625,0.273438 0.53385,0.429688 0.27344,0.130208 0.58594,0.195312 0.32552,0.0651 0.66406,0.09115 z" />
    <path
       id="path39"
       style=""
       d="m 398.67132,25.128336 h -5.88542 v -0.859375 q 0.58594,-0.0651 0.98959,-0.130208 0.41666,-0.06511 0.41666,-0.338542 0,-0.117188 -0.1302,-0.364583 -0.13021,-0.247396 -0.26042,-0.455729 -0.32552,-0.507813 -0.89844,-1.354167 -0.55989,-0.859375 -1.38021,-2.044271 -0.67708,0.846354 -1.25,1.653646 -0.57291,0.794271 -1.19791,1.692708 -0.0912,0.130209 -0.19532,0.325521 -0.0911,0.195312 -0.0911,0.3125 0,0.286458 0.36458,0.481771 0.37761,0.182291 1.11979,0.247396 v 0.833333 h -4.7526 v -0.807292 q 0.88542,-0.260416 1.41927,-0.625 0.54687,-0.377604 1.0026,-0.924479 0.40365,-0.520833 1.1198,-1.432291 0.72916,-0.911459 1.875,-2.473959 -0.66407,-0.950521 -1.62761,-2.317708 -0.95052,-1.380208 -1.57552,-2.291667 -0.33854,-0.494791 -0.78125,-0.79427 -0.42969,-0.3125 -1.22396,-0.3125 v -0.859375 h 5.58594 v 0.859375 q -0.41667,0 -0.82031,0.05208 -0.40365,0.05208 -0.40365,0.234375 0,0.117187 0.0781,0.260417 0.0781,0.143229 0.19531,0.3125 0.28646,0.442708 0.88542,1.367187 0.61197,0.924479 1.3151,1.953125 0.45573,-0.625 1.05469,-1.458333 0.61198,-0.833334 1.11979,-1.588542 0.0521,-0.09115 0.10417,-0.221354 0.0521,-0.143229 0.0521,-0.273438 0,-0.273437 -0.45573,-0.429687 -0.44271,-0.169271 -0.84635,-0.234375 v -0.833333 h 4.73958 v 0.807291 q -1.00261,0.260417 -1.5625,0.625 -0.5599,0.351563 -0.95052,0.820313 -0.42969,0.533854 -1.02865,1.315104 -0.58594,0.78125 -1.65364,2.1875 1.18489,1.666666 1.92708,2.734375 0.74219,1.067708 1.4974,2.200521 0.3776,0.572916 0.83333,0.911458 0.46875,0.325521 1.27604,0.377604 z" />
    <path
       id="path41"
       style=""
       d="m 177.69476,58.461672 h -6.28906 v -0.859375 q 0.29948,-0.02604 0.61198,-0.05208 0.32552,-0.02604 0.5599,-0.104167 0.3776,-0.117188 0.57291,-0.416667 0.20834,-0.3125 0.20834,-0.755208 v -9.296875 h -0.3125 l -4.34896,11.276042 h -0.80729 l -4.08855,-11.497396 h -0.28645 v 8.997396 q 0,0.664062 0.18229,1.041666 0.19531,0.377604 0.54687,0.520834 0.27344,0.130208 0.58594,0.195312 0.32552,0.0651 0.66406,0.09115 v 0.859375 h -5 v -0.859375 q 0.29948,-0.02604 0.61198,-0.05208 0.32552,-0.02604 0.5599,-0.104167 0.39062,-0.130208 0.54687,-0.507813 0.16927,-0.390625 0.16927,-1.054687 v -7.8125 q 0,-0.507812 -0.18229,-0.820312 -0.18229,-0.325521 -0.54687,-0.481771 -0.33855,-0.15625 -0.66407,-0.208334 -0.3125,-0.05208 -0.58593,-0.07813 V 45.62313 h 5.33854 l 3.21614,9.192709 2.83855,-7.617188 q 0.1302,-0.377604 0.28645,-0.898437 0.15625,-0.520834 0.16927,-0.677084 h 5.39063 v 0.859375 q -0.3776,0.02604 -0.66406,0.0651 -0.27344,0.03906 -0.50782,0.09115 -0.36458,0.104167 -0.54687,0.416667 -0.16927,0.299479 -0.16927,0.755208 v 8.333334 q 0,0.455729 0.15625,0.742187 0.15625,0.273438 0.53385,0.429688 0.27344,0.130208 0.58594,0.195312 0.32552,0.0651 0.66406,0.09115 z" />
    <path
       id="path43"
       style=""
       d="m 187.92914,51.71688 v -5.16927 h -1.45834 q -1.36718,0 -2.26562,0.63802 -0.89844,0.638021 -0.89844,1.888021 0,1.289063 0.95052,1.966146 0.95052,0.677083 2.70834,0.677083 z m -3.93229,0.546875 v -0.07813 q -1.75782,-0.351562 -2.56511,-1.158854 -0.79427,-0.820312 -0.79427,-2.070312 0,-1.536459 1.38021,-2.434896 1.39323,-0.898438 3.51562,-0.898438 h 6.70573 v 0.859375 q -0.3776,0.02604 -0.66406,0.0651 -0.27344,0.03906 -0.50781,0.09115 -0.36458,0.104167 -0.54688,0.416667 -0.16927,0.299479 -0.16927,0.755208 v 8.333334 q 0,0.455729 0.15625,0.742187 0.15625,0.273438 0.53386,0.429688 0.27343,0.130208 0.58593,0.195312 0.32553,0.0651 0.66407,0.09115 v 0.859375 h -6.28907 v -0.859375 q 0.29948,-0.02604 0.61198,-0.05208 0.32552,-0.02604 0.5599,-0.104167 0.36458,-0.117188 0.5599,-0.403646 0.19531,-0.299479 0.19531,-0.768229 v -3.606771 h -0.54688 q -1.21093,0 -1.90104,0.46875 -0.67708,0.455729 -1.30208,1.731771 -0.45573,0.950521 -0.75521,1.757812 -0.28646,0.807292 -0.59896,1.835938 h -4.38802 v -0.859375 q 0.29948,-0.03906 0.5599,-0.07813 0.27343,-0.03906 0.58593,-0.09115 0.40365,-0.07813 0.72917,-0.3125 0.33854,-0.234375 0.58594,-0.768229 0.13021,-0.299479 0.35156,-0.794271 0.23438,-0.507812 0.54688,-1.132812 0.41666,-0.820313 0.92447,-1.341146 0.52084,-0.520834 1.27605,-0.820313 z" />
    <path
       id="path45"
       style=""
       d="m 200.66351,58.461672 h -6.47135 v -0.859375 q 0.29948,-0.02604 0.61198,-0.05208 0.32552,-0.02604 0.55989,-0.104167 0.36458,-0.117188 0.53386,-0.403646 0.18229,-0.299479 0.18229,-0.768229 v -8.333333 q 0,-0.429688 -0.18229,-0.716146 -0.1823,-0.299479 -0.54688,-0.455729 -0.33854,-0.15625 -0.70312,-0.208334 -0.36459,-0.05208 -0.625,-0.07813 V 45.62313 h 10.70312 v 4.257813 h -0.80729 q -0.0911,-0.286458 -0.32552,-0.833333 -0.23438,-0.546875 -0.53386,-1.028646 -0.29948,-0.520834 -0.66406,-0.898438 -0.35156,-0.390625 -0.74219,-0.442708 -0.36458,-0.03906 -0.88541,-0.05208 -0.52084,-0.02604 -0.88542,-0.02604 h -1.38021 v 9.544271 q 0,0.442708 0.18229,0.729166 0.1823,0.286459 0.54688,0.442709 0.28646,0.130208 0.67708,0.195312 0.40365,0.0651 0.75521,0.09115 z" />
    <path
       id="path47"
       style=""
       d="m 219.50466,58.461672 h -4.41407 q -0.32552,-1.067708 -0.58593,-1.822917 -0.26042,-0.768229 -0.76823,-1.770833 -0.61198,-1.223958 -1.35417,-1.770833 -0.72917,-0.546875 -1.88802,-0.546875 h -0.29948 v 3.59375 q 0,0.442708 0.18229,0.729166 0.18229,0.286459 0.54688,0.442709 0.27343,0.130208 0.58593,0.195312 0.32553,0.0651 0.66407,0.09115 v 0.859375 h -6.26302 v -0.859375 q 0.29948,-0.02604 0.61198,-0.05208 0.32552,-0.02604 0.55989,-0.104167 0.36458,-0.117188 0.53386,-0.403646 0.18229,-0.299479 0.18229,-0.768229 v -8.333333 q 0,-0.429688 -0.18229,-0.716146 -0.1823,-0.299479 -0.54688,-0.455729 -0.33854,-0.15625 -0.66406,-0.208334 -0.3125,-0.05208 -0.58594,-0.07813 V 45.62313 h 6.26302 v 0.859375 q -0.3776,0.02604 -0.66406,0.0651 -0.27344,0.03906 -0.50781,0.09115 -0.36459,0.104167 -0.54688,0.416667 -0.16927,0.299479 -0.16927,0.755208 v 3.763021 h 0.82031 q 0.42969,0 0.85938,-0.169271 0.42969,-0.16927 0.71614,-0.46875 0.36459,-0.390625 0.65105,-1.028645 0.28645,-0.638021 0.48177,-1.197917 0.20833,-0.585938 0.46875,-1.210938 0.27343,-0.625 0.54687,-0.963541 0.48177,-0.585938 1.02865,-0.820313 0.55989,-0.247396 1.22396,-0.247396 1.0026,0 1.47135,0.429688 0.46875,0.429687 0.46875,1.080729 0,0.559896 -0.3776,0.963542 -0.36459,0.403646 -0.97657,0.403646 -0.58593,0 -0.92448,-0.29948 -0.32552,-0.299479 -0.91145,-1.002604 -0.2474,0.221354 -0.48178,0.9375 -0.22135,0.703125 -0.42968,1.236979 -0.39063,1.054688 -0.80729,1.627605 -0.40365,0.572916 -0.95053,0.924479 v 0.16927 q 1.1849,0.234375 1.875,0.859375 0.70313,0.625 1.1849,1.575521 0.23438,0.455729 0.52083,1.119792 0.29948,0.651042 0.39063,0.859375 0.26042,0.585937 0.625,0.807292 0.36458,0.208333 0.67708,0.260416 0.29948,0.0651 0.59896,0.117188 0.3125,0.03906 0.5599,0.0651 z" />
    <path
       id="path49"
       style=""
       d="m 235.05153,58.461672 h -6.23698 v -0.859375 q 0.29948,-0.02604 0.61198,-0.05208 0.32552,-0.02604 0.5599,-0.104167 0.36458,-0.117188 0.55989,-0.403646 0.19532,-0.299479 0.19532,-0.768229 V 49.52938 l -5.91146,6.393229 v 0.221355 q 0,0.442708 0.18229,0.729166 0.18229,0.286459 0.54687,0.442709 0.28646,0.130208 0.59896,0.195312 0.32552,0.0651 0.67709,0.09115 v 0.859375 h -6.23698 v -0.859375 q 0.29948,-0.02604 0.61198,-0.05208 0.32552,-0.02604 0.55989,-0.104167 0.36458,-0.117188 0.53386,-0.403646 0.18229,-0.299479 0.18229,-0.768229 v -8.333333 q 0,-0.429688 -0.18229,-0.716146 -0.1823,-0.299479 -0.54688,-0.455729 -0.33854,-0.15625 -0.66406,-0.208334 -0.3125,-0.05208 -0.58594,-0.07813 V 45.62313 h 6.23698 v 0.859375 q -0.3776,0.02604 -0.66406,0.0651 -0.27344,0.03906 -0.50782,0.09115 -0.36458,0.104167 -0.54687,0.416667 -0.16927,0.299479 -0.16927,0.755208 v 6.640625 l 5.91146,-6.40625 q 0,-0.572916 -0.18229,-0.846354 -0.1823,-0.273437 -0.54688,-0.429687 -0.33854,-0.15625 -0.67708,-0.208334 -0.32552,-0.05208 -0.59896,-0.07813 V 45.62313 h 6.23698 v 0.859375 q -0.37761,0.02604 -0.66406,0.0651 -0.27344,0.03906 -0.50782,0.09115 -0.36458,0.104167 -0.54687,0.416667 -0.16927,0.299479 -0.16927,0.755208 v 8.333334 q 0,0.455729 0.15625,0.742187 0.15625,0.273438 0.53385,0.429688 0.27344,0.130208 0.58594,0.195312 0.32552,0.0651 0.66406,0.09115 z" />
    <path
       id="path51"
       style=""
       d="m 249.29632,58.461672 h -5.88542 v -0.859375 q 0.58594,-0.0651 0.98959,-0.130208 0.41666,-0.0651 0.41666,-0.338542 0,-0.117188 -0.1302,-0.364583 -0.13021,-0.247396 -0.26042,-0.45573 -0.32552,-0.507812 -0.89844,-1.354166 -0.55989,-0.859375 -1.38021,-2.044271 -0.67708,0.846354 -1.25,1.653646 -0.57291,0.794271 -1.19791,1.692708 -0.0911,0.130208 -0.19532,0.325521 -0.0911,0.195312 -0.0911,0.3125 0,0.286458 0.36458,0.481771 0.37761,0.182291 1.11979,0.247396 v 0.833333 h -4.7526 V 57.65438 q 0.88542,-0.260416 1.41927,-0.625 0.54687,-0.377604 1.0026,-0.924479 0.40365,-0.520833 1.1198,-1.432292 0.72916,-0.911458 1.875,-2.473958 -0.66407,-0.950521 -1.62761,-2.317708 -0.95052,-1.380208 -1.57552,-2.291667 -0.33854,-0.494791 -0.78125,-0.794271 -0.42969,-0.3125 -1.22396,-0.3125 V 45.62313 h 5.58594 v 0.859375 q -0.41667,0 -0.82031,0.05208 -0.40365,0.05208 -0.40365,0.234375 0,0.117187 0.0781,0.260416 0.0781,0.14323 0.19531,0.3125 0.28646,0.442709 0.88542,1.367188 0.61197,0.924479 1.3151,1.953125 0.45573,-0.625 1.05469,-1.458333 0.61198,-0.833334 1.11979,-1.588542 0.0521,-0.09115 0.10417,-0.221354 0.0521,-0.143229 0.0521,-0.273438 0,-0.273437 -0.45573,-0.429687 -0.44271,-0.169271 -0.84635,-0.234375 V 45.62313 h 4.73958 v 0.807292 q -1.00261,0.260417 -1.5625,0.625 -0.5599,0.351563 -0.95052,0.820313 -0.42969,0.533854 -1.02865,1.315104 -0.58594,0.78125 -1.65364,2.1875 1.18489,1.666666 1.92708,2.734375 0.74219,1.067708 1.4974,2.20052 0.3776,0.572917 0.83333,0.911459 0.46875,0.325521 1.27604,0.377604 z" />
    <path
       id="path53"
       style=""
       d="m 275.03851,51.977297 q 0,1.5625 -0.45573,2.825521 -0.4427,1.263021 -1.19791,2.096354 -0.78125,0.872396 -1.78386,1.328125 -0.98958,0.442708 -2.17448,0.442708 -0.63802,0 -1.19791,-0.169271 -0.5599,-0.15625 -0.97657,-0.364583 h -0.0651 v 3.645833 q 0,0.46875 0.18229,0.78125 0.18229,0.3125 0.5599,0.455729 0.3125,0.117188 0.84635,0.221355 0.53386,0.117187 0.8724,0.130208 v 0.872396 h -7.17448 v -0.872396 q 0.40364,-0.02604 0.84635,-0.0651 0.44271,-0.03906 0.74219,-0.130209 0.39063,-0.130208 0.54688,-0.455729 0.15625,-0.325521 0.15625,-0.768229 v -3.815104 h -0.0651 q -0.46875,0.221354 -0.95052,0.377604 -0.48177,0.15625 -1.22396,0.15625 -1.14583,0 -2.17448,-0.429687 -1.01562,-0.442709 -1.78385,-1.289063 -0.76823,-0.846354 -1.21094,-2.070312 -0.44271,-1.236979 -0.44271,-2.799479 0,-1.497396 0.42969,-2.747396 0.42969,-1.25 1.21094,-2.148438 0.72916,-0.846354 1.78385,-1.315104 1.06771,-0.46875 2.1875,-0.46875 0.625,0 1.17188,0.15625 0.54687,0.15625 1.0026,0.377604 h 0.0651 v -3.815104 q 0,-0.455729 -0.1823,-0.78125 -0.16927,-0.32552 -0.52083,-0.559895 -0.23437,-0.15625 -0.65104,-0.234375 -0.40365,-0.09115 -0.80729,-0.117188 v -0.846354 l 4.40104,-0.286458 0.18229,0.15625 v 6.484374 h 0.0651 q 0.33855,-0.182291 0.98959,-0.351562 0.65104,-0.182292 1.18489,-0.182292 1.1849,0 2.20052,0.442709 1.01563,0.429687 1.78386,1.289062 0.76823,0.846354 1.19792,2.070313 0.42968,1.223958 0.42968,2.773437 z m -2.65625,0 q 0,-1.458333 -0.23437,-2.513021 -0.23438,-1.054687 -0.67709,-1.731771 -0.45572,-0.690104 -1.0677,-0.989583 -0.59896,-0.3125 -1.35417,-0.3125 -0.66406,0 -1.06771,0.182292 -0.40364,0.182291 -0.79427,0.481771 v 9.882812 q 0.40365,0.3125 0.75521,0.494792 0.35156,0.16927 1.10677,0.16927 0.72917,0 1.35417,-0.32552 0.625,-0.325521 1.05468,-1.041667 0.48177,-0.78125 0.70313,-1.848958 0.22135,-1.067709 0.22135,-2.447917 z m -7.61718,5 v -9.882812 q -0.33855,-0.273438 -0.82032,-0.46875 -0.46875,-0.195313 -1.04166,-0.195313 -0.74219,0 -1.35417,0.325521 -0.59896,0.325521 -1.05469,1.028646 -0.44271,0.690104 -0.6901,1.770833 -0.23438,1.067708 -0.23438,2.526042 0,1.484375 0.23438,2.526041 0.24739,1.041667 0.6901,1.71875 0.42969,0.677084 1.04167,1.002604 0.625,0.3125 1.36719,0.3125 0.625,0 1.08073,-0.195312 0.45572,-0.195313 0.78125,-0.46875 z" />
    <path
       id="path55"
       style=""
       d="m 288.71039,47.146568 q 0.76822,0.911458 1.18489,2.122396 0.42969,1.197916 0.42969,2.747395 0,1.523438 -0.50781,2.786459 -0.50782,1.25 -1.34115,2.135416 -0.8724,0.898438 -1.9401,1.380209 -1.06771,0.48177 -2.26563,0.48177 -1.15885,0 -1.90104,-0.260416 -0.74219,-0.260417 -1.21094,-0.611979 h -0.10416 v 3.854166 q 0,0.46875 0.18229,0.78125 0.18229,0.3125 0.55989,0.455729 0.3125,0.117188 0.88542,0.221355 0.58594,0.117187 0.96354,0.130208 v 0.872396 h -7.17448 v -0.872396 q 0.40365,-0.02604 0.78125,-0.0651 0.37761,-0.03906 0.67709,-0.130209 0.39062,-0.130208 0.54687,-0.455729 0.15625,-0.325521 0.15625,-0.768229 V 48.292401 q 0,-0.390625 -0.19531,-0.755208 -0.19531,-0.364583 -0.50781,-0.585938 -0.23438,-0.15625 -0.65105,-0.234375 -0.41666,-0.09115 -0.80729,-0.117187 v -0.846354 l 4.375,-0.286459 0.18229,0.15625 v 1.445313 l 0.10417,0.02604 q 0.67708,-0.78125 1.67969,-1.302084 1.0026,-0.520833 1.99219,-0.520833 1.19791,0 2.1875,0.507812 1.0026,0.507813 1.71875,1.367188 z m -2.1224,9.231771 q 0.52083,-0.807292 0.76823,-1.875 0.24739,-1.067709 0.24739,-2.382813 0,-0.963541 -0.20833,-1.966146 -0.20833,-1.002604 -0.65104,-1.744791 -0.44271,-0.755209 -1.15885,-1.223959 -0.71615,-0.46875 -1.71875,-0.46875 -0.96355,0 -1.64063,0.429688 -0.67708,0.416667 -1.17187,1.002604 v 7.591146 q 0.11718,0.351562 0.3776,0.729166 0.27344,0.377605 0.59896,0.651042 0.40364,0.325521 0.87239,0.533854 0.46875,0.195313 1.14584,0.195313 0.72916,0 1.40625,-0.377604 0.67708,-0.390625 1.13281,-1.09375 z" />
    <path
       id="path57"
       style=""
       d="m 304.40049,58.227297 q -0.61198,0.221354 -1.08073,0.351562 -0.45573,0.143229 -1.04167,0.143229 -1.01562,0 -1.6276,-0.468749 -0.59896,-0.481771 -0.76823,-1.39323 h -0.0781 q -0.84635,0.9375 -1.82291,1.432292 -0.96355,0.494792 -2.33073,0.494792 -1.44532,0 -2.38282,-0.885417 -0.92447,-0.885417 -0.92447,-2.317708 0,-0.742188 0.20833,-1.328125 0.20833,-0.585938 0.625,-1.054688 0.32552,-0.390625 0.85937,-0.690104 0.53386,-0.3125 1.00261,-0.494792 0.58594,-0.221354 2.36979,-0.820312 1.79687,-0.598958 2.42187,-0.9375 v -1.289062 q 0,-0.169271 -0.0781,-0.651042 -0.0651,-0.481771 -0.29948,-0.911458 -0.26042,-0.481771 -0.74219,-0.833334 -0.46875,-0.364583 -1.34114,-0.364583 -0.59896,0 -1.11979,0.208333 -0.50782,0.195313 -0.71615,0.416667 0,0.260417 0.11719,0.768229 0.13021,0.507813 0.13021,0.9375 0,0.455729 -0.41667,0.833333 -0.40365,0.377605 -1.13281,0.377605 -0.65105,0 -0.96355,-0.45573 -0.29947,-0.46875 -0.29947,-1.041666 0,-0.598959 0.41666,-1.145834 0.42969,-0.546875 1.10677,-0.976562 0.58594,-0.364583 1.41927,-0.611979 0.83334,-0.260417 1.62761,-0.260417 1.09375,0 1.90104,0.15625 0.82031,0.143229 1.48437,0.638021 0.66407,0.481771 1.00261,1.315104 0.35156,0.820313 0.35156,2.122396 0,1.861979 -0.0391,3.307291 -0.0391,1.432292 -0.0391,3.138021 0,0.507813 0.16927,0.807292 0.18229,0.299479 0.54687,0.507812 0.19531,0.117188 0.61198,0.130209 0.42969,0.01302 0.8724,0.01302 z m -4.54427,-6.875 q -1.10677,0.325521 -1.94011,0.638021 -0.83333,0.3125 -1.54948,0.78125 -0.65104,0.442708 -1.02864,1.054687 -0.37761,0.598959 -0.37761,1.432292 0,1.080729 0.5599,1.588542 0.57292,0.507812 1.44531,0.507812 0.92448,0 1.62761,-0.442708 0.70312,-0.455729 1.18489,-1.067709 z" />
    <path
       id="path59"
       style=""
       d="m 320.06455,58.461672 h -6.27604 v -0.859375 q 0.29948,-0.02604 0.61198,-0.05208 0.32552,-0.02604 0.55989,-0.104167 0.36459,-0.117188 0.5599,-0.403646 0.19531,-0.299479 0.19531,-0.768229 V 52.18563 h -5.71614 v 3.958334 q 0,0.442708 0.18229,0.729166 0.18229,0.286459 0.54687,0.442709 0.27344,0.130208 0.58594,0.195312 0.32552,0.0651 0.66406,0.09115 v 0.859375 h -6.27604 v -0.859375 q 0.29948,-0.02604 0.61198,-0.05208 0.32552,-0.02604 0.5599,-0.104167 0.36458,-0.117188 0.53385,-0.403646 0.18229,-0.299479 0.18229,-0.768229 v -8.333333 q 0,-0.429688 -0.18229,-0.716146 -0.18229,-0.299479 -0.54688,-0.455729 -0.33854,-0.15625 -0.66406,-0.208334 -0.3125,-0.05208 -0.58594,-0.07813 V 45.62313 h 6.27605 v 0.859375 q -0.37761,0.02604 -0.66407,0.0651 -0.27343,0.03906 -0.50781,0.09115 -0.36458,0.104167 -0.54687,0.416667 -0.16927,0.299479 -0.16927,0.755208 v 3.307292 h 5.71614 v -3.177083 q 0,-0.429688 -0.18229,-0.716146 -0.18229,-0.299479 -0.54688,-0.455729 -0.33854,-0.15625 -0.66406,-0.208334 -0.3125,-0.05208 -0.58594,-0.07813 V 45.62313 h 6.27605 v 0.859375 q -0.37761,0.02604 -0.66407,0.0651 -0.27343,0.03906 -0.50781,0.09115 -0.36458,0.104167 -0.54687,0.416667 -0.16927,0.299479 -0.16927,0.755208 v 8.333334 q 0,0.455729 0.15625,0.742187 0.15625,0.273438 0.53385,0.429688 0.27344,0.130208 0.58594,0.195312 0.32552,0.0651 0.66406,0.09115 z" />
    <path
       id="path61"
       style=""
       d="m 333.13747,58.461672 h -11.1849 v -0.859375 q 0.29948,-0.02604 0.61198,-0.05208 0.32552,-0.02604 0.5599,-0.104167 0.36458,-0.117188 0.53385,-0.403646 0.18229,-0.299479 0.18229,-0.768229 v -8.333333 q 0,-0.429688 -0.15625,-0.716146 -0.15625,-0.286458 -0.53385,-0.455729 -0.33854,-0.15625 -0.66407,-0.208334 -0.3125,-0.05208 -0.58593,-0.07813 V 45.62313 h 6.27604 v 0.859375 q -0.37761,0.02604 -0.65104,0.0651 -0.27344,0.03906 -0.50782,0.09115 -0.36458,0.104167 -0.55989,0.416667 -0.19531,0.3125 -0.19531,0.755208 v 8.385417 q 0,0.703125 0.32552,0.976562 0.32552,0.260417 0.89843,0.273438 0.32553,0 0.75521,0.02604 0.42969,0.01302 0.97657,0.01302 0.41666,0 0.85937,-0.01302 0.45573,-0.01302 0.88542,-0.02604 0.54687,-0.01302 0.66406,-0.234375 0.13021,-0.234375 0.13021,-0.78125 v -8.489583 q 0,-0.429688 -0.18229,-0.716146 -0.1823,-0.299479 -0.54688,-0.455729 -0.33854,-0.15625 -0.65104,-0.208334 -0.29948,-0.05208 -0.58594,-0.07813 V 45.62313 h 6.27604 v 0.859375 q -0.3776,0.02604 -0.66406,0.0651 -0.27344,0.03906 -0.50781,0.09115 -0.36458,0.104167 -0.54688,0.416667 -0.16927,0.299479 -0.16927,0.755208 v 8.359375 q 0,0.690104 0.26042,0.989584 0.27344,0.286458 1.13281,0.286458 h 0.83334 v 4.817708 h -0.9375 q -0.26042,-1.302083 -0.92448,-2.473958 -0.65105,-1.171875 -1.40625,-1.328125 z" />
    <path
       id="path63"
       style=""
       d="m 337.04372,62.65438 q 0,-0.651042 0.35156,-1.067708 0.36458,-0.403646 0.89844,-0.403646 0.41666,0 0.71614,0.15625 0.29948,0.15625 0.53386,0.403646 0.19531,0.195312 0.41666,0.533854 0.22136,0.338542 0.35157,0.559896 0.65104,-0.351563 1.54947,-1.835938 0.91146,-1.484375 1.31511,-2.604166 -1.23698,-3.085938 -2.23958,-5.520834 -1.00261,-2.434895 -2.09636,-5.039062 -0.24739,-0.598958 -0.83333,-0.924479 -0.58594,-0.338542 -1.17188,-0.429688 V 45.62313 h 5.85938 v 0.911459 q -0.39063,0.01302 -0.9375,0.169271 -0.54688,0.143229 -0.54688,0.403645 0,0 0.0651,0.195313 0.0781,0.195312 0.13021,0.377604 0.49479,1.289063 1.51041,3.723958 1.01563,2.421875 1.57552,3.880209 0.58594,-1.39323 1.21094,-2.877605 0.63802,-1.497395 1.41927,-3.528645 0.0911,-0.247396 0.26042,-0.677084 0.16927,-0.442708 0.16927,-0.755208 0,-0.338542 -0.59896,-0.625 -0.58594,-0.299479 -1.11979,-0.364583 V 45.62313 h 4.76562 v 0.807292 q -0.39062,0.0651 -1.02864,0.455729 -0.63802,0.377604 -0.95052,1.080729 -1.54948,3.59375 -2.76042,6.549479 -1.19792,2.95573 -1.82292,4.348959 -0.82031,1.822916 -1.47135,2.838541 -0.63802,1.028646 -1.25,1.614584 -0.59896,0.546875 -1.09375,0.729166 -0.48177,0.195313 -1.0026,0.195313 -1.01563,0 -1.60157,-0.481771 -0.57291,-0.481771 -0.57291,-1.106771 z" />
    <path
       id="path65"
       style=""
       d="m 361.75726,54.750734 q 0,1.809896 -1.61459,2.929688 -1.60156,1.119791 -4.1927,1.119791 -1.15886,0 -2.10938,-0.273437 -0.9375,-0.260417 -1.57552,-0.716146 -0.61198,-0.455729 -0.9375,-1.028646 -0.32552,-0.572916 -0.32552,-1.25 0,-0.585937 0.3125,-0.963541 0.3125,-0.377604 0.97656,-0.377604 0.70313,0 1.06771,0.377604 0.36458,0.377604 0.36458,0.794271 0,0.377604 -0.11718,0.898437 -0.10417,0.520833 -0.1823,0.807292 0.33855,0.338541 0.98959,0.559896 0.65104,0.208333 1.52344,0.208333 1.35416,0 2.2526,-0.807292 0.89844,-0.807291 0.89844,-2.278646 0,-0.442708 -0.11719,-0.898437 -0.11719,-0.455729 -0.44271,-0.807292 -0.32552,-0.351562 -0.88542,-0.572916 -0.55989,-0.221355 -1.47135,-0.221355 h -1.36719 v -1.210937 h 1.11979 q 1.5625,0 2.1875,-0.651042 0.625,-0.664062 0.625,-2.04427 0,-0.963542 -0.59895,-1.523438 -0.59896,-0.572917 -1.65365,-0.572917 -0.76823,0 -1.36719,0.338542 -0.59896,0.325521 -1.10677,0.898438 -0.45573,0.520833 -0.80729,1.223958 -0.33854,0.690104 -0.5599,1.302083 h -0.87239 l 0.0781,-4.648437 h 0.8724 l 0.46875,0.716146 q 0.65104,-0.29948 1.5625,-0.559896 0.92448,-0.260417 2.07031,-0.260417 1.43229,0 2.33073,0.351563 0.89844,0.338541 1.39323,0.820312 0.48177,0.46875 0.65104,1.002604 0.16927,0.520834 0.16927,0.859375 0,0.442709 -0.14323,0.911459 -0.1302,0.455729 -0.50781,0.872395 -0.36458,0.416667 -1.01562,0.78125 -0.63802,0.351563 -1.61459,0.546875 v 0.169271 q 0.61198,0.02604 1.25,0.195313 0.65104,0.16927 1.19792,0.533854 0.58594,0.403646 0.89844,1.015625 0.32552,0.598958 0.32552,1.432291 z" />
    <path
       id="path67"
       style=""
       d="m 369.73903,58.800213 q -2.78646,0 -4.36198,-1.848958 -1.57552,-1.848958 -1.57552,-4.960937 0,-1.354167 0.41667,-2.526042 0.42968,-1.184896 1.23697,-2.148437 0.76823,-0.924479 1.92709,-1.484375 1.15885,-0.572917 2.52604,-0.572917 1.88802,0 3.07292,0.911458 1.18489,0.898438 1.18489,2.460938 0,0.651042 -0.3125,1.158854 -0.3125,0.494792 -1.02864,0.494792 -0.76823,0 -1.19792,-0.390625 -0.41667,-0.390625 -0.41667,-0.872396 0,-0.585938 0.15625,-1.197917 0.15625,-0.625 0.18229,-0.911458 -0.23437,-0.403646 -0.70312,-0.533854 -0.45573,-0.143229 -0.98958,-0.143229 -0.625,0 -1.19792,0.273437 -0.5599,0.260417 -1.09375,0.976563 -0.48177,0.651041 -0.78125,1.757812 -0.29948,1.106771 -0.29948,2.643229 0,2.421875 1.06771,3.958333 1.08073,1.523438 2.82552,1.523438 1.26302,0 2.10937,-0.611979 0.85938,-0.611979 1.58855,-1.835938 l 0.83333,0.546875 q -0.85938,1.536459 -2.26563,2.434896 -1.40625,0.898437 -2.90364,0.898437 z" />
    <path
       id="path69"
       style=""
       d="m 389.55674,58.461672 h -4.41406 q -0.32552,-1.067708 -0.58594,-1.822917 -0.26041,-0.768229 -0.76823,-1.770833 -0.61198,-1.223958 -1.35416,-1.770833 -0.72917,-0.546875 -1.88802,-0.546875 h -0.29948 v 3.59375 q 0,0.442708 0.18229,0.729166 0.18229,0.286459 0.54687,0.442709 0.27344,0.130208 0.58594,0.195312 0.32552,0.0651 0.66406,0.09115 v 0.859375 h -6.26302 v -0.859375 q 0.29948,-0.02604 0.61198,-0.05208 0.32552,-0.02604 0.5599,-0.104167 0.36458,-0.117188 0.53385,-0.403646 0.18229,-0.299479 0.18229,-0.768229 v -8.333333 q 0,-0.429688 -0.18229,-0.716146 -0.18229,-0.299479 -0.54687,-0.455729 -0.33855,-0.15625 -0.66407,-0.208334 -0.3125,-0.05208 -0.58593,-0.07813 V 45.62313 h 6.26302 v 0.859375 q -0.37761,0.02604 -0.66407,0.0651 -0.27343,0.03906 -0.50781,0.09115 -0.36458,0.104167 -0.54687,0.416667 -0.16927,0.299479 -0.16927,0.755208 v 3.763021 h 0.82031 q 0.42969,0 0.85937,-0.169271 0.42969,-0.16927 0.71615,-0.46875 0.36458,-0.390625 0.65104,-1.028645 0.28646,-0.638021 0.48177,-1.197917 0.20834,-0.585938 0.46875,-1.210938 0.27344,-0.625 0.54688,-0.963541 0.48177,-0.585938 1.02864,-0.820313 0.5599,-0.247396 1.22396,-0.247396 1.00261,0 1.47136,0.429688 0.46875,0.429687 0.46875,1.080729 0,0.559896 -0.37761,0.963542 -0.36458,0.403646 -0.97656,0.403646 -0.58594,0 -0.92448,-0.29948 -0.32552,-0.299479 -0.91146,-1.002604 -0.24739,0.221354 -0.48177,0.9375 -0.22135,0.703125 -0.42969,1.236979 -0.39062,1.054688 -0.80729,1.627605 -0.40364,0.572916 -0.95052,0.924479 v 0.16927 q 1.1849,0.234375 1.875,0.859375 0.70313,0.625 1.1849,1.575521 0.23437,0.455729 0.52083,1.119792 0.29948,0.651042 0.39062,0.859375 0.26042,0.585937 0.625,0.807292 0.36459,0.208333 0.67709,0.260416 0.29948,0.0651 0.59896,0.117188 0.3125,0.03906 0.55989,0.0651 z" />
    <path
       id="path71"
       style=""
       d="m 405.10362,58.461672 h -6.23698 v -0.859375 q 0.29948,-0.02604 0.61198,-0.05208 0.32552,-0.02604 0.55989,-0.104167 0.36459,-0.117188 0.5599,-0.403646 0.19531,-0.299479 0.19531,-0.768229 V 49.52938 l -5.91146,6.393229 v 0.221355 q 0,0.442708 0.18229,0.729166 0.1823,0.286459 0.54688,0.442709 0.28646,0.130208 0.59896,0.195312 0.32552,0.0651 0.67708,0.09115 v 0.859375 h -6.23698 v -0.859375 q 0.29948,-0.02604 0.61198,-0.05208 0.32552,-0.02604 0.5599,-0.104167 0.36458,-0.117188 0.53385,-0.403646 0.18229,-0.299479 0.18229,-0.768229 v -8.333333 q 0,-0.429688 -0.18229,-0.716146 -0.18229,-0.299479 -0.54687,-0.455729 -0.33855,-0.15625 -0.66407,-0.208334 -0.3125,-0.05208 -0.58593,-0.07813 V 45.62313 h 6.23698 v 0.859375 q -0.37761,0.02604 -0.66407,0.0651 -0.27343,0.03906 -0.50781,0.09115 -0.36458,0.104167 -0.54687,0.416667 -0.16928,0.299479 -0.16928,0.755208 v 6.640625 l 5.91146,-6.40625 q 0,-0.572916 -0.18229,-0.846354 -0.18229,-0.273437 -0.54687,-0.429687 -0.33855,-0.15625 -0.67709,-0.208334 -0.32552,-0.05208 -0.59896,-0.07813 V 45.62313 h 6.23698 v 0.859375 q -0.3776,0.02604 -0.66406,0.0651 -0.27344,0.03906 -0.50781,0.09115 -0.36458,0.104167 -0.54688,0.416667 -0.16927,0.299479 -0.16927,0.755208 v 8.333334 q 0,0.455729 0.15625,0.742187 0.15625,0.273438 0.53386,0.429688 0.27343,0.130208 0.58593,0.195312 0.32553,0.0651 0.66407,0.09115 z" />
    <path
       id="path73"
       style=""
       d="m 419.3484,58.461672 h -5.88542 v -0.859375 q 0.58594,-0.0651 0.98959,-0.130208 0.41666,-0.0651 0.41666,-0.338542 0,-0.117188 -0.13021,-0.364583 -0.1302,-0.247396 -0.26041,-0.45573 -0.32552,-0.507812 -0.89844,-1.354166 -0.5599,-0.859375 -1.38021,-2.044271 -0.67708,0.846354 -1.25,1.653646 -0.57292,0.794271 -1.19792,1.692708 -0.0911,0.130208 -0.19531,0.325521 -0.0911,0.195312 -0.0911,0.3125 0,0.286458 0.36458,0.481771 0.3776,0.182291 1.11979,0.247396 v 0.833333 h -4.7526 V 57.65438 q 0.88541,-0.260416 1.41927,-0.625 0.54687,-0.377604 1.0026,-0.924479 0.40365,-0.520833 1.11979,-1.432292 0.72917,-0.911458 1.875,-2.473958 -0.66406,-0.950521 -1.6276,-2.317708 -0.95052,-1.380208 -1.57552,-2.291667 -0.33854,-0.494791 -0.78125,-0.794271 -0.42969,-0.3125 -1.22396,-0.3125 V 45.62313 h 5.58594 v 0.859375 q -0.41667,0 -0.82031,0.05208 -0.40365,0.05208 -0.40365,0.234375 0,0.117187 0.0781,0.260416 0.0781,0.14323 0.19532,0.3125 0.28646,0.442709 0.88541,1.367188 0.61198,0.924479 1.31511,1.953125 0.45573,-0.625 1.05469,-1.458333 0.61197,-0.833334 1.11979,-1.588542 0.0521,-0.09115 0.10416,-0.221354 0.0521,-0.143229 0.0521,-0.273438 0,-0.273437 -0.45573,-0.429687 -0.44271,-0.169271 -0.84636,-0.234375 V 45.62313 h 4.73959 v 0.807292 q -1.00261,0.260417 -1.5625,0.625 -0.5599,0.351563 -0.95052,0.820313 -0.42969,0.533854 -1.02865,1.315104 -0.58594,0.78125 -1.65365,2.1875 1.1849,1.666666 1.92709,2.734375 0.74219,1.067708 1.49739,2.20052 0.37761,0.572917 0.83334,0.911459 0.46875,0.325521 1.27604,0.377604 z" />
    <path
       id="path75"
       style=""
       d="m 169.45258,89.438237 q 0.45572,-0.885417 0.66406,-1.888021 0.20833,-1.002604 0.20833,-2.304687 0,-1.041667 -0.16927,-2.044271 -0.16927,-1.015625 -0.57292,-1.809896 -0.41666,-0.807292 -1.0677,-1.263021 -0.63803,-0.46875 -1.65365,-0.46875 -1.05469,0 -1.75781,0.507813 -0.70313,0.507812 -1.14584,1.315104 -0.41666,0.794271 -0.59895,1.809896 -0.1823,1.002604 -0.1823,1.953125 0,1.510416 0.20834,2.552083 0.22135,1.041667 0.625,1.770833 0.42968,0.794271 1.09375,1.210938 0.66406,0.416666 1.65364,0.416666 0.89844,0 1.57552,-0.46875 0.69011,-0.48177 1.1198,-1.289062 z m -7.61719,-7.161458 0.10416,0.02604 q 0.625,-1.5625 1.91407,-2.591145 1.30208,-1.041667 3.04687,-1.041667 1.45834,0 2.61719,0.494792 1.15885,0.48177 1.9401,1.367187 0.76823,0.859375 1.15886,2.070313 0.40364,1.210937 0.40364,2.630208 0,1.393229 -0.42968,2.682291 -0.42969,1.289063 -1.25,2.213542 -0.85938,0.976563 -2.01823,1.523438 -1.15886,0.533854 -2.7474,0.533854 -1.19792,0 -2.31771,-0.481771 -1.10677,-0.481771 -1.92708,-1.458333 -0.84635,-0.989584 -1.34115,-2.565105 -0.48177,-1.57552 -0.48177,-3.697916 0,-2.044271 0.27344,-3.619792 0.28646,-1.588541 0.71615,-2.916666 0.58593,-1.835938 1.86198,-2.96875 1.27604,-1.145834 3.13802,-1.25 0.92448,-0.05208 1.95312,-0.104167 1.04167,-0.05208 1.62761,-0.104167 0.53385,-0.03906 1.05468,-0.299479 0.52084,-0.273437 1.04167,-0.9375 l 0.74219,0.533855 q -0.28646,0.390624 -0.78125,1.015624 -0.48177,0.625 -0.84636,1.002605 -0.29948,0.32552 -0.50781,0.533854 -0.20833,0.208333 -0.40365,0.299479 -0.20833,0.117187 -0.50781,0.169271 -0.29948,0.05208 -0.78125,0.07813 -0.55989,0.02604 -1.36719,0.09115 -0.79427,0.0651 -1.3802,0.07813 -0.89844,0.03906 -1.54948,0.416666 -0.65104,0.364584 -1.11979,0.885417 -0.46875,0.520833 -0.75521,1.158854 -0.28646,0.638021 -0.44271,1.119792 -0.2474,0.820312 -0.41667,1.588541 -0.15625,0.755209 -0.22135,1.523438 z" />
    <path
       id="path77"
       style=""
       d="m 173.91872,95.987716 q 0,-0.651042 0.35156,-1.067708 0.36459,-0.403646 0.89844,-0.403646 0.41667,0 0.71615,0.15625 0.29948,0.15625 0.53385,0.403646 0.19531,0.195312 0.41667,0.533854 0.22135,0.338541 0.35156,0.559896 0.65104,-0.351563 1.54948,-1.835938 0.91146,-1.484375 1.3151,-2.604166 -1.23698,-3.085938 -2.23958,-5.520834 -1.0026,-2.434895 -2.09635,-5.039062 -0.2474,-0.598958 -0.83334,-0.924479 -0.58593,-0.338542 -1.17187,-0.429688 v -0.859375 h 5.85937 v 0.911459 q -0.39062,0.01302 -0.9375,0.16927 -0.54687,0.14323 -0.54687,0.403646 0,0 0.0651,0.195313 0.0781,0.195312 0.13021,0.377604 0.49479,1.289062 1.51042,3.723958 1.01562,2.421875 1.57552,3.880208 0.58594,-1.393229 1.21094,-2.877604 0.63802,-1.497395 1.41927,-3.528645 0.0911,-0.247396 0.26041,-0.677084 0.16927,-0.442708 0.16927,-0.755208 0,-0.338542 -0.59895,-0.625 -0.58594,-0.299479 -1.1198,-0.364583 v -0.833334 h 4.76563 v 0.807292 q -0.39063,0.0651 -1.02865,0.455729 -0.63802,0.377604 -0.95052,1.080729 -1.54948,3.59375 -2.76041,6.549479 -1.19792,2.955729 -1.82292,4.348959 -0.82031,1.822916 -1.47136,2.838541 -0.63802,1.028646 -1.25,1.614583 -0.59895,0.546875 -1.09375,0.729167 -0.48177,0.195313 -1.0026,0.195313 -1.01562,0 -1.60156,-0.481771 -0.57292,-0.481771 -0.57292,-1.106771 z" />
    <path
       id="path79"
       style=""
       d="m 201.66612,91.795008 h -6.27605 v -0.859375 q 0.29948,-0.02604 0.61198,-0.05208 0.3125,-0.02604 0.54688,-0.104166 0.36458,-0.117188 0.55989,-0.403646 0.19532,-0.299479 0.19532,-0.768229 v -9.583333 h -3.56771 q 0,3.177083 -0.44271,5.46875 -0.44271,2.291666 -1.14583,3.736979 -0.69011,1.41927 -1.5625,2.122395 -0.8724,0.703125 -1.78386,0.703125 -0.9375,0 -1.41927,-0.48177 -0.48177,-0.494792 -0.48177,-1.145834 0,-0.46875 0.29948,-0.885416 0.3125,-0.416667 0.89844,-0.416667 0.54687,0 0.98958,0.3125 0.44271,0.3125 0.85938,0.872396 0.3125,-0.286459 0.72916,-1.054688 0.42969,-0.78125 0.78125,-1.927083 0.39063,-1.236979 0.63802,-2.565104 0.2474,-1.328125 0.2474,-3.046875 0,-0.677083 -0.16927,-1.002604 -0.16927,-0.325521 -0.53386,-0.507813 -0.24739,-0.130208 -0.80729,-0.234375 -0.55989,-0.117187 -0.91146,-0.15625 v -0.859375 h 11.69271 v 0.859375 q -0.3776,0.02604 -0.66406,0.0651 -0.27344,0.03906 -0.50781,0.09115 -0.36459,0.104167 -0.54688,0.416667 -0.16927,0.299479 -0.16927,0.755208 v 8.333333 q 0,0.45573 0.15625,0.742188 0.15625,0.273437 0.53386,0.429687 0.27343,0.130209 0.58593,0.195313 0.32552,0.0651 0.66407,0.09115 z" />
    <path
       id="path81"
       style=""
       d="m 216.05414,85.245529 q 0,1.354166 -0.42969,2.66927 -0.42969,1.302084 -1.22396,2.213542 -0.89844,1.041667 -2.08333,1.549479 -1.1849,0.507813 -2.65625,0.507813 -1.22396,0 -2.33073,-0.455729 -1.10677,-0.46875 -1.96615,-1.354167 -0.84635,-0.872396 -1.35417,-2.122396 -0.49479,-1.263021 -0.49479,-2.825521 0,-3.007812 1.74479,-4.921875 1.75782,-1.914062 4.59636,-1.914062 2.69531,0 4.4401,1.822917 1.75782,1.809895 1.75782,4.830729 z m -2.69532,0.02604 q 0,-0.976562 -0.19531,-2.057291 -0.19531,-1.09375 -0.58594,-1.848959 -0.41666,-0.807291 -1.09375,-1.289062 -0.67708,-0.494792 -1.65364,-0.494792 -1.00261,0 -1.71875,0.494792 -0.70313,0.494792 -1.14584,1.354167 -0.41666,0.79427 -0.58593,1.809895 -0.16927,1.015625 -0.16927,1.966146 0,1.25 0.19531,2.317708 0.20833,1.054688 0.65104,1.888021 0.44271,0.833334 1.10677,1.315104 0.67708,0.46875 1.66667,0.46875 1.6276,0 2.57812,-1.57552 0.95052,-1.575521 0.95052,-4.348959 z" />
    <path
       id="path83"
       style=""
       d="m 231.53591,91.795008 h -4.41407 q -0.32552,-1.067709 -0.58593,-1.822917 -0.26042,-0.768229 -0.76823,-1.770833 -0.61198,-1.223959 -1.35417,-1.770833 -0.72917,-0.546875 -1.88802,-0.546875 h -0.29948 v 3.593749 q 0,0.442709 0.18229,0.729167 0.18229,0.286458 0.54688,0.442708 0.27343,0.130209 0.58593,0.195313 0.32553,0.0651 0.66407,0.09115 v 0.859375 h -6.26302 v -0.859375 q 0.29948,-0.02604 0.61198,-0.05208 0.32552,-0.02604 0.55989,-0.104166 0.36458,-0.117188 0.53386,-0.403646 0.18229,-0.299479 0.18229,-0.768229 v -8.333333 q 0,-0.429688 -0.18229,-0.716146 -0.1823,-0.299479 -0.54688,-0.455729 -0.33854,-0.15625 -0.66406,-0.208334 -0.3125,-0.05208 -0.58594,-0.07813 v -0.859375 h 6.26302 v 0.859375 q -0.3776,0.02604 -0.66406,0.0651 -0.27344,0.03906 -0.50781,0.09115 -0.36459,0.104167 -0.54688,0.416667 -0.16927,0.299479 -0.16927,0.755208 v 3.763021 h 0.82031 q 0.42969,0 0.85938,-0.169271 0.42969,-0.169271 0.71614,-0.46875 0.36459,-0.390625 0.65105,-1.028646 0.28645,-0.63802 0.48177,-1.197916 0.20833,-0.585938 0.46875,-1.210938 0.27343,-0.625 0.54687,-0.963541 0.48177,-0.585938 1.02865,-0.820313 0.55989,-0.247396 1.22396,-0.247396 1.0026,0 1.47135,0.429688 0.46875,0.429687 0.46875,1.080729 0,0.559896 -0.3776,0.963542 -0.36459,0.403645 -0.97657,0.403645 -0.58593,0 -0.92448,-0.299479 -0.32552,-0.299479 -0.91145,-1.002604 -0.2474,0.221354 -0.48178,0.9375 -0.22135,0.703125 -0.42968,1.236979 -0.39063,1.054688 -0.80729,1.627604 -0.40365,0.572917 -0.95053,0.92448 v 0.16927 q 1.1849,0.234375 1.875,0.859375 0.70313,0.625 1.1849,1.575521 0.23438,0.455729 0.52083,1.119792 0.29948,0.651041 0.39063,0.859375 0.26042,0.585937 0.625,0.807291 0.36458,0.208334 0.67708,0.260417 0.29948,0.0651 0.59896,0.117188 0.3125,0.03906 0.5599,0.0651 z" />
    <path
       id="path85"
       style=""
       d="m 239.58278,90.74032 q 1.28907,-1.705729 2.23959,-4.479166 0.96354,-2.773438 0.96354,-4.544271 0,-0.677083 -0.16927,-1.002604 -0.16927,-0.325521 -0.53386,-0.507813 -0.24739,-0.130208 -0.80729,-0.234375 -0.55989,-0.117187 -0.91146,-0.15625 v -0.859375 h 11.69271 v 0.859375 q -0.3776,0.02604 -0.66406,0.0651 -0.27344,0.03906 -0.50781,0.09115 -0.36459,0.104167 -0.54688,0.416667 -0.16927,0.299479 -0.16927,0.755208 v 8.320313 q 0,0.690104 0.26042,0.989583 0.27344,0.286458 1.13281,0.286458 h 0.83333 v 4.817708 h -0.9375 q -0.27343,-1.315104 -0.92448,-2.486979 -0.65104,-1.171875 -1.40625,-1.328125 h -7.5651 q -0.70312,0.117188 -1.43229,1.302084 -0.71615,1.184895 -0.97656,2.51302 h -0.9375 V 90.74032 Z m 1.48438,0 h 5.61198 q 0.57291,0 0.82031,-0.195312 0.2474,-0.208334 0.2474,-0.625 v -9.895833 h -3.58073 q -0.0781,3.29427 -0.91146,6.041666 -0.82031,2.734375 -2.1875,4.674479 z" />
    <path
       id="path87"
       style=""
       d="m 266.17132,91.560633 q -0.61198,0.221354 -1.08073,0.351562 -0.45573,0.143229 -1.04166,0.143229 -1.01563,0 -1.62761,-0.46875 -0.59896,-0.48177 -0.76823,-1.393229 h -0.0781 q -0.84636,0.9375 -1.82292,1.432292 -0.96354,0.494792 -2.33073,0.494792 -1.44531,0 -2.38281,-0.885417 -0.92448,-0.885417 -0.92448,-2.317708 0,-0.742188 0.20833,-1.328125 0.20834,-0.585938 0.625,-1.054688 0.32553,-0.390625 0.85938,-0.690104 0.53385,-0.3125 1.0026,-0.494792 0.58594,-0.221354 2.3698,-0.820312 1.79687,-0.598958 2.42187,-0.9375 V 82.30282 q 0,-0.16927 -0.0781,-0.651041 -0.0651,-0.481771 -0.29948,-0.911459 -0.26042,-0.48177 -0.74219,-0.833333 -0.46875,-0.364583 -1.34115,-0.364583 -0.59896,0 -1.11979,0.208333 -0.50781,0.195313 -0.71614,0.416667 0,0.260416 0.11718,0.768229 0.13021,0.507812 0.13021,0.9375 0,0.455729 -0.41667,0.833333 -0.40364,0.377604 -1.13281,0.377604 -0.65104,0 -0.96354,-0.455729 -0.29948,-0.46875 -0.29948,-1.041666 0,-0.598959 0.41667,-1.145834 0.42969,-0.546875 1.10677,-0.976562 0.58594,-0.364583 1.41927,-0.611979 0.83333,-0.260417 1.6276,-0.260417 1.09375,0 1.90105,0.15625 0.82031,0.143229 1.48437,0.638021 0.66406,0.481771 1.0026,1.315104 0.35157,0.820312 0.35157,2.122396 0,1.861979 -0.0391,3.307291 -0.0391,1.432292 -0.0391,3.138021 0,0.507813 0.16927,0.807292 0.18229,0.299479 0.54688,0.507812 0.19531,0.117188 0.61198,0.130209 0.42968,0.01302 0.87239,0.01302 z m -4.54427,-6.875 q -1.10677,0.325521 -1.9401,0.638021 -0.83334,0.3125 -1.54948,0.78125 -0.65104,0.442708 -1.02865,1.054687 -0.3776,0.598958 -0.3776,1.432292 0,1.080729 0.55989,1.588541 0.57292,0.507813 1.44532,0.507813 0.92448,0 1.6276,-0.442708 0.70313,-0.45573 1.1849,-1.067709 z" />
    <path
       id="path89"
       style=""
       d="m 283.18955,88.018966 q 0,-1.145833 -0.84635,-1.809896 -0.84635,-0.664062 -2.42187,-0.664062 -0.69011,0 -1.09375,0.02604 -0.39063,0.02604 -0.61198,0.02604 v 4.244792 q 0,0.507812 0.42968,0.794271 0.42969,0.273437 1.31511,0.273437 0.9375,0 1.58854,-0.247396 0.65104,-0.247396 1.01562,-0.677083 0.35157,-0.416667 0.48178,-0.911458 0.14322,-0.494792 0.14322,-1.054688 z m 2.60417,0.195313 q 0,0.95052 -0.42969,1.640625 -0.42968,0.690104 -1.18489,1.132812 -0.69011,0.403646 -1.57552,0.611979 -0.88542,0.195313 -1.88802,0.195313 h -6.78386 v -0.859375 q 0.29948,-0.02604 0.61198,-0.05208 0.32552,-0.02604 0.5599,-0.104166 0.36458,-0.117188 0.53385,-0.403646 0.18229,-0.299479 0.18229,-0.768229 v -8.333333 q 0,-0.429688 -0.18229,-0.716146 -0.18229,-0.299479 -0.54687,-0.455729 -0.33855,-0.15625 -0.66407,-0.208334 -0.3125,-0.05208 -0.58593,-0.07813 v -0.859375 q 1.15885,0 2.86458,-0.01302 1.71875,-0.01302 3.58073,-0.01302 0.98958,0 1.83594,0.143229 0.85937,0.130208 1.52343,0.455729 0.69011,0.338542 1.06771,0.924479 0.37761,0.572917 0.37761,1.393229 0,1.289063 -0.8073,2.044271 -0.79427,0.742188 -2.09635,1.015625 v 0.143229 q 0.66406,0.09115 1.30208,0.299479 0.65105,0.208334 1.15886,0.572917 0.52083,0.377604 0.83333,0.9375 0.3125,0.546875 0.3125,1.354167 z m -3.28125,-6.263021 q 0,-0.651042 -0.24739,-1.054688 -0.23438,-0.416666 -0.63803,-0.651041 -0.40364,-0.234375 -0.91145,-0.3125 -0.4948,-0.09115 -1.02865,-0.09115 -0.33854,0 -0.75521,0.02604 -0.40364,0.01302 -0.71614,0.02604 v 4.6875 h 1.26302 q 0.89843,0 1.51041,-0.208333 0.61198,-0.208333 0.92448,-0.559896 0.32552,-0.338542 0.45573,-0.807292 0.14323,-0.46875 0.14323,-1.054687 z" />
    <path
       id="path91"
       style=""
       d="m 296.82236,87.784591 q 0,-1.09375 -0.79427,-1.861979 -0.79427,-0.78125 -2.31771,-0.78125 -0.63802,0 -1.05468,0.05208 -0.41667,0.03906 -0.63803,0.03906 v 4.583333 q 0,0.546875 0.39063,0.820313 0.40365,0.273437 1.44531,0.273437 0.88542,0 1.47136,-0.286458 0.59895,-0.286459 0.91145,-0.729167 0.33855,-0.481771 0.45573,-1.002604 0.13021,-0.520833 0.13021,-1.106771 z m 2.63021,0.0651 q 0,1.028646 -0.44271,1.783854 -0.44271,0.742188 -1.14583,1.223959 -0.70313,0.46875 -1.5625,0.703125 -0.85938,0.234375 -1.79688,0.234375 h -6.77083 v -0.859375 q 0.29948,-0.02604 0.61198,-0.05208 0.32552,-0.02604 0.5599,-0.104166 0.36458,-0.117188 0.53385,-0.403646 0.18229,-0.299479 0.18229,-0.768229 v -8.333333 q 0,-0.429688 -0.18229,-0.716146 -0.18229,-0.299479 -0.54688,-0.455729 -0.33854,-0.15625 -0.66406,-0.208334 -0.3125,-0.05208 -0.58594,-0.07813 v -0.859375 h 6.47136 v 0.859375 q -0.39063,0.02604 -0.76823,0.0651 -0.36458,0.02604 -0.61198,0.09115 -0.40365,0.117188 -0.5599,0.442709 -0.15625,0.32552 -0.15625,0.729166 v 3.059896 q 0.52084,-0.01302 0.88542,-0.02604 0.37761,-0.02604 1.08073,-0.02604 1.26302,0 2.21354,0.208333 0.96354,0.195313 1.66667,0.611979 0.75521,0.442709 1.17187,1.132813 0.41667,0.690104 0.41667,1.744791 z m 6.61458,3.945313 h -6.26302 v -0.859375 q 0.29948,-0.02604 0.59896,-0.05208 0.3125,-0.02604 0.54688,-0.104166 0.36458,-0.117188 0.55989,-0.403646 0.19531,-0.299479 0.19531,-0.768229 v -8.333333 q 0,-0.429688 -0.18229,-0.716146 -0.18229,-0.299479 -0.54687,-0.455729 -0.33854,-0.15625 -0.66406,-0.208334 -0.3125,-0.05208 -0.58594,-0.07813 v -0.859375 h 6.28906 v 0.859375 q -0.3776,0.02604 -0.66406,0.0651 -0.27344,0.03906 -0.50781,0.09115 -0.36459,0.104167 -0.54688,0.416667 -0.16927,0.299479 -0.16927,0.755208 v 8.333333 q 0,0.45573 0.15625,0.742188 0.15625,0.273437 0.53385,0.429687 0.27344,0.130209 0.58594,0.195313 0.32552,0.0651 0.66406,0.09115 z" />
    <path
       id="path93"
       style=""
       d="m 322.10882,91.795008 h -6.27605 v -0.859375 q 0.29948,-0.02604 0.61198,-0.05208 0.3125,-0.02604 0.54688,-0.104166 0.36458,-0.117188 0.55989,-0.403646 0.19532,-0.299479 0.19532,-0.768229 v -9.583333 h -5.4948 v 9.453124 q 0,0.442709 0.1823,0.729167 0.18229,0.286458 0.54687,0.442708 0.27344,0.130209 0.58594,0.195313 0.3125,0.0651 0.65104,0.09115 v 0.859375 h -6.27604 v -0.859375 q 0.29948,-0.02604 0.61198,-0.05208 0.32552,-0.02604 0.55989,-0.104166 0.36459,-0.117188 0.53386,-0.403646 0.18229,-0.299479 0.18229,-0.768229 v -8.333333 q 0,-0.429688 -0.18229,-0.716146 -0.18229,-0.299479 -0.54688,-0.455729 -0.33854,-0.15625 -0.66406,-0.208334 -0.3125,-0.05208 -0.58594,-0.07813 v -0.859375 h 14.20573 v 0.859375 q -0.3776,0.02604 -0.66406,0.0651 -0.27344,0.03906 -0.50781,0.09115 -0.36459,0.104167 -0.54688,0.416667 -0.16927,0.299479 -0.16927,0.755208 v 8.333333 q 0,0.45573 0.15625,0.742188 0.15625,0.273437 0.53386,0.429687 0.27343,0.130209 0.58593,0.195313 0.32552,0.0651 0.66407,0.09115 z" />
    <path
       id="path95"
       style=""
       d="m 335.36403,88.774174 q -0.80729,1.536459 -2.16146,2.447917 -1.35417,0.911458 -3.11198,0.911458 -1.54948,0 -2.72135,-0.546875 -1.15886,-0.546875 -1.91407,-1.484375 -0.7552,-0.9375 -1.13281,-2.1875 -0.36458,-1.25 -0.36458,-2.643229 0,-1.25 0.39062,-2.447916 0.40365,-1.210938 1.17188,-2.174479 0.74219,-0.92448 1.83594,-1.484375 1.10677,-0.572917 2.47395,-0.572917 1.40625,0 2.40886,0.442708 1.0026,0.442709 1.6276,1.210938 0.59896,0.729166 0.88542,1.71875 0.29948,0.989583 0.29948,2.148437 v 0.859375 h -8.50261 q 0,1.263021 0.23438,2.291667 0.2474,1.028646 0.76823,1.809896 0.50781,0.755208 1.32812,1.197916 0.82032,0.429688 1.95313,0.429688 1.15885,0 1.99219,-0.533854 0.84635,-0.546875 1.6276,-1.953125 z m -2.87761,-4.895833 q 0,-0.729166 -0.1302,-1.5625 -0.11719,-0.833333 -0.39063,-1.393229 -0.29948,-0.598958 -0.82031,-0.976562 -0.52083,-0.377605 -1.34115,-0.377605 -1.36718,0 -2.27864,1.145834 -0.89844,1.132812 -0.97657,3.164062 z" />
    <path
       id="path97"
       style=""
       d="m 351.35362,91.795008 h -6.23698 v -0.859375 q 0.29948,-0.02604 0.61198,-0.05208 0.32552,-0.02604 0.55989,-0.104166 0.36459,-0.117188 0.5599,-0.403646 0.19531,-0.299479 0.19531,-0.768229 v -6.744792 l -5.91146,6.393229 v 0.221354 q 0,0.442709 0.18229,0.729167 0.1823,0.286458 0.54688,0.442708 0.28646,0.130209 0.59896,0.195313 0.32552,0.0651 0.67708,0.09115 v 0.859375 h -6.23698 v -0.859375 q 0.29948,-0.02604 0.61198,-0.05208 0.32552,-0.02604 0.5599,-0.104166 0.36458,-0.117188 0.53385,-0.403646 0.18229,-0.299479 0.18229,-0.768229 v -8.333333 q 0,-0.429688 -0.18229,-0.716146 -0.18229,-0.299479 -0.54687,-0.455729 -0.33855,-0.15625 -0.66407,-0.208334 -0.3125,-0.05208 -0.58593,-0.07813 v -0.859375 h 6.23698 v 0.859375 q -0.37761,0.02604 -0.66407,0.0651 -0.27343,0.03906 -0.50781,0.09115 -0.36458,0.104167 -0.54687,0.416667 -0.16928,0.299479 -0.16928,0.755208 v 6.640625 l 5.91146,-6.40625 q 0,-0.572916 -0.18229,-0.846354 -0.18229,-0.273437 -0.54687,-0.429687 -0.33855,-0.15625 -0.67709,-0.208334 -0.32552,-0.05208 -0.59896,-0.07813 v -0.859375 h 6.23698 v 0.859375 q -0.3776,0.02604 -0.66406,0.0651 -0.27344,0.03906 -0.50781,0.09115 -0.36458,0.104167 -0.54688,0.416667 -0.16927,0.299479 -0.16927,0.755208 v 8.333333 q 0,0.45573 0.15625,0.742188 0.15625,0.273437 0.53386,0.429687 0.27343,0.130209 0.58593,0.195313 0.32553,0.0651 0.66407,0.09115 z m -2.86459,-18.111979 q 0,0.403646 -0.24739,0.963542 -0.23438,0.559895 -0.70313,0.976562 -0.54687,0.481771 -1.32812,0.78125 -0.76823,0.299479 -2.09636,0.299479 -1.25,0 -2.07031,-0.299479 -0.82031,-0.3125 -1.34114,-0.78125 -0.4948,-0.455729 -0.71615,-0.976562 -0.20833,-0.533855 -0.20833,-0.963542 0,-0.625 0.36458,-1.015625 0.3776,-0.403646 0.89844,-0.403646 0.48177,0 0.89843,0.286458 0.41667,0.286459 0.41667,0.9375 0,0.377605 -0.15625,0.846355 -0.15625,0.455729 -0.24739,0.664062 0.35156,0.429688 0.92447,0.638021 0.58594,0.208333 1.23698,0.208333 0.57292,0 1.21094,-0.195312 0.63802,-0.208334 0.98958,-0.651042 -0.10416,-0.247396 -0.26041,-0.703125 -0.14323,-0.46875 -0.14323,-0.807292 0,-0.651041 0.41667,-0.9375 0.41666,-0.286458 0.88541,-0.286458 0.53386,0 0.89844,0.403646 0.3776,0.390625 0.3776,1.015625 z" />
    <path
       id="path99"
       style=""
       d="m 373.09841,91.795008 h -6.28906 v -0.859375 q 0.29948,-0.02604 0.61198,-0.05208 0.32552,-0.02604 0.55989,-0.104166 0.36458,-0.117188 0.5599,-0.403646 0.19531,-0.299479 0.19531,-0.768229 V 86.19605 q -1.05469,0.442708 -1.86198,0.729166 -0.80729,0.273438 -1.9401,0.273438 -2.04427,0 -3.00782,-0.807292 -0.95052,-0.807292 -0.95052,-2.565104 v -2.552083 q 0,-0.442709 -0.18229,-0.729167 -0.18229,-0.286458 -0.54687,-0.442708 -0.33855,-0.15625 -0.66407,-0.208334 -0.3125,-0.05208 -0.58593,-0.07813 v -0.859375 h 6.27604 v 0.859375 q -0.37761,0.02604 -0.66406,0.0651 -0.27344,0.03906 -0.50782,0.09115 -0.36458,0.104167 -0.53385,0.416667 -0.16927,0.299479 -0.16927,0.755208 v 2.03125 q 0,1.393229 0.55989,2.005209 0.57292,0.611979 1.90105,0.611979 0.58593,0 1.32812,-0.117188 0.75521,-0.117187 1.54948,-0.390625 v -4.010416 q 0,-0.429688 -0.18229,-0.716146 -0.18229,-0.299479 -0.54688,-0.455729 -0.33854,-0.15625 -0.66406,-0.208334 -0.3125,-0.05208 -0.58594,-0.07813 v -0.859375 h 6.28907 v 0.859375 q -0.37761,0.02604 -0.66407,0.0651 -0.27343,0.03906 -0.50781,0.09115 -0.36458,0.104167 -0.54687,0.416667 -0.16928,0.299479 -0.16928,0.755208 v 8.333333 q 0,0.45573 0.15625,0.742188 0.15625,0.273437 0.53386,0.429687 0.27344,0.130209 0.58594,0.195313 0.32552,0.0651 0.66406,0.09115 z" />
    <path
       id="path101"
       style=""
       d="m 387.10882,91.560633 q -0.61198,0.221354 -1.08073,0.351562 -0.45573,0.143229 -1.04167,0.143229 -1.01563,0 -1.6276,-0.46875 -0.59896,-0.48177 -0.76823,-1.393229 h -0.0781 q -0.84635,0.9375 -1.82292,1.432292 -0.96354,0.494792 -2.33072,0.494792 -1.44532,0 -2.38282,-0.885417 -0.92448,-0.885417 -0.92448,-2.317708 0,-0.742188 0.20834,-1.328125 0.20833,-0.585938 0.625,-1.054688 0.32552,-0.390625 0.85937,-0.690104 0.53386,-0.3125 1.00261,-0.494792 0.58593,-0.221354 2.36979,-0.820312 1.79687,-0.598958 2.42187,-0.9375 V 82.30282 q 0,-0.16927 -0.0781,-0.651041 -0.0651,-0.481771 -0.29948,-0.911459 -0.26042,-0.48177 -0.74219,-0.833333 -0.46875,-0.364583 -1.34114,-0.364583 -0.59896,0 -1.1198,0.208333 -0.50781,0.195313 -0.71614,0.416667 0,0.260416 0.11719,0.768229 0.1302,0.507812 0.1302,0.9375 0,0.455729 -0.41666,0.833333 -0.40365,0.377604 -1.13282,0.377604 -0.65104,0 -0.96354,-0.455729 -0.29948,-0.46875 -0.29948,-1.041666 0,-0.598959 0.41667,-1.145834 0.42969,-0.546875 1.10677,-0.976562 0.58594,-0.364583 1.41927,-0.611979 0.83334,-0.260417 1.62761,-0.260417 1.09375,0 1.90104,0.15625 0.82031,0.143229 1.48437,0.638021 0.66407,0.481771 1.00261,1.315104 0.35156,0.820312 0.35156,2.122396 0,1.861979 -0.0391,3.307291 -0.0391,1.432292 -0.0391,3.138021 0,0.507813 0.16928,0.807292 0.18229,0.299479 0.54687,0.507812 0.19531,0.117188 0.61198,0.130209 0.42969,0.01302 0.8724,0.01302 z m -4.54428,-6.875 q -1.10677,0.325521 -1.9401,0.638021 -0.83333,0.3125 -1.54948,0.78125 -0.65104,0.442708 -1.02864,1.054687 -0.37761,0.598958 -0.37761,1.432292 0,1.080729 0.5599,1.588541 0.57291,0.507813 1.44531,0.507813 0.92448,0 1.6276,-0.442708 0.70313,-0.45573 1.1849,-1.067709 z" />
    <path
       id="path103"
       style=""
       d="m 404.08798,89.451258 q 0.40365,-0.820313 0.59896,-1.861979 0.19531,-1.054688 0.19531,-2.317709 0,-1.067708 -0.15625,-2.070312 -0.15625,-1.015625 -0.55989,-1.835938 -0.39063,-0.807291 -1.05469,-1.289062 -0.65104,-0.494792 -1.6276,-0.494792 -1.05469,0 -1.73178,0.520834 -0.67708,0.520833 -1.0677,1.328125 -0.39063,0.78125 -0.54688,1.783854 -0.15625,1.002604 -0.15625,1.992187 0,1.210938 0.18229,2.304688 0.19532,1.080729 0.61198,1.901041 0.41667,0.833334 1.06771,1.315104 0.65104,0.46875 1.64063,0.46875 0.88541,0 1.53645,-0.46875 0.66407,-0.48177 1.06771,-1.276041 z m -6.92708,0.950521 q -0.80729,-0.885417 -1.26302,-2.096355 -0.45573,-1.223958 -0.48177,-2.786458 h -2.72136 v 3.958333 q 0,0.442709 0.18229,0.729167 0.1823,0.286458 0.54688,0.442708 0.27344,0.130209 0.58594,0.195313 0.32552,0.0651 0.66406,0.09115 v 0.859375 h -6.26302 v -0.859375 q 0.29948,-0.02604 0.61198,-0.05208 0.32552,-0.02604 0.55989,-0.104166 0.36459,-0.117188 0.53386,-0.403646 0.18229,-0.299479 0.18229,-0.768229 v -8.333333 q 0,-0.429688 -0.18229,-0.716146 -0.18229,-0.299479 -0.54688,-0.455729 -0.33854,-0.15625 -0.66406,-0.208334 -0.3125,-0.05208 -0.58594,-0.07813 v -0.859375 h 6.26302 v 0.859375 q -0.3776,0.02604 -0.66406,0.0651 -0.27344,0.03906 -0.50781,0.09115 -0.36458,0.104167 -0.54688,0.416667 -0.16927,0.299479 -0.16927,0.755208 v 3.307292 h 2.76042 q 0.2474,-2.604167 1.84896,-4.231771 1.61458,-1.627604 4.20573,-1.627604 1.44531,0 2.5651,0.520833 1.13281,0.520834 1.88802,1.380209 0.79427,0.898437 1.19792,2.096354 0.41667,1.184896 0.41667,2.65625 0,1.380208 -0.41667,2.66927 -0.40365,1.289063 -1.1849,2.213542 -0.82031,0.963542 -1.95312,1.510417 -1.13281,0.546875 -2.70834,0.546875 -1.21093,0 -2.27864,-0.455729 -1.06771,-0.46875 -1.875,-1.328125 z" />
  </g>
</svg>
