<?xml version="1.0" encoding="UTF-8" standalone="no"?>
<svg
   xmlns:dc="http://purl.org/dc/elements/1.1/"
   xmlns:cc="http://creativecommons.org/ns#"
   xmlns:rdf="http://www.w3.org/1999/02/22-rdf-syntax-ns#"
   xmlns:svg="http://www.w3.org/2000/svg"
   xmlns="http://www.w3.org/2000/svg"
   id="svg2"
   version="1.1"
   viewBox="160.49424 6.7038572 227.42187 91.223963">
  <metadata
     id="metadata11">
    <rdf:RDF>
      <cc:Work
         rdf:about="">
        <dc:format>image/svg+xml</dc:format>
        <dc:type
           rdf:resource="http://purl.org/dc/dcmitype/StillImage" />
      </cc:Work>
    </rdf:RDF>
  </metadata>
  <defs
     id="defs9" />
  <g
     id="text4521"
     style="font-style:normal;font-variant:normal;font-weight:normal;font-stretch:normal;font-size:26.66666603px;line-height:125%;font-family:'Gill Sans', sans-serif;font-variant-ligatures:normal;font-variant-caps:normal;font-variant-numeric:normal;font-feature-settings:normal;text-align:left;letter-spacing:0px;word-spacing:0px;writing-mode:lr-tb;text-anchor:start;fill:#000000;fill-opacity:1;stroke:none;stroke-width:1px;stroke-linecap:butt;stroke-linejoin:miter;stroke-opacity:1"
     aria-label="Съешь же ещё этихмягких французскихбулок да выпей чаю">
    <path
       id="path13"
       style=""
       d="m 177.21299,23.774169 q -0.66406,0.351563 -1.38021,0.651042 -0.71614,0.286458 -1.52343,0.494792 -0.79427,0.208333 -1.71875,0.32552 -0.91146,0.117188 -1.96615,0.117188 -1.70573,0 -3.09896,-0.403646 -1.39323,-0.403646 -2.48698,-1.09375 -1.08073,-0.690104 -1.88802,-1.601562 -0.79427,-0.911459 -1.3151,-1.914063 -0.52084,-1.015625 -0.78125,-2.057291 -0.2474,-1.041667 -0.2474,-1.992188 0,-1.380208 0.33854,-2.630208 0.33855,-1.263021 0.96355,-2.317708 0.625,-1.067709 1.51041,-1.9270837 0.89844,-0.859375 2.00521,-1.4583333 1.10677,-0.6119791 2.40885,-0.9374999 1.30209,-0.3255209 2.7474,-0.3255209 0.70313,0 1.41927,0.091146 0.71615,0.078125 1.47136,0.2734375 0.76822,0.1822916 1.58854,0.4687499 0.83333,0.2734375 1.75781,0.6640625 v 2.799479 q -0.84635,-0.494792 -1.64063,-0.846354 -0.78125,-0.3645833 -1.54947,-0.5989583 -0.75521,-0.234375 -1.52344,-0.3385417 -0.75521,-0.1171875 -1.54948,-0.1171875 -1.5625,0 -2.89063,0.5338542 -1.32812,0.5208333 -2.30468,1.4453123 -0.96355,0.924479 -1.51042,2.200521 -0.54688,1.276042 -0.54688,2.786458 0,1.523438 0.53386,2.799479 0.53385,1.263021 1.49739,2.174479 0.97657,0.911459 2.33073,1.419271 1.35417,0.507813 2.9948,0.507813 1.5625,0 3.17708,-0.520834 1.61458,-0.520833 3.17708,-1.536458 z" />
    <path
       id="path15"
       style=""
       d="m 180.91091,25.128336 v -9.84375 h -2.47396 V 13.14917 h 4.85677 v 4.036458 h 2.7474 q 1.10677,0 1.90104,0.364583 0.80729,0.364583 1.3151,0.9375 0.52084,0.559896 0.76823,1.263021 0.2474,0.703125 0.2474,1.380208 0,0.703125 -0.2474,1.419271 -0.24739,0.703125 -0.76823,1.276042 -0.50781,0.572916 -1.3151,0.9375 -0.79427,0.364583 -1.90104,0.364583 z m 2.38281,-5.807292 v 3.671875 h 2.16146 q 1.13281,0 1.78385,-0.455729 0.66407,-0.455729 0.66407,-1.432291 0,-0.963542 -0.66407,-1.367188 -0.66406,-0.416667 -1.78385,-0.416667 z" />
    <path
       id="path17"
       style=""
       d="m 194.50466,19.503336 q 0.57291,3.59375 4.02344,3.59375 1.10677,0 2.12239,-0.377604 1.01563,-0.377604 2.07031,-1.054688 v 2.291667 q -0.54687,0.364583 -1.08073,0.625 -0.52083,0.260417 -1.09375,0.442708 -0.55989,0.169271 -1.19791,0.247396 -0.63802,0.09115 -1.40625,0.09115 -1.39323,0 -2.47396,-0.520833 -1.08073,-0.533855 -1.82292,-1.419271 -0.74218,-0.885417 -1.13281,-2.03125 -0.3776,-1.158854 -0.3776,-2.395833 0,-1.367188 0.40364,-2.48698 0.41667,-1.119791 1.15886,-1.914062 0.74218,-0.807292 1.77083,-1.236979 1.02865,-0.442708 2.26562,-0.442708 1.19792,0 2.14844,0.416666 0.96354,0.403646 1.64063,1.223959 0.67708,0.820312 1.04166,2.057291 0.36459,1.236979 0.36459,2.890625 z m 6.08073,-1.575521 q -0.0521,-1.367187 -0.79427,-2.161458 -0.74219,-0.794271 -2.00521,-0.794271 -1.38021,0 -2.1875,0.768229 -0.79427,0.768229 -1.04167,2.1875 z" />
    <path
       id="path19"
       style=""
       d="M 221.53591,13.14917 V 25.128336 H 205.5333 V 13.14917 h 2.3698 v 9.843749 h 4.42708 V 13.14917 h 2.38281 v 9.843749 h 4.45313 V 13.14917 Z" />
    <path
       id="path21"
       style=""
       d="M 224.9083,25.128336 V 13.14917 h 2.3698 v 4.036458 h 2.74739 q 1.11979,0 1.91406,0.364583 0.8073,0.364583 1.31511,0.9375 0.52083,0.559896 0.76823,1.263021 0.24739,0.703125 0.24739,1.380208 0,0.703125 -0.24739,1.419271 -0.2474,0.703125 -0.76823,1.276042 -0.50781,0.572916 -1.31511,0.9375 -0.79427,0.364583 -1.91406,0.364583 z m 2.3698,-5.807292 v 3.671875 h 2.10937 q 0.5599,0 1.01563,-0.104166 0.46875,-0.117188 0.79427,-0.351563 0.33854,-0.234375 0.52083,-0.585937 0.18229,-0.364584 0.18229,-0.846354 0,-0.481771 -0.18229,-0.820313 -0.18229,-0.338542 -0.52083,-0.546875 -0.32552,-0.221354 -0.79427,-0.3125 -0.45573,-0.104167 -1.01563,-0.104167 z" />
    <path
       id="path23"
       style=""
       d="m 249.72601,19.841878 q -0.78125,0 -1.45834,0.455729 -0.67708,0.455729 -1.23697,1.575521 l -1.62761,3.255208 h -2.60417 l 1.8099,-3.385417 q 0.36458,-0.664062 0.6901,-1.145833 0.32553,-0.481771 0.65105,-0.807292 0.33854,-0.338541 0.70312,-0.546875 0.36458,-0.221354 0.80729,-0.351562 -0.3125,-0.117188 -0.57291,-0.247396 -0.26042,-0.130208 -0.4948,-0.3125 -0.23437,-0.195312 -0.45572,-0.46875 -0.22136,-0.273437 -0.44271,-0.677083 l -0.625,-1.09375 q -0.19532,-0.364583 -0.42969,-0.585938 -0.23438,-0.221354 -0.66406,-0.221354 h -0.52084 V 13.14917 h 0.4948 q 0.52083,0 0.92447,0.09115 0.40365,0.07813 0.74219,0.286459 0.33854,0.208333 0.625,0.572916 0.29948,0.351563 0.59896,0.898438 l 0.71615,1.328125 q 0.4427,0.820312 1.0026,1.236979 0.5599,0.416667 1.34115,0.416667 h 0.18229 V 13.14917 h 2.38281 v 4.830729 h 0.18229 q 0.78125,0 1.34115,-0.416667 0.55989,-0.416667 1.0026,-1.236979 l 0.72917,-1.328125 q 0.29948,-0.546875 0.58594,-0.898438 0.29948,-0.364583 0.625,-0.572916 0.33854,-0.208334 0.74218,-0.286459 0.40365,-0.09115 0.92448,-0.09115 h 0.50782 v 2.135416 h -0.53386 q -0.41667,0 -0.66406,0.221354 -0.23438,0.221355 -0.42969,0.585938 l -0.61198,1.09375 q -0.22135,0.403646 -0.44271,0.677083 -0.22135,0.273438 -0.45573,0.46875 -0.23437,0.182292 -0.50781,0.3125 -0.26041,0.130208 -0.57291,0.247396 0.4427,0.130208 0.80729,0.338542 0.36458,0.208333 0.70312,0.546875 0.33854,0.338541 0.66406,0.820312 0.32553,0.481771 0.67709,1.145833 l 1.82291,3.385417 h -2.61718 l -1.62761,-3.255208 q -0.55989,-1.119792 -1.23698,-1.575521 -0.67708,-0.455729 -1.45833,-0.455729 h -0.15625 v 5.286458 h -2.38281 v -5.286458 z" />
    <path
       id="path25"
       style=""
       d="m 263.20257,19.503336 q 0.57292,3.59375 4.02344,3.59375 1.10677,0 2.12239,-0.377604 1.01563,-0.377604 2.07032,-1.054688 v 2.291667 q -0.54688,0.364583 -1.08073,0.625 -0.52084,0.260417 -1.09375,0.442708 -0.5599,0.169271 -1.19792,0.247396 -0.63802,0.09115 -1.40625,0.09115 -1.39323,0 -2.47396,-0.520833 -1.08073,-0.533855 -1.82291,-1.419271 -0.74219,-0.885417 -1.13282,-2.03125 -0.3776,-1.158854 -0.3776,-2.395833 0,-1.367188 0.40364,-2.48698 0.41667,-1.119791 1.15886,-1.914062 0.74219,-0.807292 1.77083,-1.236979 1.02865,-0.442708 2.26563,-0.442708 1.19791,0 2.14843,0.416666 0.96355,0.403646 1.64063,1.223959 0.67708,0.820312 1.04167,2.057291 0.36458,1.236979 0.36458,2.890625 z m 6.08073,-1.575521 q -0.0521,-1.367187 -0.79427,-2.161458 -0.74219,-0.794271 -2.00521,-0.794271 -1.38021,0 -2.1875,0.768229 -0.79427,0.768229 -1.04167,2.1875 z" />
    <path
       id="path27"
       style=""
       d="m 283.35882,19.503336 q 0.57292,3.59375 4.02344,3.59375 1.10677,0 2.12239,-0.377604 1.01563,-0.377604 2.07032,-1.054688 v 2.291667 q -0.54688,0.364583 -1.08073,0.625 -0.52084,0.260417 -1.09375,0.442708 -0.5599,0.169271 -1.19792,0.247396 -0.63802,0.09115 -1.40625,0.09115 -1.39323,0 -2.47396,-0.520833 -1.08073,-0.533855 -1.82291,-1.419271 -0.74219,-0.885417 -1.13282,-2.03125 -0.3776,-1.158854 -0.3776,-2.395833 0,-1.367188 0.40364,-2.48698 0.41667,-1.119791 1.15886,-1.914062 0.74219,-0.807292 1.77083,-1.236979 1.02865,-0.442708 2.26563,-0.442708 1.19791,0 2.14843,0.416666 0.96355,0.403646 1.64063,1.223959 0.67708,0.820312 1.04167,2.057291 0.36458,1.236979 0.36458,2.890625 z m 6.08073,-1.575521 q -0.0521,-1.367187 -0.79427,-2.161458 -0.74219,-0.794271 -2.00521,-0.794271 -1.38021,0 -2.1875,0.768229 -0.79427,0.768229 -1.04167,2.1875 z" />
    <path
       id="path29"
       style=""
       d="M 294.38747,25.128336 V 13.14917 h 2.36979 v 9.843749 h 4.42709 V 13.14917 h 2.38281 v 9.843749 h 4.45312 V 13.14917 h 2.3698 v 9.843749 h 2.13541 v 4.830729 h -2.34375 v -2.695312 z" />
    <path
       id="path31"
       style=""
       d="m 316.11924,19.503336 q 0.57292,3.59375 4.02344,3.59375 1.10677,0 2.1224,-0.377604 1.01562,-0.377604 2.07031,-1.054688 v 2.291667 q -0.54688,0.364583 -1.08073,0.625 -0.52083,0.260417 -1.09375,0.442708 -0.5599,0.169271 -1.19792,0.247396 -0.63802,0.09115 -1.40625,0.09115 -1.39323,0 -2.47396,-0.520833 -1.08073,-0.533855 -1.82291,-1.419271 -0.74219,-0.885417 -1.13282,-2.03125 -0.3776,-1.158854 -0.3776,-2.395833 0,-1.367188 0.40365,-2.48698 0.41666,-1.119791 1.15885,-1.914062 0.74219,-0.807292 1.77083,-1.236979 1.02865,-0.442708 2.26563,-0.442708 1.19792,0 2.14844,0.416666 0.96354,0.403646 1.64062,1.223959 0.67708,0.820312 1.04167,2.057291 0.36458,1.236979 0.36458,2.890625 z m 6.08073,-1.575521 q -0.0521,-1.367187 -0.79427,-2.161458 -0.74219,-0.794271 -2.00521,-0.794271 -1.38021,0 -2.1875,0.768229 -0.79427,0.768229 -1.04166,2.1875 z M 316.6531,8.3835447 q 0.52083,0 0.87239,0.3515625 0.35156,0.3515625 0.35156,0.8723958 0,0.520833 -0.35156,0.885417 -0.35156,0.364583 -0.87239,0.364583 -0.52084,0 -0.88542,-0.364583 -0.36458,-0.364584 -0.36458,-0.885417 0,-0.5208333 0.36458,-0.8723958 0.36458,-0.3515625 0.88542,-0.3515625 z m 4.96093,0 q 0.52084,0 0.8724,0.3515625 0.35156,0.3515625 0.35156,0.8723958 0,0.520833 -0.35156,0.885417 -0.35156,0.364583 -0.8724,0.364583 -0.52083,0 -0.88541,-0.364583 -0.36459,-0.364584 -0.36459,-0.885417 0,-0.5208333 0.36459,-0.8723958 0.36458,-0.3515625 0.88541,-0.3515625 z" />
    <path
       id="path33"
       style=""
       d="m 336.19737,20.19344 v -2.135416 h 4.93489 q -0.15625,-0.76823 -0.49479,-1.328125 -0.32552,-0.559896 -0.80729,-0.911459 -0.46875,-0.364583 -1.06771,-0.533854 -0.59896,-0.182291 -1.28906,-0.182291 -0.39063,0 -0.76823,0.05208 -0.36458,0.05208 -0.76823,0.195312 -0.39062,0.130209 -0.83333,0.364584 -0.42969,0.221354 -0.9375,0.559895 v -2.526041 q 0.42968,-0.195313 0.83333,-0.351563 0.40365,-0.15625 0.82031,-0.260416 0.41667,-0.104167 0.85938,-0.15625 0.44271,-0.0651 0.96354,-0.0651 1.35417,0 2.44792,0.455729 1.09375,0.455729 1.86198,1.302083 0.76822,0.833333 1.18489,2.03125 0.41667,1.184896 0.41667,2.669271 0,1.315104 -0.45573,2.421875 -0.44271,1.09375 -1.25,1.88802 -0.79427,0.794271 -1.91406,1.23698 -1.1198,0.442708 -2.46094,0.442708 -0.46875,0 -0.97656,-0.05208 -0.4948,-0.05208 -0.97657,-0.15625 -0.46875,-0.09115 -0.89843,-0.208334 -0.41667,-0.130208 -0.71615,-0.273437 v -2.34375 q 0.89844,0.403646 1.64063,0.598958 0.7552,0.195313 1.53645,0.195313 0.76823,0 1.44532,-0.15625 0.67708,-0.169271 1.21093,-0.520834 0.53386,-0.364583 0.89844,-0.911458 0.36458,-0.559896 0.52083,-1.341146 z" />
    <path
       id="path35"
       style=""
       d="m 351.54892,15.284586 v 9.84375 h -2.38281 v -9.84375 h -4.20573 V 13.14917 h 10.79427 v 2.135416 z" />
    <path
       id="path37"
       style=""
       d="m 366.22341,17.446044 -6.90104,7.916667 h -1.34115 V 13.14917 h 2.36979 v 8.164062 l 6.96615,-8.164062 h 1.27604 v 11.979166 h -2.36979 z" />
    <path
       id="path39"
       style=""
       d="m 383.24163,13.14917 -4.9349,5.898437 5.28646,6.080729 h -3.03385 l -3.76302,-4.296875 -3.55469,4.296875 h -2.98177 l 5.03906,-6.080729 -5.03906,-5.898437 h 2.98177 l 3.55469,4.114583 3.41145,-4.114583 z" />
    <path
       id="path41"
       style=""
       d="m 163.93174,46.482505 3.71094,7.395834 3.51562,-7.395834 h 2.39584 l 0.85937,11.979167 h -2.23958 l -0.75521,-8.164062 -3.77604,8.164062 -4.0625,-8.242187 -0.61198,8.242187 h -2.23958 l 0.80729,-11.979167 z" />
    <path
       id="path43"
       style=""
       d="m 177.70778,55.896568 q 0.4948,-0.742188 1.04167,-1.328125 0.54688,-0.585938 1.25,-0.911459 -0.59896,-0.221354 -1.08073,-0.520833 -0.48177,-0.3125 -0.83333,-0.729167 -0.33854,-0.416666 -0.52084,-0.95052 -0.18229,-0.546875 -0.18229,-1.236979 0,-0.859375 0.40365,-1.54948 0.41667,-0.690104 1.08073,-1.171875 0.67708,-0.494791 1.53646,-0.755208 0.85937,-0.260417 1.75781,-0.260417 h 4.45312 v 11.979167 h -2.36979 v -4.375 h -0.67708 q -0.46875,0 -0.91146,0.09115 -0.42969,0.09115 -0.83333,0.3125 -0.39063,0.208333 -0.76823,0.585937 -0.37761,0.364584 -0.72917,0.911459 l -1.57552,2.473958 h -2.79948 z m 6.53646,-3.671875 v -3.606771 h -2.08333 q -1.14583,0 -1.74479,0.442708 -0.59896,0.429688 -0.59896,1.289063 0,0.325521 0.11719,0.664062 0.1302,0.325521 0.40364,0.598959 0.28646,0.273437 0.72917,0.442708 0.45573,0.169271 1.09375,0.169271 z" />
    <path
       id="path45"
       style=""
       d="m 192.33018,48.617922 v 9.84375 h -2.36979 V 46.482505 h 7.63021 v 2.135417 z" />
    <path
       id="path47"
       style=""
       d="m 202.18695,51.313234 q 0.78125,0 1.34115,-0.416666 0.55989,-0.416667 1.0026,-1.236979 l 0.71615,-1.328125 q 0.29947,-0.546875 0.58593,-0.898438 0.29948,-0.364583 0.625,-0.572916 0.33854,-0.208334 0.74219,-0.286459 0.40365,-0.09115 0.92448,-0.09115 h 0.50781 v 2.135417 h -0.53385 q -0.41667,0 -0.65104,0.221354 -0.23438,0.221354 -0.44271,0.585938 l -0.61198,1.09375 q -0.22136,0.403646 -0.44271,0.677083 -0.22135,0.273437 -0.45573,0.46875 -0.23437,0.182292 -0.49479,0.3125 -0.26042,0.130208 -0.57292,0.247396 0.44271,0.130208 0.80729,0.351562 0.36459,0.208334 0.69011,0.546875 0.33854,0.325521 0.66406,0.807292 0.32552,0.481771 0.69011,1.145833 l 1.80989,3.385417 h -2.60417 l -1.6276,-3.255208 q -0.57292,-1.119792 -1.28906,-1.575521 -0.71615,-0.455729 -1.40625,-0.455729 h -0.29948 v 5.286458 h -2.36979 V 46.482505 h 2.36979 v 4.830729 z" />
    <path
       id="path49"
       style=""
       d="m 219.45257,50.77938 -6.90104,7.916667 h -1.34114 V 46.482505 h 2.36979 v 8.164063 l 6.96614,-8.164063 h 1.27604 v 11.979167 h -2.36979 z" />
    <path
       id="path51"
       style=""
       d="m 236.4708,46.482505 -4.93489,5.898438 5.28646,6.080729 h -3.03386 l -3.76302,-4.296875 -3.55469,4.296875 h -2.98177 l 5.03907,-6.080729 -5.03907,-5.898438 h 2.98177 l 3.55469,4.114584 3.41146,-4.114584 z" />
    <path
       id="path53"
       style=""
       d="m 251.74424,58.461672 q -1.36719,0 -2.5651,-0.46875 -1.1849,-0.46875 -2.08334,-1.289063 -0.88541,-0.833333 -1.40625,-1.940104 -0.50781,-1.119791 -0.50781,-2.408854 0,-1.289062 0.52084,-2.369791 0.52083,-1.08073 1.41927,-1.848959 0.89843,-0.78125 2.08333,-1.210937 1.19792,-0.442709 2.53906,-0.442709 v -6.210937 h 2.36979 v 6.210937 q 1.34115,0 2.52605,0.442709 1.19791,0.429687 2.09635,1.210937 0.89844,0.768229 1.41927,1.848959 0.52083,1.080729 0.52083,2.369791 0,1.289063 -0.52083,2.408854 -0.50781,1.106771 -1.40625,1.940104 -0.88542,0.820313 -2.08333,1.289063 -1.19792,0.46875 -2.55209,0.46875 v 6.158854 h -2.36979 z m 2.36979,-2.057292 q 1.01563,0 1.78386,-0.325521 0.76823,-0.32552 1.28906,-0.872395 0.52083,-0.559896 0.78125,-1.289063 0.27344,-0.729167 0.27344,-1.536458 0,-0.716146 -0.27344,-1.40625 -0.26042,-0.690104 -0.78125,-1.223958 -0.52083,-0.546875 -1.28906,-0.872396 -0.76823,-0.338542 -1.78386,-0.338542 z m -2.36979,-7.864583 q -1.01562,0 -1.78385,0.338542 -0.76823,0.325521 -1.30209,0.872396 -0.52083,0.533854 -0.79427,1.223958 -0.26041,0.690104 -0.26041,1.40625 0,0.807291 0.26041,1.536458 0.27344,0.729167 0.79427,1.289063 0.53386,0.546875 1.30209,0.872395 0.76823,0.325521 1.78385,0.325521 z" />
    <path
       id="path55"
       style=""
       d="m 267.46038,46.482505 q 3.26823,0 5,1.5625 1.74479,1.5625 1.74479,4.518229 0,1.354167 -0.45572,2.48698 -0.44271,1.119791 -1.26303,1.940104 -0.80729,0.807291 -1.92708,1.263021 -1.10677,0.442708 -2.43489,0.442708 -0.58594,0 -1.14584,-0.130209 -0.55989,-0.117187 -1.26302,-0.403645 v 6.432291 H 263.3458 V 46.482505 Z m -1.74479,2.135417 v 7.421875 q 1.10677,0.533854 2.23958,0.533854 0.83334,0 1.52344,-0.299479 0.70313,-0.3125 1.21094,-0.846354 0.50781,-0.533854 0.79427,-1.276042 0.28646,-0.742187 0.28646,-1.614583 0,-0.924479 -0.29948,-1.653646 -0.29948,-0.729167 -0.83333,-1.223958 -0.52084,-0.507813 -1.23698,-0.768229 -0.70313,-0.273438 -1.52344,-0.273438 z" />
    <path
       id="path57"
       style=""
       d="m 282.03069,51.23511 v -0.638021 q 0,-1.132813 -0.53385,-1.614584 -0.53386,-0.494791 -1.62761,-0.494791 -0.97656,0 -1.95312,0.481771 -0.96354,0.46875 -1.82292,1.497395 v -2.591145 q 1.39323,-1.627605 3.97136,-1.627605 0.91146,0 1.70573,0.234375 0.79427,0.234375 1.3802,0.716146 0.58594,0.481771 0.92448,1.236979 0.33855,0.742188 0.33855,1.757813 v 6.158854 q 0,0.338542 0.10416,0.481771 0.11719,0.130208 0.33854,0.130208 0.1823,0 0.52084,-0.169271 0.33854,-0.169271 0.74218,-0.46875 v 1.445313 q -0.40364,0.273437 -0.71614,0.455729 -0.29948,0.169271 -0.5599,0.273437 -0.26041,0.104167 -0.50781,0.143229 -0.23437,0.05208 -0.50781,0.05208 -0.78125,0 -1.22396,-0.273438 -0.42969,-0.286458 -0.59896,-0.95052 -0.78125,0.625 -1.58854,0.924479 -0.80729,0.299479 -1.6276,0.299479 -0.66407,0 -1.21094,-0.234375 -0.53386,-0.247396 -0.92448,-0.651042 -0.39063,-0.403646 -0.59896,-0.924479 -0.20833,-0.533854 -0.20833,-1.119792 0,-0.820312 0.29948,-1.393229 0.29948,-0.572916 0.83333,-0.989583 0.53385,-0.429688 1.28906,-0.755208 0.75521,-0.325521 1.66667,-0.651042 z m 0,1.302083 q -0.75521,0.260416 -1.44531,0.533854 -0.67708,0.273437 -1.19792,0.598958 -0.52083,0.325521 -0.83333,0.729167 -0.29948,0.403646 -0.29948,0.9375 0,0.364583 0.13021,0.677083 0.13021,0.3125 0.35156,0.533854 0.22136,0.221355 0.53386,0.351563 0.32552,0.117187 0.6901,0.117187 0.5599,0 1.06771,-0.260416 0.52083,-0.260417 1.0026,-0.716146 z" />
    <path
       id="path59"
       style=""
       d="m 298.90569,46.482505 v 11.979167 h -2.36979 v -5.117188 h -5.87239 v 5.117188 h -2.3698 V 46.482505 h 2.3698 v 4.726563 h 5.87239 v -4.726563 z" />
    <path
       id="path61"
       style=""
       d="M 302.30413,58.461672 V 46.482505 h 2.36979 v 9.84375 h 5.8724 v -9.84375 h 2.36979 v 9.84375 h 2.13541 v 4.830729 h -2.34375 v -2.695312 z" />
    <path
       id="path63"
       style=""
       d="m 326.88747,46.482505 -8.47657,18.111979 h -2.64323 l 4.07553,-8.697916 -4.63542,-9.414063 h 2.69531 l 3.22917,6.757813 3.08594,-6.757813 z" />
    <path
       id="path65"
       style=""
       d="m 330.02549,53.175214 v -1.835938 q 1.01563,0 1.75781,-0.05208 0.75521,-0.0651 1.25,-0.234375 0.4948,-0.182292 0.74219,-0.494792 0.2474,-0.3125 0.2474,-0.820312 0,-0.664063 -0.66406,-1.002604 -0.65105,-0.351563 -1.875,-0.351563 -1.10678,0 -2.0573,0.325521 -0.95052,0.3125 -1.61458,0.716146 v -2.03125 q 0.3125,-0.234375 0.79427,-0.442709 0.49479,-0.208333 1.04167,-0.364583 0.54687,-0.15625 1.09375,-0.247396 0.55989,-0.09115 1.01562,-0.09115 0.95052,0 1.79688,0.208334 0.84635,0.195312 1.48437,0.585937 0.63802,0.390625 1.00261,0.976563 0.3776,0.572916 0.3776,1.328125 0,1.054687 -0.63802,1.796875 -0.63802,0.742187 -1.73177,0.95052 0.49479,0.104167 0.96354,0.364584 0.46875,0.247396 0.84636,0.638021 0.3776,0.390625 0.59895,0.898437 0.23438,0.507813 0.23438,1.132813 0,1.054687 -0.45573,1.744791 -0.45573,0.690104 -1.19792,1.106771 -0.72916,0.403646 -1.66666,0.572917 -0.92448,0.16927 -1.86198,0.16927 -0.35157,0 -0.92448,-0.0651 -0.57292,-0.05208 -1.17188,-0.195312 -0.59896,-0.130209 -1.14583,-0.338542 -0.53385,-0.221354 -0.80729,-0.520833 V 55.31063 q 0.36458,0.286459 0.83333,0.520834 0.48177,0.234375 0.97656,0.403645 0.4948,0.169271 0.97657,0.273438 0.49479,0.09115 0.87239,0.09115 1.4974,0 2.31771,-0.429688 0.82031,-0.429687 0.82031,-1.341146 0,-0.455729 -0.24739,-0.768229 -0.2474,-0.3125 -0.66407,-0.507812 -0.40364,-0.195313 -0.92447,-0.286459 -0.50782,-0.09115 -1.04167,-0.09115 z" />
    <path
       id="path67"
       style=""
       d="m 348.03329,58.005943 q -0.29947,0.143229 -0.71614,0.273437 -0.41667,0.117188 -0.89844,0.208333 -0.48177,0.104167 -0.98958,0.15625 -0.49479,0.05208 -0.96354,0.05208 -1.34115,0 -2.46094,-0.442708 -1.11979,-0.442709 -1.92708,-1.23698 -0.79428,-0.79427 -1.25,-1.88802 -0.44271,-1.106771 -0.44271,-2.421875 0,-1.484375 0.41666,-2.669271 0.41667,-1.197917 1.1849,-2.03125 0.76823,-0.846354 1.86198,-1.302083 1.09375,-0.45573 2.46094,-0.45573 0.52083,0 0.96354,0.0651 0.44271,0.05208 0.84635,0.15625 0.41667,0.104166 0.82031,0.260416 0.40365,0.15625 0.83334,0.351563 v 2.526041 q -0.50781,-0.338541 -0.95052,-0.559895 -0.42969,-0.234375 -0.83334,-0.364584 -0.39062,-0.143229 -0.76823,-0.195312 -0.36458,-0.05208 -0.7552,-0.05208 -0.8073,0 -1.48438,0.29948 -0.67708,0.286458 -1.15885,0.820312 -0.48177,0.533854 -0.75521,1.276042 -0.26042,0.742187 -0.26042,1.653645 0,0.9375 0.28646,1.679688 0.28646,0.729167 0.82031,1.236979 0.53386,0.507813 1.27604,0.78125 0.75521,0.273438 1.67969,0.273438 0.75521,0 1.51042,-0.195313 0.75521,-0.195312 1.65364,-0.598958 z" />
    <path
       id="path69"
       style=""
       d="m 353.2807,51.313234 q 0.78125,0 1.34114,-0.416666 0.5599,-0.416667 1.00261,-1.236979 l 0.71614,-1.328125 q 0.29948,-0.546875 0.58594,-0.898438 0.29948,-0.364583 0.625,-0.572916 0.33854,-0.208334 0.74219,-0.286459 0.40364,-0.09115 0.92448,-0.09115 h 0.50781 v 2.135417 h -0.53386 q -0.41666,0 -0.65104,0.221354 -0.23437,0.221354 -0.44271,0.585938 l -0.61198,1.09375 q -0.22135,0.403646 -0.4427,0.677083 -0.22136,0.273437 -0.45573,0.46875 -0.23438,0.182292 -0.49479,0.3125 -0.26042,0.130208 -0.57292,0.247396 0.44271,0.130208 0.80729,0.351562 0.36458,0.208334 0.6901,0.546875 0.33855,0.325521 0.66407,0.807292 0.32552,0.481771 0.6901,1.145833 l 1.8099,3.385417 h -2.60417 l -1.6276,-3.255208 q -0.57292,-1.119792 -1.28907,-1.575521 -0.71614,-0.455729 -1.40625,-0.455729 h -0.29948 v 5.286458 h -2.36979 V 46.482505 h 2.36979 v 4.830729 z" />
    <path
       id="path71"
       style=""
       d="m 370.54632,50.77938 -6.90105,7.916667 h -1.34114 V 46.482505 h 2.36979 v 8.164063 l 6.96615,-8.164063 h 1.27604 v 11.979167 h -2.36979 z" />
    <path
       id="path73"
       style=""
       d="m 387.56455,46.482505 -4.9349,5.898438 5.28646,6.080729 h -3.03385 l -3.76302,-4.296875 -3.55469,4.296875 h -2.98177 l 5.03906,-6.080729 -5.03906,-5.898438 h 2.98177 l 3.55469,4.114584 3.41146,-4.114584 z" />
    <path
       id="path75"
       style=""
       d="m 169.55674,75.531987 q -1.61458,0.15625 -2.76041,0.598959 -1.14584,0.429687 -1.90105,1.132812 -0.7552,0.703125 -1.17187,1.679688 -0.40365,0.963541 -0.5599,2.187499 0.67709,-0.742187 1.58854,-1.145833 0.92448,-0.403646 1.95313,-0.403646 1.40625,0 2.52604,0.455729 1.13281,0.45573 1.91406,1.276042 0.78125,0.807292 1.19792,1.927083 0.41667,1.119792 0.41667,2.447917 0,1.419271 -0.42969,2.591146 -0.42969,1.171875 -1.23698,2.005208 -0.80729,0.833333 -1.95312,1.289063 -1.14584,0.455729 -2.59115,0.455729 -1.38021,0 -2.5,-0.481771 -1.11979,-0.494792 -1.91406,-1.380208 -0.78125,-0.898438 -1.21094,-2.148438 -0.42969,-1.25 -0.42969,-2.786458 0,-2.916667 0.46875,-5.026042 0.46875,-2.109375 1.53646,-3.528645 1.06771,-1.419271 2.78646,-2.200521 1.73177,-0.78125 4.24479,-1.028646 l 2.69531,-0.273438 -0.22135,2.109375 z m -2.98177,6.184896 q -0.83333,0 -1.51042,0.299479 -0.67708,0.299479 -1.15885,0.833333 -0.48177,0.520834 -0.74219,1.25 -0.24739,0.729167 -0.24739,1.588542 0,0.950521 0.23437,1.731771 0.2474,0.78125 0.70313,1.341146 0.45573,0.546875 1.13281,0.846354 0.67708,0.299479 1.53646,0.299479 0.9375,0 1.64062,-0.286458 0.71615,-0.29948 1.19792,-0.833334 0.48177,-0.546875 0.71615,-1.315104 0.24739,-0.78125 0.24739,-1.757812 0,-0.872396 -0.26042,-1.601563 -0.24739,-0.729166 -0.72916,-1.263021 -0.48177,-0.533854 -1.1849,-0.833333 -0.6901,-0.299479 -1.57552,-0.299479 z" />
    <path
       id="path77"
       style=""
       d="m 185.42914,79.815841 -8.47656,18.111979 h -2.64323 l 4.07552,-8.697916 -4.63542,-9.414063 h 2.69531 l 3.22917,6.757813 3.08594,-6.757813 z" />
    <path
       id="path79"
       style=""
       d="m 191.01507,79.581466 h 0.85938 l 5.14323,12.213542 h -2.53906 l -3.11198,-7.890625 -3.25521,7.890625 h -2.61719 z" />
    <path
       id="path81"
       style=""
       d="m 204.36143,79.581466 q 1.40625,0 2.59114,0.455729 1.19792,0.45573 2.0573,1.276042 0.87239,0.807292 1.35416,1.927083 0.48177,1.119792 0.48177,2.447917 0,1.419271 -0.48177,2.591146 -0.46875,1.171875 -1.32812,2.005208 -0.84636,0.833333 -2.04427,1.289063 -1.1849,0.455729 -2.63021,0.455729 -1.38021,0 -2.53906,-0.46875 -1.15886,-0.481771 -2.00521,-1.315104 -0.83334,-0.846355 -1.30209,-2.005209 -0.46875,-1.171875 -0.46875,-2.552083 0,-1.289062 0.48178,-2.395833 0.48177,-1.119792 1.32812,-1.940104 0.85938,-0.833334 2.00521,-1.302084 1.15885,-0.46875 2.5,-0.46875 z m -0.026,2.135417 q -0.83334,0 -1.54948,0.299479 -0.70313,0.299479 -1.22396,0.833333 -0.52083,0.520834 -0.80729,1.25 -0.28646,0.729167 -0.28646,1.588542 0,0.950521 0.27344,1.731771 0.28646,0.78125 0.79427,1.341146 0.52083,0.546875 1.22396,0.846354 0.71614,0.299479 1.57552,0.299479 0.9375,0 1.69271,-0.286458 0.7552,-0.29948 1.27604,-0.833334 0.53385,-0.546875 0.82031,-1.315104 0.28646,-0.78125 0.28646,-1.757812 0,-0.872396 -0.3125,-1.601563 -0.29948,-0.729166 -0.84636,-1.263021 -0.53385,-0.533854 -1.28906,-0.833333 -0.74219,-0.299479 -1.6276,-0.299479 z" />
    <path
       id="path83"
       style=""
       d="m 216.14528,84.64657 q 0.78125,0 1.34115,-0.416666 0.55989,-0.416667 1.0026,-1.236979 l 0.71615,-1.328125 q 0.29948,-0.546875 0.58593,-0.898438 0.29948,-0.364583 0.625,-0.572917 0.33855,-0.208333 0.74219,-0.286458 0.40365,-0.09115 0.92448,-0.09115 h 0.50781 v 2.135417 h -0.53385 q -0.41667,0 -0.65104,0.221354 -0.23438,0.221354 -0.44271,0.585938 l -0.61198,1.09375 q -0.22135,0.403645 -0.44271,0.677083 -0.22135,0.273437 -0.45573,0.46875 -0.23437,0.182292 -0.49479,0.3125 -0.26042,0.130208 -0.57292,0.247396 0.44271,0.130208 0.8073,0.351562 0.36458,0.208334 0.6901,0.546875 0.33854,0.325521 0.66406,0.807292 0.32552,0.481771 0.69011,1.145833 l 1.80989,3.385417 h -2.60416 l -1.62761,-3.255209 q -0.57291,-1.119791 -1.28906,-1.57552 -0.71615,-0.45573 -1.40625,-0.45573 h -0.29948 v 5.286459 h -2.36979 V 79.815841 h 2.36979 v 4.830729 z" />
    <path
       id="path85"
       style=""
       d="m 243.76247,94.49032 h -2.34375 v -2.695312 h -7.96875 v 2.695312 h -2.35677 v -4.830729 h 0.98958 l 4.85677,-10.078125 h 1.32812 l 4.51823,10.078125 h 0.97657 z m -3.46355,-4.830729 -2.85156,-6.289062 -2.90364,6.289062 z" />
    <path
       id="path87"
       style=""
       d="m 250.93695,84.568445 v -0.63802 q 0,-1.132813 -0.53385,-1.614584 -0.53386,-0.494791 -1.62761,-0.494791 -0.97656,0 -1.95312,0.48177 -0.96354,0.46875 -1.82292,1.497396 V 81.20907 q 1.39323,-1.627604 3.97135,-1.627604 0.91146,0 1.70573,0.234375 0.79427,0.234375 1.38021,0.716146 0.58594,0.481771 0.92448,1.236979 0.33854,0.742188 0.33854,1.757813 v 6.158854 q 0,0.338541 0.10417,0.481771 0.11719,0.130208 0.33854,0.130208 0.18229,0 0.52083,-0.169271 0.33855,-0.169271 0.74219,-0.46875 v 1.445313 q -0.40364,0.273437 -0.71614,0.455729 -0.29948,0.169271 -0.5599,0.273437 -0.26042,0.104167 -0.50781,0.143229 -0.23438,0.05208 -0.50781,0.05208 -0.78125,0 -1.22396,-0.273438 -0.42969,-0.286458 -0.59896,-0.950521 -0.78125,0.625 -1.58854,0.92448 -0.80729,0.299479 -1.62761,0.299479 -0.66406,0 -1.21093,-0.234375 -0.53386,-0.247396 -0.92448,-0.651042 -0.39063,-0.403646 -0.59896,-0.924479 -0.20834,-0.533854 -0.20834,-1.119792 0,-0.820312 0.29948,-1.393229 0.29948,-0.572917 0.83334,-0.989583 0.53385,-0.429688 1.28906,-0.755208 0.75521,-0.325521 1.66667,-0.651042 z m 0,1.302084 q -0.75521,0.260416 -1.44531,0.533854 -0.67709,0.273437 -1.19792,0.598958 -0.52083,0.325521 -0.83333,0.729167 -0.29948,0.403646 -0.29948,0.9375 0,0.364583 0.13021,0.677083 0.13021,0.3125 0.35156,0.533854 0.22135,0.221354 0.53385,0.351563 0.32552,0.117187 0.69011,0.117187 0.55989,0 1.06771,-0.260416 0.52083,-0.260417 1.0026,-0.716146 z" />
    <path
       id="path89"
       style=""
       d="M 264.49163,91.795008 V 79.815841 h 4.53125 q 0.97657,0 1.74479,0.234375 0.78125,0.221354 1.31511,0.651042 0.54687,0.416667 0.83333,1.002604 0.29948,0.585938 0.29948,1.289063 0,0.520833 -0.15625,0.963541 -0.15625,0.429688 -0.40364,0.768229 -0.2474,0.338542 -0.57292,0.585938 -0.3125,0.247396 -0.63802,0.403646 0.40364,0.182291 0.76823,0.416666 0.3776,0.221355 0.66406,0.546875 0.28646,0.325521 0.45573,0.768229 0.16927,0.429688 0.16927,1.015625 0,0.625 -0.22135,1.223959 -0.20834,0.598958 -0.69011,1.067708 -0.48177,0.46875 -1.26302,0.755208 -0.76823,0.286459 -1.90104,0.286459 z m 2.36979,-9.84375 v 3.072917 h 1.78386 q 0.98958,0 1.5625,-0.377605 0.57292,-0.390625 0.57292,-1.354166 0,-0.364584 -0.19532,-0.611979 -0.19531,-0.260417 -0.50781,-0.416667 -0.3125,-0.169271 -0.6901,-0.234375 -0.37761,-0.07813 -0.74219,-0.07813 z m 0,4.648437 v 3.059896 h 2.16146 q 0.44271,0 0.82032,-0.07813 0.3776,-0.09115 0.65104,-0.273437 0.27343,-0.195313 0.42968,-0.481771 0.15625,-0.299479 0.15625,-0.716146 0,-0.390625 -0.20833,-0.664063 -0.20833,-0.286458 -0.58594,-0.46875 -0.36458,-0.195312 -0.87239,-0.286458 -0.49479,-0.09115 -1.08073,-0.09115 z" />
    <path
       id="path91"
       style=""
       d="m 289.75205,79.815841 v 11.979167 h -2.36979 V 79.815841 Z M 276.26247,91.795008 V 79.815841 h 2.36979 V 83.8523 h 2.7474 q 1.11979,0 1.91406,0.364583 0.80729,0.364583 1.31511,0.9375 0.52083,0.559896 0.76822,1.263021 0.2474,0.703125 0.2474,1.380208 0,0.703125 -0.2474,1.419271 -0.24739,0.703125 -0.76822,1.276041 -0.50782,0.572917 -1.31511,0.9375 -0.79427,0.364584 -1.91406,0.364584 z m 2.36979,-5.807292 v 3.671875 h 2.13542 q 1.14583,0 1.8099,-0.455729 0.67708,-0.455729 0.67708,-1.432292 0,-0.481771 -0.18229,-0.820312 -0.16927,-0.338542 -0.49479,-0.546875 -0.3125,-0.221354 -0.76823,-0.3125 -0.45573,-0.104167 -1.01563,-0.104167 z" />
    <path
       id="path93"
       style=""
       d="m 303.74945,79.815841 v 11.979167 h -2.36979 v -9.84375 h -5.8724 v 9.84375 h -2.36979 V 79.815841 Z" />
    <path
       id="path95"
       style=""
       d="m 308.87965,86.170008 q 0.57292,3.59375 4.02344,3.59375 1.10677,0 2.12239,-0.377604 1.01563,-0.377605 2.07031,-1.054688 v 2.291667 q -0.54687,0.364583 -1.08072,0.625 -0.52084,0.260416 -1.09375,0.442708 -0.5599,0.169271 -1.19792,0.247396 -0.63802,0.09115 -1.40625,0.09115 -1.39323,0 -2.47396,-0.520834 -1.08073,-0.533854 -1.82292,-1.41927 -0.74218,-0.885417 -1.13281,-2.03125 -0.3776,-1.158855 -0.3776,-2.395834 0,-1.367187 0.40364,-2.486979 0.41667,-1.119791 1.15886,-1.914062 0.74218,-0.807292 1.77083,-1.236979 1.02865,-0.442709 2.26563,-0.442709 1.19791,0 2.14843,0.416667 0.96354,0.403646 1.64063,1.223958 0.67708,0.820313 1.04166,2.057292 0.36459,1.236979 0.36459,2.890625 z m 6.08073,-1.575521 q -0.0521,-1.367187 -0.79427,-2.161458 -0.74219,-0.794271 -2.00521,-0.794271 -1.38021,0 -2.1875,0.768229 -0.79427,0.768229 -1.04167,2.1875 z" />
    <path
       id="path97"
       style=""
       d="m 328.15049,84.112716 -6.90104,7.916667 H 319.9083 V 79.815841 h 2.36979 v 8.164063 l 6.96615,-8.164063 h 1.27604 v 11.979167 h -2.36979 z m -4.85677,-9.466145 q 0.16927,0.79427 0.72916,1.25 0.44271,0.403645 1.32813,0.403645 0.78125,0 1.23698,-0.390625 0.45573,-0.403645 0.65104,-1.26302 h 1.82292 q -0.29948,1.679687 -1.27605,2.565104 -0.96354,0.872396 -2.46093,0.872396 -1.5625,0 -2.53907,-0.872396 -0.97656,-0.885417 -1.27604,-2.565104 z" />
    <path
       id="path99"
       style=""
       d="m 350.57236,79.815841 v 11.979167 h -2.36979 v -5.3125 q -0.2474,0.221354 -0.65104,0.429687 -0.39063,0.195313 -0.85938,0.351563 -0.45573,0.143229 -0.95052,0.234375 -0.48177,0.07813 -0.9375,0.07813 -2.27864,0 -3.37239,-1.145833 -1.08073,-1.158855 -1.08073,-3.619792 v -2.994792 h 2.38281 v 3.020834 q 0,0.833333 0.14323,1.354166 0.15625,0.507813 0.46875,0.794271 0.3125,0.286458 0.78125,0.377604 0.48177,0.09115 1.13281,0.09115 0.42969,0 0.85938,-0.0651 0.44271,-0.07813 0.83333,-0.208333 0.40365,-0.14323 0.72917,-0.338542 0.32552,-0.195313 0.52083,-0.429688 v -4.596354 z" />
    <path
       id="path101"
       style=""
       d="m 359.11403,84.568445 v -0.63802 q 0,-1.132813 -0.53386,-1.614584 -0.53385,-0.494791 -1.6276,-0.494791 -0.97656,0 -1.95312,0.48177 -0.96355,0.46875 -1.82292,1.497396 V 81.20907 q 1.39323,-1.627604 3.97135,-1.627604 0.91146,0 1.70573,0.234375 0.79427,0.234375 1.38021,0.716146 0.58594,0.481771 0.92448,1.236979 0.33854,0.742188 0.33854,1.757813 v 6.158854 q 0,0.338541 0.10417,0.481771 0.11719,0.130208 0.33854,0.130208 0.18229,0 0.52083,-0.169271 0.33854,-0.169271 0.74219,-0.46875 v 1.445313 q -0.40365,0.273437 -0.71615,0.455729 -0.29947,0.169271 -0.55989,0.273437 -0.26042,0.104167 -0.50781,0.143229 -0.23438,0.05208 -0.50782,0.05208 -0.78125,0 -1.22395,-0.273438 -0.42969,-0.286458 -0.59896,-0.950521 -0.78125,0.625 -1.58854,0.92448 -0.8073,0.299479 -1.62761,0.299479 -0.66406,0 -1.21094,-0.234375 -0.53385,-0.247396 -0.92448,-0.651042 -0.39062,-0.403646 -0.59895,-0.924479 -0.20834,-0.533854 -0.20834,-1.119792 0,-0.820312 0.29948,-1.393229 0.29948,-0.572917 0.83334,-0.989583 0.53385,-0.429688 1.28906,-0.755208 0.75521,-0.325521 1.66666,-0.651042 z m 0,1.302084 q -0.75521,0.260416 -1.44531,0.533854 -0.67709,0.273437 -1.19792,0.598958 -0.52083,0.325521 -0.83333,0.729167 -0.29948,0.403646 -0.29948,0.9375 0,0.364583 0.13021,0.677083 0.1302,0.3125 0.35156,0.533854 0.22135,0.221354 0.53385,0.351563 0.32552,0.117187 0.69011,0.117187 0.55989,0 1.0677,-0.260416 0.52084,-0.260417 1.00261,-0.716146 z" />
    <path
       id="path103"
       style=""
       d="m 367.64267,91.795008 h -2.36979 V 79.815841 h 2.36979 v 4.856771 h 1.97917 q 0.18229,-1.09375 0.71615,-2.03125 0.54687,-0.9375 1.36718,-1.614583 0.82032,-0.677084 1.875,-1.054688 1.06771,-0.390625 2.27865,-0.390625 1.40625,0 2.59115,0.455729 1.19791,0.45573 2.05729,1.276042 0.87239,0.807292 1.35416,1.927083 0.48178,1.119792 0.48178,2.447917 0,1.419271 -0.48178,2.591146 -0.46875,1.171875 -1.32812,2.005208 -0.84635,0.833333 -2.04427,1.289063 -1.1849,0.455729 -2.63021,0.455729 -1.23698,0 -2.29167,-0.377604 -1.05468,-0.377605 -1.875,-1.067709 -0.80729,-0.690104 -1.34114,-1.653646 -0.52084,-0.963541 -0.70313,-2.122395 h -2.00521 z m 8.19011,-10.078125 q -0.83333,0 -1.54948,0.299479 -0.70313,0.299479 -1.22396,0.833333 -0.52083,0.520834 -0.80729,1.25 -0.28646,0.729167 -0.28646,1.588542 0,0.950521 0.27344,1.731771 0.28646,0.78125 0.79427,1.341146 0.52083,0.546875 1.22396,0.846354 0.71614,0.299479 1.57552,0.299479 0.9375,0 1.69271,-0.286458 0.75521,-0.29948 1.27604,-0.833334 0.53385,-0.546875 0.82031,-1.315104 0.28646,-0.78125 0.28646,-1.757812 0,-0.872396 -0.3125,-1.601563 -0.29948,-0.729166 -0.84635,-1.263021 -0.53386,-0.533854 -1.28907,-0.833333 -0.74218,-0.299479 -1.6276,-0.299479 z" />
  </g>
</svg>
