<?xml version="1.0" encoding="UTF-8" standalone="no"?>
<svg
   xmlns:dc="http://purl.org/dc/elements/1.1/"
   xmlns:cc="http://creativecommons.org/ns#"
   xmlns:rdf="http://www.w3.org/1999/02/22-rdf-syntax-ns#"
   xmlns:svg="http://www.w3.org/2000/svg"
   xmlns="http://www.w3.org/2000/svg"
   id="svg2"
   version="1.1"
   viewBox="160.4907 5.3683364 257.01791 92.240005">
  <metadata
     id="metadata11">
    <rdf:RDF>
      <cc:Work
         rdf:about="">
        <dc:format>image/svg+xml</dc:format>
        <dc:type
           rdf:resource="http://purl.org/dc/dcmitype/StillImage" />
      </cc:Work>
    </rdf:RDF>
  </metadata>
  <defs
     id="defs9" />
  <g
     id="text4521"
     style="font-style:normal;font-variant:normal;font-weight:normal;font-stretch:normal;font-size:26.66666603px;line-height:125%;font-family:Helvetica, sans-serif;font-variant-ligatures:normal;font-variant-caps:normal;font-variant-numeric:normal;font-feature-settings:normal;text-align:left;letter-spacing:0px;word-spacing:0px;writing-mode:lr-tb;text-anchor:start;fill:#000000;fill-opacity:1;stroke:none;stroke-width:1px;stroke-linecap:butt;stroke-linejoin:miter;stroke-opacity:1"
     aria-label="Съешь же ещё этихмягких французскихбулок да выпей чаю">
    <path
       id="path13"
       style=""
       d="m 177.18403,11.715003 c -0.77333,-4.2666666 -3.22666,-6.3466666 -7.49333,-6.3466666 -2.61333,0 -4.72,0.8266667 -6.16,2.4266666 -1.76,1.92 -2.72,4.693333 -2.72,7.84 0,3.2 0.98667,5.946666 2.82667,7.84 1.49333,1.546666 3.41333,2.266666 5.94666,2.266666 4.74667,0 7.41334,-2.56 8,-7.706666 h -2.56 c -0.21333,1.333333 -0.48,2.24 -0.88,3.013333 -0.8,1.6 -2.45333,2.506667 -4.53333,2.506667 -3.86667,0 -6.32,-3.093334 -6.32,-7.946667 0,-4.986666 2.34667,-8.053333 6.10667,-8.053333 1.57333,0 3.04,0.48 3.84,1.2266667 0.72,0.6666666 1.12,1.4933333 1.41333,2.9333333 z" />
    <path
       id="path15"
       style=""
       d="m 185.20153,25.128336 h 6.56 c 2.58667,0 4.45334,-1.84 4.45334,-4.453333 0,-2.88 -1.86667,-4.64 -4.45334,-4.64 h -4.32 v -4.88 h -7.12 v 2.026667 h 4.88 z m 2.24,-2.026667 v -5.04 h 3.30667 c 2.02667,0 3.04,0.773334 3.04,2.693334 0,1.226666 -0.48,2.346666 -3.04,2.346666 z" />
    <path
       id="path17"
       style=""
       d="m 212.06486,18.888336 c 0,-2.133333 -0.16,-3.413333 -0.56,-4.453333 -0.90666,-2.293333 -3.04,-3.68 -5.65333,-3.68 -3.89333,0 -6.4,2.986667 -6.4,7.573333 0,4.586667 2.42667,7.413333 6.34667,7.413333 3.2,0 5.41333,-1.813333 5.97333,-4.853333 h -2.24 c -0.61333,1.84 -1.86667,2.8 -3.65333,2.8 -1.41334,0 -2.61334,-0.64 -3.36,-1.813333 -0.53334,-0.8 -0.72,-1.6 -0.74667,-2.986667 z m -10.24,-1.813333 c 0.18667,-2.586667 1.76,-4.266667 4,-4.266667 2.18667,0 3.86667,1.813334 3.86667,4.106667 0,0.05333 0,0.106666 -0.0267,0.16 z" />
    <path
       id="path19"
       style=""
       d="M 223.57528,23.101669 V 11.155003 h -2.24 v 11.946666 h -4 V 11.155003 h -2.24 v 13.973333 h 14.72 V 11.155003 h -2.24 v 11.946666 z" />
    <path
       id="path21"
       style=""
       d="m 235.77278,11.155003 h -2.24 v 13.973333 h 6.56 c 2.58667,0 4.45333,-1.84 4.45333,-4.453333 0,-2.88 -1.84,-4.64 -4.45333,-4.64 h -4.32 z m 0,11.946666 v -5.04 h 3.30667 c 2.02666,0 3.04,0.773334 3.04,2.693334 0,1.226666 -0.48,2.346666 -3.04,2.346666 z" />
    <path
       id="path23"
       style=""
       d="m 266.01486,11.155003 h -2.21333 v 5.36 l -5.12,-5.36 h -2.85333 l 6.45333,6.666666 -7.30667,7.306667 h 2.82667 l 6,-6.026667 v 6.026667 h 2.21333 v -6.026667 l 6,6.026667 h 2.82667 l -7.30667,-7.306667 6.45334,-6.666666 h -2.85334 l -5.12,5.36 z" />
    <path
       id="path25"
       style=""
       d="m 289.82528,18.888336 c 0,-2.133333 -0.16,-3.413333 -0.56,-4.453333 -0.90667,-2.293333 -3.04,-3.68 -5.65333,-3.68 -3.89334,0 -6.4,2.986667 -6.4,7.573333 0,4.586667 2.42666,7.413333 6.34666,7.413333 3.2,0 5.41334,-1.813333 5.97334,-4.853333 h -2.24 c -0.61334,1.84 -1.86667,2.8 -3.65334,2.8 -1.41333,0 -2.61333,-0.64 -3.36,-1.813333 -0.53333,-0.8 -0.72,-1.6 -0.74666,-2.986667 z m -10.24,-1.813333 c 0.18667,-2.586667 1.76,-4.266667 4,-4.266667 2.18667,0 3.86667,1.813334 3.86667,4.106667 0,0.05333 0,0.106666 -0.0267,0.16 z" />
    <path
       id="path27"
       style=""
       d="m 312.06486,18.888336 c 0,-2.133333 -0.16,-3.413333 -0.56,-4.453333 -0.90667,-2.293333 -3.04,-3.68 -5.65334,-3.68 -3.89333,0 -6.4,2.986667 -6.4,7.573333 0,4.586667 2.42667,7.413333 6.34667,7.413333 3.2,0 5.41333,-1.813333 5.97333,-4.853333 h -2.24 c -0.61333,1.84 -1.86666,2.8 -3.65333,2.8 -1.41333,0 -2.61333,-0.64 -3.36,-1.813333 -0.53333,-0.8 -0.72,-1.6 -0.74667,-2.986667 z m -10.24,-1.813333 c 0.18666,-2.586667 1.76,-4.266667 4,-4.266667 2.18666,0 3.86666,1.813334 3.86666,4.106667 0,0.05333 0,0.106666 -0.0267,0.16 z" />
    <path
       id="path29"
       style=""
       d="m 329.54861,25.128336 v 3.2 h 1.86666 v -4.906667 h -1.6 V 11.155003 h -2.24 v 11.946666 h -4 V 11.155003 h -2.24 v 11.946666 h -4 V 11.155003 h -2.24 v 13.973333 z" />
    <path
       id="path31"
       style=""
       d="m 339.09236,6.0350031 h -2.77333 v 2.7466666 h 2.77333 z m 4.32,0 h -2.77333 v 2.7466666 h 2.77333 z m 2.50667,12.8533329 c 0,-2.133333 -0.16,-3.413333 -0.56,-4.453333 -0.90667,-2.293333 -3.04,-3.68 -5.65333,-3.68 -3.89334,0 -6.4,2.986667 -6.4,7.573333 0,4.586667 2.42666,7.413333 6.34666,7.413333 3.2,0 5.41334,-1.813333 5.97334,-4.853333 h -2.24 c -0.61334,1.84 -1.86667,2.8 -3.65334,2.8 -1.41333,0 -2.61333,-0.64 -3.36,-1.813333 -0.53333,-0.8 -0.72,-1.6 -0.74666,-2.986667 z m -10.24,-1.813333 c 0.18667,-2.586667 1.76,-4.266667 4,-4.266667 2.18667,0 3.86667,1.813334 3.86667,4.106667 0,0.05333 0,0.106666 -0.0267,0.16 z" />
    <path
       id="path33"
       style=""
       d="m 358.82527,18.941669 h 6.05334 c -0.16,2.986667 -1.6,4.746667 -3.92,4.746667 -1.89334,0 -3.04,-1.12 -3.41334,-3.36 h -2.24 c 0.26667,3.413333 2.37334,5.413333 5.70667,5.413333 3.78667,0 6.18667,-2.853333 6.18667,-7.36 0,-4.639999 -2.45334,-7.626666 -6.21334,-7.626666 -1.94666,0 -3.62666,0.773333 -4.58666,2.08 -0.53334,0.773333 -0.82667,1.653333 -0.93334,3.013333 h 2.24 c 0.26667,-1.946666 1.44,-3.04 3.30667,-3.04 2.05333,0 3.41333,1.493334 3.78667,4.08 h -5.97334 z" />
    <path
       id="path35"
       style=""
       d="m 369.41195,11.155003 v 2.026667 h 3.84 v 11.946666 h 2.24 V 13.18167 h 3.84 v -2.026667 z" />
    <path
       id="path37"
       style=""
       d="m 382.90777,11.155003 v 13.973333 h 2.90667 l 6.26667,-11.013333 v 11.013333 h 2.21333 V 11.155003 h -2.88 l -6.26667,11.013333 V 11.155003 Z" />
    <path
       id="path39"
       style=""
       d="m 403.93195,17.901669 4.69333,-6.746666 h -2.50667 l -3.36,5.066666 -3.36,-5.066666 h -2.53333 l 4.66667,6.853333 -4.93334,7.12 h 2.53334 l 3.54666,-5.36 3.49334,5.36 h 2.58666 z" />
    <path
       id="path41"
       style=""
       d="m 161.39737,44.488339 v 13.973333 h 2.24 v -9.68 l 3.46666,8.613333 h 1.33334 l 3.46666,-8.613333 v 9.68 h 2.24 V 44.488339 h -2.77333 l -3.6,8.693333 -3.6,-8.693333 z" />
    <path
       id="path43"
       style=""
       d="m 181.82903,52.568339 -5.46666,5.893333 h 2.74666 l 5.41334,-5.813333 h 1.84 v 5.813333 h 2.24 V 44.488339 h -6.61334 c -1.33333,0 -2.29333,0.346666 -3.04,1.146666 -0.69333,0.746667 -1.09333,1.626667 -1.09333,2.826667 0,2.693333 1.76,3.92 3.97333,4.106667 z m 4.53334,-6.08 v 4.133333 h -3.65334 c -0.85333,0 -1.30666,-0.186667 -1.84,-0.533333 -0.61333,-0.4 -0.58666,-0.8 -0.58666,-1.493334 0,-0.666666 0.16,-0.986666 0.58666,-1.413333 0.42667,-0.48 0.98667,-0.693333 1.84,-0.693333 z" />
    <path
       id="path45"
       style=""
       d="m 192.33487,44.488339 v 13.973333 h 2.24 V 46.515005 h 6.02666 v -2.026666 z" />
    <path
       id="path47"
       style=""
       d="m 206.00653,44.488339 h -2.21333 v 13.973333 h 2.21333 v -6.026667 l 6,6.026667 h 2.82667 l -7.30667,-7.306667 6.69334,-6.666666 h -2.56 l -5.65334,5.653333 z" />
    <path
       id="path49"
       style=""
       d="m 217.38695,44.488339 v 13.973333 h 2.90667 l 6.26666,-11.013333 v 11.013333 h 2.21334 V 44.488339 h -2.88 l -6.26667,11.013333 V 44.488339 Z" />
    <path
       id="path51"
       style=""
       d="m 238.41112,51.235005 4.69333,-6.746666 h -2.50667 l -3.36,5.066666 -3.36,-5.066666 h -2.53333 l 4.66667,6.853333 -4.93334,7.12 h 2.53334 l 3.54666,-5.36 3.49334,5.36 h 2.58666 z" />
    <path
       id="path53"
       style=""
       d="m 264.55361,46.595005 v -6.106666 h -2.21333 v 6.106666 c -0.8,-1.52 -1.97333,-2.506666 -3.81333,-2.506666 -3.68,0 -5.54667,3.013333 -5.54667,7.653333 0,4.533333 1.76,7.333333 5.44,7.333333 1.94667,0 2.88,-0.693333 3.92,-2.213333 v 7.413333 h 2.21333 v -7.28 c 1.17334,1.44 2.08,2.08 3.89334,2.08 3.6,0 5.57333,-2.906666 5.57333,-7.36 0,-4.693333 -1.89333,-7.626666 -5.6,-7.626666 -1.89333,0 -3.09333,0.88 -3.86667,2.506666 z m 3.49334,-0.426666 c 2.45333,0 3.65333,2.16 3.65333,5.493333 0,3.173333 -1.22667,5.333333 -3.65333,5.333333 -2.34667,0 -3.49334,-2.133333 -3.49334,-5.413333 0,-3.28 1.14667,-5.413333 3.49334,-5.413333 z m -9.2,0 c 2.37333,0 3.49333,2.133333 3.49333,5.493333 0,3.2 -1.14667,5.333333 -3.49333,5.333333 -2.45334,0 -3.54667,-2.16 -3.54667,-5.413333 0,-3.226667 1.09333,-5.413333 3.54667,-5.413333 z" />
    <path
       id="path55"
       style=""
       d="m 277.11653,64.275005 h 2.24 v -7.28 c 1.17333,1.44 2.48,2.08 4.29333,2.08 3.6,0 5.97334,-2.906666 5.97334,-7.36 0,-4.693333 -2.29334,-7.626666 -6,-7.626666 -1.89334,0 -3.41334,0.853333 -4.45334,2.506666 v -2.106666 h -2.05333 z m 6.13333,-18.106666 c 2.45334,0 4.05334,2.16 4.05334,5.493333 0,3.173333 -1.62667,5.333333 -4.05334,5.333333 -2.34666,0 -3.89333,-2.133333 -3.89333,-5.413333 0,-3.28 1.54667,-5.413333 3.89333,-5.413333 z" />
    <path
       id="path57"
       style=""
       d="m 305.30777,57.155005 c -0.24,0.05333 -0.34666,0.05333 -0.48,0.05333 -0.77333,0 -1.2,-0.4 -1.2,-1.093334 v -8.213333 c 0,-2.48 -1.81333,-3.813333 -5.25333,-3.813333 -2.02667,0 -3.70667,0.586666 -4.64,1.626666 -0.64,0.72 -0.90667,1.52 -0.96,2.906667 h 2.24 c 0.18667,-1.706667 1.2,-2.48 3.28,-2.48 2,0 3.12,0.746667 3.12,2.08 v 0.586667 c 0,0.933333 -0.56,1.333333 -2.32,1.546666 -3.14667,0.4 -3.62667,0.506667 -4.48,0.853334 -1.62667,0.666666 -2.45333,1.92 -2.45333,3.733333 0,2.533333 1.76,4.133333 4.58666,4.133333 1.76,0 3.17334,-0.613333 4.74667,-2.053333 0.16,1.413333 0.85333,2.053333 2.29333,2.053333 0.45334,0 0.8,-0.05333 1.52,-0.24 z m -3.89333,-3.093333 c 0,0.746667 -0.21333,1.2 -0.88,1.813333 -0.90667,0.826667 -2,1.253334 -3.30667,1.253334 -1.73333,0 -2.74666,-0.826667 -2.74666,-2.24 0,-1.466667 0.98666,-2.213334 3.36,-2.56 2.34666,-0.32 2.82666,-0.426667 3.57333,-0.773334 z" />
    <path
       id="path59"
       style=""
       d="m 307.75152,44.488339 v 13.973333 h 2.24 v -6.213333 h 6.66667 v 6.213333 h 2.24 V 44.488339 h -2.24 v 5.733333 h -6.66667 v -5.733333 z" />
    <path
       id="path61"
       style=""
       d="m 322.64737,58.461672 h 10.88 v 3.2 h 1.86666 v -4.906667 h -1.62666 V 44.488339 h -2.24 v 11.946666 h -6.64 V 44.488339 h -2.24 z" />
    <path
       id="path63"
       style=""
       d="m 346.54402,44.488339 -3.86666,10.88 -3.57334,-10.88 h -2.37333 l 4.72,14.026666 -0.85333,2.213333 c -0.34667,0.906667 -0.85334,1.36 -1.78667,1.36 -0.32,0 -0.69333,-0.05333 -1.17333,-0.16 v 2 c 0.45333,0.24 0.90666,0.346667 1.49333,0.346667 0.72,0 1.49333,-0.24 2.08,-0.666667 0.69333,-0.506666 1.14667,-1.2 1.52,-2.213333 l 6.21333,-16.906666 z" />
    <path
       id="path65"
       style=""
       d="m 354.6507,52.568339 h 2.37333 c 1.6,0 2.32,1.253333 2.32,2.266666 0,1.306667 -1.2,2.186667 -3.14666,2.186667 -1.2,0 -2.21334,-0.346667 -2.77334,-0.933333 -0.34666,-0.4 -0.50666,-0.8 -0.64,-1.786667 h -2.34666 c 0.10666,3.226667 1.92,4.773333 5.57333,4.773333 3.52,0 5.76,-1.733333 5.76,-4.426666 0,-1.6 -0.72,-2.613334 -2.29333,-3.306667 1.22666,-0.693333 1.73333,-1.573333 1.73333,-2.986667 0,-2.586666 -2.10667,-4.266666 -5.36,-4.266666 -3.06667,0 -5.04,1.546666 -5.06667,4.293333 h 2.34667 c 0.0533,-1.466667 1.14667,-2.24 2.8,-2.24 1.81333,0 2.96,0.826667 2.96,2.106667 0,0.986666 -0.72,2.293333 -2.58667,2.293333 h -1.65333 z" />
    <path
       id="path67"
       style=""
       d="m 375.42403,49.181672 c -0.10667,-1.36 -0.4,-2.24 -0.93333,-3.013333 -0.96,-1.306667 -2.64,-2.08 -4.58667,-2.08 -3.76,0 -6.21333,2.986666 -6.21333,7.626666 0,4.506667 2.4,7.36 6.18666,7.36 3.33334,0 5.44,-2 5.70667,-5.413333 h -2.24 c -0.37333,2.24 -1.52,3.36 -3.41333,3.36 -2.45334,0 -3.92,-2 -3.92,-5.306667 0,-3.493333 1.44,-5.573333 3.86666,-5.573333 1.86667,0 3.04,1.093333 3.30667,3.04 z" />
    <path
       id="path69"
       style=""
       d="m 380.27736,44.488339 h -2.21334 v 13.973333 h 2.21334 v -6.026667 l 6,6.026667 h 2.82666 l -7.30666,-7.306667 6.69333,-6.666666 h -2.56 l -5.65333,5.653333 z" />
    <path
       id="path71"
       style=""
       d="m 391.65777,44.488339 v 13.973333 h 2.90667 l 6.26667,-11.013333 v 11.013333 h 2.21333 V 44.488339 h -2.88 l -6.26667,11.013333 V 44.488339 Z" />
    <path
       id="path73"
       style=""
       d="m 412.68195,51.235005 4.69333,-6.746666 h -2.50667 l -3.36,5.066666 -3.36,-5.066666 h -2.53333 l 4.66667,6.853333 -4.93334,7.12 h 2.53334 l 3.54666,-5.36 3.49334,5.36 h 2.58666 z" />
    <path
       id="path75"
       style=""
       d="m 162.6507,79.288341 c 0.32,-1.92 1.44,-3.44 2.85333,-3.786666 l 3.6,-0.773334 c 2.93334,-0.693333 2.96,-2 2.96,-3.599999 h -1.97333 c 0,0.72 -0.72,1.386666 -1.49333,1.573333 l -3.54667,0.693333 c -3.70667,0.853333 -4.56,6.613333 -4.56,11.52 0,4.693333 2.34667,7.493333 6.32,7.493333 3.92,0 6.32,-2.8 6.32,-7.386666 0,-4.826667 -2.32,-7.6 -6.34667,-7.6 -1.12,0 -3.12,0.24 -4.13333,1.866666 z m 4.16,0.186667 c 2.50667,0 4,2.053333 4,5.52 0,3.28 -1.54667,5.36 -4,5.36 -2.48,0 -4,-2.053334 -4,-5.44 0,-3.36 1.52,-5.44 4,-5.44 z" />
    <path
       id="path77"
       style=""
       d="m 184.72112,77.821675 -3.86667,10.879999 -3.57333,-10.879999 h -2.37334 l 4.72,14.026666 -0.85333,2.213333 c -0.34667,0.906667 -0.85333,1.36 -1.78667,1.36 -0.32,0 -0.69333,-0.05333 -1.17333,-0.16 v 2 c 0.45333,0.24 0.90667,0.346667 1.49333,0.346667 0.72,0 1.49334,-0.24 2.08,-0.666667 0.69334,-0.506666 1.14667,-1.2 1.52,-2.213333 l 6.21334,-16.906666 z" />
    <path
       id="path79"
       style=""
       d="m 191.65445,77.821675 v 5.413333 c 0,3.813333 -0.74667,6.693333 -2.08,6.693333 v 2.133333 c 3.38667,0 4.29333,-4.72 4.29333,-8.826666 v -3.386667 h 4.58667 v 11.946667 h 2.24 V 77.821675 Z" />
    <path
       id="path81"
       style=""
       d="m 209.80487,77.421675 c -3.92,0 -6.29334,2.8 -6.29334,7.493333 0,4.693333 2.34667,7.493333 6.32,7.493333 3.92,0 6.32,-2.8 6.32,-7.386666 0,-4.826667 -2.32,-7.6 -6.34666,-7.6 z m 0.0267,2.053333 c 2.50667,0 4,2.053333 4,5.52 0,3.28 -1.54666,5.36 -4,5.36 -2.48,0 -4,-2.053334 -4,-5.44 0,-3.36 1.52,-5.44 4,-5.44 z" />
    <path
       id="path83"
       style=""
       d="m 221.47528,77.821675 h -2.21333 v 13.973333 h 2.21333 v -6.026667 l 6,6.026667 h 2.82667 l -7.30667,-7.306667 6.69334,-6.666666 h -2.56 l -5.65334,5.653333 z" />
    <path
       id="path85"
       style=""
       d="m 240.70486,90.088341 h -1.52 v 4.906667 h 1.86667 v -3.2 h 10.72 v 3.2 h 1.86667 v -4.906667 h -1.70667 V 77.821675 h -9.04 v 5.413333 c 0,3.253333 -0.88,6.72 -2.18667,6.853333 z m 3.09334,-0.32 c 0.93333,-1.706667 1.30666,-4.293333 1.30666,-6.533333 v -3.386667 h 4.58667 v 9.92 z" />
    <path
       id="path87"
       style=""
       d="m 268.6932,90.488341 c -0.24,0.05333 -0.34667,0.05333 -0.48,0.05333 -0.77334,0 -1.2,-0.4 -1.2,-1.093333 v -8.213333 c 0,-2.48 -1.81334,-3.813333 -5.25334,-3.813333 -2.02666,0 -3.70666,0.586666 -4.64,1.626666 -0.64,0.72 -0.90666,1.52 -0.96,2.906667 h 2.24 c 0.18667,-1.706667 1.2,-2.48 3.28,-2.48 2,0 3.12,0.746667 3.12,2.08 v 0.586667 c 0,0.933333 -0.56,1.333333 -2.32,1.546666 -3.14666,0.4 -3.62666,0.506667 -4.48,0.853334 -1.62666,0.666666 -2.45333,1.919999 -2.45333,3.733333 0,2.533333 1.76,4.133333 4.58667,4.133333 1.76,0 3.17333,-0.613333 4.74666,-2.053333 0.16,1.413333 0.85334,2.053333 2.29334,2.053333 0.45333,0 0.8,-0.05333 1.52,-0.24 z m -3.89334,-3.093333 c 0,0.746666 -0.21333,1.2 -0.88,1.813333 -0.90666,0.826667 -2,1.253333 -3.30666,1.253333 -1.73334,0 -2.74667,-0.826666 -2.74667,-2.24 0,-1.466666 0.98667,-2.213333 3.36,-2.559999 2.34667,-0.32 2.82667,-0.426667 3.57333,-0.773334 z" />
    <path
       id="path89"
       style=""
       d="m 278.53278,91.795008 h 6.48 c 1.33333,0 2.29333,-0.373334 3.04,-1.173334 0.69333,-0.746666 1.09333,-1.733333 1.09333,-2.826666 0,-1.68 -0.77333,-2.693333 -2.56,-3.386667 1.25334,-0.613333 1.84,-1.626666 1.84,-3.066666 0,-1.013334 -0.34666,-1.893334 -1.06666,-2.56 -0.72,-0.666667 -1.62667,-0.96 -2.98667,-0.96 h -5.84 z m 2.24,-8.186667 v -3.786666 h 2.61333 c 0.98667,0 1.54667,0.133333 2.02667,0.506666 0.50667,0.4 0.77333,0.666667 0.77333,1.44 0,0.746667 -0.26666,0.96 -0.77333,1.36 -0.48,0.346667 -1.04,0.48 -2.02667,0.48 z m 0,6.16 v -4.133333 h 3.52 c 0.85333,0 1.30667,0.186667 1.84,0.533333 0.61333,0.4 0.58667,0.8 0.58667,1.493333 0,0.666667 -0.16,0.986667 -0.58667,1.413334 -0.42667,0.48 -0.98667,0.693333 -1.84,0.693333 z" />
    <path
       id="path91"
       style=""
       d="m 294.67904,77.821675 h -2.24 v 13.973333 h 6.56 c 2.58667,0 4.45333,-1.84 4.45333,-4.453334 0,-2.879999 -1.84,-4.639999 -4.45333,-4.639999 h -4.32 z m 0,11.946666 v -5.04 h 3.30667 c 2.02666,0 3.04,0.773334 3.04,2.693333 0,1.226667 -0.48,2.346667 -3.04,2.346667 z m 12.42667,-11.946666 h -2.21334 v 13.973333 h 2.21334 z" />
    <path
       id="path93"
       style=""
       d="m 310.82445,77.821675 v 13.973333 h 2.24 V 79.848341 h 6.64 v 11.946667 h 2.24 V 77.821675 Z" />
    <path
       id="path95"
       style=""
       d="m 337.48153,85.555008 c 0,-2.133333 -0.16,-3.413333 -0.56,-4.453333 -0.90667,-2.293334 -3.04,-3.68 -5.65333,-3.68 -3.89334,0 -6.4,2.986666 -6.4,7.573333 0,4.586666 2.42666,7.413333 6.34666,7.413333 3.2,0 5.41334,-1.813333 5.97334,-4.853333 h -2.24 c -0.61334,1.84 -1.86667,2.8 -3.65334,2.8 -1.41333,0 -2.61333,-0.64 -3.36,-1.813334 -0.53333,-0.8 -0.72,-1.6 -0.74666,-2.986666 z m -10.24,-1.813333 c 0.18667,-2.586667 1.76,-4.266667 4,-4.266667 2.18667,0 3.86667,1.813333 3.86667,4.106667 0,0.05333 0,0.106666 -0.0267,0.16 z" />
    <path
       id="path97"
       style=""
       d="m 340.51195,77.821675 v 13.973333 h 2.90666 l 6.26667,-11.013333 v 11.013333 h 2.21333 V 77.821675 h -2.88 l -6.26666,11.013333 V 77.821675 Z m 1.68,-4.666667 c 0.0267,1.04 0.18666,1.546667 0.56,2.08 0.72,0.986667 1.92,1.52 3.41333,1.52 2.48,0 3.86667,-1.226667 4.05333,-3.6 h -1.57333 c -0.10667,1.12 -0.98667,1.76 -2.42667,1.76 -1.52,0 -2.32,-0.586667 -2.45333,-1.76 z" />
    <path
       id="path99"
       style=""
       d="m 363.01195,77.821675 v 5.066666 c 0,2.506667 1.97333,3.813333 4.13333,3.813333 h 3.76 v 5.093334 h 2.24 V 77.821675 h -2.24 v 6.853333 h -3.84 c -1.06667,0 -1.81333,-0.56 -1.81333,-1.866667 v -4.986666 z" />
    <path
       id="path101"
       style=""
       d="m 389.26612,90.488341 c -0.24,0.05333 -0.34667,0.05333 -0.48,0.05333 -0.77334,0 -1.2,-0.4 -1.2,-1.093333 v -8.213333 c 0,-2.48 -1.81334,-3.813333 -5.25334,-3.813333 -2.02666,0 -3.70666,0.586666 -4.64,1.626666 -0.64,0.72 -0.90666,1.52 -0.96,2.906667 h 2.24 c 0.18667,-1.706667 1.2,-2.48 3.28,-2.48 2,0 3.12,0.746667 3.12,2.08 v 0.586667 c 0,0.933333 -0.56,1.333333 -2.32,1.546666 -3.14666,0.4 -3.62666,0.506667 -4.48,0.853334 -1.62666,0.666666 -2.45333,1.919999 -2.45333,3.733333 0,2.533333 1.76,4.133333 4.58667,4.133333 1.76,0 3.17333,-0.613333 4.74666,-2.053333 0.16,1.413333 0.85334,2.053333 2.29334,2.053333 0.45333,0 0.8,-0.05333 1.52,-0.24 z m -3.89334,-3.093333 c 0,0.746666 -0.21333,1.2 -0.88,1.813333 -0.90666,0.826667 -2,1.253333 -3.30666,1.253333 -1.73334,0 -2.74667,-0.826666 -2.74667,-2.24 0,-1.466666 0.98667,-2.213333 3.36,-2.559999 2.34667,-0.32 2.82667,-0.426667 3.57333,-0.773334 z" />
    <path
       id="path103"
       style=""
       d="m 396.50987,83.555008 h -2.56 v -5.733333 h -2.24 v 13.973333 h 2.24 v -6.213333 h 2.50666 c 0,2.239999 1.12,6.826666 6.29334,6.826666 3.92,0 6.32,-2.8 6.32,-7.386666 0,-4.826667 -2.32,-7.6 -6.34667,-7.6 -5.2,0 -6.21333,4.853333 -6.21333,6.133333 z m 6.24,-4.08 c 2.50666,0 4,2.053333 4,5.52 0,3.28 -1.54667,5.36 -4,5.36 -2.48,0 -4,-2.053334 -4,-5.44 0,-3.36 1.52,-5.44 4,-5.44 z" />
  </g>
</svg>
