<?xml version="1.0" encoding="UTF-8" standalone="no"?>
<svg
   xmlns:dc="http://purl.org/dc/elements/1.1/"
   xmlns:cc="http://creativecommons.org/ns#"
   xmlns:rdf="http://www.w3.org/1999/02/22-rdf-syntax-ns#"
   xmlns:svg="http://www.w3.org/2000/svg"
   xmlns="http://www.w3.org/2000/svg"
   id="svg2"
   version="1.1"
   viewBox="160.46818 3.3054198 240.70315 91.822921">
  <metadata
     id="metadata11">
    <rdf:RDF>
      <cc:Work
         rdf:about="">
        <dc:format>image/svg+xml</dc:format>
        <dc:type
           rdf:resource="http://purl.org/dc/dcmitype/StillImage" />
      </cc:Work>
    </rdf:RDF>
  </metadata>
  <defs
     id="defs9" />
  <g
     id="text4521"
     style="font-style:normal;font-variant:normal;font-weight:normal;font-stretch:normal;font-size:26.66666603px;line-height:125%;font-family:Impact, fantasy;font-variant-ligatures:normal;font-variant-caps:normal;font-variant-numeric:normal;font-feature-settings:normal;text-align:left;letter-spacing:0px;word-spacing:0px;writing-mode:lr-tb;text-anchor:start;fill:#000000;fill-opacity:1;stroke:none;stroke-width:1px;stroke-linecap:butt;stroke-linejoin:miter;stroke-opacity:1"
     aria-label="Съешь же ещё этихмягких французскихбулок да выпей чаю">
    <path
       id="path13"
       style=""
       d="m 173.42393,13.240315 h -5.48177 V 9.5684405 q 0,-1.6015625 -0.18229,-1.9921875 -0.16927,-0.4036458 -0.76823,-0.4036458 -0.67709,0 -0.85938,0.4817708 -0.18229,0.4817709 -0.18229,2.0833333 v 9.7916667 q 0,1.536458 0.18229,2.005208 0.18229,0.46875 0.82032,0.46875 0.61197,0 0.79427,-0.46875 0.19531,-0.46875 0.19531,-2.200521 v -2.643229 h 5.48177 v 0.820313 q 0,3.268229 -0.46875,4.635416 -0.45573,1.367188 -2.04427,2.395833 -1.57552,1.028646 -3.89323,1.028646 -2.40885,0 -3.97135,-0.872396 -1.5625,-0.872395 -2.07032,-2.408854 -0.50781,-1.549479 -0.50781,-4.648437 v -6.158854 q 0,-2.2786458 0.15625,-3.4114583 0.15625,-1.1458333 0.92448,-2.2005208 0.78125,-1.0546875 2.14844,-1.6536458 1.38021,-0.6119791 3.16406,-0.6119791 2.42187,0 3.9974,0.9374999 1.57552,0.9375 2.07031,2.34375 0.49479,1.3932291 0.49479,4.3489581 z" />
    <path
       id="path15"
       style=""
       d="m 189.33539,20.19344 q 0,2.369792 -0.5599,3.398438 -0.54687,1.028645 -1.73177,1.289062 -1.17187,0.247396 -3.86719,0.247396 H 177.0958 V 11.469482 h -2.64322 V 7.8496905 h 7.86458 v 5.7552085 h 0.85937 q 2.51302,0 3.75,0.299479 1.23698,0.299479 1.82292,1.315104 0.58594,1.015625 0.58594,3.216146 z m -5.22136,-0.638021 v -0.690104 q 0,-1.341146 -0.27343,-1.627604 -0.27344,-0.286458 -1.52344,-0.325521 v 4.583334 q 1.04166,0 1.41927,-0.260417 0.3776,-0.273438 0.3776,-1.679688 z" />
    <path
       id="path17"
       style=""
       d="m 203.00726,16.795003 h -6.80989 v 3.736979 q 0,1.171875 0.16927,1.510417 0.16927,0.338541 0.65104,0.338541 0.59896,0 0.79427,-0.442708 0.20833,-0.455729 0.20833,-1.744792 v -2.278646 h 4.98698 v 1.276042 q 0,1.601563 -0.20833,2.460938 -0.19531,0.859375 -0.9375,1.835937 -0.74219,0.976562 -1.88802,1.471354 -1.13281,0.481771 -2.85156,0.481771 -1.66667,0 -2.94271,-0.481771 -1.27604,-0.481771 -1.99219,-1.315104 -0.70312,-0.846354 -0.97656,-1.848958 -0.27344,-1.015625 -0.27344,-2.942709 v -5.039062 q 0,-2.265625 0.61198,-3.567708 0.61198,-1.3151043 2.00521,-2.0052085 1.39323,-0.703125 3.20312,-0.703125 2.21354,0 3.64584,0.8463542 1.44531,0.8333333 2.01823,2.2265623 0.58593,1.380208 0.58593,3.893229 z m -5.27343,-2.8125 v -1.263021 q 0,-1.341146 -0.14323,-1.731771 -0.14323,-0.390625 -0.58594,-0.390625 -0.54688,0 -0.67708,0.338542 -0.13021,0.325521 -0.13021,1.783854 v 1.263021 z" />
    <path
       id="path19"
       style=""
       d="m 217.10882,21.495524 h 1.86198 V 7.8496905 h 5.26042 V 25.128336 H 204.73903 V 7.8496905 h 5.2474 V 21.495524 h 1.86198 V 7.8496905 h 5.26041 z" />
    <path
       id="path21"
       style=""
       d="m 238.33278,20.19344 q 0,2.369792 -0.55989,3.398438 -0.54688,1.028645 -1.73177,1.289062 -1.1849,0.247396 -3.86719,0.247396 H 226.0932 V 7.8496905 h 5.22135 v 5.7552085 h 0.85938 q 2.51302,0 3.75,0.299479 1.23698,0.299479 1.82292,1.315104 0.58593,1.015625 0.58593,3.216146 z m -5.23437,-0.638021 v -0.690104 q 0,-1.341146 -0.27344,-1.627604 -0.26042,-0.286458 -1.51042,-0.325521 v 4.583334 q 1.04167,0 1.40625,-0.260417 0.37761,-0.273438 0.37761,-1.679688 z" />
    <path
       id="path23"
       style=""
       d="m 263.51508,25.128336 h -5.07813 q -0.58594,-0.794271 -0.58594,-2.03125 v -3.645833 q 0,-1.757813 -1.67968,-1.757813 v 7.434896 h -5.19532 V 17.69344 q -1.41927,0 -1.41927,1.757813 v 3.645833 q 0,1.770833 -0.58594,2.03125 h -5.0651 q 0.58594,-0.846354 0.58594,-2.513021 v -3.033854 q 0,-2.148437 2.69531,-3.007812 0.75521,-0.247396 1.70573,-0.429688 -0.45573,-0.02604 -1.75781,-0.455729 -1.31511,-0.611979 -1.71875,-0.963542 -0.89844,-0.768229 -0.89844,-2.04427 v -2.33073 q 0,-1.6536453 -0.58594,-2.4999995 h 5.06511 q 0.59895,0.7942708 0.59895,2.03125 v 2.9296875 q 0,1.757812 1.38021,1.757812 V 7.8496905 h 5.19532 V 14.56844 q 1.65364,0 1.65364,-1.757812 V 9.8809405 q 0,-1.7708333 0.58594,-2.03125 h 5.07812 q -0.59895,0.8463542 -0.59895,2.4999995 v 2.33073 q 0,1.276041 -0.88542,2.04427 -0.40365,0.351563 -1.71875,0.963542 -0.79427,0.364583 -1.75781,0.455729 0.4427,0.07813 1.70573,0.429688 2.69531,0.859375 2.69531,3.007812 v 3.033854 q 0,1.666667 0.58594,2.513021 z" />
    <path
       id="path25"
       style=""
       d="m 276.54893,16.795003 h -6.8099 v 3.736979 q 0,1.171875 0.16927,1.510417 0.16927,0.338541 0.65104,0.338541 0.59896,0 0.79427,-0.442708 0.20834,-0.455729 0.20834,-1.744792 v -2.278646 h 4.98698 v 1.276042 q 0,1.601563 -0.20834,2.460938 -0.19531,0.859375 -0.9375,1.835937 -0.74218,0.976562 -1.88802,1.471354 -1.13281,0.481771 -2.85156,0.481771 -1.66667,0 -2.94271,-0.481771 -1.27604,-0.481771 -1.99219,-1.315104 -0.70312,-0.846354 -0.97656,-1.848958 -0.27344,-1.015625 -0.27344,-2.942709 v -5.039062 q 0,-2.265625 0.61198,-3.567708 0.61198,-1.3151043 2.00521,-2.0052085 1.39323,-0.703125 3.20313,-0.703125 2.21354,0 3.64583,0.8463542 1.44531,0.8333333 2.01823,2.2265623 0.58594,1.380208 0.58594,3.893229 z m -5.27344,-2.8125 v -1.263021 q 0,-1.341146 -0.14323,-1.731771 -0.14323,-0.390625 -0.58594,-0.390625 -0.54687,0 -0.67708,0.338542 -0.13021,0.325521 -0.13021,1.783854 v 1.263021 z" />
    <path
       id="path27"
       style=""
       d="m 294.88226,16.795003 h -6.80989 v 3.736979 q 0,1.171875 0.16927,1.510417 0.16927,0.338541 0.65104,0.338541 0.59896,0 0.79427,-0.442708 0.20833,-0.455729 0.20833,-1.744792 v -2.278646 h 4.98698 v 1.276042 q 0,1.601563 -0.20833,2.460938 -0.19531,0.859375 -0.9375,1.835937 -0.74219,0.976562 -1.88802,1.471354 -1.13281,0.481771 -2.85156,0.481771 -1.66667,0 -2.94271,-0.481771 -1.27604,-0.481771 -1.99219,-1.315104 -0.70312,-0.846354 -0.97656,-1.848958 -0.27344,-1.015625 -0.27344,-2.942709 v -5.039062 q 0,-2.265625 0.61198,-3.567708 0.61198,-1.3151043 2.00521,-2.0052085 1.39323,-0.703125 3.20312,-0.703125 2.21354,0 3.64584,0.8463542 1.44531,0.8333333 2.01823,2.2265623 0.58593,1.380208 0.58593,3.893229 z m -5.27343,-2.8125 v -1.263021 q 0,-1.341146 -0.14323,-1.731771 -0.14323,-0.390625 -0.58594,-0.390625 -0.54688,0 -0.67708,0.338542 -0.13021,0.325521 -0.13021,1.783854 v 1.263021 z" />
    <path
       id="path29"
       style=""
       d="M 296.61403,25.128336 V 7.8496905 h 5.24739 V 21.495524 h 1.86198 V 7.8496905 h 5.26042 V 21.495524 h 1.86198 V 7.8496905 h 5.26042 V 21.495524 h 1.11979 v 6.966145 h -3.52865 v -3.333333 z" />
    <path
       id="path31"
       style=""
       d="m 330.45517,16.795003 h -6.8099 v 3.736979 q 0,1.171875 0.16927,1.510417 0.16928,0.338541 0.65105,0.338541 0.59895,0 0.79427,-0.442708 0.20833,-0.455729 0.20833,-1.744792 v -2.278646 h 4.98698 v 1.276042 q 0,1.601563 -0.20833,2.460938 -0.19532,0.859375 -0.9375,1.835937 -0.74219,0.976562 -1.88802,1.471354 -1.13282,0.481771 -2.85157,0.481771 -1.66666,0 -2.94271,-0.481771 -1.27604,-0.481771 -1.99218,-1.315104 -0.70313,-0.846354 -0.97657,-1.848958 -0.27343,-1.015625 -0.27343,-2.942709 v -5.039062 q 0,-2.265625 0.61198,-3.567708 0.61198,-1.3151043 2.0052,-2.0052085 1.39323,-0.703125 3.20313,-0.703125 2.21354,0 3.64583,0.8463542 1.44532,0.8333333 2.01823,2.2265623 0.58594,1.380208 0.58594,3.893229 z m -5.27344,-2.8125 v -1.263021 q 0,-1.341146 -0.14323,-1.731771 -0.14323,-0.390625 -0.58593,-0.390625 -0.54688,0 -0.67709,0.338542 -0.13021,0.325521 -0.13021,1.783854 v 1.263021 z m -1.9401,-10.6770832 v 3.3854166 h -3.39844 V 3.3054198 Z m 5.6901,0 v 3.3854166 h -3.39844 V 3.3054198 Z" />
    <path
       id="path33"
       style=""
       d="m 341.10622,14.893961 h 2.38281 V 11.89917 q 0,-0.755209 -0.19531,-1.002605 -0.19531,-0.247395 -0.61198,-0.247395 -0.49479,0 -0.625,0.442708 -0.11719,0.442708 -0.11719,1.666667 v 1.09375 h -5.23437 v -0.78125 q 0,-1.692709 0.72917,-2.916667 0.74218,-1.2239583 2.03125,-1.7447916 1.28906,-0.5338542 3.46354,-0.5338542 2.77344,0 4.15364,1.2890625 1.39323,1.2890623 1.39323,4.6875003 v 5.039062 q 0,1.653646 -0.19531,2.669271 -0.19531,1.002604 -0.92448,1.901041 -0.71614,0.885417 -1.90104,1.302084 -1.17188,0.416666 -2.90365,0.416666 -1.71875,0 -2.83854,-0.351562 -1.10677,-0.364584 -1.88802,-1.263021 -0.76823,-0.911458 -0.96354,-1.875 -0.18229,-0.976562 -0.18229,-2.486979 v -0.742188 h 4.96094 v 2.135417 q 0,1.015625 0.23437,1.419271 0.2474,0.390625 0.78125,0.390625 0.40365,0 0.61198,-0.299479 0.22135,-0.299479 0.22135,-1.536459 v -3.333333 h -2.38281 z" />
    <path
       id="path35"
       style=""
       d="m 360.62445,7.8496905 v 3.6197915 h -3.00782 v 13.658854 h -5.24739 V 11.469482 H 349.3484 V 7.8496905 Z" />
    <path
       id="path37"
       style=""
       d="m 374.69996,25.128336 h -4.58333 v -9.335937 l -3.65886,9.335937 h -4.79166 V 7.8496905 h 4.58333 v 9.2578125 l 3.59375,-9.2578125 h 4.85677 z" />
    <path
       id="path39"
       style=""
       d="m 386.97862,7.8496905 -2.09636,8.2552085 2.53907,9.023437 h -5.11719 q -0.75521,-3.411458 -1.14584,-5.872396 -0.52083,3.072917 -1.13281,5.872396 h -4.40104 l 2.26563,-9.023437 -2.26563,-8.2552085 h 4.40104 q 1.05469,5.2864585 1.13281,6.0026045 0.75521,-4.4140628 1.14584,-6.0026045 z" />
    <path
       id="path41"
       style=""
       d="m 176.80935,58.461672 h -4.50521 V 46.54761 l -2.1875,11.914062 h -2.87761 L 164.97341,46.54761 V 58.461672 H 160.4682 V 41.183026 h 6.52344 l 1.67969,9.544271 1.52343,-9.544271 h 6.61459 z" />
    <path
       id="path43"
       style=""
       d="m 190.45518,58.461672 h -5.23438 v -6.796875 q -1.01562,0 -1.40625,0.429687 -0.3776,0.429688 -0.3776,1.614584 v 4.752604 h -4.81771 v -4.049479 q 0,-1.549479 0.16927,-2.226563 0.16927,-0.690104 0.76823,-1.080729 0.61198,-0.390625 2.07031,-0.78125 -1.88802,-0.169271 -2.44791,-1.067708 -0.5599,-0.911458 -0.5599,-3.242188 0,-2.578124 1.48438,-3.697916 1.49739,-1.132813 6.45833,-1.132813 h 3.89323 z m -5.23438,-9.791667 v -4.127604 h -0.53385 q -0.57292,0 -0.91146,0.338542 -0.33854,0.325521 -0.33854,1.549479 v 0.221354 q 0,1.25 0.3776,1.640625 0.39063,0.377604 1.40625,0.377604 z" />
    <path
       id="path45"
       style=""
       d="M 192.3432,58.461672 V 41.183026 h 8.26823 v 2.981771 h -3.02083 v 14.296875 z" />
    <path
       id="path47"
       style=""
       d="m 206.75726,41.183026 v 6.71875 q 1.65365,0 1.65365,-1.757812 v -2.929688 q 0,-1.770833 0.58594,-2.03125 h 5.0651 q -0.58594,0.846355 -0.58594,2.5 v 2.408854 q 0,1.263021 -1.02864,2.096355 -0.37761,0.3125 -1.58854,0.885416 -0.78125,0.377604 -1.75782,0.403646 0.45573,0.07813 1.70573,0.429688 2.69531,0.859375 2.69531,3.007812 v 3.033854 q 0,1.666667 0.58594,2.513021 h -5.0651 q -0.58594,-0.794271 -0.58594,-2.03125 v -3.645833 q 0,-1.757813 -1.67969,-1.757813 v 7.434896 h -5.19531 V 41.183026 Z" />
    <path
       id="path49"
       style=""
       d="m 228.24164,58.461672 h -4.58334 v -9.335937 l -3.65885,9.335937 h -4.79167 V 41.183026 h 4.58334 v 9.257813 l 3.59375,-9.257813 h 4.85677 z" />
    <path
       id="path51"
       style=""
       d="m 240.52028,41.183026 -2.09635,8.255209 2.53906,9.023437 h -5.11719 q -0.75521,-3.411458 -1.14583,-5.872396 -0.52083,3.072917 -1.13281,5.872396 h -4.40105 l 2.26563,-9.023437 -2.26563,-8.255209 h 4.40105 q 1.05468,5.286459 1.13281,6.002604 0.75521,-4.414062 1.14583,-6.002604 z" />
    <path
       id="path53"
       style=""
       d="m 265.11664,53.240318 q 0,1.809896 -0.22136,2.903646 -0.20833,1.080729 -0.98958,1.744791 -0.78125,0.651042 -2.38281,0.651042 -2.08334,0 -3.25521,-1.575521 v 3.971354 h -5.22136 v -3.945312 q -1.26302,1.57552 -3.41146,1.57552 -1.40625,0 -2.22656,-0.546874 -0.82031,-0.546875 -1.02864,-1.497396 -0.19532,-0.963542 -0.19532,-2.773438 v -7.291666 q 0,-1.809896 0.22136,-2.890625 0.22135,-1.09375 1.0026,-1.744792 0.78125,-0.664062 2.38281,-0.664062 2.08334,0 3.25521,1.575521 v -4.244792 h 5.22136 v 4.21875 q 1.26302,-1.575521 3.41146,-1.575521 1.40625,0 2.22656,0.546875 0.82031,0.546875 1.01562,1.510417 0.19532,0.950521 0.19532,2.760416 z m -5.2474,1.171875 v -8.216146 q 0,-1.263021 -0.013,-1.536458 -0.013,-0.273438 -0.18229,-0.494792 -0.16927,-0.234375 -0.57292,-0.234375 -0.44271,0 -0.63802,0.325521 -0.19531,0.3125 -0.19531,1.132812 v 8.997396 q 0,1.328125 0.85937,1.328125 0.36459,0 0.54688,-0.260417 0.19531,-0.260416 0.19531,-1.041666 z m -6.82292,-0.104167 V 45.31063 q 0,-1.328124 -0.85937,-1.328124 -0.36459,0 -0.5599,0.260416 -0.18229,0.260417 -0.18229,1.041667 v 8.216145 q 0,1.263021 0.013,1.536459 0.013,0.273437 0.18229,0.507812 0.16927,0.221354 0.57292,0.221354 0.44271,0 0.63802,-0.3125 0.19531,-0.32552 0.19531,-1.145833 z" />
    <path
       id="path55"
       style=""
       d="m 272.22601,41.183026 -0.0911,1.523438 q 0.70312,-0.924479 1.54948,-1.380208 0.84635,-0.45573 1.84895,-0.45573 1.22396,0 2.10938,0.664063 0.89844,0.651042 1.11979,1.510417 0.22136,0.859375 0.22136,2.916666 v 7.278646 q 0,2.356771 -0.28646,3.359375 -0.27344,0.989583 -1.14584,1.588541 -0.85937,0.585938 -2.08333,0.585938 -0.97656,0 -1.8099,-0.455729 -0.83333,-0.455729 -1.52343,-1.354167 v 3.958333 h -5.26042 V 41.183026 Z m 1.4974,5.026042 q 0,-1.601563 -0.11719,-1.940104 -0.11719,-0.338542 -0.65104,-0.338542 -0.52083,0 -0.67708,0.390625 -0.14323,0.390625 -0.14323,1.888021 v 7.161458 q 0,1.5625 0.15625,1.953125 0.15625,0.390625 0.67708,0.390625 0.50781,0 0.625,-0.351562 0.13021,-0.364584 0.13021,-1.744792 z" />
    <path
       id="path57"
       style=""
       d="m 285.42914,47.875735 h -4.9349 V 46.71688 q 0,-2.005208 0.45573,-3.085937 0.46875,-1.09375 1.86198,-1.927083 1.39323,-0.833334 3.61979,-0.833334 2.66927,0 4.02344,0.950521 1.35416,0.9375 1.6276,2.317709 0.27344,1.367187 0.27344,5.651041 v 8.671875 h -5.11719 v -1.536458 q -0.48177,0.924479 -1.25,1.393229 -0.75521,0.455729 -1.80989,0.455729 -1.38021,0 -2.53907,-0.768229 -1.14583,-0.78125 -1.14583,-3.398438 v -1.419271 q 0,-1.940104 0.61198,-2.643229 0.61198,-0.703125 3.03385,-1.640625 2.59115,-1.015625 2.77344,-1.367187 0.18229,-0.351563 0.18229,-1.432292 0,-1.354166 -0.20833,-1.757812 -0.19531,-0.416667 -0.66406,-0.416667 -0.53386,0 -0.66407,0.351563 -0.1302,0.338541 -0.1302,1.783854 z m 1.66666,2.369791 q -1.26302,0.924479 -1.47135,1.549479 -0.19531,0.625 -0.19531,1.796875 0,1.341146 0.16927,1.731771 0.18229,0.390625 0.70312,0.390625 0.49479,0 0.63802,-0.299479 0.15625,-0.3125 0.15625,-1.614583 z" />
    <path
       id="path59"
       style=""
       d="m 306.50986,58.461672 h -5.23438 v -6.367188 h -1.88802 v 6.367188 h -5.22135 V 41.183026 h 5.22135 v 6.210938 h 1.88802 v -6.210938 h 5.23438 z" />
    <path
       id="path61"
       style=""
       d="M 308.38486,58.461672 V 41.183026 h 5.22135 v 13.645833 h 1.86198 V 41.183026 h 5.23438 v 13.645833 h 1.11979 v 6.966146 h -3.51563 v -3.333333 z" />
    <path
       id="path63"
       style=""
       d="m 334.14008,41.183026 -1.51042,12.5 q -0.35156,2.96875 -0.59896,4.049479 -0.23437,1.080729 -0.79427,1.783854 -0.5599,0.703125 -1.5625,1.028646 -0.98958,0.338542 -3.17708,0.338542 h -3.19011 V 58.12313 q 1.22396,0 1.57552,-0.117187 0.35157,-0.130209 0.35157,-0.559896 0,-0.208333 -0.32553,-1.809896 l -2.8776,-14.453125 h 4.77865 l 1.71875,11.653646 0.83333,-11.653646 z" />
    <path
       id="path65"
       style=""
       d="m 344.42652,49.20386 q 1.23698,0.390625 1.82292,1.145833 0.58594,0.755208 0.58594,2.356771 0,1.770833 -0.26042,2.578125 -0.26042,0.79427 -1.01562,1.627604 -0.74219,0.820312 -2.04427,1.184896 -1.30209,0.364583 -2.89063,0.364583 -3.16406,0 -4.42708,-1.236979 -1.26302,-1.236979 -1.26302,-4.492188 v -1.263021 h 4.98698 v 2.434896 q 0,1.302084 0.91145,1.302084 0.48177,0 0.72917,-0.364584 0.26042,-0.377604 0.26042,-1.953125 v -1.09375 q 0,-0.755208 -0.50782,-1.041666 -0.50781,-0.286459 -2.10937,-0.286459 v -2.460937 h 0.40365 q 1.10677,0 1.44531,-0.05208 0.33854,-0.05208 0.54687,-0.364584 0.22136,-0.325521 0.22136,-1.080729 v -0.364583 q 0,-1.106771 -0.2474,-1.40625 -0.23437,-0.299479 -0.6901,-0.299479 -0.96354,0 -0.96354,1.145833 v 1.40625 h -4.98698 v -0.768229 q 0,-2.734375 1.32812,-3.880208 1.34115,-1.158855 4.46615,-1.158855 2.99479,0 4.4401,1.106771 1.44531,1.106771 1.44531,3.424479 0,1.5625 -0.46875,2.330729 -0.46875,0.755209 -1.71875,1.158855 z" />
    <path
       id="path67"
       style=""
       d="m 360.2208,47.706464 h -4.96093 v -1.992188 q 0,-1.041666 -0.16927,-1.40625 -0.16927,-0.377604 -0.625,-0.377604 -0.45573,0 -0.61198,0.325521 -0.15625,0.325521 -0.15625,1.458333 v 8.151042 q 0,0.924479 0.23437,1.393229 0.23438,0.455729 0.69011,0.455729 0.53385,0 0.71614,-0.481771 0.19531,-0.481771 0.19531,-1.822916 v -2.057292 h 4.6875 q -0.013,2.070312 -0.15625,3.111979 -0.1302,1.028646 -0.87239,2.122396 -0.72917,1.080729 -1.91406,1.640625 -1.1849,0.546875 -2.92969,0.546875 -2.22656,0 -3.52865,-0.755208 -1.30208,-0.76823 -1.84896,-2.135417 -0.53385,-1.380208 -0.53385,-3.90625 v -4.908854 q 0,-2.200521 0.44271,-3.320312 0.44271,-1.119792 1.88802,-1.992188 1.44531,-0.885417 3.51562,-0.885417 2.0573,0 3.51563,0.872396 1.45833,0.872396 1.9401,2.200521 0.48177,1.328125 0.48177,3.763021 z" />
    <path
       id="path69"
       style=""
       d="m 366.96559,41.183026 v 6.71875 q 1.65365,0 1.65365,-1.757812 v -2.929688 q 0,-1.770833 0.58593,-2.03125 h 5.06511 q -0.58594,0.846355 -0.58594,2.5 v 2.408854 q 0,1.263021 -1.02864,2.096355 -0.37761,0.3125 -1.58855,0.885416 -0.78125,0.377604 -1.75781,0.403646 0.45573,0.07813 1.70573,0.429688 2.69531,0.859375 2.69531,3.007812 v 3.033854 q 0,1.666667 0.58594,2.513021 h -5.0651 q -0.58594,-0.794271 -0.58594,-2.03125 v -3.645833 q 0,-1.757813 -1.67969,-1.757813 v 7.434896 h -5.19531 V 41.183026 Z" />
    <path
       id="path71"
       style=""
       d="m 388.44996,58.461672 h -4.58333 v -9.335937 l -3.65886,9.335937 h -4.79166 V 41.183026 h 4.58333 v 9.257813 l 3.59375,-9.257813 h 4.85677 z" />
    <path
       id="path73"
       style=""
       d="m 400.72862,41.183026 -2.09636,8.255209 2.53907,9.023437 h -5.11719 q -0.75521,-3.411458 -1.14584,-5.872396 -0.52083,3.072917 -1.13281,5.872396 h -4.40104 l 2.26563,-9.023437 -2.26563,-8.255209 h 4.40104 q 1.05469,5.286459 1.13281,6.002604 0.75521,-4.414062 1.14584,-6.002604 z" />
    <path
       id="path75"
       style=""
       d="m 167.26508,88.253341 v -8.828125 q 0,-1.158854 -0.0651,-1.432291 -0.14323,-0.598959 -0.70312,-0.598959 -0.57292,0 -0.71615,0.61198 -0.0651,0.286458 -0.0651,1.41927 v 8.268229 q 0,1.484375 0.78125,1.484375 0.76823,0 0.76823,-0.924479 z m 1.25,-13.736979 q 3.75,0 3.91927,3.033854 0.0781,1.445313 0.0781,3.177084 v 4.21875 q 0,2.929687 -0.39062,3.997395 -1.14584,3.007813 -5.66407,3.007813 -1.6927,0 -2.21354,-0.05208 -1.09375,-0.143229 -1.86198,-0.664062 -1.22396,-0.846354 -1.6276,-2.304688 -0.28646,-1.067708 -0.28646,-3.398437 V 75.388758 q 0,-2.148437 1.43229,-3.489583 1.43229,-1.354167 3.73698,-1.354167 0.96354,0 2.76042,0.130209 1.79687,0.130208 2.35677,0.130208 0.6901,0 1.17187,-0.15625 v 2.721354 q -0.63802,0.182292 -1.01562,0.182292 -0.70313,0 -2.00521,-0.104167 -1.28906,-0.104167 -1.84896,-0.104167 -1.06771,0 -1.3151,1.015625 -0.0781,0.299479 -0.0781,1.679688 1.25,-1.523438 2.85157,-1.523438 z" />
    <path
       id="path77"
       style=""
       d="m 185.39008,74.516362 -1.51042,12.5 q -0.35156,2.96875 -0.59896,4.049479 -0.23437,1.080729 -0.79427,1.783854 -0.5599,0.703125 -1.5625,1.028646 -0.98958,0.338542 -3.17708,0.338542 h -3.19011 v -2.760417 q 1.22396,0 1.57552,-0.117187 0.35157,-0.130209 0.35157,-0.559896 0,-0.208334 -0.32553,-1.809896 l -2.8776,-14.453125 h 4.77865 l 1.71875,11.653646 0.83333,-11.653646 z" />
    <path
       id="path79"
       style=""
       d="M 194.34841,91.795008 V 78.136154 h -1.86198 v 8.723958 q 0,2.382812 -0.54688,3.411458 -0.54687,1.015625 -1.73177,1.276042 -1.17187,0.247396 -3.85416,0.247396 h -0.85938 v -2.825521 q 1.00261,-0.01302 1.38021,-0.247396 0.3776,-0.247396 0.3776,-1.705729 v -12.5 h 12.31771 v 17.278646 z" />
    <path
       id="path81"
       style=""
       d="m 213.20257,80.58407 v 4.231771 q 0,2.330729 -0.23437,3.424479 -0.23438,1.080729 -1.00261,2.03125 -0.76822,0.9375 -1.97916,1.393229 -1.19792,0.442709 -2.76042,0.442709 -1.74479,0 -2.95573,-0.377604 -1.21093,-0.390625 -1.88802,-1.158855 -0.66406,-0.78125 -0.95052,-1.875 -0.28646,-1.10677 -0.28646,-3.307291 v -4.427083 q 0,-2.408854 0.52084,-3.763021 0.52083,-1.354167 1.875,-2.174479 1.35416,-0.820313 3.46354,-0.820313 1.77083,0 3.03385,0.533854 1.27604,0.520834 1.96615,1.367188 0.6901,0.846354 0.9375,1.744792 0.26041,0.898437 0.26041,2.734374 z m -5.26041,-1.302083 q 0,-1.328125 -0.14323,-1.666666 -0.14323,-0.351563 -0.61198,-0.351563 -0.46875,0 -0.625,0.351563 -0.15625,0.338541 -0.15625,1.666666 v 7.799479 q 0,1.223958 0.15625,1.601563 0.15625,0.364583 0.61198,0.364583 0.46875,0 0.61198,-0.338542 0.15625,-0.338541 0.15625,-1.458333 z" />
    <path
       id="path83"
       style=""
       d="m 220.14268,74.516362 v 6.71875 q 1.65364,0 1.65364,-1.757812 v -2.929688 q 0,-1.770833 0.58594,-2.03125 h 5.0651 q -0.58593,0.846354 -0.58593,2.5 v 2.408854 q 0,1.263021 -1.02865,2.096354 -0.3776,0.3125 -1.58854,0.885417 -0.78125,0.377604 -1.75781,0.403646 0.45573,0.07813 1.70573,0.429687 2.69531,0.859375 2.69531,3.007813 v 3.033854 q 0,1.666667 0.58594,2.513021 h -5.06511 q -0.58594,-0.794271 -0.58594,-2.03125 v -3.645833 q 0,-1.757813 -1.67968,-1.757813 v 7.434896 h -5.19532 V 74.516362 Z" />
    <path
       id="path85"
       style=""
       d="m 248.58018,95.128341 h -3.51563 v -3.333333 h -8.85416 v 3.333333 h -3.51563 v -7.460937 h 1.11979 q 1.00261,-1.549479 1.64063,-4.804688 0.65104,-3.268229 0.65104,-7.708333 v -0.638021 h 11.35417 v 13.125 h 1.11979 z m -6.34115,-7.486979 v -9.231771 h -1.36718 v 0.182292 q 0,4.817708 -1.5625,9.049479 z" />
    <path
       id="path87"
       style=""
       d="m 254.5958,81.20907 h -4.9349 v -1.158854 q 0,-2.005208 0.45573,-3.085937 0.46875,-1.09375 1.86198,-1.927083 1.39323,-0.833334 3.61979,-0.833334 2.66927,0 4.02344,0.950521 1.35417,0.9375 1.62761,2.317708 0.27343,1.367188 0.27343,5.651042 v 8.671875 h -5.11718 v -1.536459 q -0.48178,0.92448 -1.25,1.39323 -0.75521,0.455729 -1.8099,0.455729 -1.38021,0 -2.53906,-0.768229 -1.14584,-0.78125 -1.14584,-3.398438 V 86.52157 q 0,-1.940104 0.61198,-2.643229 0.61198,-0.703125 3.03386,-1.640625 2.59114,-1.015625 2.77343,-1.367187 0.1823,-0.351563 0.1823,-1.432292 0,-1.354166 -0.20834,-1.757812 -0.19531,-0.416667 -0.66406,-0.416667 -0.53385,0 -0.66406,0.351563 -0.13021,0.338541 -0.13021,1.783854 z m 1.66667,2.369792 q -1.26302,0.924479 -1.47136,1.549479 -0.19531,0.625 -0.19531,1.796875 0,1.341146 0.16927,1.731771 0.18229,0.390625 0.70313,0.390625 0.49479,0 0.63802,-0.299479 0.15625,-0.3125 0.15625,-1.614584 z" />
    <path
       id="path89"
       style=""
       d="m 280.20778,87.237716 q 0,2.643229 -1.15886,3.606771 -1.14583,0.950521 -5,0.950521 h -6.02864 V 74.516362 h 6.21094 q 3.1901,0 4.38802,1.054688 1.21093,1.054687 1.21093,3.606771 0,2.929687 -3.04687,3.333333 1.58854,0.260416 2.5,1.25 0.92448,0.976562 0.92448,2.460937 z m -6.96615,-6.302083 q 1.19792,0 1.45834,-0.299479 0.27343,-0.299479 0.27343,-1.184896 0,-0.742187 -0.29948,-1.028646 -0.29947,-0.286458 -1.43229,-0.286458 z m 1.73177,5.494792 v -0.585938 q 0,-1.119792 -0.29948,-1.393229 -0.29947,-0.286458 -1.43229,-0.286458 v 3.997395 q 1.05469,0 1.39323,-0.299479 0.33854,-0.3125 0.33854,-1.432291 z" />
    <path
       id="path91"
       style=""
       d="m 293.95778,86.860112 q 0,2.369792 -0.55989,3.398437 -0.54688,1.028646 -1.73177,1.289063 -1.1849,0.247396 -3.86719,0.247396 H 281.7182 V 74.516362 h 5.22135 v 5.755208 h 0.85938 q 2.51302,0 3.75,0.29948 1.23698,0.299479 1.82292,1.315104 0.58593,1.015625 0.58593,3.216146 z m -5.23437,-0.638021 v -0.690104 q 0,-1.341146 -0.27344,-1.627604 -0.26042,-0.286458 -1.51042,-0.325521 v 4.583333 q 1.04167,0 1.40625,-0.260416 0.37761,-0.273438 0.37761,-1.679688 z m 12.05729,5.572917 h -5.22135 V 74.516362 h 5.22135 z" />
    <path
       id="path93"
       style=""
       d="M 302.6557,91.795008 V 74.516362 h 12.31771 v 17.278646 h -5.23438 V 78.136154 h -1.86198 v 13.658854 z" />
    <path
       id="path95"
       style=""
       d="m 328.78851,83.461675 h -6.80989 v 3.736979 q 0,1.171875 0.16927,1.510416 0.16927,0.338542 0.65104,0.338542 0.59896,0 0.79427,-0.442708 0.20833,-0.45573 0.20833,-1.744792 v -2.278646 h 4.98698 v 1.276042 q 0,1.601562 -0.20833,2.460937 -0.19531,0.859375 -0.9375,1.835938 -0.74219,0.976562 -1.88802,1.471354 -1.13281,0.481771 -2.85156,0.481771 -1.66667,0 -2.94271,-0.481771 -1.27604,-0.481771 -1.99219,-1.315104 -0.70312,-0.846354 -0.97656,-1.848959 -0.27344,-1.015625 -0.27344,-2.942708 v -5.039062 q 0,-2.265625 0.61198,-3.567708 0.61198,-1.315105 2.00521,-2.005209 1.39323,-0.703125 3.20312,-0.703125 2.21354,0 3.64584,0.846354 1.44531,0.833334 2.01823,2.226563 0.58593,1.380208 0.58593,3.893229 z m -5.27343,-2.8125 v -1.263021 q 0,-1.341146 -0.14323,-1.731771 -0.14323,-0.390625 -0.58594,-0.390625 -0.54688,0 -0.67708,0.338542 -0.13021,0.325521 -0.13021,1.783854 v 1.263021 z" />
    <path
       id="path97"
       style=""
       d="M 343.55413,91.795008 H 338.9708 V 82.45907 l -3.65885,9.335938 h -4.79167 V 74.516362 h 4.58333 v 9.257813 l 3.59375,-9.257813 h 4.85677 z m -5.0651,-22.369791 h 2.21354 q -0.0781,1.770833 -1.04167,2.851562 -0.95052,1.080729 -2.65625,1.080729 -1.71875,0 -2.66927,-1.080729 -0.9375,-1.09375 -1.01562,-2.851562 h 2.21354 q 0.15625,1.783854 1.47135,1.783854 1.32813,0 1.48438,-1.783854 z" />
    <path
       id="path99"
       style=""
       d="m 362.09579,91.795008 h -5.24739 v -4.752604 q -0.98958,0.9375 -3.15104,0.9375 -1.4974,0 -2.42188,-0.533855 -0.92448,-0.533854 -1.13281,-1.549479 -0.20833,-1.015625 -0.20833,-3.28125 v -8.098958 h 5.26041 v 8.346354 q 0,1.380209 0.13021,1.861979 0.13021,0.481771 0.69011,0.481771 0.46875,0 0.65104,-0.429687 0.18229,-0.429688 0.18229,-1.731771 v -8.528646 h 5.24739 z" />
    <path
       id="path101"
       style=""
       d="m 368.55413,81.20907 h -4.9349 v -1.158854 q 0,-2.005208 0.45573,-3.085937 0.46875,-1.09375 1.86198,-1.927083 1.39323,-0.833334 3.61979,-0.833334 2.66927,0 4.02344,0.950521 1.35417,0.9375 1.6276,2.317708 0.27344,1.367188 0.27344,5.651042 v 8.671875 h -5.11719 v -1.536459 q -0.48177,0.92448 -1.25,1.39323 -0.7552,0.455729 -1.80989,0.455729 -1.38021,0 -2.53906,-0.768229 -1.14584,-0.78125 -1.14584,-3.398438 V 86.52157 q 0,-1.940104 0.61198,-2.643229 0.61198,-0.703125 3.03386,-1.640625 2.59114,-1.015625 2.77343,-1.367187 0.18229,-0.351563 0.18229,-1.432292 0,-1.354166 -0.20833,-1.757812 -0.19531,-0.416667 -0.66406,-0.416667 -0.53386,0 -0.66406,0.351563 -0.13021,0.338541 -0.13021,1.783854 z m 1.66666,2.369792 q -1.26302,0.924479 -1.47135,1.549479 -0.19531,0.625 -0.19531,1.796875 0,1.341146 0.16927,1.731771 0.18229,0.390625 0.70312,0.390625 0.4948,0 0.63802,-0.299479 0.15625,-0.3125 0.15625,-1.614584 z" />
    <path
       id="path103"
       style=""
       d="m 384.14007,84.828862 h -1.60157 v 6.966146 h -5.24739 V 74.516362 h 5.27343 v 6.692708 h 1.57553 v -0.234375 q 0,-1.536458 0.18229,-2.643229 0.18229,-1.119791 0.91146,-2.057291 0.74218,-0.9375 1.9401,-1.393229 1.19792,-0.46875 2.83854,-0.46875 1.71875,0 3.00781,0.46875 1.28907,0.455729 2.07032,1.367187 0.78125,0.898438 0.9375,1.809896 0.16927,0.911458 0.16927,2.539062 v 4.205729 q 0,2.369792 -0.2474,3.515625 -0.23437,1.132813 -1.08073,1.992188 -0.83333,0.859375 -2.03125,1.184896 -1.19791,0.32552 -3.48958,0.32552 -1.13281,0 -1.88802,-0.130208 -0.74219,-0.130208 -1.4974,-0.651042 -0.75521,-0.520833 -1.17187,-1.315104 -0.41667,-0.794271 -0.53386,-1.770833 -0.11718,-0.976563 -0.11718,-2.565104 z m 6.79687,3.28125 v -8.828125 q 0,-1.197916 -0.11719,-1.601562 -0.11718,-0.416667 -0.65104,-0.416667 -0.53385,0 -0.66406,0.429688 -0.11719,0.416666 -0.11719,1.588541 v 8.268229 q 0,1.497396 0.78125,1.497396 0.33854,0 0.54688,-0.260417 0.22135,-0.273437 0.22135,-0.677083 z" />
  </g>
</svg>
