<?xml version="1.0" encoding="UTF-8" standalone="no"?>
<svg
   xmlns:dc="http://purl.org/dc/elements/1.1/"
   xmlns:cc="http://creativecommons.org/ns#"
   xmlns:rdf="http://www.w3.org/1999/02/22-rdf-syntax-ns#"
   xmlns:svg="http://www.w3.org/2000/svg"
   xmlns="http://www.w3.org/2000/svg"
   id="svg2"
   version="1.1"
   viewBox="160.06403 3.3384698 227.98707 93.469871">
  <metadata
     id="metadata11">
    <rdf:RDF>
      <cc:Work
         rdf:about="">
        <dc:format>image/svg+xml</dc:format>
        <dc:type
           rdf:resource="http://purl.org/dc/dcmitype/StillImage" />
      </cc:Work>
    </rdf:RDF>
  </metadata>
  <defs
     id="defs9" />
  <g
     id="text4521"
     style="font-style:normal;font-variant:normal;font-weight:normal;font-stretch:normal;font-size:26.66666603px;line-height:125%;font-family:'Marker Felt', fantasy;font-variant-ligatures:normal;font-variant-caps:normal;font-variant-numeric:normal;font-feature-settings:normal;text-align:left;letter-spacing:0px;word-spacing:0px;writing-mode:lr-tb;text-anchor:start;fill:#000000;fill-opacity:1;stroke:none;stroke-width:1px;stroke-linecap:butt;stroke-linejoin:miter;stroke-opacity:1"
     aria-label="Съешь же ещё этихмягких французскихбулок да выпей чаю">
    <path
       id="path13"
       style=""
       d="m 165.39737,6.9150031 q -0.69334,0.026667 -1.12,2.6133332 -0.4,2.3999997 -0.4,5.6266667 0,3.093333 0.4,5.093333 0.42666,2.293333 1.22666,2.266667 0.69334,-0.02667 1.25334,-1.573334 0.50666,-1.333333 0.48,-2.24 -0.0267,-0.826666 0.64,-1.28 0.56,-0.426666 1.41333,-0.426666 0.8,0 1.38667,0.373333 0.61333,0.373333 0.64,0.986667 0,0.346666 -0.29334,0.8 -0.34666,0.56 -0.4,0.72 -0.56,1.946666 -1.65333,3.626666 -1.41333,2.133334 -2.93333,2.186667 -2.96,0.106667 -4.58667,-3.04 -1.38667,-2.72 -1.38667,-8.32 0,-4.4799997 1.14667,-7.4133329 1.38667,-3.4933333 4.05333,-3.5733333 2.24,-0.08 3.49334,1.84 1.01333,1.5733333 1.52,3.8399999 0.48,1.2800003 0.50666,1.5733333 0.0533,1.466667 -1.65333,1.466667 -0.98667,0 -1.89333,-0.506667 -0.90667,-0.506667 -0.93334,-1.12 0,-0.106667 0.34667,-1.0666667 -0.21333,-2.5066666 -1.25333,-2.4533332 z" />
    <path
       id="path15"
       style=""
       d="m 178.33653,9.955003 q 1.01334,0 1.73334,0.426667 0.74666,0.426666 0.74666,1.12 0,0.426666 -0.10666,0.853333 -0.10667,0.426667 -0.34667,0.72 l 0.0533,3.066667 q 2.24,-1.173334 4,-1.173334 0.48,0 0.98667,0.213334 0.53333,0.186666 0.96,0.64 0.45333,0.426666 0.74667,1.119999 0.29333,0.666667 0.29333,1.626667 0,1.733333 -0.74667,3.093333 -0.74666,1.36 -1.86666,2.32 -1.09334,0.96 -2.34667,1.466667 -1.25333,0.506667 -2.29333,0.506667 -0.37334,0 -0.98667,-0.213334 -0.58667,-0.213333 -1.14667,-0.506666 -0.56,-0.293334 -0.98666,-0.586667 -0.4,-0.32 -0.4,-0.506667 0,-0.373333 0.34666,-0.96 v -9.546666 l -2.61333,0.533333 q -1.01333,0.346667 -1.46667,0.346667 -0.48,0 -0.72,-0.186667 -0.24,-0.186666 -0.4,-0.72 0,-1.333333 0.34667,-2.24 0.37333,-0.906666 1.09333,-0.906666 0.37334,0 1.06667,0.426666 l 2.61333,-0.453333 q 0.48,-0.48 1.44,-0.48 z m 2.02667,13.146666 q 0.48,-0.106666 1.12,-0.586666 0.66667,-0.506667 1.25333,-1.146667 0.58667,-0.666667 0.98667,-1.386667 0.42667,-0.72 0.42667,-1.306666 0,-0.453334 -0.16,-0.613334 -0.13334,-0.186666 -0.50667,-0.186666 -0.66667,0 -1.54667,0.4 -0.88,0.4 -1.57333,0.906666 z" />
    <path
       id="path17"
       style=""
       d="m 193.49195,10.035003 q 1.76,0 3.01333,1.706667 0.96,1.333333 1.41334,3.333333 0.82666,0.986667 0.69333,1.653333 -0.18667,1.2 -1.94667,1.2 -0.48,0 -0.82666,-0.133333 -0.37334,0.02667 -3.73334,0.293333 0.0533,4.64 1.44,4.64 0.16,0 0.37334,-0.346667 0.24,-0.373333 0.24,-1.12 0,-0.02667 -0.10667,-0.266666 -0.10667,-0.24 -0.10667,-0.426667 0,-0.64 0.74667,-1.066667 0.74667,-0.426666 1.65333,-0.426666 1.78667,0 1.68,1.466666 0,0.266667 -0.37333,1.146667 -0.50667,1.866667 -1.36,2.746667 -1.12,1.173333 -3.33333,1.173333 -2.13334,0 -3.36,-2.853333 -0.96,-2.266667 -0.96,-4.906667 0,-3.226666 0.98666,-5.253333 1.25334,-2.56 3.86667,-2.56 z m 1.12,5.2 q -0.50667,-2.213333 -1.14667,-2.213333 -1.09333,0 -1.28,2.426666 z" />
    <path
       id="path19"
       style=""
       d="m 199.9332,10.62167 q 0.34667,-0.986667 1.57333,-0.986667 1.81334,0 2.56,1.066667 0.24,0.373333 0.24,1.946666 0,0.533334 -0.0267,1.2 -0.0267,0.64 -0.08,1.413334 v 1.413333 q -0.0267,0.613333 -0.0533,0.986666 0,0.373334 0,0.613334 0,0.24 0,0.453333 0,0.186667 0,0.453333 0,2.4 0.56,2.64 1.25334,-1.413333 2.26667,-6.933333 0.08,-0.773333 0.13333,-1.546666 0.08,-0.8 0.18667,-1.466667 0.10667,-0.666667 0.26667,-1.12 0.16,-0.48 0.42666,-0.64 0.56,-0.1866667 1.04,-0.1866667 0.98667,0 1.49334,0.4266667 0.50666,0.4 0.50666,1.44 0,1.413333 -0.29333,2.746667 -0.16,1.999999 -0.16,3.519999 0,1.04 0.0267,1.84 0.0533,0.773334 0.48,1.36 0.77333,-0.533333 1.41333,-1.973333 0.64,-1.44 0.90667,-3.946666 0.18666,-2.72 0.16,-3.306667 0,-0.613333 0,-1.093333 0,-0.346667 0.21333,-0.56 0.24,-0.24 0.53333,-0.373334 0.32,-0.133333 0.66667,-0.1866663 0.34667,-0.053333 0.58667,-0.053333 0.64,0 1.14666,0.3733337 0.53334,0.346666 0.82667,0.8 0.16,0.64 0.16,1.306666 0,0.4 -0.0533,0.8 -0.0533,0.4 -0.16,0.826667 v 8.88 q 0,0.106666 0.10666,0.32 0.10667,0.213333 0.21334,0.426666 0.13333,0.213334 0.24,0.426667 0.10666,0.186667 0.10666,0.293333 0,0.986667 -1.89333,0.986667 -0.74667,0 -1.33333,-0.293333 -0.56,-0.32 -0.56,-0.933334 0,-0.24 0.10666,-0.693333 0.13334,-0.453333 0.13334,-0.746667 v -3.333333 q -0.77334,1.92 -1.12,2.986667 -0.34667,1.04 -1.17334,2.053333 -0.29333,0.64 -0.93333,0.933333 -0.61333,0.293334 -1.09333,0.293334 -0.74667,0 -1.30667,-0.373334 -0.53333,-0.373333 -1.01333,-1.973333 -0.24,-1.146667 -0.29334,-1.573333 -0.0533,-0.453334 -0.10666,-0.88 -0.4,0.88 -0.88,1.706666 -0.45334,0.826667 -0.8,1.493334 -0.32,0.666666 -1.06667,1.066666 -0.74667,0.4 -1.70667,0.4 -1.97333,-0.186666 -2.32,-2.32 -0.08,-1.12 -0.08,-2.266666 0,-1.173334 0.18667,-5.36 V 12.70167 q 0,-0.133334 -0.18667,-0.293334 -0.16,-0.186666 -0.37333,-0.4 -0.18667,-0.213333 -0.34667,-0.426666 -0.16,-0.24 -0.16,-0.453334 0,-0.266666 0.10667,-0.506666 z" />
    <path
       id="path21"
       style=""
       d="m 220.2607,10.38167 q 0.42667,-0.426667 1.38667,-0.426667 1.01333,0 1.76,0.453333 0.74666,0.453334 0.74666,1.146667 0,0.08 -0.08,0.32 -0.0533,0.24 -0.16,0.506667 -0.08,0.266666 -0.21333,0.666666 l 0.0267,3.093334 q 2.24,-1.173334 4,-1.173334 0.48,0 0.98666,0.213334 0.53334,0.186666 0.96,0.64 0.45334,0.426666 0.74667,1.119999 0.29333,0.666667 0.29333,1.626667 0,1.733333 -0.74666,3.093333 -0.74667,1.36 -1.86667,2.32 -1.09333,0.96 -2.34667,1.466667 -1.25333,0.506667 -2.29333,0.506667 -0.37333,0 -0.98667,-0.213334 -0.58666,-0.213333 -1.14666,-0.506666 -0.56,-0.293334 -0.98667,-0.586667 -0.4,-0.32 -0.4,-0.506667 0,-0.373333 0.34667,-0.96 V 12.195003 q -0.24,-0.746667 -0.24,-1.173333 0,-0.426667 0.21333,-0.64 z m 3.41333,12.719999 q 0.48,-0.106666 1.12,-0.586666 0.66667,-0.506667 1.25334,-1.146667 0.58666,-0.666667 0.98666,-1.386667 0.42667,-0.72 0.42667,-1.306666 0,-0.453334 -0.16,-0.613334 -0.13333,-0.186666 -0.50667,-0.186666 -0.66666,0 -1.54666,0.4 -0.88,0.4 -1.57334,0.906666 z" />
    <path
       id="path23"
       style=""
       d="m 256.74278,24.488336 q -0.85333,0.986667 -1.92,0.986667 -0.48,0 -0.8,-0.24 -0.18667,-0.16 -0.32,-0.613334 -0.13333,-0.453333 -0.18667,-0.533333 -1.97333,-2.08 -3.28,-4.08 h -0.90666 v 3.386667 q 0.32,0.64 0.32,1.12 0,0.986666 -1.52,0.986666 -0.8,0 -1.68,-0.453333 -0.88,-0.48 -0.88,-0.853333 0,-0.4 0.34666,-0.986667 v -3.2 h -0.93333 q -1.01333,1.786667 -2.72,4.08 -0.10667,0.426667 -0.53333,1.146667 -0.32,0.24 -0.77334,0.24 -0.85333,0 -1.65333,-0.693334 -0.8,-0.72 -0.8,-1.493333 0,-0.506667 0.42667,-0.853333 0.32,-0.106667 0.72,-0.293334 2.10666,-2.213333 2.77333,-3.973333 -2.42667,-3.866666 -3.06667,-4.986666 -1.17333,-0.426667 -1.17333,-1.2 0,-0.72 0.82667,-1.36 0.82666,-0.6400004 1.6,-0.6400004 0.90666,0 1.25333,1.0400004 l 0.0267,0.133333 q 0.77333,1.36 3.6,5.813333 h 0.42666 v -4.72 q -0.32,-0.586666 -0.32,-0.933333 0,-1.253333 1.76,-1.253333 0.96,0 1.68,0.48 0.74667,0.48 0.74667,1.093333 0,0.293333 -0.45333,1.173333 v 4.16 h 0.4 q 3.12,-4.453333 3.89333,-5.813333 0.37333,-1.1733334 1.25333,-1.1733334 0.77334,0 1.6,0.6400004 0.85334,0.64 0.85334,1.36 0,0.773333 -1.17334,1.2 l -3.33333,4.986666 q 1.09333,1.84 3.28,3.973333 0.26667,0.05333 0.74667,0.293334 0.42666,0.346666 0.42666,0.906666 0,0.56 -0.53333,1.146667 z" />
    <path
       id="path25"
       style=""
       d="m 263.28361,10.035003 q 1.76,0 3.01334,1.706667 0.96,1.333333 1.41333,3.333333 0.82667,0.986667 0.69333,1.653333 -0.18666,1.2 -1.94666,1.2 -0.48,0 -0.82667,-0.133333 -0.37333,0.02667 -3.73333,0.293333 0.0533,4.64 1.44,4.64 0.16,0 0.37333,-0.346667 0.24,-0.373333 0.24,-1.12 0,-0.02667 -0.10667,-0.266666 -0.10666,-0.24 -0.10666,-0.426667 0,-0.64 0.74666,-1.066667 0.74667,-0.426666 1.65334,-0.426666 1.78666,0 1.68,1.466666 0,0.266667 -0.37334,1.146667 -0.50666,1.866667 -1.36,2.746667 -1.12,1.173333 -3.33333,1.173333 -2.13333,0 -3.36,-2.853333 -0.96,-2.266667 -0.96,-4.906667 0,-3.226666 0.98667,-5.253333 1.25333,-2.56 3.86666,-2.56 z m 1.12,5.2 q -0.50666,-2.213333 -1.14666,-2.213333 -1.09334,0 -1.28,2.426666 z" />
    <path
       id="path27"
       style=""
       d="m 281.56486,10.035003 q 1.76,0 3.01334,1.706667 0.96,1.333333 1.41333,3.333333 0.82667,0.986667 0.69333,1.653333 -0.18666,1.2 -1.94666,1.2 -0.48,0 -0.82667,-0.133333 -0.37333,0.02667 -3.73333,0.293333 0.0533,4.64 1.44,4.64 0.16,0 0.37333,-0.346667 0.24,-0.373333 0.24,-1.12 0,-0.02667 -0.10667,-0.266666 -0.10666,-0.24 -0.10666,-0.426667 0,-0.64 0.74666,-1.066667 0.74667,-0.426666 1.65334,-0.426666 1.78666,0 1.68,1.466666 0,0.266667 -0.37334,1.146667 -0.50666,1.866667 -1.36,2.746667 -1.12,1.173333 -3.33333,1.173333 -2.13333,0 -3.36,-2.853333 -0.96,-2.266667 -0.96,-4.906667 0,-3.226666 0.98667,-5.253333 1.25333,-2.56 3.86666,-2.56 z m 1.12,5.2 q -0.50666,-2.213333 -1.14666,-2.213333 -1.09334,0 -1.28,2.426666 z" />
    <path
       id="path29"
       style=""
       d="m 288.00612,10.62167 q 0.34666,-0.986667 1.57333,-0.986667 1.81333,0 2.56,1.066667 0.24,0.373333 0.24,1.946666 0,0.533334 -0.0267,1.2 -0.0267,0.64 -0.08,1.413334 v 1.413333 q -0.0267,0.613333 -0.0533,0.986666 0,0.373334 0,0.613334 v 0.906666 q 0,2.4 0.56,2.64 1.25333,-1.413333 2.26667,-6.933333 0.08,-0.773333 0.13333,-1.546666 0.08,-0.8 0.18667,-1.466667 0.10666,-0.666667 0.26666,-1.12 0.16,-0.48 0.42667,-0.64 0.56,-0.1866667 1.04,-0.1866667 0.98667,0 1.49333,0.4266667 0.50667,0.4 0.50667,1.44 0,1.413333 -0.29333,2.746667 -0.16,1.999999 -0.16,3.519999 0,1.04 0.0267,1.84 0.0533,0.773334 0.48,1.36 0.77334,-0.533333 1.41334,-1.973333 0.64,-1.44 0.90666,-3.946666 0.18667,-2.72 0.16,-3.306667 0,-0.613333 0,-1.093333 0,-0.346667 0.21334,-0.56 0.24,-0.24 0.53333,-0.373334 0.32,-0.133333 0.66667,-0.1866663 0.34666,-0.053333 0.58666,-0.053333 0.64,0 1.14667,0.3733337 0.53333,0.346666 0.82667,0.8 0.16,0.64 0.16,1.306666 0,0.4 -0.0533,0.8 -0.0533,0.4 -0.16,0.826667 v 8.213333 q 0.61334,-0.02667 1.06667,0.266667 0.66667,0.4 0.85333,0.693333 0.21334,0.266667 0.21334,0.586667 0,0.24 -0.45334,1.2 l -1.25333,3.066666 q 0.0533,0.64 0.0533,1.146667 0,0.986667 -1.52,0.986667 -0.4,0 -0.58666,-0.133334 -0.18667,-0.133333 -0.85334,-0.346666 -0.64,-0.186667 -0.90666,-0.426667 -0.24,-0.213333 -0.24,-0.426667 0,-0.373333 0.64,-0.986666 l 1.14666,-2.56 q -0.4,-0.08 -0.72,-0.24 -0.56,-0.32 -0.56,-0.933334 0,-0.24 0.10667,-0.693333 0.13333,-0.453333 0.13333,-0.746667 v -3.333333 q -0.77333,1.92 -1.12,2.986667 -0.34666,1.04 -1.17333,2.053333 -0.29333,0.64 -0.93333,0.933333 -0.61334,0.293334 -1.09334,0.293334 -0.74666,0 -1.30666,-0.373334 -0.53334,-0.373333 -1.01334,-1.973333 -0.24,-1.146667 -0.29333,-1.573333 -0.0533,-0.453334 -0.10667,-0.88 -0.4,0.88 -0.88,1.706666 -0.45333,0.826667 -0.8,1.493334 -0.32,0.666666 -1.06666,1.066666 -0.74667,0.4 -1.70667,0.4 -1.97333,-0.186666 -2.32,-2.32 -0.08,-1.12 -0.08,-2.266666 0,-1.173334 0.18667,-5.36 V 12.70167 q 0,-0.133334 -0.18667,-0.293334 -0.16,-0.186666 -0.37333,-0.4 -0.18667,-0.213333 -0.34667,-0.426666 -0.16,-0.24 -0.16,-0.453334 0,-0.266666 0.10667,-0.506666 z" />
    <path
       id="path31"
       style=""
       d="m 313.6482,9.795003 q 1.76,0 3.01333,1.706667 0.96,1.333333 1.41334,3.333333 0.82666,0.986667 0.69333,1.653333 -0.18667,1.2 -1.94667,1.2 -0.48,0 -0.82666,-0.133333 -0.37334,0.02667 -3.73334,0.293333 0.0533,4.64 1.44,4.64 0.16,0 0.37334,-0.346667 0.24,-0.373333 0.24,-1.12 0,-0.02667 -0.10667,-0.266666 -0.10667,-0.24 -0.10667,-0.426667 0,-0.64 0.74667,-1.066667 0.74667,-0.426666 1.65333,-0.426666 1.78667,0 1.68,1.466666 0,0.266667 -0.37333,1.146667 -0.50667,1.866667 -1.36,2.746667 -1.12,1.173333 -3.33333,1.173333 -2.13334,0 -3.36,-2.853333 -0.96,-2.266667 -0.96,-4.906667 0,-3.226666 0.98666,-5.253333 1.25334,-2.56 3.86667,-2.56 z m 1.12,5.2 q -0.50667,-2.213333 -1.14667,-2.213333 -1.09333,0 -1.28,2.426666 z m 2.34667,-6.88 q -0.26667,0.88 -1.04,0.96 -0.53334,0.053333 -1.01334,-0.1866667 -0.56,-0.24 -0.58666,-0.6933333 0.13333,-0.32 0.26666,-0.9866666 0,-0.32 0,-0.4 0.08,-0.6133333 1.06667,-0.6133333 1.49333,0 1.49333,0.9333333 0,0.32 -0.18666,0.9866666 z m -4.13334,-0.24 q -0.26666,0.9066667 -1.01333,0.9866667 -0.56,0.053333 -1.06667,-0.1866667 -0.50666,-0.2666666 -0.56,-0.72 0.13334,-0.2933333 0.26667,-0.9599999 0,-0.3466667 0,-0.4 0.10667,-0.64 1.09333,-0.64 1.49334,0 1.49334,0.9333333 0,0.32 -0.21334,0.9866666 z" />
    <path
       id="path33"
       style=""
       d="m 331.98278,25.528336 q -2.10666,0 -3.65333,-1.68 -0.56,-0.293333 -0.8,-0.533333 -0.21333,-0.24 -0.21333,-0.613334 0,-0.346666 0.21333,-0.693333 0.24,-0.373333 0.56,-0.666667 0.34667,-0.32 0.72,-0.506666 0.4,-0.213334 0.74667,-0.213334 0.45333,0 0.64,0.32 0.18666,0.293334 0.37333,0.666667 0.18667,0.346667 0.48,0.666667 0.29333,0.293333 0.98667,0.293333 1.2,0 1.49333,-3.6 l -1.97333,0.266667 q -0.77334,0.32 -1.2,0.32 -0.48,0 -0.90667,-0.4 -0.42667,-0.4 -0.42667,-1.013334 0,-0.32 0.13334,-0.72 0.13333,-0.4 0.34666,-0.746666 0.24,-0.373334 0.50667,-0.613333 0.29333,-0.266667 0.61333,-0.266667 0.34667,0 1.06667,0.4 l 2.16,-0.133333 q 0.0267,-0.266667 0.0267,-0.506667 0.0267,-0.266667 0.0267,-0.506667 0,-2.293333 -1.14666,-2.613333 -1.09334,0.08 -1.92,0.906667 -0.21334,1.013333 -0.61334,1.333333 -0.4,0.293333 -0.90666,0.293333 -0.37334,0 -0.74667,-0.16 -0.34667,-0.16 -0.64,-0.426666 -0.29333,-0.266667 -0.48,-0.56 -0.18667,-0.32 -0.18667,-0.613334 0,-0.72 0.90667,-1.146666 2.10667,-2.266667 4.74667,-2.266667 2.26666,0.1333333 3.30666,1.36 1.04,1.226667 1.04,4.24 0,2.826666 -0.98666,7.066666 -1.65334,3.066667 -4.29334,3.066667 z" />
    <path
       id="path35"
       style=""
       d="m 356.58652,25.128336 q -0.34666,0.986667 -1.57333,0.986667 -1.54667,0 -2.29333,-1.066667 -0.4,-0.586667 -0.4,-4.026667 0,-0.506666 0,-1.413333 0.0267,-0.933333 0.0267,-1.306667 0,-1.866666 -0.18666,-1.92 -0.4,-0.16 -2.72,6.666667 0,0.02667 -0.10667,1.28 -0.0533,0.773333 -0.53333,1.04 -0.34667,0.186667 -0.77334,0.186667 -0.77333,0 -1.49333,-0.506667 -0.72,-0.506667 -0.90667,-1.2 -0.26666,-0.986667 -0.24,-3.093333 0.0533,-3.946667 0.0533,-4.08 -0.0267,-1.12 -0.16,-1.146667 -0.61334,1.013333 -1.06667,1.946667 -1.09333,2.24 -1.25333,5.333333 -0.13334,0.32 -0.0267,1.253333 0.10667,0.8 -0.24,1.093334 -0.34667,0.293333 -0.93333,0.293333 -0.64,0 -1.30667,-0.346667 -0.64,-0.373333 -0.93333,-0.826666 -0.42667,-0.666667 -0.48,-5.493334 0,-3.146666 0,-6.293333 -0.0267,-0.266666 -0.21334,-0.746666 -0.18666,-0.48 -0.18666,-0.72 0,-0.24 0.13333,-0.453334 0.34667,-0.533333 1.76,-0.533333 1.73333,0 2.08,0.853333 0.08,0.186667 0.08,0.373334 0,0.24 -0.26667,0.693333 -0.24,0.453333 -0.24,0.746667 v 3.04 q 0.8,-1.68 2.10667,-4.266667 0.16,-0.346667 0.29333,-0.693333 0.16,-0.346667 0.45334,-0.613334 0.29333,-0.2666664 0.98666,-0.2666664 1.06667,0 2.13334,0.4800004 1.09333,0.48 1.12,1.146666 0.0267,0.693334 -0.21334,1.066667 -0.21333,0.346667 -0.21333,0.586667 l -0.0533,5.759999 q 0.42666,-0.96 1.54666,-4.533333 0.88,-2.72 1.33334,-3.04 0.58666,-0.426666 1.73333,-0.426666 2.13333,0 2.21333,1.226666 -0.0267,3.253334 0,10.88 0,0.293333 0.53334,0.72 0.53333,0.4 0.53333,0.853333 0,0.213334 -0.10667,0.506667 z" />
    <path
       id="path37"
       style=""
       d="m 369.08527,12.248336 v 10.586667 q 0.32,0.64 0.32,1.12 0,0.986666 -1.52,0.986666 -0.8,0 -1.68,-0.453333 -0.88,-0.48 -0.88,-0.853333 0,-0.4 0.34667,-0.986667 v -6.426667 q -1.97333,4.026667 -3.68,8.293334 -0.37333,1.226666 -1.73333,1.226666 -0.82667,0 -1.54667,-0.426666 -0.69333,-0.426667 -0.69333,-0.933334 0,-0.373333 0.34666,-0.986666 l -0.26666,-11.226667 q -0.32,-0.586666 -0.32,-0.933333 0,-1.2533334 1.76,-1.2533334 0.96,0 1.68,0.4800004 0.74666,0.48 0.74666,1.093333 0,0.293333 -0.45333,1.173333 v 6.72 q 1.94667,-5.013333 3.89333,-8.373333 -0.0533,-0.186667 -0.0533,-0.346667 0,-1.253333 1.73333,-1.253333 0.93334,0 1.68,0.4533333 0.77334,0.4266667 0.77334,1.1199997 0,0.426667 -0.45334,1.2 z" />
    <path
       id="path39"
       style=""
       d="m 381.3507,12.755003 -2.88,4.693333 3.22666,5.333333 q 1.09334,0.693334 1.09334,1.28 0,0.533334 -0.88,1.013334 -0.74667,0.4 -1.81334,0.4 -1.01333,0 -1.22666,-0.346667 -0.10667,-0.16 -0.10667,-1.146667 l -2.16,-3.786666 -1.65333,2.72 q 0,1.626666 -0.08,1.76 -0.34667,0.693333 -1.33334,0.693333 -0.93333,0 -1.81333,-0.586667 -0.85333,-0.586666 -0.85333,-1.333333 0,-0.72 0.90666,-1.333333 l 3.06667,-5.04 -2.58667,-3.973333 q -0.58666,-0.346667 -0.77333,-0.64 -0.18667,-0.32 -0.18667,-0.64 0,-0.72 0.85334,-1.253334 0.85333,-0.533333 1.81333,-0.533333 1.01333,0 1.41333,0.64 0.10667,0.186667 0.10667,0.746667 l -0.0267,0.8 1.22667,2.106666 1.65333,-2.72 q -0.0267,-0.693333 0.16,-1.04 0.29334,-0.506666 1.54667,-0.506666 0.88,0 1.49333,0.266666 0.72,0.346667 0.72,0.88 0,0.24 -0.13333,0.506667 -0.42667,0.8 -0.77333,1.04 z" />
    <path
       id="path41"
       style=""
       d="m 176.30403,46.141672 0.53334,10.586667 q 0.32,0.64 0.32,1.12 0,0.986666 -1.52,0.986666 -0.4,0 -0.85334,-0.133333 -0.42666,-0.133334 -0.82666,-0.32 -0.37334,-0.213333 -0.64,-0.426667 -0.24,-0.24 -0.24,-0.426666 0,-0.4 0.34666,-0.986667 l -0.53333,-5.28 -2.21333,4.853333 v 0.346667 q 0,0.853333 -0.42667,1.226667 -0.42667,0.373333 -1.57333,0.373333 -1.25334,0 -1.70667,-0.4 -0.42667,-0.4 -0.42667,-1.253333 0,-0.05333 0,-0.133334 0.0267,-0.08 0.0267,-0.16 l -2.32,-5.12 v 5.733334 q 0.32,0.64 0.32,1.12 0,0.986666 -1.52,0.986666 -0.4,0 -0.85333,-0.133333 -0.42667,-0.133334 -0.82667,-0.32 -0.37333,-0.213333 -0.64,-0.426667 -0.24,-0.24 -0.24,-0.426666 0,-0.4 0.34667,-0.986667 v -10.96 q -0.32,-0.56 -0.32,-0.933333 0,-0.32 0.08,-0.533333 0.10666,-0.213334 0.34666,-0.32 0.26667,-0.133334 0.72,-0.186667 0.45334,-0.05333 1.2,-0.08 l 1.38667,-0.02667 q 0.29333,0.05333 0.64,0.32 0.37333,0.24 0.37333,0.613333 0,0.16 -0.0533,0.4 -0.0267,0.24 -0.16,0.613334 l 3.57333,7.973333 3.54667,-7.973333 q -0.21333,-0.773334 -0.21333,-1.04 0,-0.506667 0.56,-0.773333 0.58666,-0.266667 1.44,-0.266667 0.53333,0 1.04,0.133333 0.50666,0.106667 0.88,0.32 0.4,0.186667 0.64,0.506667 0.24,0.293333 0.24,0.64 0,0.48 -0.45334,1.173333 z" />
    <path
       id="path43"
       style=""
       d="m 188.31862,46.088339 v 10.586666 q 0.32,0.64 0.32,1.146667 0,0.986666 -1.52,0.986666 -0.4,0 -0.85334,-0.133333 -0.42666,-0.133333 -0.82666,-0.32 -0.37334,-0.213333 -0.64,-0.426666 -0.24,-0.24 -0.24,-0.453334 0,-0.4 0.34666,-0.986666 v -3.466667 l -2.82666,4.586667 q -0.18667,0.879999 -0.45334,1.119999 -0.24,0.24 -0.82666,0.24 -0.48,0 -0.93334,-0.133333 -0.45333,-0.106667 -0.82666,-0.346667 -0.34667,-0.213333 -0.58667,-0.533333 -0.21333,-0.346666 -0.21333,-0.773333 0,-0.453333 0.29333,-0.8 0.32,-0.373333 1.01333,-0.64 0.77334,-0.853333 1.33334,-1.573333 0.58666,-0.746667 0.90666,-1.333334 -0.48,-0.08 -0.98666,-0.346666 -0.50667,-0.293334 -0.93334,-0.693334 -0.42666,-0.426666 -0.72,-0.96 -0.26666,-0.533333 -0.26666,-1.146666 0,-1.786667 0.82666,-3.04 0.82667,-1.253334 2,-2.026667 1.17334,-0.8 2.42667,-1.146666 1.25333,-0.346667 2.13333,-0.346667 0.50667,0 0.96,0.16 0.48,0.16 0.8,0.426667 0.34667,0.24 0.53334,0.56 0.21333,0.319999 0.21333,0.639999 0,0.186667 -0.45333,1.173334 z m -3.41334,0.613333 q -0.42666,0.133333 -0.90666,0.426667 -0.45334,0.266666 -0.85334,0.666666 -0.37333,0.373334 -0.64,0.8 -0.24,0.426667 -0.24,0.853334 0,0.4 0.37334,0.773333 0.37333,0.373333 0.8,0.373333 0.13333,-0.266666 0.50666,-0.48 0.37334,-0.213333 0.96,-0.213333 z" />
    <path
       id="path45"
       style=""
       d="m 199.0482,46.275005 q -0.4,0.02667 -1.2,-0.266666 l -3.46667,0.426666 0.26667,10.426667 q 0.34667,0.64 0.34667,1.146667 0,0.986666 -1.52,0.986666 -0.82667,0 -1.70667,-0.48 -0.88,-0.48 -0.88,-0.853333 0,-0.373333 0.34667,-0.986667 l -0.26667,-10.08 q -0.48,-0.266666 -0.53333,-0.8 0.37333,-2.293333 2.26666,-2.453333 0.48,0 0.93334,0.133334 l 3.89333,-0.48 q 0.72,-0.453334 1.06667,-0.48 0.58666,-0.02667 1.12,0.773333 0.56,0.8 0.58666,1.493333 0.0533,0.613333 -0.34666,1.04 -0.4,0.426667 -0.90667,0.453333 z" />
    <path
       id="path47"
       style=""
       d="m 211.93112,57.741672 q -0.85334,0.986666 -1.92,0.986666 -0.48,0 -0.8,-0.266666 -0.18667,-0.16 -0.32,-0.586667 -0.10667,-0.453333 -0.18667,-0.56 -1.25333,-1.866666 -2.48,-4.053333 h -1.01333 v 3.36 q 0.32,0.64 0.32,1.146667 0,0.986666 -1.52,0.986666 -0.8,0 -1.68,-0.48 -0.88,-0.48 -0.88,-0.853333 0,-0.373333 0.34666,-0.986667 v -10.96 q -0.32,-0.56 -0.32,-0.933333 0,-1.253333 1.76,-1.253333 0.96,0 1.68,0.48 0.74667,0.48 0.74667,1.093333 0,0.32 -0.45333,1.2 v 4.16 h 0.50666 q 2.85334,-4.48 3.62667,-5.813333 0.37333,-1.2 1.25333,-1.2 0.77334,0 1.6,0.666667 0.85334,0.639999 0.85334,1.333333 0,0.8 -1.17334,1.226666 l -3.06666,4.96 q 1.09333,2.16 2.48,3.973334 0.26666,0.08 0.74666,0.32 0.42667,0.346666 0.42667,0.88 0,0.56 -0.53333,1.173333 z" />
    <path
       id="path49"
       style=""
       d="m 225.33528,45.581672 v 10.586667 q 0.32,0.64 0.32,1.12 0,0.986666 -1.52,0.986666 -0.8,0 -1.68,-0.453333 -0.88,-0.48 -0.88,-0.853333 0,-0.4 0.34667,-0.986667 v -6.426667 q -1.97334,4.026667 -3.68,8.293334 -0.37334,1.226666 -1.73334,1.226666 -0.82666,0 -1.54666,-0.426667 -0.69334,-0.426666 -0.69334,-0.933333 0,-0.373333 0.34667,-0.986666 l -0.26667,-11.226667 q -0.32,-0.586667 -0.32,-0.933333 0,-1.253333 1.76,-1.253333 0.96,0 1.68,0.48 0.74667,0.48 0.74667,1.093333 0,0.293333 -0.45333,1.173333 v 6.72 q 1.94666,-5.013333 3.89333,-8.373333 -0.0533,-0.186667 -0.0533,-0.346667 0,-1.253333 1.73333,-1.253333 0.93333,0 1.68,0.453333 0.77333,0.426667 0.77333,1.12 0,0.426667 -0.45333,1.2 z" />
    <path
       id="path51"
       style=""
       d="m 237.6007,46.088339 -2.88,4.693333 3.22666,5.333333 q 1.09334,0.693334 1.09334,1.28 0,0.533334 -0.88,1.013333 -0.74667,0.4 -1.81334,0.4 -1.01333,0 -1.22666,-0.346666 -0.10667,-0.16 -0.10667,-1.146667 l -2.16,-3.786666 -1.65333,2.72 q 0,1.626666 -0.08,1.76 -0.34667,0.693333 -1.33334,0.693333 -0.93333,0 -1.81333,-0.586667 -0.85333,-0.586666 -0.85333,-1.333333 0,-0.72 0.90666,-1.333333 l 3.06667,-5.04 -2.58667,-3.973334 q -0.58666,-0.346666 -0.77333,-0.64 -0.18667,-0.32 -0.18667,-0.64 0,-0.72 0.85334,-1.253333 0.85333,-0.533333 1.81333,-0.533333 1.01333,0 1.41333,0.64 0.10667,0.186667 0.10667,0.746666 l -0.0267,0.8 1.22667,2.106667 1.65333,-2.72 q -0.0267,-0.693333 0.16,-1.04 0.29334,-0.506666 1.54667,-0.506666 0.88,0 1.49333,0.266666 0.72,0.346667 0.72,0.88 0,0.24 -0.13333,0.506667 -0.42667,0.8 -0.77333,1.04 z" />
    <path
       id="path53"
       style=""
       d="m 256.27736,59.075005 v 2.426667 q 0.45334,0.986666 0.45334,1.546666 0,0.773334 -1.46667,0.773334 -0.45333,0 -0.96,-0.133334 -0.50667,-0.133333 -0.96,-0.346666 -0.45333,-0.186667 -0.74667,-0.4 -0.29333,-0.213334 -0.29333,-0.4 0,-0.48 0.50667,-1.306667 v -3.68 q -0.61334,0.56 -1.06667,0.826667 -0.45333,0.24 -1.12,0.24 -0.93333,0 -1.70667,-0.48 -0.77333,-0.506667 -1.33333,-1.333333 -0.53333,-0.826667 -0.82667,-1.866667 -0.29333,-1.04 -0.29333,-2.16 0,-1.466667 0.50667,-2.906667 0.50666,-1.466666 1.25333,-2.613333 0.74667,-1.146667 1.89333,-2.293333 1.17334,-1.173333 2.69334,-1.84 v -3.76 q -0.45334,-0.853333 -0.45334,-1.226667 0,-1.173333 1.81334,-1.173333 0.50666,0 1.01333,0.16 0.50667,0.133333 0.88,0.373333 0.4,0.213334 0.64,0.533334 0.24,0.293333 0.24,0.613333 0,0.32 -0.66667,1.626667 v 3.706666 q 0.53334,-0.506666 1.12,-0.746666 0.61334,-0.24 1.22667,-0.24 0.96,0 1.62667,0.346666 0.69333,0.32 1.25333,1.013333 0.58667,0.693334 0.90667,1.786667 0.34666,1.066667 0.34666,2.533333 0,1.813334 -0.64,3.36 -0.64,1.52 -1.65333,2.826667 -0.98667,1.306667 -1.97333,2.16 -0.98667,0.853333 -2.21334,1.493333 z m 3.04,-10 q 0,-1.44 -0.48,-2.026666 -0.48,-0.586667 -1.25333,-0.586667 -0.37333,0 -0.69333,0.186667 -0.32,0.186666 -0.61334,0.72 v 7.786666 q 0.53334,-0.426666 0.96,-0.933333 0.45334,-0.506667 0.90667,-1.36 0.45333,-0.88 0.8,-1.786667 0.37333,-0.933333 0.37333,-2 z m -6.50666,-2.693333 q -0.61334,0.666667 -0.98667,1.2 -0.34667,0.533333 -0.82667,1.466667 -0.48,0.906666 -0.77333,1.92 -0.29333,1.013333 -0.29333,1.866666 0,1.306667 0.42666,1.893334 0.42667,0.56 1.09334,0.56 0.08,0 0.50666,-0.186667 0.45334,-0.186667 0.85334,-0.853333 z" />
    <path
       id="path55"
       style=""
       d="m 269.79361,59.021672 q -0.88,0 -2.02666,-1.306667 v 2.773333 q 0,0.346667 0.34666,1.066667 0.34667,0.72 0.34667,1.04 0,0.8 -0.85333,1.386667 -0.82667,0.586666 -1.81334,0.586666 -1.86666,0 -1.86666,-1.813333 0,-0.346667 0.16,-0.906667 0.18666,-0.533333 0.18666,-0.72 V 45.928339 q 0,-0.213334 -0.21333,-0.64 -0.21333,-0.453334 -0.21333,-0.72 0,-0.693333 0.72,-1.12 0.61333,-0.346667 1.52,-0.346667 0.74666,0 1.28,0.293334 0.53333,0.266666 0.53333,0.773333 0,0.05333 -0.0267,0.24 1.17334,-1.04 2.4,-1.04 2.05334,0 3.22667,2.186666 1.01333,1.92 1.01333,4.88 0,3.36 -1.22666,5.866667 -1.36,2.72 -3.49334,2.72 z m -0.32,-12.64 q -1.44,0 -1.44,3.893333 0,1.973334 0.42667,3.573334 0.42667,1.68 1.01333,1.68 0.58667,0 1.01334,-1.68 0.42666,-1.573334 0.42666,-3.546667 0,-3.92 -1.44,-3.92 z" />
    <path
       id="path57"
       style=""
       d="m 282.99194,51.261672 q -0.96,0.213333 -2.13333,0.933333 -1.2,0.746667 -1.36,1.573334 -0.10667,0.773333 0.21333,1.253333 0.4,0.586667 0.82667,0.586667 1.09333,-0.133334 1.89333,-1.786667 0.42667,-1.466667 0.56,-2.56 z m -0.53333,-7.946666 q 3.84,0 3.84,4.826666 v 5.306667 q 0,0.773333 0.32,1.786666 0.61333,0.346667 0.98667,0.773334 0.13333,0.293333 0.13333,0.56 0,0.88 -0.98667,1.546666 -0.96,0.666667 -1.92,0.666667 -0.93333,-0.08 -1.2,-0.72 -0.08,-0.426667 -0.0533,-0.906667 -0.0533,-0.293333 -0.18667,-0.613333 -0.72,0.986667 -1.52,1.573333 -0.8,0.56 -2.21333,0.56 -1.65333,0 -2.85333,-1.68 -0.82667,-1.36 -0.82667,-2.773333 0.16,-2.16 2.82667,-3.893333 1.54666,-1.04 4,-2.426667 0.0267,-0.293333 0.0267,-0.56 0,-1.066667 -1.33333,-1.066667 -0.42667,0 -2.05333,1.386667 -0.8,1.093333 -1.49334,1.306667 -0.8,0 -1.38666,-1.013334 -0.58667,-1.013333 -0.58667,-1.6 0,-0.8 1.76,-1.493333 2.37333,-1.413333 4.72,-1.546666 z" />
    <path
       id="path59"
       style=""
       d="m 299.59361,46.088339 v 2.8 q 0.26667,0.533333 0.26667,1.093333 0,0.346667 -0.08,0.693333 -0.08,0.32 -0.18667,0.64 v 4.826667 q 0.32,0.8 0.32,1.12 0,0.986667 -1.52,0.986667 -0.4,0 -0.85333,-0.133334 -0.42667,-0.133333 -0.82667,-0.32 -0.37333,-0.213333 -0.64,-0.426666 -0.24,-0.24 -0.24,-0.426667 0,-0.4 0.34667,-0.986667 v -4 l -3.49333,0.426667 v 4.293333 q 0.34666,0.613334 0.34666,1.12 0,0.986667 -1.52,0.986667 -0.4,0 -0.85333,-0.133334 -0.45333,-0.133333 -0.85333,-0.32 -0.37334,-0.213333 -0.64,-0.426666 -0.24,-0.24 -0.24,-0.426667 0,-0.4 0.34666,-0.986666 v -4.026667 q -0.21333,-0.64 -0.21333,-1.333333 0,-0.293334 0.0267,-0.586667 0.0533,-0.32 0.18666,-0.666667 v -4.346666 q -0.29333,-0.586667 -0.29333,-0.933334 0,-1.253333 1.76,-1.253333 0.48,0 0.90667,0.133334 0.42666,0.133333 0.77333,0.346666 0.34667,0.213334 0.53333,0.506667 0.21334,0.266666 0.21334,0.586666 0,0.346667 -0.48,1.173334 v 3.253333 l 3.49333,-0.426667 v -3.52 q -0.21333,-0.64 -0.21333,-1.04 0,-0.586666 0.34666,-0.799999 0.34667,-0.213334 1.04,-0.213334 1.25334,0 1.97334,0.453334 0.74666,0.426666 0.74666,1.119999 0,0.186667 -0.48,1.173334 z" />
    <path
       id="path61"
       style=""
       d="m 301.84236,44.008339 q 0.0533,-0.586667 0.77334,-0.986667 0.72,-0.426666 1.6,-0.426666 1.30666,0 1.78666,0.826666 -0.0267,1.146667 -0.0533,2.16 0,1.013333 0,1.92 0,6.106667 0.56,6.106667 0.66667,0 2.42667,-7.36 v -1.066667 q 0,-0.96 0.50666,-1.36 0.53334,-0.4 1.06667,-0.4 0.96,0 2.05333,1.04 0.29334,0.32 0.34667,3.146667 -0.0267,-0.05333 -0.0267,8.693333 1.41334,-0.213333 1.65334,0 0.24,0.186667 0.37333,0.453333 0.16,0.24 0.16,0.48 0,0.16 -0.45333,1.2 l -0.74667,2.533333 q 0.32,0.64 0.32,1.146667 0,0.986667 -1.52,0.986667 -0.16,0 -0.58667,-0.133334 -0.42666,-0.133333 -0.88,-0.346666 -0.42666,-0.186667 -0.77333,-0.426667 -0.34667,-0.213333 -0.34667,-0.426667 0,-0.373333 0.37334,-0.986666 l 0.74666,-2 h -0.0267 q -0.18667,0 -0.61334,-0.32 -0.42666,-0.32 -0.64,-0.773333 -0.21333,-0.48 -0.29333,-0.96 -0.0533,-0.506667 -0.0533,-0.88 v -3.68 q -0.85334,1.84 -1.36,3.013333 -0.48,1.173333 -0.90667,1.706667 -0.88,1.839999 -2.69333,1.839999 -0.56,0 -0.98667,-0.346666 -0.4,-0.346667 -0.66667,-1.146667 -0.26666,-0.8 -0.42666,-2.08 -0.13334,-1.28 -0.16,-3.146666 v -6.666667 q 0,-0.05333 -0.10667,-0.16 -0.08,-0.133333 -0.18667,-0.293333 -0.08,-0.16 -0.16,-0.346667 -0.08,-0.213333 -0.08,-0.4 z" />
    <path
       id="path63"
       style=""
       d="m 327.79195,45.181672 q 0.08,0.533333 -0.26667,1.146667 -0.61333,1.013333 -0.64,1.093333 -1.12,2.666667 -3.46666,8.586667 -1.06667,2.826666 -1.33334,5.093333 -0.0533,0.213333 -0.0267,0.933333 0.0267,0.586667 -0.18667,0.88 -0.42667,0.56 -1.28,0.56 -1.52,0 -1.97333,-1.146667 -0.10667,-0.293333 -0.10667,-0.506666 0,-0.266667 0.21333,-0.613334 0.21334,-0.32 0.26667,-0.533333 l 0.64,-3.333333 -3.84,-11.04 q -0.08,-0.213333 -0.42667,-0.88 -0.24,-0.48 -0.24,-0.826667 0,-0.186666 0.0533,-0.373333 0.26666,-0.96 1.81333,-0.96 0.96,0 1.52,0.32 0.66667,0.4 0.77333,1.413333 0.13334,1.653334 0.18667,1.84 l 1.76,5.546667 2.72,-6.88 q 0.0267,-0.08 0.24,-1.173333 0.13333,-0.666667 0.56,-0.906667 0.26667,-0.16 0.61333,-0.16 0.77334,0 1.54667,0.586667 0.77333,0.56 0.88,1.333333 z" />
    <path
       id="path65"
       style=""
       d="m 334.10403,46.168339 q -1.01333,-0.05333 -2.61333,1.493333 -0.69334,0.533333 -1.14667,0.533333 -0.90667,0 -1.54667,-0.666666 -0.64,-0.666667 -0.64,-1.733334 0,-0.666666 0.72,-0.826666 0.58667,-0.106667 1.2,-0.213334 0.50667,-0.266666 2.42667,-1.439999 1.44,-0.72 2.74667,-0.4 1.04,0.373333 1.70666,1.146666 0.69334,0.746667 0.66667,1.813333 -0.18667,1.973334 -1.86667,3.786667 1.94667,0.693333 2.21334,1.893333 0.0533,2.586667 -2.10667,4.96 -2.16,2.346667 -4,2.373333 -1.06667,-0.02667 -2.4,-0.986666 -1.30667,-0.986667 -1.33333,-1.813333 0.0533,-1.653334 1.81333,-1.813334 0.45333,0.05333 0.85333,0.586667 0.37334,0.426667 0.58667,0.56 0.24,0.106667 0.58667,0.16 0.64,-0.05333 1.52,-1.253333 0.90666,-1.2 0.98666,-1.68 0.08,-0.56 -0.24,-0.72 -0.29333,-0.08 -0.66666,0.08 -0.29334,0.213333 -0.4,0.293333 -1.06667,0.88 -1.41334,0.88 -0.85333,0 -1.54666,-0.533333 -0.77334,-0.613334 -0.77334,-1.52 0,-0.56 0.74667,-0.88 1.14667,-0.48 1.2,-0.506667 2.21333,-1.093333 2.8,-2.693333 0.10667,-0.453334 -0.08,-0.88 z" />
    <path
       id="path67"
       style=""
       d="m 344.56278,58.995005 q -2.24,0 -3.41333,-1.76 -1.25333,-1.92 -1.52,-4.906666 -0.0533,-0.72 -0.0533,-1.413334 0,-2.533333 0.85333,-4.693333 1.12,-2.746666 3.36,-2.933333 0.93333,-0.08 1.89333,0.346667 0.98667,0.4 1.54667,1.199999 1.14667,1.733334 1.33333,3.653334 0.0533,0.533333 0,0.96 -0.0533,0.506666 -0.61333,0.8 -0.56,0.266666 -1.25333,0.266666 -0.72,0 -1.01334,-0.293333 -0.45333,-0.426667 -0.56,-1.52 -0.10666,-1.52 -0.16,-1.68 -0.21333,-0.773333 -1.04,-0.773333 -0.37333,0 -0.64,1.44 -0.24,1.413333 -0.24,3.306666 0,2.16 0.32,3.573334 0.37334,1.626666 1.04,1.626666 0.69334,0 1.28,-1.066666 0.53334,-0.96 0.53334,-1.653334 0,-1.28 1.52,-1.28 0.69333,0 1.22666,0.346667 0.53334,0.346667 0.58667,0.933333 0.0267,0.24 -0.50667,1.413334 -1.92,4.133333 -4.48,4.106666 z" />
    <path
       id="path69"
       style=""
       d="m 360.94152,57.741672 q -0.85333,0.986666 -1.92,0.986666 -0.48,0 -0.8,-0.266666 -0.18666,-0.16 -0.32,-0.586667 -0.10666,-0.453333 -0.18666,-0.56 -1.25334,-1.866666 -2.48,-4.053333 h -1.01334 v 3.36 q 0.32,0.64 0.32,1.146667 0,0.986666 -1.52,0.986666 -0.8,0 -1.68,-0.48 -0.88,-0.48 -0.88,-0.853333 0,-0.373333 0.34667,-0.986667 v -10.96 q -0.32,-0.56 -0.32,-0.933333 0,-1.253333 1.76,-1.253333 0.96,0 1.68,0.48 0.74667,0.48 0.74667,1.093333 0,0.32 -0.45334,1.2 v 4.16 h 0.50667 q 2.85333,-4.48 3.62667,-5.813333 0.37333,-1.2 1.25333,-1.2 0.77333,0 1.6,0.666667 0.85333,0.639999 0.85333,1.333333 0,0.8 -1.17333,1.226666 l -3.06667,4.96 q 1.09334,2.16 2.48,3.973334 0.26667,0.08 0.74667,0.32 0.42667,0.346666 0.42667,0.88 0,0.56 -0.53334,1.173333 z" />
    <path
       id="path71"
       style=""
       d="m 374.3457,45.581672 v 10.586667 q 0.32,0.64 0.32,1.12 0,0.986666 -1.52,0.986666 -0.8,0 -1.68,-0.453333 -0.88,-0.48 -0.88,-0.853333 0,-0.4 0.34666,-0.986667 v -6.426667 q -1.97333,4.026667 -3.68,8.293334 -0.37333,1.226666 -1.73333,1.226666 -0.82667,0 -1.54667,-0.426667 -0.69333,-0.426666 -0.69333,-0.933333 0,-0.373333 0.34667,-0.986666 l -0.26667,-11.226667 q -0.32,-0.586667 -0.32,-0.933333 0,-1.253333 1.76,-1.253333 0.96,0 1.68,0.48 0.74667,0.48 0.74667,1.093333 0,0.293333 -0.45334,1.173333 v 6.72 q 1.94667,-5.013333 3.89334,-8.373333 -0.0533,-0.186667 -0.0533,-0.346667 0,-1.253333 1.73334,-1.253333 0.93333,0 1.68,0.453333 0.77333,0.426667 0.77333,1.12 0,0.426667 -0.45333,1.2 z" />
    <path
       id="path73"
       style=""
       d="m 386.6111,46.088339 -2.88,4.693333 3.22667,5.333333 q 1.09333,0.693334 1.09333,1.28 0,0.533334 -0.88,1.013333 -0.74666,0.4 -1.81333,0.4 -1.01333,0 -1.22667,-0.346666 -0.10666,-0.16 -0.10666,-1.146667 l -2.16,-3.786666 -1.65334,2.72 q 0,1.626666 -0.08,1.76 -0.34666,0.693333 -1.33333,0.693333 -0.93333,0 -1.81333,-0.586667 -0.85334,-0.586666 -0.85334,-1.333333 0,-0.72 0.90667,-1.333333 l 3.06667,-5.04 -2.58667,-3.973334 q -0.58667,-0.346666 -0.77333,-0.64 -0.18667,-0.32 -0.18667,-0.64 0,-0.72 0.85333,-1.253333 0.85334,-0.533333 1.81334,-0.533333 1.01333,0 1.41333,0.64 0.10667,0.186667 0.10667,0.746666 l -0.0267,0.8 1.22667,2.106667 1.65333,-2.72 q -0.0267,-0.693333 0.16,-1.04 0.29333,-0.506666 1.54667,-0.506666 0.88,0 1.49333,0.266666 0.72,0.346667 0.72,0.88 0,0.24 -0.13333,0.506667 -0.42667,0.8 -0.77334,1.04 z" />
    <path
       id="path75"
       style=""
       d="m 165.82403,79.928341 q -0.42666,0 -0.77333,0.293334 -0.32,0.266666 -0.56,0.746666 -0.24,0.48 -0.37333,1.146667 -0.10667,0.64 -0.10667,1.386667 0,1.28 0.21333,2.373333 0.21334,1.066666 0.53334,1.84 0.32,0.746666 0.69333,1.173333 0.4,0.426667 0.74667,0.426667 0.42666,0 0.77333,-0.373334 0.37333,-0.373333 0.64,-1.04 0.26667,-0.693333 0.4,-1.626666 0.16,-0.933333 0.16,-2.053333 0,-0.906667 -0.21333,-1.68 -0.18667,-0.8 -0.53334,-1.386667 -0.32,-0.586667 -0.74666,-0.906667 -0.42667,-0.32 -0.85334,-0.32 z m 0.37334,12.32 q -1.14667,0 -2.21334,-0.613333 -1.04,-0.613334 -1.84,-1.84 -0.8,-1.226667 -1.28,-3.066667 -0.45333,-1.84 -0.45333,-4.293333 0,-1.386667 0.10667,-2.72 0.10666,-1.333333 0.4,-2.506667 0.29333,-1.2 0.82666,-2.213333 0.56,-1.04 1.41334,-1.84 0.21333,-0.186667 0.69333,-0.533333 0.50667,-0.373333 1.06667,-0.746667 0.58666,-0.4 1.14666,-0.746666 0.56,-0.346667 0.96,-0.506667 0,-0.186667 0.08,-0.426667 0.08,-0.24 0.24,-0.453333 0.18667,-0.24 0.42667,-0.373333 0.26667,-0.16 0.61333,-0.16 0.42667,0 0.88,0.213333 0.48,0.213333 0.82667,0.533333 0.37333,0.32 0.61333,0.72 0.24,0.4 0.24,0.773334 0,0.4 -0.13333,0.666666 -0.13333,0.266667 -0.37333,0.48 -0.21334,0.186667 -0.53334,0.346667 -0.32,0.16 -0.66666,0.373333 -0.77334,0.453333 -1.78667,0.986667 -1.01333,0.506666 -1.81333,1.066666 -1.68,1.173334 -1.68,2.96 0,0.213334 0.18666,0.213334 0.13334,0 0.29334,-0.16 0.16,-0.186667 0.37333,-0.4 0.61333,-0.613334 1.22667,-0.746667 0.61333,-0.133333 1.38666,-0.133333 0.8,0 1.6,0.426666 0.8,0.426667 1.44,1.306667 0.64,0.853333 1.01334,2.186667 0.4,1.306666 0.4,3.066666 0,1.866667 -0.48,3.386667 -0.45334,1.493333 -1.22667,2.56 -0.77333,1.066666 -1.81333,1.653333 -1.01334,0.56 -2.16,0.56 z" />
    <path
       id="path77"
       style=""
       d="m 185.1357,78.515008 q 0.08,0.533333 -0.26667,1.146667 -0.61333,1.013333 -0.64,1.093333 -1.12,2.666667 -3.46666,8.586666 -1.06667,2.826667 -1.33334,5.093334 -0.0533,0.213333 -0.0267,0.933333 0.0267,0.586667 -0.18667,0.88 -0.42667,0.56 -1.28,0.56 -1.52,0 -1.97333,-1.146667 -0.10667,-0.293333 -0.10667,-0.506666 0,-0.266667 0.21333,-0.613334 0.21334,-0.32 0.26667,-0.533333 l 0.64,-3.333333 -3.84,-11.04 q -0.08,-0.213333 -0.42667,-0.88 -0.24,-0.48 -0.24,-0.826667 0,-0.186666 0.0533,-0.373333 0.26666,-0.96 1.81333,-0.96 0.96,0 1.52,0.32 0.66667,0.4 0.77333,1.413333 0.13334,1.653334 0.18667,1.84 l 1.76,5.546667 2.72,-6.88 q 0.0267,-0.08 0.24,-1.173333 0.13333,-0.666667 0.56,-0.906667 0.26667,-0.16 0.61333,-0.16 0.77334,0 1.54667,0.586667 0.77333,0.56 0.88,1.333333 z" />
    <path
       id="path79"
       style=""
       d="m 193.10112,90.808341 q 0,-0.4 0.34666,-0.986667 l -1.44,-7.546666 -2.10666,7.6 q 0.08,0.533333 0.08,0.826666 0,0.666667 -0.58667,1.093334 -0.56,0.4 -1.30667,0.4 -0.64,0 -1.30666,-0.266667 -0.66667,-0.266667 -1.01334,-0.746667 0,-0.373333 0.18667,-0.72 0.21333,-0.373333 0.85333,-0.666666 l 3.04,-10.293333 q -0.0267,-0.133334 -0.0267,-0.266667 0,-0.133333 0,-0.266667 0,-1.146666 0.64,-1.653333 0.66666,-0.506667 1.78666,-0.506667 0.93334,0 1.62667,0.453334 0.72,0.453333 0.72,1.2 0,0.533333 -0.42667,1.12 l 2.69334,10.453333 q 0.34666,0.666666 0.34666,1.093333 0,0.986667 -1.33333,0.986667 -0.45333,0 -0.93333,-0.133334 -0.48,-0.106666 -0.90667,-0.293333 -0.4,-0.186667 -0.66667,-0.4 -0.26666,-0.24 -0.26666,-0.48 z" />
    <path
       id="path81"
       style=""
       d="m 203.27986,92.141674 q -2.13333,-0.24 -3.46666,-2.693333 -1.28,-2.293333 -1.28,-5.466666 0,-2.32 0.98666,-4.826667 1.01334,-2.533333 2.08,-2.533333 0.21334,0 0.56,0.106666 0.37334,0.08 0.58667,0.08 0.26667,0 0.8,-0.106666 0.56,-0.106667 0.82667,-0.106667 0.34666,0 0.64,0.106667 1.65333,0.64 2.56,2.48 0.96,1.92 0.96,4.8 0,3.546666 -1.28,6.026666 -1.22667,2.293333 -2.72,2.293333 -0.24,0 -0.48,-0.05333 -0.24,-0.05333 -0.77334,-0.106667 z m 0.18667,-13.013333 q -0.88,0 -1.28,2.08 -0.24,1.28 -0.24,2.773334 0,1.413333 0.34667,3.146666 0.45333,2.32 1.2,2.32 0.82666,0 1.30666,-2.32 0.4,-1.92 0.32,-3.12 -0.32,-4.88 -1.65333,-4.88 z" />
    <path
       id="path83"
       style=""
       d="m 220.7332,91.075008 q -0.85333,0.986666 -1.92,0.986666 -0.48,0 -0.8,-0.266666 -0.18667,-0.16 -0.32,-0.586667 -0.10667,-0.453333 -0.18667,-0.56 -1.25333,-1.866667 -2.48,-4.053333 h -1.01333 v 3.36 q 0.32,0.64 0.32,1.146666 0,0.986667 -1.52,0.986667 -0.8,0 -1.68,-0.48 -0.88,-0.48 -0.88,-0.853333 0,-0.373334 0.34667,-0.986667 v -10.96 q -0.32,-0.56 -0.32,-0.933333 0,-1.253333 1.76,-1.253333 0.96,0 1.68,0.48 0.74666,0.48 0.74666,1.093333 0,0.32 -0.45333,1.2 v 4.16 h 0.50667 q 2.85333,-4.48 3.62666,-5.813333 0.37334,-1.2 1.25334,-1.2 0.77333,0 1.6,0.666666 0.85333,0.64 0.85333,1.333334 0,0.8 -1.17333,1.226666 l -3.06667,4.96 q 1.09333,2.16 2.48,3.973333 0.26667,0.08 0.74667,0.32 0.42666,0.346667 0.42666,0.88 0,0.56 -0.53333,1.173334 z" />
    <path
       id="path85"
       style=""
       d="m 241.09736,87.901674 h 0.29334 q 0.50666,0 0.88,0.16 0.37333,0.133334 0.58666,0.346667 0.24,0.186667 0.34667,0.426667 0.10667,0.213333 0.10667,0.4 0,0.133333 -0.45334,1.2 l -0.21333,2.533333 q 0.32,0.64 0.32,1.146667 0,0.986666 -1.52,0.986666 -0.16,0 -0.58667,-0.133333 -0.42666,-0.133333 -0.88,-0.346667 -0.42666,-0.186666 -0.77333,-0.426666 -0.34667,-0.213334 -0.34667,-0.426667 0,-0.373333 0.37334,-0.986667 l 0.21333,-1.76 -6.45333,0.746667 v 1.44 q 0.32,0.64 0.32,1.146667 0,0.986666 -1.52,0.986666 -0.37334,0 -0.82667,-0.133333 -0.45333,-0.133333 -0.85333,-0.346667 -0.37334,-0.186666 -0.64,-0.426666 -0.24,-0.213334 -0.24,-0.426667 0,-0.4 0.34666,-0.986667 v -2.4 q -0.32,-0.56 -0.32,-0.933333 0,-0.32 0.18667,-0.533333 0.18667,-0.213334 0.45333,-0.346667 0.26667,-0.16 0.53334,-0.213333 0.29333,-0.08 0.50666,-0.08 h 0.13334 q 1.06666,-2.853333 2.58666,-9.626667 -0.32,-0.586666 -0.32,-0.933333 0,-1.28 1.76,-1.28 0.26667,0 0.56,0.05333 0.32,0.02667 0.64,0.16 l 0.85334,0.346667 q 0.74666,0.106667 1.41333,0.133333 0.66667,0 1.14667,0.106667 0.48,0.08 0.74666,0.346667 0.29334,0.24 0.29334,0.826666 0,0.08 -0.45334,1.2 z m -4.53333,-8.106666 q 0,0.266667 -0.18667,1.386667 -0.18666,1.093333 -0.85333,3.68 -0.66667,2.586666 -1.01333,3.733333 l 3.17333,-0.346667 -0.69333,-8.32 z" />
    <path
       id="path87"
       style=""
       d="m 251.53361,84.595008 q -0.96,0.213333 -2.13333,0.933333 -1.2,0.746667 -1.36,1.573333 -0.10667,0.773334 0.21333,1.253334 0.4,0.586666 0.82667,0.586666 1.09333,-0.133333 1.89333,-1.786666 0.42667,-1.466667 0.56,-2.56 z m -0.53333,-7.946667 q 3.84,0 3.84,4.826667 v 5.306666 q 0,0.773334 0.32,1.786667 0.61333,0.346667 0.98667,0.773333 0.13333,0.293334 0.13333,0.56 0,0.88 -0.98667,1.546667 -0.96,0.666667 -1.92,0.666667 -0.93333,-0.08 -1.2,-0.72 -0.08,-0.426667 -0.0533,-0.906667 -0.0533,-0.293333 -0.18667,-0.613333 -0.72,0.986666 -1.52,1.573333 -0.8,0.56 -2.21333,0.56 -1.65333,0 -2.85333,-1.68 -0.82667,-1.36 -0.82667,-2.773333 0.16,-2.16 2.82667,-3.893333 1.54666,-1.04 4,-2.426667 0.0267,-0.293333 0.0267,-0.56 0,-1.066667 -1.33333,-1.066667 -0.42667,0 -2.05333,1.386667 -0.8,1.093333 -1.49334,1.306667 -0.8,0 -1.38666,-1.013334 -0.58667,-1.013333 -0.58667,-1.6 0,-0.8 1.76,-1.493333 2.37333,-1.413333 4.72,-1.546667 z" />
    <path
       id="path89"
       style=""
       d="m 272.42861,82.701675 q 2.13334,0.16 2.48,2.266666 0.0533,0.373334 0.0533,0.773334 0,2.586666 -2.21334,4.719999 -2.18666,2.133334 -4.82666,2.133334 -1.46667,0 -2.66667,-0.773334 l 0.0267,0.02667 q -1.25334,-0.8 -1.25334,-1.093333 0,-0.373334 0.34667,-0.986667 V 78.781675 q -0.32,-0.56 -0.32,-0.933334 0,-1.253333 1.76,-1.253333 0.48,0 0.93333,0.08 0.45334,0.08 0.66667,0.08 0.4,0 1.04,-0.133333 1.6,-0.32 2.74667,-0.32 2.61333,0 3.25333,1.546666 0.24,0.586667 0.24,1.2 0,1.893334 -2.26667,3.653334 z m -4.64,-2.88 v 3.066666 q 3.46667,-2.293333 3.46667,-3.813333 0,-0.24 -0.45333,-0.24 -0.58667,0 -1.70667,0.4 -1.09333,0.373333 -1.30667,0.586667 z m 0,6.533333 v 3.413333 q 0.85334,-0.08 2.21334,-1.333333 1.57333,-1.44 1.57333,-2.853333 0,-0.506667 -0.58667,-0.506667 -0.64,0 -1.81333,0.533333 -0.93333,0.4 -1.38667,0.746667 z" />
    <path
       id="path91"
       style=""
       d="m 291.78695,79.448341 v 10.586667 q 0.34666,0.64 0.34666,1.12 0,0.986666 -1.52,0.986666 -0.82666,0 -1.70666,-0.453333 -0.88,-0.48 -0.88,-0.853333 0,-0.4 0.34666,-0.986667 v -10.96 q -0.29333,-0.56 -0.29333,-0.933333 0,-1.253333 1.76,-1.253333 0.93333,0 1.68,0.48 0.74667,0.48 0.74667,1.093333 0,0.32 -0.48,1.173333 z m -15.12,-2.4 q 0.42666,-0.426666 1.38666,-0.426666 1.01334,0 1.76,0.453333 0.74667,0.453333 0.74667,1.146667 0,0.08 -0.08,0.32 -0.0533,0.24 -0.16,0.506666 -0.08,0.266667 -0.21333,0.666667 l 0.0267,3.093333 q 2.24,-1.173333 4,-1.173333 0.48,0 0.98667,0.213333 0.53333,0.186667 0.96,0.64 0.45333,0.426667 0.74667,1.12 0.29333,0.666667 0.29333,1.626667 0,1.733333 -0.74667,3.093333 -0.74666,1.36 -1.86666,2.32 -1.09334,0.96 -2.34667,1.466667 -1.25333,0.506666 -2.29333,0.506666 -0.37334,0 -0.98667,-0.213333 -0.58667,-0.213333 -1.14667,-0.506667 -0.56,-0.293333 -0.98666,-0.586666 -0.4,-0.32 -0.4,-0.506667 0,-0.373333 0.34666,-0.96 V 78.861675 q -0.24,-0.746667 -0.24,-1.173334 0,-0.426666 0.21334,-0.64 z m 3.41333,12.72 q 0.48,-0.106667 1.12,-0.586667 0.66667,-0.506666 1.25333,-1.146666 0.58667,-0.666667 0.98667,-1.386667 0.42667,-0.72 0.42667,-1.306666 0,-0.453334 -0.16,-0.613334 -0.13334,-0.186666 -0.50667,-0.186666 -0.66667,0 -1.54667,0.4 -0.88,0.4 -1.57333,0.906666 z" />
    <path
       id="path93"
       style=""
       d="m 304.08569,79.421675 v 10.586666 q 0.32,0.773333 0.32,1.12 0,0.986667 -1.52,0.986667 -0.8,0 -1.68,-0.48 -0.88,-0.48 -0.88,-0.853334 0,-0.373333 0.34667,-0.96 v -9.919999 l -2.96,0.453333 v 9.493333 q 0.34666,0.96 0.34666,1.28 0,0.986667 -1.52,0.986667 -0.82666,0 -1.70666,-0.48 -0.88,-0.48 -0.88,-0.853334 0,-0.373333 0.34666,-0.96 V 78.861675 q -0.29333,-0.586667 -0.29333,-0.933334 0,-1.253333 1.76,-1.253333 1.12,0 1.86667,0.613333 1.44,-0.266666 4.48,-0.613333 0.77333,-0.02667 1.52,0.32 0.93333,0.453333 0.93333,1.253333 0,0.453334 -0.48,1.173334 z" />
    <path
       id="path95"
       style=""
       d="m 310.99195,76.701675 q 1.76,0 3.01333,1.706666 0.96,1.333334 1.41334,3.333334 0.82666,0.986666 0.69333,1.653333 -0.18667,1.2 -1.94667,1.2 -0.48,0 -0.82666,-0.133333 -0.37334,0.02667 -3.73334,0.293333 0.0533,4.64 1.44,4.64 0.16,0 0.37334,-0.346667 0.24,-0.373333 0.24,-1.12 0,-0.02667 -0.10667,-0.266667 -0.10667,-0.24 -0.10667,-0.426666 0,-0.64 0.74667,-1.066667 0.74667,-0.426666 1.65333,-0.426666 1.78667,0 1.68,1.466666 0,0.266667 -0.37333,1.146667 -0.50667,1.866666 -1.36,2.746666 -1.12,1.173334 -3.33333,1.173334 -2.13334,0 -3.36,-2.853334 -0.96,-2.266666 -0.96,-4.906666 0,-3.226667 0.98666,-5.253333 1.25334,-2.56 3.86667,-2.56 z m 1.12,5.2 q -0.50667,-2.213334 -1.14667,-2.213334 -1.09333,0 -1.28,2.426667 z" />
    <path
       id="path97"
       style=""
       d="m 329.0332,78.915008 v 10.586666 q 0.32,0.64 0.32,1.12 0,0.986667 -1.52,0.986667 -0.8,0 -1.68,-0.453333 -0.88,-0.48 -0.88,-0.853334 0,-0.4 0.34666,-0.986666 v -6.426667 q -1.97333,4.026667 -3.68,8.293333 -0.37333,1.226667 -1.73333,1.226667 -0.82667,0 -1.54667,-0.426667 -0.69333,-0.426666 -0.69333,-0.933333 0,-0.373333 0.34667,-0.986667 l -0.26667,-11.226666 q -0.32,-0.586667 -0.32,-0.933333 0,-1.253334 1.76,-1.253334 0.96,0 1.68,0.48 0.74667,0.48 0.74667,1.093334 0,0.293333 -0.45334,1.173333 v 6.72 q 1.94667,-5.013333 3.89334,-8.373333 -0.0533,-0.186667 -0.0533,-0.346667 0,-1.253333 1.73334,-1.253333 0.93333,0 1.68,0.453333 0.77333,0.426667 0.77333,1.12 0,0.426667 -0.45333,1.2 z m -0.72,-6.88 q 0,0.373334 -0.18667,0.72 -1.33333,2.533333 -4.26667,2.533333 -4.13333,-0.133333 -4.58666,-3.226666 0,-0.933333 0.56,-1.333333 0.58666,-0.426667 1.65333,-0.426667 1.22667,0.16 1.33333,0.826667 0.13334,0.56 -0.13333,0.906666 0.13333,1.04 1.14667,1.066667 1.25333,-0.05333 1.84,-1.12 0.21333,-1.146667 1.49333,-1.146667 0.58667,0.02667 0.85333,0.346667 0.29334,0.293333 0.29334,0.853333 z" />
    <path
       id="path99"
       style=""
       d="m 347.32527,79.315008 v 11.013333 q 0.32,0.64 0.32,1.146667 0,0.986666 -1.52,0.986666 -0.82666,0 -1.70666,-0.48 -0.85334,-0.48 -0.85334,-0.853333 0,-0.373333 0.34667,-0.986667 v -4.453333 q -1.57333,1.866667 -2.72,1.866667 -1.94667,0 -2.72,-2.613333 -0.56,-2 -0.56,-6.373334 0,-0.02667 -0.16,-0.293333 -0.16,-0.266667 -0.16,-0.506667 0,-0.453333 0.69333,-0.8 0.72,-0.346666 1.54667,-0.346666 1.70667,0 1.70667,1.36 0,0.186666 -0.13334,0.506666 -0.10666,0.32 -0.10666,0.506667 0,3.413333 0.0267,3.92 0.0533,1.146667 0.37334,1.146667 0.88,0 1.57333,-2.106667 0.58667,-1.786667 0.64,-3.226667 -0.32,-0.666666 -0.32,-0.933333 0,-1.226667 1.76,-1.226667 0.96,0 1.68,0.48 0.74667,0.453334 0.74667,1.066667 0,0.32 -0.45334,1.2 z" />
    <path
       id="path101"
       style=""
       d="m 356.63778,84.595008 q -0.96,0.213333 -2.13333,0.933333 -1.2,0.746667 -1.36,1.573333 -0.10667,0.773334 0.21333,1.253334 0.4,0.586666 0.82667,0.586666 1.09333,-0.133333 1.89333,-1.786666 0.42667,-1.466667 0.56,-2.56 z m -0.53333,-7.946667 q 3.84,0 3.84,4.826667 v 5.306666 q 0,0.773334 0.32,1.786667 0.61333,0.346667 0.98666,0.773333 0.13334,0.293334 0.13334,0.56 0,0.88 -0.98667,1.546667 -0.96,0.666667 -1.92,0.666667 -0.93333,-0.08 -1.2,-0.72 -0.08,-0.426667 -0.0533,-0.906667 -0.0533,-0.293333 -0.18667,-0.613333 -0.72,0.986666 -1.52,1.573333 -0.8,0.56 -2.21333,0.56 -1.65334,0 -2.85334,-1.68 -0.82666,-1.36 -0.82666,-2.773333 0.16,-2.16 2.82666,-3.893333 1.54667,-1.04 4,-2.426667 0.0267,-0.293333 0.0267,-0.56 0,-1.066667 -1.33333,-1.066667 -0.42667,0 -2.05334,1.386667 -0.8,1.093333 -1.49333,1.306667 -0.8,0 -1.38667,-1.013334 -0.58666,-1.013333 -0.58666,-1.6 0,-0.8 1.76,-1.493333 2.37333,-1.413333 4.72,-1.546667 z" />
    <path
       id="path103"
       style=""
       d="m 372.41277,92.195008 q -1.81333,-0.213334 -3.09333,-2.08 -1.2,-1.786667 -1.54667,-3.333334 l -1.76,0.16 v 3.093334 q 0.34667,0.64 0.34667,1.146666 0,0.96 -1.52,0.96 -0.82667,0 -1.70667,-0.453333 -0.88,-0.48 -0.88,-0.853333 0,-0.373334 0.34667,-0.986667 v -10.96 q -0.29333,-0.56 -0.29333,-0.933333 0,-1.253333 1.76,-1.253333 0.93333,0 1.68,0.48 0.74666,0.48 0.74666,1.093333 0,0.32 -0.48,1.173333 v 4.4 l 1.76,-0.133333 q 0.26667,-3.253333 1.14667,-5.12 0.90667,-1.893333 1.84,-1.893333 0.21333,0 0.56,0.08 0.37333,0.08 0.56,0.08 0.29333,0 0.82667,-0.08 0.56,-0.106667 0.82666,-0.106667 0.34667,0 0.61334,0.106667 1.65333,0.64 2.58666,2.506666 0.96,1.866667 0.96,4.773334 0,3.546666 -1.30666,5.999999 -1.2,2.32 -2.69334,2.32 -0.24,0 -0.50666,-0.05333 -0.24,-0.05333 -0.77334,-0.133333 z m 0.21334,-12.986667 q -0.88,0 -1.28,2.08 -0.24,1.28 -0.24,2.773334 0,1.413333 0.34666,3.146666 0.45334,2.32 1.2,2.32 0.82667,0 1.30667,-2.346667 0.4,-1.893333 0.32,-3.119999 -0.34667,-4.853334 -1.65333,-4.853334 z" />
  </g>
</svg>
