<?xml version="1.0" encoding="UTF-8" standalone="no"?>
<svg
   xmlns:dc="http://purl.org/dc/elements/1.1/"
   xmlns:cc="http://creativecommons.org/ns#"
   xmlns:rdf="http://www.w3.org/1999/02/22-rdf-syntax-ns#"
   xmlns:svg="http://www.w3.org/2000/svg"
   xmlns="http://www.w3.org/2000/svg"
   id="svg2"
   version="1.1"
   viewBox="160.2507 5.4750031 268.33457 91.813338">
  <metadata
     id="metadata11">
    <rdf:RDF>
      <cc:Work
         rdf:about="">
        <dc:format>image/svg+xml</dc:format>
        <dc:type
           rdf:resource="http://purl.org/dc/dcmitype/StillImage" />
      </cc:Work>
    </rdf:RDF>
  </metadata>
  <defs
     id="defs9" />
  <g
     id="text4521"
     style="font-style:normal;font-variant:normal;font-weight:normal;font-stretch:normal;font-size:26.66666603px;line-height:125%;font-family:'New Century Schoolbook', 'TeX Gyre Schola', serif;font-variant-ligatures:normal;font-variant-caps:normal;font-variant-numeric:normal;font-feature-settings:normal;text-align:left;letter-spacing:0px;word-spacing:0px;writing-mode:lr-tb;text-anchor:start;fill:#000000;fill-opacity:1;stroke:none;stroke-width:1px;stroke-linecap:butt;stroke-linejoin:miter;stroke-opacity:1"
     aria-label="Съешь же ещё этихмягких французскихбулок да выпей чаю">
    <path
       id="path13"
       style=""
       d="m 176.5707,5.6883364 h -1.01333 l -1.06667,1.5733333 c -1.89333,-1.3866666 -2.93333,-1.7866666 -4.72,-1.7866666 -2.58667,0 -4.72,1.04 -6.53333,3.1999999 -1.70667,2.026667 -2.50667,4.266667 -2.50667,7.013333 0,5.733333 3.76,9.84 9.01333,9.84 4.26667,0 6.98667,-2.506667 7.6,-6.986667 l -1.25333,-0.213333 c -0.26667,1.413333 -0.58667,2.373333 -1.06667,3.173333 -1.09333,1.84 -2.8,2.773334 -4.96,2.773334 -3.94666,0 -5.81333,-2.746667 -5.81333,-8.48 0,-3.013333 0.4,-5.04 1.30667,-6.64 0.82666,-1.4933333 2.48,-2.4266666 4.18666,-2.4266666 1.86667,0 3.52,0.9866666 4.53334,2.6933333 0.50666,0.8800003 0.90666,1.9200003 1.52,3.9733333 h 1.17333 z" />
    <path
       id="path15"
       style=""
       d="m 179.49487,12.70167 -0.24,4.533333 h 1.06666 c 0.24,-2.4 1.2,-3.36 3.38667,-3.36 h 0.26667 c 1.12,0 1.12,0.746667 1.12,1.466667 v 7.759999 c 0,0.72 -0.21334,1.066667 -1.62667,1.066667 h -0.48 v 0.96 h 6.85333 c 4.61334,0 6.37334,-1.493333 6.37334,-3.6 0,-2.213333 -1.44,-3.44 -7.81334,-3.44 h -0.74666 V 15.34167 c 0,-0.72 -0.26667,-1.466667 1.62666,-1.466667 h 0.48 V 12.70167 Z m 8.16,6.613333 h 0.72 c 2.53333,0 5.22666,0.186666 5.22666,2.16 0,1.973333 -2.08,2.4 -4.90666,2.4 h -0.18667 c -0.74667,0 -0.85333,-0.16 -0.85333,-1.093334 z" />
    <path
       id="path17"
       style=""
       d="m 209.48278,19.128336 c 0.0267,-4 -2.24,-6.826666 -5.49333,-6.826666 -3.41333,0 -5.97333,2.96 -5.97333,6.959999 0,3.733334 2.42666,6.266667 6.02666,6.266667 2.53334,0 4.34667,-1.253333 5.44,-3.786667 l -0.93333,-0.506666 c -1.09333,2.053333 -2.21333,2.853333 -4,2.853333 -1.36,0 -2.34667,-0.586667 -3.04,-1.76 -0.48,-0.8 -0.69333,-1.733333 -0.66667,-3.2 z m -8.61333,-1.146667 c 0,-0.826666 0.10667,-1.413333 0.37333,-2.159999 0.56,-1.6 1.41334,-2.373334 2.69334,-2.373334 1.62666,0 2.69333,1.413334 2.69333,3.546667 0,0.773333 -0.24,0.986666 -1.09333,0.986666 z" />
    <path
       id="path19"
       style=""
       d="m 232.86945,25.128336 v -0.96 h -0.18667 c -1.70667,0 -2,-0.64 -2,-1.706667 v -7.573333 c 0,-1.066666 0.29333,-1.226666 2,-1.226666 h 0.10667 v -0.96 h -6.74667 v 0.96 h 0.10667 c 1.73333,0 2.02666,0.186666 2.02666,1.253333 v 7.573333 c 0,1.066667 -0.0533,1.253333 -2,1.253333 h -2.93333 v -8.826666 c 0,-1.066667 0.29333,-1.253333 2.02667,-1.253333 h 0.10666 v -0.96 h -6.74666 v 0.96 h 0.10666 c 1.70667,0 2,0.186666 2,1.253333 v 8.826666 h -2.88 c -1.92,0 -2.02666,-0.186666 -2.02666,-1.253333 v -7.573333 c 0,-1.066667 0.29333,-1.253333 2.02666,-1.253333 h 0.10667 v -0.96 h -6.74667 v 0.96 h 0.10667 c 1.70667,0 2,0.186666 2,1.253333 v 8 c 0,1.066666 -0.29333,1.253333 -2,1.253333 h -0.18667 v 0.96 z" />
    <path
       id="path21"
       style=""
       d="m 234.05278,12.70167 v 1.413333 h 0.48 c 1.89333,0 1.62667,0.746667 1.62667,1.466667 v 7.519999 c 0,0.72 -0.21334,1.066667 -1.62667,1.066667 h -0.48 v 0.96 h 6.85333 c 4.61334,0 6.37334,-1.493333 6.37334,-3.6 0,-2.213333 -1.44,-3.44 -7.81334,-3.44 h -0.74666 V 15.58167 c 0,-0.72 -0.26667,-1.466667 1.62666,-1.466667 h 0.48 V 12.70167 Z m 4.66667,6.613333 h 0.72 c 2.53333,0 5.22666,0.186666 5.22666,2.16 0,1.973333 -2.08,2.4 -4.90666,2.4 h -0.18667 c -0.74667,0 -0.85333,-0.16 -0.85333,-1.093334 z" />
    <path
       id="path23"
       style=""
       d="m 268.29361,18.275003 v -2.88 c 0,-0.72 -0.18666,-1.76 1.65334,-1.76 h 0.48 V 12.70167 h -6.77334 v 0.933333 h 0.48 c 1.84,0 1.65334,1.04 1.65334,1.76 v 2.88 c -2.90667,0 -3.36,-0.613334 -3.36,-3.093333 0,-1.413334 -1.01334,-2.72 -3.12,-2.72 -1.68,0 -2.56,0.72 -2.56,1.76 0,0.666666 0.50666,1.2 1.36,1.2 0.69333,0 1.22666,-0.293334 1.22666,-0.96 0,-0.666667 -0.42666,-0.613334 -0.42666,-0.826667 0,-0.213333 0.21333,-0.266667 0.61333,-0.266667 0.66667,0 1.6,0.773334 1.6,1.866667 0,1.84 0.64,3.226666 2.34667,3.626666 -2.69334,0.24 -4.13334,1.733334 -4.13334,3.733334 0,1.173333 -0.37333,1.493333 -1.33333,1.493333 -0.58667,0 -1.04,-0.533333 -1.14667,-1.706667 h -1.12 c 0.08,2.053334 1.12,3.013334 3.30667,3.013334 2.10667,0 3.38667,-0.96 3.38667,-3.013334 0,-2.586666 0.34666,-2.933333 3.38666,-2.933333 v 3.013333 c 0,0.746667 0.13334,1.733334 -1.68,1.733334 h -0.48 v 0.933333 h 6.77334 v -0.933333 h -0.48 c -1.81334,0 -1.68,-0.986667 -1.68,-1.733334 v -3.013333 c 3.04,0 3.38666,0.346667 3.38666,2.933333 0,2.053334 1.28,3.013334 3.38667,3.013334 2.18667,0 3.22667,-0.96 3.30667,-3.013334 h -1.12 c -0.10667,1.173334 -0.56,1.706667 -1.14667,1.706667 -0.96,0 -1.33333,-0.32 -1.33333,-1.493333 0,-2 -1.44,-3.493334 -4.13334,-3.733334 1.70667,-0.4 2.34667,-1.786666 2.34667,-3.626666 0,-1.093333 0.93333,-1.866667 1.6,-1.866667 0.4,0 0.61333,0.05333 0.61333,0.266667 0,0.213333 -0.42666,0.16 -0.42666,0.826667 0,0.666666 0.53333,0.96 1.22666,0.96 0.85334,0 1.36,-0.533334 1.36,-1.2 0,-1.04 -0.88,-1.76 -2.56,-1.76 -2.10666,0 -3.12,1.306666 -3.12,2.72 0,2.479999 -0.45333,3.093333 -3.36,3.093333 z" />
    <path
       id="path25"
       style=""
       d="m 290.94111,19.128336 c 0.0267,-4 -2.24,-6.826666 -5.49333,-6.826666 -3.41333,0 -5.97333,2.96 -5.97333,6.959999 0,3.733334 2.42666,6.266667 6.02666,6.266667 2.53334,0 4.34667,-1.253333 5.44,-3.786667 l -0.93333,-0.506666 c -1.09333,2.053333 -2.21333,2.853333 -4,2.853333 -1.36,0 -2.34667,-0.586667 -3.04,-1.76 -0.48,-0.8 -0.69333,-1.733333 -0.66667,-3.2 z m -8.61333,-1.146667 c 0,-0.826666 0.10667,-1.413333 0.37333,-2.159999 0.56,-1.6 1.41334,-2.373334 2.69334,-2.373334 1.62666,0 2.69333,1.413334 2.69333,3.546667 0,0.773333 -0.24,0.986666 -1.09333,0.986666 z" />
    <path
       id="path27"
       style=""
       d="m 311.67028,19.128336 c 0.0267,-4 -2.24,-6.826666 -5.49333,-6.826666 -3.41334,0 -5.97334,2.96 -5.97334,6.959999 0,3.733334 2.42667,6.266667 6.02667,6.266667 2.53333,0 4.34667,-1.253333 5.44,-3.786667 l -0.93333,-0.506666 c -1.09334,2.053333 -2.21334,2.853333 -4,2.853333 -1.36,0 -2.34667,-0.586667 -3.04,-1.76 -0.48,-0.8 -0.69334,-1.733333 -0.66667,-3.2 z m -8.61333,-1.146667 c 0,-0.826666 0.10666,-1.413333 0.37333,-2.159999 0.56,-1.6 1.41333,-2.373334 2.69333,-2.373334 1.62667,0 2.69334,1.413334 2.69334,3.546667 0,0.773333 -0.24,0.986666 -1.09334,0.986666 z" />
    <path
       id="path29"
       style=""
       d="m 325.43027,23.741669 v -8.826666 c 0,-1.066667 0.29334,-1.253333 2.02667,-1.253333 h 0.10667 v -0.96 h -6.74667 v 0.96 h 0.10667 c 1.70666,0 2,0.186666 2,1.253333 v 8.826666 h -2.88 c -1.92,0 -2.02667,-0.186666 -2.02667,-1.253333 v -7.573333 c 0,-1.066667 0.29333,-1.253333 2.02667,-1.253333 h 0.10666 v -0.96 h -6.74666 v 0.96 h 0.10666 c 1.70667,0 2,0.186666 2,1.253333 v 8 c 0,1.066666 -0.29333,1.253333 -2,1.253333 h -0.18666 v 0.96 h 17.49333 c 2.18667,0 3.14667,0.96 3.38667,3.36 h 1.06666 l -0.24,-4.533333 h -0.90666 c -1.22667,0 -1.25334,-0.186667 -1.25334,-1.253334 v -7.786666 c 0,-1.066667 0.29334,-1.253333 2,-1.253333 h 0.10667 v -0.96 h -6.74667 v 0.96 h 0.10667 c 1.73333,0 2.02667,0.186666 2.02667,1.253333 v 7.573333 c 0,1.066667 -0.0533,1.253333 -2,1.253333 z" />
    <path
       id="path31"
       style=""
       d="m 348.07653,19.128336 c 0.0267,-4 -2.24,-6.826666 -5.49333,-6.826666 -3.41334,0 -5.97334,2.96 -5.97334,6.959999 0,3.733334 2.42667,6.266667 6.02667,6.266667 2.53333,0 4.34667,-1.253333 5.44,-3.786667 l -0.93333,-0.506666 c -1.09334,2.053333 -2.21334,2.853333 -4,2.853333 -1.36,0 -2.34667,-0.586667 -3.04,-1.76 -0.48,-0.8 -0.69334,-1.733333 -0.66667,-3.2 z m -8.61333,-1.146667 c 0,-0.826666 0.10666,-1.413333 0.37333,-2.159999 0.56,-1.6 1.41333,-2.373334 2.69333,-2.373334 1.62667,0 2.69334,1.413334 2.69334,3.546667 0,0.773333 -0.24,0.986666 -1.09334,0.986666 z m 0.42666,-10.026666 c -0.72,0 -1.33333,0.6133333 -1.33333,1.3333333 0,0.7199997 0.61333,1.3333337 1.30667,1.3333337 0.74666,0 1.36,-0.586667 1.36,-1.3333337 0,-0.72 -0.61334,-1.3333333 -1.33334,-1.3333333 z m 5.30667,0 c -0.72,0 -1.33333,0.6133333 -1.33333,1.3333333 0,0.7199997 0.61333,1.3333337 1.30666,1.3333337 0.74667,0 1.36,-0.586667 1.36,-1.3333337 0,-0.72 -0.61333,-1.3333333 -1.33333,-1.3333333 z" />
    <path
       id="path33"
       style=""
       d="m 360.9657,24.088336 c -2.02667,0 -2.66667,-0.986667 -2.66667,-1.36 0,-0.426667 1.14667,-0.16 1.14667,-1.226667 0,-0.666666 -0.69333,-1.2 -1.36,-1.2 -0.77333,0 -1.46667,0.8 -1.46667,1.733334 0,1.866666 1.92,3.493333 5.04,3.493333 3.30667,0 5.57334,-2.613333 5.57334,-6.4 0,-3.973333 -2.48,-6.826666 -5.94667,-6.826666 -2.37333,0 -4.16,1.386666 -4.16,3.173333 0,1.066666 0.69333,1.813333 1.62667,1.813333 0.93333,0 1.6,-0.613333 1.6,-1.493333 0,-0.453333 -0.10667,-0.72 -0.53334,-1.226667 -0.10666,-0.16 -0.16,-0.24 -0.16,-0.32 0,-0.426666 0.69334,-0.8 1.49334,-0.8 1.81333,0 3.06666,1.813334 3.25333,4.613333 h -3.41333 v 1.36 h 3.44 c -0.18667,2.746667 -1.49334,4.666667 -3.46667,4.666667 z" />
    <path
       id="path35"
       style=""
       d="m 381.45778,12.70167 h -12.64 l -0.24,4.533333 h 1.06667 c 0.24,-2.4 0.66667,-3.36 2.85333,-3.36 h 0.26667 c 1.12,0 1.12,0.746667 1.12,1.466667 v 7.573333 c 0,1.066666 -0.29333,1.253333 -2,1.253333 h -0.10667 v 0.96 h 6.74667 v -0.96 h -0.10667 c -1.73333,0 -2.02666,-0.186667 -2.02666,-1.253333 V 15.34167 c 0,-0.72 0,-1.466667 1.12,-1.466667 h 0.26666 c 2.18667,0 2.61334,0.96 2.85334,3.36 h 1.06666 z" />
    <path
       id="path37"
       style=""
       d="m 398.0307,12.70167 h -6.93333 v 0.96 h 0.18666 c 1.73334,0 2.02667,0.186666 2.02667,1.253333 v 0.746667 l -5.86667,5.039999 v -5.786666 c 0,-1.066667 0.29334,-1.253333 2,-1.253333 h 0.18667 v -0.96 h -6.88 v 0.96 h 0.18667 c 1.70666,0 2,0.186666 2,1.253333 v 8 c 0,1.066666 -0.29334,1.253333 -2,1.253333 h -0.10667 v 0.96 h 6.74667 v -0.96 h -0.10667 c -1.73333,0 -2.02667,-0.186667 -2.02667,-1.253333 v -0.666667 l 5.86667,-5.04 v 5.706667 c 0,1.066666 -0.29333,1.253333 -2.02667,1.253333 h -0.10666 v 0.96 h 6.74666 v -0.96 h -0.10666 c -1.70667,0 -2,-0.186667 -2,-1.253333 v -8 c 0,-1.066667 0.29333,-1.253333 2.02666,-1.253333 h 0.18667 z" />
    <path
       id="path39"
       style=""
       d="m 406.72903,18.328336 3.04,-3.546666 c 0.64,-0.746667 1.30667,-1.12 2,-1.12 h 0.24 v -0.96 h -5.52 v 0.96 h 0.50667 c 0.8,0 1.2,0.213333 1.2,0.586666 0,0.266667 -0.18667,0.666667 -0.53334,1.093334 l -1.68,1.999999 -2.05333,-2.613333 c -0.16,-0.186666 -0.26667,-0.426666 -0.26667,-0.586666 0,-0.346667 0.34667,-0.48 1.17334,-0.48 h 0.37333 v -0.96 h -6.32 v 0.96 c 0.98667,0.08 1.33333,0.32 2.21333,1.44 l 3.25334,4.106666 -3.06667,3.573333 c -0.74667,0.88 -1.62667,1.386667 -2.4,1.386667 h -0.16 v 0.96 h 5.62667 v -0.96 h -0.4 c -0.61334,0 -0.74667,-0.02667 -0.93334,-0.106667 -0.21333,-0.106666 -0.37333,-0.373333 -0.37333,-0.613333 0,-0.186667 0.08,-0.426667 0.21333,-0.56 l 2.24,-2.693333 2.02667,2.693333 c 0.18667,0.266667 0.34667,0.613333 0.34667,0.8 0,0.346667 -0.4,0.48 -1.41334,0.48 h -0.18666 v 0.96 h 6.72 v -0.96 h -0.18667 c -0.93333,0 -1.62667,-0.373333 -2.32,-1.306667 z" />
    <path
       id="path41"
       style=""
       d="m 173.39737,49.848339 v 6.4 c 0,1.066666 -0.29334,1.253333 -2.02667,1.253333 h -0.10667 v 0.96 h 6.74667 v -0.96 h -0.10667 c -1.70666,0 -2,-0.186667 -2,-1.253333 v -8 c 0,-1.066667 0.29334,-1.253334 2.02667,-1.253334 h 0.18667 v -0.96 h -7.33334 v 0.96 h 0.37334 c 0.93333,0 1.44,0.32 1.44,0.933334 0,0.293333 -0.10667,0.72 -0.24,1.12 l -2.45334,6.186666 -3.04,-7.066666 c -0.08,-0.16 -0.13333,-0.4 -0.13333,-0.56 0,-0.453334 0.34667,-0.613334 1.44,-0.613334 h 0.37333 v -0.96 h -8.29333 v 0.96 h 0.18667 c 1.70666,0 2,0.186667 2,1.253334 v 8 c 0,1.066666 -0.29334,1.253333 -2,1.253333 h -0.10667 v 0.96 h 6.74667 v -0.96 h -0.10667 c -1.73333,0 -2.02667,-0.186667 -2.02667,-1.253333 v -6.4 l 3.86667,9.013333 h 0.93333 z" />
    <path
       id="path43"
       style=""
       d="m 184.13987,52.915005 c -1.14667,0.666667 -1.73334,1.733334 -1.73334,3.013334 0,1.28 -0.69333,1.493333 -1.30666,1.493333 -0.61334,0 -1.06667,-0.533333 -1.17334,-1.706667 h -1.12 c 0.08,2.053334 1.12,3.013333 3.30667,3.013333 2.10667,0 3.41333,-1.146666 3.41333,-3.119999 0,-1.68 0.16,-2.533334 1.28,-2.533334 h 1.38667 v 2.506667 c 0,0.72 0.26667,1.466667 -1.62667,1.466667 h -0.48 v 1.413333 h 6.77334 v -1.413333 h -0.48 c -1.89334,0 -1.62667,-0.746667 -1.62667,-1.466667 v -7.52 c 0,-0.72 0.21333,-1.066667 1.62667,-1.066667 h 0.48 v -0.96 h -6.85334 c -4.61333,0 -6.37333,1.493334 -6.37333,3.6 0,1.733334 1.01333,2.88 4.50667,3.28 z m 4.05333,-1.066666 h -0.72 c -2.53333,0 -5.22667,-0.186667 -5.22667,-2.16 0,-1.973334 2.08,-2.4 4.90667,-2.4 h 0.18667 c 0.74666,0 0.85333,0.16 0.85333,1.093333 z" />
    <path
       id="path45"
       style=""
       d="m 198.61278,48.675005 c 0,-0.72 0,-1.466666 1.12,-1.466666 h 1.04 c 2.18667,0 3.14667,0.96 3.38667,3.36 h 1.06667 l -0.24,-4.533334 h -11.06667 v 0.96 h 0.18667 c 1.70666,0 2,0.186667 2,1.253334 v 8 c 0,1.066666 -0.29334,1.253333 -2,1.253333 h -0.10667 v 0.96 h 6.74667 v -0.96 h -0.10667 c -1.73333,0 -2.02667,-0.186667 -2.02667,-1.253333 z" />
    <path
       id="path47"
       style=""
       d="m 210.9857,51.608339 v -3.36 c 0,-1.066667 0.29333,-1.253334 2,-1.253334 h 0.18666 v -0.96 h -6.88 v 0.96 h 0.18667 c 1.70667,0 2,0.186667 2,1.253334 v 8 c 0,1.066666 -0.29333,1.253333 -2,1.253333 h -0.10667 v 0.96 h 6.74667 v -0.96 h -0.10667 c -1.73333,0 -2.02666,-0.186667 -2.02666,-1.253333 v -3.466667 c 3.49333,0 3.73333,0.72 3.73333,3.2 0,1.893333 1.33333,2.746666 3.44,2.746666 2.18667,0 3.22667,-0.959999 3.30667,-3.013333 h -1.12 c -0.10667,1.173334 -0.42667,1.706667 -1.14667,1.706667 -0.61333,0 -1.33333,-0.346667 -1.33333,-1.493333 0,-2 -1.44,-3.493334 -4.13334,-3.733334 1.81334,-0.24 2.34667,-1.52 2.34667,-3.626666 0,-1.093334 1.06667,-1.866667 1.6,-1.866667 0.48,0 0.58667,0.133333 0.58667,0.24 0,0.293333 -0.50667,0.106667 -0.50667,0.853333 0,0.64 0.64,0.96 1.30667,0.96 0.85333,0 1.36,-0.533333 1.36,-1.226666 0,-1.013334 -0.96,-1.733334 -2.66667,-1.733334 -2.10667,0 -3.04,1.04 -3.04,2.72 0,2.746667 -0.77333,3.093334 -3.73333,3.093334 z" />
    <path
       id="path49"
       style=""
       d="m 237.35361,46.035005 h -6.93333 v 0.96 h 0.18667 c 1.73333,0 2.02666,0.186667 2.02666,1.253334 v 0.746666 l -5.86666,5.04 v -5.786666 c 0,-1.066667 0.29333,-1.253334 2,-1.253334 h 0.18666 v -0.96 h -6.88 v 0.96 h 0.18667 c 1.70667,0 2,0.186667 2,1.253334 v 8 c 0,1.066666 -0.29333,1.253333 -2,1.253333 h -0.10667 v 0.96 h 6.74667 v -0.96 h -0.10667 c -1.73333,0 -2.02666,-0.186667 -2.02666,-1.253333 v -0.666667 l 5.86666,-5.04 v 5.706667 c 0,1.066666 -0.29333,1.253333 -2.02666,1.253333 h -0.10667 v 0.96 h 6.74667 v -0.96 h -0.10667 c -1.70667,0 -2,-0.186667 -2,-1.253333 v -8 c 0,-1.066667 0.29333,-1.253334 2.02667,-1.253334 h 0.18666 z" />
    <path
       id="path51"
       style=""
       d="m 246.05195,51.661672 3.04,-3.546667 c 0.64,-0.746666 1.30667,-1.12 2,-1.12 h 0.24 v -0.96 h -5.52 v 0.96 h 0.50667 c 0.8,0 1.2,0.213334 1.2,0.586667 0,0.266667 -0.18667,0.666667 -0.53334,1.093333 l -1.68,2 -2.05333,-2.613333 c -0.16,-0.186667 -0.26667,-0.426667 -0.26667,-0.586667 0,-0.346666 0.34667,-0.48 1.17334,-0.48 h 0.37333 v -0.96 h -6.32 v 0.96 c 0.98667,0.08 1.33333,0.32 2.21333,1.44 l 3.25334,4.106667 -3.06667,3.573333 c -0.74667,0.88 -1.62667,1.386667 -2.4,1.386667 h -0.16 v 0.96 h 5.62667 v -0.96 h -0.4 c -0.61334,0 -0.74667,-0.02667 -0.93334,-0.106667 -0.21333,-0.106666 -0.37333,-0.373333 -0.37333,-0.613333 0,-0.186667 0.08,-0.426667 0.21333,-0.56 l 2.24,-2.693333 2.02667,2.693333 c 0.18667,0.266667 0.34667,0.613333 0.34667,0.8 0,0.346667 -0.4,0.48 -1.41334,0.48 h -0.18666 v 0.96 h 6.72 v -0.96 h -0.18667 c -0.93333,0 -1.62667,-0.373333 -2.32,-1.306667 z" />
    <path
       id="path53"
       style=""
       d="m 269.47737,47.608339 c -0.98667,-1.36 -2.13334,-1.973334 -3.68,-1.973334 -3.01334,0 -5.30667,2.906667 -5.30667,6.746667 0,3.786667 2.21333,6.48 5.30667,6.48 1.68,0 2.82666,-0.72 3.68,-2.32 v 5.093333 c 0,1.093333 -0.29334,1.253333 -2,1.253333 h -0.10667 v 0.96 h 6.93333 v -0.96 h -0.29333 c -1.73333,0 -2.02667,-0.186666 -2.02667,-1.253333 v -4.933333 c 0.88,1.546667 1.89334,2.16 3.52,2.16 3.09334,0 5.38667,-2.853333 5.38667,-6.666667 0,-3.68 -2.29333,-6.56 -5.22667,-6.56 -1.65333,0 -2.74666,0.693334 -3.68,2.293334 v -7.386667 l -4.61333,0.293334 v 1.146666 h 0.96 c 0.98667,0 1.14667,0.186667 1.14667,1.333334 z m -3.14667,-0.533334 c 1.09333,0 2.13333,0.8 2.61333,2.026667 0.32,0.8 0.50667,1.92 0.50667,3.2 0,3.093333 -1.22667,5.12 -3.14667,5.12 -1.86666,0 -3.01333,-1.76 -3.01333,-4.72 0,-1.573333 0.16,-2.773333 0.50667,-3.68 0.45333,-1.173333 1.44,-1.946667 2.53333,-1.946667 z m 8.85333,0 c 1.84,0 2.90667,1.84 2.90667,4.96 0,3.44 -1.09333,5.386667 -2.98667,5.386667 -1.89333,0 -3.14666,-1.973333 -3.14666,-5.04 0,-3.306667 1.2,-5.306667 3.22666,-5.306667 z" />
    <path
       id="path55"
       style=""
       d="m 287.28653,46.035005 -4.61333,0.293334 v 1.146666 h 0.96 c 0.98666,0 1.14666,0.186667 1.14666,1.333334 v 12.826666 c 0,1.066667 -0.29333,1.253333 -2,1.253333 h -0.10666 v 0.96 h 6.93333 v -0.96 h -0.29333 c -1.73334,0 -2.02667,-0.186666 -2.02667,-1.253333 v -4.933333 c 0.88,1.546667 1.89333,2.16 3.52,2.16 3.09333,0 5.38667,-2.853333 5.38667,-6.666667 0,-3.68 -2.29334,-6.56 -5.22667,-6.56 -1.65333,0 -2.74667,0.693334 -3.68,2.293334 z m 3.2,1.04 c 1.84,0 2.90667,1.84 2.90667,4.96 0,3.44 -1.09334,5.386667 -2.98667,5.386667 -1.89333,0 -3.14667,-1.973333 -3.14667,-5.04 0,-3.306667 1.2,-5.306667 3.22667,-5.306667 z" />
    <path
       id="path57"
       style=""
       d="m 309.29236,49.875005 c 0,-1.68 -0.29333,-2.533333 -1.06666,-3.173333 -0.88,-0.693333 -2.18667,-1.066667 -3.89334,-1.066667 -2.98666,0 -5.2,1.413334 -5.2,3.333334 0,1.013333 0.61334,1.653333 1.54667,1.653333 0.82667,0 1.44,-0.56 1.44,-1.36 0,-0.346667 -0.13333,-0.72 -0.4,-1.093333 -0.16,-0.186667 -0.18667,-0.266667 -0.18667,-0.346667 0,-0.56 1.09334,-1.04 2.37334,-1.04 0.82666,0 1.76,0.266667 2.18666,0.666667 0.50667,0.426666 0.69334,1.066666 0.69334,2.266666 v 1.04 c -2.8,0.48 -3.65334,0.693334 -4.96,1.2 -2.29334,0.853334 -3.41334,2.106667 -3.41334,3.786667 0,1.893333 1.52,3.12 3.86667,3.12 1.84,0 3.49333,-0.746667 4.64,-2.106667 0.42667,1.36 1.09333,1.893333 2.34667,1.893333 1.2,0 2.45333,-0.773333 2.45333,-1.546666 0,-0.186667 -0.13333,-0.32 -0.26667,-0.32 -0.10666,0 -0.21333,0.02667 -0.4,0.106667 -0.42666,0.16 -0.53333,0.186666 -0.74666,0.186666 -0.74667,0 -1.01334,-0.506666 -1.01334,-1.84 z m -2.50666,3.253334 c 0,1.6 -0.08,1.973333 -0.53334,2.666666 -0.66666,0.986667 -1.89333,1.653334 -3.04,1.653334 -1.2,0 -2.10666,-0.88 -2.10666,-2.08 0,-1.12 0.56,-1.92 1.73333,-2.48 0.82667,-0.373334 1.86667,-0.64 3.94667,-0.986667 z" />
    <path
       id="path59"
       style=""
       d="m 328.08278,46.035005 h -6.93333 v 0.96 h 0.18666 c 1.73334,0 2.02667,0.186667 2.02667,1.253334 v 3.146666 h -5.86667 v -3.146666 c 0,-1.066667 0.29334,-1.253334 2,-1.253334 h 0.18667 v -0.96 h -6.88 v 0.96 h 0.18667 c 1.70666,0 2,0.186667 2,1.253334 v 8 c 0,1.066666 -0.29334,1.253333 -2,1.253333 h -0.10667 v 0.96 h 6.74667 v -0.96 h -0.10667 c -1.73333,0 -2.02667,-0.186667 -2.02667,-1.253333 v -3.493334 h 5.86667 v 3.493334 c 0,1.066666 -0.29333,1.253333 -2.02667,1.253333 h -0.10666 v 0.96 h 6.74666 v -0.96 h -0.10666 c -1.70667,0 -2,-0.186667 -2,-1.253333 v -8 c 0,-1.066667 0.29333,-1.253334 2.02666,-1.253334 h 0.18667 z" />
    <path
       id="path61"
       style=""
       d="m 344.48777,57.288339 h -0.90666 c -1.22667,0 -1.25334,-0.186667 -1.25334,-1.253334 v -7.786666 c 0,-1.066667 0.29334,-1.253334 2,-1.253334 h 0.10667 v -0.96 h -6.74667 v 0.96 h 0.10667 c 1.73333,0 2.02667,0.186667 2.02667,1.253334 v 7.573333 c 0,1.066667 -0.0533,1.253333 -2,1.253333 h -1.84 c -1.92,0 -2.02667,-0.186666 -2.02667,-1.253333 v -7.573333 c 0,-1.066667 0.29333,-1.253334 2.02667,-1.253334 h 0.10666 v -0.96 h -6.74666 v 0.96 h 0.10666 c 1.70667,0 2,0.186667 2,1.253334 v 8 c 0,1.066666 -0.29333,1.253333 -2,1.253333 h -0.18666 v 0.96 h 11.01333 c 2.18667,0 3.14667,0.96 3.38667,3.36 h 1.06666 z" />
    <path
       id="path63"
       style=""
       d="m 353.1557,55.075005 -2.93333,-6.853333 c -0.10667,-0.24 -0.16,-0.426667 -0.16,-0.56 0,-0.48 0.32,-0.666667 1.22666,-0.666667 h 0.56 v -0.96 h -6.34666 v 0.96 h 0.29333 c 0.85333,0 1.33333,0.373334 1.81333,1.44 l 4.34667,9.84 -0.45333,0.933333 c -0.96,2.026667 -2.21334,3.44 -3.06667,3.44 -0.24,0 -0.42667,-0.106666 -0.42667,-0.266666 0,-0.05333 0.0267,-0.133334 0.0533,-0.24 0.08,-0.24 0.13333,-0.48 0.13333,-0.693334 0,-0.693333 -0.58667,-1.2 -1.36,-1.2 -0.93333,0 -1.6,0.693334 -1.6,1.653334 0,1.173333 1.04,2.053333 2.42667,2.053333 1.41333,0 2.61333,-0.693333 3.68,-2.133333 0.82666,-1.12 1.36,-2.186667 2.53333,-5.146667 l 3.04,-7.52 c 0.66667,-1.626666 1.22667,-2.16 2.24,-2.16 h 0.16 v -0.96 h -5.33333 v 0.96 h 0.42666 c 1.01334,0 1.44,0.293334 1.44,0.986667 0,0.266667 -0.08,0.613333 -0.26666,1.066667 z" />
    <path
       id="path65"
       style=""
       d="m 361.71861,56.568339 c -0.18667,-0.186667 -0.29334,-0.373334 -0.29334,-0.506667 0,-0.346667 1.2,-0.106667 1.2,-1.226667 0,-0.853333 -0.74666,-1.2 -1.41333,-1.2 -0.77333,0 -1.46667,0.533334 -1.46667,1.733334 0,1.84 1.89334,3.493333 5.04,3.493333 2.90667,0 4.82667,-1.626667 4.82667,-4.106667 0,-1.173333 -0.45333,-2.08 -1.2,-2.693333 -0.16,-0.133333 -0.37333,-0.266667 -0.72,-0.32 0.26667,-0.186667 1.14667,-0.826667 1.14667,-2.56 0,-2.32 -1.68,-3.546667 -4.02667,-3.546667 -1.33333,0 -1.92,0.32 -2.88,1.066667 l -0.77333,-0.96 h -0.93334 v 4.48 h 0.93334 c 0.42666,-1.226667 0.66666,-1.733333 1.2,-2.346667 0.66666,-0.773333 1.28,-1.066666 2.18666,-1.066666 1.49334,0 2.45334,1.093333 2.45334,2.266666 0,1.226667 -0.53334,2.293334 -2.72,2.293334 h -1.06667 v 1.28 h 1.12 c 2.16,0 2.85333,1.28 2.85333,2.266666 0,1.946667 -1.52,2.8 -2.58666,2.8 -2.24,0 -2.88,-1.146666 -2.88,-1.146666 z" />
    <path
       id="path67"
       style=""
       d="m 380.73611,54.541672 c -0.85334,1.92 -1.76,2.693333 -3.14667,2.693333 -2.13333,0 -3.46667,-1.946666 -3.46667,-5.066666 0,-3.226667 1.30667,-5.386667 3.28,-5.386667 0.8,0 1.49334,0.373333 1.49334,0.8 0,0.08 -0.0533,0.16 -0.16,0.32 -0.42667,0.506667 -0.53334,0.773333 -0.53334,1.226667 0,0.88 0.66667,1.493333 1.6,1.493333 0.93334,0 1.62667,-0.746667 1.62667,-1.813333 0,-1.786667 -1.78667,-3.173334 -4.16,-3.173334 -3.46667,0 -5.94667,2.853334 -5.94667,6.826667 0,3.786667 2.26667,6.4 5.57334,6.4 2.37333,0 3.73333,-1.093333 4.88,-3.92 z" />
    <path
       id="path69"
       style=""
       d="m 387.65236,51.608339 v -3.36 c 0,-1.066667 0.29334,-1.253334 2,-1.253334 h 0.18667 v -0.96 h -6.88 v 0.96 h 0.18667 c 1.70666,0 2,0.186667 2,1.253334 v 8 c 0,1.066666 -0.29334,1.253333 -2,1.253333 h -0.10667 v 0.96 h 6.74667 v -0.96 h -0.10667 c -1.73333,0 -2.02667,-0.186667 -2.02667,-1.253333 v -3.466667 c 3.49334,0 3.73334,0.72 3.73334,3.2 0,1.893333 1.33333,2.746666 3.44,2.746666 2.18666,0 3.22666,-0.959999 3.30666,-3.013333 h -1.12 c -0.10666,1.173334 -0.42666,1.706667 -1.14666,1.706667 -0.61334,0 -1.33334,-0.346667 -1.33334,-1.493333 0,-2 -1.44,-3.493334 -4.13333,-3.733334 1.81333,-0.24 2.34667,-1.52 2.34667,-3.626666 0,-1.093334 1.06666,-1.866667 1.6,-1.866667 0.48,0 0.58666,0.133333 0.58666,0.24 0,0.293333 -0.50666,0.106667 -0.50666,0.853333 0,0.64 0.64,0.96 1.30666,0.96 0.85334,0 1.36,-0.533333 1.36,-1.226666 0,-1.013334 -0.96,-1.733334 -2.66666,-1.733334 -2.10667,0 -3.04,1.04 -3.04,2.72 0,2.746667 -0.77334,3.093334 -3.73334,3.093334 z" />
    <path
       id="path71"
       style=""
       d="m 414.02028,46.035005 h -6.93333 v 0.96 h 0.18666 c 1.73334,0 2.02667,0.186667 2.02667,1.253334 v 0.746666 l -5.86667,5.04 v -5.786666 c 0,-1.066667 0.29334,-1.253334 2,-1.253334 h 0.18667 v -0.96 h -6.88 v 0.96 h 0.18667 c 1.70666,0 2,0.186667 2,1.253334 v 8 c 0,1.066666 -0.29334,1.253333 -2,1.253333 h -0.10667 v 0.96 h 6.74667 v -0.96 h -0.10667 c -1.73333,0 -2.02667,-0.186667 -2.02667,-1.253333 v -0.666667 l 5.86667,-5.04 v 5.706667 c 0,1.066666 -0.29333,1.253333 -2.02667,1.253333 h -0.10666 v 0.96 h 6.74666 v -0.96 h -0.10666 c -1.70667,0 -2,-0.186667 -2,-1.253333 v -8 c 0,-1.066667 0.29333,-1.253334 2.02666,-1.253334 h 0.18667 z" />
    <path
       id="path73"
       style=""
       d="m 422.71861,51.661672 3.04,-3.546667 c 0.64,-0.746666 1.30666,-1.12 2,-1.12 h 0.24 v -0.96 h -5.52 v 0.96 h 0.50666 c 0.8,0 1.2,0.213334 1.2,0.586667 0,0.266667 -0.18666,0.666667 -0.53333,1.093333 l -1.68,2 -2.05333,-2.613333 c -0.16,-0.186667 -0.26667,-0.426667 -0.26667,-0.586667 0,-0.346666 0.34667,-0.48 1.17333,-0.48 h 0.37334 v -0.96 h -6.32 v 0.96 c 0.98666,0.08 1.33333,0.32 2.21333,1.44 l 3.25333,4.106667 -3.06666,3.573333 c -0.74667,0.88 -1.62667,1.386667 -2.4,1.386667 h -0.16 v 0.96 h 5.62666 v -0.96 h -0.4 c -0.61333,0 -0.74666,-0.02667 -0.93333,-0.106667 -0.21333,-0.106666 -0.37333,-0.373333 -0.37333,-0.613333 0,-0.186667 0.08,-0.426667 0.21333,-0.56 l 2.24,-2.693333 2.02667,2.693333 c 0.18666,0.266667 0.34666,0.613333 0.34666,0.8 0,0.346667 -0.4,0.48 -1.41333,0.48 h -0.18667 v 0.96 h 6.72 v -0.96 h -0.18666 c -0.93334,0 -1.62667,-0.373333 -2.32,-1.306667 z" />
    <path
       id="path75"
       style=""
       d="m 162.35737,81.021675 c 0.21333,-2.72 0.90666,-4.16 2.50666,-4.16 3.36,0 7.57334,0.05333 7.30667,-4.426667 h -1.12 c -0.29333,1.893333 -1.49333,1.706667 -3.25333,1.706667 -2.72,0 -4.58667,0.05333 -6.08,3.04 -1.25334,2.506666 -1.28,6.026666 -1.28,8.426666 0,3.653333 2.56,6.586667 5.76,6.586667 3.2,0 5.76,-2.933334 5.76,-6.613333 0,-3.653334 -2.56,-6.613334 -5.70667,-6.613334 -1.17333,0 -2.98667,0.506667 -3.89333,2.053334 z m 3.89333,-0.906667 c 1.86667,0 2.90667,1.946667 2.90667,5.466667 0,3.546666 -1.04,5.466666 -2.96,5.466666 -1.92,0 -2.96,-1.92 -2.96,-5.44 0,-3.626666 1.01333,-5.493333 3.01333,-5.493333 z" />
    <path
       id="path77"
       style=""
       d="m 180.86403,88.408341 -2.93333,-6.853333 c -0.10667,-0.24 -0.16,-0.426667 -0.16,-0.56 0,-0.48 0.32,-0.666667 1.22667,-0.666667 h 0.56 v -0.96 h -6.34667 v 0.96 h 0.29333 c 0.85334,0 1.33334,0.373334 1.81334,1.44 l 4.34666,9.84 -0.45333,0.933333 c -0.96,2.026667 -2.21333,3.44 -3.06667,3.44 -0.24,0 -0.42666,-0.106666 -0.42666,-0.266666 0,-0.05333 0.0267,-0.133334 0.0533,-0.24 0.08,-0.24 0.13333,-0.48 0.13333,-0.693334 0,-0.693333 -0.58666,-1.2 -1.36,-1.2 -0.93333,0 -1.6,0.693334 -1.6,1.653334 0,1.173333 1.04,2.053333 2.42667,2.053333 1.41333,0 2.61333,-0.693333 3.68,-2.133333 0.82667,-1.12 1.36,-2.186667 2.53333,-5.146667 l 3.04,-7.52 c 0.66667,-1.626666 1.22667,-2.16 2.24,-2.16 h 0.16 v -0.96 h -5.33333 v 0.96 h 0.42667 c 1.01333,0 1.44,0.293334 1.44,0.986667 0,0.266667 -0.08,0.613333 -0.26667,1.066667 z" />
    <path
       id="path79"
       style=""
       d="m 197.18695,80.808341 h 0.96 c 1.33333,0.02667 1.65333,-0.106666 1.62667,1.173334 v 7.919999 c 0,0.72 -0.69334,0.933334 -1.73334,0.933334 h -0.4 v 0.96 h 6.74667 v -0.96 h -0.48 c -0.77333,0 -1.62667,-0.16 -1.62667,-0.88 v -8.586667 c 0,-0.72 0.29334,-1.04 1.73334,-1.04 h 0.48 v -0.96 h -12.88 v 0.96 h 0.48 c 2.16,0 1.94666,0.96 1.97333,1.653334 v 1.333333 c 0,2.293333 0,4.853333 -0.96,6.426666 -0.42667,0.666667 -0.96,1.04 -1.70667,1.04 -0.42666,0 -0.53333,-0.05333 -0.53333,-0.32 0,-0.293333 0.72,-0.24 0.72,-1.12 0,-0.666666 -0.4,-1.333333 -1.44,-1.333333 -1.01333,0 -1.6,0.666667 -1.6,1.546667 0,1.733333 0.88,2.48 2.93333,2.48 3.65334,0 4.37334,-3.44 4.37334,-8.72 v -1.36 c 0,-0.986667 0.18666,-1.146667 1.33333,-1.146667 z" />
    <path
       id="path81"
       style=""
       d="m 211.66736,78.968341 c -3.25333,0 -5.81333,2.906667 -5.81333,6.64 0,3.653333 2.56,6.586667 5.76,6.586667 3.2,0 5.76,-2.933334 5.76,-6.613333 0,-3.653334 -2.56,-6.613334 -5.70667,-6.613334 z m 0,1.146667 c 1.86667,0 2.90667,1.946667 2.90667,5.466667 0,3.546666 -1.04,5.466666 -2.96,5.466666 -1.92,0 -2.96,-1.92 -2.96,-5.44 0,-3.626666 1.01333,-5.493333 3.01333,-5.493333 z" />
    <path
       id="path83"
       style=""
       d="m 223.69403,84.941675 v -3.36 c 0,-1.066667 0.29334,-1.253334 2,-1.253334 h 0.18667 v -0.96 h -6.88 v 0.96 h 0.18667 c 1.70666,0 2,0.186667 2,1.253334 v 7.999999 c 0,1.066667 -0.29334,1.253334 -2,1.253334 h -0.10667 v 0.96 h 6.74667 v -0.96 h -0.10667 c -1.73333,0 -2.02667,-0.186667 -2.02667,-1.253334 v -3.466666 c 3.49334,0 3.73334,0.72 3.73334,3.2 0,1.893333 1.33333,2.746666 3.44,2.746666 2.18666,0 3.22666,-0.96 3.30666,-3.013333 h -1.12 c -0.10666,1.173333 -0.42666,1.706667 -1.14666,1.706667 -0.61334,0 -1.33334,-0.346667 -1.33334,-1.493334 0,-2 -1.44,-3.493333 -4.13333,-3.733333 1.81333,-0.24 2.34667,-1.52 2.34667,-3.626666 0,-1.093334 1.06666,-1.866667 1.6,-1.866667 0.48,0 0.58666,0.133333 0.58666,0.24 0,0.293333 -0.50666,0.106667 -0.50666,0.853333 0,0.64 0.64,0.96 1.30666,0.96 0.85334,0 1.36,-0.533333 1.36,-1.226666 0,-1.013334 -0.96,-1.733334 -2.66666,-1.733334 -2.10667,0 -3.04,1.04 -3.04,2.72 0,2.746667 -0.77334,3.093334 -3.73334,3.093334 z" />
    <path
       id="path85"
       style=""
       d="m 252.65778,91.795008 c 2.18667,0 3.14667,0.96 3.38667,3.36 h 1.06666 l -0.24,-4.533334 h -0.90666 c -1.22667,0 -1.25334,-0.186666 -1.25334,-1.253333 v -8 c 0,-0.72 0.29334,-1.04 1.73334,-1.04 h 0.48 v -0.96 h -13.6 v 0.96 h 0.48 c 1.92,0 1.97333,0.96 1.97333,1.653334 v 1.333333 c 0,2.16 -0.0267,4.56 -0.88,6.293333 -0.24,0.506667 -0.50667,1.013333 -1.2,1.013333 h -1.54667 l -0.24,4.533334 h 1.06667 c 0.24,-2.4 1.2,-3.36 3.38667,-3.36 z m -5.70667,-1.386667 c -0.16,0 -0.4,-0.05333 -0.4,-0.373333 0,-0.106667 0.0533,-0.24 0.13334,-0.426667 0.85333,-1.733333 0.88,-4.133333 0.88,-6.293333 0,-2.213333 0.16,-2.506667 1.41333,-2.506667 h 2.26667 c 0.90666,0 0.96,0.266667 0.96,1.173334 v 7.493333 c 0,0.72 -0.69334,0.933333 -1.73334,0.933333 z" />
    <path
       id="path87"
       style=""
       d="m 269.55278,83.208341 c 0,-1.68 -0.29333,-2.533333 -1.06666,-3.173333 -0.88,-0.693333 -2.18667,-1.066667 -3.89334,-1.066667 -2.98666,0 -5.2,1.413334 -5.2,3.333334 0,1.013333 0.61334,1.653333 1.54667,1.653333 0.82667,0 1.44,-0.56 1.44,-1.36 0,-0.346667 -0.13333,-0.72 -0.4,-1.093333 -0.16,-0.186667 -0.18667,-0.266667 -0.18667,-0.346667 0,-0.56 1.09334,-1.04 2.37334,-1.04 0.82666,0 1.76,0.266667 2.18666,0.666667 0.50667,0.426666 0.69334,1.066666 0.69334,2.266666 v 1.04 c -2.8,0.48 -3.65334,0.693334 -4.96,1.2 -2.29334,0.853334 -3.41334,2.106667 -3.41334,3.786667 0,1.893333 1.52,3.12 3.86667,3.12 1.84,0 3.49333,-0.746667 4.64,-2.106667 0.42667,1.36 1.09333,1.893333 2.34667,1.893333 1.2,0 2.45333,-0.773333 2.45333,-1.546666 0,-0.186667 -0.13333,-0.32 -0.26667,-0.32 -0.10666,0 -0.21333,0.02667 -0.4,0.106666 -0.42666,0.16 -0.53333,0.186667 -0.74666,0.186667 -0.74667,0 -1.01334,-0.506667 -1.01334,-1.84 z m -2.50666,3.253333 c 0,1.6 -0.08,1.973334 -0.53334,2.666667 -0.66666,0.986667 -1.89333,1.653333 -3.04,1.653333 -1.2,0 -2.10666,-0.88 -2.10666,-2.08 0,-1.12 0.56,-1.92 1.73333,-2.479999 0.82667,-0.373334 1.86667,-0.64 3.94667,-0.986667 z" />
    <path
       id="path89"
       style=""
       d="m 280.35236,79.368341 v 1.413334 h 0.48 c 1.89334,0 1.62667,0.746666 1.62667,1.466666 v 7.52 c 0,0.72 -0.21333,1.066667 -1.62667,1.066667 h -0.48 v 0.96 h 6.93334 c 4.61333,0 6.29333,-1.493334 6.29333,-3.6 0,-1.68 -1.14667,-2.64 -4.66667,-2.88 2.45334,-0.346667 3.86667,-1.253333 3.86667,-3.12 0,-2.346667 -2.4,-2.826667 -5.38667,-2.826667 z m 4.66667,5.386667 v -3.413333 c 0,-0.666667 0.08,-0.773334 0.82667,-0.773334 h 0.61333 c 1.6,0 3.68,0.426667 3.68,2.053334 0,1.44 -0.82667,2.133333 -4.24,2.133333 z m 0,1.226667 h 0.72 c 2.53333,0 5.22667,0.186666 5.22667,2.159999 0,1.973334 -2.08,2.4 -4.90667,2.4 h -0.18667 c -0.74666,0 -0.85333,-0.16 -0.85333,-1.093333 z" />
    <path
       id="path91"
       style=""
       d="m 314.10653,81.581675 c 0,-1.066667 0.29333,-1.253334 2.02667,-1.253334 h 0.18666 v -0.96 h -6.90666 v 0.96 h 0.18666 c 1.70667,0 2,0.186667 2,1.253334 v 7.999999 c 0,1.066667 -0.29333,1.253334 -2,1.253334 h -0.18666 v 0.96 h 6.90666 v -0.96 h -0.18666 c -1.73334,0 -2.02667,-0.186667 -2.02667,-1.253334 z m -18.96,-2.213334 v 0.96 h 0.48 c 1.89333,0 1.62667,0.746667 1.62667,1.466667 v 7.973333 c 0,0.72 -0.21334,1.066667 -1.62667,1.066667 h -0.48 v 0.96 h 6.85333 c 4.61334,0 6.37334,-1.493334 6.37334,-3.6 0,-2.213333 -1.44,-3.44 -7.81334,-3.44 h -0.74666 v -2.96 c 0,-0.72 -0.26667,-1.466667 1.62666,-1.466667 h 0.48 v -0.96 z m 4.66667,6.613334 h 0.72 c 2.53333,0 5.22666,0.186666 5.22666,2.159999 0,1.973334 -2.08,2.4 -4.90666,2.4 h -0.18667 c -0.74667,0 -0.85333,-0.16 -0.85333,-1.093333 z" />
    <path
       id="path93"
       style=""
       d="m 325.97028,80.781675 c 1.94667,0 2,0.186666 2,1.253333 v 7.546666 c 0,1.066667 -0.29333,1.253334 -2.02667,1.253334 h -0.10666 v 0.96 h 6.74666 v -0.96 h -0.10666 c -1.70667,0 -2,-0.186667 -2,-1.253334 v -7.999999 c 0,-1.066667 0.29333,-1.253334 2.02666,-1.253334 h 0.18667 v -0.96 h -15.28 v 0.96 h 0.18667 c 1.70666,0 2,0.186667 2,1.253334 v 7.999999 c 0,1.066667 -0.29334,1.253334 -2,1.253334 h -0.10667 v 0.96 h 6.74667 v -0.96 h -0.10667 c -1.73333,0 -2.02667,-0.186667 -2.02667,-1.253334 v -7.546666 c 0,-1.066667 0.10667,-1.253333 2.02667,-1.253333 z" />
    <path
       id="path95"
       style=""
       d="m 345.47236,85.795008 c 0.0267,-4 -2.24,-6.826667 -5.49334,-6.826667 -3.41333,0 -5.97333,2.96 -5.97333,6.96 0,3.733333 2.42667,6.266667 6.02667,6.266667 2.53333,0 4.34666,-1.253334 5.44,-3.786667 l -0.93334,-0.506667 c -1.09333,2.053334 -2.21333,2.853334 -4,2.853334 -1.36,0 -2.34666,-0.586667 -3.04,-1.76 -0.48,-0.8 -0.69333,-1.733334 -0.66666,-3.2 z m -8.61334,-1.146667 c 0,-0.826666 0.10667,-1.413333 0.37334,-2.16 0.56,-1.6 1.41333,-2.373333 2.69333,-2.373333 1.62667,0 2.69333,1.413333 2.69333,3.546667 0,0.773333 -0.24,0.986666 -1.09333,0.986666 z" />
    <path
       id="path97"
       style=""
       d="m 357.55237,72.035008 c -0.13334,1.6 -1.14667,2.533333 -2.8,2.533333 -1.68,0 -2.69334,-0.933333 -2.82667,-2.533333 h -0.96 v 0.346667 c 0,2.186666 1.6,3.84 3.76,3.84 2.16,0 3.78667,-1.653334 3.78667,-3.813333 v -0.373334 z m 4.85333,7.333333 h -6.93333 v 0.96 h 0.18666 c 1.73334,0 2.02667,0.186667 2.02667,1.253334 v 0.746666 l -5.86667,5.04 v -5.786666 c 0,-1.066667 0.29334,-1.253334 2,-1.253334 h 0.18667 v -0.96 h -6.88 v 0.96 h 0.18667 c 1.70666,0 2,0.186667 2,1.253334 v 7.999999 c 0,1.066667 -0.29334,1.253334 -2,1.253334 h -0.10667 v 0.96 h 6.74667 v -0.96 h -0.10667 c -1.73333,0 -2.02667,-0.186667 -2.02667,-1.253334 v -0.666666 l 5.86667,-5.04 v 5.706666 c 0,1.066667 -0.29333,1.253334 -2.02667,1.253334 h -0.10666 v 0.96 h 6.74666 v -0.96 h -0.10666 c -1.70667,0 -2,-0.186667 -2,-1.253334 v -7.999999 c 0,-1.066667 0.29333,-1.253334 2.02666,-1.253334 h 0.18667 z" />
    <path
       id="path99"
       style=""
       d="m 385.77986,79.368341 h -6.93334 v 0.96 h 0.18667 c 1.73333,0 2.02667,0.186667 2.02667,1.253334 v 2.453333 c -0.0267,1.28 -1.2,2.346667 -2.58667,2.346667 -1.46667,0 -2.8,-1.093334 -2.8,-2.346667 v -2.453333 c 0,-1.066667 0.29333,-1.253334 2,-1.253334 h 0.18667 v -0.96 h -6.88 v 0.96 h 0.18666 c 1.70667,0 2,0.186667 2,1.253334 v 3.173333 c 0,2.426666 2.45334,2.986666 4.85334,2.986666 1.46666,0 2.05333,-0.186666 3.04,-1.04 v 2.88 c 0,1.066667 -0.29334,1.253334 -2.02667,1.253334 h -0.10667 v 0.96 h 6.74667 v -0.96 h -0.10667 c -1.70666,0 -2,-0.186667 -2,-1.253334 v -7.999999 c 0,-1.066667 0.29334,-1.253334 2.02667,-1.253334 h 0.18667 z" />
    <path
       id="path101"
       style=""
       d="m 398.30278,83.208341 c 0,-1.68 -0.29333,-2.533333 -1.06666,-3.173333 -0.88,-0.693333 -2.18667,-1.066667 -3.89334,-1.066667 -2.98666,0 -5.2,1.413334 -5.2,3.333334 0,1.013333 0.61334,1.653333 1.54667,1.653333 0.82667,0 1.44,-0.56 1.44,-1.36 0,-0.346667 -0.13333,-0.72 -0.4,-1.093333 -0.16,-0.186667 -0.18667,-0.266667 -0.18667,-0.346667 0,-0.56 1.09334,-1.04 2.37334,-1.04 0.82666,0 1.76,0.266667 2.18666,0.666667 0.50667,0.426666 0.69334,1.066666 0.69334,2.266666 v 1.04 c -2.8,0.48 -3.65334,0.693334 -4.96,1.2 -2.29334,0.853334 -3.41334,2.106667 -3.41334,3.786667 0,1.893333 1.52,3.12 3.86667,3.12 1.84,0 3.49333,-0.746667 4.64,-2.106667 0.42667,1.36 1.09333,1.893333 2.34667,1.893333 1.2,0 2.45333,-0.773333 2.45333,-1.546666 0,-0.186667 -0.13333,-0.32 -0.26667,-0.32 -0.10666,0 -0.21333,0.02667 -0.4,0.106666 -0.42666,0.16 -0.53333,0.186667 -0.74666,0.186667 -0.74667,0 -1.01334,-0.506667 -1.01334,-1.84 z m -2.50666,3.253333 c 0,1.6 -0.08,1.973334 -0.53334,2.666667 -0.66666,0.986667 -1.89333,1.653333 -3.04,1.653333 -1.2,0 -2.10666,-0.88 -2.10666,-2.08 0,-1.12 0.56,-1.92 1.73333,-2.479999 0.82667,-0.373334 1.86667,-0.64 3.94667,-0.986667 z" />
    <path
       id="path103"
       style=""
       d="m 409.4132,86.088341 c 0.21333,3.413333 2.69333,6.106667 5.73333,6.106667 3.2,0 5.76,-2.933334 5.76,-6.613333 0,-3.653334 -2.56,-6.613334 -5.70666,-6.613334 -3.01334,0 -5.41334,2.453334 -5.76,5.76 -0.66667,-0.08 -2.93334,0 -2.93334,0 v -3.146666 c 0,-1.066667 0.29334,-1.253334 2,-1.253334 h 0.18667 v -0.96 h -6.88 v 0.96 h 0.18667 c 1.70666,0 2,0.186667 2,1.253334 v 7.999999 c 0,1.066667 -0.29334,1.253334 -2,1.253334 h -0.10667 v 0.96 h 6.74667 v -0.96 h -0.10667 c -1.73333,0 -2.02667,-0.186667 -2.02667,-1.253334 v -3.493333 z m 5.78667,-5.973333 c 1.86666,0 2.90666,1.946667 2.90666,5.466667 0,3.546666 -1.04,5.466666 -2.96,5.466666 -1.92,0 -2.96,-1.92 -2.96,-5.44 0,-3.626666 1.01334,-5.493333 3.01334,-5.493333 z" />
  </g>
</svg>
