<?xml version="1.0" encoding="UTF-8" standalone="no"?>
<svg
   xmlns:dc="http://purl.org/dc/elements/1.1/"
   xmlns:cc="http://creativecommons.org/ns#"
   xmlns:rdf="http://www.w3.org/1999/02/22-rdf-syntax-ns#"
   xmlns:svg="http://www.w3.org/2000/svg"
   xmlns="http://www.w3.org/2000/svg"
   id="svg2"
   version="1.1"
   viewBox="161.05414 5.6621906 266.01562 92.539067">
  <metadata
     id="metadata11">
    <rdf:RDF>
      <cc:Work
         rdf:about="">
        <dc:format>image/svg+xml</dc:format>
        <dc:type
           rdf:resource="http://purl.org/dc/dcmitype/StillImage" />
      </cc:Work>
    </rdf:RDF>
  </metadata>
  <defs
     id="defs9" />
  <g
     id="text4521"
     style="font-style:normal;font-variant:normal;font-weight:normal;font-stretch:normal;font-size:26.66666603px;line-height:125%;font-family:'Noto Sans', sans-serif;font-variant-ligatures:normal;font-variant-caps:normal;font-variant-numeric:normal;font-feature-settings:normal;text-align:left;letter-spacing:0px;word-spacing:0px;writing-mode:lr-tb;text-anchor:start;fill:#000000;fill-opacity:1;stroke:none;stroke-width:1px;stroke-linecap:butt;stroke-linejoin:miter;stroke-opacity:1"
     aria-label="Съешь же ещё этихмягких французскихбулок да выпей чаю">
    <path
       id="path13"
       style=""
       d="m 170.27289,7.9278155 q -3.07292,0 -4.83073,2.0572916 -1.75781,2.0572919 -1.75781,5.6249999 0,3.684896 1.70573,5.690104 1.70572,1.992187 4.85677,1.992187 2.03125,0 4.57031,-0.755208 v 2.083333 q -1.21094,0.442709 -2.33073,0.598959 -1.11979,0.169271 -2.57813,0.169271 -4.20572,0 -6.48437,-2.552084 -2.26563,-2.565104 -2.26563,-7.252604 0,-2.942708 1.08073,-5.15625 1.09375,-2.2135411 3.16407,-3.4114578 2.08333,-1.1979166 4.89583,-1.1979166 3.02083,0 5.26042,1.1197916 l -0.96355,2.03125 q -2.27864,-1.0416667 -4.32291,-1.0416667 z" />
    <path
       id="path15"
       style=""
       d="m 183.78851,16.703857 h 3.94532 q 5.79427,0 5.79427,4.049479 0,4.375 -5.82032,4.375 h -6.26302 V 12.810628 h -4.55729 v -1.979167 h 6.90104 z m 7.42188,4.179687 q 0,-1.171875 -0.79427,-1.692708 -0.78125,-0.520833 -2.76042,-0.520833 h -3.86719 v 4.570312 h 3.94532 q 3.47656,0 3.47656,-2.356771 z" />
    <path
       id="path17"
       style=""
       d="m 203.29372,25.388753 q -3.21615,0 -5.05208,-1.940105 -1.82292,-1.953124 -1.82292,-5.364583 0,-3.4375 1.70573,-5.46875 1.70573,-2.04427 4.60937,-2.04427 2.69532,0 4.29688,1.744791 1.60156,1.731771 1.60156,4.700521 v 1.419271 h -9.79167 q 0.0651,2.434896 1.23698,3.697916 1.17188,1.263021 3.32032,1.263021 1.14583,0 2.17447,-0.195312 1.02865,-0.208334 2.40886,-0.794271 v 2.057291 q -1.1849,0.507813 -2.22656,0.716146 -1.04167,0.208334 -2.46094,0.208334 z m -0.58594,-12.903646 q -1.67969,0 -2.65625,1.080729 -0.97656,1.080729 -1.15885,3.007813 h 7.27864 q -0.026,-2.005209 -0.92448,-3.046875 -0.89843,-1.041667 -2.53906,-1.041667 z" />
    <path
       id="path19"
       style=""
       d="m 223.12445,23.149169 h 6.1849 V 10.831461 h 2.34375 V 25.128336 H 212.26508 V 10.831461 h 2.34375 v 12.317708 h 6.15885 V 10.831461 h 2.35677 z" />
    <path
       id="path21"
       style=""
       d="m 238.56715,16.703857 h 4.2448 q 5.57291,0 5.57291,4.049479 0,2.135417 -1.44531,3.255208 -1.44531,1.119792 -4.23177,1.119792 H 236.2234 V 10.831461 h 2.34375 z m 7.47396,4.179687 q 0,-1.145833 -0.80729,-1.692708 -0.80729,-0.546875 -2.69531,-0.546875 h -3.97136 v 4.596354 h 4.03646 q 1.65365,0 2.53906,-0.598958 0.89844,-0.598958 0.89844,-1.757813 z" />
    <path
       id="path23"
       style=""
       d="m 265.59841,10.831461 h 2.1875 v 6.940104 l 5.80729,-6.940104 h 2.53906 l -5.89843,6.940104 6.40625,7.356771 h -2.66928 l -6.18489,-7.252604 v 7.252604 h -2.1875 v -7.252604 l -6.1849,7.252604 h -2.66927 l 6.40625,-7.356771 q -4.03646,-4.791666 -5.89844,-6.940104 h 2.56511 l 5.78125,6.940104 z" />
    <path
       id="path25"
       style=""
       d="m 284.80413,25.388753 q -3.21614,0 -5.05208,-1.940105 -1.82292,-1.953124 -1.82292,-5.364583 0,-3.4375 1.70573,-5.46875 1.70573,-2.04427 4.60938,-2.04427 2.69531,0 4.29687,1.744791 1.60156,1.731771 1.60156,4.700521 v 1.419271 h -9.79166 q 0.0651,2.434896 1.23698,3.697916 1.17187,1.263021 3.32031,1.263021 1.14583,0 2.17448,-0.195312 1.02864,-0.208334 2.40885,-0.794271 v 2.057291 q -1.18489,0.507813 -2.22656,0.716146 -1.04167,0.208334 -2.46094,0.208334 z M 284.2182,12.485107 q -1.67969,0 -2.65625,1.080729 -0.97657,1.080729 -1.15886,3.007813 h 7.27865 q -0.026,-2.005209 -0.92448,-3.046875 -0.89844,-1.041667 -2.53906,-1.041667 z" />
    <path
       id="path27"
       style=""
       d="m 306.7833,25.388753 q -3.21614,0 -5.05208,-1.940105 -1.82292,-1.953124 -1.82292,-5.364583 0,-3.4375 1.70573,-5.46875 1.70573,-2.04427 4.60938,-2.04427 2.69531,0 4.29687,1.744791 1.60157,1.731771 1.60157,4.700521 v 1.419271 h -9.79167 q 0.0651,2.434896 1.23698,3.697916 1.17187,1.263021 3.32031,1.263021 1.14583,0 2.17448,-0.195312 1.02865,-0.208334 2.40885,-0.794271 v 2.057291 q -1.18489,0.507813 -2.22656,0.716146 -1.04166,0.208334 -2.46094,0.208334 z m -0.58593,-12.903646 q -1.67969,0 -2.65625,1.080729 -0.97657,1.080729 -1.15886,3.007813 h 7.27865 q -0.026,-2.005209 -0.92448,-3.046875 -0.89844,-1.041667 -2.53906,-1.041667 z" />
    <path
       id="path29"
       style=""
       d="m 326.61403,23.149169 h 6.18489 V 10.831461 h 2.31771 v 12.34375 h 2.08334 v 6.888021 H 334.8432 V 25.128336 H 315.75465 V 10.831461 h 2.34375 v 12.317708 h 6.15886 V 10.831461 h 2.35677 z" />
    <path
       id="path31"
       style=""
       d="m 346.00205,25.388753 q -3.21614,0 -5.05208,-1.940105 -1.82292,-1.953124 -1.82292,-5.364583 0,-3.4375 1.70573,-5.46875 1.70573,-2.04427 4.60938,-2.04427 2.69531,0 4.29687,1.744791 1.60157,1.731771 1.60157,4.700521 v 1.419271 h -9.79167 q 0.0651,2.434896 1.23698,3.697916 1.17187,1.263021 3.32031,1.263021 1.14583,0 2.17448,-0.195312 1.02865,-0.208334 2.40885,-0.794271 v 2.057291 q -1.18489,0.507813 -2.22656,0.716146 -1.04166,0.208334 -2.46094,0.208334 z m -0.58593,-12.903646 q -1.67969,0 -2.65625,1.080729 -0.97657,1.080729 -1.15886,3.007813 h 7.27865 q -0.026,-2.005209 -0.92448,-3.046875 -0.89844,-1.041667 -2.53906,-1.041667 z m -3.71094,-5.5208331 q 0,-0.6901042 0.36458,-0.9895833 0.36459,-0.3125 0.88542,-0.3125 0.50781,0 0.88542,0.3125 0.3776,0.2994791 0.3776,0.9895833 0,0.6901041 -0.3776,1.015625 -0.37761,0.3255208 -0.88542,0.3255208 -0.52083,0 -0.88542,-0.3255208 -0.36458,-0.3255209 -0.36458,-1.015625 z m 5.01302,0 q 0,-0.6901042 0.36458,-0.9895833 0.36459,-0.3125 0.85938,-0.3125 0.50781,0 0.88542,0.3125 0.3776,0.2994791 0.3776,0.9895833 0,0.6901041 -0.3776,1.015625 -0.37761,0.3255208 -0.88542,0.3255208 -0.49479,0 -0.85938,-0.3255208 -0.36458,-0.3255209 -0.36458,-1.015625 z" />
    <path
       id="path33"
       style=""
       d="m 364.19215,25.388753 q -2.20052,0 -3.78906,-0.76823 v -2.031249 q 2.0052,0.807291 3.84114,0.807291 4.375,0 4.67448,-4.674479 h -7.04427 v -1.914062 h 7.01823 q -0.18229,-2.1875 -1.23698,-3.203125 -1.05469,-1.015625 -3.08594,-1.015625 -1.36718,0 -3.33333,0.703125 l -0.66406,-1.901042 q 0.83333,-0.377604 1.90104,-0.598958 1.08073,-0.221354 2.07031,-0.221354 3.34636,0 5.06511,1.901041 1.73177,1.888021 1.73177,5.507813 0,3.528645 -1.875,5.468749 -1.86198,1.940105 -5.27344,1.940105 z" />
    <path
       id="path35"
       style=""
       d="m 384.8432,12.810628 h -4.67448 v 12.317708 h -2.31771 V 12.810628 h -4.60938 v -1.979167 h 11.60157 z" />
    <path
       id="path37"
       style=""
       d="m 389.89527,10.831461 v 8.723958 l -0.10416,2.526042 -0.0521,0.729167 7.65625,-11.979167 h 2.87761 v 14.296875 h -2.1875 v -8.424479 l 0.0391,-1.809896 0.0651,-1.71875 -7.60416,11.953125 h -2.90365 V 10.831461 Z" />
    <path
       id="path39"
       style=""
       d="m 408.20257,17.823649 -4.9349,-6.992188 h 2.66928 l 3.68489,5.390625 3.64583,-5.390625 h 2.64323 l -4.93489,6.992188 5.20833,7.304687 h -2.66927 l -3.89323,-5.703125 -3.94531,5.703125 h -2.64323 z" />
    <path
       id="path41"
       style=""
       d="m 169.40049,56.222089 q 0.39063,-1.419271 0.98959,-2.929688 l 3.72395,-9.127604 h 3.02084 v 14.296875 h -2.10938 V 46.677818 q -0.45573,1.419271 -1.06771,2.981771 l -3.5677,8.802083 h -1.90105 l -3.5677,-8.854167 q -0.26042,-0.625 -0.52084,-1.367187 -0.24739,-0.742188 -0.49479,-1.5625 v 11.783854 h -2.10937 V 44.164797 h 2.92968 l 3.60677,8.776042 q 0.48177,1.223958 1.06771,3.28125 z" />
    <path
       id="path43"
       style=""
       d="m 182.57757,58.461672 h -2.72135 l 4.07552,-6.002604 q -1.64062,-0.416667 -2.48698,-1.471354 -0.84635,-1.054688 -0.84635,-2.604167 0,-1.979167 1.34114,-3.098958 1.34115,-1.119792 3.72396,-1.119792 h 6.40625 v 14.296875 h -2.34375 v -5.677083 h -3.47656 z m 0.28646,-10.052083 q 0,2.421875 3.48959,2.421875 h 3.37239 v -4.713542 h -3.8151 q -1.4974,0 -2.27865,0.585938 -0.76823,0.585937 -0.76823,1.705729 z" />
    <path
       id="path45"
       style=""
       d="m 205.31195,46.143964 h -6.38021 v 12.317708 h -2.34375 V 44.164797 h 8.72396 z" />
    <path
       id="path47"
       style=""
       d="m 216.60101,44.164797 h 2.5651 l -6.10677,6.888021 6.61459,7.408854 h -2.72136 l -6.45833,-7.252604 v 7.252604 h -2.34375 V 44.164797 h 2.34375 v 6.940104 z" />
    <path
       id="path49"
       style=""
       d="m 224.47862,44.164797 v 8.723958 l -0.10417,2.526042 -0.0521,0.729167 7.65625,-11.979167 h 2.8776 v 14.296875 h -2.1875 v -8.424479 l 0.0391,-1.809896 0.0651,-1.71875 -7.60417,11.953125 h -2.90364 V 44.164797 Z" />
    <path
       id="path51"
       style=""
       d="m 242.78591,51.156985 -4.9349,-6.992188 h 2.66927 l 3.6849,5.390625 3.64583,-5.390625 h 2.64323 l -4.9349,6.992188 5.20834,7.304687 h -2.66927 l -3.89323,-5.703125 -3.94532,5.703125 h -2.64322 z" />
    <path
       id="path53"
       style=""
       d="m 276.04111,51.313234 q 0,3.190105 -1.875,5.14323 -1.86198,1.953124 -5.19531,2.213541 v 6.197917 h -2.29167 v -6.197917 q -3.28125,-0.273437 -5.16927,-2.226562 -1.88802,-1.953125 -1.88802,-5.130209 0,-3.255208 1.875,-5.16927 1.875,-1.927083 5.26042,-2.1875 v -5.755208 h 2.21354 v 5.755208 q 3.29427,0.325521 5.18229,2.278646 1.88802,1.953125 1.88802,5.078124 z m -13.97135,0 q 0,4.960938 4.6875,5.442709 V 45.896568 q -2.44792,0.247396 -3.56771,1.627604 -1.11979,1.367188 -1.11979,3.789062 z m 11.54948,0 q 0,-4.882812 -4.64844,-5.390624 v 10.833333 q 4.64844,-0.507813 4.64844,-5.442709 z" />
    <path
       id="path55"
       style=""
       d="m 286.53591,58.722088 q -2.87761,0 -4.42708,-2.070312 h -0.15625 l 0.0521,0.533854 q 0.10417,1.015625 0.10417,1.809896 v 5.872396 h -2.34375 V 44.164797 h 1.92708 l 0.3125,1.953125 h 0.10417 q 0.83333,-1.171875 1.92708,-1.692708 1.09375,-0.520833 2.52604,-0.520833 2.78646,0 4.32292,1.940104 1.54948,1.927083 1.54948,5.442708 0,3.502604 -1.54948,5.46875 -1.54948,1.966145 -4.34896,1.966145 z m -0.39063,-12.851562 q -2.12239,0 -3.07291,1.197917 -0.9375,1.197917 -0.96354,3.763021 v 0.455729 q 0,2.903646 0.96354,4.205729 0.96354,1.289062 3.125,1.289062 1.79687,0 2.79948,-1.458333 1.01562,-1.458333 1.01562,-4.0625 0,-2.617187 -1.01562,-3.997396 -1.00261,-1.393229 -2.85157,-1.393229 z" />
    <path
       id="path57"
       style=""
       d="m 304.99945,58.461672 -0.45573,-2.03125 h -0.10417 q -1.0677,1.341146 -2.13541,1.822917 -1.05469,0.468749 -2.66927,0.468749 -2.10938,0 -3.30729,-1.10677 -1.19792,-1.106771 -1.19792,-3.125 0,-4.348958 6.86198,-4.557292 l 2.42187,-0.09115 v -0.846354 q 0,-1.627604 -0.70312,-2.395833 -0.70313,-0.78125 -2.25261,-0.78125 -1.13281,0 -2.14843,0.338542 -1.00261,0.338541 -1.88802,0.755208 l -0.71615,-1.757813 q 1.08073,-0.572916 2.35677,-0.898437 1.27604,-0.325521 2.52604,-0.325521 2.59115,0 3.85417,1.145833 1.26302,1.145834 1.26302,3.645834 v 9.739583 z m -4.83073,-1.627604 q 1.96615,0 3.08594,-1.054688 1.13281,-1.067708 1.13281,-3.020833 v -1.289063 l -2.10937,0.09115 q -2.46094,0.09115 -3.59375,0.78125 -1.1198,0.690104 -1.1198,2.174479 0,1.119792 0.67709,1.71875 0.6901,0.598959 1.92708,0.598959 z" />
    <path
       id="path59"
       style=""
       d="m 313.46298,44.164797 v 5.950521 h 7.76042 v -5.950521 h 2.34375 v 14.296875 h -2.34375 v -6.367188 h -7.76042 v 6.367188 h -2.34375 V 44.164797 Z" />
    <path
       id="path61"
       style=""
       d="M 342.19997,63.422609 H 339.9083 V 58.461672 H 328.0984 V 44.164797 h 2.34375 v 12.317708 h 7.39584 V 44.164797 h 2.34375 v 12.34375 h 2.01823 z" />
    <path
       id="path63"
       style=""
       d="m 342.73382,44.164797 h 2.51302 l 3.08594,8.138021 q 0.97656,2.65625 1.19792,3.893229 h 0.10416 q 0.11719,-0.481771 0.53386,-1.796875 0.41666,-1.328125 0.70312,-2.122396 l 2.90365,-8.111979 h 2.52604 l -6.15886,16.276041 q -0.89843,2.369792 -2.13541,3.398438 -1.23698,1.028646 -3.0599,1.028646 -0.97656,0 -1.9401,-0.221354 v -1.86198 q 0.65104,0.15625 1.5625,0.15625 1.11979,0 1.90104,-0.625 0.78125,-0.611979 1.27604,-1.901041 l 0.74219,-1.901042 z" />
    <path
       id="path65"
       style=""
       d="m 361.39267,50.063235 q 4.04948,0 4.04948,-2.1875 0,-2.03125 -3.24218,-2.03125 -1.02865,0 -1.91407,0.195312 -0.88541,0.195313 -2.12239,0.716146 l -0.82031,-1.861979 q 2.22656,-0.989583 4.98697,-0.989583 2.51303,0 3.9323,1.002604 1.41927,1.002604 1.41927,2.760416 0,2.434896 -2.68229,3.164063 v 0.104166 q 1.6276,0.46875 2.39583,1.354167 0.76823,0.885417 0.76823,2.226562 0,1.966146 -1.62761,3.085938 -1.6276,1.119791 -4.47916,1.119791 -3.15104,0 -4.86979,-0.924479 v -2.109375 q 2.38281,1.119792 4.84375,1.119792 1.83593,0 2.82552,-0.611979 0.98958,-0.611979 0.98958,-1.809896 0,-1.223958 -1.0026,-1.809896 -1.00261,-0.598958 -3.07292,-0.598958 h -1.92708 v -1.914062 z" />
    <path
       id="path67"
       style=""
       d="m 377.36924,58.722088 q -3.08594,0 -4.80469,-1.88802 -1.71875,-1.901042 -1.71875,-5.442709 0,-3.593749 1.73178,-5.533854 1.74479,-1.953124 4.96093,-1.953124 1.04167,0 2.05729,0.221354 1.02865,0.208333 1.69271,0.546875 l -0.71614,1.953125 q -1.8099,-0.677084 -3.08594,-0.677084 -2.16146,0 -3.1901,1.367188 -1.02865,1.354166 -1.02865,4.049479 0,2.591146 1.02865,3.971354 1.02864,1.367187 3.04687,1.367187 1.88802,0 3.71094,-0.833333 v 2.083333 q -1.48438,0.768229 -3.6849,0.768229 z" />
    <path
       id="path69"
       style=""
       d="m 392.9031,44.164797 h 2.5651 l -6.10677,6.888021 6.61458,7.408854 h -2.72135 l -6.45833,-7.252604 v 7.252604 h -2.34375 V 44.164797 h 2.34375 v 6.940104 z" />
    <path
       id="path71"
       style=""
       d="m 400.7807,44.164797 v 8.723958 l -0.10417,2.526042 -0.0521,0.729167 7.65625,-11.979167 h 2.8776 v 14.296875 h -2.1875 v -8.424479 l 0.0391,-1.809896 0.0651,-1.71875 -7.60417,11.953125 h -2.90365 V 44.164797 Z" />
    <path
       id="path73"
       style=""
       d="m 419.08799,51.156985 -4.93489,-6.992188 h 2.66927 l 3.68489,5.390625 3.64584,-5.390625 h 2.64323 l -4.9349,6.992188 5.20833,7.304687 h -2.66927 l -3.89323,-5.703125 -3.94531,5.703125 h -2.64323 z" />
    <path
       id="path75"
       style=""
       d="m 161.05414,83.214279 q 0,-4.778646 1.43229,-7.356771 1.44531,-2.591146 4.53125,-3.268229 2.90365,-0.585937 6.48437,-1.197917 l 0.40365,2.057292 -1.54948,0.247396 q -3.02083,0.494791 -4.85677,0.872396 -1.875,0.416666 -2.82552,1.914062 -0.9375,1.484375 -1.06771,4.322917 h 0.16927 q 0.75521,-1.054688 2.00521,-1.679688 1.26302,-0.638021 2.68229,-0.638021 2.63021,0 4.11459,1.692709 1.48437,1.692708 1.48437,4.739583 0,3.398437 -1.73177,5.273437 -1.73177,1.861979 -4.80469,1.861979 -3.04687,0 -4.76562,-2.330729 -1.70573,-2.330729 -1.70573,-6.510416 z m 6.66666,6.901041 q 3.86719,0 3.86719,-4.960937 0,-4.713542 -3.5026,-4.713542 -0.95052,0 -1.84896,0.390625 -0.88542,0.390625 -1.61458,1.028646 -0.71615,0.638021 -1.17188,1.40625 0,6.848958 4.27083,6.848958 z" />
    <path
       id="path77"
       style=""
       d="m 175.54633,77.498133 h 2.51302 l 3.08593,8.138021 q 0.97657,2.65625 1.19792,3.893229 h 0.10417 q 0.11718,-0.481771 0.53385,-1.796875 0.41667,-1.328125 0.70313,-2.122396 l 2.90364,-8.111979 h 2.52604 l -6.15885,16.276041 q -0.89844,2.369792 -2.13542,3.398438 -1.23698,1.028646 -3.05989,1.028646 -0.97657,0 -1.94011,-0.221355 v -1.861979 q 0.65104,0.15625 1.5625,0.15625 1.11979,0 1.90104,-0.625 0.78125,-0.611979 1.27605,-1.901041 l 0.74218,-1.901042 z" />
    <path
       id="path79"
       style=""
       d="m 202.00466,91.795008 h -2.38281 v -12.34375 h -4.20573 q -0.36459,4.6875 -0.98959,7.369791 -0.61198,2.669271 -1.61458,3.919271 -0.98958,1.236979 -2.53906,1.236979 -0.84636,0 -1.23698,-0.182291 v -1.757813 q 0.27344,0.104167 0.72917,0.104167 1.43229,0 2.27864,-3.020833 0.85938,-3.020834 1.34115,-9.622396 h 8.61979 z" />
    <path
       id="path81"
       style=""
       d="m 218.95778,84.620529 q 0,3.502604 -1.77083,5.46875 -1.77083,1.966145 -4.89583,1.966145 -1.94011,0 -3.4375,-0.898437 -1.4974,-0.911458 -2.30469,-2.604167 -0.80729,-1.692708 -0.80729,-3.932291 0,-3.489584 1.74479,-5.429688 1.74479,-1.953125 4.89583,-1.953125 3.02083,0 4.79167,1.992188 1.78385,1.979166 1.78385,5.390625 z m -10.79427,0 q 0,2.695312 1.05469,4.101562 1.06771,1.393229 3.13802,1.393229 2.04427,0 3.11198,-1.393229 1.06771,-1.40625 1.06771,-4.101562 0,-2.695313 -1.08073,-4.049479 -1.06771,-1.367188 -3.13802,-1.367188 -4.15365,0 -4.15365,5.416667 z" />
    <path
       id="path83"
       style=""
       d="m 231.13226,77.498133 h 2.5651 l -6.10677,6.888021 6.61459,7.408854 h -2.72136 l -6.45833,-7.252604 v 7.252604 h -2.34375 V 77.498133 h 2.34375 v 6.940104 z" />
    <path
       id="path85"
       style=""
       d="m 256.41872,96.755945 h -2.26563 v -4.960937 h -9.94792 v 4.960937 h -2.23958 v -6.940104 h 1.14583 q 1.73178,-2.408854 2.69532,-5.572916 0.96354,-3.177084 1.01562,-6.744792 h 7.51302 v 12.317708 h 2.08334 z m -4.34896,-6.940104 v -10.46875 h -3.17709 q -0.19531,2.877604 -1.11979,5.78125 -0.91146,2.890625 -2.23958,4.6875 z" />
    <path
       id="path87"
       style=""
       d="m 268.07236,91.795008 -0.45572,-2.03125 h -0.10417 q -1.06771,1.341146 -2.13542,1.822916 -1.05469,0.46875 -2.66927,0.46875 -2.10937,0 -3.30729,-1.10677 -1.19792,-1.106771 -1.19792,-3.125 0,-4.348959 6.86198,-4.557292 l 2.42188,-0.09115 v -0.846354 q 0,-1.627604 -0.70313,-2.395833 -0.70312,-0.78125 -2.2526,-0.78125 -1.13281,0 -2.14844,0.338541 -1.0026,0.338542 -1.88802,0.755209 l -0.71615,-1.757813 q 1.08073,-0.572916 2.35677,-0.898437 1.27605,-0.325521 2.52605,-0.325521 2.59114,0 3.85416,1.145833 1.26302,1.145834 1.26302,3.645834 v 9.739583 z m -4.83072,-1.627604 q 1.96614,0 3.08593,-1.054688 1.13282,-1.067708 1.13282,-3.020833 V 84.80282 l -2.10938,0.09115 q -2.46094,0.09115 -3.59375,0.78125 -1.11979,0.690104 -1.11979,2.174479 0,1.119792 0.67708,1.71875 0.69011,0.598959 1.92709,0.598959 z" />
    <path
       id="path89"
       style=""
       d="m 292.87705,81.104904 q 0,1.380208 -0.78125,2.109375 -0.78125,0.716146 -2.22656,0.976562 v 0.117188 q 1.8099,0.247396 2.63021,1.080729 0.83333,0.820312 0.83333,2.213541 0,2.03125 -1.49739,3.11198 -1.48438,1.080729 -4.28386,1.080729 h -6.43229 V 77.498133 h 6.40625 q 5.35156,0 5.35156,3.606771 z m -1.88802,6.367187 q 0,-1.197916 -0.9375,-1.679687 -0.9375,-0.481771 -2.74739,-0.481771 h -3.84115 v 4.596354 h 3.89323 q 3.63281,0 3.63281,-2.434896 z m -0.40364,-6.158854 q 0,-1.002604 -0.78125,-1.432292 -0.76823,-0.429687 -2.33073,-0.429687 h -4.01042 v 3.919271 h 3.58073 q 1.91406,0 2.72135,-0.46875 0.82032,-0.481771 0.82032,-1.588542 z" />
    <path
       id="path91"
       style=""
       d="m 298.82758,83.370529 h 3.71093 q 2.78646,0 4.11459,1.015625 1.32812,1.015625 1.32812,3.033854 0,2.174479 -1.40625,3.28125 -1.40625,1.09375 -4.14062,1.09375 h -5.95052 V 77.498133 h 2.34375 z m 6.83593,4.179687 q 0,-1.158854 -0.78125,-1.692708 -0.76823,-0.546875 -2.64323,-0.546875 h -3.41145 v 4.596354 h 3.38541 q 3.45052,0 3.45052,-2.356771 z m 7.03125,4.244792 h -2.34375 V 77.498133 h 2.34375 z" />
    <path
       id="path93"
       style=""
       d="m 319.55673,91.795008 h -2.34375 V 77.498133 h 12.08334 v 14.296875 h -2.34375 V 79.503341 h -7.39584 z" />
    <path
       id="path95"
       style=""
       d="m 339.96038,92.055424 q -3.21614,0 -5.05208,-1.940104 -1.82292,-1.953125 -1.82292,-5.364583 0,-3.4375 1.70573,-5.46875 1.70573,-2.044271 4.60938,-2.044271 2.69531,0 4.29687,1.744792 1.60156,1.731771 1.60156,4.700521 V 85.1023 h -9.79166 q 0.0651,2.434895 1.23698,3.697916 1.17187,1.263021 3.32031,1.263021 1.14583,0 2.17448,-0.195313 1.02864,-0.208333 2.40885,-0.79427 v 2.057291 q -1.18489,0.507813 -2.22656,0.716146 -1.04167,0.208333 -2.46094,0.208333 z m -0.58593,-12.903645 q -1.67969,0 -2.65625,1.080729 -0.97657,1.080729 -1.15886,3.007812 h 7.27865 q -0.026,-2.005208 -0.92448,-3.046875 -0.89844,-1.041666 -2.53906,-1.041666 z" />
    <path
       id="path97"
       style=""
       d="m 351.14527,77.498133 v 8.723958 l -0.10416,2.526042 -0.0521,0.729166 7.65625,-11.979166 h 2.87761 v 14.296875 h -2.1875 v -8.424479 l 0.0391,-1.809896 0.0651,-1.71875 -7.60416,11.953125 h -2.90365 V 77.498133 Z m 4.03646,-1.861979 q -2.5,0 -3.64583,-0.950521 -1.13281,-0.950521 -1.26302,-3.098958 h 2.1875 q 0.11719,1.354166 0.70312,1.888021 0.59896,0.533854 2.07032,0.533854 1.34114,0 1.97916,-0.572917 0.65104,-0.572917 0.79427,-1.848958 h 2.21354 q -0.19531,2.109375 -1.41927,3.085937 -1.22395,0.963542 -3.61979,0.963542 z" />
    <path
       id="path99"
       style=""
       d="m 375.05152,77.498133 v 5.208333 q 0,2.447917 2.7474,2.447917 1.19792,0 2.26562,-0.351563 1.08073,-0.364583 2.39584,-1.171875 v -6.132812 h 2.34375 v 14.296875 h -2.34375 V 85.42782 q -1.43229,0.92448 -2.59115,1.289063 -1.14583,0.364583 -2.55208,0.364583 -2.13542,0 -3.3724,-1.119791 -1.23698,-1.119792 -1.23698,-3.098959 v -5.364583 z" />
    <path
       id="path101"
       style=""
       d="m 398.17653,91.795008 -0.45573,-2.03125 h -0.10417 q -1.06771,1.341146 -2.13541,1.822916 -1.05469,0.46875 -2.66927,0.46875 -2.10938,0 -3.3073,-1.10677 -1.19791,-1.106771 -1.19791,-3.125 0,-4.348959 6.86198,-4.557292 l 2.42187,-0.09115 v -0.846354 q 0,-1.627604 -0.70312,-2.395833 -0.70313,-0.78125 -2.25261,-0.78125 -1.13281,0 -2.14844,0.338541 -1.0026,0.338542 -1.88802,0.755209 l -0.71614,-1.757813 q 1.08073,-0.572916 2.35677,-0.898437 1.27604,-0.325521 2.52604,-0.325521 2.59115,0 3.85417,1.145833 1.26302,1.145834 1.26302,3.645834 v 9.739583 z m -4.83073,-1.627604 q 1.96615,0 3.08594,-1.054688 1.13281,-1.067708 1.13281,-3.020833 V 84.80282 l -2.10938,0.09115 q -2.46093,0.09115 -3.59375,0.78125 -1.11979,0.690104 -1.11979,2.174479 0,1.119792 0.67709,1.71875 0.6901,0.598959 1.92708,0.598959 z" />
    <path
       id="path103"
       style=""
       d="m 422.851,84.620529 q 0,3.515625 -1.69271,5.48177 -1.67969,1.953125 -4.6224,1.953125 -2.78645,0 -4.4401,-1.73177 -1.64063,-1.744792 -1.82292,-4.895834 h -3.63281 v 6.367188 h -2.34375 V 77.498133 h 2.34375 v 5.950521 h 3.65885 q 0.28646,-2.981771 1.92709,-4.596354 1.64062,-1.614584 4.36198,-1.614584 2.89062,0 4.57031,1.992188 1.69271,1.992187 1.69271,5.390625 z m -10.18229,0 q 0,2.708333 0.92448,4.101562 0.92447,1.393229 2.96875,1.393229 2.04427,0 2.95572,-1.393229 0.91146,-1.393229 0.91146,-4.101562 0,-2.669271 -0.92448,-4.036459 -0.92448,-1.380208 -2.9427,-1.380208 -2.04428,0 -2.96875,1.380208 -0.92448,1.367188 -0.92448,4.036459 z" />
  </g>
</svg>
