<?xml version="1.0" encoding="UTF-8" standalone="no"?>
<svg
   xmlns:dc="http://purl.org/dc/elements/1.1/"
   xmlns:cc="http://creativecommons.org/ns#"
   xmlns:rdf="http://www.w3.org/1999/02/22-rdf-syntax-ns#"
   xmlns:svg="http://www.w3.org/2000/svg"
   xmlns="http://www.w3.org/2000/svg"
   id="svg2"
   version="1.1"
   viewBox="159.87737 6.2216697 260.95293 93.120004">
  <metadata
     id="metadata11">
    <rdf:RDF>
      <cc:Work
         rdf:about="">
        <dc:format>image/svg+xml</dc:format>
        <dc:type
           rdf:resource="http://purl.org/dc/dcmitype/StillImage" />
      </cc:Work>
    </rdf:RDF>
  </metadata>
  <defs
     id="defs9" />
  <g
     id="text4521"
     style="font-style:normal;font-variant:normal;font-weight:normal;font-stretch:normal;font-size:26.66666603px;line-height:125%;font-family:Palatino, 'URW Palladio L', serif;font-variant-ligatures:normal;font-variant-caps:normal;font-variant-numeric:normal;font-feature-settings:normal;text-align:left;letter-spacing:0px;word-spacing:0px;writing-mode:lr-tb;text-anchor:start;fill:#000000;fill-opacity:1;stroke:none;stroke-width:1px;stroke-linecap:butt;stroke-linejoin:miter;stroke-opacity:1"
     aria-label="Съешь же ещё этихмягких французскихбулок да выпей чаю">
    <path
       id="path13"
       style=""
       d="m 177.39737,22.888336 -0.24,-0.266667 c -1.65334,1.066667 -3.49334,1.6 -5.52,1.6 -5.2,0 -8.66667,-3.466666 -8.66667,-8.719999 0,-4.906667 3.04,-8.1600003 7.62667,-8.1600003 2.61333,0 5.30666,1.0666667 5.30666,2.1066666 v 1.9199997 h 0.82667 c 0.0267,-1.333333 0.13333,-2.293333 0.50667,-4.053333 -2.26667,-0.7466666 -4.21334,-1.0933333 -6.16,-1.0933333 -2.32,0 -4.53334,0.56 -6.32,1.6 -3.04,1.7866666 -4.64,4.5866663 -4.64,8.1866663 0,5.76 4.21333,9.653333 10.48,9.653333 2.21333,0 4.21333,-0.48 6.05333,-1.44 z" />
    <path
       id="path15"
       style=""
       d="m 188.09028,25.181669 c 0.88,0 2.32,0.08 3.12,-0.48 1.38667,-0.96 2.08,-1.866666 2.05334,-3.626666 0,-0.746667 -0.26667,-1.76 -1.09334,-2.453334 -1.54666,-1.333333 -2.77333,-1.226666 -4.42666,-1.226666 -0.66667,0 -1.06667,0.16 -1.62667,0.373333 V 15.26167 c 0,-1.173334 0,-1.52 1.25333,-1.6 l 0.96,-0.05333 v -0.8 c -1.94666,0 -2.88,0.08 -3.28,0.08 -0.77333,0 -1.70666,-0.08 -3.09333,-0.08 -1.06667,0 -1.41333,0.05333 -3.04,0.05333 l 0.37333,4.026666 h 0.8 v -1.92 c 0.24,-1.04 0.32,-0.986666 2.13334,-0.986666 1.44,0 1.70666,0.24 1.70666,1.92 v 7.546666 c 0,1.04 -1.12,0.88 -1.52,0.906667 l -0.69333,0.05333 v 0.773333 c 1.84,-0.02667 3.44,-0.05333 3.94667,-0.05333 0,0 2.42666,0.05333 2.42666,0.05333 z m -1.97333,-6.506666 c 0.61333,-0.213334 1.28,-0.4 1.78667,-0.4 2.61333,0.02667 2.88,2 2.88,3.146666 0,1.306667 -0.69334,2.906667 -2.61334,2.906667 -1.6,0 -2.02666,-0.32 -2.05333,-1.573333 z" />
    <path
       id="path17"
       style=""
       d="m 205.61112,23.261669 -0.34667,-0.266666 c -1.70667,1.013333 -2.32,1.253333 -3.46667,1.253333 -1.73333,0 -3.17333,-0.773333 -3.92,-2.08 -0.50666,-0.88 -0.69333,-1.626667 -0.74666,-3.173333 h 3.89333 c 1.84,0 2.98667,-0.08 4.82667,-0.373334 0.0267,-0.373333 0.0533,-0.613333 0.0533,-0.933333 0,-3.066666 -1.97333,-5.066666 -4.96,-5.066666 -0.98667,0 -2.13333,0.346666 -3.22667,0.986666 -2.18666,1.253334 -3.06666,2.906667 -3.06666,5.68 0,1.68 0.4,3.12 1.12,4.133333 1.06666,1.413334 2.85333,2.24 4.85333,2.24 0.98667,0 1.97333,-0.213333 3.06667,-0.693333 0.72,-0.293333 1.28,-0.64 1.38666,-0.8 z m -2.08,-5.253333 c -1.38667,0.05333 -2.02667,0.08 -2.98667,0.08 -1.22667,0 -1.92,-0.02667 -3.36,-0.16 0,-1.253333 0.10667,-1.84 0.45333,-2.533333 0.56,-1.173333 1.70667,-1.893333 2.98667,-1.893333 0.88,0 1.57333,0.346666 2.05333,1.066666 0.58667,0.88 0.77334,1.653333 0.85334,3.44 z" />
    <path
       id="path19"
       style=""
       d="m 219.57153,15.608336 c 0,-1.68 0.08,-1.866666 0.98667,-1.92 l 1.2,-0.08 v -0.8 c -1.81333,0.05333 -2.53333,0.08 -3.30667,0.08 -0.77333,0 -1.49333,-0.02667 -3.30666,-0.08 v 0.8 l 1.2,0.08 c 0.90666,0.05333 0.98666,0.24 0.98666,1.92 v 6.266667 c 0,1.68 -0.08,1.92 -0.98666,1.92 h -3.84 c -0.90667,0 -0.98667,-0.24 -0.98667,-1.92 v -6.266667 c 0,-1.68 0.08,-1.866666 0.98667,-1.92 l 1.2,-0.08 v -0.8 c -1.81334,0.05333 -2.53334,0.08 -3.30667,0.08 -0.77333,0 -1.49333,-0.02667 -3.30667,-0.08 v 0.8 l 1.2,0.08 c 0.90667,0.05333 0.98667,0.24 0.98667,1.92 v 6.8 c 0,1.68 -0.08,1.866667 -0.98667,1.92 l -1.2,0.08 v 0.8 c 1.81334,-0.05333 2.53334,-0.08 3.30667,-0.08 h 16.10667 c 0.77333,0 1.49333,0.02667 3.30666,0.08 v -0.8 l -1.2,-0.08 c -0.90666,-0.05333 -0.98666,-0.24 -0.98666,-1.92 v -6.8 c 0,-1.68 0.08,-1.866666 0.98666,-1.92 l 1.2,-0.08 v -0.8 c -1.81333,0.05333 -2.53333,0.08 -3.30666,0.08 -0.77334,0 -1.49334,-0.02667 -3.30667,-0.08 v 0.8 l 1.2,0.08 c 0.90667,0.05333 0.98667,0.24 0.98667,1.92 v 6.266667 c 0,1.68 -0.08,1.92 -0.98667,1.92 h -3.84 c -0.90667,0 -0.98667,-0.24 -0.98667,-1.92 z" />
    <path
       id="path21"
       style=""
       d="m 235.50945,15.26167 c 0,-1.173334 0,-1.52 1.25333,-1.6 l 0.96,-0.05333 v -0.8 c -1.94667,0 -2.82667,0.08 -3.22667,0.08 -0.50666,0 -1.78666,-0.08 -3.38666,-0.08 v 0.8 l 0.96,0.05333 c 1.25333,0.08 1.25333,0.426666 1.25333,1.6 v 8.186666 c 0,1.04 -1.12,0.88 -1.52,0.906667 l -0.69333,0.05333 v 0.773333 c 1.84,-0.02667 3.44,-0.05333 3.94666,-0.05333 0,0 2.42667,0.05333 2.42667,0.05333 0.88,0 2.32,0.08 3.12,-0.48 1.38667,-0.96 2.08,-1.866666 2.05333,-3.626666 0,-0.746667 -0.26666,-1.76 -1.09333,-2.453334 -1.54667,-1.333333 -2.77333,-1.226666 -4.42667,-1.226666 -0.66666,0 -1.06666,0.16 -1.62666,0.373333 z m 0,3.413333 c 0.61333,-0.213334 1.28,-0.4 1.78666,-0.4 2.61334,0.02667 2.88,2 2.88,3.146666 0,1.306667 -0.69333,2.906667 -2.61333,2.906667 -1.6,0 -2.02667,-0.32 -2.05333,-1.573333 z" />
    <path
       id="path23"
       style=""
       d="m 259.54736,18.168336 -1.68,-1.573333 -3.73333,-3.706667 h -2.66667 v 0.8 c 0.90667,-0.02667 1.73334,0.16 2.88,1.253334 l 3.17334,3.066666 -4.66667,4.773333 c -0.82667,0.853334 -1.62667,1.28 -2.26667,1.28 v 0.613334 l 2.42667,0.773333 6.53333,-6.72 v 3.68 c 0,1.68 -0.08,1.866667 -0.98666,1.92 l -1.22667,0.08 v 0.8 c 2.66667,-0.08 2.66667,-0.08 3.36,-0.08 0.74667,0 0.88,0 3.25333,0.08 v -0.8 l -1.17333,-0.08 c -0.90667,-0.05333 -0.98667,-0.24 -0.98667,-1.92 v -3.68 l 6.53334,6.72 2.42666,-0.773333 v -0.613334 c -0.64,0 -1.44,-0.426666 -2.26666,-1.28 l -4.66667,-4.773333 3.17333,-3.066666 c 1.14667,-1.093334 1.97334,-1.28 2.88,-1.253334 v -0.8 h -2.66666 l -3.73334,3.706667 -1.68,1.573333 v -2.56 c 0,-1.68 0.08,-1.866666 0.98667,-1.92 l 1.17333,-0.08 v -0.8 c -2.37333,0.08 -2.50666,0.08 -3.25333,0.08 -0.69333,0 -0.69333,0 -3.36,-0.08 v 0.8 l 1.22667,0.08 c 0.90666,0.05333 0.98666,0.24 0.98666,1.92 z" />
    <path
       id="path25"
       style=""
       d="m 282.95486,23.261669 -0.34666,-0.266666 c -1.70667,1.013333 -2.32,1.253333 -3.46667,1.253333 -1.73333,0 -3.17333,-0.773333 -3.92,-2.08 -0.50667,-0.88 -0.69333,-1.626667 -0.74667,-3.173333 h 3.89334 c 1.84,0 2.98666,-0.08 4.82666,-0.373334 0.0267,-0.373333 0.0533,-0.613333 0.0533,-0.933333 0,-3.066666 -1.97334,-5.066666 -4.96,-5.066666 -0.98667,0 -2.13334,0.346666 -3.22667,0.986666 -2.18667,1.253334 -3.06667,2.906667 -3.06667,5.68 0,1.68 0.4,3.12 1.12,4.133333 1.06667,1.413334 2.85334,2.24 4.85334,2.24 0.98666,0 1.97333,-0.213333 3.06666,-0.693333 0.72,-0.293333 1.28,-0.64 1.38667,-0.8 z m -2.08,-5.253333 c -1.38666,0.05333 -2.02666,0.08 -2.98666,0.08 -1.22667,0 -1.92,-0.02667 -3.36,-0.16 0,-1.253333 0.10666,-1.84 0.45333,-2.533333 0.56,-1.173333 1.70667,-1.893333 2.98667,-1.893333 0.88,0 1.57333,0.346666 2.05333,1.066666 0.58667,0.88 0.77333,1.653333 0.85333,3.44 z" />
    <path
       id="path27"
       style=""
       d="m 302.38194,23.261669 -0.34667,-0.266666 c -1.70666,1.013333 -2.32,1.253333 -3.46666,1.253333 -1.73334,0 -3.17334,-0.773333 -3.92,-2.08 -0.50667,-0.88 -0.69334,-1.626667 -0.74667,-3.173333 h 3.89333 c 1.84,0 2.98667,-0.08 4.82667,-0.373334 0.0267,-0.373333 0.0533,-0.613333 0.0533,-0.933333 0,-3.066666 -1.97333,-5.066666 -4.96,-5.066666 -0.98666,0 -2.13333,0.346666 -3.22666,0.986666 -2.18667,1.253334 -3.06667,2.906667 -3.06667,5.68 0,1.68 0.4,3.12 1.12,4.133333 1.06667,1.413334 2.85333,2.24 4.85333,2.24 0.98667,0 1.97334,-0.213333 3.06667,-0.693333 0.72,-0.293333 1.28,-0.64 1.38667,-0.8 z m -2.08,-5.253333 c -1.38667,0.05333 -2.02667,0.08 -2.98667,0.08 -1.22666,0 -1.92,-0.02667 -3.36,-0.16 0,-1.253333 0.10667,-1.84 0.45334,-2.533333 0.56,-1.173333 1.70666,-1.893333 2.98666,-1.893333 0.88,0 1.57334,0.346666 2.05334,1.066666 0.58666,0.88 0.77333,1.653333 0.85333,3.44 z" />
    <path
       id="path29"
       style=""
       d="m 324.3957,22.408336 v -6.8 c 0,-1.68 0.08,-1.866666 0.98666,-1.92 l 1.2,-0.08 v -0.8 c -1.81333,0.05333 -2.53333,0.08 -3.30666,0.08 -0.77334,0 -1.49334,-0.02667 -3.30667,-0.08 v 0.8 l 1.2,0.08 c 0.90667,0.05333 0.98667,0.24 0.98667,1.92 v 6.266667 c 0,1.68 -0.08,1.92 -0.98667,1.92 h -3.84 c -0.90667,0 -0.98667,-0.24 -0.98667,-1.92 v -6.266667 c 0,-1.68 0.08,-1.866666 0.98667,-1.92 l 1.2,-0.08 v -0.8 c -1.81333,0.05333 -2.53333,0.08 -3.30667,0.08 -0.77333,0 -1.49333,-0.02667 -3.30666,-0.08 v 0.8 l 1.2,0.08 c 0.90666,0.05333 0.98666,0.24 0.98666,1.92 v 6.266667 c 0,1.68 -0.08,1.92 -0.98666,1.92 h -3.84 c -0.90667,0 -0.98667,-0.24 -0.98667,-1.92 v -6.266667 c 0,-1.68 0.08,-1.866666 0.98667,-1.92 l 1.2,-0.08 v -0.8 c -1.81334,0.05333 -2.53334,0.08 -3.30667,0.08 -0.77333,0 -1.49333,-0.02667 -3.30667,-0.08 v 0.8 l 1.2,0.08 c 0.90667,0.05333 0.98667,0.24 0.98667,1.92 v 6.8 c 0,1.68 -0.08,1.866667 -0.98667,1.92 l -1.2,0.08 v 0.8 c 1.81334,-0.05333 2.53334,-0.08 3.30667,-0.08 h 16.10667 c 0.74666,0 2.58666,-0.16 2.45333,0.746667 l 0.0533,2.586666 h 0.8 c -0.0533,-1.173333 -0.08,-1.84 -0.08,-1.973333 0,-0.346667 0,-0.346667 0.08,-2.08 l -1.2,-0.08 c -0.90666,-0.05333 -0.98666,-0.24 -0.98666,-1.92 z" />
    <path
       id="path31"
       style=""
       d="m 338.84028,23.261669 -0.34666,-0.266666 c -1.70667,1.013333 -2.32,1.253333 -3.46667,1.253333 -1.73333,0 -3.17333,-0.773333 -3.92,-2.08 -0.50667,-0.88 -0.69333,-1.626667 -0.74667,-3.173333 h 3.89334 c 1.84,0 2.98666,-0.08 4.82666,-0.373334 0.0267,-0.373333 0.0533,-0.613333 0.0533,-0.933333 0,-3.066666 -1.97334,-5.066666 -4.96,-5.066666 -0.98667,0 -2.13334,0.346666 -3.22667,0.986666 -2.18667,1.253334 -3.06667,2.906667 -3.06667,5.68 0,1.68 0.4,3.12 1.12,4.133333 1.06667,1.413334 2.85334,2.24 4.85334,2.24 0.98666,0 1.97333,-0.213333 3.06666,-0.693333 0.72,-0.293333 1.28,-0.64 1.38667,-0.8 z m -2.08,-5.253333 c -1.38666,0.05333 -2.02666,0.08 -2.98666,0.08 -1.22667,0 -1.92,-0.02667 -3.36,-0.16 0,-1.253333 0.10666,-1.84 0.45333,-2.533333 0.56,-1.173333 1.70667,-1.893333 2.98667,-1.893333 0.88,0 1.57333,0.346666 2.05333,1.066666 0.58667,0.88 0.77333,1.653333 0.85333,3.44 z m -5.81333,-9.8666663 c -0.82667,0 -1.36,0.5333333 -1.36,1.3333333 0,0.8 0.53333,1.333333 1.33333,1.333333 0.8,0 1.33334,-0.533333 1.33334,-1.333333 0,-0.7733333 -0.53334,-1.3333333 -1.30667,-1.3333333 z m 5.30667,0 c -0.82667,0 -1.36,0.5333333 -1.36,1.3333333 0,0.8 0.53333,1.333333 1.33333,1.333333 0.8,0 1.33333,-0.533333 1.33333,-1.333333 0,-0.7733333 -0.53333,-1.3333333 -1.30666,-1.3333333 z" />
    <path
       id="path33"
       style=""
       d="m 355.22736,19.475003 c -0.34666,2.933333 -2.18666,4.8 -4.85333,4.8 -0.96,0 -1.81333,-0.24 -2.8,-0.773334 l -0.26667,0.4 0.56,0.853334 c 0.26667,0.4 2.26667,0.906666 3.65334,0.906666 3.57333,0 6.10666,-2.533333 6.10666,-6.133333 0,-2.346667 -0.98666,-4.213333 -2.85333,-5.386666 -1.6,-1.013334 -3.09333,-1.52 -4.37333,-1.52 -1.09334,0 -2.02667,0.293333 -3.09334,0.933333 0.24,0.96 0.37334,2.053333 0.37334,3.28 h 0.74666 l 0.18667,-1.626667 c 0.48,-0.666666 1.76,-1.2 2.93333,-1.2 2.4,0 3.73334,1.6 3.73334,4.453333 -0.50667,0.613334 -0.66667,0.853334 -1.41334,0.853334 -0.85333,0 -2.69333,-1.253334 -3.25333,-1.226667 -1.44,0 -1.46667,0.64 -2.05333,1.546667 v 1.146666 c 0.64,-0.72 0.77333,-1.2 1.41333,-1.2 0.58667,-0.133333 2.18667,1.173334 3.30667,1.2 1.01333,-0.02667 1.6,-0.746666 1.94666,-1.306666 z" />
    <path
       id="path35"
       style=""
       d="m 363.79695,15.90167 v 6.506666 c 0,1.68 -0.08,1.866667 -0.98667,1.92 l -1.2,0.08 v 0.8 c 1.81334,-0.05333 2.53334,-0.08 3.30667,-0.08 0.77333,0 1.49333,0.02667 3.30667,0.08 v -0.8 l -1.2,-0.08 c -0.90667,-0.05333 -0.98667,-0.24 -0.98667,-1.92 V 15.90167 c 0,-1.68 0.24,-1.92 1.68,-1.92 1.81333,0 1.89333,-0.05333 2.13333,0.986666 v 1.92 h 0.8 l 0.37334,-4.026666 c -1.62667,0 -1.97334,-0.05333 -3.04,-0.05333 -0.58667,0 -2.29334,0.08 -3.06667,0.08 -0.77333,0 -1.70667,-0.08 -3.09333,-0.08 -1.06667,0 -1.41334,0.05333 -3.04,0.05333 0.34666,1.12 0.37333,4.026666 0.37333,4.026666 h 0.8 v -1.92 c 0.24,-1.04 0.32,-0.986666 2.13333,-0.986666 1.44,0 1.70667,0.24 1.70667,1.92 z" />
    <path
       id="path37"
       style=""
       d="m 382.44319,12.808336 -6.34667,10.293333 v -7.493333 c 0,-1.68 0.08,-1.866666 0.98667,-1.92 l 1.2,-0.08 v -0.8 c -1.81333,0.05333 -2.53333,0.08 -3.30667,0.08 -0.77333,0 -1.49333,-0.02667 -3.30666,-0.08 v 0.8 l 1.2,0.08 c 0.90666,0.05333 0.98666,0.24 0.98666,1.92 v 6.8 c 0,1.68 -0.08,1.866667 -0.98666,1.92 l -1.2,0.08 v 0.8 c 1.81333,-0.05333 2.53333,-0.08 3.30666,-0.08 0,0 1.14667,0.08 1.14667,0.08 l 6.32,-10.32 v 7.52 c 0,1.68 -0.08,1.866667 -0.98667,1.92 l -1.2,0.08 v 0.8 c 1.81334,-0.05333 2.53334,-0.08 3.30667,-0.08 0.77333,0 1.49333,0.02667 3.30667,0.08 v -0.8 l -1.2,-0.08 c -0.90667,-0.05333 -0.98667,-0.24 -0.98667,-1.92 v -6.8 c 0,-1.68 0.08,-1.866666 0.98667,-1.92 l 1.2,-0.08 v -0.8 c -1.81334,0.05333 -2.53334,0.08 -3.30667,0.08 -0.77333,0 0.21333,-0.02667 -1.12,-0.08 z" />
    <path
       id="path39"
       style=""
       d="m 394.7107,18.355003 3.78667,-4.426667 c 0.16,-0.186666 0.45333,-0.293333 0.90666,-0.293333 h 0.37334 v -0.746667 h -2.18667 l -3.30667,4.666667 -2.02666,-3.093333 c -0.4,-0.586667 -0.69334,-0.933334 -1.6,-1.84 l -3.09334,0.533333 0.13334,0.693333 0.56,0.05333 c 0.48,0.02667 1.06666,0.4 1.33333,0.773333 l 3.2,4.64 -3.97333,4.693333 c -0.18667,0.24 -0.53334,0.4 -0.8,0.4 h -0.45334 v 0.72 h 2.29334 l 0.56,-0.88 c 0.42666,-0.746667 0.85333,-1.413333 1.04,-1.626667 l 1.97333,-2.613333 2.85333,4.32 0.0267,0.05333 c 0.24,0.373334 0.45333,0.64 0.66667,0.826667 1.38666,-0.08 1.38666,-0.08 1.62666,-0.08 0.26667,0 0.26667,0 1.65334,0.08 v -0.8 l -0.66667,-0.08 c -0.32,-0.02667 -0.64,-0.24 -0.93333,-0.64 z" />
    <path
       id="path41"
       style=""
       d="m 168.59737,56.568339 3.6,-7.44 1.28,7.306666 c 0.0533,0.266667 0.10666,0.453334 0.10666,0.666667 0,0.4 -0.34666,0.613333 -1.01333,0.64 l -1.06667,0.05333 v 0.746667 c 2.64,-0.08 2.64,-0.08 3.17334,-0.08 0.53333,0 0.50666,0 3.14666,0.08 v -0.746667 l -0.74666,-0.05333 c -1.01334,-0.08 -1.38667,-0.586667 -1.73334,-2.666667 l -1.06666,-6.533333 c -0.29334,-1.546667 0.45333,-1.706667 1.86666,-1.68 v -0.746667 h -3.54666 l -3.73334,7.6 -3.84,-7.6 h -3.70666 v 0.746667 c 1.76,-0.02667 2.26666,0.506667 2.10666,1.413333 l -1.14666,7.146667 c -0.29334,1.786667 -0.72,2.24 -1.70667,2.32 l -0.69333,0.05333 v 0.746667 c 2.18666,-0.08 2.18666,-0.08 2.61333,-0.08 0.42667,0 0.69333,0 2.88,0.08 v -0.746667 l -0.90667,-0.05333 c -0.66666,-0.02667 -1.04,-0.346667 -1.04,-0.826667 0,-0.293333 0.0267,-0.586666 0.0533,-0.96 l 0.74666,-6.826666 3.76,7.44 z" />
    <path
       id="path43"
       style=""
       d="m 183.8032,53.101672 -2.61333,3.013333 c -0.77334,0.906667 -1.62667,1.28 -2.26667,1.28 v 0.613334 l 2.56,0.773333 5.84,-6.373333 -0.16,-0.533334 c -3.6,0 -4.61333,-0.986666 -4.58667,-2.613333 0.0267,-0.826667 0.50667,-1.893333 3.17334,-1.893333 0.77333,0 1.38666,0.02667 2.05333,0.133333 v 8.56 c 0,1.173333 0,1.52 -1.25333,1.6 l -0.96,0.05333 v 0.8 c 1.94666,0 2.82666,-0.08 3.22666,-0.08 0.50667,0 1.78667,0.08 3.38667,0.08 v -0.8 l -0.96,-0.05333 c -1.25333,-0.08 -1.25333,-0.426667 -1.25333,-1.6 v -8.186667 c 0,-1.04 1.12,-0.88 1.52,-0.906666 l 0.69333,-0.05333 v -0.773333 c -1.84,0.02667 -2.64,0.05333 -3.14667,0.05333 -0.82666,-0.02667 -2.21333,-0.08 -3.22666,-0.05333 -1.94667,0 -2.48,-0.133333 -3.62667,0.56 -1.49333,0.906667 -1.65333,1.653333 -1.65333,2.906667 0,0.746666 0.32,1.6 1.09333,2.24 0.85333,0.693333 1.28,1.013333 2.16,1.253333 z" />
    <path
       id="path45"
       style=""
       d="m 203.6857,46.195005 c -1.62667,0 -2.77334,-0.05333 -3.84,-0.05333 -0.58667,0 -2.53334,0.08 -3.30667,0.08 -0.77333,0 -1.92,-0.08 -3.30667,-0.08 v 0.8 l 1.2,0.08 c 0.90667,0.05333 0.98667,0.24 0.98667,1.92 v 6.8 c 0,1.68 -0.08,1.866667 -0.98667,1.92 l -1.2,0.08 v 0.8 c 1.81334,-0.05333 2.53334,-0.08 3.30667,-0.08 0.77333,0 1.49333,0.02667 3.30667,0.08 v -0.8 l -1.2,-0.08 c -0.90667,-0.05333 -0.98667,-0.24 -0.98667,-1.92 v -6.506667 c 0,-1.68 0.48,-1.92 1.92,-1.92 1.81333,0 2.93333,0.02667 2.93333,0.986667 v 1.92 h 0.8 c 0,0 0.0267,-2.906667 0.37334,-4.026667 z" />
    <path
       id="path47"
       style=""
       d="m 204.98778,47.688339 h 1.49334 c 0.48,0 0.66666,0.293333 0.66666,1.093333 v 6.96 c 0,1.68 -0.08,1.866667 -0.98666,1.92 l -1.22667,0.08 v 0.8 c 2.66667,-0.08 2.66667,-0.08 3.36,-0.08 0.74667,0 0.88,0 3.25333,0.08 v -0.8 l -1.17333,-0.08 c -0.90667,-0.05333 -0.98667,-0.24 -0.98667,-1.92 v -3.68 l 7.06667,6.72 2.42667,-0.773333 v -0.613334 c -0.64,0 -1.41334,-0.453333 -2.26667,-1.28 l -3.36,-3.333333 c -0.96,-0.933333 -1.17333,-1.226667 -1.62667,-1.76 l 3.49334,-2.746667 c 1.25333,-0.96 1.97333,-1.28 2.88,-1.253333 v -0.8 h -2.66667 c -1.70667,1.706667 -2.96,2.88 -4,3.706667 l -1.94667,1.573333 v -5.333333 l -0.24,-0.213334 c -1.17333,0.453334 -2.05333,0.666667 -4.16,0.986667 z" />
    <path
       id="path49"
       style=""
       d="m 230.15153,46.141672 -6.34666,10.293333 v -7.493333 c 0,-1.68 0.08,-1.866667 0.98666,-1.92 l 1.2,-0.08 v -0.8 c -1.81333,0.05333 -2.53333,0.08 -3.30666,0.08 -0.77334,0 -1.49334,-0.02667 -3.30667,-0.08 v 0.8 l 1.2,0.08 c 0.90667,0.05333 0.98667,0.24 0.98667,1.92 v 6.8 c 0,1.68 -0.08,1.866667 -0.98667,1.92 l -1.2,0.08 v 0.8 c 1.81333,-0.05333 2.53333,-0.08 3.30667,-0.08 0,0 1.14666,0.08 1.14666,0.08 l 6.32,-10.32 v 7.52 c 0,1.68 -0.08,1.866667 -0.98666,1.92 l -1.2,0.08 v 0.8 c 1.81333,-0.05333 2.53333,-0.08 3.30666,-0.08 0.77334,0 1.49334,0.02667 3.30667,0.08 v -0.8 l -1.2,-0.08 c -0.90667,-0.05333 -0.98667,-0.24 -0.98667,-1.92 v -6.8 c 0,-1.68 0.08,-1.866667 0.98667,-1.92 l 1.2,-0.08 v -0.8 c -1.81333,0.05333 -2.53333,0.08 -3.30667,0.08 -0.77333,0 0.21334,-0.02667 -1.12,-0.08 z" />
    <path
       id="path51"
       style=""
       d="m 242.41903,51.688339 3.78667,-4.426667 c 0.16,-0.186667 0.45333,-0.293333 0.90666,-0.293333 h 0.37334 v -0.746667 h -2.18667 l -3.30667,4.666667 -2.02666,-3.093334 c -0.4,-0.586666 -0.69334,-0.933333 -1.6,-1.84 l -3.09334,0.533334 0.13334,0.693333 0.56,0.05333 c 0.48,0.02667 1.06666,0.4 1.33333,0.773334 l 3.2,4.64 -3.97333,4.693333 c -0.18667,0.24 -0.53334,0.4 -0.8,0.4 h -0.45334 v 0.72 h 2.29334 l 0.56,-0.88 c 0.42666,-0.746667 0.85333,-1.413333 1.04,-1.626667 l 1.97333,-2.613333 2.85333,4.32 0.0267,0.05333 c 0.24,0.373334 0.45333,0.64 0.66667,0.826667 1.38666,-0.08 1.38666,-0.08 1.62666,-0.08 0.26667,0 0.26667,0 1.65334,0.08 v -0.8 l -0.66667,-0.08 c -0.32,-0.02667 -0.64,-0.24 -0.93333,-0.64 z" />
    <path
       id="path53"
       style=""
       d="m 265.50237,42.915006 v 3.519999 c -0.93334,-0.32 -1.76,-0.48 -2.61334,-0.48 -0.77333,0 -1.70666,0.213334 -2.10666,0.453334 l -2.24,1.44 c -1.70667,1.093333 -2.58667,2.853333 -2.58667,5.173333 0,3.493333 2.10667,5.76 5.41333,5.76 0.56,0 1.01334,-0.106667 1.36,-0.32 l 2.77334,-1.76 0.0267,6.506666 c 0,1.68 -0.10666,1.813334 -1.01333,1.866667 l -1.22667,0.08 v 0.8 c 2.66667,-0.08 2.66667,-0.08 3.33334,-0.08 0.66666,0 0.66666,0 3.33333,0.08 v -0.8 l -1.22667,-0.08 c -0.90666,-0.05333 -0.98666,-0.24 -0.98666,-1.92 v -5.04 c 0.8,0.48 1.65333,0.666667 2.85333,0.666667 0.77333,0 1.46667,-0.16 1.89333,-0.426667 l 3.04,-1.973333 c 1.06667,-0.693333 2.32,-3.44 2.32,-5.146667 0,-2.96 -2.45333,-5.28 -5.54666,-5.28 -0.98667,0 -1.94667,0.266667 -2.37334,0.666667 l -2.18666,2 v -9.413333 l -0.24,-0.106667 c -1.36,0.56 -2.74667,0.933334 -4.16,1.093334 v 0.746666 h 0.98666 c 1.06667,0 1.17334,0.213334 1.17334,1.973334 z m 0,12.346666 c 0,0.373333 -0.64,1.066667 -1.36,1.466667 -0.64,0.346666 -1.25334,0.533333 -1.89334,0.533333 -2.34666,0 -3.97333,-2.186667 -3.97333,-5.413333 0,-2.933334 1.49333,-4.64 4.05333,-4.64 1.30667,0 2.24,0.32 3.17334,1.093333 z m 2.24,-4.96 c 0,-0.373333 0.13333,-0.666667 0.48,-1.12 0.77333,-0.986667 1.86666,-1.493333 3.2,-1.493333 2.50666,0 4.10666,1.76 4.10666,4.533333 0,2.986667 -1.78666,5.2 -4.18666,5.2 -1.46667,0 -2.56,-0.48 -3.6,-1.573333 z" />
    <path
       id="path55"
       style=""
       d="m 279.12028,47.795005 h 0.98667 c 1.06666,0 1.17333,0.186667 1.17333,1.946667 v 13.413333 c 0,1.68 -0.08,1.866667 -0.98667,1.92 l -1.22666,0.08 v 0.8 c 2.66666,-0.08 2.66666,-0.08 3.33333,-0.08 0.66667,0 0.66667,0 3.33333,0.08 v -0.8 l -1.22666,-0.08 c -0.90667,-0.05333 -0.98667,-0.24 -0.98667,-1.92 v -5.04 c 0.8,0.48 1.65333,0.666667 2.85333,0.666667 0.77334,0 1.46667,-0.16 1.89334,-0.426667 l 3.04,-1.973333 c 1.06666,-0.693333 2.32,-3.44 2.32,-5.146667 0,-2.96 -2.45334,-5.28 -5.54667,-5.28 -0.98667,0 -1.94667,0.266667 -2.37333,0.666667 l -2.18667,2 v -2.56 l -0.24,-0.106667 c -1.36,0.56 -2.74667,0.933334 -4.16,1.093334 z m 4.4,2.506667 c 0,-0.373333 0.13333,-0.666667 0.48,-1.12 0.77333,-0.986667 1.86667,-1.493333 3.2,-1.493333 2.50667,0 4.10667,1.76 4.10667,4.533333 0,2.986667 -1.78667,5.2 -4.18667,5.2 -1.46667,0 -2.56,-0.48 -3.6,-1.573333 z" />
    <path
       id="path57"
       style=""
       d="m 303.53528,56.275005 -0.13333,2.266667 c 1.73333,-0.08 1.73333,-0.08 2.08,-0.08 0.13333,0 0.8,0.02667 1.97333,0.08 v -0.8 l -1.04,-0.05333 c -0.64,-0.02667 -0.74667,-0.24 -0.74667,-1.546667 v -4.88 c 0,-3.893333 -1.12,-5.306667 -4.21333,-5.306667 -1.14667,0 -2.21333,0.293334 -3.22667,0.906667 l -1.41333,0.853333 v 1.733334 l 0.69333,0.186666 0.34667,-0.826666 c 0.56,-1.253334 0.82667,-1.44 2.05333,-1.44 2.50667,0 3.54667,0.986666 3.62667,3.413333 l -2.64,0.48 c -3.62667,0.666667 -5.14667,1.92 -5.14667,4.24 0,2.08 1.25334,3.28 3.36,3.28 0.48,0 0.93334,-0.08 1.12,-0.213334 z m 0,-1.12 c -0.77333,1.093334 -2.45333,2.106667 -3.49333,2.106667 -1.06667,0 -2,-0.986667 -2,-2.133333 0,-0.986667 0.53333,-1.92 1.33333,-2.426667 0.66667,-0.4 2.13333,-0.773333 4.16,-1.066667 z" />
    <path
       id="path59"
       style=""
       d="m 319.16194,51.128339 h -6.34667 v -2.186667 c 0,-1.68 0.08,-1.866667 0.98667,-1.92 l 1.2,-0.08 v -0.8 c -1.81333,0.05333 -2.53333,0.08 -3.30667,0.08 -0.77333,0 -1.49333,-0.02667 -3.30666,-0.08 v 0.8 l 1.2,0.08 c 0.90666,0.05333 0.98666,0.24 0.98666,1.92 v 6.8 c 0,1.68 -0.08,1.866667 -0.98666,1.92 l -1.2,0.08 v 0.8 c 1.81333,-0.05333 2.53333,-0.08 3.30666,-0.08 0.77334,0 1.49334,0.02667 3.30667,0.08 v -0.8 l -1.2,-0.08 c -0.90667,-0.05333 -0.98667,-0.24 -0.98667,-1.92 v -3.2 h 6.34667 v 3.2 c 0,1.68 -0.08,1.866667 -0.98667,1.92 l -1.2,0.08 v 0.8 c 1.81334,-0.05333 2.53334,-0.08 3.30667,-0.08 0.77333,0 1.49333,0.02667 3.30667,0.08 v -0.8 l -1.2,-0.08 c -0.90667,-0.05333 -0.98667,-0.24 -0.98667,-1.92 v -6.8 c 0,-1.68 0.08,-1.866667 0.98667,-1.92 l 1.2,-0.08 v -0.8 c -1.81334,0.05333 -2.53334,0.08 -3.30667,0.08 -0.77333,0 -1.49333,-0.02667 -3.30667,-0.08 v 0.8 l 1.2,0.08 c 0.90667,0.05333 0.98667,0.24 0.98667,1.92 z" />
    <path
       id="path61"
       style=""
       d="m 338.25612,59.208338 0.0533,2.586667 h 0.8 c -0.0533,-1.173333 -0.08,-1.84 -0.08,-1.973333 0,-0.346667 0,-0.346667 0.08,-2.08 l -1.2,-0.08 c -0.90667,-0.05333 -0.98667,-0.24 -0.98667,-1.92 v -6.8 c 0,-1.68 0.08,-1.866667 0.98667,-1.92 l 1.2,-0.08 v -0.8 c -1.81333,0.05333 -2.53333,0.08 -3.30667,0.08 -0.77333,0 -1.49333,-0.02667 -3.30666,-0.08 v 0.8 l 1.2,0.08 c 0.90666,0.05333 0.98666,0.24 0.98666,1.92 v 6.266667 c 0,1.68 -0.08,1.92 -0.98666,1.92 h -4.37334 c -0.90666,0 -0.98666,-0.24 -0.98666,-1.92 v -6.266667 c 0,-1.68 0.08,-1.866667 0.98666,-1.92 l 1.2,-0.08 v -0.8 c -1.81333,0.05333 -2.53333,0.08 -3.30666,0.08 -0.77334,0 -1.49334,-0.02667 -3.30667,-0.08 v 0.8 l 1.2,0.08 c 0.90667,0.05333 0.98667,0.24 0.98667,1.92 v 6.8 c 0,1.68 -0.08,1.866667 -0.98667,1.92 l -1.2,0.08 v 0.8 c 1.81333,-0.05333 2.53333,-0.08 3.30667,-0.08 h 8.58666 c 0.74667,0 2.58667,-0.16 2.45334,0.746666 z" />
    <path
       id="path63"
       style=""
       d="m 347.19028,56.168339 c -0.58667,-1.013334 -0.88,-1.626667 -1.36,-2.933334 l -1.70667,-4.48 c -0.16,-0.453333 -0.26666,-0.853333 -0.26666,-1.12 0,-0.373333 0.29333,-0.586666 0.90666,-0.613333 l 1.01334,-0.05333 v -0.746667 c -2.58667,0.08 -2.58667,0.08 -3.09334,0.08 -0.50666,0 -0.50666,0 -3.09333,-0.08 v 0.746667 l 0.48,0.05333 c 0.66667,0.08 0.98667,0.373333 1.38667,1.306667 l 2.90666,6.986666 c 0.74667,1.813334 1.01334,2.453334 1.49334,3.786667 l -0.61334,1.626666 c -0.85333,2.24 -1.89333,3.493334 -2.90666,3.493334 -0.42667,0 -0.90667,-0.213334 -1.36,-0.613334 h -0.34667 l -0.64,2 c 0.50667,0.266667 0.93333,0.4 1.44,0.4 1.78667,0 2.93333,-0.96 3.94667,-3.28 l 5.41333,-12.479999 c 1.06667,-2.426667 1.57333,-3.146667 2.24,-3.226667 l 0.74667,-0.05333 v -0.746667 c -2.10667,0.08 -2.10667,0.08 -2.53334,0.08 -0.42666,0 -0.42666,0 -2.53333,-0.08 v 0.746667 l 0.69333,0.05333 c 0.74667,0.05333 1.12,0.293333 1.12,0.666667 0,0.186666 -0.0533,0.426666 -0.16,0.693333 z" />
    <path
       id="path65"
       style=""
       d="m 358.99403,57.955005 c -1.6,0 -2.85333,-0.72 -3.70667,-1.36 l -0.34666,0.4 0.56,0.853334 c 0.4,0.586666 2.10666,1.146666 3.49333,1.146666 3.86667,0 5.65333,-1.466666 5.65333,-4.08 0,-0.826666 -0.34666,-1.84 -0.85333,-2.373333 -0.21333,-0.186667 -0.45333,-0.32 -0.72,-0.48 0.69333,-0.56 1.04,-1.28 1.04,-2.24 0,-2.4 -1.89333,-3.866667 -4.98667,-3.866667 -1.09333,0 -2.05333,0.186667 -3.46666,0.666667 0.08,0.826667 0.10666,1.466667 0.13333,3.013333 h 0.74667 v -0.613333 c 0,-1.253333 1.36,-2.186667 3.14666,-2.186667 1.62667,0 2.42667,0.96 2.42667,2.08 0,1.44 -0.32,2.64 -2.77333,2.64 h -0.42667 v 1.173334 h 0.96 c 1.89333,0 2.4,1.28 2.4,2.693333 0,1.44 -1.65333,2.533333 -3.28,2.533333 z" />
    <path
       id="path67"
       style=""
       d="m 376.05611,50.168339 c 0,-1.226667 0.13333,-2.32 0.37333,-3.28 -1.06667,-0.64 -2,-0.933334 -3.09333,-0.933334 -1.28,0 -2.77334,0.506667 -4.37334,1.52 -1.86666,1.173334 -2.85333,3.04 -2.85333,5.386667 0,3.6 2.53333,6.133333 6.10667,6.133333 1.38666,0 3.38666,-0.506667 3.65333,-0.906666 l 0.56,-0.853334 -0.26667,-0.4 c -0.98666,0.533334 -1.84,0.773334 -2.8,0.773334 -2.96,0 -4.90666,-2.293334 -4.90666,-5.813334 0,-2.853333 1.33333,-4.453333 3.73333,-4.453333 1.17333,0 2.45333,0.533333 2.93333,1.2 l 0.18667,1.626667 z" />
    <path
       id="path69"
       style=""
       d="m 377.85236,47.688339 h 1.49334 c 0.48,0 0.66666,0.293333 0.66666,1.093333 v 6.96 c 0,1.68 -0.08,1.866667 -0.98666,1.92 l -1.22667,0.08 v 0.8 c 2.66667,-0.08 2.66667,-0.08 3.36,-0.08 0.74667,0 0.88,0 3.25333,0.08 v -0.8 l -1.17333,-0.08 c -0.90667,-0.05333 -0.98667,-0.24 -0.98667,-1.92 v -3.68 l 7.06667,6.72 2.42667,-0.773333 v -0.613334 c -0.64,0 -1.41334,-0.453333 -2.26667,-1.28 l -3.36,-3.333333 c -0.96,-0.933333 -1.17333,-1.226667 -1.62667,-1.76 l 3.49334,-2.746667 c 1.25333,-0.96 1.97333,-1.28 2.88,-1.253333 v -0.8 h -2.66667 c -1.70667,1.706667 -2.96,2.88 -4,3.706667 l -1.94667,1.573333 v -5.333333 l -0.24,-0.213334 c -1.17333,0.453334 -2.05333,0.666667 -4.16,0.986667 z" />
    <path
       id="path71"
       style=""
       d="m 403.01611,46.141672 -6.34666,10.293333 v -7.493333 c 0,-1.68 0.08,-1.866667 0.98666,-1.92 l 1.2,-0.08 v -0.8 c -1.81333,0.05333 -2.53333,0.08 -3.30666,0.08 -0.77334,0 -1.49334,-0.02667 -3.30667,-0.08 v 0.8 l 1.2,0.08 c 0.90667,0.05333 0.98667,0.24 0.98667,1.92 v 6.8 c 0,1.68 -0.08,1.866667 -0.98667,1.92 l -1.2,0.08 v 0.8 c 1.81333,-0.05333 2.53333,-0.08 3.30667,-0.08 0,0 1.14666,0.08 1.14666,0.08 l 6.32,-10.32 v 7.52 c 0,1.68 -0.08,1.866667 -0.98666,1.92 l -1.2,0.08 v 0.8 c 1.81333,-0.05333 2.53333,-0.08 3.30666,-0.08 0.77334,0 1.49334,0.02667 3.30667,0.08 v -0.8 l -1.2,-0.08 c -0.90667,-0.05333 -0.98667,-0.24 -0.98667,-1.92 v -6.8 c 0,-1.68 0.08,-1.866667 0.98667,-1.92 l 1.2,-0.08 v -0.8 c -1.81333,0.05333 -2.53333,0.08 -3.30667,0.08 -0.77333,0 0.21334,-0.02667 -1.12,-0.08 z" />
    <path
       id="path73"
       style=""
       d="m 415.28361,51.688339 3.78666,-4.426667 c 0.16,-0.186667 0.45334,-0.293333 0.90667,-0.293333 h 0.37333 v -0.746667 h -2.18666 l -3.30667,4.666667 -2.02667,-3.093334 c -0.4,-0.586666 -0.69333,-0.933333 -1.6,-1.84 l -3.09333,0.533334 0.13333,0.693333 0.56,0.05333 c 0.48,0.02667 1.06667,0.4 1.33334,0.773334 l 3.2,4.64 -3.97334,4.693333 c -0.18666,0.24 -0.53333,0.4 -0.8,0.4 h -0.45333 v 0.72 h 2.29333 l 0.56,-0.88 c 0.42667,-0.746667 0.85334,-1.413333 1.04,-1.626667 l 1.97334,-2.613333 2.85333,4.32 0.0267,0.05333 c 0.24,0.373334 0.45333,0.64 0.66666,0.826667 1.38667,-0.08 1.38667,-0.08 1.62667,-0.08 0.26667,0 0.26667,0 1.65333,0.08 v -0.8 l -0.66666,-0.08 c -0.32,-0.02667 -0.64,-0.24 -0.93334,-0.64 z" />
    <path
       id="path75"
       style=""
       d="m 166.8907,90.755008 c -2.24,0 -3.65333,-1.813334 -3.65333,-4.666667 0,-2.986666 1.6,-5.066666 3.86666,-5.066666 2.24,0 3.65334,1.813333 3.65334,4.666666 0,2.986667 -1.6,5.066667 -3.86667,5.066667 z m -2.4,-13.84 c 1.06667,-1.546667 2.02667,-1.466667 3.6,-1.52 1.28,-0.05333 2.24,-0.05333 3.52,-0.586667 l 1.70667,-2.426666 -0.32,-0.533333 c 0,0 -1.14667,0.719999 -2.02667,0.906666 -1.17333,0.24 -1.81333,0.186667 -3.2,0.48 -0.77333,0.16 -1.89333,0.373333 -3.6,2.453333 -2.18667,2.666667 -2.98667,4.853334 -2.90667,10.72 0,0.88 0.29334,3.04 1.30667,4.026667 0.74667,0.746666 2.24,1.68 3.49333,1.68 1.04,0 1.68,-0.186667 2.24,-0.586667 l 2.66667,-1.92 c 1.17333,-0.853333 2.10667,-3.066667 2.10667,-5.013333 0,-3.093333 -2,-5.306667 -4.82667,-5.306667 -1.25333,0 -2,0.266667 -3.25333,1.12 l -1.46667,1.013334 c 0.32,-1.52 0.16,-3.333334 0.96,-4.506667 z" />
    <path
       id="path77"
       style=""
       d="m 181.72153,89.501674 c -0.58666,-1.013333 -0.88,-1.626666 -1.36,-2.933333 l -1.70666,-4.48 c -0.16,-0.453333 -0.26667,-0.853333 -0.26667,-1.12 0,-0.373333 0.29333,-0.586666 0.90667,-0.613333 l 1.01333,-0.05333 v -0.746667 c -2.58667,0.08 -2.58667,0.08 -3.09333,0.08 -0.50667,0 -0.50667,0 -3.09334,-0.08 v 0.746667 l 0.48,0.05333 c 0.66667,0.08 0.98667,0.373333 1.38667,1.306667 l 2.90667,6.986666 c 0.74666,1.813333 1.01333,2.453333 1.49333,3.786667 l -0.61333,1.626666 c -0.85334,2.24 -1.89334,3.493334 -2.90667,3.493334 -0.42667,0 -0.90667,-0.213334 -1.36,-0.613334 h -0.34667 l -0.64,2 c 0.50667,0.266667 0.93334,0.4 1.44,0.4 1.78667,0 2.93334,-0.96 3.94667,-3.28 l 5.41333,-12.479999 c 1.06667,-2.426667 1.57334,-3.146667 2.24,-3.226667 l 0.74667,-0.05333 v -0.746667 c -2.10667,0.08 -2.10667,0.08 -2.53333,0.08 -0.42667,0 -0.42667,0 -2.53334,-0.08 v 0.746667 l 0.69334,0.05333 c 0.74666,0.05333 1.12,0.293333 1.12,0.666667 0,0.186666 -0.0533,0.426666 -0.16,0.693333 z" />
    <path
       id="path79"
       style=""
       d="m 194.88528,81.608341 -1.86666,5.466667 c -0.61334,2.053333 -1.14667,2.906666 -2.10667,2.88 -0.66667,-0.02667 -0.77333,-0.613334 -0.85333,-0.88 h -0.48 l -0.74667,2.373333 c 0,0 0.96,0.746667 1.81333,0.746667 1.86667,0.02667 2.56,-1.68 3.33334,-4.24 l 1.84,-6.08 c 0.96,1.973333 2.66666,5.706666 3.17333,7.68 0.16,0.373333 0.24,0.72 0.24,1.013333 0,0.293333 -0.24,0.48 -0.66667,0.506667 l -1.30666,0.05333 v 0.746667 c 2.61333,-0.08 2.61333,-0.08 3.12,-0.08 0.50666,0 1.78666,0.02667 3.09333,0.08 v -0.746667 l -0.90667,-0.05333 c -0.4,-0.02667 -0.53333,-0.213334 -0.82666,-0.88 l -4.58667,-10.746667 c -1.44,0.24 -2.72,0.24 -4.18667,0.24 v 0.746667 c 1.78667,0 2.05334,0.533333 1.92,1.173333 z" />
    <path
       id="path81"
       style=""
       d="m 211.13736,79.288341 c -3.89333,0 -6.58666,2.746667 -6.58666,6.72 0,3.76 2.37333,6.32 5.81333,6.32 4.10667,0 7.04,-2.853333 7.04,-6.853333 0,-3.6 -2.61333,-6.186667 -6.26667,-6.186667 z m -0.48,0.88 c 2.45334,0 4.26667,2.666667 4.26667,6.293333 0,3.066667 -1.36,4.986667 -3.52,4.986667 -2.61333,0 -4.37333,-2.56 -4.37333,-6.346666 0,-3.2 1.28,-4.933334 3.62666,-4.933334 z" />
    <path
       id="path83"
       style=""
       d="m 218.89403,81.021675 h 1.49334 c 0.48,0 0.66666,0.293333 0.66666,1.093333 v 6.96 c 0,1.68 -0.08,1.866666 -0.98666,1.92 l -1.22667,0.08 v 0.8 c 2.66667,-0.08 2.66667,-0.08 3.36,-0.08 0.74667,0 0.88,0 3.25333,0.08 v -0.8 l -1.17333,-0.08 c -0.90667,-0.05333 -0.98667,-0.24 -0.98667,-1.92 v -3.68 l 7.06667,6.72 2.42667,-0.773334 v -0.613333 c -0.64,0 -1.41334,-0.453333 -2.26667,-1.28 l -3.36,-3.333333 c -0.96,-0.933333 -1.17333,-1.226667 -1.62667,-1.76 l 3.49334,-2.746667 c 1.25333,-0.96 1.97333,-1.28 2.88,-1.253333 v -0.8 h -2.66667 c -1.70667,1.706667 -2.96,2.88 -4,3.706667 l -1.94667,1.573333 v -5.333333 l -0.24,-0.213334 c -1.17333,0.453334 -2.05333,0.666667 -4.16,0.986667 z" />
    <path
       id="path85"
       style=""
       d="m 241.15111,90.995008 -1.06666,0.08 c 0.08,1.733333 0.08,1.733333 0.08,2.08 0,0.133333 -0.0267,0.8 -0.08,1.973333 h 0.8 l 0.0533,-2.586667 c 0,-0.906666 1.70667,-0.746666 2.45333,-0.746666 h 7.78667 c 0.74667,0 2.45333,-0.16 2.45333,0.746666 l 0.0533,2.586667 h 0.8 c -0.0533,-1.173333 -0.08,-1.84 -0.08,-1.973333 0,-0.346667 0,-0.346667 0.08,-2.08 l -0.93334,-0.08 c -0.4,-0.02667 -0.69333,-0.133334 -0.98666,-0.8 l -4.58667,-10.746667 c -1.44,0.24 -2.72,0.24 -4.18667,0.24 v 0.746667 c 1.78667,0 2.05334,0.533333 1.92,1.173333 l -1.86666,5.466667 c -0.48,1.546666 -1.01334,2.746666 -1.65334,3.44 0,0 -0.29333,0.426666 -1.04,0.48 z m 3.94667,-0.533334 c -0.85333,0 -0.96,-0.133333 -0.85333,-0.48 0.24,-0.586666 0.45333,-1.28 0.69333,-2.026666 l 1.81333,-5.866667 c 0.96,1.973334 2.42667,4.88 2.93334,6.853333 0.16,0.373334 0.24,0.72 0.24,1.013334 0,0.293333 -0.24,0.506666 -0.66667,0.506666 z" />
    <path
       id="path87"
       style=""
       d="m 263.43111,89.608341 -0.13333,2.266667 c 1.73333,-0.08 1.73333,-0.08 2.08,-0.08 0.13333,0 0.8,0.02667 1.97333,0.08 v -0.8 l -1.04,-0.05333 c -0.64,-0.02667 -0.74666,-0.24 -0.74666,-1.546666 v -4.88 c 0,-3.893333 -1.12,-5.306667 -4.21334,-5.306667 -1.14666,0 -2.21333,0.293334 -3.22666,0.906667 l -1.41334,0.853333 v 1.733334 l 0.69334,0.186666 0.34666,-0.826666 c 0.56,-1.253334 0.82667,-1.44 2.05334,-1.44 2.50666,0 3.54666,0.986666 3.62666,3.413333 l -2.64,0.48 c -3.62666,0.666667 -5.14666,1.92 -5.14666,4.24 0,2.08 1.25333,3.28 3.36,3.28 0.48,0 0.93333,-0.08 1.12,-0.213334 z m 0,-1.12 c -0.77333,1.093333 -2.45333,2.106667 -3.49333,2.106667 -1.06667,0 -2,-0.986667 -2,-2.133334 0,-0.986666 0.53333,-1.92 1.33333,-2.426666 0.66667,-0.4 2.13334,-0.773333 4.16,-1.066667 z" />
    <path
       id="path89"
       style=""
       d="m 285.93778,85.288341 c -0.4,-0.346666 -0.45333,-0.346666 -1.01333,-0.64 0.32,-0.106666 0.45333,-0.133333 0.77333,-0.453333 0.56,-0.56 0.72,-1.36 0.72,-2.266667 0,-1.173333 -0.90667,-2.426666 -4.16,-2.426666 h -0.66667 c -3.70666,0 -1.49333,0.05333 -1.89333,0.05333 -0.50667,0 -2.88,-0.02667 -4.21333,-0.08 v 0.8 l 0.96,0.05333 c 1.25333,0.08 1.25333,0.426667 1.25333,1.6 v 8.186667 c 0,1.04 -1.12,0.88 -1.52,0.906666 l -0.69333,0.05333 v 0.773333 c 1.84,-0.02667 3.44,-0.05333 3.94666,-0.05333 0,0 2.42667,0.05333 2.42667,0.05333 0.88,0 2.32,0.08 3.12,-0.48 1.38667,-0.96 2.05333,-1.813333 2.05333,-3.626667 0,-0.666666 -0.21333,-1.653333 -1.09333,-2.453333 z m -6.05333,0.05333 h 1.78666 c 2.61334,0.02667 2.88,1.599999 2.88,2.746666 0,1.306667 -0.69333,2.906667 -2.61333,2.906667 -1.6,0 -2.02667,-0.32 -2.05333,-1.573334 z m 0,-3.6 c -0.0267,-0.96 0.77333,-1.093334 1.62666,-1.093334 1.81334,0 2.4,0.906667 2.37334,1.68 -0.0267,1.146667 -0.72,2.106667 -2.37334,2.133334 -0.45333,0 -0.8,0 -1.62666,-0.02667 z" />
    <path
       id="path91"
       style=""
       d="m 293.06153,81.928341 c 0,-1.173333 0,-1.52 1.25334,-1.6 l 0.96,-0.05333 v -0.8 c -1.94667,0 -2.82667,0.08 -3.22667,0.08 -0.50667,0 -1.78667,-0.08 -3.38667,-0.08 v 0.8 l 0.96,0.05333 c 1.25334,0.08 1.25334,0.426667 1.25334,1.6 v 8.186667 c 0,1.04 -1.12,0.88 -1.52,0.906666 l -0.69334,0.05333 v 0.773333 c 1.84,-0.02667 3.44,-0.05333 3.94667,-0.05333 0,0 2.42667,0.05333 2.42667,0.05333 0.88,0 2.32,0.08 3.12,-0.48 1.38666,-0.96 2.08,-1.866667 2.05333,-3.626667 0,-0.746666 -0.26667,-1.759999 -1.09333,-2.453333 -1.54667,-1.333333 -2.77334,-1.226666 -4.42667,-1.226666 -0.66667,0 -1.06667,0.16 -1.62667,0.373333 z m 0,3.413334 c 0.61334,-0.213334 1.28,-0.4 1.78667,-0.4 2.61333,0.02667 2.88,1.999999 2.88,3.146666 0,1.306667 -0.69333,2.906667 -2.61333,2.906667 -1.6,0 -2.02667,-0.32 -2.05334,-1.573334 z m 10.21334,3.733333 c 0,1.68 -0.08,1.866666 -0.98667,1.92 l -1.2,0.08 v 0.8 c 1.81333,-0.05333 2.53333,-0.08 3.30667,-0.08 0.77333,0 1.49333,0.02667 3.30666,0.08 v -0.8 l -1.2,-0.08 c -0.90666,-0.05333 -0.98666,-0.24 -0.98666,-1.92 v -6.8 c 0,-1.68 0.08,-1.866667 0.98666,-1.92 l 1.2,-0.08 v -0.8 c -1.81333,0.05333 -2.53333,0.08 -3.30666,0.08 -0.77334,0 -1.49334,-0.02667 -3.30667,-0.08 v 0.8 l 1.2,0.08 c 0.90667,0.05333 0.98667,0.24 0.98667,1.92 z" />
    <path
       id="path93"
       style=""
       d="m 318.68986,80.888341 c 0.90666,0 0.98666,0.24 0.98666,1.92 v 6.266667 c 0,1.68 -0.08,1.866666 -0.98666,1.92 l -1.2,0.08 v 0.8 c 1.81333,-0.05333 2.53333,-0.08 3.30666,-0.08 0.77334,0 1.49334,0.02667 3.30667,0.08 v -0.8 l -1.2,-0.08 c -0.90667,-0.05333 -0.98667,-0.24 -0.98667,-1.92 v -6.8 c 0,-1.68 0.08,-1.866667 0.98667,-1.92 l 1.2,-0.08 v -0.8 c -1.81333,0.05333 -2.53333,0.08 -3.30667,0.08 -0.77333,0 -1.49333,-0.02667 -3.30666,-0.08 h -1.70667 c -1.81333,0.05333 -2.53333,0.08 -3.30667,0.08 -0.77333,0 -1.49333,-0.02667 -3.30666,-0.08 v 0.8 l 1.2,0.08 c 0.90666,0.05333 0.98666,0.24 0.98666,1.92 v 6.8 c 0,1.68 -0.08,1.866666 -0.98666,1.92 l -1.2,0.08 v 0.8 c 1.81333,-0.05333 2.53333,-0.08 3.30666,-0.08 0.77334,0 1.49334,0.02667 3.30667,0.08 v -0.8 l -1.2,-0.08 c -0.90667,-0.05333 -0.98667,-0.24 -0.98667,-1.92 v -6.266667 c 0,-1.68 0.08,-1.92 0.98667,-1.92 z" />
    <path
       id="path95"
       style=""
       d="m 335.92361,89.928341 -0.34666,-0.266667 c -1.70667,1.013334 -2.32,1.253334 -3.46667,1.253334 -1.73333,0 -3.17333,-0.773334 -3.92,-2.08 -0.50667,-0.88 -0.69333,-1.626667 -0.74667,-3.173333 h 3.89334 c 1.84,0 2.98666,-0.08 4.82666,-0.373334 0.0267,-0.373333 0.0533,-0.613333 0.0533,-0.933333 0,-3.066667 -1.97334,-5.066667 -4.96,-5.066667 -0.98667,0 -2.13334,0.346667 -3.22667,0.986667 -2.18667,1.253333 -3.06667,2.906667 -3.06667,5.68 0,1.68 0.4,3.12 1.12,4.133333 1.06667,1.413333 2.85334,2.24 4.85334,2.24 0.98666,0 1.97333,-0.213333 3.06666,-0.693333 0.72,-0.293334 1.28,-0.64 1.38667,-0.8 z m -2.08,-5.253333 c -1.38666,0.05333 -2.02666,0.08 -2.98666,0.08 -1.22667,0 -1.92,-0.02667 -3.36,-0.16 0,-1.253333 0.10666,-1.84 0.45333,-2.533333 0.56,-1.173334 1.70667,-1.893334 2.98667,-1.893334 0.88,0 1.57333,0.346667 2.05333,1.066667 0.58667,0.88 0.77333,1.653333 0.85333,3.44 z" />
    <path
       id="path97"
       style=""
       d="m 341.2707,74.088341 c 0.0533,1.093334 0.18667,1.626667 0.53333,2.32 0.64,1.226667 1.78667,1.893334 3.22667,1.893334 1.36,0 2.48,-0.613334 3.12,-1.733334 0.42667,-0.72 0.58667,-1.306666 0.64,-2.48 h -0.8 c -0.08,1.52 -1.30667,2.613334 -2.96,2.613334 -1.65333,0 -2.88,-1.093334 -2.96,-2.613334 z m 6.69333,5.386667 -6.34666,10.293333 v -7.493333 c 0,-1.68 0.08,-1.866667 0.98666,-1.92 l 1.2,-0.08 v -0.8 c -1.81333,0.05333 -2.53333,0.08 -3.30666,0.08 -0.77334,0 -1.49334,-0.02667 -3.30667,-0.08 v 0.8 l 1.2,0.08 c 0.90667,0.05333 0.98667,0.24 0.98667,1.92 v 6.8 c 0,1.68 -0.08,1.866666 -0.98667,1.92 l -1.2,0.08 v 0.8 c 1.81333,-0.05333 2.53333,-0.08 3.30667,-0.08 0,0 1.14666,0.08 1.14666,0.08 l 6.32,-10.32 v 7.52 c 0,1.68 -0.08,1.866666 -0.98666,1.92 l -1.2,0.08 v 0.8 c 1.81333,-0.05333 2.53333,-0.08 3.30666,-0.08 0.77334,0 1.49334,0.02667 3.30667,0.08 v -0.8 l -1.2,-0.08 c -0.90667,-0.05333 -0.98667,-0.24 -0.98667,-1.92 v -6.8 c 0,-1.68 0.08,-1.866667 0.98667,-1.92 l 1.2,-0.08 v -0.8 c -1.81333,0.05333 -2.53333,0.08 -3.30667,0.08 -0.77333,0 0.21334,-0.02667 -1.12,-0.08 z" />
    <path
       id="path99"
       style=""
       d="m 369.80487,85.181675 c 0,0 -1.22667,1.519999 -2.98667,1.519999 -1.65333,0 -2.85333,-1.333333 -2.85333,-2.026666 v -2.4 c 0,-1.68 0.08,-1.866667 0.98666,-1.92 l 1.2,-0.08 v -0.8 c -1.81333,0.05333 -2.53333,0.08 -3.30666,0.08 -0.77334,0 -1.49334,-0.02667 -3.30667,-0.08 v 0.8 l 1.2,0.08 c 0.90667,0.05333 0.98667,0.24 0.98667,1.92 v 2.4 c 0,1.973333 2.69333,3.413333 4.56,3.413333 1.49333,0 2.93333,-1.173333 3.52,-1.866666 v 2.853333 c 0,1.68 -0.08,1.866666 -0.98667,1.92 l -1.2,0.08 v 0.8 c 1.81333,-0.05333 2.53333,-0.08 3.30667,-0.08 0.77333,0 1.49333,0.02667 3.30666,0.08 v -0.8 l -1.2,-0.08 c -0.90666,-0.05333 -0.98666,-0.24 -0.98666,-1.92 v -6.8 c 0,-1.68 0.08,-1.866667 0.98666,-1.92 l 1.2,-0.08 v -0.8 c -1.81333,0.05333 -2.53333,0.08 -3.30666,0.08 -0.77334,0 -1.49334,-0.02667 -3.30667,-0.08 v 0.8 l 1.2,0.08 c 0.90667,0.05333 0.98667,0.24 0.98667,1.92 z" />
    <path
       id="path101"
       style=""
       d="m 383.1707,89.608341 -0.13333,2.266667 c 1.73333,-0.08 1.73333,-0.08 2.08,-0.08 0.13333,0 0.8,0.02667 1.97333,0.08 v -0.8 l -1.04,-0.05333 c -0.64,-0.02667 -0.74667,-0.24 -0.74667,-1.546666 v -4.88 c 0,-3.893333 -1.12,-5.306667 -4.21333,-5.306667 -1.14667,0 -2.21333,0.293334 -3.22667,0.906667 l -1.41333,0.853333 v 1.733334 l 0.69333,0.186666 0.34667,-0.826666 c 0.56,-1.253334 0.82667,-1.44 2.05333,-1.44 2.50667,0 3.54667,0.986666 3.62667,3.413333 l -2.64,0.48 c -3.62667,0.666667 -5.14667,1.92 -5.14667,4.24 0,2.08 1.25334,3.28 3.36,3.28 0.48,0 0.93334,-0.08 1.12,-0.213334 z m 0,-1.12 c -0.77333,1.093333 -2.45333,2.106667 -3.49333,2.106667 -1.06667,0 -2,-0.986667 -2,-2.133334 0,-0.986666 0.53333,-1.92 1.33333,-2.426666 0.66667,-0.4 2.13333,-0.773333 4.16,-1.066667 z" />
    <path
       id="path103"
       style=""
       d="m 394.9307,85.875008 v 0.133333 c 0,3.76 2.37333,6.32 5.81333,6.32 4.10667,0 7.04,-2.853333 7.04,-6.853333 0,-3.6 -2.61333,-6.186667 -6.26667,-6.186667 -3.36,0 -5.84,2.053334 -6.45333,5.173334 h -2.61333 v -2.186667 c 0,-1.68 0.08,-1.866667 0.98666,-1.92 l 1.2,-0.08 v -0.8 c -1.81333,0.05333 -2.53333,0.08 -3.30666,0.08 -0.77334,0 -1.49334,-0.02667 -3.30667,-0.08 v 0.8 l 1.2,0.08 c 0.90667,0.05333 0.98667,0.24 0.98667,1.92 v 6.8 c 0,1.68 -0.08,1.866666 -0.98667,1.92 l -1.2,0.08 v 0.8 c 1.81333,-0.05333 2.53333,-0.08 3.30667,-0.08 0.77333,0 1.49333,0.02667 3.30666,0.08 v -0.8 l -1.2,-0.08 c -0.90666,-0.05333 -0.98666,-0.24 -0.98666,-1.92 v -3.2 z m 6.10666,-5.706667 c 2.45334,0 4.26667,2.666667 4.26667,6.293333 0,3.066667 -1.36,4.986667 -3.52,4.986667 -2.61333,0 -4.37333,-2.56 -4.37333,-6.346666 0,-3.2 1.28,-4.933334 3.62666,-4.933334 z" />
  </g>
</svg>
