<?xml version="1.0" encoding="UTF-8" standalone="no"?>
<svg
   xmlns:dc="http://purl.org/dc/elements/1.1/"
   xmlns:cc="http://creativecommons.org/ns#"
   xmlns:rdf="http://www.w3.org/1999/02/22-rdf-syntax-ns#"
   xmlns:svg="http://www.w3.org/2000/svg"
   xmlns="http://www.w3.org/2000/svg"
   id="svg2"
   version="1.1"
   viewBox="157.9841 6.1416697 218.8141 93.86667">
  <metadata
     id="metadata11">
    <rdf:RDF>
      <cc:Work
         rdf:about="">
        <dc:format>image/svg+xml</dc:format>
        <dc:type
           rdf:resource="http://purl.org/dc/dcmitype/StillImage" />
      </cc:Work>
    </rdf:RDF>
  </metadata>
  <defs
     id="defs9" />
  <g
     id="text4521"
     style="font-style:normal;font-variant:normal;font-weight:normal;font-stretch:normal;font-size:26.66666603px;line-height:125%;font-family:'Snell Roundhand', cursive;font-variant-ligatures:normal;font-variant-caps:normal;font-variant-numeric:normal;font-feature-settings:normal;text-align:left;letter-spacing:0px;word-spacing:0px;writing-mode:lr-tb;text-anchor:start;fill:#000000;fill-opacity:1;stroke:none;stroke-width:1px;stroke-linecap:butt;stroke-linejoin:miter;stroke-opacity:1"
     aria-label="Съешь же ещё этихмягких французскихбулок да выпей чаю">
    <path
       id="path13"
       style=""
       d="m 174.0907,10.30167 q -0.0267,0.16 -0.0267,0.32 0,0.133333 0,0.32 0,0.56 0.18667,0.933333 0.21333,0.373333 0.53333,0.613333 0.32,0.213334 0.72,0.32 0.42667,0.08 0.85334,0.08 0.72,0 1.46666,-0.346666 0.74667,-0.373334 1.36,-0.986667 0.61334,-0.64 0.98667,-1.466667 0.4,-0.8266663 0.4,-1.733333 0,-1.12 -0.61333,-1.4933333 -0.61334,-0.4 -1.65334,-0.4 -1.2,0 -2.64,0.5866667 -1.44,0.56 -2.93333,1.5733333 -1.46667,1.0133333 -2.85333,2.4000003 -1.36,1.386666 -2.45334,3.013333 -1.06666,1.626667 -1.70666,3.413333 -0.64,1.786667 -0.64,3.626667 0,0.746666 0.18666,1.493333 0.18667,0.746667 0.58667,1.36 0.4,0.586667 1.04,0.96 0.64,0.346667 1.54667,0.346667 1.30666,0 2.48,-0.586667 1.2,-0.613333 2.08,-1.573333 0.90666,-0.96 1.44,-2.133334 0.53333,-1.2 0.53333,-2.373333 0,-1.066667 -0.64,-1.626667 -0.61333,-0.56 -1.68,-0.56 l -0.0267,-0.319999 q 1.68,0 2.48,0.666666 0.82667,0.666667 0.82667,2.266667 0,0.933333 -0.50667,2.08 -0.48,1.146666 -1.44,2.16 -0.96,0.986666 -2.4,1.653333 -1.41333,0.666667 -3.25333,0.666667 -1.38667,0 -2.34667,-0.48 -0.93333,-0.48 -1.52,-1.2 -0.58666,-0.72 -0.85333,-1.546667 -0.24,-0.853333 -0.24,-1.573333 0,-1.68 0.72,-3.413334 0.72,-1.759999 1.89333,-3.386666 1.2,-1.626667 2.74667,-3.04 1.54667,-1.44 3.17333,-2.48 1.65334,-1.0666666 3.28,-1.6799999 1.65334,-0.6133334 3.01334,-0.6133334 1.68,0 2.50666,0.6933334 0.82667,0.6933333 0.82667,2.0266666 0,0.9333333 -0.45333,1.7333333 -0.42667,0.8 -1.17334,1.386667 -0.72,0.56 -1.65333,0.906666 -0.93333,0.32 -1.92,0.32 -1.04,0 -1.78667,-0.48 -0.74666,-0.506666 -0.8,-1.706666 0,-0.16 0,-0.346667 0,-0.213333 0.0267,-0.373333 z" />
    <path
       id="path15"
       style=""
       d="m 187.1032,21.581669 q -0.13333,0.693334 -0.53333,1.386667 -0.4,0.693333 -1.12,1.306667 -0.72,0.613333 -1.52,0.853333 -0.77334,0.213333 -1.44,0.213333 -1.06667,0 -1.78667,-0.613333 -0.69333,-0.64 -0.69333,-1.573333 0,-0.933334 0.45333,-1.76 0.48,-0.826667 1.33333,-1.6 0.8,-0.746667 1.89334,-1.493334 1.12,-0.746666 2.48,-1.6 l -0.0267,-0.05333 q -0.56,0.32 -1.2,0.506667 -0.61333,0.186666 -1.12,0.186666 -0.37333,0 -0.64,-0.05333 -0.24,-0.08 -0.4,-0.16 -0.24,-0.133333 -0.45333,-0.373333 -0.21334,-0.24 -0.26667,-0.586667 -0.4,0.533333 -0.77333,1.12 -0.37334,0.56 -0.66667,0.906667 l -0.21333,-0.16 q 0.29333,-0.373334 0.72,-1.013334 0.45333,-0.64 0.90666,-1.333333 0,-0.666666 0.48,-1.146666 0.37334,-0.373334 0.88,-0.373334 0.08,0 0.16,0.08 0.08,0.05333 0.08,0.186667 0,0.133333 -0.08,0.293333 -0.08,0.16 -0.42666,0.346667 0,0.293333 0.16,0.613333 0.16,0.293334 0.42666,0.533333 0.21334,0.213334 0.53334,0.346667 0.32,0.133333 0.69333,0.106667 0.61333,-0.02667 0.98667,-0.186667 0.4,-0.16 0.69333,-0.4 0.34667,-0.293333 0.53333,-0.533333 0.21334,-0.24 0.42667,-0.24 0.18667,0 0.18667,0.186667 0,0.106666 -0.24,0.32 -0.24,0.213333 -0.64,0.533333 -0.29334,0.24 -0.58667,0.506666 -0.29333,0.266667 -0.58667,0.533334 -1.01333,0.8 -1.76,1.6 -0.72,0.8 -1.2,1.493333 -0.8,1.173333 -0.98666,1.893333 -0.16,0.693334 -0.16,1.2 0,0.64 0.34666,1.04 0.34667,0.4 0.88,0.4 0.61334,0 1.12,-0.32 0.50667,-0.32 0.88,-0.773333 0.42667,-0.533333 0.64,-1.173333 0.21334,-0.666667 0.24,-1.146667 -0.53333,-0.373333 -0.53333,-1.28 0,-0.586667 0.29333,-0.933333 0.29334,-0.373334 0.74667,-0.373334 0.45333,0 0.72,0.4 0.26667,0.4 0.26667,0.986667 0,0.293333 -0.0267,0.533333 0,0.24 -0.0267,0.373334 1.33334,-0.24 2.58667,-1.04 0.64,-0.426667 1.30667,-0.96 0.69333,-0.56 1.38666,-1.44 l 0.16,0.16 q -0.69333,0.933333 -1.38666,1.493333 -0.69334,0.56 -1.33334,0.96 -0.64,0.4 -1.30666,0.666667 -0.66667,0.266666 -1.46667,0.426666 z" />
    <path
       id="path17"
       style=""
       d="m 197.06195,16.808336 q 0,-0.373333 -0.21333,-0.56 -0.18667,-0.186666 -0.48,-0.186666 -0.56,0 -1.22667,0.453333 -0.64,0.426666 -1.28,1.093333 -0.64,0.64 -1.17333,1.386667 -0.50667,0.746666 -0.77334,1.333333 0.58667,-0.106667 1.46667,-0.4 0.88,-0.32 1.68,-0.773333 0.82667,-0.453334 1.41333,-1.04 0.58667,-0.613334 0.58667,-1.306667 z m 4.32,1.413333 q -0.4,0.666667 -1.01333,1.466667 -0.58667,0.8 -1.36,1.6 -0.74667,0.773333 -1.62667,1.52 -0.85333,0.72 -1.78667,1.306667 -0.93333,0.56 -1.89333,0.906666 -0.93333,0.32 -1.84,0.32 -1.12,0 -1.73333,-0.56 -0.61334,-0.586666 -0.61334,-1.653333 0,-1.173333 0.69334,-2.453333 0.72,-1.306667 1.81333,-2.4 1.09333,-1.093334 2.4,-1.813334 1.30667,-0.719999 2.50667,-0.719999 0.66666,0 1.04,0.293333 0.37333,0.266666 0.37333,0.8 0,0.64 -0.69333,1.253333 -0.69334,0.586667 -1.70667,1.093333 -0.98667,0.48 -2.13333,0.88 -1.14667,0.373334 -2.02667,0.56 -0.29333,0.533334 -0.48,1.2 -0.18667,0.666667 -0.18667,1.333334 0,0.32 0.0533,0.64 0.08,0.293333 0.21333,0.56 0.16,0.24 0.4,0.4 0.26667,0.16 0.64,0.16 0.88,0 2.05333,-0.56 1.2,-0.586667 2.42667,-1.546667 1.22667,-0.96 2.34667,-2.186667 1.12,-1.226666 1.92,-2.533333 z" />
    <path
       id="path19"
       style=""
       d="m 210.02153,15.955003 q -1.6,2.16 -2.64,3.573333 -1.04,1.386667 -1.65333,2.293333 -0.58667,0.906667 -0.82667,1.413334 -0.21333,0.506666 -0.21333,0.853333 0,0.826667 0.69333,0.826667 1.06667,0 2.64,-1.306667 1.6,-1.333333 3.57334,-4.053333 0.26666,-0.4 0.56,-0.853334 0.32,-0.48 0.61333,-0.96 0.32,-0.48 0.61333,-0.933333 0.32,-0.48 0.58667,-0.853333 h 1.84 q -1.41333,1.893333 -2.4,3.28 -0.98667,1.36 -1.62667,2.32 -0.61333,0.96 -0.90666,1.6 -0.29334,0.64 -0.29334,1.066666 0,0.8 0.77334,0.8 0.26666,0 0.61333,-0.106666 0.37333,-0.133334 0.85333,-0.426667 0.50667,-0.32 1.12,-0.853333 0.64,-0.533334 1.44,-1.36 0.77334,-0.773334 1.65334,-1.84 0.88,-1.066667 1.81333,-2.346667 l 0.26667,0.08 q -1.01334,1.36 -1.86667,2.426667 -0.85333,1.066666 -1.62667,1.84 -0.77333,0.826666 -1.44,1.386666 -0.66666,0.56 -1.22666,0.906667 -0.56,0.32 -1.04,0.453333 -0.45334,0.16 -0.88,0.16 -0.69334,0 -1.12,-0.426666 -0.4,-0.453334 -0.4,-1.146667 0,-0.693333 0.42666,-1.626667 l -0.0533,-0.02667 q -1.44,1.68 -2.69333,2.453333 -1.22667,0.773333 -2.29334,0.773333 -0.69333,0 -1.09333,-0.346666 -0.4,-0.373334 -0.4,-1.066667 0,-0.373333 0.16,-0.826667 0.16,-0.48 0.50667,-0.96 l -0.0533,-0.02667 q -1.36,1.52 -2.58666,2.373333 -1.2,0.853333 -2.32,0.853333 -0.74667,0 -1.14667,-0.346666 -0.42667,-0.373334 -0.42667,-1.04 0,-0.186667 0.0533,-0.453334 0.0267,-0.293333 0.21333,-0.72 0.16,-0.426666 0.53333,-1.04 0.37334,-0.64 1.01334,-1.546666 l 3.04,-4.24 h 1.76 l -3.46667,4.693333 q -0.66667,0.906667 -1.04,1.546667 -0.37333,0.613333 -0.56,1.04 -0.18667,0.4 -0.24,0.64 -0.0267,0.213333 -0.0267,0.32 0,0.32 0.18667,0.533333 0.21333,0.186667 0.50667,0.186667 2.13333,0 5.70666,-4.72 0.34667,-0.426667 0.72,-0.96 0.4,-0.56 0.8,-1.12 0.4,-0.586667 0.77334,-1.12 0.4,-0.56 0.72,-1.04 z" />
    <path
       id="path21"
       style=""
       d="m 228.36987,18.035003 q -0.53334,0.773333 -1.25334,1.386666 -0.72,0.586667 -1.38666,1.013334 -0.85334,0.533333 -1.54667,0.773333 -0.66667,0.24 -1.30667,0.373333 -0.10666,0.453334 -0.45333,1.226667 -0.34667,0.746667 -1.28,1.52 -1.22667,1.013333 -3.01333,1.013333 -1.01334,0 -1.6,-0.586666 -0.58667,-0.586667 -0.58667,-1.546667 0,-0.56 0.24,-1.333333 0.26667,-0.8 0.88,-1.626667 l 3.06667,-4.293333 h 1.76 l -2.50667,3.386666 q -1.17333,1.6 -1.65333,2.56 -0.45334,0.96 -0.45334,1.813334 0,0.506666 0.29334,0.906666 0.32,0.4 0.85333,0.4 0.45333,0 1.01333,-0.186666 0.56,-0.186667 1.14667,-0.88 0.48,-0.586667 0.66667,-1.173334 0.18666,-0.586666 0.26666,-1.173333 -0.26666,-0.133333 -0.42666,-0.453333 -0.13334,-0.346667 -0.13334,-0.773334 0,-0.746666 0.32,-1.04 0.34667,-0.32 0.69334,-0.32 0.42666,0 0.72,0.373334 0.29333,0.346666 0.29333,1.013333 0,0.346667 -0.0267,0.48 0,0.133333 -0.0267,0.426667 0.58666,-0.08 1.25333,-0.346667 0.66667,-0.266667 1.33333,-0.666667 0.69334,-0.426666 1.44,-1.093333 0.77334,-0.666667 1.25334,-1.333333 z" />
    <path
       id="path23"
       style=""
       d="m 234.60195,18.141669 q 0.85333,-1.253333 1.68,-1.92 0.85333,-0.693333 1.92,-0.693333 1.2,0 1.76,0.64 0.58667,0.64 0.58667,1.626667 0,1.066666 -0.66667,2.24 -0.66667,1.146666 -1.65333,2.213333 l 0.0533,0.05333 q 0.4,-0.346666 1.06667,-0.853333 0.66666,-0.506667 1.49333,-1.253333 0.82667,-0.746667 1.76,-1.76 0.96,-1.013334 1.94667,-2.4 l 1.73333,-0.08 -4.56,6.933333 0.0533,0.05333 q 0.56,-0.773333 1.30667,-1.546666 0.77333,-0.8 1.6,-1.546667 0.85333,-0.746667 1.73333,-1.413333 0.90667,-0.666667 1.76,-1.226667 0.32,-0.213333 0.74667,-0.453333 0.45333,-0.266667 0.93333,-0.48 0.48,-0.24 0.96,-0.373333 0.50667,-0.16 0.93334,-0.16 0.98666,0 1.44,0.4 0.48,0.399999 0.48,0.933333 0,0.48 -0.34667,0.8 -0.34667,0.293333 -0.82667,0.293333 -0.13333,0 -0.24,0 -0.08,-0.02667 -0.24,-0.08 0.21334,-0.4 0.29334,-0.72 0.08,-0.346667 0.08,-0.56 0,-0.426667 -0.21334,-0.586667 -0.18666,-0.159999 -0.56,-0.159999 -0.24,0 -0.58666,0.106666 -0.32,0.08 -0.77334,0.346667 -0.42666,0.266666 -0.96,0.746666 -0.53333,0.453334 -1.2,1.173334 -0.61333,0.666666 -1.04,1.386666 -0.42666,0.693334 -0.72,1.36 -0.29333,0.64 -0.42666,1.2 -0.13334,0.56 -0.13334,0.96 0,0.693334 0.32,1.146667 0.32,0.426667 0.93334,0.426667 0.77333,0 1.94666,-0.666667 1.2,-0.693333 2.64,-2.053333 0.85334,-0.826667 1.76,-1.813334 0.93334,-1.013333 1.86667,-2.426666 l 0.21333,0.106666 q -0.96,1.493334 -1.92,2.56 -0.93333,1.04 -1.81333,1.866667 -1.65333,1.546667 -2.98667,2.213333 -1.33333,0.64 -2.42666,0.64 -0.8,0 -1.38667,-0.48 -0.58667,-0.48 -0.58667,-1.573333 0,-0.746667 0.26667,-1.466667 0.29333,-0.746666 0.69333,-1.386666 0.4,-0.666667 0.85334,-1.2 0.45333,-0.533334 0.8,-0.88 l -0.0533,-0.08 q -0.61333,0.48 -1.36,1.12 -0.74666,0.613333 -1.6,1.44 -0.82666,0.8 -1.73333,1.866666 -0.88,1.066667 -1.78667,2.426667 h -1.65333 l 4.50667,-6.986667 -0.0533,-0.05333 q -1.57333,1.76 -3.12,3.04 -1.54666,1.253333 -2.90666,2.293333 -0.42667,0.32 -0.96,0.666667 -0.50667,0.346667 -1.09334,0.64 -0.58666,0.266667 -1.17333,0.426667 -0.58667,0.186666 -1.12,0.186666 -1.2,0 -1.76,-0.613333 -0.58667,-0.613333 -0.58667,-1.626667 0,-0.746666 0.4,-1.2 0.4,-0.453333 0.98667,-0.453333 0.45333,0 0.66667,0.24 0.24,0.24 0.24,0.613333 0,0.373334 -0.21334,0.613334 -0.18666,0.24 -0.56,0.24 -0.18666,0 -0.37333,-0.05333 -0.16,-0.05333 -0.29333,-0.32 -0.18667,0.133334 -0.24,0.346667 -0.08,0.213333 -0.08,0.373333 0,0.266667 0.10666,0.533334 0.08,0.266666 0.29334,0.506666 0.18666,0.213334 0.50666,0.346667 0.34667,0.133333 0.85334,0.133333 0.4,0 0.90666,-0.186666 0.53334,-0.186667 1.06667,-0.533334 0.56,-0.346666 1.12,-0.853333 0.56,-0.533333 1.06667,-1.2 1.12,-1.466667 1.65333,-2.746667 0.56,-1.28 0.56,-2.16 0,-0.72 -0.37333,-1.093333 -0.37334,-0.4 -0.93334,-0.4 -0.85333,0 -1.57333,0.72 -0.72,0.72 -1.44,1.706667 z" />
    <path
       id="path25"
       style=""
       d="m 259.97861,16.808336 q 0,-0.373333 -0.21333,-0.56 -0.18667,-0.186666 -0.48,-0.186666 -0.56,0 -1.22667,0.453333 -0.64,0.426666 -1.28,1.093333 -0.64,0.64 -1.17333,1.386667 -0.50667,0.746666 -0.77333,1.333333 0.58666,-0.106667 1.46666,-0.4 0.88,-0.32 1.68,-0.773333 0.82667,-0.453334 1.41334,-1.04 0.58666,-0.613334 0.58666,-1.306667 z m 4.32,1.413333 q -0.4,0.666667 -1.01333,1.466667 -0.58667,0.8 -1.36,1.6 -0.74667,0.773333 -1.62667,1.52 -0.85333,0.72 -1.78666,1.306667 -0.93334,0.56 -1.89334,0.906666 -0.93333,0.32 -1.84,0.32 -1.12,0 -1.73333,-0.56 -0.61333,-0.586666 -0.61333,-1.653333 0,-1.173333 0.69333,-2.453333 0.72,-1.306667 1.81333,-2.4 1.09334,-1.093334 2.4,-1.813334 1.30667,-0.719999 2.50667,-0.719999 0.66667,0 1.04,0.293333 0.37333,0.266666 0.37333,0.8 0,0.64 -0.69333,1.253333 -0.69333,0.586667 -1.70667,1.093333 -0.98666,0.48 -2.13333,0.88 -1.14667,0.373334 -2.02667,0.56 -0.29333,0.533334 -0.48,1.2 -0.18666,0.666667 -0.18666,1.333334 0,0.32 0.0533,0.64 0.08,0.293333 0.21333,0.56 0.16,0.24 0.4,0.4 0.26667,0.16 0.64,0.16 0.88,0 2.05334,-0.56 1.2,-0.586667 2.42666,-1.546667 1.22667,-0.96 2.34667,-2.186667 1.12,-1.226666 1.92,-2.533333 z" />
    <path
       id="path27"
       style=""
       d="m 275.55153,16.808336 q 0,-0.373333 -0.21333,-0.56 -0.18667,-0.186666 -0.48,-0.186666 -0.56,0 -1.22667,0.453333 -0.64,0.426666 -1.28,1.093333 -0.64,0.64 -1.17333,1.386667 -0.50667,0.746666 -0.77334,1.333333 0.58667,-0.106667 1.46667,-0.4 0.88,-0.32 1.68,-0.773333 0.82667,-0.453334 1.41333,-1.04 0.58667,-0.613334 0.58667,-1.306667 z m 4.32,1.413333 q -0.4,0.666667 -1.01333,1.466667 -0.58667,0.8 -1.36,1.6 -0.74667,0.773333 -1.62667,1.52 -0.85333,0.72 -1.78667,1.306667 -0.93333,0.56 -1.89333,0.906666 -0.93333,0.32 -1.84,0.32 -1.12,0 -1.73333,-0.56 -0.61334,-0.586666 -0.61334,-1.653333 0,-1.173333 0.69334,-2.453333 0.72,-1.306667 1.81333,-2.4 1.09333,-1.093334 2.4,-1.813334 1.30667,-0.719999 2.50667,-0.719999 0.66666,0 1.04,0.293333 0.37333,0.266666 0.37333,0.8 0,0.64 -0.69333,1.253333 -0.69334,0.586667 -1.70667,1.093333 -0.98667,0.48 -2.13333,0.88 -1.14667,0.373334 -2.02667,0.56 -0.29333,0.533334 -0.48,1.2 -0.18667,0.666667 -0.18667,1.333334 0,0.32 0.0533,0.64 0.08,0.293333 0.21333,0.56 0.16,0.24 0.4,0.4 0.26667,0.16 0.64,0.16 0.88,0 2.05333,-0.56 1.2,-0.586667 2.42667,-1.546667 1.22667,-0.96 2.34667,-2.186667 1.12,-1.226666 1.92,-2.533333 z" />
    <path
       id="path29"
       style=""
       d="m 288.51111,15.955003 q -1.6,2.16 -2.64,3.573333 -1.04,1.386667 -1.65333,2.293333 -0.58667,0.906667 -0.82667,1.413334 -0.21333,0.506666 -0.21333,0.853333 0,0.826667 0.69333,0.826667 1.06667,0 2.64,-1.306667 1.6,-1.333333 3.57334,-4.053333 0.26666,-0.4 0.56,-0.853334 0.32,-0.48 0.61333,-0.96 0.32,-0.48 0.61333,-0.933333 0.32,-0.48 0.58667,-0.853333 h 1.84 q -1.41333,1.893333 -2.4,3.28 -0.98667,1.36 -1.62667,2.32 -0.61333,0.96 -0.90666,1.6 -0.29334,0.64 -0.29334,1.066666 0,0.8 0.77334,0.8 0.26666,0 0.61333,-0.106666 0.37333,-0.133334 0.85333,-0.426667 0.50667,-0.32 1.12,-0.853333 0.64,-0.533334 1.44,-1.36 0.77334,-0.773334 1.65334,-1.84 0.88,-1.066667 1.81333,-2.346667 l 0.26667,0.08 q -1.01334,1.36 -1.86667,2.426667 -0.85333,1.066666 -1.62667,1.84 -0.77333,0.826666 -1.44,1.386666 -0.66666,0.56 -1.22666,0.906667 -0.29334,0.16 -0.56,0.293333 -0.13334,0.106667 -0.32,0.346667 -0.18667,0.24 -0.32,0.533333 -0.32,0.64 -0.32,1.626667 0,0.773333 -0.21334,1.306667 -0.18666,0.56 -0.53333,0.933333 -0.34667,0.373333 -0.82667,0.64 -0.45333,0.266666 -1.01333,0.453333 l -1.2,0.4 -0.08,-0.266667 0.93333,-0.346666 q 0.82667,-0.293334 1.14667,-0.96 0.32,-0.64 0.32,-1.653333 0,-0.773334 0.24,-1.253334 0.26667,-0.453333 0.72,-0.826666 0.32,-0.293334 0.64,-0.506667 0.24,-0.133333 0.42667,-0.266667 -0.0267,0 -0.08,0 -0.45334,0.16 -0.88,0.16 -0.69334,0 -1.12,-0.426666 -0.4,-0.453334 -0.4,-1.146667 0,-0.693333 0.42666,-1.626667 l -0.0533,-0.02667 q -1.44,1.68 -2.69333,2.453333 -1.22667,0.773333 -2.29334,0.773333 -0.69333,0 -1.09333,-0.346666 -0.4,-0.373334 -0.4,-1.066667 0,-0.373333 0.16,-0.826667 0.16,-0.48 0.50667,-0.96 l -0.0533,-0.02667 q -1.36,1.52 -2.58666,2.373333 -1.2,0.853333 -2.32,0.853333 -0.74667,0 -1.14667,-0.346666 -0.42667,-0.373334 -0.42667,-1.04 0,-0.186667 0.0533,-0.453334 0.0267,-0.293333 0.21333,-0.72 0.16,-0.426666 0.53333,-1.04 0.37334,-0.64 1.01334,-1.546666 l 3.04,-4.24 h 1.76 l -3.46667,4.693333 q -0.66667,0.906667 -1.04,1.546667 -0.37333,0.613333 -0.56,1.04 -0.18667,0.4 -0.24,0.64 -0.0267,0.213333 -0.0267,0.32 0,0.32 0.18667,0.533333 0.21333,0.186667 0.50667,0.186667 2.13333,0 5.70666,-4.72 0.34667,-0.426667 0.72,-0.96 0.4,-0.56 0.8,-1.12 0.4,-0.586667 0.77334,-1.12 0.4,-0.56 0.72,-1.04 z" />
    <path
       id="path31"
       style=""
       d="m 302.27028,16.808336 q 0,-0.373333 -0.21333,-0.56 -0.18667,-0.186666 -0.48,-0.186666 -0.56,0 -1.22667,0.453333 -0.64,0.426666 -1.28,1.093333 -0.64,0.64 -1.17333,1.386667 -0.50667,0.746666 -0.77334,1.333333 0.58667,-0.106667 1.46667,-0.4 0.88,-0.32 1.68,-0.773333 0.82667,-0.453334 1.41333,-1.04 0.58667,-0.613334 0.58667,-1.306667 z m 4.32,1.413333 q -0.4,0.666667 -1.01333,1.466667 -0.58667,0.8 -1.36,1.6 -0.74667,0.773333 -1.62667,1.52 -0.85333,0.72 -1.78667,1.306667 -0.93333,0.56 -1.89333,0.906666 -0.93333,0.32 -1.84,0.32 -1.12,0 -1.73333,-0.56 -0.61334,-0.586666 -0.61334,-1.653333 0,-1.173333 0.69334,-2.453333 0.72,-1.306667 1.81333,-2.4 1.09333,-1.093334 2.4,-1.813334 1.30667,-0.719999 2.50667,-0.719999 0.66666,0 1.04,0.293333 0.37333,0.266666 0.37333,0.8 0,0.64 -0.69333,1.253333 -0.69334,0.586667 -1.70667,1.093333 -0.98667,0.48 -2.13333,0.88 -1.14667,0.373334 -2.02667,0.56 -0.29333,0.533334 -0.48,1.2 -0.18667,0.666667 -0.18667,1.333334 0,0.32 0.0533,0.64 0.08,0.293333 0.21333,0.56 0.16,0.24 0.4,0.4 0.26667,0.16 0.64,0.16 0.88,0 2.05333,-0.56 1.2,-0.586667 2.42667,-1.546667 1.22667,-0.96 2.34667,-2.186667 1.12,-1.226666 1.92,-2.533333 z m -1.84,-7.013333 q 0.32,0 0.48,0.32 0.18667,0.32 0.18667,0.613334 0,0.4 -0.29334,0.693333 -0.26666,0.293333 -0.72,0.293333 -0.34666,0 -0.53333,-0.293333 -0.16,-0.293333 -0.16,-0.613333 0,-0.453334 0.29333,-0.72 0.29334,-0.293334 0.74667,-0.293334 z m -3.84,0 q 0.32,0 0.48,0.32 0.18667,0.32 0.18667,0.613334 0,0.4 -0.29334,0.693333 -0.26666,0.293333 -0.72,0.293333 -0.34666,0 -0.53333,-0.293333 -0.16,-0.293333 -0.16,-0.613333 0,-0.453334 0.29333,-0.72 0.29334,-0.293334 0.74667,-0.293334 z" />
    <path
       id="path33"
       style=""
       d="m 312.85653,18.115003 q 0.29334,-0.453334 0.61334,-0.88 0.34666,-0.453334 0.77333,-0.826667 0.45333,-0.4 0.98667,-0.64 0.56,-0.24 1.22666,-0.24 1.17334,0 1.73334,0.64 0.56,0.613333 0.56,1.466667 0,1.066666 -0.29334,1.786666 -0.29333,0.72 -0.42666,1.04 0.82666,-0.02667 1.57333,-0.186666 0.77333,-0.16 1.46667,-0.506667 0.61333,-0.293333 1.14666,-0.72 0.56,-0.453333 1.04,-1.093333 l 0.21334,0.133333 q -0.93334,1.226667 -2.32,1.893333 -1.41334,0.666667 -3.25334,0.746667 -0.37333,0.586667 -0.93333,1.36 -0.56,0.746667 -1.62667,1.6 -0.90666,0.72 -2.08,1.2 -1.14666,0.453333 -2.32,0.453333 -0.69333,0 -1.14666,-0.186666 -0.48,-0.186667 -0.74667,-0.48 -0.26667,-0.32 -0.37333,-0.72 -0.10667,-0.4 -0.10667,-0.826667 0,-0.72 0.4,-1.2 0.4,-0.48 1.01333,-0.48 0.45334,0 0.66667,0.266667 0.21333,0.266666 0.21333,0.613333 0,0.373333 -0.24,0.613333 -0.21333,0.213334 -0.56,0.213334 -0.42666,0 -0.64,-0.373334 -0.18666,0.133334 -0.24,0.346667 -0.08,0.213333 -0.08,0.373333 0,0.24 0.08,0.533334 0.08,0.266666 0.29334,0.48 0.18666,0.213333 0.53333,0.373333 0.37333,0.133333 0.93333,0.133333 1.2,0 2.61334,-1.12 1.41333,-1.12 2.69333,-3.2 h -3.68 l 0.16,-0.32 h 3.68 q 0.34667,-0.56 0.61333,-1.333333 0.29334,-0.773333 0.29334,-1.653333 0,-0.613334 -0.34667,-1.066667 -0.32,-0.48 -0.88,-0.48 -0.53333,0 -0.96,0.24 -0.4,0.213333 -0.77333,0.586667 -0.37334,0.373333 -0.66667,0.8 -0.29333,0.4 -0.58667,0.8 z" />
    <path
       id="path35"
       style=""
       d="m 318.45278,25.128336 q 0.58667,-0.986667 1.36,-2.16 0.74667,-1.173333 1.52,-2.373333 0.8,-1.226667 1.54667,-2.4 0.77333,-1.2 1.38667,-2.24 h 1.62666 l -3.52,4.96 0.0533,0.05333 q 0.50666,-0.613333 1.22666,-1.493333 0.72,-0.906667 1.57334,-1.733334 0.88,-0.826666 1.86666,-1.413333 0.98667,-0.586666 2.02667,-0.586666 0.64,0 1.04,0.346666 0.42667,0.32 0.42667,0.96 0,0.373333 -0.26667,0.906667 -0.26667,0.533333 -0.64,1.093333 -0.34667,0.533333 -0.72,1.04 -0.37333,0.506667 -0.58667,0.826667 l 0.0533,0.05333 q 0.56,-0.8 1.33333,-1.706667 0.8,-0.906666 1.68,-1.68 0.90667,-0.8 1.84,-1.306666 0.96,-0.533333 1.84,-0.533333 0.77333,0 1.14667,0.373333 0.4,0.373333 0.4,1.04 0,0.453333 -0.32,1.066666 -0.29334,0.613334 -0.77334,1.306667 -0.45333,0.666667 -0.98666,1.36 -0.53334,0.693333 -1.01334,1.333333 -0.45333,0.64 -0.77333,1.2 -0.29333,0.533334 -0.29333,0.906667 0,0.32 0.18666,0.506667 0.21334,0.186666 0.50667,0.186666 0.64,0 1.49333,-0.506666 0.88,-0.506667 1.86667,-1.413334 1.01333,-0.906666 2.10667,-2.16 1.09333,-1.28 2.21333,-2.8 l 0.21333,0.106667 q -1.09333,1.493333 -2.18666,2.8 -1.09334,1.28 -2.13334,2.24 -1.01333,0.96 -1.97333,1.52 -0.93333,0.533333 -1.73333,0.533333 -0.82667,0 -1.22667,-0.453333 -0.4,-0.48 -0.4,-1.173333 0,-0.506667 0.29333,-1.12 0.32,-0.64 0.77334,-1.306667 0.48,-0.666667 1.01333,-1.333333 0.53333,-0.666667 0.98667,-1.28 0.48,-0.613334 0.77333,-1.12 0.32,-0.506667 0.32,-0.826667 0,-0.373333 -0.21333,-0.506667 -0.18667,-0.159999 -0.48,-0.159999 -0.53334,0 -1.25334,0.373333 -0.72,0.346666 -1.52,1.013333 -0.77333,0.64 -1.6,1.52 -0.82666,0.853333 -1.62666,1.866667 -0.77334,0.986666 -1.46667,2.106666 -0.69333,1.093334 -1.2,2.186667 h -1.70667 q 0.74667,-1.333333 1.6,-2.666667 0.88,-1.333333 1.62667,-2.453333 0.74667,-1.146667 1.25333,-1.973333 0.50667,-0.853334 0.50667,-1.253334 0,-0.719999 -0.74667,-0.719999 -0.66666,0 -1.49333,0.506666 -0.82667,0.48 -1.68,1.28 -0.85333,0.773333 -1.68,1.786667 -0.82667,0.986666 -1.57333,2 -0.72,1.013333 -1.28,1.946666 -0.56,0.906667 -0.88,1.546667 z" />
    <path
       id="path37"
       style=""
       d="m 343.99862,15.955003 q -1.04,1.413333 -2,2.693333 -0.96,1.28 -1.70667,2.346667 -0.74667,1.066666 -1.2,1.866666 -0.42667,0.773334 -0.42667,1.226667 0,0.426667 0.21334,0.64 0.21333,0.186667 0.56,0.186667 0.50666,0 1.09333,-0.32 0.61333,-0.32 1.22667,-0.826667 0.64,-0.506667 1.22666,-1.12 0.61334,-0.613333 1.12,-1.2 0.53334,-0.613333 0.90667,-1.12 0.4,-0.506667 0.58667,-0.8 l 2.34666,-3.573333 h 1.84 q -1.44,1.973333 -2.45333,3.36 -0.98667,1.36 -1.62667,2.32 -0.61333,0.96 -0.88,1.573333 -0.26666,0.586667 -0.26666,1.04 0,0.32 0.18666,0.56 0.18667,0.213333 0.53334,0.213333 0.53333,0 1.22666,-0.373333 0.69334,-0.4 1.44,-1.013333 0.74667,-0.64 1.46667,-1.413334 0.74667,-0.8 1.38667,-1.573333 0.66666,-0.773333 1.2,-1.44 0.53333,-0.693333 0.82666,-1.12 l 0.26667,0.08 q -0.32,0.453333 -0.85333,1.173333 -0.53334,0.693334 -1.2,1.493334 -0.66667,0.773333 -1.41334,1.6 -0.74666,0.8 -1.54666,1.44 -0.77334,0.64 -1.54667,1.066666 -0.74667,0.4 -1.41333,0.4 -0.74667,0 -1.2,-0.4 -0.42667,-0.426666 -0.42667,-1.12 0,-0.533333 0.16,-1.013333 0.18667,-0.506667 0.26667,-0.64 l -0.0533,-0.05333 q -0.56,0.64 -1.17333,1.226666 -0.61333,0.586667 -1.22667,1.04 -0.61333,0.426667 -1.25333,0.693334 -0.61333,0.266666 -1.22667,0.266666 -0.85333,0 -1.22666,-0.373333 -0.37334,-0.4 -0.37334,-0.933333 0,-0.666667 0.37334,-1.44 0.34666,-0.773334 0.98666,-1.733334 0.64,-0.96 1.52,-2.16 0.90667,-1.2 1.97334,-2.746666 z" />
    <path
       id="path39"
       style=""
       d="m 366.38152,18.035003 q -0.58666,1.04 -1.65333,2.32 -1.06667,1.253333 -2.32,2.373333 -1.25333,1.12 -2.58667,1.866667 -1.30666,0.746666 -2.45333,0.746666 -0.96,0 -1.46667,-0.453333 -0.50666,-0.453333 -0.50666,-1.146667 0,-0.666666 0.29333,-1.253333 l -0.0533,-0.05333 q -0.42667,0.56 -0.98667,1.093333 -0.53333,0.506667 -1.17333,0.933333 -0.61334,0.4 -1.30667,0.64 -0.69333,0.24 -1.41333,0.24 -1.25334,0 -1.94667,-0.613333 -0.72,-0.613333 -0.72,-1.626667 0,-0.693333 0.4,-1.173333 0.4,-0.48 0.96,-0.48 0.50667,0 0.72,0.266667 0.21333,0.266666 0.21333,0.613333 0,0.346667 -0.21333,0.586667 -0.18667,0.24 -0.56,0.24 -0.50667,0 -0.66667,-0.373334 -0.32,0.266667 -0.32,0.693334 0,0.746666 0.61334,1.146666 0.58666,0.4 1.52,0.4 0.69333,0 1.44,-0.373333 0.77333,-0.4 1.46666,-1.013333 0.72,-0.64 1.36,-1.44 0.64,-0.826667 1.12,-1.68 0.48,-0.853334 0.74667,-1.68 0.29333,-0.826667 0.29333,-1.466667 0,-0.64 -0.32,-1.066667 -0.29333,-0.453333 -0.93333,-0.453333 -0.50667,0 -0.96,0.266667 -0.42667,0.24 -0.8,0.64 -0.37333,0.373333 -0.66667,0.8 -0.26666,0.4 -0.48,0.72 l -0.24,-0.16 q 0.32,-0.506667 0.64,-0.96 0.34667,-0.48 0.74667,-0.826667 0.4,-0.373333 0.90667,-0.586666 0.50666,-0.213334 1.14666,-0.213334 0.61334,0 1.04,0.213334 0.45334,0.186666 0.74667,0.533333 0.29333,0.346666 0.45333,0.773333 0.16,0.426667 0.16,0.906667 0.32,-0.346667 0.77334,-0.72 0.48,-0.4 1.04,-0.72 0.56,-0.346667 1.2,-0.56 0.64,-0.213333 1.30666,-0.213333 0.85334,0 1.33334,0.426666 0.50666,0.4 0.50666,0.986667 0,0.373333 -0.34666,0.693333 -0.34667,0.32 -0.90667,0.32 -0.10667,0 -0.37333,-0.05333 0.13333,-0.373334 0.24,-0.666667 0.10666,-0.32 0.10666,-0.586667 0,-0.799999 -0.74666,-0.799999 -0.61334,0 -1.30667,0.373333 -0.69333,0.346666 -1.36,0.96 -0.66667,0.586666 -1.30667,1.36 -0.61333,0.746666 -1.09333,1.573333 -0.45333,0.8 -0.74667,1.573333 -0.26666,0.773334 -0.26666,1.413334 0,0.773333 0.29333,1.2 0.32,0.4 1.01333,0.4 0.58667,0 1.30667,-0.346667 0.72,-0.346667 1.52,-0.906667 0.8,-0.56 1.6,-1.28 0.8,-0.746666 1.52,-1.52 0.72,-0.773333 1.30667,-1.52 0.58666,-0.773333 0.93333,-1.386666 z" />
    <path
       id="path41"
       style=""
       d="m 176.22403,49.288339 q -0.88,1.2 -1.6,2.213333 -0.72,0.986667 -1.33333,1.813333 -1.25333,1.733334 -1.78667,2.72 -0.50666,0.986667 -0.50666,1.52 0,0.8 0.8,0.8 0.50666,0 1.54666,-0.613333 1.04,-0.64 2.56,-2.24 0.74667,-0.8 1.6,-1.813333 0.85334,-1.013334 1.76,-2.266667 l 0.26667,0.08 q -1.84,2.56 -3.41333,4.186667 -0.90667,0.933333 -1.6,1.52 -0.69334,0.586666 -1.25334,0.906666 -0.56,0.32 -1.01333,0.426667 -0.45333,0.133333 -0.85333,0.133333 -0.69334,0 -1.12,-0.426666 -0.42667,-0.453334 -0.42667,-1.146667 0,-0.373333 0.10667,-0.72 0.10666,-0.373333 0.4,-0.906667 l -0.0533,-0.02667 q -0.53333,0.586666 -1.06666,1.12 -0.53334,0.506666 -1.09334,0.933333 -0.69333,0.533333 -1.38666,0.853333 -0.69334,0.32 -1.38667,0.32 -0.64,0 -1.06667,-0.4 -0.42666,-0.4 -0.42666,-1.146666 0,-0.373334 0.16,-0.773334 0.18666,-0.426666 0.42666,-0.773333 l -0.0533,-0.02667 q -0.69333,0.773334 -1.28,1.36 -0.58667,0.586667 -1.12,0.986667 -0.53333,0.373333 -1.04,0.56 -0.50667,0.213333 -1.01333,0.213333 -0.93334,0 -1.44,-0.56 -0.26667,-0.293333 -0.4,-0.693333 -0.13334,-0.4 -0.13334,-0.853333 0,-0.72 0.4,-1.253334 0.4,-0.533333 0.98667,-0.533333 0.45333,0 0.66667,0.266667 0.24,0.24 0.24,0.586666 0,0.853334 -0.85334,0.853334 -0.18666,0 -0.34666,-0.08 -0.18667,-0.106667 -0.24,-0.293334 -0.21334,0.213334 -0.26667,0.426667 -0.0533,0.213333 -0.0533,0.373333 0,0.24 0.10666,0.533334 0.08,0.266666 0.26667,0.48 0.4,0.426666 1.04,0.426666 1.22667,0 2.66667,-1.36 1.46666,-1.36 3.46666,-4.08 0.61334,-0.8 1.22667,-1.653333 0.61333,-0.88 1.33333,-1.893333 l 1.81334,-0.08 q -1.04,1.413333 -1.84,2.453333 -0.77334,1.04 -1.36,1.866667 -0.61334,0.88 -1.04,1.493333 -0.4,0.613333 -0.64,1.066667 -0.24,0.426666 -0.34667,0.746666 -0.10667,0.32 -0.10667,0.586667 0,0.373333 0.21334,0.56 0.24,0.186667 0.56,0.186667 0.53333,0 1.14666,-0.32 0.61334,-0.32 1.33334,-0.933334 0.61333,-0.533333 1.28,-1.226666 0.66666,-0.72 1.38666,-1.573334 0.85334,-1.013333 1.68,-2.266666 0.82667,-1.28 1.68,-2.64 z" />
    <path
       id="path43"
       style=""
       d="m 187.00112,49.288339 q -0.77334,1.093333 -1.38667,1.973333 -0.61333,0.853333 -1.14667,1.653333 -0.53333,0.773334 -0.98666,1.493334 -0.42667,0.693333 -0.74667,1.226666 -0.50667,0.853334 -0.66667,1.333334 -0.13333,0.48 -0.13333,0.693333 0,0.293333 0.16,0.506667 0.18667,0.186666 0.48,0.186666 0.64,0 1.65333,-0.64 1.01334,-0.666666 2.42667,-2.106666 0.85333,-0.853334 1.68,-1.866667 0.82667,-1.04 1.73333,-2.4 l 0.24,0.08 q -0.88,1.306667 -1.76,2.373333 -0.85333,1.066667 -1.73333,2 -1.44,1.52 -2.56,2.213334 -1.09333,0.666666 -1.86667,0.666666 -0.77333,0 -1.17333,-0.373333 -0.4,-0.373333 -0.4,-0.986667 0,-0.64 0.32,-1.28 0.32,-0.64 0.77333,-1.413333 l 0.34667,-0.613333 h -0.08 q -0.13333,0.133333 -0.4,0.293333 -0.24,0.133333 -0.45333,0.266667 -0.77334,1.12 -1.38667,1.84 -0.58667,0.72 -1.17333,1.173333 -1.38667,1.093333 -2.64,1.093333 -0.93334,0 -1.52,-0.613333 -0.61334,-0.64 -0.61334,-1.653333 0,-0.693334 0.4,-1.146667 0.37334,-0.48 0.96,-0.48 0.45334,0 0.69334,0.24 0.24,0.24 0.24,0.613333 0,0.346667 -0.21334,0.613334 -0.18666,0.24 -0.58666,0.24 -0.21334,0 -0.37334,-0.08 -0.16,-0.08 -0.26666,-0.293334 -0.18667,0.133334 -0.24,0.32 -0.08,0.186667 -0.08,0.346667 0,0.613333 0.45333,1.093333 0.42667,0.48 1.17333,0.48 0.64,0 1.22667,-0.266666 0.61333,-0.266667 1.14667,-0.72 0.34666,-0.293334 0.69333,-0.666667 0.34667,-0.373333 0.64,-0.72 0.32,-0.373333 0.56,-0.693333 0.24,-0.32 0.37333,-0.506667 -0.34666,0.16 -0.58666,0.213333 -0.24,0.05333 -0.77334,0.05333 -0.58666,0 -1.06666,-0.373334 -0.45334,-0.4 -0.45334,-1.173333 0,-0.64 0.4,-1.413333 0.4,-0.8 1.17334,-1.546667 0.77333,-0.693333 1.6,-1.066667 0.82666,-0.4 1.36,-0.4 0.77333,0 1.25333,0.506667 0.50667,0.506667 0.64,1.28 h 0.0533 l 0.88,-1.573333 z m -3.52,1.413333 q 0,-0.666667 -0.29334,-0.986667 -0.26666,-0.32 -0.72,-0.32 -0.4,0 -1.01333,0.32 -0.61333,0.32 -1.17333,1.04 -0.53334,0.693334 -0.74667,1.333334 -0.21333,0.613333 -0.21333,1.013333 0,1.36 1.06666,1.36 0.48,0 1.04,-0.32 0.56,-0.346667 1.01334,-0.906667 0.45333,-0.56 0.74666,-1.226666 0.29334,-0.693334 0.29334,-1.306667 z" />
    <path
       id="path45"
       style=""
       d="m 189.8357,51.501672 q 0.82667,-1.226667 1.70667,-1.813333 0.88,-0.613334 1.92,-0.613334 0.96,0 1.49333,0.4 0.53333,0.373334 0.53333,1.066667 0,0.906667 -0.8,1.653333 -0.8,0.746667 -2.29333,1.573334 -1.12,0.613333 -1.73333,1.253333 -0.58667,0.613333 -0.58667,1.653333 0,0.693334 0.37333,1.066667 0.4,0.346667 1.01334,0.346667 1.36,0 3.17333,-1.626667 1.84,-1.626667 4.21333,-5.12 l 0.18667,0.133333 q -2.4,3.653334 -4.45333,5.44 -2.05334,1.76 -3.65334,1.76 -1.06666,0 -1.68,-0.533333 -0.61333,-0.56 -0.61333,-1.413333 0,-0.613334 0.24,-1.093334 0.26667,-0.48 0.66667,-0.853333 0.42666,-0.4 0.96,-0.746667 0.53333,-0.346666 1.12,-0.693333 0.45333,-0.266667 0.88,-0.586667 0.45333,-0.32 0.8,-0.666666 0.37333,-0.373334 0.58666,-0.773334 0.21334,-0.4 0.21334,-0.826666 0,-0.48 -0.29334,-0.773334 -0.26666,-0.32 -0.66666,-0.32 -0.85334,0 -1.57334,0.586667 -0.72,0.56 -1.49333,1.68 z" />
    <path
       id="path47"
       style=""
       d="m 199.89236,49.368339 1.73334,-0.08 q -1.14667,1.6 -1.89334,2.666666 -0.74666,1.066667 -1.04,1.466667 l 0.0533,0.05333 q 0.77333,-0.853333 1.46666,-1.546666 0.72,-0.72 1.38667,-1.253334 1.92,-1.6 3.62667,-1.6 0.74666,0 1.2,0.346667 0.48,0.32 0.48,1.013333 0,0.373334 -0.18667,0.666667 -0.16,0.266667 -0.45333,0.453333 -0.26667,0.186667 -0.61334,0.293334 -0.34666,0.08 -0.66666,0.08 0.21333,-0.373334 0.34666,-0.773334 0.13334,-0.426666 0.13334,-0.8 0,-0.48 -0.24,-0.693333 -0.21334,-0.24 -0.58667,-0.24 -0.48,0 -1.2,0.346667 -0.69333,0.346666 -1.78667,1.28 -1.36,1.146666 -2.93333,2.986666 -1.54667,1.84 -2.96,4.426667 h -1.65333 z m 10.85334,2.24 q -1.52,2.133333 -2.77334,3.52 -1.22666,1.36 -2.24,2.16 -0.98666,0.773333 -1.78666,1.093333 -0.8,0.293333 -1.44,0.293333 -0.85334,0 -1.25334,-0.373333 -0.37333,-0.373333 -0.37333,-1.066667 0,-0.373333 0.16,-0.746666 0.16,-0.4 0.42667,-0.933334 0.26666,-0.533333 0.42666,-0.853333 0.18667,-0.32 0.18667,-0.613333 0,-0.266667 -0.21333,-0.346667 -0.18667,-0.08 -0.4,-0.08 -0.24,0 -0.53334,0.05333 -0.26666,0.05333 -0.56,0.05333 -0.37333,0 -0.42666,-0.08 -0.0267,-0.106667 -0.0267,-0.16 0,-0.24 0.50667,-0.24 0.08,0 0.26666,0.02667 0.18667,0 0.4,0.02667 0.21334,0.02667 0.48,0.05333 0.26667,0.02667 0.48,0.08 1.06667,0.32 1.06667,1.333334 0,0.426666 -0.13333,0.826666 -0.10667,0.4 -0.26667,0.8 -0.16,0.373334 -0.29333,0.72 -0.10667,0.346667 -0.10667,0.666667 0,0.293333 0.10667,0.426667 0.10666,0.106666 0.45333,0.106666 0.42667,0 1.14667,-0.346666 0.74666,-0.346667 1.70666,-1.146667 0.98667,-0.8 2.18667,-2.106667 1.2,-1.333333 2.58667,-3.306666 z" />
    <path
       id="path49"
       style=""
       d="m 213.58195,49.288339 q -1.04,1.413333 -2,2.693333 -0.96,1.28 -1.70667,2.346667 -0.74666,1.066666 -1.2,1.866666 -0.42666,0.773334 -0.42666,1.226667 0,0.426667 0.21333,0.64 0.21333,0.186667 0.56,0.186667 0.50667,0 1.09333,-0.32 0.61334,-0.32 1.22667,-0.826667 0.64,-0.506667 1.22667,-1.12 0.61333,-0.613333 1.12,-1.2 0.53333,-0.613333 0.90666,-1.12 0.4,-0.506667 0.58667,-0.8 l 2.34667,-3.573333 h 1.84 q -1.44,1.973333 -2.45334,3.36 -0.98666,1.36 -1.62666,2.32 -0.61334,0.96 -0.88,1.573333 -0.26667,0.586667 -0.26667,1.04 0,0.32 0.18667,0.56 0.18666,0.213333 0.53333,0.213333 0.53333,0 1.22667,-0.373333 0.69333,-0.4 1.44,-1.013333 0.74666,-0.64 1.46666,-1.413334 0.74667,-0.8 1.38667,-1.573333 0.66667,-0.773333 1.2,-1.44 0.53333,-0.693333 0.82667,-1.12 l 0.26666,0.08 q -0.32,0.453333 -0.85333,1.173333 -0.53333,0.693334 -1.2,1.493334 -0.66667,0.773333 -1.41333,1.6 -0.74667,0.8 -1.54667,1.44 -0.77333,0.64 -1.54667,1.066666 -0.74666,0.4 -1.41333,0.4 -0.74667,0 -1.2,-0.4 -0.42667,-0.426666 -0.42667,-1.12 0,-0.533333 0.16,-1.013333 0.18667,-0.506667 0.26667,-0.64 l -0.0533,-0.05333 q -0.56,0.64 -1.17334,1.226666 -0.61333,0.586667 -1.22666,1.04 -0.61334,0.426667 -1.25334,0.693333 -0.61333,0.266667 -1.22666,0.266667 -0.85334,0 -1.22667,-0.373333 -0.37333,-0.4 -0.37333,-0.933333 0,-0.666667 0.37333,-1.44 0.34667,-0.773334 0.98667,-1.733334 0.64,-0.96 1.52,-2.16 0.90666,-1.2 1.97333,-2.746666 z" />
    <path
       id="path51"
       style=""
       d="m 235.96487,51.368339 q -0.58667,1.04 -1.65334,2.32 -1.06666,1.253333 -2.32,2.373333 -1.25333,1.12 -2.58666,1.866667 -1.30667,0.746666 -2.45334,0.746666 -0.96,0 -1.46666,-0.453333 -0.50667,-0.453333 -0.50667,-1.146667 0,-0.666666 0.29333,-1.253333 l -0.0533,-0.05333 q -0.42667,0.56 -0.98667,1.093333 -0.53333,0.506667 -1.17333,0.933333 -0.61333,0.4 -1.30667,0.64 -0.69333,0.24 -1.41333,0.24 -1.25333,0 -1.94667,-0.613333 -0.72,-0.613333 -0.72,-1.626667 0,-0.693333 0.4,-1.173333 0.4,-0.48 0.96,-0.48 0.50667,0 0.72,0.266667 0.21334,0.266666 0.21334,0.613333 0,0.346667 -0.21334,0.586667 -0.18666,0.24 -0.56,0.24 -0.50666,0 -0.66666,-0.373334 -0.32,0.266667 -0.32,0.693334 0,0.746666 0.61333,1.146666 0.58667,0.4 1.52,0.4 0.69333,0 1.44,-0.373333 0.77333,-0.4 1.46667,-1.013333 0.72,-0.64 1.36,-1.44 0.64,-0.826667 1.12,-1.68 0.48,-0.853334 0.74666,-1.68 0.29334,-0.826667 0.29334,-1.466667 0,-0.64 -0.32,-1.066667 -0.29334,-0.453333 -0.93334,-0.453333 -0.50666,0 -0.96,0.266667 -0.42666,0.24 -0.8,0.64 -0.37333,0.373333 -0.66666,0.8 -0.26667,0.4 -0.48,0.72 l -0.24,-0.16 q 0.32,-0.506667 0.64,-0.96 0.34666,-0.48 0.74666,-0.826667 0.4,-0.373333 0.90667,-0.586667 0.50667,-0.213333 1.14667,-0.213333 0.61333,0 1.04,0.213333 0.45333,0.186667 0.74666,0.533334 0.29334,0.346666 0.45334,0.773333 0.16,0.426667 0.16,0.906667 0.32,-0.346667 0.77333,-0.72 0.48,-0.4 1.04,-0.72 0.56,-0.346667 1.2,-0.56 0.64,-0.213334 1.30667,-0.213334 0.85333,0 1.33333,0.426667 0.50667,0.4 0.50667,0.986667 0,0.373333 -0.34667,0.693333 -0.34667,0.32 -0.90667,0.32 -0.10666,0 -0.37333,-0.05333 0.13333,-0.373334 0.24,-0.666667 0.10667,-0.32 0.10667,-0.586667 0,-0.8 -0.74667,-0.8 -0.61333,0 -1.30667,0.373334 -0.69333,0.346666 -1.36,0.96 -0.66666,0.586666 -1.30666,1.36 -0.61334,0.746666 -1.09334,1.573333 -0.45333,0.8 -0.74666,1.573333 -0.26667,0.773334 -0.26667,1.413334 0,0.773333 0.29333,1.2 0.32,0.4 1.01334,0.4 0.58666,0 1.30666,-0.346667 0.72,-0.346667 1.52,-0.906667 0.8,-0.56 1.6,-1.28 0.8,-0.746666 1.52,-1.52 0.72,-0.773333 1.30667,-1.52 0.58667,-0.773333 0.93333,-1.386666 z" />
    <path
       id="path53"
       style=""
       d="m 246.23153,49.395005 q -0.53333,0 -1.38666,0.453334 -0.85334,0.453333 -1.86667,1.6 -0.66667,0.746666 -1.17333,1.546666 -0.50667,0.773334 -0.85334,1.52 -0.32,0.72 -0.50666,1.36 -0.16,0.64 -0.16,1.066667 0,1.306667 1.09333,1.306667 0.61333,0 1.38667,-0.56 0.77333,-0.56 1.76,-1.6 0.66666,-0.693334 1.2,-1.44 0.53333,-0.773334 0.90666,-1.466667 0.4,-0.72 0.61334,-1.333333 0.21333,-0.64 0.21333,-1.093334 0,-0.773333 -0.32,-1.066666 -0.32,-0.293334 -0.90667,-0.293334 z m 2.37334,3.28 q 0.53333,-0.666666 0.98666,-1.226666 0.48,-0.56 0.98667,-1.013334 1.49333,-1.36 2.82667,-1.36 1.01333,0 1.57333,0.48 0.53333,0.506667 0.53333,1.52 0,1.093334 -0.50666,2.16 -0.50667,1.066667 -1.65334,2.24 l 0.0533,0.05333 q 1.01333,-0.213334 1.81333,-0.48 0.8,-0.293334 1.6,-0.8 0.74667,-0.453334 1.52,-1.12 0.77333,-0.666667 1.65333,-1.786667 l 0.21334,0.106667 q -0.98667,1.2 -1.81334,1.92 -0.8,0.693333 -1.57333,1.173333 -0.48,0.293333 -0.93333,0.506667 -0.45334,0.186666 -0.90667,0.346666 -0.45333,0.133334 -0.93333,0.266667 -0.48,0.106667 -1.04,0.213333 -0.53334,0.4 -1.14667,0.906667 -0.58667,0.48 -1.22667,0.906667 -0.64,0.426666 -1.30666,0.719999 -0.64,0.266667 -1.30667,0.266667 -1.09333,0 -1.09333,-0.906666 0,-0.453334 0.50666,-0.853334 0.53334,-0.426666 1.68,-0.72 0.53334,-0.133333 1.25334,-0.24 0.72,-0.106666 1.52,-0.186666 1.09333,-1.386667 1.54666,-2.64 0.48,-1.253334 0.48,-2.373334 0,-0.666666 -0.26666,-0.96 -0.26667,-0.293333 -0.66667,-0.293333 -0.53333,0 -1.14667,0.346667 -0.58666,0.346666 -1.2,0.933333 -0.61333,0.586667 -1.41333,1.573333 -0.77333,0.96 -1.54667,2.053334 -0.77333,1.093333 -1.49333,2.16 -0.69333,1.04 -1.25333,1.893333 -0.56,0.88 -0.96,1.493333 -0.4,0.613333 -0.56,0.853333 -0.21334,0.32 -0.50667,0.773334 -0.26667,0.453333 -0.58667,0.933333 -0.32,0.506667 -0.64,1.04 -0.32,0.533333 -0.64,1.04 -0.72,1.2 -1.49333,2.506667 h -1.65333 l 5.33333,-8.373334 q 0.42667,-0.613333 1.04,-1.466666 0.61333,-0.853333 1.2,-1.626667 l -0.08,-0.05333 q -0.8,0.96 -1.46667,1.573333 -0.64,0.586667 -1.22666,0.933334 -0.56,0.319999 -1.09334,0.453333 -0.53333,0.133333 -1.09333,0.133333 -0.66667,0 -1.25333,-0.506666 -0.56,-0.506667 -0.56,-1.52 0,-1.12 0.69333,-2.373334 0.69333,-1.253333 2,-2.533333 0.64,-0.613333 1.30667,-1.093333 0.69333,-0.506667 1.36,-0.853334 0.66666,-0.346666 1.28,-0.533333 0.61333,-0.186667 1.06666,-0.186667 0.85334,0 1.36,0.506667 0.50667,0.506667 0.56,1.253333 h 0.0533 l 4.24,-6.693333 1.78666,-0.05333 -2.29333,3.413333 q -0.93333,1.2 -1.81333,2.48 -0.85334,1.28 -1.73334,2.64 z m -0.26667,5.68 q 0.56,0 1.38667,-0.533333 0.85333,-0.533333 1.89333,-1.68 l -0.0533,-0.05333 q -0.72,0.106666 -1.41334,0.213333 -0.66666,0.106667 -1.12,0.24 -0.77333,0.213333 -1.09333,0.506667 -0.32,0.266666 -0.32,0.693333 0,0.266667 0.21333,0.453333 0.21334,0.16 0.50667,0.16 z" />
    <path
       id="path55"
       style=""
       d="m 266.21278,44.115006 q -1.41333,2.159999 -2.93333,4.239999 -1.52,2.08 -2.90667,4.266667 l 0.0533,0.05333 q 0.4,-0.533333 0.93334,-1.146666 0.53333,-0.64 1.14666,-1.173334 0.61334,-0.56 1.33334,-0.906666 0.72,-0.373334 1.46666,-0.373334 0.85334,0 1.44,0.453334 0.58667,0.453333 0.58667,1.573333 0,0.693333 -0.18667,1.333333 -0.18666,0.613334 -0.50666,1.173334 -0.29334,0.533333 -0.69334,1.013333 -0.37333,0.453333 -0.77333,0.853333 l 0.0533,0.05333 q 1.92,-0.346667 3.46667,-1.306667 1.57333,-0.96 3.12,-2.88 l 0.21333,0.106667 q -1.2,1.466666 -2.24,2.293333 -1.04,0.826667 -1.92,1.253333 -0.88,0.4 -1.62666,0.56 -0.74667,0.16 -1.41334,0.32 -0.45333,0.346667 -1.04,0.826667 -0.56,0.48 -1.2,0.933333 -0.64,0.426667 -1.33333,0.746667 -0.69333,0.293333 -1.41333,0.293333 -0.37334,0 -0.74667,-0.213333 -0.34667,-0.186667 -0.34667,-0.64 0,-0.56 0.53334,-0.933333 0.56,-0.373334 1.33333,-0.586667 0.8,-0.24 1.65333,-0.346667 0.85334,-0.133333 1.44,-0.186666 0.34667,-0.4 0.69334,-0.96 0.37333,-0.586667 0.66666,-1.226667 0.29334,-0.64 0.48,-1.306667 0.18667,-0.693333 0.18667,-1.28 0,-0.933333 -0.26667,-1.2 -0.26666,-0.293333 -0.64,-0.293333 -0.61333,0 -1.30666,0.453333 -0.66667,0.426667 -1.36,1.146667 -0.69334,0.693333 -1.38667,1.573333 -0.66667,0.853334 -1.25333,1.706667 -0.58667,0.853333 -1.06667,1.6 -0.48,0.72 -0.8,1.146667 -0.24,0.346666 -0.69333,1.013333 -0.45334,0.666666 -1.01334,1.52 -0.56,0.853333 -1.17333,1.84 -0.64,0.986666 -1.25333,1.973333 -0.61334,1.013333 -1.17334,1.946667 -0.56,0.933333 -0.98666,1.68 h -1.65334 q 3.6,-5.786667 7.33334,-11.466667 3.76,-5.706666 7.41333,-11.519999 z m -6,14.239999 q 0.4,0 0.88,-0.266666 0.50667,-0.266667 0.96,-0.64 0.48,-0.373334 0.85333,-0.746667 0.37334,-0.373333 0.53334,-0.56 l -0.0533,-0.05333 q -0.45333,0.08 -1.14666,0.186666 -0.66667,0.08 -1.30667,0.24 -0.61333,0.16 -1.06667,0.453334 -0.42666,0.266666 -0.42666,0.746666 0,0.32 0.24,0.48 0.24,0.16 0.53333,0.16 z" />
    <path
       id="path57"
       style=""
       d="m 278.80903,49.288339 h 1.73333 q -0.98666,1.386666 -1.89333,2.693333 -0.90667,1.306667 -1.62667,2.426667 -0.69333,1.093333 -1.12,1.946666 -0.42666,0.826667 -0.42666,1.306667 0,0.693333 0.72,0.693333 0.56,0 1.41333,-0.533333 0.88,-0.56 1.89333,-1.52 1.01334,-0.96 2.08,-2.24 1.06667,-1.28 2.02667,-2.72 l 0.16,0.05333 q -0.72,1.093334 -1.70667,2.373334 -0.96,1.253333 -2.02666,2.346666 -1.06667,1.093334 -2.13334,1.84 -1.06666,0.72 -2,0.72 -0.77333,0 -1.14666,-0.373333 -0.34667,-0.4 -0.34667,-0.933333 0,-0.373334 0.10667,-0.72 0.13333,-0.373334 0.26666,-0.746667 l -0.0533,-0.02667 q -0.34667,0.373334 -0.88,0.88 -0.50667,0.48 -1.12,0.906667 -0.58667,0.426667 -1.22667,0.72 -0.64,0.293333 -1.22666,0.293333 -0.98667,0 -1.38667,-0.613333 -0.4,-0.613333 -0.4,-1.386667 0,-1.093333 0.69333,-2.4 0.69334,-1.333333 1.76,-2.48 1.06667,-1.173333 2.32,-1.946666 1.25334,-0.773334 2.37334,-0.773334 0.53333,0 0.93333,0.16 0.4,0.133334 0.66667,0.4 0.26666,0.24 0.4,0.56 0.16,0.32 0.24,0.666667 h 0.0533 z m -8.72,7.466666 q 0,0.613334 0.24,0.96 0.26667,0.32 0.72,0.32 0.45333,0 1.06667,-0.32 0.61333,-0.346666 1.28,-0.906666 0.66666,-0.56 1.30666,-1.28 0.66667,-0.746667 1.17334,-1.573334 0.50666,-0.826666 0.82666,-1.68 0.32,-0.853333 0.32,-1.626666 0,-0.613334 -0.34666,-0.933334 -0.34667,-0.32 -0.85334,-0.32 -0.8,0 -1.78666,0.693334 -0.98667,0.693333 -1.86667,1.786666 -0.88,1.066667 -1.49333,2.373334 -0.58667,1.306666 -0.58667,2.506666 z" />
    <path
       id="path59"
       style=""
       d="m 284.55194,49.288339 h 1.68 l -2.64,4 h 4 l 2.72,-4 h 1.84 l -3.36,4.586666 q -0.72,1.013334 -1.09333,1.653334 -0.56,0.933333 -0.69333,1.386666 -0.10667,0.453334 -0.10667,0.613334 0,0.453333 0.21333,0.64 0.21334,0.186666 0.48,0.186666 0.26667,0 0.64,-0.106666 0.4,-0.133334 0.90667,-0.453334 0.53333,-0.32 1.17333,-0.88 0.66667,-0.56 1.52,-1.44 1.41334,-1.44 3.33334,-4.053333 l 0.26666,0.08 q -1.86666,2.613333 -3.44,4.213333 -2.88,2.96 -4.56,2.96 -0.82666,0 -1.30666,-0.426666 -0.45334,-0.426667 -0.45334,-1.093334 0,-0.24 0.0533,-0.56 0.08,-0.346666 0.24,-0.72 0.13333,-0.266666 0.34666,-0.666666 0.21334,-0.4 0.42667,-0.693334 l 0.61333,-0.906666 h -3.94666 l -3.09334,4.853333 h -1.65333 z" />
    <path
       id="path61"
       style=""
       d="m 304.00403,49.288339 q -0.96,1.28 -1.70666,2.293333 -0.72,1.013333 -1.28,1.813333 -0.64,0.933334 -1.09334,1.6 -0.42666,0.64 -0.69333,1.12 -0.24,0.48 -0.34667,0.826667 -0.10666,0.32 -0.10666,0.613333 0,0.8 0.74666,0.8 0.53334,0 1.49334,-0.533333 0.96,-0.56 2.50666,-2.16 1.44,-1.466667 3.52,-4.24 l 0.26667,0.08 q -0.96,1.36 -1.89333,2.48 -0.90667,1.093333 -1.73334,1.946667 -1.36,1.413333 -2.48,2.08 -0.32,0.186666 -0.61333,0.346666 -0.13333,0.106667 -0.32,0.346667 -0.18667,0.24 -0.32,0.533333 -0.32,0.64 -0.32,1.626667 0,0.773333 -0.21333,1.306666 -0.18667,0.56 -0.53334,0.933334 -0.34666,0.373333 -0.82666,0.64 -0.45334,0.266666 -1.01334,0.453333 l -1.2,0.4 -0.08,-0.266667 0.93334,-0.346666 q 0.82666,-0.293334 1.14666,-0.96 0.32,-0.64 0.32,-1.653334 0,-0.773333 0.24,-1.253333 0.26667,-0.453333 0.72,-0.826667 0.32,-0.293333 0.64,-0.506666 0.24,-0.133334 0.42667,-0.266667 -0.48,0.16 -0.85333,0.16 -0.77334,0 -1.2,-0.4 -0.42667,-0.426666 -0.42667,-1.12 0,-0.826666 0.42667,-1.68 l -0.0533,-0.02667 q -1.17333,1.36 -2.34666,2.213333 -1.41334,1.013333 -2.58667,1.013333 -1.54667,0 -1.54667,-1.386666 0,-0.293334 0.13334,-0.8 0.13333,-0.506667 0.77333,-1.6 0.26667,-0.426667 0.61333,-0.933334 0.34667,-0.506666 0.82667,-1.173333 l 2.50667,-3.493333 h 1.76 l -2.98667,4.026666 q -0.45333,0.613334 -0.93333,1.306667 -0.48,0.693333 -0.72,1.12 -0.29334,0.533333 -0.45334,0.853333 -0.13333,0.293334 -0.18666,0.48 -0.0533,0.186667 -0.0533,0.293334 v 0.16 q 0,0.32 0.21334,0.533333 0.21333,0.186667 0.50666,0.186667 1.2,0 3.17334,-1.84 0.32,-0.293334 0.69333,-0.693334 0.4,-0.426666 0.77333,-0.853333 0.4,-0.453333 0.74667,-0.88 0.34667,-0.453333 0.61333,-0.826667 0.18667,-0.266666 0.48,-0.72 0.32,-0.48 0.66667,-1.013333 0.37333,-0.56 0.72,-1.12 0.37333,-0.56 0.69333,-1.013333 z" />
    <path
       id="path63"
       style=""
       d="m 310.04027,49.288339 q -0.96,1.386666 -1.92,2.666666 -0.96,1.28 -1.73333,2.346667 -0.74667,1.066667 -1.22667,1.893333 -0.48,0.8 -0.48,1.28 0,0.773334 0.74667,0.773334 0.77333,0 1.78667,-0.746667 1.04,-0.746667 2.18666,-1.973333 1.14667,-1.253334 2.32,-2.853334 1.2,-1.626666 2.29334,-3.386666 h 1.65333 q -1.57333,2.16 -2.93333,4.453333 -1.36,2.266667 -2.85334,4.506667 2.53334,-0.453334 4.82667,-2.213334 2.32,-1.786666 4.10667,-4.426666 l 0.18666,0.08 q -1.92,2.933333 -4.37333,4.72 -2.42667,1.76 -4.93333,2.159999 -1.04,1.413334 -2.13334,2.853334 -1.06666,1.466666 -2.37333,2.613333 -1.28,1.173333 -2.82667,1.893333 -1.54666,0.746667 -3.49333,0.746667 -0.88,0 -1.65333,-0.24 -0.8,-0.213333 -1.38667,-0.613333 -0.58667,-0.4 -0.93333,-0.96 -0.34667,-0.56 -0.34667,-1.2 0,-1.386667 0.93333,-2.026667 0.90667,-0.64 2.21334,-0.64 v 0.08 q -0.96,0.213333 -1.41334,0.853333 -0.45333,0.666667 -0.45333,1.653334 0,0.666666 0.26667,1.173333 0.26666,0.533333 0.69333,0.88 0.42667,0.346667 0.98667,0.533333 0.53333,0.186667 1.12,0.186667 1.25333,0 2.42666,-0.586667 1.17334,-0.586666 2.26667,-1.546666 1.06667,-0.96 2.05333,-2.186667 0.98667,-1.2 1.86667,-2.506667 0.88,-1.279999 1.62667,-2.506666 0.77333,-1.253333 1.41333,-2.24 l -0.0533,-0.05333 q -0.42667,0.506666 -1.04,1.2 -0.61334,0.666666 -1.36,1.28 -0.72,0.613333 -1.54667,1.04 -0.82667,0.426666 -1.70667,0.426666 -0.85333,0 -1.22666,-0.346667 -0.37334,-0.346666 -0.37334,-0.933333 0,-0.533333 0.29334,-1.12 0.26666,-0.613333 0.88,-1.52 0.61333,-0.906666 1.54666,-2.213333 0.96,-1.306667 2.29334,-3.253333 z" />
    <path
       id="path65"
       style=""
       d="m 330.92986,51.475005 q -2.05333,3.066667 -4.50666,4.826667 -2.42667,1.733333 -4.85334,2.16 -0.4,1.36 -1.44,2.746666 -1.04,1.413334 -2.45333,2.533334 -1.38667,1.12 -3.04,1.84 -1.65333,0.72 -3.28,0.72 -1.01333,0 -1.78667,-0.266667 -0.8,-0.266667 -1.33333,-0.693333 -0.53333,-0.426667 -0.8,-0.986667 -0.29333,-0.56 -0.29333,-1.12 0,-0.533333 0.18666,-0.986667 0.16,-0.453333 0.61334,-0.853333 0.42666,-0.4 0.98666,-0.613333 0.56,-0.186667 1.06667,-0.186667 0.29333,0 0.45333,0 0.13334,0.02667 0.34667,0.08 v 0.24 h -0.29333 q -0.53334,0 -0.93334,0.186667 -0.4,0.213333 -0.69333,0.586666 -0.21333,0.293334 -0.32,0.64 -0.13333,0.373334 -0.13333,0.88 0,0.533334 0.18666,1.013334 0.16,0.506666 0.53334,0.88 0.34666,0.4 0.93333,0.64 0.58667,0.24 1.38667,0.24 1.46666,0 2.72,-0.666667 1.25333,-0.64 2.24,-1.6 0.98666,-0.933333 1.70666,-2 0.74667,-1.04 1.22667,-1.866667 0.61333,-1.12 0.77333,-1.813333 0.18667,-0.693333 0.18667,-0.933333 0,-0.64 -0.34667,-0.933333 -0.29333,0 -0.50666,0.05333 -0.18667,0.02667 -0.4,0.08 -0.48,0.133333 -0.64,0.133333 -0.32,0 -0.32,-0.213333 0,-0.213333 0.16,-0.266667 0.16,-0.05333 0.64,-0.05333 0.08,0 0.34666,0.02667 0.29334,0 0.88,0 0.85334,-0.213334 1.52,-0.72 0.69334,-0.533334 1.14667,-1.2 0.37333,-0.586667 0.58667,-1.2 0.21333,-0.613334 0.21333,-1.226667 0,-1.013333 -0.48,-1.493333 -0.45333,-0.48 -1.12,-0.48 -0.93333,0 -1.62667,0.506666 -0.66666,0.506667 -1.36,1.52 l -0.16,-0.16 q 0.72,-1.2 1.62667,-1.786666 0.93333,-0.613334 2.29333,-0.613334 1.06667,0 1.73334,0.586667 0.69333,0.586667 0.69333,1.786667 0,0.72 -0.34667,1.44 -0.32,0.693333 -0.88,1.253333 -0.69333,0.693333 -1.54666,1.2 -0.85334,0.48 -1.86667,0.693333 v 0.02667 q 0.58667,0.133333 0.88,0.533333 0.29333,0.4 0.29333,0.826667 0,0.506667 -0.08,0.773333 2.42667,-0.506666 4.77334,-2.24 2.37333,-1.733333 4.34666,-4.64 z" />
    <path
       id="path67"
       style=""
       d="m 339.63278,51.768339 q -0.61333,0.986666 -1.62666,2.133333 -0.98667,1.12 -2.16,2.106667 -1.44,1.2 -2.88,1.946666 -1.44,0.72 -2.82667,0.72 -0.98667,0 -1.65333,-0.506666 -0.66667,-0.533334 -0.66667,-1.546667 0,-1.28 0.72,-2.613333 0.74667,-1.333334 1.84,-2.426667 1.12,-1.12 2.42667,-1.813333 1.33333,-0.693334 2.50666,-0.693334 0.77334,0 1.33334,0.293334 0.58666,0.266666 0.58666,0.96 0,0.32 -0.18666,0.533333 -0.16,0.213333 -0.42667,0.346667 -0.24,0.133333 -0.56,0.213333 -0.29333,0.05333 -0.53333,0.08 0.10666,-0.266667 0.18666,-0.533333 0.08,-0.293334 0.08,-0.586667 0,-0.986667 -0.93333,-0.986667 -0.69333,0 -1.65333,0.693334 -0.93334,0.666666 -1.78667,1.706666 -0.82667,1.04 -1.41333,2.293334 -0.58667,1.253333 -0.58667,2.426666 0,0.72 0.32,1.226667 0.34667,0.506667 1.04,0.506667 0.93333,0 2.13333,-0.613334 1.22667,-0.613333 2.37334,-1.52 1.2,-0.933333 2.29333,-2.133333 1.12,-1.226667 1.86667,-2.373333 z" />
    <path
       id="path69"
       style=""
       d="m 340.7257,49.368339 1.73333,-0.08 q -1.14666,1.6 -1.89333,2.666666 -0.74667,1.066667 -1.04,1.466667 l 0.0533,0.05333 q 0.77334,-0.853333 1.46667,-1.546666 0.72,-0.72 1.38667,-1.253334 1.92,-1.6 3.62666,-1.6 0.74667,0 1.2,0.346667 0.48,0.32 0.48,1.013333 0,0.373334 -0.18666,0.666667 -0.16,0.266667 -0.45334,0.453333 -0.26666,0.186667 -0.61333,0.293334 -0.34667,0.08 -0.66667,0.08 0.21334,-0.373334 0.34667,-0.773334 0.13333,-0.426666 0.13333,-0.8 0,-0.48 -0.24,-0.693333 -0.21333,-0.24 -0.58666,-0.24 -0.48,0 -1.2,0.346667 -0.69334,0.346666 -1.78667,1.28 -1.36,1.146666 -2.93333,2.986666 -1.54667,1.84 -2.96,4.426667 h -1.65334 z m 10.85333,2.24 q -1.52,2.133333 -2.77333,3.52 -1.22667,1.36 -2.24,2.16 -0.98667,0.773333 -1.78667,1.093333 -0.8,0.293333 -1.44,0.293333 -0.85333,0 -1.25333,-0.373333 -0.37333,-0.373333 -0.37333,-1.066667 0,-0.373333 0.16,-0.746666 0.16,-0.4 0.42666,-0.933334 0.26667,-0.533333 0.42667,-0.853333 0.18667,-0.32 0.18667,-0.613333 0,-0.266667 -0.21334,-0.346667 -0.18666,-0.08 -0.4,-0.08 -0.24,0 -0.53333,0.05333 -0.26667,0.05333 -0.56,0.05333 -0.37333,0 -0.42667,-0.08 -0.0267,-0.106667 -0.0267,-0.16 0,-0.24 0.50666,-0.24 0.08,0 0.26667,0.02667 0.18667,0 0.4,0.02667 0.21333,0.02667 0.48,0.05333 0.26667,0.02667 0.48,0.08 1.06667,0.32 1.06667,1.333334 0,0.426666 -0.13334,0.826666 -0.10666,0.4 -0.26666,0.8 -0.16,0.373334 -0.29334,0.72 -0.10666,0.346667 -0.10666,0.666667 0,0.293333 0.10666,0.426667 0.10667,0.106666 0.45334,0.106666 0.42666,0 1.14666,-0.346666 0.74667,-0.346667 1.70667,-1.146667 0.98667,-0.8 2.18667,-2.106667 1.2,-1.333333 2.58666,-3.306666 z" />
    <path
       id="path71"
       style=""
       d="m 354.41527,49.288339 q -1.04,1.413333 -2,2.693333 -0.96,1.28 -1.70666,2.346667 -0.74667,1.066666 -1.2,1.866666 -0.42667,0.773334 -0.42667,1.226667 0,0.426667 0.21333,0.64 0.21334,0.186667 0.56,0.186667 0.50667,0 1.09334,-0.32 0.61333,-0.32 1.22666,-0.826667 0.64,-0.506667 1.22667,-1.12 0.61333,-0.613333 1.12,-1.2 0.53333,-0.613333 0.90667,-1.12 0.4,-0.506667 0.58666,-0.8 l 2.34667,-3.573333 h 1.84 q -1.44,1.973333 -2.45333,3.36 -0.98667,1.36 -1.62667,2.32 -0.61333,0.96 -0.88,1.573333 -0.26667,0.586667 -0.26667,1.04 0,0.32 0.18667,0.56 0.18667,0.213333 0.53333,0.213333 0.53334,0 1.22667,-0.373333 0.69333,-0.4 1.44,-1.013333 0.74667,-0.64 1.46667,-1.413334 0.74666,-0.8 1.38666,-1.573333 0.66667,-0.773333 1.2,-1.44 0.53334,-0.693333 0.82667,-1.12 l 0.26667,0.08 q -0.32,0.453333 -0.85334,1.173333 -0.53333,0.693334 -1.2,1.493334 -0.66666,0.773333 -1.41333,1.6 -0.74667,0.8 -1.54667,1.44 -0.77333,0.64 -1.54666,1.066666 -0.74667,0.4 -1.41334,0.4 -0.74666,0 -1.2,-0.4 -0.42666,-0.426666 -0.42666,-1.12 0,-0.533333 0.16,-1.013333 0.18666,-0.506667 0.26666,-0.64 l -0.0533,-0.05333 q -0.56,0.64 -1.17333,1.226666 -0.61334,0.586667 -1.22667,1.04 -0.61333,0.426667 -1.25333,0.693333 -0.61334,0.266667 -1.22667,0.266667 -0.85333,0 -1.22667,-0.373333 -0.37333,-0.4 -0.37333,-0.933333 0,-0.666667 0.37333,-1.44 0.34667,-0.773334 0.98667,-1.733334 0.64,-0.96 1.52,-2.16 0.90667,-1.2 1.97333,-2.746666 z" />
    <path
       id="path73"
       style=""
       d="m 376.7982,51.368339 q -0.58667,1.04 -1.65334,2.32 -1.06666,1.253333 -2.32,2.373333 -1.25333,1.12 -2.58666,1.866667 -1.30667,0.746666 -2.45334,0.746666 -0.96,0 -1.46666,-0.453333 -0.50667,-0.453333 -0.50667,-1.146667 0,-0.666666 0.29333,-1.253333 l -0.0533,-0.05333 q -0.42667,0.56 -0.98667,1.093333 -0.53333,0.506667 -1.17333,0.933333 -0.61333,0.4 -1.30667,0.64 -0.69333,0.24 -1.41333,0.24 -1.25333,0 -1.94667,-0.613333 -0.72,-0.613333 -0.72,-1.626667 0,-0.693333 0.4,-1.173333 0.4,-0.48 0.96,-0.48 0.50667,0 0.72,0.266667 0.21334,0.266666 0.21334,0.613333 0,0.346667 -0.21334,0.586667 -0.18666,0.24 -0.56,0.24 -0.50666,0 -0.66666,-0.373334 -0.32,0.266667 -0.32,0.693334 0,0.746666 0.61333,1.146666 0.58667,0.4 1.52,0.4 0.69333,0 1.44,-0.373333 0.77333,-0.4 1.46667,-1.013333 0.72,-0.64 1.36,-1.44 0.64,-0.826667 1.12,-1.68 0.48,-0.853334 0.74666,-1.68 0.29334,-0.826667 0.29334,-1.466667 0,-0.64 -0.32,-1.066667 -0.29334,-0.453333 -0.93334,-0.453333 -0.50666,0 -0.96,0.266667 -0.42666,0.24 -0.8,0.64 -0.37333,0.373333 -0.66666,0.8 -0.26667,0.4 -0.48,0.72 l -0.24,-0.16 q 0.32,-0.506667 0.64,-0.96 0.34666,-0.48 0.74666,-0.826667 0.4,-0.373333 0.90667,-0.586667 0.50667,-0.213333 1.14667,-0.213333 0.61333,0 1.04,0.213333 0.45333,0.186667 0.74666,0.533334 0.29334,0.346666 0.45334,0.773333 0.16,0.426667 0.16,0.906667 0.32,-0.346667 0.77333,-0.72 0.48,-0.4 1.04,-0.72 0.56,-0.346667 1.2,-0.56 0.64,-0.213334 1.30667,-0.213334 0.85333,0 1.33333,0.426667 0.50667,0.4 0.50667,0.986667 0,0.373333 -0.34667,0.693333 -0.34667,0.32 -0.90667,0.32 -0.10666,0 -0.37333,-0.05333 0.13333,-0.373334 0.24,-0.666667 0.10667,-0.32 0.10667,-0.586667 0,-0.8 -0.74667,-0.8 -0.61333,0 -1.30667,0.373334 -0.69333,0.346666 -1.36,0.96 -0.66666,0.586666 -1.30666,1.36 -0.61334,0.746666 -1.09334,1.573333 -0.45333,0.8 -0.74666,1.573333 -0.26667,0.773334 -0.26667,1.413334 0,0.773333 0.29333,1.2 0.32,0.4 1.01334,0.4 0.58666,0 1.30666,-0.346667 0.72,-0.346667 1.52,-0.906667 0.8,-0.56 1.6,-1.28 0.8,-0.746666 1.52,-1.52 0.72,-0.773333 1.30667,-1.52 0.58667,-0.773333 0.93333,-1.386666 z" />
    <path
       id="path75"
       style=""
       d="m 168.22403,84.115008 q 0,-0.72 -0.32,-1.04 -0.32,-0.346667 -0.88,-0.346667 -0.56,0 -1.36,0.48 -0.77333,0.453334 -1.6,1.333334 -1.52,1.626666 -2.16,3.146666 -0.61333,1.493333 -0.61333,2.48 0,0.72 0.26667,1.12 0.26666,0.4 0.8,0.4 0.72,0 1.76,-0.586667 1.06666,-0.613333 2.02666,-1.946666 1.09334,-1.52 1.57334,-2.88 0.50666,-1.36 0.50666,-2.16 z m -0.90666,5.146666 q -1.22667,1.36 -2.58667,2.053334 -1.33333,0.693333 -2.66667,0.693333 -1.06666,0 -1.65333,-0.666667 -0.56,-0.693333 -0.56,-1.706666 0,-0.8 0.34667,-1.626667 0.34666,-0.826667 0.90666,-1.6 0.56,-0.8 1.28,-1.493333 0.72,-0.72 1.46667,-1.28 0.90667,-0.666667 1.84,-0.933333 0.96,-0.293334 1.65333,-0.293334 0.29334,0 0.61334,0.106667 0.32,0.08 0.61333,0.293333 0.29333,0.186667 0.50667,0.533334 0.21333,0.32 0.29333,0.8 h 0.0533 l 0.96,-7.333334 q 0.08,-0.613333 0.26667,-1.2 0.18667,-0.586666 0.56,-1.013333 0.4,-0.453333 0.88,-0.586667 0.50667,-0.16 0.98667,-0.16 0.45333,0 1.01333,0.16 0.58667,0.16 1.12,0.373334 0.61333,0.213333 1.14667,0.373333 0.56,0.16 1.12,0.16 0.42666,0 0.74666,-0.106667 0.32,-0.133333 0.64,-0.453333 0.24,-0.24 0.42667,-0.48 0.18667,-0.266667 0.4,-0.64 l 0.21333,0.133333 q -0.34666,0.586667 -0.66666,1.04 -0.29334,0.453334 -0.66667,0.826667 -0.45333,0.453333 -0.93333,0.64 -0.48,0.16 -0.96,0.16 -0.53334,0 -1.12,-0.133333 -0.56,-0.16 -1.28,-0.4 -0.8,-0.266667 -1.30667,-0.4 -0.50667,-0.16 -0.88,-0.16 -0.61333,0 -0.93333,0.506666 -0.32,0.506667 -0.45334,1.36 l -0.96,7.36 q -0.0267,0.133334 -0.13333,0.72 -0.08,0.56 -0.37333,1.333334 -0.29334,0.773333 -0.72,1.493333 -0.42667,0.693333 -0.93334,1.253333 3.28,-0.693333 6.37334,-4.106666 l 0.16,0.133333 q -3.04,3.52 -6.8,4.266666 z" />
    <path
       id="path77"
       style=""
       d="m 176.91528,82.621675 q -0.96,1.386666 -1.92,2.666666 -0.96,1.28 -1.73333,2.346667 -0.74667,1.066666 -1.22667,1.893333 -0.48,0.8 -0.48,1.28 0,0.773333 0.74667,0.773333 0.77333,0 1.78667,-0.746666 1.04,-0.746667 2.18666,-1.973334 1.14667,-1.253333 2.32,-2.853333 1.2,-1.626666 2.29334,-3.386666 h 1.65333 q -1.57333,2.16 -2.93333,4.453333 -1.36,2.266666 -2.85334,4.506666 2.53334,-0.453333 4.82667,-2.213333 2.32,-1.786667 4.10667,-4.426666 l 0.18666,0.08 q -1.92,2.933333 -4.37333,4.719999 -2.42667,1.76 -4.93333,2.16 -1.04,1.413334 -2.13334,2.853334 -1.06666,1.466666 -2.37333,2.613333 -1.28,1.173333 -2.82667,1.893333 -1.54666,0.746666 -3.49333,0.746666 -0.88,0 -1.65333,-0.239999 -0.8,-0.213333 -1.38667,-0.613333 -0.58667,-0.4 -0.93333,-0.96 -0.34667,-0.56 -0.34667,-1.2 0,-1.386667 0.93333,-2.026667 0.90667,-0.64 2.21334,-0.64 v 0.08 q -0.96,0.213333 -1.41334,0.853333 -0.45333,0.666667 -0.45333,1.653334 0,0.666666 0.26667,1.173333 0.26666,0.533333 0.69333,0.88 0.42667,0.346667 0.98667,0.533333 0.53333,0.186667 1.12,0.186667 1.25333,0 2.42666,-0.586667 1.17334,-0.586666 2.26667,-1.546666 1.06667,-0.96 2.05333,-2.186667 0.98667,-1.2 1.86667,-2.506667 0.88,-1.28 1.62667,-2.506666 0.77333,-1.253334 1.41333,-2.24 l -0.0533,-0.05333 q -0.42667,0.506667 -1.04,1.2 -0.61334,0.666667 -1.36,1.28 -0.72,0.613334 -1.54667,1.04 -0.82667,0.426667 -1.70667,0.426667 -0.85333,0 -1.22666,-0.346667 -0.37334,-0.346666 -0.37334,-0.933333 0,-0.533333 0.29334,-1.12 0.26666,-0.613333 0.88,-1.52 0.61333,-0.906667 1.54666,-2.213333 0.96,-1.306667 2.29334,-3.253333 z" />
    <path
       id="path79"
       style=""
       d="m 193.43153,82.621675 q -2.48,3.44 -3.86666,5.413333 -1.36,1.946666 -1.36,2.853333 0,0.8 0.72,0.8 0.58666,0 1.65333,-0.64 1.06667,-0.666667 2.8,-2.506667 0.69333,-0.72 1.44,-1.653333 0.77333,-0.933333 1.65333,-2.133333 l 0.26667,0.08 q -0.90667,1.28 -1.70667,2.24 -0.8,0.96 -1.49333,1.733333 -1.65333,1.786667 -2.82667,2.506667 -1.14666,0.693333 -2.02666,0.693333 -0.77334,0 -1.2,-0.4 -0.4,-0.426667 -0.4,-1.12 0,-0.373333 0.16,-0.826667 0.16,-0.453333 0.4,-0.853333 l -0.0533,-0.02667 q -0.61333,0.773334 -1.17333,1.333334 -0.53333,0.533333 -1.01333,0.906666 -0.66667,0.533334 -1.22667,0.773334 -0.53333,0.213333 -1.14667,0.213333 -0.4,0 -0.8,-0.186667 -0.42666,-0.186666 -0.64,-0.506666 -0.42666,-0.586667 -0.42666,-1.466667 0,-0.64 0.4,-1.173333 0.37333,-0.56 0.96,-0.56 0.45333,0 0.69333,0.24 0.24,0.24 0.24,0.586666 0,0.373334 -0.21333,0.64 -0.18667,0.24 -0.58667,0.24 -0.18667,0 -0.34667,-0.05333 -0.18666,-0.08 -0.29333,-0.32 -0.16,0.133333 -0.24,0.4 -0.08,0.24 -0.08,0.4 0,0.586667 0.4,1.04 0.34667,0.4 0.98667,0.4 0.4,0 0.90666,-0.16 0.53334,-0.16 1.28,-0.773333 0.85334,-0.693334 1.81334,-1.866667 0.98666,-1.173333 2.32,-2.96 0.53333,-0.72 1.04,-1.52 0.53333,-0.826666 1.09333,-1.706666 z" />
    <path
       id="path81"
       style=""
       d="m 208.34987,85.048341 q -0.64,0.72 -1.44,1.146667 -0.8,0.426666 -1.57334,0.426666 -0.74666,0 -1.28,-0.319999 -0.53333,-0.346667 -0.82666,-0.8 h -0.0533 q -0.26666,1.013333 -0.98666,2.159999 -0.72,1.146667 -1.73334,2.106667 -0.98666,0.96 -2.18666,1.6 -1.2,0.64 -2.45334,0.64 -1.14666,0 -1.73333,-0.666667 -0.58667,-0.666666 -0.58667,-1.786666 0,-0.586667 0.29334,-1.36 0.29333,-0.773334 0.8,-1.546667 0.53333,-0.8 1.22666,-1.546666 0.72,-0.773334 1.54667,-1.36 0.82667,-0.613334 1.73333,-0.96 0.93334,-0.373334 1.86667,-0.373334 1.09333,0 1.68,0.64 0.61333,0.64 0.66667,1.653334 0.0533,0.613333 0.56,1.146666 0.53333,0.506667 1.44,0.506667 0.8,0 1.49333,-0.4 0.72,-0.4 1.33333,-1.04 z m -13.41334,5.146667 q 0,0.693333 0.26667,1.093333 0.26667,0.4 0.8,0.4 0.72,0 1.41333,-0.373333 0.72,-0.4 1.36,-1.013334 0.66667,-0.64 1.22667,-1.44 0.56,-0.8 0.96,-1.653333 0.42667,-0.853333 0.66667,-1.653333 0.24,-0.826667 0.24,-1.493333 0,-0.56 -0.29334,-0.933334 -0.26666,-0.4 -0.85333,-0.4 -0.56,0 -1.2,0.373334 -0.64,0.346666 -1.30667,0.933333 -0.64,0.586667 -1.22666,1.36 -0.58667,0.773333 -1.06667,1.6 -0.45333,0.826666 -0.72,1.653333 -0.26667,0.826667 -0.26667,1.546667 z" />
    <path
       id="path83"
       style=""
       d="m 209.31945,82.701675 1.73333,-0.08 q -1.14666,1.6 -1.89333,2.666666 -0.74667,1.066667 -1.04,1.466667 l 0.0533,0.05333 q 0.77334,-0.853333 1.46667,-1.546666 0.72,-0.72 1.38667,-1.253334 1.92,-1.6 3.62666,-1.6 0.74667,0 1.2,0.346667 0.48,0.32 0.48,1.013333 0,0.373334 -0.18666,0.666667 -0.16,0.266667 -0.45334,0.453333 -0.26666,0.186667 -0.61333,0.293334 -0.34667,0.08 -0.66667,0.08 0.21334,-0.373334 0.34667,-0.773334 0.13333,-0.426666 0.13333,-0.8 0,-0.48 -0.24,-0.693333 -0.21333,-0.24 -0.58666,-0.24 -0.48,0 -1.2,0.346667 -0.69334,0.346666 -1.78667,1.28 -1.36,1.146666 -2.93333,2.986666 -1.54667,1.84 -2.96,4.426667 h -1.65334 z m 10.85333,2.24 q -1.52,2.133333 -2.77333,3.519999 -1.22667,1.36 -2.24,2.16 -0.98667,0.773334 -1.78667,1.093334 -0.8,0.293333 -1.44,0.293333 -0.85333,0 -1.25333,-0.373333 -0.37333,-0.373334 -0.37333,-1.066667 0,-0.373333 0.16,-0.746667 0.16,-0.4 0.42666,-0.933333 0.26667,-0.533333 0.42667,-0.853333 0.18667,-0.32 0.18667,-0.613334 0,-0.266666 -0.21334,-0.346666 -0.18666,-0.08 -0.4,-0.08 -0.24,0 -0.53333,0.05333 -0.26667,0.05333 -0.56,0.05333 -0.37333,0 -0.42667,-0.08 -0.0267,-0.106666 -0.0267,-0.16 0,-0.24 0.50666,-0.24 0.08,0 0.26667,0.02667 0.18667,0 0.4,0.02667 0.21333,0.02667 0.48,0.05333 0.26667,0.02667 0.48,0.08 1.06667,0.32 1.06667,1.333333 0,0.426667 -0.13334,0.826667 -0.10666,0.4 -0.26666,0.8 -0.16,0.373333 -0.29334,0.72 -0.10666,0.346667 -0.10666,0.666667 0,0.293333 0.10666,0.426666 0.10667,0.106667 0.45334,0.106667 0.42666,0 1.14666,-0.346667 0.74667,-0.346666 1.70667,-1.146666 0.98667,-0.8 2.18667,-2.106667 1.2,-1.333333 2.58666,-3.306666 z" />
    <path
       id="path85"
       style=""
       d="m 238.2357,84.995008 q -0.93333,1.013333 -1.86667,1.893333 -0.93333,0.853333 -1.94666,1.573333 -2.18667,1.52 -4.96,2.373334 -0.85334,0.613333 -1.76,0.906666 -0.90667,0.266667 -1.68,0.266667 -1.01334,0 -1.62667,-0.613333 -0.58667,-0.64 -0.58667,-1.786667 0,-0.746667 0.32,-1.52 0.32,-0.773333 0.77334,-1.466667 0.48,-0.693333 0.98666,-1.253333 0.50667,-0.56 0.88,-0.906666 1.2,-1.093334 2.34667,-1.573334 1.17333,-0.48 1.94667,-0.48 0.21333,0 0.48,0.05333 0.26666,0.05333 0.50666,0.24 0.24,0.16 0.42667,0.48 0.21333,0.293333 0.26667,0.773333 h 0.08 q 0.72,-1.76 1.30666,-3.68 0.58667,-1.92 0.58667,-3.946667 0,-1.546666 -0.61333,-2.133333 -0.48,-0.453333 -1.36,-0.453333 -0.4,0 -0.88,0.16 -0.48,0.16 -0.93334,0.426666 -0.53333,0.346667 -0.98666,0.666667 l -0.13334,-0.24 q 0.66667,-0.533333 1.36,-0.906667 0.58667,-0.293333 1.14667,-0.453333 0.58667,-0.16 1.28,-0.16 0.98667,0 1.54667,0.48 0.90666,0.746667 0.90666,2.8 0,0.64 -0.10666,1.36 -0.08,0.72 -0.24,1.466667 -0.16,0.746666 -0.37334,1.466666 -0.21333,0.72 -0.42666,1.36 -0.24,0.666667 -0.56,1.466667 -0.32,0.8 -0.69334,1.626667 -0.37333,0.8 -0.77333,1.573333 -0.4,0.746666 -0.8,1.306666 -0.4,0.586667 -0.90667,1.146667 -0.48,0.533333 -1.17333,1.12 1.22667,-0.4 2.26667,-0.933333 1.06666,-0.56 2.05333,-1.253334 0.96,-0.693333 1.86667,-1.52 0.93333,-0.826666 1.86666,-1.839999 z m -7.30667,-2.266667 q -0.64,0 -1.57333,0.64 -0.90667,0.64 -1.73333,1.626667 -1.01334,1.2 -1.70667,2.613333 -0.66667,1.386667 -0.66667,2.56 0,0.826667 0.29334,1.173333 0.29333,0.346667 0.77333,0.346667 0.77333,0 1.68,-0.533333 0.90667,-0.533334 1.84,-1.68 0.58667,-0.746667 1.04,-1.52 0.45333,-0.773334 0.72,-1.466667 0.29333,-0.693333 0.42667,-1.28 0.16,-0.613333 0.16,-1.013333 0,-1.466667 -1.25334,-1.466667 z" />
    <path
       id="path87"
       style=""
       d="m 245.26736,82.621675 h 1.73334 q -0.98667,1.386666 -1.89334,2.693333 -0.90666,1.306666 -1.62666,2.426666 -0.69334,1.093334 -1.12,1.946667 -0.42667,0.826667 -0.42667,1.306667 0,0.693333 0.72,0.693333 0.56,0 1.41333,-0.533333 0.88,-0.56 1.89334,-1.52 1.01333,-0.96 2.08,-2.24 1.06666,-1.28 2.02666,-2.72 l 0.16,0.05333 q -0.72,1.093334 -1.70666,2.373333 -0.96,1.253334 -2.02667,2.346667 -1.06667,1.093333 -2.13333,1.84 -1.06667,0.72 -2,0.72 -0.77334,0 -1.14667,-0.373333 -0.34667,-0.4 -0.34667,-0.933334 0,-0.373333 0.10667,-0.72 0.13333,-0.373333 0.26667,-0.746666 l -0.0533,-0.02667 q -0.34666,0.373333 -0.88,0.88 -0.50666,0.48 -1.12,0.906667 -0.58666,0.426666 -1.22666,0.72 -0.64,0.293333 -1.22667,0.293333 -0.98667,0 -1.38667,-0.613333 -0.4,-0.613334 -0.4,-1.386667 0,-1.093333 0.69334,-2.4 0.69333,-1.333333 1.76,-2.48 1.06666,-1.173333 2.32,-1.946666 1.25333,-0.773334 2.37333,-0.773334 0.53333,0 0.93333,0.16 0.4,0.133334 0.66667,0.4 0.26667,0.24 0.4,0.56 0.16,0.32 0.24,0.666667 h 0.0533 z m -8.72,7.466666 q 0,0.613333 0.24,0.96 0.26667,0.32 0.72,0.32 0.45334,0 1.06667,-0.32 0.61333,-0.346667 1.28,-0.906667 0.66667,-0.56 1.30667,-1.28 0.66666,-0.746666 1.17333,-1.573333 0.50667,-0.826667 0.82667,-1.68 0.32,-0.853333 0.32,-1.626666 0,-0.613334 -0.34667,-0.933334 -0.34667,-0.32 -0.85333,-0.32 -0.8,0 -1.78667,0.693334 -0.98667,0.693333 -1.86667,1.786666 -0.88,1.066667 -1.49333,2.373333 -0.58667,1.306667 -0.58667,2.506667 z" />
    <path
       id="path89"
       style=""
       d="m 256.34362,86.115008 q -1.01334,1.6 -1.54667,2.613333 -0.50667,1.013333 -0.50667,1.68 0,0.613333 0.29334,0.96 0.32,0.32 0.93333,0.32 0.74667,0 1.94667,-0.773333 1.22666,-0.8 2.4,-2.373334 0.37333,-0.506666 0.72,-1.04 0.34666,-0.56 0.58666,-1.066666 0.26667,-0.533333 0.4,-1.013333 0.16,-0.48 0.16,-0.88 0,-0.426667 -0.13333,-0.64 -0.13333,-0.24 -0.13333,-0.666667 0,-0.453333 0.21333,-0.64 0.24,-0.186667 0.50667,-0.186667 0.45333,0 0.72,0.453334 0.26666,0.453333 0.26666,1.306666 0,0.346667 -0.0267,0.613334 -0.0267,0.24 -0.08,0.533333 0.16,0.213333 0.66666,0.56 0.53334,0.346667 1.38667,0.346667 0.85333,0 1.46667,-0.426667 0.64,-0.426667 1.06666,-0.96 l 0.18667,0.186667 q -0.45333,0.506666 -1.12,0.986666 -0.66667,0.48 -1.62667,0.48 -0.64,0 -1.2,-0.24 -0.53333,-0.24 -0.93333,-0.586666 -0.37333,1.093333 -1.01333,2.026666 -0.61334,0.906667 -1.46667,1.706667 -1.6,1.493333 -2.90667,2.053333 -1.30666,0.56 -2.37333,0.56 -0.93333,0 -1.57333,-0.586667 -0.61334,-0.56 -0.61334,-1.546666 0,-0.48 0.26667,-1.146667 0.26667,-0.693333 0.64,-1.413333 0.4,-0.72 0.8,-1.413333 0.42667,-0.693334 0.74667,-1.173334 l 4.02666,-6.213333 q 0.69334,-1.04 1.49334,-1.92 0.8,-0.906667 1.97333,-1.786667 1.04,-0.8 2.05333,-1.173333 1.01334,-0.4 1.86667,-0.4 0.90667,0 1.2,0.266667 0.32,0.266666 0.32,0.8 0,0.72 -0.61333,1.6 -0.58667,0.88 -1.70667,1.866666 -0.85333,0.773334 -1.89333,1.546667 -1.01334,0.773333 -2.08,1.493333 l -4.16,2.826667 z m 5.49333,-5.44 q 0.93333,-0.64 1.89333,-1.466667 0.98667,-0.853333 1.68,-1.706666 0.69334,-0.853334 1.12,-1.68 0.42667,-0.853334 0.42667,-1.546667 0,-0.4 -0.18667,-0.56 -0.16,-0.16 -0.48,-0.16 -0.50666,0 -1.12,0.4 -0.61333,0.373333 -1.22666,0.986667 -0.58667,0.586666 -1.14667,1.333333 -0.53333,0.72 -0.93333,1.386667 l -3.57334,5.44 z" />
    <path
       id="path91"
       style=""
       d="m 275.8907,87.048341 q -0.93333,1.306667 -1.36,2.106667 -0.34667,0.613333 -0.48,1.04 -0.13333,0.426666 -0.13333,0.72 0,0.373333 0.18666,0.586666 0.18667,0.186667 0.45334,0.186667 0.32,0 0.72,-0.133333 0.4,-0.133334 0.88,-0.426667 0.50666,-0.32 1.12,-0.853333 0.61333,-0.533334 1.38666,-1.333334 0.74667,-0.773333 1.6,-1.786666 0.85334,-1.04 1.86667,-2.4 l 0.26667,0.08 q -1.01334,1.44 -1.92,2.506666 -0.88,1.066667 -1.65334,1.866667 -0.56,0.586667 -1.14666,1.093333 -0.58667,0.506667 -1.17334,0.906667 -0.58666,0.373333 -1.12,0.586667 -0.53333,0.213333 -0.98666,0.213333 -0.61334,0 -1.12,-0.346667 -0.48,-0.373333 -0.48,-1.173333 0,-0.453333 0.24,-1.12 0.24,-0.693333 0.85333,-1.546667 l 0.8,-1.12 -0.0533,-0.02667 q -0.64,0.64 -1.54667,1.066666 -0.85333,0.426667 -1.52,0.506667 -0.10667,0.453333 -0.45333,1.253333 -0.34667,0.773334 -1.28,1.52 -0.56,0.453334 -1.36,0.72 -0.8,0.266667 -1.49334,0.266667 -1.01333,0 -1.6,-0.586667 -0.58666,-0.586666 -0.58666,-1.546666 0,-0.56 0.24,-1.333334 0.26666,-0.8 0.88,-1.626666 l 3.06666,-4.293333 h 1.76 l -2.50666,3.386666 q -1.17334,1.6 -1.68,2.56 -0.48,0.96 -0.48,1.813333 0,0.506667 0.32,0.906667 0.34666,0.4 0.88,0.4 0.42666,0 0.96,-0.213333 0.53333,-0.213334 1.04,-0.853334 0.45333,-0.586666 0.64,-1.173333 0.21333,-0.586667 0.29333,-1.173333 -0.26667,-0.133334 -0.42667,-0.453334 -0.13333,-0.346666 -0.13333,-0.773333 0,-0.746666 0.32,-1.04 0.34667,-0.32 0.69333,-0.32 0.42667,0 0.72,0.373334 0.29334,0.346666 0.29334,1.013333 0,0.346666 -0.0267,0.48 0,0.133333 -0.0267,0.426666 0.42667,-0.05333 0.88,-0.24 0.45334,-0.186666 0.90667,-0.453333 0.53333,-0.32 1.01333,-0.746667 0.50667,-0.453333 0.88,-0.986666 0.18667,-0.266667 0.42667,-0.64 0.26667,-0.4 0.53333,-0.8 0.26667,-0.426667 0.53334,-0.8 0.26666,-0.4 0.45333,-0.693333 h 1.84 z" />
    <path
       id="path93"
       style=""
       d="m 284.87653,82.621675 -3.52,4.879999 0.0533,0.05333 q 0.56,-0.666667 1.30667,-1.546667 0.74667,-0.906666 1.6,-1.706666 0.85333,-0.8 1.76,-1.333334 0.93333,-0.56 1.84,-0.56 0.8,0 1.22667,0.453334 0.45333,0.426666 0.45333,1.12 0,0.426666 -0.32,1.013333 -0.29333,0.586667 -0.74667,1.253333 -0.45333,0.666667 -0.98666,1.36 -0.53334,0.693333 -0.98667,1.333333 -0.45333,0.613334 -0.77333,1.146667 -0.29334,0.506667 -0.29334,0.853333 0,0.746667 0.74667,0.746667 0.85333,0 1.81333,-0.56 0.96,-0.586667 2.29334,-1.946667 0.53333,-0.533333 1.06666,-1.173333 0.56,-0.64 1.06667,-1.253333 0.50667,-0.64 0.90667,-1.2 0.42666,-0.56 0.66666,-0.933333 l 0.18667,0.106666 q -0.53333,0.8 -1.38667,1.92 -0.82666,1.093333 -1.81333,2.16 -0.58667,0.64 -1.2,1.226667 -0.61333,0.586666 -1.22667,1.04 -0.61333,0.426666 -1.22666,0.693333 -0.58667,0.24 -1.17334,0.24 -0.77333,0 -1.28,-0.426667 -0.50666,-0.426666 -0.50666,-1.173333 0,-0.8 0.64,-1.733333 0.64,-0.96 1.41333,-1.92 0.77333,-0.96 1.41333,-1.84 0.64,-0.88 0.64,-1.546667 0,-0.32 -0.21333,-0.48 -0.21333,-0.16 -0.56,-0.16 -0.66667,0 -1.49333,0.506667 -0.82667,0.48 -1.70667,1.306667 -0.85333,0.8 -1.73333,1.813333 -0.85334,0.986666 -1.6,2 -0.74667,0.986666 -1.33334,1.92 -0.58666,0.906666 -0.88,1.52 h -1.65333 q 0.69333,-1.173334 1.49333,-2.373334 0.77334,-1.226666 1.54667,-2.4 0.77333,-1.199999 1.46667,-2.293333 0.72,-1.12 1.28,-2.026666 z" />
    <path
       id="path95"
       style=""
       d="m 298.83278,83.475008 q 0,-0.373333 -0.21333,-0.56 -0.18667,-0.186667 -0.48,-0.186667 -0.56,0 -1.22667,0.453334 -0.64,0.426666 -1.28,1.093333 -0.64,0.64 -1.17333,1.386667 -0.50667,0.746666 -0.77334,1.333333 0.58667,-0.106667 1.46667,-0.4 0.88,-0.32 1.68,-0.773333 0.82667,-0.453334 1.41333,-1.04 0.58667,-0.613334 0.58667,-1.306667 z m 4.32,1.413333 q -0.4,0.666667 -1.01333,1.466667 -0.58667,0.8 -1.36,1.6 -0.74667,0.773333 -1.62667,1.52 -0.85333,0.72 -1.78667,1.306666 -0.93333,0.56 -1.89333,0.906667 -0.93333,0.32 -1.84,0.32 -1.12,0 -1.73333,-0.56 -0.61334,-0.586667 -0.61334,-1.653333 0,-1.173334 0.69334,-2.453334 0.72,-1.306666 1.81333,-2.399999 1.09333,-1.093334 2.4,-1.813334 1.30667,-0.72 2.50667,-0.72 0.66666,0 1.04,0.293334 0.37333,0.266666 0.37333,0.8 0,0.64 -0.69333,1.253333 -0.69334,0.586667 -1.70667,1.093333 -0.98667,0.48 -2.13333,0.88 -1.14667,0.373333 -2.02667,0.56 -0.29333,0.533333 -0.48,1.2 -0.18667,0.666667 -0.18667,1.333333 0,0.32 0.0533,0.64 0.08,0.293334 0.21333,0.56 0.16,0.24 0.4,0.4 0.26667,0.16 0.64,0.16 0.88,0 2.05333,-0.56 1.2,-0.586666 2.42667,-1.546666 1.22667,-0.96 2.34667,-2.186667 1.12,-1.226666 1.92,-2.533333 z" />
    <path
       id="path97"
       style=""
       d="m 311.71236,82.621675 q -0.96,1.28 -1.70666,2.293333 -0.72,1.013333 -1.28,1.813333 -0.64,0.933333 -1.09334,1.6 -0.42666,0.64 -0.69333,1.12 -0.24,0.48 -0.34667,0.826667 -0.10666,0.32 -0.10666,0.613333 0,0.8 0.74666,0.8 0.53334,0 1.49334,-0.533333 0.96,-0.56 2.50666,-2.16 1.44,-1.466667 3.52,-4.24 l 0.26667,0.08 q -0.96,1.36 -1.89333,2.48 -0.90667,1.093333 -1.73334,1.946666 -1.36,1.413334 -2.48,2.08 -1.09333,0.666667 -1.86666,0.666667 -0.77334,0 -1.2,-0.4 -0.42667,-0.426667 -0.42667,-1.12 0,-0.826667 0.42667,-1.68 l -0.0533,-0.02667 q -1.17333,1.36 -2.34666,2.213334 -1.41334,1.013333 -2.58667,1.013333 -1.54667,0 -1.54667,-1.386667 0,-0.293333 0.13334,-0.8 0.13333,-0.506666 0.77333,-1.6 0.26667,-0.426666 0.61333,-0.933333 0.34667,-0.506667 0.82667,-1.173333 l 2.50667,-3.493333 h 1.76 l -2.98667,4.026666 q -0.45333,0.613333 -0.93333,1.306667 -0.48,0.693333 -0.72,1.12 -0.29334,0.533333 -0.45334,0.853333 -0.13333,0.293333 -0.18666,0.48 -0.0533,0.186667 -0.0533,0.293333 0,0.08 0,0.16 0,0.32 0.21334,0.533334 0.21333,0.186666 0.50666,0.186666 1.2,0 3.17334,-1.84 0.32,-0.293333 0.69333,-0.693333 0.4,-0.426667 0.77333,-0.853333 0.4,-0.453334 0.74667,-0.88 0.34667,-0.453334 0.61333,-0.826667 0.18667,-0.266666 0.48,-0.72 0.32,-0.48 0.66667,-1.013333 0.37333,-0.56 0.72,-1.12 0.37333,-0.56 0.69333,-1.013333 z m 1.25334,-5.066667 q -0.37334,0.533333 -0.8,1.066667 -0.4,0.506666 -1.04,0.933333 -0.53334,0.346667 -1.14667,0.56 -0.61333,0.213333 -1.46667,0.213333 -1.36,0 -2,-0.4 -0.61333,-0.4 -0.61333,-1.066666 0,-0.64 0.69333,-1.04 0.69334,-0.4 1.68,-0.4 0.42667,0 0.85334,0.106666 l -0.0533,0.24 q -0.13333,-0.02667 -0.37333,-0.02667 -0.61333,0 -1.04,0.32 -0.42667,0.293333 -0.42667,0.8 0,0.506666 0.37334,0.826666 0.4,0.32 1.04,0.32 0.74666,0 1.30666,-0.186666 0.58667,-0.186667 1.04,-0.506667 0.53334,-0.373333 0.93334,-0.826667 0.4,-0.48 0.77333,-1.066666 z" />
    <path
       id="path99"
       style=""
       d="m 331.13527,84.808341 q -0.93333,1.44 -1.78666,2.533333 -0.85334,1.066667 -1.62667,1.893334 -1.44,1.52 -2.64,2.16 -1.17333,0.613333 -2.13333,0.613333 -1.09334,0 -1.76,-0.613333 -0.66667,-0.64 -0.66667,-1.6 0,-0.826667 0.48,-1.573334 0.50667,-0.746666 1.38667,-1.493333 0.88,-0.773333 2.08,-1.573333 1.22666,-0.826667 2.66666,-1.786667 l -0.0267,-0.05333 q -0.50667,0.293333 -1.14667,0.506667 -0.61333,0.186666 -1.09333,0.186666 -0.69334,0 -1.06667,-0.186666 -0.24,-0.106667 -0.48,-0.346667 -0.24,-0.266667 -0.29333,-0.64 -0.4,0.56 -0.77334,1.12 -0.37333,0.533333 -0.66666,0.906667 l -0.21334,-0.16 q 0.26667,-0.373334 0.72,-0.986667 0.45334,-0.64 0.90667,-1.36 -0.0267,-0.32 0.10667,-0.613333 0.16,-0.32 0.34666,-0.506667 0.18667,-0.213333 0.42667,-0.293333 0.24,-0.106667 0.45333,-0.106667 0.26667,0 0.26667,0.213333 0,0.133334 -0.0533,0.293334 -0.0267,0.16 -0.45334,0.4 0,0.293333 0.16,0.613333 0.18667,0.293333 0.42667,0.533333 0.26667,0.213334 0.58667,0.346667 0.34666,0.133333 0.69333,0.106667 0.66667,-0.05333 1.09333,-0.266667 0.42667,-0.213333 0.72,-0.48 0.26667,-0.24 0.42667,-0.426667 0.18667,-0.186666 0.34667,-0.186666 0.18666,0 0.18666,0.186666 0,0.106667 -0.21333,0.32 -0.21333,0.186667 -0.56,0.453334 -0.29333,0.213333 -0.69333,0.533333 -0.4,0.32 -0.72,0.56 -0.93334,0.746667 -1.65334,1.386667 -0.69333,0.64 -1.2,1.173333 -0.53333,0.56 -0.85333,1.04 -0.32,0.48 -0.48,0.906666 -0.16,0.426667 -0.21333,0.8 -0.0533,0.346667 -0.0533,0.666667 0,0.586667 0.37334,1.013333 0.37333,0.4 0.98666,0.4 0.34667,0 0.74667,-0.08 0.42667,-0.106666 0.93333,-0.373333 0.50667,-0.293333 1.12,-0.746667 0.61334,-0.48 1.33334,-1.253333 0.77333,-0.773333 1.6,-1.84 0.82666,-1.066666 1.76,-2.453333 z" />
    <path
       id="path101"
       style=""
       d="m 337.9757,82.621675 h 1.73333 q -0.98666,1.386666 -1.89333,2.693333 -0.90667,1.306666 -1.62667,2.426666 -0.69333,1.093334 -1.12,1.946667 -0.42666,0.826667 -0.42666,1.306667 0,0.693333 0.72,0.693333 0.56,0 1.41333,-0.533333 0.88,-0.56 1.89333,-1.52 1.01334,-0.96 2.08,-2.24 1.06667,-1.28 2.02667,-2.72 l 0.16,0.05333 q -0.72,1.093334 -1.70667,2.373333 -0.96,1.253334 -2.02666,2.346667 -1.06667,1.093333 -2.13334,1.84 -1.06666,0.72 -2,0.72 -0.77333,0 -1.14666,-0.373333 -0.34667,-0.4 -0.34667,-0.933334 0,-0.373333 0.10667,-0.72 0.13333,-0.373333 0.26666,-0.746666 l -0.0533,-0.02667 q -0.34667,0.373333 -0.88,0.88 -0.50667,0.48 -1.12,0.906667 -0.58667,0.426666 -1.22667,0.72 -0.64,0.293333 -1.22666,0.293333 -0.98667,0 -1.38667,-0.613333 -0.4,-0.613334 -0.4,-1.386667 0,-1.093333 0.69333,-2.4 0.69334,-1.333333 1.76,-2.48 1.06667,-1.173333 2.32,-1.946666 1.25334,-0.773334 2.37334,-0.773334 0.53333,0 0.93333,0.16 0.4,0.133334 0.66667,0.4 0.26666,0.24 0.4,0.56 0.16,0.32 0.24,0.666667 h 0.0533 z m -8.72,7.466666 q 0,0.613333 0.24,0.96 0.26667,0.32 0.72,0.32 0.45333,0 1.06667,-0.32 0.61333,-0.346667 1.28,-0.906667 0.66666,-0.56 1.30666,-1.28 0.66667,-0.746666 1.17334,-1.573333 0.50666,-0.826667 0.82666,-1.68 0.32,-0.853333 0.32,-1.626666 0,-0.613334 -0.34666,-0.933334 -0.34667,-0.32 -0.85334,-0.32 -0.8,0 -1.78666,0.693334 -0.98667,0.693333 -1.86667,1.786666 -0.88,1.066667 -1.49333,2.373333 -0.58667,1.306667 -0.58667,2.506667 z" />
    <path
       id="path103"
       style=""
       d="m 343.71861,82.621675 h 1.68 l -2.64,3.999999 h 2.96 q 0.10666,-0.133333 0.21333,-0.293333 0.58667,-0.826666 1.28,-1.52 0.72,-0.72 1.38667,-1.173333 1.04,-0.693333 1.86666,-0.96 0.85334,-0.266667 1.62667,-0.266667 0.61333,0 1.09333,0.213334 0.50667,0.213333 0.88,0.8 0.13334,0.24 0.21334,0.48 0.08,0.24 0.13333,0.426666 0.0533,0.24 0.0267,0.426667 0.18666,0.853333 0.74666,1.226667 0.56,0.373333 1.30667,0.373333 0.82667,0 1.49333,-0.4 0.66667,-0.426667 1.28,-1.04 l 0.21334,0.16 q -0.61334,0.64 -1.41334,1.093333 -0.77333,0.453333 -1.62666,0.453333 -0.45334,0 -0.8,-0.106666 -0.34667,-0.133333 -0.61334,-0.32 -0.24,-0.186667 -0.42666,-0.373333 -0.16,-0.186667 -0.24,-0.32 h -0.0533 q -0.21333,0.826666 -0.93333,2.079999 -0.72,1.226667 -1.89333,2.32 -1.28,1.173334 -2.45334,1.653334 -1.14666,0.453333 -2.08,0.453333 -1.09333,0 -1.70666,-0.613333 -0.61334,-0.64 -0.61334,-1.866667 0,-0.72 0.37334,-1.546667 0.21333,-0.533333 0.53333,-1.04 h -2.96 l -3.09333,4.853334 h -1.65334 z m 9.28,1.493333 q 0,-0.693333 -0.32,-1.04 -0.29334,-0.346667 -0.77334,-0.346667 -0.66666,0 -1.52,0.506667 -0.82666,0.48 -1.6,1.36 -1.54666,1.76 -2.13333,3.173333 -0.58667,1.413333 -0.58667,2.4 0,0.72 0.26667,1.12 0.26667,0.4 0.8,0.4 0.29333,0 0.69333,-0.106667 0.42667,-0.106666 0.90667,-0.373333 0.48,-0.293333 1.04,-0.773333 0.56,-0.506667 1.14667,-1.306667 1.12,-1.493333 1.6,-2.853333 0.48,-1.36 0.48,-2.16 z" />
  </g>
</svg>
