<?xml version="1.0" encoding="UTF-8" standalone="no"?>
<svg
   xmlns:dc="http://purl.org/dc/elements/1.1/"
   xmlns:cc="http://creativecommons.org/ns#"
   xmlns:rdf="http://www.w3.org/1999/02/22-rdf-syntax-ns#"
   xmlns:svg="http://www.w3.org/2000/svg"
   xmlns="http://www.w3.org/2000/svg"
   id="svg2"
   version="1.1"
   viewBox="159.9307 7.1016697 232.78999 90.506671">
  <metadata
     id="metadata11">
    <rdf:RDF>
      <cc:Work
         rdf:about="">
        <dc:format>image/svg+xml</dc:format>
        <dc:type
           rdf:resource="http://purl.org/dc/dcmitype/StillImage" />
      </cc:Work>
    </rdf:RDF>
  </metadata>
  <defs
     id="defs9" />
  <g
     id="text4521"
     style="font-style:normal;font-variant:normal;font-weight:normal;font-stretch:normal;font-size:26.66666603px;line-height:125%;font-family:Times, 'Times New Roman', serif;font-variant-ligatures:normal;font-variant-caps:normal;font-variant-numeric:normal;font-feature-settings:normal;text-align:left;letter-spacing:0px;word-spacing:0px;writing-mode:lr-tb;text-anchor:start;fill:#000000;fill-opacity:1;stroke:none;stroke-width:1px;stroke-linecap:butt;stroke-linejoin:miter;stroke-opacity:1"
     aria-label="Съешь же ещё этихмягких французскихбулок да выпей чаю">
    <path
       id="path13"
       style=""
       d="m 176.06403,13.128336 -0.24,-6.0266663 h -0.56 c -0.16,0.56 -0.58666,0.88 -1.12,0.88 -0.24,0 -0.64,-0.08 -1.04,-0.24 -1.30666,-0.4266667 -2.64,-0.64 -3.89333,-0.64 -2.18667,0 -4.4,0.8266667 -6.05333,2.2933333 -1.86667,1.653333 -2.88,4.133333 -2.88,7.066666 0,2.48 0.8,4.773334 2.16,6.293334 1.6,1.733333 4.05333,2.746666 6.69333,2.746666 3.01333,0 5.65333,-1.226666 7.28,-3.386666 l -0.48,-0.48 c -1.97333,1.893333 -3.73333,2.693333 -5.94667,2.693333 -1.68,0 -3.17333,-0.533333 -4.32,-1.546667 -1.46666,-1.306666 -2.29333,-3.706666 -2.29333,-6.666666 0,-4.826667 2.48,-7.9466666 6.34667,-7.9466666 1.52,0 2.90666,0.5599999 3.97333,1.6266666 0.85333,0.853333 1.25333,1.6 1.76,3.333333 z" />
    <path
       id="path15"
       style=""
       d="m 179.76987,25.128336 h 4.45333 c 2.08,0 3.44,-0.373333 4.42667,-0.986667 0.96,-0.586666 1.49333,-1.946666 1.49333,-2.8 0,-0.8 -0.24,-1.706666 -0.74667,-2.213333 -0.50666,-0.506667 -1.2,-1.013333 -2.72,-1.2 -0.64,-0.05333 -1.2,-0.106667 -2.29333,-0.106667 h -0.69333 v -1.573333 c 0,-1.333333 -0.10667,-2.693333 1.68,-2.693333 v -0.426667 h -7.54667 l -0.10667,3.333333 h 0.48 c 0.24,-1.946666 0.64,-2.346666 2.24,-2.346666 h 1.01334 v 8.773333 c 0,1.386667 -0.53334,1.76 -1.68,1.84 z m 3.92,-6.346667 c 2.18666,0 1.70666,0.05333 2.16,0.213334 1.25333,0.453333 1.76,1.653333 1.76,2.613333 0,0.8 -0.45334,1.626667 -1.14667,2.08 -0.56,0.373333 -0.37333,0.48 -2.13333,0.48 -0.66667,0 -0.64,-0.506667 -0.64,-1.093333 z" />
    <path
       id="path17"
       style=""
       d="m 201.40028,20.755003 c -1.28,2.026666 -2.42666,2.8 -4.13333,2.8 -1.52,0 -2.66667,-0.773334 -3.44,-2.293334 -0.48,-1.013333 -0.66667,-1.893333 -0.72,-3.52 h 8.21333 c -0.21333,-1.733333 -0.48,-2.506666 -1.14666,-3.359999 -0.8,-0.96 -2.02667,-1.52 -3.41334,-1.52 -1.33333,0 -2.58666,0.48 -3.6,1.386666 -1.25333,1.093334 -1.97333,2.986667 -1.97333,5.173333 0,3.68 1.92,5.973334 4.98667,5.973334 2.53333,0 4.53333,-1.573334 5.65333,-4.453334 z m -8.24,-3.866667 c 0.29334,-2.08 1.2,-3.066666 2.82667,-3.066666 1.62667,0 2.26667,0.746666 2.61333,3.066666 z" />
    <path
       id="path19"
       style=""
       d="m 212.7432,24.141669 v -8.373333 c 0,-1.68 0.34667,-2.133333 1.68,-2.24 v -0.4 h -5.54667 v 0.4 c 1.30667,0.133334 1.62667,0.453334 1.62667,1.76 v 8.853333 h -3.89333 v -8.373333 c 0,-1.68 0.34666,-2.133333 1.68,-2.24 v -0.4 h -5.54667 v 0.4 c 1.30667,0.133334 1.62667,0.453334 1.62667,1.76 v 7.68 c 0,1.306667 -0.32,1.626667 -1.62667,1.76 v 0.4 h 17.81333 v -0.4 c -1.33333,-0.106667 -1.68,-0.56 -1.68,-2.24 v -6.72 c 0,-1.68 0.34667,-2.133333 1.68,-2.24 v -0.4 h -5.54666 v 0.4 c 1.30666,0.133334 1.62666,0.453334 1.62666,1.76 v 8.853333 z" />
    <path
       id="path21"
       style=""
       d="m 228.24362,17.928336 c -0.64,-0.05333 -1.2,-0.106667 -2.29334,-0.106667 h -0.69333 v -1.573333 c 0,-1.333333 -0.10667,-2.693333 1.68,-2.693333 v -0.426667 h -5.6 v 0.426667 c 1.78667,0 1.68,1.36 1.68,2.693333 v 6.64 c 0,1.386667 -0.53333,1.76 -1.68,1.84 v 0.4 h 4.45333 c 2.08,0 3.44,-0.373333 4.42667,-0.986667 0.96,-0.586666 1.49333,-1.946666 1.49333,-2.8 0,-0.8 -0.24,-1.706666 -0.74666,-2.213333 -0.50667,-0.506667 -1.2,-1.013333 -2.72,-1.2 z m -2.98667,0.853333 c 2.18667,0 1.70667,0.05333 2.16,0.213334 1.25333,0.453333 1.76,1.653333 1.76,2.613333 0,0.8 -0.45333,1.626667 -1.14667,2.08 -0.56,0.373333 -0.37333,0.48 -2.13333,0.48 -0.66667,0 -0.64,-0.506667 -0.64,-1.093333 z" />
    <path
       id="path23"
       style=""
       d="m 244.77111,25.128336 h 6.24 v -0.4 l -0.53333,-0.02667 c -1.06667,-0.05333 -1.46667,-0.426666 -1.46667,-1.36 v -4.186666 c 0.48,0 0.64,-0.106667 1.09334,0.64 l 2.66666,5.333333 h 3.68 v -0.4 c -1.17333,-0.08 -1.28,-0.133333 -2.08,-1.093333 -1.44,-1.973334 -1.6,-4.64 -3.81333,-5.04 1.28,-0.48 1.73333,-3.973333 2.53333,-3.973333 0.69334,0 0.53334,0.693333 1.36,0.693333 0.58667,0 1.17334,-0.32 1.17334,-1.013333 0,-1.013334 -0.64,-1.44 -1.6,-1.44 -1.62667,0 -2.02667,1.44 -2.42667,2.88 -0.37333,1.279999 -1.25333,2.666666 -2.34667,2.666666 h -0.24 v -3.493333 c 0,-0.933333 0.4,-1.306667 1.46667,-1.36 l 0.53333,-0.02667 v -0.4 h -6.24 v 0.4 l 0.53334,0.02667 c 1.06666,0.05333 1.46666,0.426667 1.46666,1.36 v 3.493333 h -0.24 c -1.09333,0 -1.97333,-1.386667 -2.34666,-2.666666 -0.4,-1.44 -0.8,-2.88 -2.42667,-2.88 -0.96,0 -1.6,0.426666 -1.6,1.44 0,0.693333 0.58667,1.013333 1.17333,1.013333 0.82667,0 0.66667,-0.693333 1.36,-0.693333 0.8,0 1.25334,3.493333 2.53334,3.973333 -2.21334,0.4 -2.37334,3.066666 -3.81334,5.04 -0.8,0.96 -0.90666,1.013333 -2.08,1.093333 v 0.4 h 3.68 l 2.66667,-5.333333 c 0.45333,-0.746667 0.61333,-0.64 1.09333,-0.64 v 4.186666 c 0,0.933334 -0.4,1.306667 -1.46666,1.36 l -0.53334,0.02667 z" />
    <path
       id="path25"
       style=""
       d="m 267.70236,20.755003 c -1.28,2.026666 -2.42666,2.8 -4.13333,2.8 -1.52,0 -2.66667,-0.773334 -3.44,-2.293334 -0.48,-1.013333 -0.66667,-1.893333 -0.72,-3.52 h 8.21333 c -0.21333,-1.733333 -0.48,-2.506666 -1.14666,-3.359999 -0.8,-0.96 -2.02667,-1.52 -3.41334,-1.52 -1.33333,0 -2.58666,0.48 -3.6,1.386666 -1.25333,1.093334 -1.97333,2.986667 -1.97333,5.173333 0,3.68 1.92,5.973334 4.98667,5.973334 2.53333,0 4.53333,-1.573334 5.65333,-4.453334 z m -8.24,-3.866667 c 0.29334,-2.08 1.2,-3.066666 2.82667,-3.066666 1.62667,0 2.26667,0.746666 2.61333,3.066666 z" />
    <path
       id="path27"
       style=""
       d="m 286.19195,20.755003 c -1.28,2.026666 -2.42667,2.8 -4.13333,2.8 -1.52,0 -2.66667,-0.773334 -3.44,-2.293334 -0.48,-1.013333 -0.66667,-1.893333 -0.72,-3.52 h 8.21333 c -0.21333,-1.733333 -0.48,-2.506666 -1.14667,-3.359999 -0.8,-0.96 -2.02666,-1.52 -3.41333,-1.52 -1.33333,0 -2.58667,0.48 -3.6,1.386666 -1.25333,1.093334 -1.97333,2.986667 -1.97333,5.173333 0,3.68 1.92,5.973334 4.98666,5.973334 2.53334,0 4.53334,-1.573334 5.65334,-4.453334 z m -8.24,-3.866667 c 0.29333,-2.08 1.2,-3.066666 2.82667,-3.066666 1.62666,0 2.26666,0.746666 2.61333,3.066666 z" />
    <path
       id="path29"
       style=""
       d="m 302.3082,25.128336 c 1.6,0 2.4,1.306667 2.64,3.253333 h 0.48 l -0.08,-3.653333 c -1.33334,-0.106667 -1.68,-0.56 -1.68,-2.24 v -6.72 c 0,-1.68 0.34666,-2.133333 1.68,-2.24 v -0.4 h -5.54667 v 0.4 c 1.30667,0.133334 1.62667,0.453334 1.62667,1.76 v 8.853333 h -3.89334 v -8.373333 c 0,-1.68 0.34667,-2.133333 1.68,-2.24 v -0.4 h -5.54666 v 0.4 c 1.30666,0.133334 1.62666,0.453334 1.62666,1.76 v 8.853333 h -3.89333 v -8.373333 c 0,-1.68 0.34667,-2.133333 1.68,-2.24 v -0.4 h -5.54667 v 0.4 c 1.30667,0.133334 1.62667,0.453334 1.62667,1.76 v 7.68 c 0,1.306667 -0.32,1.626667 -1.62667,1.76 v 0.4 z" />
    <path
       id="path31"
       style=""
       d="m 316.81695,20.755003 c -1.28,2.026666 -2.42667,2.8 -4.13333,2.8 -1.52,0 -2.66667,-0.773334 -3.44,-2.293334 -0.48,-1.013333 -0.66667,-1.893333 -0.72,-3.52 h 8.21333 c -0.21333,-1.733333 -0.48,-2.506666 -1.14667,-3.359999 -0.8,-0.96 -2.02666,-1.52 -3.41333,-1.52 -1.33333,0 -2.58667,0.48 -3.6,1.386666 -1.25333,1.093334 -1.97333,2.986667 -1.97333,5.173333 0,3.68 1.92,5.973334 4.98666,5.973334 2.53334,0 4.53334,-1.573334 5.65334,-4.453334 z m -8.24,-3.866667 c 0.29333,-2.08 1.2,-3.066666 2.82667,-3.066666 1.62666,0 2.26666,0.746666 2.61333,3.066666 z m 0.64,-8.3466663 c -0.66667,0 -1.28,0.6133333 -1.28,1.3066666 0,0.7466667 0.56,1.3333337 1.28,1.3333337 0.74667,0 1.36,-0.586667 1.36,-1.306667 0,-0.72 -0.61333,-1.3333333 -1.36,-1.3333333 z m 5.30667,0 c -0.66667,0 -1.28,0.6133333 -1.28,1.3066666 0,0.7466667 0.56,1.3333337 1.28,1.3333337 0.74666,0 1.36,-0.586667 1.36,-1.306667 0,-0.72 -0.61334,-1.3333333 -1.36,-1.3333333 z" />
    <path
       id="path33"
       style=""
       d="m 329.75986,12.86167 c -3.2,0 -4.58666,1.706666 -4.58666,3.2 0,0.613333 0.58666,1.119999 1.28,1.119999 0.56,0 1.04,-0.48 1.25333,-1.226666 l 0.16,-0.586667 c 0.26667,-0.986666 0.42667,-1.76 1.38667,-1.76 2.24,0 3.54666,2.24 3.84,5.306667 h -4.34667 v 0.986666 h 4.37333 c 0,2.88 -1.14666,4.746667 -3.25333,4.746667 -1.44,0 -2.88,-1.04 -3.89333,-2.533333 l -0.45334,0.32 c 0.90667,1.413333 2.08,2.933333 4.10667,2.933333 3.30667,0 5.89333,-2.773333 5.89333,-6.586667 0,-3.119999 -2.24,-5.919999 -5.76,-5.919999 z" />
    <path
       id="path35"
       style=""
       d="m 347.5282,13.128336 h -10.29334 l -0.10666,3.333333 h 0.48 c 0.24,-1.946666 0.64,-2.346666 2.24,-2.346666 h 1.41333 v 8.853333 c 0,1.68 -0.34667,1.653333 -1.68,1.76 v 0.4 h 5.54667 v -0.4 c -1.30667,-0.133333 -1.62667,-0.453333 -1.62667,-1.76 v -8.853333 h 1.41333 c 1.6,0 2,0.4 2.24,2.346666 h 0.48 z" />
    <path
       id="path37"
       style=""
       d="m 352.75695,20.675003 v -5.386667 c 0,-1.306666 0.32,-1.626666 1.62667,-1.76 v -0.4 h -5.54667 v 0.4 c 1.33333,0.106667 1.68,0.56 1.68,2.24 v 6.72 c 0,1.68 -0.34667,2.133333 -1.68,2.24 v 0.4 h 5.54667 v -0.4 c -1.30667,-0.133333 -1.62667,-0.453333 -1.62667,-1.76 v -0.8 l 5.06667,-4.693333 v 5.013333 c 0,1.68 -0.34667,2.133333 -1.68,2.24 v 0.4 h 5.54666 v -0.4 c -1.30666,-0.133333 -1.62666,-0.453333 -1.62666,-1.76 v -7.68 c 0,-1.306666 0.32,-1.626666 1.62666,-1.76 v -0.4 h -5.54666 v 0.4 c 1.33333,0.106667 1.68,0.56 1.68,2.24 v 0.213334 z" />
    <path
       id="path39"
       style=""
       d="m 369.49611,25.128336 h 5.36 v -0.4 c -0.82666,0 -1.36,-0.426667 -2.18666,-1.6 l -3.41334,-5.226667 2.21334,-3.199999 c 0.50666,-0.72 1.30666,-1.146667 2.16,-1.173334 v -0.4 h -4.21334 v 0.4 c 0.8,0.05333 1.06667,0.213334 1.06667,0.586667 0,0.32 -0.32,0.906667 -0.98667,1.733333 -0.13333,0.16 -0.45333,0.64 -0.8,1.173333 l -0.37333,-0.533333 c -0.74667,-1.12 -1.22667,-2.026666 -1.22667,-2.373333 0,-0.373333 0.34667,-0.56 1.14667,-0.586667 v -0.4 h -5.52 v 0.4 h 0.24 c 0.8,0 1.22667,0.346667 2.05333,1.6 l 2.50667,3.84 -3.04,4.4 c -0.8,1.093333 -1.06667,1.28 -1.94667,1.36 v 0.4 h 3.86667 v -0.4 c -0.74667,0 -1.06667,-0.133333 -1.06667,-0.48 0,-0.16 0.18667,-0.56 0.53334,-1.093333 l 2.10666,-3.28 2.42667,3.733333 c 0.10667,0.16 0.16,0.32 0.16,0.48 0,0.48 -0.18667,0.586667 -1.06667,0.64 z" />
    <path
       id="path41"
       style=""
       d="m 171.42403,46.461672 -3.44,8.96 -3.57333,-8.96 h -4.48 v 0.4 c 1.33333,0.106667 1.68,0.56 1.68,2.24 v 6.72 c 0,1.68 -0.34667,2.133333 -1.68,2.24 v 0.4 h 4.24 v -0.4 c -1.30667,-0.133333 -1.62667,-0.453333 -1.62667,-1.76 v -8.533333 l 4.10667,9.813333 c 0.0533,0.16 0.13333,0.346667 0.21333,0.56 0.16,0.48 0.32,0.693333 0.48,0.693333 0.16,0 0.34667,-0.346667 0.74667,-1.333333 l 3.86667,-9.733333 v 8.053333 c 0,1.68 -0.34667,2.133333 -1.68,2.24 v 0.4 h 5.54666 v -0.4 c -1.30666,-0.133333 -1.62666,-0.453333 -1.62666,-1.76 v -7.68 c 0,-1.306667 0.32,-1.626667 1.62666,-1.76 v -0.4 z" />
    <path
       id="path43"
       style=""
       d="m 183.98278,53.235005 h 1.25334 v 2.106667 c 0,1.333333 0.10666,2.693333 -1.68,2.693333 v 0.426667 h 5.6 v -0.426667 c -1.78667,0 -1.68,-1.36 -1.68,-2.693333 v -6.64 c 0,-1.386667 0.53333,-1.76 1.68,-1.84 v -0.4 h -5.04 c -2.08,0 -3.01334,0.293333 -4,0.906667 -0.96,0.586666 -1.49334,1.76 -1.49334,2.613333 0,0.8 0.24,1.44 0.74667,1.946667 0.50667,0.506666 0.77333,1.013333 2.29333,1.2 l -3.09333,3.84 c -0.82667,0.88 -0.8,0.986666 -1.97333,1.066666 v 0.426667 h 3.28 z m 1.25334,-0.96 c -2.18667,0 -2.29334,-0.05333 -2.74667,-0.213333 -1.25333,-0.453333 -1.76,-1.386667 -1.76,-2.346667 0,-0.8 0.45333,-1.36 1.14667,-1.813333 0.56,-0.373333 0.96,-0.48 2.72,-0.48 0.66666,0 0.64,0.506667 0.64,1.093333 z" />
    <path
       id="path45"
       style=""
       d="m 199.2107,46.461672 h -9.28 v 0.4 c 1.33333,0.106667 1.68,0.56 1.68,2.24 v 6.72 c 0,1.68 -0.34667,2.133333 -1.68,2.24 v 0.4 h 5.54667 v -0.4 c -1.30667,-0.133333 -1.62667,-0.453333 -1.62667,-1.76 v -8.853333 h 2.74667 c 1.6,0 2,0.4 2.24,2.346666 h 0.48 z" />
    <path
       id="path47"
       style=""
       d="m 204.84778,48.248339 c 0,-0.933334 0.4,-1.306667 1.46667,-1.36 l 0.53333,-0.02667 v -0.4 h -6.24 v 0.4 c 1.92,0.32 2,0.4 2,1.786667 v 7.626666 c 0,1.386667 -0.08,1.466667 -2,1.786667 v 0.4 h 6.24 v -0.4 l -0.53333,-0.02667 c -1.06667,-0.05333 -1.46667,-0.426666 -1.46667,-1.36 v -4.186666 c 0.48,0 1.17334,-0.106667 1.62667,0.64 l 3.33333,5.333333 h 3.68 v -0.4 c -1.17333,-0.08 -1.28,-0.133333 -2.08,-1.093333 -1.44,-1.973334 -2.26666,-4.64 -4.48,-5.04 1.28,-0.48 1.73334,-3.973334 2.53334,-3.973334 0.69333,0 0.53333,0.693334 1.36,0.693334 0.58666,0 1.17333,-0.32 1.17333,-1.013334 0,-1.013333 -0.64,-1.44 -1.6,-1.44 -1.62667,0 -2.02667,1.44 -2.42667,2.88 -0.34666,1.28 -1.25333,2.666667 -2.34666,2.666667 h -0.77334 z" />
    <path
       id="path49"
       style=""
       d="m 218.06945,54.008339 v -5.386667 c 0,-1.306667 0.32,-1.626667 1.62667,-1.76 v -0.4 h -5.54667 v 0.4 c 1.33333,0.106667 1.68,0.56 1.68,2.24 v 6.72 c 0,1.68 -0.34667,2.133333 -1.68,2.24 v 0.4 h 5.54667 v -0.4 c -1.30667,-0.133333 -1.62667,-0.453333 -1.62667,-1.76 v -0.8 l 5.06667,-4.693333 v 5.013333 c 0,1.68 -0.34667,2.133333 -1.68,2.24 v 0.4 h 5.54666 v -0.4 c -1.30666,-0.133333 -1.62666,-0.453333 -1.62666,-1.76 v -7.68 c 0,-1.306667 0.32,-1.626667 1.62666,-1.76 v -0.4 h -5.54666 v 0.4 c 1.33333,0.106667 1.68,0.56 1.68,2.24 v 0.213333 z" />
    <path
       id="path51"
       style=""
       d="m 234.80861,58.461672 h 5.36 v -0.4 c -0.82666,0 -1.36,-0.426667 -2.18666,-1.6 l -3.41334,-5.226667 2.21334,-3.2 c 0.50666,-0.72 1.30666,-1.146666 2.16,-1.173333 v -0.4 h -4.21334 v 0.4 c 0.8,0.05333 1.06667,0.213333 1.06667,0.586667 0,0.32 -0.32,0.906666 -0.98667,1.733333 -0.13333,0.16 -0.45333,0.64 -0.8,1.173333 l -0.37333,-0.533333 c -0.74667,-1.12 -1.22667,-2.026667 -1.22667,-2.373333 0,-0.373334 0.34667,-0.56 1.14667,-0.586667 v -0.4 h -5.52 v 0.4 h 0.24 c 0.8,0 1.22667,0.346667 2.05333,1.6 l 2.50667,3.84 -3.04,4.4 c -0.8,1.093333 -1.06667,1.28 -1.94667,1.36 v 0.4 h 3.86667 v -0.4 c -0.74667,0 -1.06667,-0.133333 -1.06667,-0.48 0,-0.16 0.18667,-0.56 0.53334,-1.093333 l 2.10666,-3.28 2.42667,3.733333 c 0.10667,0.16 0.16,0.32 0.16,0.48 0,0.48 -0.18667,0.586667 -1.06667,0.64 z" />
    <path
       id="path53"
       style=""
       d="m 255.76861,46.781672 c -1.01333,-0.48 -0.98666,-0.613333 -2.02666,-0.613333 -3.33334,0 -5.62667,2.986666 -5.62667,6.826666 0,3.36 1.49333,5.76 4,5.76 1.54667,0 2.48,-0.72 3.65333,-2 v 5.2 c 0,1.386667 -0.29333,1.68 -1.86666,1.84 v 0.453333 h 6.45333 v -0.48 c -2,-0.02667 -2.34667,-0.32 -2.34667,-2 v -4.186666 c 0.93334,0.88 1.04,1.146666 2.16,1.146666 3.14667,0 5.33334,-2.986666 5.33334,-6.853333 0,-3.306666 -1.6,-5.706666 -4.18667,-5.706666 -1.49333,0 -2.13333,0.693333 -3.30667,2.133333 v -8 l -0.16,-0.05333 c -1.44,0.56 -2.37333,0.906667 -3.84,1.36 v 0.426667 c 0.24,-0.02667 0.42667,-0.02667 0.66667,-0.02667 0.90667,0 1.09333,0.266667 1.09333,1.52 z m 0,8.293333 c 0,0.64 -0.10666,0.986667 -0.37333,1.2 -0.58667,0.506667 -0.93333,0.826667 -1.76,0.826667 -0.82667,0 -1.28,-0.266667 -1.81333,-0.8 -0.85334,-0.773333 -1.41334,-2.506667 -1.41334,-4.266667 0,-3.146666 1.14667,-5.12 3.41334,-5.12 1.65333,0 1.94666,0.88 1.94666,2.666667 z m 2.24,-5.52 c 0,-0.8 0.96,-1.76 2.18667,-1.76 1.97333,0 3.01333,2.026667 3.01333,5.12 0,2.96 -1.04,4.96 -2.96,4.96 -1.25333,0 -2.24,-0.96 -2.24,-1.76 z" />
    <path
       id="path55"
       style=""
       d="m 266.54153,47.981672 c 0.24,-0.02667 0.42667,-0.02667 0.66667,-0.02667 0.90666,0 1.09333,0.266667 1.09333,1.52 v 12.48 c 0,1.386667 -0.29333,1.68 -1.86667,1.84 v 0.453333 h 6.45334 v -0.48 c -2,-0.02667 -2.34667,-0.32 -2.34667,-2 v -4.186666 c 0.93333,0.88 1.57333,1.146666 2.69333,1.146666 3.14667,0 5.6,-2.986666 5.6,-6.853333 0,-3.306666 -1.86666,-5.68 -4.45333,-5.68 -1.49333,0 -2.66667,0.666667 -3.84,2.106667 v -2.053333 l -0.16,-0.05333 c -1.44,0.56 -2.37333,0.906667 -3.84,1.36 z m 4,1.573333 c 0,-0.8 1.49333,-1.76 2.72,-1.76 1.97333,0 3.28,2.026667 3.28,5.12 0,2.96 -1.30667,4.96 -3.22667,4.96 -1.25333,0 -2.77333,-0.96 -2.77333,-1.76 z" />
    <path
       id="path57"
       style=""
       d="m 291.42153,56.701672 c -0.45333,0.373333 -0.77333,0.506667 -1.17333,0.506667 -0.61334,0 -0.8,-0.373334 -0.8,-1.546667 v -5.2 c 0,-1.386667 -0.13334,-2.16 -0.53334,-2.8 -0.58666,-0.96 -1.73333,-1.466667 -3.30666,-1.466667 -2.50667,0 -4.48,1.306667 -4.48,2.986667 0,0.613333 0.53333,1.146667 1.14666,1.146667 0.64,0 1.2,-0.533334 1.2,-1.12 0,-0.106667 -0.0267,-0.24 -0.0533,-0.426667 -0.0533,-0.24 -0.08,-0.453333 -0.08,-0.64 0,-0.72 0.85333,-1.306667 1.92,-1.306667 1.30667,0 2.02667,0.773334 2.02667,2.213334 v 1.626666 c -4.10667,1.653334 -4.56,1.866667 -5.70667,2.88 -0.58667,0.533334 -0.96,1.44 -0.96,2.32 0,1.68 1.17333,2.853333 2.8,2.853333 1.17333,0 2.26667,-0.559999 3.89333,-1.946666 0.13334,1.386667 0.61334,1.946666 1.70667,1.946666 0.90667,0 1.46667,-0.32 2.4,-1.333333 z m -4.13333,-1.52 c 0,0.826667 -0.13334,1.066667 -0.69334,1.386667 -0.64,0.373333 -1.38666,0.613333 -1.94666,0.613333 -0.93334,0 -1.68,-0.906667 -1.68,-2.053333 v -0.106667 c 0,-1.573333 1.09333,-2.533333 4.32,-3.706667 z" />
    <path
       id="path59"
       style=""
       d="m 295.77778,51.715005 v -3.093333 c 0,-1.306667 0.32,-1.626667 1.62667,-1.76 v -0.4 h -5.54667 v 0.4 c 1.33333,0.106667 1.68,0.56 1.68,2.24 v 6.72 c 0,1.68 -0.34667,2.133333 -1.68,2.24 v 0.4 h 5.54667 v -0.4 c -1.30667,-0.133333 -1.62667,-0.453333 -1.62667,-1.76 v -3.6 h 4.66667 v 3.12 c 0,1.68 -0.34667,2.133333 -1.68,2.24 v 0.4 h 5.54666 v -0.4 c -1.30666,-0.133333 -1.62666,-0.453333 -1.62666,-1.76 v -7.68 c 0,-1.306667 0.32,-1.626667 1.62666,-1.76 v -0.4 h -5.54666 v 0.4 c 1.33333,0.106667 1.68,0.56 1.68,2.24 v 2.613333 z" />
    <path
       id="path61"
       style=""
       d="m 317.54028,58.061672 c -1.33333,-0.106667 -1.68,-0.56 -1.68,-2.24 v -6.72 c 0,-1.68 0.34667,-2.133333 1.68,-2.24 v -0.4 h -5.54666 v 0.4 c 1.30666,0.133333 1.62666,0.453333 1.62666,1.76 v 8.853333 h -4.66666 v -8.373333 c 0,-1.68 0.34666,-2.133333 1.68,-2.24 v -0.4 h -5.54667 v 0.4 c 1.30667,0.133333 1.62667,0.453333 1.62667,1.76 v 7.68 c 0,1.306667 -0.32,1.626667 -1.62667,1.76 v 0.4 h 9.41333 c 1.6,0 2.4,1.386666 2.64,3.333333 h 0.48 z" />
    <path
       id="path63"
       style=""
       d="m 330.58277,46.461672 h -3.6 v 0.4 c 0.85334,0 1.28,0.24 1.28,0.666667 0,0.106666 -0.0267,0.266666 -0.10666,0.453333 l -2.58667,7.36 -3.06667,-6.746667 c -0.16,-0.373333 -0.26666,-0.72 -0.26666,-1.013333 0,-0.48 0.4,-0.666667 1.54666,-0.72 v -0.4 h -5.49333 v 0.373333 c 0.69333,0.106667 1.14667,0.4 1.36,0.853334 l 3.04,6.56 0.08,0.213333 0.4,0.8 c 0.74667,1.333333 1.17333,2.293333 1.17333,2.693333 0,0.4 -0.61333,2.08 -1.06666,2.88 -0.37334,0.693333 -0.96,1.2 -1.33334,1.2 -0.16,0 -0.4,-0.05333 -0.66666,-0.186667 -0.50667,-0.186666 -0.96,-0.293333 -1.41334,-0.293333 -0.61333,0 -1.14666,0.533333 -1.14666,1.173333 0,0.88 0.85333,1.546667 1.97333,1.546667 1.78667,0 3.06667,-1.493333 4.50667,-5.333333 l 4.10666,-10.88 c 0.34667,-0.853333 0.64,-1.12 1.28,-1.2 z" />
    <path
       id="path65"
       style=""
       d="m 335.94278,57.741672 c -1.73333,0 -2.72,-0.853333 -3.17333,-2.693333 l -0.61333,0.133333 c 0.26666,1.653333 0.85333,3.546666 3.84,3.546666 3.52,0 4.66666,-1.866666 4.66666,-3.733333 0,-2.106666 -1.30666,-2.773333 -2.29333,-2.986666 1.09333,-0.213334 1.78667,-1.093334 1.78667,-2.586667 0,-2.293333 -2.10667,-3.2 -4.21334,-3.2 -0.69333,0 -1.28,0.106667 -1.86666,0.32 -0.29334,0.133333 -0.56,0.186667 -0.72,0.186667 -0.10667,0 -0.16,0 -0.37334,-0.213334 l -0.0533,-0.05333 h -0.29333 l -0.10667,3.626667 h 0.4 c 0.34667,-2.346667 1.14667,-3.28 2.93333,-3.28 1.22667,0 2.37334,1.013333 2.37334,2.48 0,2.053333 -1.44,2.373333 -2.64,2.373333 h -0.98667 v 0.666667 h 1.04 c 1.65333,0 2.82667,1.066666 2.82667,2.88 0,2 -1.52,2.533333 -2.53334,2.533333 z" />
    <path
       id="path67"
       style=""
       d="m 351.55028,54.301672 c -1.28,1.866667 -2.24,2.506667 -3.76,2.506667 -2.42666,0 -4.13333,-2.133334 -4.13333,-5.2 0,-2.746667 1.46667,-4.64 3.62667,-4.64 0.96,0 1.30666,0.293333 1.57333,1.28 l 0.16,0.586666 c 0.21333,0.746667 0.69333,1.226667 1.25333,1.226667 0.69334,0 1.28,-0.506667 1.28,-1.12 0,-1.493333 -1.86666,-2.746667 -4.10666,-2.746667 -1.30667,0 -2.66667,0.533334 -3.76,1.493334 -1.33334,1.173333 -2.08,2.986666 -2.08,5.093333 0,3.466667 2.10666,5.946666 5.06666,5.946666 1.2,0 2.26667,-0.426666 3.22667,-1.253333 0.72,-0.64 1.22667,-1.36 2.02667,-2.933333 z" />
    <path
       id="path69"
       style=""
       d="m 357.39986,48.248339 c 0,-0.933334 0.4,-1.306667 1.46666,-1.36 l 0.53334,-0.02667 v -0.4 h -6.24 v 0.4 c 1.92,0.32 2,0.4 2,1.786667 v 7.626666 c 0,1.386667 -0.08,1.466667 -2,1.786667 v 0.4 h 6.24 v -0.4 l -0.53334,-0.02667 c -1.06666,-0.05333 -1.46666,-0.426666 -1.46666,-1.36 v -4.186666 c 0.48,0 1.17333,-0.106667 1.62666,0.64 l 3.33334,5.333333 h 3.68 v -0.4 c -1.17334,-0.08 -1.28,-0.133333 -2.08,-1.093333 -1.44,-1.973334 -2.26667,-4.64 -4.48,-5.04 1.28,-0.48 1.73333,-3.973334 2.53333,-3.973334 0.69333,0 0.53333,0.693334 1.36,0.693334 0.58667,0 1.17333,-0.32 1.17333,-1.013334 0,-1.013333 -0.64,-1.44 -1.6,-1.44 -1.62666,0 -2.02666,1.44 -2.42666,2.88 -0.34667,1.28 -1.25334,2.666667 -2.34667,2.666667 h -0.77333 z" />
    <path
       id="path71"
       style=""
       d="m 370.62153,54.008339 v -5.386667 c 0,-1.306667 0.32,-1.626667 1.62667,-1.76 v -0.4 h -5.54667 v 0.4 c 1.33333,0.106667 1.68,0.56 1.68,2.24 v 6.72 c 0,1.68 -0.34667,2.133333 -1.68,2.24 v 0.4 h 5.54667 v -0.4 c -1.30667,-0.133333 -1.62667,-0.453333 -1.62667,-1.76 v -0.8 l 5.06667,-4.693333 v 5.013333 c 0,1.68 -0.34667,2.133333 -1.68,2.24 v 0.4 h 5.54666 v -0.4 c -1.30666,-0.133333 -1.62666,-0.453333 -1.62666,-1.76 v -7.68 c 0,-1.306667 0.32,-1.626667 1.62666,-1.76 v -0.4 h -5.54666 v 0.4 c 1.33333,0.106667 1.68,0.56 1.68,2.24 v 0.213333 z" />
    <path
       id="path73"
       style=""
       d="m 387.36069,58.461672 h 5.36 v -0.4 c -0.82667,0 -1.36,-0.426667 -2.18667,-1.6 l -3.41333,-5.226667 2.21333,-3.2 c 0.50667,-0.72 1.30667,-1.146666 2.16,-1.173333 v -0.4 h -4.21333 v 0.4 c 0.8,0.05333 1.06667,0.213333 1.06667,0.586667 0,0.32 -0.32,0.906666 -0.98667,1.733333 -0.13333,0.16 -0.45333,0.64 -0.8,1.173333 l -0.37333,-0.533333 c -0.74667,-1.12 -1.22667,-2.026667 -1.22667,-2.373333 0,-0.373334 0.34667,-0.56 1.14667,-0.586667 v -0.4 h -5.52 v 0.4 h 0.24 c 0.8,0 1.22666,0.346667 2.05333,1.6 l 2.50667,3.84 -3.04,4.4 c -0.8,1.093333 -1.06667,1.28 -1.94667,1.36 v 0.4 h 3.86667 v -0.4 c -0.74667,0 -1.06667,-0.133333 -1.06667,-0.48 0,-0.16 0.18667,-0.56 0.53333,-1.093333 l 2.10667,-3.28 2.42667,3.733333 c 0.10666,0.16 0.16,0.32 0.16,0.48 0,0.48 -0.18667,0.586667 -1.06667,0.64 z" />
    <path
       id="path75"
       style=""
       d="m 160.30403,84.168341 c -0.0267,5.546667 2.48,7.893333 5.84,7.893333 3.36,0 5.92,-2.826666 5.92,-6.506666 0,-3.493333 -2.45333,-6.026667 -5.86666,-6.026667 -2.24,0 -3.89334,0.853334 -4.98667,3.466667 0.18667,-1.386667 0.26667,-4.16 1.70667,-5.6 0.88,-0.88 2.05333,-1.52 3.54666,-1.546667 h 1.38667 c 2.82667,0 3.25333,-1.12 3.84,-2.426666 h -0.61333 c -0.32,0.453333 -0.90667,0.453333 -2.02667,0.453333 h -2.58667 c -0.56,0 -2.34666,0.4 -3.22666,1.253333 -2.26667,2.186667 -2.90667,5.093334 -2.93334,9.04 z m 5.54667,-3.893333 c 2.24,0 3.81333,2.56 3.81333,6.213333 0,3.013333 -1.2,4.826667 -3.2,4.826667 -1.04,0 -2.02666,-0.64 -2.58666,-1.706667 -0.74667,-1.386667 -1.17334,-3.253333 -1.17334,-5.146666 0,-2.533334 1.25334,-4.186667 3.14667,-4.186667 z" />
    <path
       id="path77"
       style=""
       d="m 185.5307,79.795008 h -3.6 v 0.4 c 0.85333,0 1.28,0.24 1.28,0.666667 0,0.106666 -0.0267,0.266666 -0.10667,0.453333 l -2.58666,7.36 -3.06667,-6.746667 c -0.16,-0.373333 -0.26667,-0.72 -0.26667,-1.013333 0,-0.48 0.4,-0.666667 1.54667,-0.72 v -0.4 h -5.49333 v 0.373333 c 0.69333,0.106667 1.14666,0.4 1.36,0.853334 l 3.04,6.559999 0.08,0.213334 0.4,0.8 c 0.74666,1.333333 1.17333,2.293333 1.17333,2.693333 0,0.4 -0.61333,2.08 -1.06667,2.88 -0.37333,0.693333 -0.96,1.2 -1.33333,1.2 -0.16,0 -0.4,-0.05333 -0.66667,-0.186667 -0.50666,-0.186666 -0.96,-0.293333 -1.41333,-0.293333 -0.61333,0 -1.14667,0.533333 -1.14667,1.173333 0,0.88 0.85334,1.546667 1.97334,1.546667 1.78666,0 3.06666,-1.493333 4.50666,-5.333333 l 4.10667,-10.88 c 0.34667,-0.853333 0.64,-1.12 1.28,-1.2 z" />
    <path
       id="path79"
       style=""
       d="m 195.1307,80.781675 v 8.373333 c 0,1.68 -0.34667,2.133333 -1.68,2.24 v 0.4 h 5.54667 v -0.4 c -1.30667,-0.133334 -1.62667,-0.453334 -1.62667,-1.76 v -7.68 c 0,-1.306667 0.32,-1.626667 1.62667,-1.76 v -0.4 h -10.13334 v 0.4 c 1.33334,0.106667 1.68,0.56 1.68,2.24 v 3.573333 c 0,1.68 -0.48,4.453333 -1.44,4.453333 -0.72,0 -0.93333,-0.693333 -1.65333,-0.666666 -0.66667,0.02667 -0.88,0.56 -0.88,1.146666 0,0.853334 0.93333,1.093334 1.76,1.093334 1.44,0 3.30667,-1.413334 3.30667,-6.133333 v -5.12 z" />
    <path
       id="path81"
       style=""
       d="m 206.04112,79.528341 c -3.46667,0 -5.89334,2.56 -5.89334,6.24 0,3.6 2.48,6.293333 5.84,6.293333 3.36,0 5.92,-2.826666 5.92,-6.506666 0,-3.493333 -2.45333,-6.026667 -5.86666,-6.026667 z m -0.34667,0.746667 c 2.24,0 3.81333,2.56 3.81333,6.213333 0,3.013333 -1.2,4.826667 -3.2,4.826667 -1.04,0 -2.02666,-0.64 -2.58666,-1.706667 -0.74667,-1.386667 -1.17334,-3.253333 -1.17334,-5.146666 0,-2.533334 1.25334,-4.186667 3.14667,-4.186667 z" />
    <path
       id="path83"
       style=""
       d="m 217.34778,81.581675 c 0,-0.933334 0.4,-1.306667 1.46667,-1.36 l 0.53333,-0.02667 v -0.4 h -6.24 v 0.4 c 1.92,0.32 2,0.4 2,1.786667 v 7.626666 c 0,1.386667 -0.08,1.466667 -2,1.786667 v 0.4 h 6.24 v -0.4 l -0.53333,-0.02667 c -1.06667,-0.05333 -1.46667,-0.426667 -1.46667,-1.36 v -4.186666 c 0.48,0 1.17334,-0.106667 1.62667,0.639999 l 3.33333,5.333334 h 3.68 v -0.4 c -1.17333,-0.08 -1.28,-0.133334 -2.08,-1.093334 -1.44,-1.973333 -2.26666,-4.639999 -4.48,-5.039999 1.28,-0.48 1.73334,-3.973334 2.53334,-3.973334 0.69333,0 0.53333,0.693334 1.36,0.693334 0.58666,0 1.17333,-0.32 1.17333,-1.013334 0,-1.013333 -0.64,-1.44 -1.6,-1.44 -1.62667,0 -2.02667,1.44 -2.42667,2.88 -0.34666,1.28 -1.25333,2.666667 -2.34666,2.666667 h -0.77334 z" />
    <path
       id="path85"
       style=""
       d="m 237.58278,90.808341 c -0.4,0 -0.61333,-0.106667 -0.24,-0.933333 0.24,-0.56 1.01333,-2.453334 1.01333,-4.453333 v -4.64 h 3.89334 v 7.786666 c 0,1.68 -0.32,2.24 -1.68,2.24 z m -0.32,-5.386666 c 0,1.679999 -0.61333,3.439999 -0.96,4.293333 -0.45333,1.066666 -1.25333,1.28 -2.34667,1.306666 l -0.08,4.106667 h 0.48 c 0.24,-1.946667 1.04,-3.333333 2.64,-3.333333 h 6.13334 c 1.6,0 2.4,1.386666 2.64,3.333333 h 0.48 l -0.08,-4.106667 c -1.33334,-0.106666 -1.68,-0.186666 -1.68,-1.866666 v -7.2 c 0,-1.306667 0.32,-1.626667 1.62666,-1.76 v -0.4 h -10.53333 v 0.4 c 1.33333,0.106667 1.68,0.56 1.68,2.24 z" />
    <path
       id="path87"
       style=""
       d="m 258.50487,90.035008 c -0.45334,0.373333 -0.77334,0.506666 -1.17334,0.506666 -0.61333,0 -0.8,-0.373333 -0.8,-1.546666 v -5.2 c 0,-1.386667 -0.13333,-2.16 -0.53333,-2.8 -0.58667,-0.96 -1.73333,-1.466667 -3.30667,-1.466667 -2.50666,0 -4.48,1.306667 -4.48,2.986667 0,0.613333 0.53334,1.146667 1.14667,1.146667 0.64,0 1.2,-0.533334 1.2,-1.12 0,-0.106667 -0.0267,-0.24 -0.0533,-0.426667 -0.0533,-0.24 -0.08,-0.453333 -0.08,-0.64 0,-0.72 0.85333,-1.306667 1.92,-1.306667 1.30666,0 2.02666,0.773334 2.02666,2.213334 v 1.626666 c -4.10666,1.653334 -4.56,1.866667 -5.70666,2.88 -0.58667,0.533333 -0.96,1.44 -0.96,2.32 0,1.68 1.17333,2.853333 2.8,2.853333 1.17333,0 2.26666,-0.56 3.89333,-1.946666 0.13333,1.386666 0.61333,1.946666 1.70667,1.946666 0.90666,0 1.46666,-0.32 2.4,-1.333333 z m -4.13334,-1.52 c 0,0.826666 -0.13333,1.066666 -0.69333,1.386666 -0.64,0.373334 -1.38667,0.613334 -1.94667,0.613334 -0.93333,0 -1.68,-0.906667 -1.68,-2.053334 v -0.106666 c 0,-1.573334 1.09334,-2.533333 4.32,-3.706667 z" />
    <path
       id="path89"
       style=""
       d="m 265.60778,79.795008 v 0.426667 c 1.78667,0 1.68,1.36 1.68,2.693333 v 6.64 c 0,1.386666 -0.53333,1.76 -1.68,1.84 v 0.4 h 5.52 c 2.4,0 3.46667,-0.213334 4.45333,-0.826667 0.96,-0.586667 1.28,-1.573333 1.28,-2.426667 0,-0.8 -0.26666,-1.653333 -1.09333,-2.186666 -0.8,-0.506667 -1.01333,-0.586667 -2.74667,-0.88 1.38667,-0.213333 1.44,-0.4 2.08,-0.773333 0.66667,-0.4 1.06667,-1.093334 1.06667,-1.813334 0,-2.053333 -1.01333,-3.093333 -5.62667,-3.093333 z m 3.92,6.186667 h 1.17333 c 0.77334,0 1.33334,0.02667 1.73334,0.133333 1.28,0.373333 2.08,1.466666 2.08,2.426666 0,0.8 -0.42667,1.386667 -1.14667,1.866667 -0.53333,0.346667 -1.09333,0.426667 -2.85333,0.426667 -1.30667,0 -0.98667,-0.506667 -0.98667,-1.093334 z m 0,-0.96 v -3.68 c 0,-0.4 0.16,-0.56 0.56,-0.56 h 0.77333 c 2.21334,0 3.12,0.826666 3.09334,2.16 -0.0267,1.12 -0.93334,2.08 -3.06667,2.08 z" />
    <path
       id="path91"
       style=""
       d="m 284.80612,84.595008 c -0.64,-0.05333 -1.2,-0.106667 -2.29334,-0.106667 h -0.69333 v -1.573333 c 0,-1.333333 -0.10667,-2.693333 1.68,-2.693333 v -0.426667 h -5.6 v 0.426667 c 1.78667,0 1.68,1.36 1.68,2.693333 v 6.64 c 0,1.386666 -0.53333,1.76 -1.68,1.84 v 0.4 h 4.45333 c 2.08,0 3.44,-0.373334 4.42667,-0.986667 0.96,-0.586667 1.49333,-1.946667 1.49333,-2.8 0,-0.8 -0.24,-1.706666 -0.74666,-2.213333 -0.50667,-0.506667 -1.2,-1.013333 -2.72,-1.2 z m -2.98667,0.853333 c 2.18667,0 1.70667,0.05333 2.16,0.213334 1.25333,0.453333 1.76,1.653333 1.76,2.613333 0,0.8 -0.45333,1.626666 -1.14667,2.08 -0.56,0.373333 -0.37333,0.48 -2.13333,0.48 -0.66667,0 -0.64,-0.506667 -0.64,-1.093334 z m 7.94667,3.706667 c 0,1.68 -0.34667,2.133333 -1.68,2.24 v 0.4 h 5.54666 v -0.4 c -1.30666,-0.133334 -1.62666,-0.453334 -1.62666,-1.76 v -7.68 c 0,-1.306667 0.32,-1.626667 1.62666,-1.76 v -0.4 h -5.54666 v 0.4 c 1.33333,0.106667 1.68,0.56 1.68,2.24 z" />
    <path
       id="path93"
       style=""
       d="m 303.52986,80.781675 v 8.373333 c 0,1.68 -0.34667,2.133333 -1.68,2.24 v 0.4 h 5.54666 v -0.4 c -1.30666,-0.133334 -1.62666,-0.453334 -1.62666,-1.76 v -7.68 c 0,-1.306667 0.32,-1.626667 1.62666,-1.76 v -0.4 h -12.98666 v 0.4 c 1.33333,0.106667 1.68,0.56 1.68,2.24 v 6.72 c 0,1.68 -0.34667,2.133333 -1.68,2.24 v 0.4 h 5.54666 v -0.4 c -1.30666,-0.133334 -1.62666,-0.453334 -1.62666,-1.76 v -8.853333 z" />
    <path
       id="path95"
       style=""
       d="m 318.69195,87.421674 c -1.28,2.026667 -2.42667,2.8 -4.13333,2.8 -1.52,0 -2.66667,-0.773333 -3.44,-2.293333 -0.48,-1.013333 -0.66667,-1.893333 -0.72,-3.52 h 8.21333 c -0.21333,-1.733333 -0.48,-2.506666 -1.14667,-3.36 -0.8,-0.96 -2.02666,-1.52 -3.41333,-1.52 -1.33333,0 -2.58667,0.48 -3.6,1.386667 -1.25333,1.093333 -1.97333,2.986667 -1.97333,5.173333 0,3.68 1.92,5.973333 4.98666,5.973333 2.53334,0 4.53334,-1.573333 5.65334,-4.453333 z m -8.24,-3.866666 c 0.29333,-2.08 1.2,-3.066667 2.82667,-3.066667 1.62666,0 2.26666,0.746667 2.61333,3.066667 z" />
    <path
       id="path97"
       style=""
       d="m 323.95486,87.341674 v -5.386666 c 0,-1.306667 0.32,-1.626667 1.62666,-1.76 v -0.4 h -5.54666 v 0.4 c 1.33333,0.106667 1.68,0.56 1.68,2.24 v 6.72 c 0,1.68 -0.34667,2.133333 -1.68,2.24 v 0.4 h 5.54666 v -0.4 c -1.30666,-0.133334 -1.62666,-0.453334 -1.62666,-1.76 v -0.8 l 5.06666,-4.693333 v 5.013333 c 0,1.68 -0.34666,2.133333 -1.68,2.24 v 0.4 h 5.54667 v -0.4 c -1.30667,-0.133334 -1.62667,-0.453334 -1.62667,-1.76 v -7.68 c 0,-1.306667 0.32,-1.626667 1.62667,-1.76 v -0.4 h -5.54667 v 0.4 c 1.33334,0.106667 1.68,0.56 1.68,2.24 v 0.213333 z m 5.49333,-13.333333 c -0.74667,2.026667 -1.41333,2.586667 -2.96,2.586667 -1.70667,0 -2.61333,-0.8 -2.98667,-2.586667 h -0.77333 c 0.0267,1.36 0.21333,2 0.72,2.746667 0.66667,0.933333 1.73333,1.44 2.98667,1.44 2.24,0 3.46666,-1.36 3.78666,-4.186667 z" />
    <path
       id="path99"
       style=""
       d="m 344.21402,85.021675 v -3.066667 c 0,-1.306667 0.32,-1.626667 1.62667,-1.76 v -0.4 h -5.54667 v 0.4 c 1.33334,0.106667 1.68,0.56 1.68,2.24 v 2.64 c -0.0267,2.32 2.21334,3.173333 3.41334,3.173333 1.2,0 2.37333,-0.533333 3.09333,-1.333333 v 2.24 c 0,1.68 -0.34667,2.133333 -1.68,2.24 v 0.4 h 5.54667 v -0.4 c -1.30667,-0.133334 -1.62667,-0.453334 -1.62667,-1.76 v -7.68 c 0,-1.306667 0.32,-1.626667 1.62667,-1.76 v -0.4 h -5.54667 v 0.4 c 1.33333,0.106667 1.68,0.56 1.68,2.24 v 3.226667 c -0.45333,0.613333 -1.25333,1.306666 -2.29333,1.279999 -0.93334,-0.02667 -2,-0.773333 -1.97334,-1.919999 z" />
    <path
       id="path101"
       style=""
       d="m 364.54652,90.035008 c -0.45333,0.373333 -0.77333,0.506666 -1.17333,0.506666 -0.61333,0 -0.8,-0.373333 -0.8,-1.546666 v -5.2 c 0,-1.386667 -0.13333,-2.16 -0.53333,-2.8 -0.58667,-0.96 -1.73334,-1.466667 -3.30667,-1.466667 -2.50667,0 -4.48,1.306667 -4.48,2.986667 0,0.613333 0.53333,1.146667 1.14667,1.146667 0.64,0 1.2,-0.533334 1.2,-1.12 0,-0.106667 -0.0267,-0.24 -0.0533,-0.426667 -0.0533,-0.24 -0.08,-0.453333 -0.08,-0.64 0,-0.72 0.85334,-1.306667 1.92,-1.306667 1.30667,0 2.02667,0.773334 2.02667,2.213334 v 1.626666 c -4.10667,1.653334 -4.56,1.866667 -5.70667,2.88 -0.58666,0.533333 -0.96,1.44 -0.96,2.32 0,1.68 1.17334,2.853333 2.8,2.853333 1.17334,0 2.26667,-0.56 3.89334,-1.946666 0.13333,1.386666 0.61333,1.946666 1.70666,1.946666 0.90667,0 1.46667,-0.32 2.4,-1.333333 z m -4.13333,-1.52 c 0,0.826666 -0.13333,1.066666 -0.69333,1.386666 -0.64,0.373334 -1.38667,0.613334 -1.94667,0.613334 -0.93333,0 -1.68,-0.906667 -1.68,-2.053334 v -0.106666 c 0,-1.573334 1.09333,-2.533333 4.32,-3.706667 z" />
    <path
       id="path103"
       style=""
       d="m 375.75611,80.275008 c 2.74667,0 3.36,3.626667 3.36,6.853333 0,2.266667 -0.85333,4.186667 -2.74666,4.186667 -2.74667,0 -3.36,-3.626667 -3.36,-6.853333 0,-2.266667 0.85333,-4.186667 2.74666,-4.186667 z m -5.14666,5.76 c 0.13333,3.466666 2.16,6.026666 5.44,6.026666 3.36,0 5.52,-2.826666 5.52,-6.506666 0,-3.493333 -2.05334,-6.026667 -5.46667,-6.026667 -3.22667,0 -5.14667,2.24 -5.44,5.52 h -1.76 v -3.093333 c 0,-1.306667 0.32,-1.626667 1.62667,-1.76 v -0.4 h -5.54667 v 0.4 c 1.33333,0.106667 1.68,0.56 1.68,2.24 v 6.72 c 0,1.68 -0.34667,2.133333 -1.68,2.24 v 0.4 h 5.54667 v -0.4 c -1.30667,-0.133334 -1.62667,-0.453334 -1.62667,-1.76 v -3.6 z" />
  </g>
</svg>
