<?xml version="1.0" encoding="UTF-8" standalone="no"?>
<svg
   xmlns:dc="http://purl.org/dc/elements/1.1/"
   xmlns:cc="http://creativecommons.org/ns#"
   xmlns:rdf="http://www.w3.org/1999/02/22-rdf-syntax-ns#"
   xmlns:svg="http://www.w3.org/2000/svg"
   xmlns="http://www.w3.org/2000/svg"
   id="svg2"
   version="1.1"
   viewBox="160.2208 5.7142739 253.5026 91.471359">
  <metadata
     id="metadata11">
    <rdf:RDF>
      <cc:Work
         rdf:about="">
        <dc:format>image/svg+xml</dc:format>
        <dc:type
           rdf:resource="http://purl.org/dc/dcmitype/StillImage" />
      </cc:Work>
    </rdf:RDF>
  </metadata>
  <defs
     id="defs9" />
  <g
     id="text4521"
     style="font-style:normal;font-variant:normal;font-weight:normal;font-stretch:normal;font-size:26.66666603px;line-height:125%;font-family:'Trebuchet MS', sans-serif;font-variant-ligatures:normal;font-variant-caps:normal;font-variant-numeric:normal;font-feature-settings:normal;text-align:left;letter-spacing:0px;word-spacing:0px;writing-mode:lr-tb;text-anchor:start;fill:#000000;fill-opacity:1;stroke:none;stroke-width:1px;stroke-linecap:butt;stroke-linejoin:miter;stroke-opacity:1"
     aria-label="Съешь же ещё этихмягких французскихбулок да выпей чаю">
    <path
       id="path13"
       style=""
       d="m 173.6583,6.7559406 -0.87239,2.2395832 q -1.23698,-0.9374999 -3.91927,-0.9374999 -2.61719,0 -4.08854,2.2395831 -1.45834,2.226563 -1.45834,5.494792 0,3.098958 1.48438,5.208333 1.48437,2.096354 4.08854,2.096354 2.65625,0 4.10156,-1.888021 l 1.44531,2.005208 q -2.27864,2.239584 -5.84635,2.239584 -3.77604,0 -5.89844,-2.721354 -2.12239,-2.721354 -2.12239,-7.070313 0,-4.166666 2.23958,-7.0572912 2.2526,-2.8906249 5.97656,-2.8906249 3.0599,0 4.86979,1.0416667 z" />
    <path
       id="path15"
       style=""
       d="m 182.48643,16.326253 q 1.61458,-0.182292 2.64323,-0.182292 2.66927,0 4.0625,1.158854 1.40625,1.158854 1.40625,3.424479 0,1.770834 -1.35417,3.085938 -1.35417,1.315104 -4.19271,1.315104 h -4.98698 V 13.214274 h -4.0625 v -2.03125 h 6.48438 z m 0,6.770833 q 0.92448,0.07813 2.61719,0.07813 1.39323,0 2.20052,-0.638021 0.80729,-0.651041 0.80729,-1.861979 0,-1.263021 -0.82031,-1.927083 -0.82032,-0.664063 -2.33073,-0.664063 -0.79427,0 -2.47396,0.195313 z" />
    <path
       id="path17"
       style=""
       d="m 204.99945,18.409586 h -10.05208 q 0,1.536458 0.52083,2.604167 0.52083,1.067708 1.4974,1.692708 0.98958,0.611979 2.38281,0.611979 2.09635,0 3.54166,-1.263021 l 1.01563,2.005209 q -0.97656,0.768229 -2.14844,1.054687 -1.17187,0.273438 -2.89062,0.273438 -2.83854,0 -4.67448,-1.940105 -1.82292,-1.953124 -1.82292,-5.117187 0,-3.320312 1.91406,-5.364583 1.92709,-2.057292 4.60938,-2.057292 2.89062,0 4.60937,1.627604 1.71875,1.614584 1.71875,4.348959 0,0.546875 -0.22135,1.523437 z m -6.0026,-5.416666 q -1.62761,0 -2.7474,1.067708 -1.10677,1.054687 -1.22396,2.539062 h 7.70833 q 0,-1.588541 -1.01562,-2.591145 -1.01563,-1.015625 -2.72135,-1.015625 z" />
    <path
       id="path19"
       style=""
       d="M 224.54372,25.128336 H 207.85101 V 11.183024 h 2.34375 v 11.940104 h 4.83073 V 11.183024 h 2.34375 v 11.940104 h 4.83073 V 11.183024 h 2.34375 z" />
    <path
       id="path21"
       style=""
       d="m 230.52028,16.352294 q 1.78385,-0.208333 2.90364,-0.208333 2.66928,0 4.0625,1.158854 1.40625,1.158854 1.40625,3.424479 0,1.770834 -1.35416,3.085938 -1.35417,1.315104 -4.19271,1.315104 h -5.28646 V 11.183024 h 2.46094 z m 0,6.744792 q 0.91146,0.07813 2.92969,0.07813 1.3802,0 2.16145,-0.638021 0.79428,-0.651041 0.79428,-1.861979 0,-2.591146 -3.08594,-2.591146 -1.06771,0 -2.79948,0.221354 z" />
    <path
       id="path23"
       style=""
       d="m 266.39268,25.206461 q -0.36458,0.05208 -0.8724,0.05208 -2.30468,0 -2.64323,-2.421875 -0.3125,-2.1875 -1.25,-3.111979 -0.9375,-0.9375 -2.74739,-0.9375 v 6.341146 h -2.34375 V 18.78719 q -1.92708,0 -2.89063,0.898438 -0.95052,0.885416 -1.27604,3.151041 -0.35156,2.421875 -2.64323,2.421875 -0.48177,0 -0.84635,-0.05208 v -2.161458 q 0.24739,0.05208 0.55989,0.05208 0.66407,0 0.79428,-0.768229 0.6901,-3.697917 3.47656,-4.557292 -1.38021,-0.338541 -2.20052,-1.210937 -0.80729,-0.872396 -1.13282,-2.578125 -0.14322,-0.768229 -0.72916,-0.768229 -0.52084,0 -0.58594,0.02604 v -2.135416 q 0.3776,-0.05208 0.88542,-0.05208 2.17448,0 2.57812,2.369792 0.33854,1.888021 1.25,2.630208 0.92448,0.729167 2.76042,0.729167 v -5.598958 h 2.34375 v 5.598958 q 1.79687,0 2.70833,-0.78125 0.91146,-0.78125 1.21094,-2.552083 0.41667,-2.395834 2.5651,-2.395834 0.48177,0 0.84636,0.05208 v 2.135416 q -0.0651,-0.02604 -0.61198,-0.02604 -0.5599,0 -0.71615,0.794271 -0.55989,2.968749 -3.20312,3.76302 1.39323,0.494792 2.20052,1.549479 0.82031,1.041667 1.18489,3.033855 0.13021,0.742187 0.76823,0.742187 0.36459,0 0.5599,-0.05208 z" />
    <path
       id="path25"
       style=""
       d="m 280.93695,18.409586 h -10.05209 q 0,1.536458 0.52084,2.604167 0.52083,1.067708 1.49739,1.692708 0.98959,0.611979 2.38282,0.611979 2.09635,0 3.54166,-1.263021 l 1.01563,2.005209 q -0.97656,0.768229 -2.14844,1.054687 -1.17187,0.273438 -2.89062,0.273438 -2.83855,0 -4.67448,-1.940105 -1.82292,-1.953124 -1.82292,-5.117187 0,-3.320312 1.91406,-5.364583 1.92709,-2.057292 4.60938,-2.057292 2.89062,0 4.60937,1.627604 1.71875,1.614584 1.71875,4.348959 0,0.546875 -0.22135,1.523437 z m -6.00261,-5.416666 q -1.6276,0 -2.74739,1.067708 -1.10677,1.054687 -1.22396,2.539062 h 7.70833 q 0,-1.588541 -1.01562,-2.591145 -1.01563,-1.015625 -2.72136,-1.015625 z" />
    <path
       id="path27"
       style=""
       d="m 303.54111,18.409586 h -10.05208 q 0,1.536458 0.52083,2.604167 0.52084,1.067708 1.4974,1.692708 0.98958,0.611979 2.38281,0.611979 2.09635,0 3.54167,-1.263021 l 1.01562,2.005209 q -0.97656,0.768229 -2.14844,1.054687 -1.17187,0.273438 -2.89062,0.273438 -2.83854,0 -4.67448,-1.940105 -1.82292,-1.953124 -1.82292,-5.117187 0,-3.320312 1.91407,-5.364583 1.92708,-2.057292 4.60937,-2.057292 2.89063,0 4.60938,1.627604 1.71875,1.614584 1.71875,4.348959 0,0.546875 -0.22136,1.523437 z m -6.0026,-5.416666 q -1.62761,0 -2.7474,1.067708 -1.10677,1.054687 -1.22396,2.539062 h 7.70834 q 0,-1.588541 -1.01563,-2.591145 -1.01562,-1.015625 -2.72135,-1.015625 z" />
    <path
       id="path29"
       style=""
       d="m 324.58277,29.685628 h -2.1875 v -4.557292 h -16.0026 V 11.183024 h 2.34375 v 11.940104 h 4.77865 V 11.183024 h 2.3177 v 11.940104 h 4.77865 V 11.183024 h 2.34375 v 11.940104 h 1.6276 z" />
    <path
       id="path31"
       style=""
       d="m 338.69736,18.409586 h -10.05208 q 0,1.536458 0.52083,2.604167 0.52084,1.067708 1.4974,1.692708 0.98958,0.611979 2.38281,0.611979 2.09635,0 3.54167,-1.263021 l 1.01562,2.005209 q -0.97656,0.768229 -2.14844,1.054687 -1.17187,0.273438 -2.89062,0.273438 -2.83854,0 -4.67448,-1.940105 -1.82292,-1.953124 -1.82292,-5.117187 0,-3.320312 1.91407,-5.364583 1.92708,-2.057292 4.60937,-2.057292 2.89063,0 4.60938,1.627604 1.71875,1.614584 1.71875,4.348959 0,0.546875 -0.22136,1.523437 z m -6.0026,-5.416666 q -1.62761,0 -2.7474,1.067708 -1.10677,1.054687 -1.22396,2.539062 h 7.70834 q 0,-1.588541 -1.01563,-2.591145 -1.01562,-1.015625 -2.72135,-1.015625 z m 2.83854,-7.0442711 q 0.5599,0 1.0026,0.4166667 0.45573,0.4166666 0.45573,1.0546874 0,0.6119792 -0.42968,1.0416667 -0.41667,0.4296875 -1.02865,0.4296875 -0.65104,0 -1.06771,-0.4427083 -0.40364,-0.4557292 -0.40364,-1.0286459 0,-0.5989583 0.42968,-1.0286458 0.42969,-0.4427083 1.04167,-0.4427083 z m -5.20833,0 q 0.61198,0 1.04166,0.4296875 0.42969,0.4296875 0.42969,1.0416666 0,0.5859375 -0.41667,1.0286459 -0.40364,0.4427083 -1.05468,0.4427083 -0.63802,0 -1.05469,-0.4427083 -0.40365,-0.4557292 -0.40365,-1.0286459 0,-0.7031249 0.46875,-1.0807291 0.48177,-0.390625 0.98959,-0.390625 z" />
    <path
       id="path33"
       style=""
       d="m 348.93174,12.22469 q 2.04427,-1.315104 4.6875,-1.315104 3.00781,0 4.77865,1.992188 1.78385,1.979166 1.78385,5.208333 0,3.385417 -1.84896,5.338541 -1.84895,1.940105 -5.20833,1.940105 -2.66927,0 -4.49219,-1.484375 l 1.21094,-1.901042 q 1.53646,1.393229 3.48958,1.393229 1.97917,0 3.11198,-1.171875 1.14584,-1.171875 1.26302,-3.359375 h -5.65104 v -1.927083 h 5.59896 q -0.28646,-1.940104 -1.41927,-2.981771 -1.13281,-1.041666 -2.92969,-1.041666 -1.80989,0 -3.33333,1.145833 z" />
    <path
       id="path35"
       style=""
       d="m 372.36924,13.266357 h -3.99739 v 11.861979 h -2.47396 V 13.266357 h -4.01042 v -2.083333 h 10.48177 z" />
    <path
       id="path37"
       style=""
       d="m 386.66611,25.128336 h -2.47396 v -9.544271 l -8.69791,9.921875 h -0.5599 V 11.183024 h 2.48698 v 9.54427 l 8.6849,-9.921874 h 0.55989 z" />
    <path
       id="path39"
       style=""
       d="m 401.74424,25.128336 h -3.07291 l -3.56771,-5.338542 -3.46354,5.338542 h -2.94271 l 5.18229,-7.148437 -4.75261,-6.796875 h 2.90365 l 3.125,4.908854 3.30729,-4.908854 h 2.79948 l -4.90885,6.692708 z" />
    <path
       id="path41"
       style=""
       d="m 174.56976,58.461672 -1.47135,-8.398437 -4.20573,8.632812 h -0.66406 l -4.19271,-8.502604 -1.43229,8.268229 h -2.38282 l 2.66928,-14.192708 h 0.66406 l 5.15625,10.403645 5.09114,-10.403645 h 0.63802 l 2.61719,14.192708 z" />
    <path
       id="path43"
       style=""
       d="m 189.92132,58.461672 h -2.36979 v -5.677083 h -1.14583 q -1.95313,0 -2.96875,0.807291 -1.01563,0.807292 -1.35417,2.760417 -0.39062,2.239583 -2.59114,2.239583 -0.48177,0 -0.84636,-0.05208 v -2.161458 q 0.19532,0.05208 0.50782,0.05208 0.59895,0 0.74218,-0.768229 0.52084,-2.643229 3.03386,-3.606771 -1.57552,-0.260417 -2.47396,-1.210937 -0.88542,-0.963542 -0.88542,-2.226563 0,-1.393229 0.78125,-2.447917 0.78125,-1.054687 2.01823,-1.432291 1.23698,-0.377604 3.04688,-0.377604 2.1875,0 4.5052,0.208333 z m -2.36979,-7.434896 v -4.648437 q -1.30208,-0.130209 -2.46093,-0.130209 -1.54948,0 -2.30469,0.664063 -0.75521,0.651042 -0.75521,1.601562 0,1.25 0.97656,1.86198 0.98959,0.598958 2.48698,0.625 z" />
    <path
       id="path45"
       style=""
       d="m 202.4083,46.599693 h -6.49739 v 11.861979 h -2.48698 V 44.51636 h 8.98437 z" />
    <path
       id="path47"
       style=""
       d="m 215.97601,58.539797 q -0.36458,0.05208 -0.91146,0.05208 -2.44791,0 -2.79948,-2.447916 -0.29948,-2.083334 -1.40625,-3.046875 -1.10677,-0.976563 -3.17708,-0.976563 h -0.20833 v 6.341146 h -2.48698 V 44.51636 h 2.48698 v 5.572916 h 0.33854 q 1.9401,0 2.98177,-0.794271 1.04167,-0.807291 1.34114,-2.486979 0.41667,-2.421875 2.7474,-2.421875 0.44271,0 0.85938,0.05208 v 2.135416 q -0.16928,-0.02604 -0.65105,-0.02604 -0.58593,0 -0.74218,0.79427 -0.58594,2.916667 -3.46355,3.763021 3.00782,1.028646 3.69792,4.583333 0.16927,0.742188 0.72917,0.742188 0.50781,0 0.66406,-0.05208 z" />
    <path
       id="path49"
       style=""
       d="m 230.4682,58.461672 h -2.47396 v -9.544271 l -8.69792,9.921875 h -0.55989 V 44.51636 h 2.48698 v 9.54427 l 8.68489,-9.921874 h 0.5599 z" />
    <path
       id="path51"
       style=""
       d="m 245.54632,58.461672 h -3.07292 l -3.5677,-5.338542 -3.46355,5.338542 h -2.9427 l 5.18229,-7.148438 -4.75261,-6.796874 h 2.90365 l 3.125,4.908854 3.30729,-4.908854 h 2.79948 l -4.90885,6.692708 z" />
    <path
       id="path53"
       style=""
       d="m 265.45518,44.893964 q 1.06771,-0.651042 2.05729,-0.651042 2.94271,0 4.50521,1.901042 1.57552,1.888021 1.57552,5.32552 0,3.476563 -1.62761,5.364584 -1.6276,1.88802 -4.14062,1.88802 -1.19792,0 -2.36979,-0.585937 v 5.794271 h -2.39584 v -5.794271 q -1.18489,0.585937 -2.38281,0.585937 -2.78646,0 -4.30989,-1.940104 -1.52344,-1.953125 -1.52344,-5.195312 0,-3.294271 1.60156,-5.3125 1.60156,-2.03125 4.45313,-2.03125 1.02864,0 2.16145,0.677083 v -6.10677 h 2.39584 z m 0,11.40625 q 0.9375,0.455729 1.73177,0.455729 3.94531,0 3.94531,-5.338542 0,-2.421875 -1.05469,-3.802083 -1.05468,-1.393229 -2.86458,-1.393229 -0.79427,0 -1.75781,0.377604 z m -2.39584,0.07813 V 46.70386 q -1.10677,-0.481771 -1.95312,-0.481771 -1.82292,0 -2.82552,1.354166 -0.98959,1.354167 -0.98959,3.841146 0,2.447917 0.98959,3.893229 1.0026,1.445313 3.125,1.445313 0.72916,0 1.65364,-0.377604 z" />
    <path
       id="path55"
       style=""
       d="m 278.82757,57.693443 v 6.236979 h -2.48698 V 44.51636 h 2.48698 v 1.145833 q 1.40625,-1.419271 3.38542,-1.419271 2.95573,0 4.60937,1.875 1.65365,1.861979 1.65365,5.416667 0,3.203125 -1.67969,5.195312 -1.66667,1.992187 -4.80469,1.992187 -0.85937,0 -1.875,-0.3125 -1.0026,-0.312499 -1.28906,-0.716145 z m 0,-10.169271 v 8.138021 q 0.28646,0.377604 1.01563,0.690104 0.72916,0.299479 1.43229,0.299479 4.60937,0 4.60937,-5.234375 0,-2.708333 -1.11979,-3.893229 -1.11979,-1.197917 -3.48958,-1.197917 -0.50782,0 -1.28907,0.390625 -0.78125,0.390625 -1.15885,0.807292 z" />
    <path
       id="path57"
       style=""
       d="m 298.91872,56.860109 q -1.51042,1.861979 -4.53125,1.861979 -1.65365,0 -2.85157,-1.197916 -1.19791,-1.197917 -1.19791,-2.955729 0,-2.122396 1.83593,-3.580729 1.84896,-1.458334 4.73959,-1.458334 0.79427,0 1.79687,0.3125 0,-3.385416 -3.04687,-3.385416 -2.27865,0 -3.56771,1.263021 l -1.04167,-2.057292 q 0.625,-0.533854 1.88802,-0.976563 1.27605,-0.442708 2.46094,-0.442708 2.94271,0 4.34896,1.341146 1.40625,1.341146 1.40625,4.453125 v 4.986979 q 0,1.835937 1.09375,2.447917 v 1.223958 q -1.61458,0 -2.34375,-0.481771 -0.71615,-0.481771 -0.98958,-1.354167 z m -0.20834,-5.247395 q -1.32812,-0.273438 -1.65364,-0.273438 -1.875,0 -3.0599,0.976563 -1.18489,0.976562 -1.18489,2.278645 0,2.1875 2.5651,2.1875 1.83594,0 3.33333,-1.783854 z" />
    <path
       id="path59"
       style=""
       d="m 316.27549,58.461672 h -2.48698 v -6.289063 h -6.41927 v 6.289063 h -2.48698 V 44.51636 h 2.48698 v 5.598958 h 6.41927 V 44.51636 h 2.48698 z" />
    <path
       id="path61"
       style=""
       d="m 332.06976,62.96688 h -2.23959 V 58.461672 H 319.77809 V 44.51636 h 2.48698 v 11.88802 h 5.70313 V 44.51636 h 2.47395 v 11.88802 h 1.62761 z" />
    <path
       id="path63"
       style=""
       d="m 339.85622,60.753338 q -0.48177,1.315105 -2.01823,2.200521 -1.53646,0.898438 -3.45052,0.898438 v -2.213542 q 1.52343,0 2.64323,-0.729167 1.11979,-0.716145 1.11979,-1.757812 0,-1.236979 -0.40365,-2.265625 l -4.83073,-12.447916 h 2.53906 l 4.07553,10.768229 3.71093,-10.768229 h 2.5 z" />
    <path
       id="path65"
       style=""
       d="m 354.60882,51.183026 q 2.60417,0.950521 2.60417,3.411458 0,1.940105 -1.47136,3.033855 -1.45833,1.093749 -3.97135,1.093749 -2.77344,0 -5.11719,-1.562499 l 1.25,-1.979167 q 1.65365,1.523437 3.98438,1.523437 1.26302,0 2.0052,-0.572916 0.74219,-0.585938 0.74219,-1.536459 0,-2.5 -3.125,-2.5 -0.88541,0 -1.54948,0.07813 v -1.979166 q 0.23438,0.02604 1.62761,0.02604 1.27604,0 1.97916,-0.494792 0.71615,-0.507813 0.71615,-1.393229 0,-0.976563 -0.65104,-1.510417 -0.63802,-0.546875 -1.79688,-0.546875 -1.75781,0 -3.65885,1.067708 l -0.91146,-2.005208 q 2.39583,-1.09375 4.70052,-1.09375 2.05729,0 3.45052,1.09375 1.39323,1.080729 1.39323,2.890625 0,2.148438 -2.20052,2.955729 z" />
    <path
       id="path67"
       style=""
       d="m 370.41612,45.662193 -1.19792,1.731771 q -0.45573,-0.403646 -1.38021,-0.729167 -0.91146,-0.338542 -1.84896,-0.338542 -2.03125,0 -3.21614,1.432292 -1.1849,1.432292 -1.1849,3.880208 0,2.369792 1.1849,3.697917 1.18489,1.315104 3.39844,1.315104 1.66666,0 3.37239,-1.315104 l 0.95052,2.083333 q -1.9401,1.302083 -4.93489,1.302083 -2.83855,0 -4.70052,-1.914062 -1.84896,-1.927083 -1.84896,-5.169271 0,-3.424479 1.95312,-5.403645 1.96615,-1.992188 5.27344,-1.992188 1.13281,0 2.38281,0.46875 1.25,0.46875 1.79688,0.950521 z" />
    <path
       id="path69"
       style=""
       d="m 384.1531,58.539797 q -0.36459,0.05208 -0.91146,0.05208 -2.44792,0 -2.79948,-2.447916 -0.29948,-2.083334 -1.40625,-3.046875 -1.10677,-0.976563 -3.17708,-0.976563 h -0.20834 v 6.341146 h -2.48698 V 44.51636 h 2.48698 v 5.572916 h 0.33854 q 1.94011,0 2.98177,-0.794271 1.04167,-0.807291 1.34115,-2.486979 0.41667,-2.421875 2.7474,-2.421875 0.4427,0 0.85937,0.05208 v 2.135416 q -0.16927,-0.02604 -0.65104,-0.02604 -0.58594,0 -0.74219,0.79427 -0.58594,2.916667 -3.46354,3.763021 3.00781,1.028646 3.69792,4.583333 0.16927,0.742188 0.72916,0.742188 0.50782,0 0.66407,-0.05208 z" />
    <path
       id="path71"
       style=""
       d="m 398.64528,58.461672 h -2.47395 v -9.544271 l -8.69792,9.921875 h -0.5599 V 44.51636 h 2.48698 v 9.54427 l 8.6849,-9.921874 h 0.55989 z" />
    <path
       id="path73"
       style=""
       d="m 413.7234,58.461672 h -3.07292 l -3.56771,-5.338542 -3.46354,5.338542 h -2.94271 l 5.1823,-7.148438 -4.75261,-6.796874 h 2.90365 l 3.125,4.908854 3.30729,-4.908854 h 2.79948 l -4.90886,6.692708 z" />
    <path
       id="path75"
       style=""
       d="m 162.51247,81.742925 q 0.88542,-1.510417 2.1875,-2.304688 1.31511,-0.794271 2.82552,-0.794271 2.72136,0 4.28386,1.731771 1.5625,1.731771 1.5625,4.674479 0,3.138021 -1.70573,5.078125 -1.70573,1.927083 -4.64844,1.927083 -3.04688,0 -4.76563,-2.213541 -1.70572,-2.226563 -1.70572,-6.015625 0,-2.526042 0.4427,-4.479167 0.44271,-1.953125 1.28907,-3.177083 0.84635,-1.223958 2.17448,-1.992187 1.32812,-0.76823 3.46354,-1.263021 l 4.46614,-1.015625 0.53386,2.291666 q -4.85677,1.054688 -5.98959,1.354167 -1.13281,0.299479 -2.10937,0.950521 -0.96354,0.651042 -1.52344,1.875 -0.54687,1.210937 -0.78125,3.372396 z m 4.6224,8.268229 q 1.73177,0 2.65625,-1.276042 0.9375,-1.276042 0.9375,-3.424479 0,-2.265625 -0.92448,-3.450521 -0.91146,-1.184896 -2.64323,-1.184896 -1.77083,0 -2.87761,1.354167 -1.09375,1.354167 -1.09375,3.28125 0,2.083333 1.06771,3.398437 1.06771,1.302084 2.87761,1.302084 z" />
    <path
       id="path77"
       style=""
       d="m 181.36664,94.086674 q -0.48177,1.315104 -2.01823,2.200521 -1.53646,0.898438 -3.45052,0.898438 v -2.213542 q 1.52344,0 2.64323,-0.729167 1.11979,-0.716146 1.11979,-1.757812 0,-1.236979 -0.40365,-2.265625 l -4.83073,-12.447916 h 2.53907 l 4.07552,10.768228 3.71093,-10.768228 h 2.5 z" />
    <path
       id="path79"
       style=""
       d="m 200.83278,91.795008 h -2.47395 V 79.815841 h -3.73698 q -0.0651,2.942709 -0.59896,5.442709 -0.53386,2.486979 -1.44531,4.114583 -0.91146,1.614583 -1.97917,2.096354 -1.06771,0.481771 -2.56511,0.481771 v -2.265625 q 2.33073,0 3.29428,-3.606771 0.97656,-3.619792 0.97656,-6.927083 v -1.302083 h 8.52864 z" />
    <path
       id="path81"
       style=""
       d="m 209.67393,77.576258 q 2.99479,0 4.63542,1.940104 1.65364,1.927083 1.65364,5.260417 0,3.424479 -1.71875,5.351562 -1.71875,1.927083 -4.57031,1.927083 -2.98177,0 -4.64844,-1.953125 -1.66666,-1.953125 -1.66666,-5.32552 0,-3.216146 1.74479,-5.208334 1.74479,-1.992187 4.57031,-1.992187 z m 0,12.460937 q 1.74479,0 2.70833,-1.445312 0.97657,-1.445313 0.97657,-3.815104 0,-5.169271 -3.6849,-5.169271 -1.74479,0 -2.7474,1.40625 -0.98958,1.40625 -0.98958,3.763021 0,5.260416 3.73698,5.260416 z" />
    <path
       id="path83"
       style=""
       d="m 229.56976,91.873133 q -0.36458,0.05208 -0.91146,0.05208 -2.44791,0 -2.79948,-2.447917 -0.29948,-2.083333 -1.40625,-3.046874 -1.10677,-0.976563 -3.17708,-0.976563 h -0.20833 v 6.341146 h -2.48698 V 77.849696 h 2.48698 v 5.572916 h 0.33854 q 1.9401,0 2.98177,-0.794271 1.04167,-0.807291 1.34114,-2.486979 0.41667,-2.421875 2.7474,-2.421875 0.44271,0 0.85938,0.05208 v 2.135416 q -0.16928,-0.02604 -0.65105,-0.02604 -0.58593,0 -0.74218,0.794271 -0.58594,2.916667 -3.46355,3.763021 3.00782,1.028646 3.69792,4.583333 0.16927,0.742188 0.72917,0.742188 0.50781,0 0.66406,-0.05208 z" />
    <path
       id="path85"
       style=""
       d="m 253.37185,96.352299 h -2.1875 v -4.557291 h -9.8698 v 4.557291 h -2.1875 v -6.536458 h 1.06771 q 1.61459,-1.888021 2.48698,-4.609375 0.8724,-2.734375 0.8724,-5.546875 v -1.809895 h 8.24219 v 11.966145 h 1.57552 z m -3.95834,-6.536458 v -10 h -3.80208 q 0,2.747396 -0.79427,5.455729 -0.78125,2.708334 -2.22656,4.544271 z" />
    <path
       id="path87"
       style=""
       d="m 263.50205,90.193445 q -1.51041,1.861979 -4.53125,1.861979 -1.65364,0 -2.85156,-1.197916 -1.19792,-1.197917 -1.19792,-2.955729 0,-2.122396 1.83594,-3.580729 1.84896,-1.458334 4.73958,-1.458334 0.79427,0 1.79688,0.3125 0,-3.385416 -3.04688,-3.385416 -2.27864,0 -3.5677,1.26302 l -1.04167,-2.057291 q 0.625,-0.533854 1.88802,-0.976563 1.27604,-0.442708 2.46094,-0.442708 2.94271,0 4.34896,1.341146 1.40625,1.341146 1.40625,4.453125 v 4.986979 q 0,1.835937 1.09375,2.447916 v 1.223959 q -1.61459,0 -2.34375,-0.481771 -0.71615,-0.481771 -0.98959,-1.354167 z m -0.20833,-5.247395 q -1.32813,-0.273438 -1.65365,-0.273438 -1.875,0 -3.05989,0.976563 -1.1849,0.976562 -1.1849,2.278645 0,2.1875 2.56511,2.1875 1.83593,0 3.33333,-1.783854 z" />
    <path
       id="path89"
       style=""
       d="m 285.80674,84.308029 q 2.66927,0.859375 2.66927,3.515625 0,1.71875 -1.32812,2.851562 -1.32813,1.119792 -3.98438,1.119792 h -5.67708 V 77.875737 q 2.94271,-0.15625 5.44271,-0.15625 2.35677,0 3.65885,0.963542 1.30208,0.950521 1.30208,2.786458 0,0.924479 -0.55989,1.692708 -0.5599,0.76823 -1.52344,1.145834 z m -5.97656,-0.78125 q 0.20833,0.02604 2.99479,0.02604 2.64323,0 2.64323,-2.057291 0,-0.885417 -0.625,-1.380209 -0.61198,-0.507812 -1.73177,-0.507812 -2.14844,0 -3.28125,0.104167 z m 0,6.289062 q 1.47135,0.09115 3.04687,0.09115 3.11198,0 3.11198,-2.265625 0,-1.09375 -0.80729,-1.679687 -0.80729,-0.598959 -2.35677,-0.598959 -1.99219,0 -2.99479,0.0651 z" />
    <path
       id="path91"
       style=""
       d="m 305.98902,91.795008 h -2.43489 V 77.849696 h 2.43489 z m -12.3177,-8.828125 q 1.0677,-0.15625 2.36979,-0.15625 2.68229,0 4.08854,1.158854 1.40625,1.158854 1.40625,3.424479 0,1.132813 -0.63802,2.213542 -0.63802,1.067708 -1.86198,1.627604 -1.22396,0.559896 -3.04688,0.559896 h -4.7526 V 77.849696 h 2.4349 z m 0,6.822916 q 0.88541,0.09115 2.36979,0.09115 1.38021,0 2.20052,-0.664062 0.83333,-0.664063 0.83333,-1.875 0,-1.315104 -0.87239,-1.966146 -0.85938,-0.651042 -2.29167,-0.651042 -0.78125,0 -2.23958,0.169271 z" />
    <path
       id="path93"
       style=""
       d="m 320.55934,91.795008 h -2.47396 V 79.933029 h -6.08073 v 11.861979 h -2.48698 V 77.849696 h 11.04167 z" />
    <path
       id="path95"
       style=""
       d="M 335.83278,85.076258 H 325.7807 q 0,1.536458 0.52083,2.604166 0.52084,1.067709 1.4974,1.692709 0.98958,0.611979 2.38281,0.611979 2.09636,0 3.54167,-1.263021 l 1.01562,2.005208 q -0.97656,0.76823 -2.14843,1.054688 -1.17188,0.273437 -2.89063,0.273437 -2.83854,0 -4.67448,-1.940104 -1.82291,-1.953125 -1.82291,-5.117187 0,-3.320313 1.91406,-5.364583 1.92708,-2.057292 4.60937,-2.057292 2.89063,0 4.60938,1.627604 1.71875,1.614583 1.71875,4.348958 0,0.546875 -0.22136,1.523438 z m -6.0026,-5.416667 q -1.6276,0 -2.7474,1.067709 -1.10677,1.054687 -1.22395,2.539062 h 7.70833 q 0,-1.588542 -1.01563,-2.591146 -1.01562,-1.015625 -2.72135,-1.015625 z" />
    <path
       id="path97"
       style=""
       d="m 350.41611,91.795008 h -2.47396 v -9.544271 l -8.69791,9.921875 h -0.5599 V 77.849696 h 2.48698 v 9.54427 l 8.6849,-9.921875 h 0.55989 z m -0.95052,-20.690104 q -0.87239,3.997396 -4.67448,3.997396 -3.78906,0 -4.66146,-3.997396 l 2.21355,-0.507812 q 0.48177,2.66927 2.44791,2.66927 2.20052,0 2.56511,-2.643229 z" />
    <path
       id="path99"
       style=""
       d="m 372.60361,91.795008 h -2.47396 v -5.46875 q -1.6927,0.429687 -3.60677,0.429687 -2.29166,0 -3.59375,-1.315104 -1.30208,-1.315104 -1.30208,-3.828125 v -3.76302 h 2.47396 v 3.710937 q 0,1.549479 0.78125,2.356771 0.79427,0.807291 2.29166,0.807291 1.4974,0 2.98178,-0.3125 v -6.562499 h 2.44791 z" />
    <path
       id="path101"
       style=""
       d="m 383.86664,90.193445 q -1.51042,1.861979 -4.53125,1.861979 -1.65365,0 -2.85156,-1.197916 -1.19792,-1.197917 -1.19792,-2.955729 0,-2.122396 1.83594,-3.580729 1.84895,-1.458334 4.73958,-1.458334 0.79427,0 1.79687,0.3125 0,-3.385416 -3.04687,-3.385416 -2.27865,0 -3.56771,1.26302 l -1.04167,-2.057291 q 0.625,-0.533854 1.88803,-0.976563 1.27604,-0.442708 2.46093,-0.442708 2.94271,0 4.34896,1.341146 1.40625,1.341146 1.40625,4.453125 v 4.986979 q 0,1.835937 1.09375,2.447916 v 1.223959 q -1.61458,0 -2.34375,-0.481771 -0.71614,-0.481771 -0.98958,-1.354167 z M 383.6583,84.94605 q -1.32812,-0.273438 -1.65364,-0.273438 -1.875,0 -3.0599,0.976563 -1.18489,0.976562 -1.18489,2.278645 0,2.1875 2.5651,2.1875 1.83594,0 3.33333,-1.783854 z" />
    <path
       id="path103"
       style=""
       d="m 394.84319,83.474695 q 0.36458,-2.760416 1.91406,-4.322916 1.5625,-1.575521 3.85417,-1.575521 2.72135,0 4.25781,1.914062 1.54948,1.901042 1.54948,5.286459 0,3.268229 -1.58854,5.273437 -1.57552,2.005208 -4.21875,2.005208 -2.59115,0 -4.11458,-1.71875 -1.51042,-1.71875 -1.70573,-4.85677 h -2.59115 v 6.315104 h -2.36979 V 77.849696 h 2.36979 v 5.624999 z m 5.79427,6.640625 q 1.66667,0 2.5,-1.432291 0.83333,-1.445313 0.83333,-3.880209 0,-5.273437 -3.35937,-5.273437 -1.64063,0 -2.52604,1.419271 -0.8724,1.40625 -0.8724,3.776041 0,2.617188 0.88542,4.010417 0.89844,1.380208 2.53906,1.380208 z" />
  </g>
</svg>
