<?xml version="1.0" encoding="UTF-8" standalone="no"?>
<svg
   xmlns:dc="http://purl.org/dc/elements/1.1/"
   xmlns:cc="http://creativecommons.org/ns#"
   xmlns:rdf="http://www.w3.org/1999/02/22-rdf-syntax-ns#"
   xmlns:svg="http://www.w3.org/2000/svg"
   xmlns="http://www.w3.org/2000/svg"
   id="svg2"
   version="1.1"
   viewBox="159.79737 8.8083363 216.73833 89.600005">
  <metadata
     id="metadata11">
    <rdf:RDF>
      <cc:Work
         rdf:about="">
        <dc:format>image/svg+xml</dc:format>
        <dc:type
           rdf:resource="http://purl.org/dc/dcmitype/StillImage" />
      </cc:Work>
    </rdf:RDF>
  </metadata>
  <defs
     id="defs9" />
  <g
     id="text4521"
     style="font-style:normal;font-variant:normal;font-weight:normal;font-stretch:normal;font-size:26.66666603px;line-height:125%;font-family:'URW Chancery L', cursive;font-variant-ligatures:normal;font-variant-caps:normal;font-variant-numeric:normal;font-feature-settings:normal;text-align:left;letter-spacing:0px;word-spacing:0px;writing-mode:lr-tb;text-anchor:start;fill:#000000;fill-opacity:1;stroke:none;stroke-width:1px;stroke-linecap:butt;stroke-linejoin:miter;stroke-opacity:1"
     aria-label="Съешь же ещё этихмягких французскихбулок да выпей чаю">
    <path
       id="path13"
       style=""
       d="m 173.63737,23.448336 c -2.45334,1.68 -4.26667,2.373333 -6.13334,2.373333 -2.10666,0 -3.44,-1.6 -3.44,-4.133333 0,-5.546666 3.92,-11.066666 7.86667,-11.066666 1.6,0 2.4,0.986666 2.56,3.093333 l 1.97333,-1.68 c -0.24,-1.84 -1.2,-2.6666667 -3.12,-2.6666667 -2.32,0 -5.01333,1.3599997 -7.36,3.7066667 -2.58666,2.586667 -4.10666,6.133333 -4.10666,9.6 0,2.746666 1.52,4.4 4.08,4.4 2.29333,0 5.2,-1.093334 7.49333,-2.826667 z" />
    <path
       id="path15"
       style=""
       d="m 177.33153,19.075003 c -1.25333,4.666666 -1.25333,4.666666 -1.25333,5.333333 0.24,1.413333 1.65333,1.2 2.93333,1.2 2.16,0 4.93334,-2.933333 4.93334,-4.053333 0,-2.533334 -0.88,-3.093334 -2.90667,-3.066667 -0.48,0 -1.46667,0.453333 -2.13333,1.146667 1.01333,-4.133333 1.22666,-5.013333 1.22666,-5.2 0,-0.16 -0.13333,-0.266667 -0.32,-0.266667 -0.29333,0.346667 -0.58666,0.426667 -1.44,0.426667 h -0.64 c -1.65333,-0.08 -1.92,-0.08 -2.13333,-0.08 -0.50667,0 -0.77333,0.08 -0.93333,0.293333 -0.34667,0.426667 -0.77334,1.546667 -1.30667,3.44 l 0.45333,0.56 c 0.13334,-0.4 0.26667,-0.773333 0.29334,-0.906667 0.58666,-1.68 0.77333,-1.839999 2.21333,-1.813333 1.06667,-0.02667 1.14667,0 1.78667,-0.133333 -0.32,1.146666 -0.77334,3.12 -0.77334,3.12 z m 1.25334,1.893333 c 0.53333,-0.586667 1.70666,-1.066667 2.02666,-1.066667 1.49334,-0.02667 1.54667,0.933334 1.54667,1.76 0.0267,2.293334 -1.54667,2.826667 -2.85333,2.826667 -1.12,0 -1.04,-1.36 -1.04,-1.813333 0,-0.266667 0.08,-0.773334 0.24,-1.36 z" />
    <path
       id="path17"
       style=""
       d="m 193.15362,21.475003 c -2,1.733333 -3.28,2.48 -4.29334,2.48 -0.66666,0 -1.22666,-0.453334 -1.41333,-1.146667 -0.10667,-0.426667 -0.13333,-0.72 -0.13333,-1.493333 1.2,-0.746667 2,-1.306667 3.57333,-2.48 1.44,-1.093334 2,-1.973334 2,-3.173333 0,-0.933334 -0.58667,-1.493334 -1.52,-1.493334 -0.58667,0 -1.01333,0.133334 -1.62667,0.48 -1.01333,0.586667 -1.92,1.306667 -2.48,1.946667 -1.01333,1.226666 -1.92,4.16 -1.92,6.32 0,1.573333 0.82667,2.56 2.18667,2.56 1.57333,0 3.52,-1.12 5.62667,-3.226667 z m -5.76,-1.12 c 0.45333,-2.853334 1.68,-5.066667 2.82666,-5.066667 0.45334,0 0.74667,0.453334 0.74667,1.093333 0,1.333334 -0.72,2.133334 -3.57333,3.973334 z" />
    <path
       id="path19"
       style=""
       d="m 200.82945,25.475003 c 0.4,0 0.98667,-0.24 2.32,-1.12 l 2.74667,-1.786667 c -0.21334,0.853333 -0.37334,1.813333 -0.37334,2.293333 0,0.346667 0.21334,0.613334 0.48,0.613334 0.53334,0 3.06667,-1.493334 4.88,-2.853334 l 0.18667,-0.8 c -2.08,1.226667 -2.77333,1.6 -3.06667,1.6 -0.18666,0 -0.29333,-0.213333 -0.29333,-0.64 0,-1.36 0.98667,-5.333333 2.13333,-8.719999 -0.34666,0.186666 -0.58666,0.32 -0.69333,0.373333 -0.32,0.16 -0.64,0.32 -0.98667,0.48 -0.08,0.02667 -0.24,0.106667 -0.53333,0.266667 -0.16,0.613333 -0.69333,2.746666 -1.57333,6.426666 -2.05334,1.413333 -2.90667,1.813333 -3.22667,1.813333 -0.18667,0 -0.29333,-0.213333 -0.29333,-0.64 0,-1.36 0.98666,-5.333333 2.13333,-8.719999 -0.34667,0.186666 -0.58667,0.32 -0.69333,0.373333 -0.32,0.16 -0.64,0.32 -0.98667,0.48 -0.08,0.02667 -0.24,0.106667 -0.53333,0.266667 -0.16,0.613333 -0.69334,2.746666 -1.57334,6.426666 -2.05333,1.413333 -2.98666,1.946667 -3.30666,1.946667 -0.29334,0 -0.50667,-0.373334 -0.50667,-0.88 0,-0.613334 0.21333,-1.68 0.66667,-3.386667 0.29333,-1.066667 0.48,-1.813333 0.56,-2.186667 0.24,-0.986666 0.42666,-1.679999 0.48,-1.866666 0.08,-0.293333 0.13333,-0.533333 0.13333,-0.72 0,-0.213333 -0.13333,-0.346667 -0.32,-0.346667 -0.26667,0 -2.21333,1.04 -4.13333,2.24 l -0.18667,0.72 c 1.12,-0.56 1.62667,-0.773333 1.94667,-0.773333 0.21333,0 0.37333,0.213333 0.37333,0.506666 0,0.346667 -0.26667,1.493334 -0.74667,3.306667 -0.66666,2.48 -0.82666,3.226667 -0.82666,4 0,0.746667 0.32,1.306667 0.74666,1.306667 0.4,0 0.88,-0.24 2.21334,-1.12 l 2.74666,-1.786667 c -0.21333,0.853333 -0.37333,1.813333 -0.37333,2.293333 0,0.346667 0.21333,0.613334 0.48,0.613334 z" />
    <path
       id="path21"
       style=""
       d="m 215.10278,19.635003 c 1.01334,-4.133333 1.22667,-5.013333 1.22667,-5.2 0,-0.16 -0.13333,-0.266667 -0.32,-0.266667 -0.45333,0 -2.02667,0.88 -4.21333,2.346667 l -0.0533,0.746666 c 1.57334,-0.853333 1.70667,-0.906666 1.94667,-0.906666 0.21333,0 0.32,0.16 0.32,0.48 0,0.346666 -0.08,0.72 -0.48,2.24 -1.25333,4.666666 -1.25333,4.666666 -1.25333,5.333333 0,1.36 1.65333,1.2 2.93333,1.2 2.16,0 4.93333,-2.933333 4.93333,-4.053333 0,-2.533334 -0.88,-3.066667 -2.90666,-3.066667 -0.42667,0 -1.46667,0.453333 -2.13334,1.146667 z m -0.32,1.333333 c 0.53334,-0.586667 1.70667,-1.066667 2.02667,-1.066667 1.49333,0 1.54667,0.933334 1.54667,1.76 0,2.293334 -1.54667,2.826667 -2.85334,2.826667 -1.12,0 -1.04,-1.36 -1.04,-1.813333 0,-0.266667 0.08,-0.773334 0.24,-1.36 z" />
    <path
       id="path23"
       style=""
       d="m 236.27695,16.915003 -3.09334,2.026666 c 0.16,-0.8 0.26667,-1.626666 0.26667,-2.32 0,-1.546666 -0.72,-2.453333 -1.94667,-2.453333 -1.28,0 -3.46666,1.066667 -5.89333,2.88 l -0.0533,0.853333 c 2.05333,-1.466666 3.46666,-2.213333 4.32,-2.213333 0.96,0 1.52,0.746667 1.52,2.026667 0,1.28 -0.32,2.986666 -0.82667,4.24 -0.53333,1.413333 -1.22667,2.133333 -2,2.133333 -0.64,0 -0.98667,-0.506667 -1.12,-1.68 l -1.54667,0.906667 c -0.0267,0.133333 -0.0267,0.266666 -0.0267,0.293333 0,1.146667 0.58666,1.866667 1.52,1.866667 0.48,0 0.77333,-0.106667 1.73333,-0.746667 2,-1.253333 2.42667,-1.653333 3.01333,-2.746667 0.29334,-0.586666 0.56,-1.306666 0.8,-2.053333 l 3.09334,-2.026667 -2.02667,7.493334 2.05333,-0.773334 0.74667,-2.906666 2.72,-1.786667 c -0.26667,1.066667 -0.45333,2.16 -0.45333,3.093333 0,1.546667 0.72,2.453334 1.94666,2.453334 1.28,0 3.46667,-1.066667 5.89334,-2.88 l 0.0533,-0.853334 c -2.05333,1.466667 -3.46667,2.213334 -4.32,2.213334 -0.96,0 -1.52,-0.746667 -1.52,-2.026667 0,-1.28 0.32,-2.986667 0.82667,-4.24 0.53333,-1.413333 1.22666,-2.133333 2,-2.133333 0.64,0 0.98666,0.506667 1.12,1.68 l 1.54666,-0.906667 c 0.0267,-0.133333 0.0267,-0.266666 0.0267,-0.293333 0,-1.146667 -0.58667,-1.866667 -1.52,-1.866667 -0.48,0 -0.77333,0.106667 -1.73333,0.746667 -2,1.253333 -2.42667,1.653333 -3.01334,2.746666 -0.18666,0.373334 -0.37333,0.826667 -0.53333,1.28 l -2.77333,1.786667 1.52,-6.426666 h -1.68 z" />
    <path
       id="path25"
       style=""
       d="m 255.75778,21.475003 c -2,1.733333 -3.28,2.48 -4.29333,2.48 -0.66667,0 -1.22667,-0.453334 -1.41333,-1.146667 -0.10667,-0.426667 -0.13334,-0.72 -0.13334,-1.493333 1.2,-0.746667 2,-1.306667 3.57334,-2.48 1.44,-1.093334 2,-1.973334 2,-3.173333 0,-0.933334 -0.58667,-1.493334 -1.52,-1.493334 -0.58667,0 -1.01334,0.133334 -1.62667,0.48 -1.01333,0.586667 -1.92,1.306667 -2.48,1.946667 -1.01333,1.226666 -1.92,4.16 -1.92,6.32 0,1.573333 0.82667,2.56 2.18667,2.56 1.57333,0 3.52,-1.12 5.62666,-3.226667 z m -5.76,-1.12 c 0.45334,-2.853334 1.68,-5.066667 2.82667,-5.066667 0.45333,0 0.74667,0.453334 0.74667,1.093333 0,1.333334 -0.72,2.133334 -3.57334,3.973334 z" />
    <path
       id="path27"
       style=""
       d="m 270.7057,21.475003 c -2,1.733333 -3.28,2.48 -4.29334,2.48 -0.66666,0 -1.22666,-0.453334 -1.41333,-1.146667 -0.10667,-0.426667 -0.13333,-0.72 -0.13333,-1.493333 1.2,-0.746667 2,-1.306667 3.57333,-2.48 1.44,-1.093334 2,-1.973334 2,-3.173333 0,-0.933334 -0.58667,-1.493334 -1.52,-1.493334 -0.58667,0 -1.01333,0.133334 -1.62667,0.48 -1.01333,0.586667 -1.92,1.306667 -2.48,1.946667 -1.01333,1.226666 -1.92,4.16 -1.92,6.32 0,1.573333 0.82667,2.56 2.18667,2.56 1.57333,0 3.52,-1.12 5.62667,-3.226667 z m -5.76,-1.12 c 0.45333,-2.853334 1.68,-5.066667 2.82666,-5.066667 0.45334,0 0.74667,0.453334 0.74667,1.093333 0,1.333334 -0.72,2.133334 -3.57333,3.973334 z" />
    <path
       id="path29"
       style=""
       d="m 283.55486,25.475003 c 0.24,0 1.57334,-0.666667 2.34667,-1.12 0.34667,-0.186667 0.53333,0.05333 0.50667,0.293333 -0.13334,0.853333 -0.85334,1.653333 -1.89334,1.973333 -1.25333,0.373334 -1.89333,-0.88 -3.2,-0.693333 -1.17333,0.186667 -1.65333,0.746667 -2.56,1.44 l 0.85334,0.64 c 0.56,-0.346667 0.90666,-0.48 1.54666,-0.533333 1.46667,-0.106667 2.21334,1.146666 3.62667,0.693333 1.01333,-0.346667 1.46667,-0.986667 1.81333,-1.973333 0.34667,-1.013334 0.24,-2.453334 0.53334,-2.64 0.45333,-0.32 0.90666,-0.613334 1.30666,-0.933334 l 0.18667,-0.8 c -2.08,1.226667 -2.77333,1.6 -3.06667,1.6 -0.18666,0 -0.29333,-0.213333 -0.29333,-0.64 0,-1.36 0.98667,-5.333333 2.13333,-8.719999 -0.34666,0.186666 -0.58666,0.32 -0.69333,0.373333 -0.32,0.16 -0.64,0.32 -0.98667,0.48 -0.08,0.02667 -0.24,0.106667 -0.53333,0.266667 -0.16,0.613333 -0.69333,2.746666 -1.57333,6.426666 -2.05334,1.413333 -2.90667,1.813333 -3.22667,1.813333 -0.18667,0 -0.29333,-0.213333 -0.29333,-0.64 0,-1.36 0.98666,-5.333333 2.13333,-8.719999 -0.34667,0.186666 -0.58667,0.32 -0.69333,0.373333 -0.32,0.16 -0.64,0.32 -0.98667,0.48 -0.08,0.02667 -0.24,0.106667 -0.53333,0.266667 -0.16,0.613333 -0.69334,2.746666 -1.57334,6.426666 -2.05333,1.413333 -2.98666,1.946667 -3.30666,1.946667 -0.29334,0 -0.50667,-0.373334 -0.50667,-0.88 0,-0.613334 0.21333,-1.68 0.66667,-3.386667 0.29333,-1.066667 0.48,-1.813333 0.56,-2.186667 0.24,-0.986666 0.42666,-1.679999 0.48,-1.866666 0.08,-0.293333 0.13333,-0.533333 0.13333,-0.72 0,-0.213333 -0.13333,-0.346667 -0.32,-0.346667 -0.26667,0 -2.21333,1.04 -4.13333,2.24 l -0.18667,0.72 c 1.12,-0.56 1.62667,-0.773333 1.94667,-0.773333 0.21333,0 0.37333,0.213333 0.37333,0.506666 0,0.346667 -0.26667,1.493334 -0.74667,3.306667 -0.66666,2.48 -0.82666,3.226667 -0.82666,4 0,0.746667 0.32,1.306667 0.74666,1.306667 0.4,0 0.88,-0.24 2.21334,-1.12 l 2.74666,-1.786667 c -0.21333,0.853333 -0.37333,1.813333 -0.37333,2.293333 0,0.346667 0.21333,0.613334 0.48,0.613334 0.4,0 0.98667,-0.24 2.32,-1.12 l 2.74667,-1.786667 c -0.21334,0.853333 -0.37334,1.813333 -0.37334,2.293333 0,0.346667 0.21334,0.613334 0.48,0.613334 z" />
    <path
       id="path31"
       style=""
       d="m 297.2682,21.475003 c -2,1.733333 -3.28,2.48 -4.29334,2.48 -0.66666,0 -1.22666,-0.453334 -1.41333,-1.146667 -0.10667,-0.426667 -0.13333,-0.72 -0.13333,-1.493333 1.2,-0.746667 2,-1.306667 3.57333,-2.48 1.44,-1.093334 2,-1.973334 2,-3.173333 0,-0.933334 -0.58667,-1.493334 -1.52,-1.493334 -0.58667,0 -1.01333,0.133334 -1.62667,0.48 -1.01333,0.586667 -1.92,1.306667 -2.48,1.946667 -1.01333,1.226666 -1.92,4.16 -1.92,6.32 0,1.573333 0.82667,2.56 2.18667,2.56 1.57333,0 3.52,-1.12 5.62667,-3.226667 z m -5.76,-1.12 c 0.45333,-2.853334 1.68,-5.066667 2.82666,-5.066667 0.45334,0 0.74667,0.453334 0.74667,1.093333 0,1.333334 -0.72,2.133334 -3.57333,3.973334 z m 4.8,-8.266667 c 0.58666,-0.56 0.66666,-0.64 0.88,-0.8 l 0.85333,-0.666666 c -0.32,-0.506667 -0.42667,-0.6933337 -0.53333,-0.906667 -0.08,-0.16 -0.10667,-0.24 -0.37334,-0.9066667 -0.10666,0.08 -0.21333,0.16 -0.37333,0.2933334 -0.45333,0.3733333 -0.72,0.5866666 -0.82667,0.6666666 -0.18666,0.1333333 -0.32,0.2133333 -0.64,0.4533337 0.21334,0.613333 0.42667,1.04 1.01334,1.866666 z m -3.54667,0 0.88,-0.8 c 0.16,-0.106666 0.26667,-0.186666 0.85333,-0.666666 -0.29333,-0.506667 -0.4,-0.6933337 -0.50666,-0.906667 -0.08,-0.16 -0.10667,-0.24 -0.4,-0.9066667 -0.13334,0.1066667 -0.24,0.2133334 -0.37334,0.2933334 -0.69333,0.5866666 -0.77333,0.64 -1.46666,1.1200003 0.21333,0.613333 0.42666,0.986666 1.01333,1.866666 z" />
    <path
       id="path33"
       style=""
       d="m 309.94945,20.195003 c -0.13334,0.613333 -0.32,1.226666 -0.53334,1.76 -0.53333,1.413333 -1.22666,2.133333 -2,2.133333 -0.64,0 -0.98666,-0.506667 -1.12,-1.68 l -1.54666,0.906667 c -0.0267,0.133333 -0.0267,0.266666 -0.0267,0.293333 0,1.146667 0.58667,1.866667 1.52,1.866667 0.48,0 0.77333,-0.106667 1.73333,-0.746667 2,-1.253333 2.42667,-1.653333 3.01334,-2.746667 0.74666,-1.44 1.30666,-3.706666 1.30666,-5.36 0,-1.546666 -0.72,-2.453333 -1.94666,-2.453333 -1.28,0 -3.46667,1.066667 -5.89334,2.88 l -0.0533,0.853333 c 2.05333,-1.466666 3.46667,-2.213333 4.32,-2.213333 0.96,0 1.52,0.746667 1.52,2.026667 0,0.373333 -0.0267,0.773333 -0.08,1.2 -3.22667,2.373333 -1.41333,-1.413334 -4.72,0.666666 l -0.37333,0.906667 c 3.04,-1.493333 2.24,1.813333 4.88,-0.293333 z" />
    <path
       id="path35"
       style=""
       d="m 315.49195,24.675003 1.70666,-6.48 c 1.78667,-1.2 2.88,-1.84 3.22667,-1.84 0.21333,0 0.34667,0.24 0.34667,0.586666 0,0.8 -1.01334,4.853334 -2.13334,8.453334 l 2.02667,-0.72 1.65333,-6.666667 c 1.54667,-0.986667 2.98667,-1.786667 3.30667,-1.786667 0.21333,0 0.34667,0.186667 0.34667,0.506667 0,0.586667 -0.24,1.68 -0.96,4.533333 -0.42667,1.653334 -0.56,2.32 -0.56,2.933334 0,0.56 0.16,0.853333 0.64,1.2 1.57333,-0.773334 2.90666,-1.626667 4.53333,-2.906667 v -0.613333 c -0.26667,0.133333 -0.56,0.32 -0.90667,0.56 -0.96,0.613333 -1.41333,0.826666 -1.73333,0.826666 -0.29333,0 -0.48,-0.266666 -0.48,-0.72 0,-0.586666 0.34667,-2.106666 0.88,-3.973333 0.8,-2.746666 1.01333,-3.6 1.01333,-4 0,-0.266666 -0.16,-0.4 -0.42666,-0.4 -0.48,0 -2.13334,0.853334 -5.38667,2.773333 0.08,-0.293333 0.10667,-0.506666 0.13333,-0.613333 0.32,-1.333333 0.4,-1.706666 0.4,-1.866666 0,-0.186667 -0.13333,-0.293334 -0.34666,-0.293334 -0.4,0 -1.78667,0.746667 -4.45334,2.453333 l -0.85333,0.533334 c 0.48,-1.946667 0.58667,-2.426667 0.58667,-2.613333 0,-0.213334 -0.16,-0.373334 -0.4,-0.373334 -0.32,0 -2.42667,1.146667 -4.16,2.24 l -0.18667,0.746667 c 1.46667,-0.72 1.68,-0.8 1.97333,-0.8 0.24,0 0.4,0.213333 0.4,0.506666 0,0.426667 -0.96,4.373334 -2.08,8.533334 z" />
    <path
       id="path37"
       style=""
       d="m 329.84237,17.128336 c 1.12,-0.56 1.62666,-0.773333 1.94666,-0.773333 0.21334,0 0.37334,0.213333 0.37334,0.506666 0,0.346667 -0.26667,1.493334 -0.74667,3.306667 -0.66667,2.48 -0.82667,3.226667 -0.82667,4 0,0.746667 0.32,1.306667 0.74667,1.306667 0.4,0 0.88,-0.24 2.21333,-1.12 l 2.74667,-1.786667 c -0.21333,0.853333 -0.37333,1.813333 -0.37333,2.293333 0,0.346667 0.21333,0.613334 0.48,0.613334 0.53333,0 3.06666,-1.493334 4.88,-2.853334 l 0.18666,-0.8 c -2.08,1.226667 -2.77333,1.6 -3.06666,1.6 -0.18667,0 -0.29334,-0.213333 -0.29334,-0.64 0,-1.36 0.98667,-5.333333 2.13334,-8.719999 -0.34667,0.186666 -0.58667,0.32 -0.69334,0.373333 -0.32,0.16 -0.64,0.32 -0.98666,0.48 -0.08,0.02667 -0.24,0.106667 -0.53334,0.266667 -0.16,0.613333 -0.69333,2.746666 -1.57333,6.426666 -2.05333,1.413333 -2.98667,1.946667 -3.30667,1.946667 -0.29333,0 -0.50666,-0.373334 -0.50666,-0.88 0,-0.613334 0.21333,-1.68 0.66666,-3.386667 0.29334,-1.066667 0.48,-1.813333 0.56,-2.186667 0.24,-0.986666 0.42667,-1.679999 0.48,-1.866666 0.08,-0.293333 0.13334,-0.533333 0.13334,-0.72 0,-0.213333 -0.13334,-0.346667 -0.32,-0.346667 -0.26667,0 -2.21334,1.04 -4.13334,2.24 z" />
    <path
       id="path39"
       style=""
       d="m 342.69402,25.795003 c 0.0533,0.02667 0.10667,0.02667 0.13334,0.02667 0.0533,0.02667 0.10666,0.02667 0.10666,0.02667 0.0533,0 0.13334,-0.02667 0.21334,-0.05333 0.56,-2.346667 1.70666,-4.106667 3.65333,-5.68 0.32,4.133333 0.45333,5.146666 0.85333,6.373333 0.58667,1.786667 2.32,2.906667 4.53334,2.906667 1.49333,0 2.42666,-0.373334 3.30666,-1.28 l -1.04,-1.253334 c -0.72,1.28 -1.44,1.813334 -2.4,1.813334 -1.28,0 -2.16,-1.066667 -2.72,-3.28 -0.26666,-1.04 -0.48,-2.4 -1.06666,-6.586667 2.24,-2.08 3.14666,-2.72 3.86666,-2.72 0.29334,0 0.56,0.05333 1.12,0.293333 l 0.58667,-1.866666 c -0.4,-0.266667 -0.58667,-0.346667 -0.93333,-0.346667 -0.32,0 -0.56,0.05333 -1.01334,0.266667 -0.74666,0.666667 -0.88,0.8 -1.89333,1.786666 l -1.86667,1.786667 c -0.10666,-0.986667 -0.26666,-1.973333 -0.34666,-2.346666 -0.24,-1.093334 -0.61334,-1.493334 -1.46667,-1.493334 -0.82667,0 -1.6,0.453334 -3.44,2.053333 l -0.0533,0.72 c 1.6,-1.066666 1.73333,-1.119999 2.26666,-1.119999 0.88,0 1.2,0.693333 1.6,3.493333 l -0.98666,0.8 c -2.24,1.706666 -2.26667,1.706666 -2.77334,2.186666 -0.48,0.506667 -0.66666,0.88 -1.12,2.106667 z" />
    <path
       id="path41"
       style=""
       d="m 169.47737,58.248339 c 0,-1.626667 3.70666,-7.2 4.34666,-8.053334 l -0.93333,3.52 c 0,0 -0.82667,3.6 -0.8,3.973334 0,0.373333 0.10667,0.719999 0.4,1.199999 1.22667,-0.56 3.06667,-1.706666 4.93333,-3.093333 l 0.18667,-0.746666 c -2.66667,1.52 -2.77333,1.573333 -3.04,1.573333 -0.26667,0 -0.42667,-0.293333 -0.42667,-0.72 0,-1.36 1.14667,-5.12 2.29334,-8.506667 -0.34667,0.186667 -0.58667,0.32 -0.69334,0.373334 -0.32,0.16 -0.64,0.32 -0.98666,0.48 -0.08,0.02667 -0.53334,0.266666 -0.53334,0.266666 0,0 -3.6,3.44 -4.74666,7.04 0.50666,-3.813333 -0.61334,-6.906666 -1.28,-7.76 h -1.36 c -0.0533,1.493334 -1.70667,8.96 -1.89334,8.666667 -0.4,0.666667 -1.01333,0.933333 -2.16,0.933333 -0.45333,0 -0.45333,0 -1.97333,-0.08 l -1.01333,1.306667 h 1.14666 c 2.08,0 3.38667,-0.426667 4.37334,-1.44 0.72,-0.773333 0.96,-1.226667 1.30666,-2.8 0.16,-0.746667 0.69334,-3.333333 0.90667,-4.64 1.44,2.64 0.69333,6.48 0.69333,8.506667 z" />
    <path
       id="path43"
       style=""
       d="m 186.73445,52.141672 c -2.16,0 -4.08,-0.106667 -4.08,-1.306667 0,-2.453333 4.85333,-2.453333 4.85333,-2.453333 z m 2.93333,-5.04 c -4.93333,0 -9.14666,0.693333 -9.14666,3.813333 0,1.786667 2.02666,2.24 3.25333,2.24 -0.61333,0.32 -1.12,1.066667 -1.30667,1.84 l -0.66666,1.466667 c -0.4,0.666667 -0.53334,0.933333 -1.68,0.933333 -0.45334,0 -1.09334,-0.266666 -2,-0.693333 l -0.98667,1.92 h 1.14667 c 2.08,0 3.57333,-0.426667 4.56,-1.44 0.4,-0.453333 0.85333,-1.76 0.85333,-1.76 0.96,-1.893333 1.54667,-2.266667 2.85333,-2.266667 0,0 -0.85333,4.426667 -0.85333,4.106667 -0.13333,0.453333 -0.18667,0.853333 -0.13333,1.12 0.0267,0.24 0.37333,0.48 0.72,0.48 0.13333,0 0.29333,-0.02667 0.50666,-0.02667 0.24,-0.05333 1.78667,-0.24 2.42667,-0.32 l 1.25333,-0.106667 c 0.08,-0.02667 0.29334,-0.02667 0.61334,-0.08 l 0.48,-0.479999 c -0.45334,0.02667 -0.88,0.05333 -1.01334,0.05333 -0.42666,0.02667 -0.85333,0.05333 -1.06666,0.05333 -0.85334,0 -1.38667,-0.293333 -1.46667,-0.773333 -0.10667,-0.48 -0.08,-0.586667 0.26667,-2.586667 0.56,-3.306666 0.58666,-3.546666 0.88,-4.826666 z" />
    <path
       id="path45"
       style=""
       d="m 199.94487,55.048339 c -1.49334,1.36 -2.42667,2.266666 -4.18667,2.266666 -0.64,0 -1.6,0.106667 -1.6,-1.36 0,-2.72 5.17333,-2.186666 5.17333,-6.32 0,-1.76 -0.8,-2.053333 -1.70666,-2.053333 -1.12,0 -3.30667,1.68 -4.82667,2.773333 l 0.24,0.56 c 1.17333,-0.746666 2.93333,-1.893333 4.21333,-1.893333 0.4,0 0.74667,0.16 0.74667,0.72 0,1.626667 -1.84,2.16 -2.66667,2.666667 -1.54666,0.96 -3.04,1.946666 -3.04,3.706666 0,2.026667 0.98667,2.72 2.42667,2.693333 2.8,-0.02667 4.64,-2.399999 5.6,-3.253333 z" />
    <path
       id="path47"
       style=""
       d="m 202.50945,53.501672 -1.22667,5.253333 c 0.29334,-0.106667 0.56,-0.213333 0.64,-0.24 0.16,-0.05333 0.42667,-0.133333 0.72,-0.24 0.08,-0.02667 0.32,-0.106666 0.58667,-0.186666 l 1.04,-4.746667 0.61333,-0.373333 1.49334,3.466666 c 1.14666,2.72 1.84,3.813333 2.93333,4.666667 1.14667,0.88 2.8,1.44 4.21333,1.44 1.22667,0 2.10667,-0.266667 2.90667,-0.933334 l -0.53333,-1.92 c -0.85334,1.44 -1.62667,2 -2.74667,2 -1.14667,0 -2.29333,-0.906666 -3.2,-2.533333 -0.53333,-1.013333 -0.53333,-1.013333 -3.57333,-7.44 l 1.78666,-1.626666 c 1.04,-0.933334 1.36,-1.12 1.86667,-1.12 0.45333,0 0.77333,0.213333 1.2,0.773333 l 1.36,-2.026667 c -0.50667,-0.4 -0.90667,-0.533333 -1.49333,-0.533333 -0.69334,0 -1.17334,0.24 -1.97334,0.986667 -0.85333,0.8 -0.88,0.853333 -1.14666,1.093333 l -3.44,3.066667 0.90666,-3.76 c 0.08,-0.293334 0.13334,-0.533334 0.13334,-0.72 0,-0.213334 -0.13334,-0.346667 -0.32,-0.346667 -0.26667,0 -2.21334,1.04 -4.13334,2.24 l -0.18666,0.72 c 1.12,-0.56 1.62666,-0.773333 1.94666,-0.773333 0.21334,0 0.37334,0.213333 0.37334,0.506666 0,0.346667 -0.32,1.493334 -0.74667,3.306667 z" />
    <path
       id="path49"
       style=""
       d="m 213.74862,50.461672 c 1.12,-0.56 1.62666,-0.773333 1.94666,-0.773333 0.21334,0 0.37334,0.213333 0.37334,0.506666 0,0.346667 -0.26667,1.493334 -0.74667,3.306667 -0.66667,2.48 -0.82667,3.226667 -0.82667,4 0,0.746667 0.32,1.306666 0.74667,1.306666 0.4,0 0.88,-0.24 2.21333,-1.119999 l 2.74667,-1.786667 c -0.21333,0.853333 -0.37333,1.813333 -0.37333,2.293333 0,0.346667 0.21333,0.613333 0.48,0.613333 0.53333,0 3.06666,-1.493333 4.88,-2.853333 l 0.18666,-0.8 c -2.08,1.226667 -2.77333,1.6 -3.06666,1.6 -0.18667,0 -0.29334,-0.213333 -0.29334,-0.64 0,-1.36 0.98667,-5.333333 2.13334,-8.72 -0.34667,0.186667 -0.58667,0.32 -0.69334,0.373334 -0.32,0.16 -0.64,0.32 -0.98666,0.48 -0.08,0.02667 -0.24,0.106666 -0.53334,0.266666 -0.16,0.613334 -0.69333,2.746667 -1.57333,6.426667 -2.05333,1.413333 -2.98667,1.946667 -3.30667,1.946667 -0.29333,0 -0.50666,-0.373334 -0.50666,-0.88 0,-0.613334 0.21333,-1.68 0.66666,-3.386667 0.29334,-1.066667 0.48,-1.813333 0.56,-2.186667 0.24,-0.986666 0.42667,-1.68 0.48,-1.866666 0.08,-0.293334 0.13334,-0.533334 0.13334,-0.72 0,-0.213334 -0.13334,-0.346667 -0.32,-0.346667 -0.26667,0 -2.21334,1.04 -4.13334,2.24 z" />
    <path
       id="path51"
       style=""
       d="m 226.60028,59.128338 c 0.0533,0.02667 0.10667,0.02667 0.13333,0.02667 0.0533,0.02667 0.10667,0.02667 0.10667,0.02667 0.0533,0 0.13333,-0.02667 0.21333,-0.05333 0.56,-2.346666 1.70667,-4.106666 3.65334,-5.679999 0.32,4.133333 0.45333,5.146666 0.85333,6.373333 0.58667,1.786666 2.32,2.906666 4.53333,2.906666 1.49334,0 2.42667,-0.373333 3.30667,-1.28 l -1.04,-1.253333 c -0.72,1.28 -1.44,1.813333 -2.4,1.813333 -1.28,0 -2.16,-1.066666 -2.72,-3.28 -0.26667,-1.039999 -0.48,-2.399999 -1.06667,-6.586666 2.24,-2.08 3.14667,-2.72 3.86667,-2.72 0.29333,0 0.56,0.05333 1.12,0.293333 l 0.58667,-1.866666 c -0.4,-0.266667 -0.58667,-0.346667 -0.93334,-0.346667 -0.32,0 -0.56,0.05333 -1.01333,0.266667 -0.74667,0.666666 -0.88,0.8 -1.89333,1.786666 l -1.86667,1.786667 c -0.10667,-0.986667 -0.26667,-1.973333 -0.34667,-2.346667 -0.24,-1.093333 -0.61333,-1.493333 -1.46666,-1.493333 -0.82667,0 -1.6,0.453333 -3.44,2.053333 l -0.0533,0.72 c 1.6,-1.066666 1.73334,-1.12 2.26667,-1.12 0.88,0 1.2,0.693334 1.6,3.493334 l -0.98667,0.8 c -2.24,1.706666 -2.26666,1.706666 -2.77333,2.186666 -0.48,0.506667 -0.66667,0.88 -1.12,2.106667 z" />
    <path
       id="path53"
       style=""
       d="m 253.15028,50.275005 c 1.73334,-6.773333 2.58667,-8.559999 4.16,-8.559999 0.45334,0 0.8,0.05333 1.78667,0.213333 l 1.22667,-1.44 c -0.53334,-0.133333 -0.74667,-0.16 -1.28,-0.16 -1.6,0 -2.72,0.586667 -4.50667,2.32 -1.49333,1.44 -1.86667,2.64 -2.45333,4.986666 -0.53334,-0.106666 -0.82667,-0.133333 -1.28,-0.133333 -1.17334,0 -1.81334,0.24 -2.88,1.093333 -1.36,1.04 -1.86667,1.52 -2.21334,2 -0.93333,1.36 -1.78666,4.213334 -1.78666,5.946667 0,1.28 0.56,2.133333 1.44,2.133333 0.64,0 1.54666,-0.4 2.64,-1.2 l 2.18666,-1.573333 c -1.6,7.333333 -2.05333,7.466666 -4.32,7.466666 -0.37333,0 -0.69333,-0.02667 -1.41333,-0.133333 -0.26667,0.4 -0.34667,0.533333 -0.53333,0.773333 -0.21334,0.293334 -0.45334,0.586667 -0.66667,0.906667 0.58667,0.08 0.88,0.106667 1.30667,0.106667 0.88,0 1.57333,-0.133334 2,-0.373334 0.77333,-0.426666 2.13333,-1.733333 2.85333,-2.666666 0.82667,-1.12 1.57333,-2.453334 1.84,-3.44 0.53333,0.106666 0.82667,0.133333 1.28,0.133333 1.17333,0 1.81333,-0.24 2.88,-1.093333 1.36,-1.04 1.86667,-1.52 2.21333,-2 0.93334,-1.36 1.78667,-4.213333 1.78667,-5.946667 0,-1.28 -0.56,-2.133333 -1.44,-2.133333 -0.64,0 -1.54667,0.4 -2.64,1.2 z m -1.52,-0.8 c -0.37333,1.786667 -0.72,3.253334 -0.98666,4.4 -0.0267,0.133334 -0.10667,0.48 -0.21334,0.96 -2.21333,1.6 -3.01333,2.053334 -3.70666,2.053334 -0.53334,0 -0.88,-0.586667 -0.88,-1.466667 0,-1.2 0.37333,-2.693333 1.04,-4.16 0.72,-1.573333 1.62666,-2.373333 2.72,-2.373333 0.66666,0 1.38666,0.213333 2.02666,0.586666 z m 0.08,7.226667 c 0.37334,-1.786667 0.72,-3.253333 0.98667,-4.4 0.0267,-0.133333 0.10667,-0.48 0.21333,-0.96 2.21334,-1.6 3.01334,-2.053333 3.70667,-2.053333 0.53333,0 0.88,0.586666 0.88,1.466666 0,1.2 -0.37333,2.693334 -1.04,4.16 -0.72,1.573334 -1.62667,2.373334 -2.72,2.373334 -0.66667,0 -1.38667,-0.213334 -2.02667,-0.586667 z" />
    <path
       id="path55"
       style=""
       d="m 259.80487,64.141672 -0.8,0.853333 c 0.77333,0.02667 3.73333,0.08 4.53333,0.08 0.21333,0 0.58667,0 1.25333,-0.02667 l 0.82667,-0.666666 -2.98667,-0.16 1.28,-5.68 c 0.53334,0.106666 0.82667,0.133333 1.28,0.133333 1.17334,0 1.81334,-0.24 2.88,-1.093333 1.36,-1.04 1.86667,-1.52 2.21334,-2 0.93333,-1.36 1.78666,-4.213333 1.78666,-5.946667 0,-1.28 -0.56,-2.133333 -1.44,-2.133333 -0.64,0 -1.54666,0.4 -2.64,1.2 l -2.18666,1.573333 c 0.08,-0.293333 0.13333,-0.586666 0.18666,-0.746666 0.24,-1.013334 0.37334,-1.573334 0.37334,-1.68 0,-0.16 -0.18667,-0.346667 -0.37334,-0.346667 -0.26666,0 -2.42666,1.146667 -4.4,2.32 l -0.16,0.693333 c 0.34667,-0.133333 0.66667,-0.266666 0.77334,-0.32 0.77333,-0.346666 0.93333,-0.4 1.14666,-0.4 0.32,0 0.50667,0.266667 0.50667,0.746667 0,0.96 -1.6,7.893333 -3.09333,13.546666 z m 4.56,-7.44 c 0.37333,-1.786667 0.72,-3.253333 0.98666,-4.4 0.0267,-0.133333 0.10667,-0.48 0.21334,-0.96 2.21333,-1.6 3.01333,-2.053333 3.70666,-2.053333 0.53334,0 0.88,0.586666 0.88,1.466666 0,1.2 -0.37333,2.693334 -1.04,4.16 -0.72,1.573334 -1.62666,2.373334 -2.72,2.373334 -0.66666,0 -1.38666,-0.213334 -2.02666,-0.586667 z" />
    <path
       id="path57"
       style=""
       d="m 284.05695,54.995005 c -2,1.333334 -2.4,1.573334 -2.66667,1.573334 -0.18666,0 -0.32,-0.213334 -0.32,-0.533334 0,-0.693333 0.64,-3.626666 1.6,-7.173333 0.29334,-0.4 0.34667,-0.48 0.77334,-0.96 -1.28,-0.293333 -2.21334,-0.4 -3.36,-0.4 -1.09334,0 -1.6,0.106667 -2.29334,0.533333 -0.96,0.56 -2.08,1.386667 -2.42666,1.76 -0.98667,1.12 -2.10667,4.72 -2.10667,6.88 0,1.28 0.42667,2.133333 1.09333,2.133333 0.58667,0 1.46667,-0.533333 4.8,-2.933333 -0.26666,1.226667 -0.4,2.053334 -0.4,2.373334 0,0.346666 0.16,0.559999 0.42667,0.559999 0.32,0 0.32,0 2.45333,-1.359999 0.77334,-0.506667 1.38667,-0.933334 2.4,-1.68 z m -5.2,0.16 c -1.57333,1.146667 -2.37333,1.6 -2.85333,1.6 -0.42667,0 -0.69334,-0.48 -0.69334,-1.333333 0,-1.333333 0.42667,-3.146667 1.09334,-4.666667 0.64,-1.466666 1.22666,-2.026666 2.13333,-2.026666 0.48,0 1.30667,0.133333 2.26667,0.346666 -0.53334,2.026667 -0.72,2.64 -0.74667,2.773334 -0.16,0.666666 -0.29333,1.333333 -0.45333,2.026666 -0.0267,0.133334 -0.10667,0.453334 -0.24,0.933334 z" />
    <path
       id="path59"
       style=""
       d="m 287.57486,53.715005 c 1.22667,0.24 2.48,0.24 3.70667,0 0,0 -0.82667,3.6 -0.8,3.973334 0,0.373333 0.10667,0.719999 0.4,1.199999 1.22667,-0.56 3.06667,-1.706666 4.93333,-3.093333 l 0.18667,-0.746666 c -2.66667,1.52 -2.77333,1.573333 -3.04,1.573333 -0.26667,0 -0.42667,-0.293333 -0.42667,-0.72 0,-1.36 1.14667,-5.12 2.29334,-8.506667 -0.34667,0.186667 -0.58667,0.32 -0.69334,0.373334 -0.32,0.16 -0.64,0.32 -0.98666,0.48 -0.08,0.02667 -0.24,0.106666 -0.53334,0.266666 l -1.04,4.08 c -1.25333,0.213334 -2.48,0.293334 -3.73333,0 0,0 0.88,-3.386666 1.14667,-4.746666 0,-0.186667 -0.16,-0.346667 -0.34667,-0.346667 -0.29333,0 -2.21333,0.986667 -4.18667,2.16 l -0.16,0.693333 c 1.70667,-0.773333 1.81334,-0.8 2.05334,-0.8 0.18666,0 0.32,0.16 0.32,0.373334 0,0.56 -0.50667,2.773333 -1.17334,5.2 l -0.61333,2.16 c -0.0533,0.186666 -0.18667,0.693333 -0.37333,1.439999 l 2,-0.773333 z" />
    <path
       id="path61"
       style=""
       d="m 306.24903,57.688339 c 0.34667,-0.186667 0.53334,0.05333 0.50667,0.293333 -0.13333,0.853333 -0.85333,1.653333 -1.89333,1.973333 -1.25334,0.373333 -1.89334,-0.88 -3.2,-0.693333 -1.17334,0.186666 -1.65334,0.746666 -2.56,1.44 l 0.85333,0.64 c 0.56,-0.346667 0.90667,-0.48 1.54667,-0.533334 1.46666,-0.106666 2.21333,1.146667 3.62666,0.693334 1.01334,-0.346667 1.46667,-0.986667 1.81334,-1.973334 0.34666,-1.013333 0.24,-2.453333 0.53333,-2.639999 0.45333,-0.32 0.90667,-0.613334 1.30667,-0.933334 l 0.18666,-0.8 c -2.08,1.226667 -2.77333,1.6 -3.06666,1.6 -0.18667,0 -0.29334,-0.213333 -0.29334,-0.64 0,-1.36 0.98667,-5.333333 2.13334,-8.72 -0.34667,0.186667 -0.58667,0.32 -0.69334,0.373334 -0.32,0.16 -0.64,0.32 -0.98666,0.48 -0.08,0.02667 -0.24,0.106666 -0.53334,0.266666 -0.16,0.613334 -0.69333,2.746667 -1.57333,6.426667 -2.05333,1.413333 -2.98667,1.946667 -3.30667,1.946667 -0.29333,0 -0.50666,-0.373334 -0.50666,-0.88 0,-0.613334 0.21333,-1.68 0.66666,-3.386667 0.29334,-1.066667 0.48,-1.813333 0.56,-2.186667 0.24,-0.986666 0.42667,-1.68 0.48,-1.866666 0.08,-0.293334 0.13334,-0.533334 0.13334,-0.72 0,-0.213334 -0.13334,-0.346667 -0.32,-0.346667 -0.26667,0 -2.21334,1.04 -4.13334,2.24 l -0.18666,0.72 c 1.12,-0.56 1.62666,-0.773333 1.94666,-0.773333 0.21334,0 0.37334,0.213333 0.37334,0.506666 0,0.346667 -0.26667,1.493334 -0.74667,3.306667 -0.66667,2.48 -0.82667,3.226667 -0.82667,4 0,0.746667 0.32,1.306666 0.74667,1.306666 0.4,0 0.88,-0.24 2.21333,-1.119999 l 2.74667,-1.786667 c -0.21333,0.853333 -0.37333,1.813333 -0.37333,2.293333 0,0.346667 0.21333,0.613333 0.48,0.613333 0.24,0 1.57333,-0.666666 2.34666,-1.119999 z" />
    <path
       id="path63"
       style=""
       d="m 307.74069,64.888338 c 0.82667,0.106667 2,0.186667 2.93333,0.186667 1.86667,0 2.93334,-0.506667 4.45334,-2.133333 1.54666,-1.653334 1.65333,-1.946667 2.58666,-6.293333 0.93334,-4.293334 1.44,-6.293334 2.34667,-9.253334 -0.34667,0.186667 -0.64,0.346667 -0.74667,0.4 l -0.93333,0.453334 c -0.13333,0.08 -0.34667,0.16 -0.58667,0.293333 l -1.62666,6.48 c -2.66667,1.653333 -2.8,1.733333 -3.25334,1.733333 -0.34666,0 -0.58666,-0.373333 -0.58666,-0.853333 0,-0.586667 0.24,-1.813333 0.74666,-3.706667 0.66667,-2.64 1.04,-4.133333 1.04,-4.373333 0,-0.186667 -0.13333,-0.32 -0.29333,-0.32 -0.29333,0 -2,0.906667 -4.24,2.24 l -0.08,0.72 c 1.25333,-0.64 1.54667,-0.773333 1.84,-0.773333 0.26667,0 0.4,0.16 0.4,0.4 0,0.48 -0.18667,1.28 -0.82667,3.626666 -0.64,2.32 -0.77333,2.906667 -0.77333,3.6 0,0.853334 0.4,1.493333 0.93333,1.493333 0.50667,0 2.64,-1.279999 5.01334,-2.986666 -1.01334,4.88 -1.01334,4.88 -1.33334,5.866666 -0.42666,1.36 -1.28,1.866667 -3.01333,1.866667 -0.77333,0 -1.36,-0.106667 -2.93333,-0.48 z" />
    <path
       id="path65"
       style=""
       d="m 328.68445,49.821672 c 0,-1.546667 -0.72,-2.32 -1.94667,-2.32 -1.28,0 -3.46666,0.933333 -5.89333,2.746667 l -0.0533,0.853333 c 2.05333,-1.466667 3.46666,-2.08 4.32,-2.08 0.96,0 1.52,0.373333 1.52,1.653333 0,0.693334 -0.29334,1.573334 -1.92,1.573334 h -0.77334 l -0.42666,0.986666 h 1.2 c 1.09333,0 1.36,0.72 1.36,1.546667 0,1.786667 -1.17334,2.906667 -2.37334,2.906667 -0.58666,0 -1.04,-0.32 -1.30666,-0.906667 -0.18667,-0.4 -0.24,-0.8 -0.26667,-1.706667 -0.29333,0.213334 -0.50667,0.346667 -0.61333,0.426667 -0.21334,0.133333 -0.45334,0.266667 -0.69334,0.426667 l -0.48,0.32 c -0.0267,0.24 -0.0533,0.453333 -0.0533,0.613333 0,1.146667 0.8,1.946666 1.97333,1.946666 0.82667,0 1.97334,-0.346666 2.82667,-0.826666 1.57333,-0.906667 2.98667,-1.68 2.98667,-2.8 0,-0.986667 -0.29334,-2.24 -1.22667,-2.48 0.34667,-0.24 1.84,-0.453333 1.84,-2.88 z" />
    <path
       id="path67"
       style=""
       d="m 337.03569,55.075005 c -2.05333,1.466667 -3.46667,2.213334 -4.32,2.213334 -0.96,0 -1.52,-0.746667 -1.52,-2.026667 0,-1.28 0.32,-2.986667 0.82667,-4.24 0.53333,-1.413333 1.22666,-2.133333 2,-2.133333 0.64,0 0.98666,0.506666 1.12,1.68 l 1.54666,-0.906667 c 0.0267,-0.133333 0.0267,-0.266667 0.0267,-0.293333 0,-1.146667 -0.58667,-1.866667 -1.52,-1.866667 -0.48,0 -0.77333,0.106667 -1.73333,0.746667 -2,1.253333 -2.42667,1.653333 -3.01334,2.746666 -0.74666,1.44 -1.30666,3.706667 -1.30666,5.36 0,1.546667 0.72,2.453333 1.94666,2.453333 1.28,0 3.46667,-1.066666 5.89334,-2.879999 z" />
    <path
       id="path69"
       style=""
       d="m 339.64486,53.501672 -1.22667,5.253333 c 0.29333,-0.106667 0.56,-0.213333 0.64,-0.24 0.16,-0.05333 0.42667,-0.133333 0.72,-0.24 0.08,-0.02667 0.32,-0.106666 0.58667,-0.186666 l 1.04,-4.746667 0.61333,-0.373333 1.49333,3.466666 c 1.14667,2.72 1.84,3.813333 2.93334,4.666667 1.14666,0.88 2.8,1.44 4.21333,1.44 1.22667,0 2.10667,-0.266667 2.90667,-0.933334 l -0.53334,-1.92 c -0.85333,1.44 -1.62666,2 -2.74666,2 -1.14667,0 -2.29334,-0.906666 -3.2,-2.533333 -0.53334,-1.013333 -0.53334,-1.013333 -3.57334,-7.44 l 1.78667,-1.626666 c 1.04,-0.933334 1.36,-1.12 1.86667,-1.12 0.45333,0 0.77333,0.213333 1.2,0.773333 l 1.36,-2.026667 c -0.50667,-0.4 -0.90667,-0.533333 -1.49334,-0.533333 -0.69333,0 -1.17333,0.24 -1.97333,0.986667 -0.85333,0.8 -0.88,0.853333 -1.14667,1.093333 l -3.44,3.066667 0.90667,-3.76 c 0.08,-0.293334 0.13333,-0.533334 0.13333,-0.72 0,-0.213334 -0.13333,-0.346667 -0.32,-0.346667 -0.26666,0 -2.21333,1.04 -4.13333,2.24 l -0.18667,0.72 c 1.12,-0.56 1.62667,-0.773333 1.94667,-0.773333 0.21333,0 0.37333,0.213333 0.37333,0.506666 0,0.346667 -0.32,1.493334 -0.74666,3.306667 z" />
    <path
       id="path71"
       style=""
       d="m 350.88402,50.461672 c 1.12,-0.56 1.62667,-0.773333 1.94667,-0.773333 0.21333,0 0.37333,0.213333 0.37333,0.506666 0,0.346667 -0.26666,1.493334 -0.74666,3.306667 -0.66667,2.48 -0.82667,3.226667 -0.82667,4 0,0.746667 0.32,1.306666 0.74667,1.306666 0.4,0 0.88,-0.24 2.21333,-1.119999 l 2.74667,-1.786667 c -0.21334,0.853333 -0.37334,1.813333 -0.37334,2.293333 0,0.346667 0.21334,0.613333 0.48,0.613333 0.53334,0 3.06667,-1.493333 4.88,-2.853333 l 0.18667,-0.8 c -2.08,1.226667 -2.77333,1.6 -3.06667,1.6 -0.18666,0 -0.29333,-0.213333 -0.29333,-0.64 0,-1.36 0.98667,-5.333333 2.13333,-8.72 -0.34666,0.186667 -0.58666,0.32 -0.69333,0.373334 -0.32,0.16 -0.64,0.32 -0.98667,0.48 -0.08,0.02667 -0.24,0.106666 -0.53333,0.266666 -0.16,0.613334 -0.69333,2.746667 -1.57333,6.426667 -2.05334,1.413333 -2.98667,1.946667 -3.30667,1.946667 -0.29333,0 -0.50667,-0.373334 -0.50667,-0.88 0,-0.613334 0.21334,-1.68 0.66667,-3.386667 0.29333,-1.066667 0.48,-1.813333 0.56,-2.186667 0.24,-0.986666 0.42667,-1.68 0.48,-1.866666 0.08,-0.293334 0.13333,-0.533334 0.13333,-0.72 0,-0.213334 -0.13333,-0.346667 -0.32,-0.346667 -0.26666,0 -2.21333,1.04 -4.13333,2.24 z" />
    <path
       id="path73"
       style=""
       d="m 363.7357,59.128338 c 0.0533,0.02667 0.10666,0.02667 0.13333,0.02667 0.0533,0.02667 0.10667,0.02667 0.10667,0.02667 0.0533,0 0.13333,-0.02667 0.21333,-0.05333 0.56,-2.346666 1.70667,-4.106666 3.65333,-5.679999 0.32,4.133333 0.45334,5.146666 0.85334,6.373333 0.58666,1.786666 2.32,2.906666 4.53333,2.906666 1.49333,0 2.42667,-0.373333 3.30667,-1.28 l -1.04,-1.253333 c -0.72,1.28 -1.44,1.813333 -2.4,1.813333 -1.28,0 -2.16,-1.066666 -2.72,-3.28 -0.26667,-1.039999 -0.48,-2.399999 -1.06667,-6.586666 2.24,-2.08 3.14667,-2.72 3.86667,-2.72 0.29333,0 0.56,0.05333 1.12,0.293333 l 0.58666,-1.866666 c -0.4,-0.266667 -0.58666,-0.346667 -0.93333,-0.346667 -0.32,0 -0.56,0.05333 -1.01333,0.266667 -0.74667,0.666666 -0.88,0.8 -1.89334,1.786666 l -1.86666,1.786667 c -0.10667,-0.986667 -0.26667,-1.973333 -0.34667,-2.346667 -0.24,-1.093333 -0.61333,-1.493333 -1.46667,-1.493333 -0.82666,0 -1.6,0.453333 -3.44,2.053333 l -0.0533,0.72 c 1.6,-1.066666 1.73333,-1.12 2.26667,-1.12 0.88,0 1.2,0.693334 1.6,3.493334 l -0.98667,0.8 c -2.24,1.706666 -2.26667,1.706666 -2.77333,2.186666 -0.48,0.506667 -0.66667,0.88 -1.12,2.106667 z" />
    <path
       id="path75"
       style=""
       d="m 165.1307,82.515008 c 0.0533,-0.213333 0.42667,-5.973333 5.65333,-5.973333 1.01334,0 1.70667,-0.05333 2.50667,-0.48 l 0.58667,-2.613334 c -1.70667,1.386667 -2.24,1.866667 -4,1.866667 -6.18667,0 -8.02667,11.52 -8.02667,14.16 0,1.626666 0.90667,2.666666 2.32,2.666666 0.74667,0 1.49333,-0.266666 2.72,-0.906666 1.33333,-0.746667 2.21333,-1.413334 2.69333,-2.053334 1.06667,-1.44 1.92,-4.053333 1.92,-5.893333 0,-1.44 -0.98666,-2.453333 -2.4,-2.453333 -0.53333,0 -2.53333,0.506667 -3.97333,1.68 z m 2.58667,-0.426667 c 1.06666,0 1.73333,1.04 1.73333,2.64 0,1.12 -0.37333,2.506667 -1.04,3.813333 -0.74667,1.52 -1.70667,2.346667 -2.72,2.346667 -1.09333,0 -1.78667,-0.986667 -1.78667,-2.506667 0,-3.093333 1.94667,-6.293333 3.81334,-6.293333 z" />
    <path
       id="path77"
       style=""
       d="m 171.4907,98.221674 c 0.82667,0.106667 2,0.186667 2.93333,0.186667 1.86667,0 2.93334,-0.506667 4.45334,-2.133333 1.54666,-1.653334 1.65333,-1.946667 2.58666,-6.293334 0.93334,-4.293333 1.44,-6.293333 2.34667,-9.253333 -0.34667,0.186667 -0.64,0.346667 -0.74667,0.4 l -0.93333,0.453334 c -0.13333,0.08 -0.34667,0.16 -0.58667,0.293333 l -1.62666,6.48 c -2.66667,1.653333 -2.8,1.733333 -3.25334,1.733333 -0.34666,0 -0.58666,-0.373333 -0.58666,-0.853333 0,-0.586667 0.24,-1.813334 0.74666,-3.706667 0.66667,-2.64 1.04,-4.133333 1.04,-4.373333 0,-0.186667 -0.13333,-0.32 -0.29333,-0.32 -0.29333,0 -2,0.906667 -4.24,2.24 l -0.08,0.72 c 1.25333,-0.64 1.54667,-0.773333 1.84,-0.773333 0.26667,0 0.4,0.16 0.4,0.4 0,0.48 -0.18667,1.28 -0.82667,3.626666 -0.64,2.32 -0.77333,2.906667 -0.77333,3.6 0,0.853333 0.4,1.493333 0.93333,1.493333 0.50667,0 2.64,-1.28 5.01334,-2.986666 -1.01334,4.88 -1.01334,4.88 -1.33334,5.866666 -0.42666,1.36 -1.28,1.866667 -3.01333,1.866667 -0.77333,0 -1.36,-0.106667 -2.93333,-0.48 z" />
    <path
       id="path79"
       style=""
       d="m 193.28778,81.848341 c -0.16,0.613334 -0.85333,3.413334 -1.73333,7.093333 -0.21333,0.853334 -0.37333,1.813334 -0.37333,2.293334 0,0.346666 0.21333,0.613333 0.48,0.613333 0.53333,0 3.06666,-1.493333 4.88,-2.853333 l 0.18666,-0.8 c -2.08,1.226666 -2.77333,1.6 -3.06666,1.6 -0.18667,0 -0.29334,-0.213334 -0.29334,-0.64 0,-1.36 0.98667,-5.04 2.13334,-8.426667 -3.04,0 -4.74667,0.32 -5.41334,2.08 0,0 -2.58666,7.226667 -2.72,6.986667 -0.4,0.666666 -1.01333,0.933333 -2.16,0.933333 -0.45333,0 -0.45333,0 -1.97333,-0.08 l -1.01333,1.306667 h 1.14666 c 2.08,0 3.38667,-0.426667 4.37334,-1.44 0.42666,-0.293334 0.82666,-0.8 1.09333,-1.546667 l 1.54667,-4.213333 c 0.69333,-1.946667 0.8,-2.773333 2.90666,-2.906667 z" />
    <path
       id="path81"
       style=""
       d="m 204.72903,80.835008 c -1.06666,0 -2.77333,0.773333 -4.34666,1.946667 -1.70667,1.28 -2.90667,4.053333 -2.90667,6.693333 0,1.626666 0.90667,2.666666 2.32,2.666666 0.74667,0 1.49333,-0.266666 2.72,-0.906666 1.33333,-0.746667 2.21333,-1.413334 2.69333,-2.053334 1.06667,-1.44 1.92,-4.053333 1.92,-5.893333 0,-1.44 -0.98666,-2.453333 -2.4,-2.453333 z m -1.38666,1.253333 c 1.06666,0 1.73333,1.04 1.73333,2.64 0,1.12 -0.37333,2.506667 -1.04,3.813333 -0.74667,1.52 -1.70667,2.346667 -2.72,2.346667 -1.09333,0 -1.78667,-0.986667 -1.78667,-2.506667 0,-3.093333 1.94667,-6.293333 3.81334,-6.293333 z" />
    <path
       id="path83"
       style=""
       d="m 209.59278,86.835008 -1.22666,5.253333 c 0.29333,-0.106667 0.56,-0.213333 0.64,-0.24 0.16,-0.05333 0.42666,-0.133333 0.72,-0.24 0.08,-0.02667 0.32,-0.106667 0.58666,-0.186667 l 1.04,-4.746666 0.61334,-0.373333 1.49333,3.466666 c 1.14667,2.72 1.84,3.813333 2.93333,4.666667 1.14667,0.88 2.8,1.44 4.21334,1.44 1.22666,0 2.10666,-0.266667 2.90666,-0.933334 l -0.53333,-1.92 c -0.85333,1.44 -1.62667,2 -2.74667,2 -1.14666,0 -2.29333,-0.906666 -3.2,-2.533333 -0.53333,-1.013333 -0.53333,-1.013333 -3.57333,-7.44 l 1.78667,-1.626666 c 1.04,-0.933334 1.36,-1.12 1.86666,-1.12 0.45334,0 0.77334,0.213333 1.2,0.773333 l 1.36,-2.026667 c -0.50666,-0.4 -0.90666,-0.533333 -1.49333,-0.533333 -0.69333,0 -1.17333,0.24 -1.97333,0.986667 -0.85334,0.8 -0.88,0.853333 -1.14667,1.093333 l -3.44,3.066667 0.90667,-3.76 c 0.08,-0.293334 0.13333,-0.533334 0.13333,-0.72 0,-0.213334 -0.13333,-0.346667 -0.32,-0.346667 -0.26667,0 -2.21333,1.04 -4.13333,2.24 l -0.18667,0.72 c 1.12,-0.56 1.62667,-0.773333 1.94667,-0.773333 0.21333,0 0.37333,0.213333 0.37333,0.506666 0,0.346667 -0.32,1.493334 -0.74667,3.306667 z" />
    <path
       id="path85"
       style=""
       d="m 235.35737,81.981675 c -0.16,-0.96 -0.85334,-1.146667 -1.25334,-1.146667 -1.06666,0 -2.77333,0.773333 -4.34666,1.946667 -1.70667,1.28 -2.90667,4.053333 -2.90667,6.693333 0,1.626666 0.90667,2.666666 2.32,2.666666 0.74667,0 1.49333,-0.266666 2.72,-0.906666 1.33333,-0.746667 2.21333,-1.413334 2.69333,-2.053334 1.33334,-1.946666 2.45334,-4.959999 2.45334,-8.479999 0,-3.946667 -1.09334,-6.986667 -4.96,-6.986667 -1.84,0 -3.28,0.8 -4.21334,1.893333 l 0.93334,1.573334 c 0.21333,-0.693334 1.54666,-2.32 3.06666,-2.32 4.72,0 3.49334,7.12 3.49334,7.12 z m -2.64,0.106666 c 1.06666,0 1.73333,1.04 1.73333,2.64 0,1.12 -0.37333,2.506667 -1.04,3.813333 -0.74667,1.52 -1.70667,2.346667 -2.72,2.346667 -1.09333,0 -1.78667,-0.986667 -1.78667,-2.506667 0,-3.093333 1.94667,-6.293333 3.81334,-6.293333 z" />
    <path
       id="path87"
       style=""
       d="m 248.53611,88.328341 c -2,1.333333 -2.4,1.573333 -2.66666,1.573333 -0.18667,0 -0.32,-0.213333 -0.32,-0.533333 0,-0.693333 0.64,-3.626666 1.6,-7.173333 0.29333,-0.4 0.34666,-0.48 0.77333,-0.96 -1.28,-0.293333 -2.21333,-0.4 -3.36,-0.4 -1.09333,0 -1.6,0.106667 -2.29333,0.533333 -0.96,0.56 -2.08,1.386667 -2.42667,1.76 -0.98667,1.12 -2.10667,4.72 -2.10667,6.88 0,1.28 0.42667,2.133333 1.09334,2.133333 0.58666,0 1.46666,-0.533333 4.8,-2.933333 -0.26667,1.226667 -0.4,2.053333 -0.4,2.373333 0,0.346667 0.16,0.56 0.42666,0.56 0.32,0 0.32,0 2.45334,-1.36 0.77333,-0.506666 1.38666,-0.933333 2.4,-1.68 z m -5.2,0.16 c -1.57333,1.146667 -2.37333,1.6 -2.85333,1.6 -0.42667,0 -0.69333,-0.48 -0.69333,-1.333333 0,-1.333334 0.42666,-3.146667 1.09333,-4.666667 0.64,-1.466666 1.22667,-2.026666 2.13333,-2.026666 0.48,0 1.30667,0.133333 2.26667,0.346666 -0.53333,2.026667 -0.72,2.64 -0.74667,2.773334 -0.16,0.666666 -0.29333,1.333333 -0.45333,2.026666 -0.0267,0.133333 -0.10667,0.453333 -0.24,0.933333 z" />
    <path
       id="path89"
       style=""
       d="m 262.33945,81.048341 c 1.44,-0.96 2.50667,-2.746666 2.50667,-4.08 0,-0.933333 -0.58667,-1.653333 -2,-1.653333 -6.18667,0 -8.02667,11.52 -8.02667,14.16 0,1.626666 0.90667,2.666666 2.32,2.666666 0.74667,0 1.49333,-0.266666 2.72,-0.906666 1.33333,-0.746667 2.21333,-1.413334 2.69333,-2.053334 1.06667,-1.44 1.92,-4.053333 1.92,-5.893333 0,-0.96 -0.29333,-2.213333 -2.13333,-2.24 z m -4.82667,1.226667 c 0.0533,-0.213333 1.28,-5.813333 4.88,-5.813333 0.64,0 1.17334,0.453333 1.17334,1.013333 0,1.52 -2.42667,3.093333 -6.05334,4.8 z m 3.17334,-0.186667 c 1.06666,0 1.73333,1.04 1.73333,2.64 0,1.12 -0.37333,2.506667 -1.04,3.813333 -0.74667,1.52 -1.70667,2.346667 -2.72,2.346667 -1.09333,0 -1.78667,-0.986667 -1.78667,-2.506667 0,-3.093333 1.94667,-6.293333 3.81334,-6.293333 z" />
    <path
       id="path91"
       style=""
       d="m 279.81153,88.701674 c -2.53333,1.36 -2.58667,1.386667 -2.93333,1.386667 -0.29334,0 -0.48,-0.293333 -0.48,-0.746667 0,-0.266666 0.08,-0.773333 0.24,-1.36 1.36,-5.599999 1.62666,-6.666666 1.62666,-6.879999 0,-0.16 -0.13333,-0.266667 -0.32,-0.266667 -0.45333,0 -2.02666,0.88 -4.21333,2.346667 l -0.0533,0.746666 c 1.57333,-0.853333 1.70666,-0.906666 1.94666,-0.906666 0.21334,0 0.32,0.16 0.32,0.48 0,0.346666 -0.08,0.72 -0.48,2.24 -1.25333,4.666666 -1.25333,4.666666 -1.25333,5.333333 0,0.64 0.26667,1.066666 0.64,1.066666 0.45333,0 1.17333,-0.346666 2.58667,-1.253333 0.50666,-0.32 1.01333,-0.64 1.52,-0.986667 0.24,-0.133333 0.48,-0.293333 0.74666,-0.453333 z m -10.90667,-2.399999 c 1.01334,-4.133334 1.22667,-5.013334 1.22667,-5.2 0,-0.16 -0.13333,-0.266667 -0.32,-0.266667 -0.45333,0 -2.02667,0.88 -4.21333,2.346667 l -0.0533,0.746666 c 1.57334,-0.853333 1.70667,-0.906666 1.94667,-0.906666 0.21333,0 0.32,0.16 0.32,0.48 0,0.346666 -0.08,0.72 -0.48,2.24 -1.25333,4.666666 -1.25333,4.666666 -1.25333,5.333333 0.24,1.413333 1.65333,1.2 2.93333,1.2 2.16,0 4.93333,-2.933334 4.93333,-4.053334 0,-2.533333 -0.88,-3.093333 -2.90666,-3.066666 -0.48,0 -1.46667,0.453333 -2.13334,1.146667 z m -0.32,1.333333 c 0.53334,-0.586667 1.70667,-1.066667 2.02667,-1.066667 1.49333,-0.02667 1.54667,0.933333 1.54667,1.76 0.0267,2.293333 -1.54667,2.826667 -2.85334,2.826667 -1.12,0 -1.04,-1.36 -1.04,-1.813334 0,-0.266666 0.08,-0.773333 0.24,-1.36 z" />
    <path
       id="path93"
       style=""
       d="m 282.28945,91.288341 1.57333,-6.266666 c 3.33333,-2.106667 3.41333,-2.133334 3.78667,-2.133334 0.18666,0 0.29333,0.133334 0.29333,0.346667 0,0.4 -0.21333,1.413333 -0.98667,4.453333 -0.58666,2.373333 -0.69333,2.826667 -0.69333,3.333333 0,0.373334 0.10667,0.72 0.4,1.2 1.22667,-0.56 3.06667,-1.706666 4.93333,-3.093333 l 0.18667,-0.746667 c -2.66667,1.52 -2.77333,1.573334 -3.04,1.573334 -0.26667,0 -0.42667,-0.293334 -0.42667,-0.72 0,-0.56 0.18667,-1.44 0.69334,-3.28 1.25333,-4.48 1.25333,-4.48 1.25333,-4.666667 0,-0.293333 -0.18667,-0.453333 -0.53333,-0.453333 -0.4,0 -0.98667,0.24 -1.94667,0.853333 l -3.65333,2.266667 c 0.24,-0.88 0.64,-2.56 0.64,-2.773333 0,-0.186667 -0.16,-0.346667 -0.34667,-0.346667 -0.29333,0 -2.21333,0.986667 -4.18667,2.16 l -0.16,0.693333 c 1.70667,-0.773333 1.81334,-0.8 2.05334,-0.8 0.18666,0 0.32,0.16 0.32,0.373334 0,0.56 -0.50667,2.773333 -1.17334,5.199999 l -0.61333,2.16 c -0.0533,0.186667 -0.18667,0.693334 -0.37333,1.44 z" />
    <path
       id="path95"
       style=""
       d="m 300.34111,88.141674 c -2,1.733334 -3.28,2.48 -4.29333,2.48 -0.66667,0 -1.22667,-0.453333 -1.41333,-1.146666 -0.10667,-0.426667 -0.13334,-0.72 -0.13334,-1.493334 1.2,-0.746666 2,-1.306666 3.57334,-2.479999 1.44,-1.093334 2,-1.973334 2,-3.173334 0,-0.933333 -0.58667,-1.493333 -1.52,-1.493333 -0.58667,0 -1.01334,0.133333 -1.62667,0.48 -1.01333,0.586667 -1.92,1.306667 -2.48,1.946667 -1.01333,1.226666 -1.92,4.159999 -1.92,6.319999 0,1.573334 0.82667,2.56 2.18667,2.56 1.57333,0 3.52,-1.12 5.62666,-3.226666 z m -5.76,-1.12 c 0.45334,-2.853333 1.68,-5.066666 2.82667,-5.066666 0.45333,0 0.74667,0.453333 0.74667,1.093333 0,1.333334 -0.72,2.133334 -3.57334,3.973333 z" />
    <path
       id="path97"
       style=""
       d="m 304.41695,75.555008 c 0.21333,0.72 0.37333,1.093333 0.64,1.52 0.69333,1.066667 1.89333,1.706667 3.22666,1.706667 2.32,0 4.34667,-1.36 5.01334,-3.333334 l -0.4,-0.266666 c -0.37334,0.693333 -0.61334,0.986666 -1.14667,1.333333 -0.72,0.48 -2.02667,0.826667 -3.14667,0.826667 -1.73333,0 -2.72,-0.56 -3.62666,-2.053334 z m -2.96,8.24 c 1.12,-0.56 1.62666,-0.773333 1.94666,-0.773333 0.21334,0 0.37334,0.213333 0.37334,0.506666 0,0.346667 -0.26667,1.493334 -0.74667,3.306667 -0.66667,2.48 -0.82667,3.226666 -0.82667,4 0,0.746666 0.32,1.306666 0.74667,1.306666 0.4,0 0.88,-0.24 2.21333,-1.12 l 2.74667,-1.786666 c -0.21333,0.853333 -0.37333,1.813333 -0.37333,2.293333 0,0.346667 0.21333,0.613333 0.48,0.613333 0.53333,0 3.06666,-1.493333 4.88,-2.853333 l 0.18666,-0.8 c -2.08,1.226667 -2.77333,1.6 -3.06666,1.6 -0.18667,0 -0.29334,-0.213333 -0.29334,-0.64 0,-1.36 0.98667,-5.333333 2.13334,-8.72 -0.34667,0.186667 -0.58667,0.32 -0.69334,0.373334 -0.32,0.16 -0.64,0.32 -0.98666,0.48 -0.08,0.02667 -0.24,0.106666 -0.53334,0.266666 -0.16,0.613334 -0.69333,2.746667 -1.57333,6.426667 -2.05333,1.413333 -2.98667,1.946666 -3.30667,1.946666 -0.29333,0 -0.50666,-0.373333 -0.50666,-0.88 0,-0.613333 0.21333,-1.68 0.66666,-3.386666 0.29334,-1.066667 0.48,-1.813333 0.56,-2.186667 0.24,-0.986666 0.42667,-1.68 0.48,-1.866666 0.08,-0.293334 0.13334,-0.533334 0.13334,-0.72 0,-0.213334 -0.13334,-0.346667 -0.32,-0.346667 -0.26667,0 -2.21334,1.04 -4.13334,2.24 z" />
    <path
       id="path99"
       style=""
       d="m 319.63402,83.795008 c 1.12,-0.56 1.62667,-0.773333 1.94667,-0.773333 0.21333,0 0.37333,0.213333 0.37333,0.506666 0,0.346667 0.10667,0.106667 -0.37333,1.92 -0.66667,2.48 -0.4,1.733333 -0.4,2.506667 0,0.746666 0.32,1.306666 0.74667,1.306666 0.4,0 0.88,-0.24 2.21333,-1.12 l 2.74667,-1.786666 c -0.21334,0.853333 -1.17334,4.693333 -1.17334,5.173333 0,0.346667 0.21334,0.613333 0.48,0.613333 0.53334,0 3.06667,-1.493333 4.88,-2.853333 l 0.18667,-0.8 c -2.08,1.226667 -2.77333,1.6 -3.06667,1.6 -0.18666,0 -0.29333,-0.213333 -0.29333,-0.64 0,-1.36 0.98667,-5.333333 2.13333,-8.72 -0.34666,0.186667 -0.58666,0.32 -0.69333,0.373334 -0.32,0.16 -0.64,0.32 -0.98667,0.48 -0.08,0.02667 -0.24,0.106666 -0.53333,0.266666 -0.16,0.613334 0.10667,-0.133333 -0.77333,3.546667 -2.05334,1.413333 -2.98667,1.946666 -3.30667,1.946666 -0.29333,0 -0.50667,-0.373333 -0.50667,-0.88 0,-0.613333 -0.21333,-0.186666 0.24,-1.893333 0.29334,-1.066666 0.10667,-0.426666 0.18667,-0.8 0.24,-0.986666 0.42667,-1.68 0.48,-1.866666 0.08,-0.293334 0.13333,-0.533334 0.13333,-0.72 0,-0.213334 -0.13333,-0.346667 -0.32,-0.346667 -0.26666,0 -2.21333,1.04 -4.13333,2.24 z" />
    <path
       id="path101"
       style=""
       d="m 342.85903,88.328341 c -2,1.333333 -2.4,1.573333 -2.66667,1.573333 -0.18666,0 -0.32,-0.213333 -0.32,-0.533333 0,-0.693333 0.64,-3.626666 1.6,-7.173333 0.29334,-0.4 0.34667,-0.48 0.77334,-0.96 -1.28,-0.293333 -2.21334,-0.4 -3.36,-0.4 -1.09334,0 -1.6,0.106667 -2.29334,0.533333 -0.96,0.56 -2.08,1.386667 -2.42666,1.76 -0.98667,1.12 -2.10667,4.72 -2.10667,6.88 0,1.28 0.42667,2.133333 1.09333,2.133333 0.58667,0 1.46667,-0.533333 4.8,-2.933333 -0.26666,1.226667 -0.4,2.053333 -0.4,2.373333 0,0.346667 0.16,0.56 0.42667,0.56 0.32,0 0.32,0 2.45333,-1.36 0.77334,-0.506666 1.38667,-0.933333 2.4,-1.68 z m -5.2,0.16 c -1.57333,1.146667 -2.37333,1.6 -2.85333,1.6 -0.42667,0 -0.69334,-0.48 -0.69334,-1.333333 0,-1.333334 0.42667,-3.146667 1.09334,-4.666667 0.64,-1.466666 1.22666,-2.026666 2.13333,-2.026666 0.48,0 1.30667,0.133333 2.26667,0.346666 -0.53334,2.026667 -0.72,2.64 -0.74667,2.773334 -0.16,0.666666 -0.29333,1.333333 -0.45333,2.026666 -0.0267,0.133333 -0.10667,0.453333 -0.24,0.933333 z" />
    <path
       id="path103"
       style=""
       d="m 349.01695,85.928341 h -2.37333 c 0,0 0.88,-3.386666 1.14666,-4.746666 0,-0.186667 -0.16,-0.346667 -0.34666,-0.346667 -0.29334,0 -2.21334,0.986667 -4.18667,2.16 l -0.16,0.693333 c 1.70667,-0.773333 1.81333,-0.8 2.05333,-0.8 0.18667,0 0.32,0.16 0.32,0.373334 0,0.56 -0.50666,2.773333 -1.17333,5.199999 l -0.61333,2.16 c -0.0533,0.186667 -0.18667,0.693334 -0.37334,1.44 l 2,-0.773333 1.06667,-4.24 h 2.26667 c -0.21334,0.8 -0.32,1.626667 -0.32,2.426667 0,1.626666 0.90666,2.666666 2.32,2.666666 0.74666,0 1.49333,-0.266666 2.72,-0.906666 1.33333,-0.746667 2.21333,-1.413334 2.69333,-2.053334 1.06667,-1.44 1.92,-4.053333 1.92,-5.893333 0,-1.44 -0.98667,-2.453333 -2.4,-2.453333 -1.06667,0 -2.77333,0.773333 -4.34667,1.946667 -0.93333,0.693333 -1.70666,1.84 -2.21333,3.146666 z m 5.17333,-3.84 c 1.06667,0 1.73334,1.04 1.73334,2.64 0,1.12 -0.37334,2.506667 -1.04,3.813333 -0.74667,1.52 -1.70667,2.346667 -2.72,2.346667 -1.09334,0 -1.78667,-0.986667 -1.78667,-2.506667 0,-3.093333 1.94667,-6.293333 3.81333,-6.293333 z" />
  </g>
</svg>
