<?xml version="1.0" encoding="UTF-8" standalone="no"?>
<svg
   xmlns:dc="http://purl.org/dc/elements/1.1/"
   xmlns:cc="http://creativecommons.org/ns#"
   xmlns:rdf="http://www.w3.org/1999/02/22-rdf-syntax-ns#"
   xmlns:svg="http://www.w3.org/2000/svg"
   xmlns="http://www.w3.org/2000/svg"
   id="svg2"
   version="1.1"
   viewBox="161.0281 5.3887531 284.85676 91.770838">
  <metadata
     id="metadata11">
    <rdf:RDF>
      <cc:Work
         rdf:about="">
        <dc:format>image/svg+xml</dc:format>
        <dc:type
           rdf:resource="http://purl.org/dc/dcmitype/StillImage" />
      </cc:Work>
    </rdf:RDF>
  </metadata>
  <defs
     id="defs9" />
  <g
     id="text4521"
     style="font-style:normal;font-variant:normal;font-weight:normal;font-stretch:normal;font-size:26.66666603px;line-height:125%;font-family:Verdana, sans-serif;font-variant-ligatures:normal;font-variant-caps:normal;font-variant-numeric:normal;font-feature-settings:normal;text-align:left;letter-spacing:0px;word-spacing:0px;writing-mode:lr-tb;text-anchor:start;fill:#000000;fill-opacity:1;stroke:none;stroke-width:1px;stroke-linecap:butt;stroke-linejoin:miter;stroke-opacity:1"
     aria-label="Съешь же ещё этихмягких французскихбулок да выпей чаю">
    <path
       id="path13"
       style=""
       d="m 177.10883,23.722086 q -0.71615,0.3125 -1.30209,0.585937 -0.57291,0.273438 -1.51041,0.572917 -0.79428,0.247396 -1.73178,0.416667 -0.92447,0.182291 -2.04427,0.182291 -2.10937,0 -3.84114,-0.585937 -1.71875,-0.598958 -2.99479,-1.861979 -1.25,-1.236979 -1.95313,-3.138021 -0.70312,-1.914062 -0.70312,-4.440104 0,-2.395833 0.67708,-4.283854 0.67708,-1.8880208 1.95312,-3.1901041 1.23698,-1.2630208 2.98178,-1.9270833 1.75781,-0.6640625 3.89322,-0.6640625 1.5625,0 3.11198,0.3776041 1.5625,0.3776042 3.46355,1.328125 v 3.0598958 h -0.19532 q -1.60156,-1.3411458 -3.17708,-1.953125 -1.57552,-0.6119791 -3.3724,-0.6119791 -1.47135,0 -2.65625,0.4817708 -1.17187,0.46875 -2.09635,1.4713541 -0.89844,0.9765622 -1.40625,2.4739582 -0.49479,1.484375 -0.49479,3.4375 0,2.044271 0.54687,3.515625 0.5599,1.471354 1.43229,2.395833 0.91146,0.963542 2.1224,1.432292 1.22396,0.455729 2.57813,0.455729 1.86197,0 3.48958,-0.638021 1.6276,-0.638021 3.04687,-1.914062 h 0.1823 z" />
    <path
       id="path15"
       style=""
       d="m 191.53591,20.66219 q 0,-0.664062 -0.23438,-1.158854 -0.22135,-0.507812 -0.74219,-0.820312 -0.54687,-0.325521 -1.25,-0.390625 -0.6901,-0.0651 -1.99218,-0.0651 h -2.29167 v 4.947917 h 2.23958 q 1.30209,0 2.01823,-0.104167 0.71615,-0.117187 1.23698,-0.429687 0.53386,-0.338542 0.76823,-0.794271 0.2474,-0.46875 0.2474,-1.184896 z m 2.52604,-0.03906 q 0,1.054687 -0.42969,1.914062 -0.41667,0.859375 -1.14583,1.393229 -0.85938,0.651042 -1.83594,0.924479 -0.97656,0.273438 -2.51302,0.273438 h -5.5599 V 12.732503 h -4.27083 v -2.148438 h 6.71875 v 5.664063 h 3.17708 q 1.64063,0 2.53907,0.169271 0.91145,0.16927 1.80989,0.833333 0.75521,0.559896 1.13281,1.432292 0.37761,0.872395 0.37761,1.940104 z" />
    <path
       id="path17"
       style=""
       d="m 209.8432,18.110107 h -10.71615 q 0,1.341146 0.40365,2.34375 0.40364,0.989583 1.10677,1.627604 0.67708,0.625 1.60156,0.9375 0.9375,0.3125 2.05729,0.3125 1.48438,0 2.98177,-0.585937 1.51042,-0.598959 2.14844,-1.171875 h 0.13021 v 2.66927 q -1.23698,0.520834 -2.52604,0.872396 -1.28906,0.351563 -2.70834,0.351563 -3.61979,0 -5.65104,-1.953125 -2.03125,-1.966146 -2.03125,-5.572917 0,-3.567708 1.94011,-5.664062 1.95312,-2.096354 5.13021,-2.096354 2.9427,0 4.53125,1.71875 1.60156,1.71875 1.60156,4.882812 z m -2.38281,-1.875 q -0.013,-1.927083 -0.97657,-2.981771 -0.95052,-1.054687 -2.90364,-1.054687 -1.96615,0 -3.13802,1.158854 -1.15886,1.158854 -1.31511,2.877604 z" />
    <path
       id="path19"
       style=""
       d="M 232.0958,25.128336 H 213.55413 V 10.584065 h 2.44792 v 12.434896 h 5.59896 V 10.584065 h 2.44791 v 12.434896 h 5.59896 V 10.584065 h 2.44792 z" />
    <path
       id="path21"
       style=""
       d="m 246.0281,20.66219 q 0,-0.664062 -0.23438,-1.158854 -0.22135,-0.507812 -0.74219,-0.820312 -0.54687,-0.325521 -1.25,-0.390625 -0.6901,-0.0651 -1.99218,-0.0651 h -2.42188 v 4.947917 h 2.36979 q 1.30209,0 2.01823,-0.104167 0.71615,-0.117187 1.23698,-0.429687 0.53386,-0.338542 0.76823,-0.794271 0.2474,-0.46875 0.2474,-1.184896 z m 2.52604,-0.03906 q 0,1.054687 -0.42969,1.914062 -0.41667,0.859375 -1.14583,1.393229 -0.85938,0.651042 -1.83594,0.924479 -0.97656,0.273438 -2.51302,0.273438 h -5.69011 V 10.584065 h 2.44792 v 5.664063 h 3.30729 q 1.64063,0 2.53907,0.169271 0.91145,0.16927 1.80989,0.833333 0.75521,0.559896 1.13281,1.432292 0.37761,0.872395 0.37761,1.940104 z" />
    <path
       id="path23"
       style=""
       d="m 279.76507,25.128336 h -2.95573 l -4.66146,-6.640625 h -1.18489 v 6.640625 h -2.42188 v -6.640625 h -1.05469 l -4.86979,6.640625 h -2.82552 l 5.61198,-7.617187 q -0.63802,-0.338542 -1.13281,-0.963542 -0.48177,-0.625 -0.88542,-1.888021 -0.35156,-1.106771 -0.83333,-1.536458 -0.48177,-0.429688 -1.57552,-0.429688 h -0.69011 v -2.109375 h 0.89844 q 1.61458,0 2.59115,0.651042 0.97656,0.651042 1.5625,2.278646 0.11718,0.338542 0.28646,0.78125 0.18229,0.429687 0.3125,0.729167 0.42968,0.989583 1.09375,1.406249 0.67708,0.403646 1.51041,0.45573 v -6.302084 h 2.42188 v 6.302084 q 0.83333,-0.05208 1.51041,-0.46875 0.69011,-0.416667 1.1198,-1.393229 0.14322,-0.325521 0.3125,-0.755209 0.18229,-0.429687 0.28645,-0.755208 0.57292,-1.601563 1.53646,-2.265625 0.96354,-0.664063 2.59115,-0.664063 h 0.89844 v 2.109375 h -0.69011 q -1.10677,0 -1.60156,0.45573 -0.48177,0.455729 -0.80729,1.510416 -0.36459,1.158854 -0.8724,1.809896 -0.49479,0.638021 -1.08073,0.963542 z" />
    <path
       id="path25"
       style=""
       d="M 294.99945,18.110107 H 284.2833 q 0,1.341146 0.40365,2.34375 0.40364,0.989583 1.10677,1.627604 0.67708,0.625 1.60156,0.9375 0.9375,0.3125 2.05729,0.3125 1.48438,0 2.98177,-0.585937 1.51042,-0.598959 2.14844,-1.171875 h 0.13021 v 2.66927 q -1.23698,0.520834 -2.52604,0.872396 -1.28906,0.351563 -2.70834,0.351563 -3.61979,0 -5.65104,-1.953125 -2.03125,-1.966146 -2.03125,-5.572917 0,-3.567708 1.94011,-5.664062 1.95312,-2.096354 5.13021,-2.096354 2.9427,0 4.53125,1.71875 1.60156,1.71875 1.60156,4.882812 z m -2.38281,-1.875 q -0.013,-1.927083 -0.97657,-2.981771 -0.95052,-1.054687 -2.90364,-1.054687 -1.96615,0 -3.13802,1.158854 -1.15886,1.158854 -1.31511,2.877604 z" />
    <path
       id="path27"
       style=""
       d="m 320.25986,18.110107 h -10.71614 q 0,1.341146 0.40364,2.34375 0.40365,0.989583 1.10677,1.627604 0.67709,0.625 1.60157,0.9375 0.9375,0.3125 2.05729,0.3125 1.48437,0 2.98177,-0.585937 1.51041,-0.598959 2.14844,-1.171875 h 0.1302 v 2.66927 q -1.23698,0.520834 -2.52604,0.872396 -1.28906,0.351563 -2.70833,0.351563 -3.61979,0 -5.65104,-1.953125 -2.03125,-1.966146 -2.03125,-5.572917 0,-3.567708 1.9401,-5.664062 1.95313,-2.096354 5.13021,-2.096354 2.94271,0 4.53125,1.71875 1.60156,1.71875 1.60156,4.882812 z m -2.38281,-1.875 q -0.013,-1.927083 -0.97656,-2.981771 -0.95052,-1.054687 -2.90365,-1.054687 -1.96614,0 -3.13802,1.158854 -1.15885,1.158854 -1.3151,2.877604 z" />
    <path
       id="path29"
       style=""
       d="M 341.99164,25.128336 H 323.9708 V 10.584065 h 2.44792 v 12.434896 h 5.59896 V 10.584065 h 2.44792 v 12.434896 h 5.59895 V 10.584065 h 2.44792 v 12.434896 h 1.75781 v 5.598958 h -2.27864 z" />
    <path
       id="path31"
       style=""
       d="m 359.84319,18.110107 h -10.71615 q 0,1.341146 0.40365,2.34375 0.40365,0.989583 1.10677,1.627604 0.67708,0.625 1.60156,0.9375 0.9375,0.3125 2.0573,0.3125 1.48437,0 2.98177,-0.585937 1.51041,-0.598959 2.14843,-1.171875 h 0.13021 v 2.66927 q -1.23698,0.520834 -2.52604,0.872396 -1.28906,0.351563 -2.70833,0.351563 -3.61979,0 -5.65104,-1.953125 -2.03125,-1.966146 -2.03125,-5.572917 0,-3.567708 1.9401,-5.664062 1.95312,-2.096354 5.13021,-2.096354 2.94271,0 4.53125,1.71875 1.60156,1.71875 1.60156,4.882812 z m -2.38281,-1.875 q -0.013,-1.927083 -0.97656,-2.981771 -0.95053,-1.054687 -2.90365,-1.054687 -1.96615,0 -3.13802,1.158854 -1.15886,1.158854 -1.31511,2.877604 z m 0.18229,-8.0859373 h -2.59115 V 5.6101073 h 2.59115 z m -5.3776,0 h -2.59115 V 5.6101073 h 2.59115 z" />
    <path
       id="path33"
       style=""
       d="m 381.73122,12.042399 q 0.95052,0.911458 1.47135,2.278646 0.52083,1.367187 0.52083,3.242187 0,3.619792 -2.03125,5.755208 -2.01823,2.135417 -5.40364,2.135417 -1.32813,0 -2.57813,-0.3125 -1.23698,-0.3125 -2.10937,-0.664063 v -2.682291 h 0.16927 q 0.78125,0.611979 2.07031,1.09375 1.28906,0.46875 2.70833,0.46875 2.04428,0 3.32032,-1.25 1.27604,-1.25 1.43229,-3.671875 h -7.34375 v -1.966146 h 7.33073 q -0.26042,-2.057292 -1.4974,-3.085937 -1.23698,-1.041667 -3.08594,-1.041667 -1.18489,0 -2.35677,0.403646 -1.17187,0.390625 -2.30468,1.263021 h -0.16927 v -2.682292 q 0.82031,-0.325521 2.08333,-0.703125 1.26302,-0.377604 2.60417,-0.377604 1.61458,0 2.91666,0.442708 1.30209,0.442708 2.25261,1.354167 z" />
    <path
       id="path35"
       style=""
       d="m 398.20257,12.732503 h -5.26042 v 12.395833 h -2.44792 V 12.732503 h -5.26041 v -2.148438 h 12.96875 z" />
    <path
       id="path37"
       style=""
       d="m 412.99424,25.128336 h -2.42188 V 14.203857 l -7.61719,10.924479 h -2.21354 V 10.584065 h 2.42188 v 10.768229 l 7.53906,-10.768229 h 2.29167 z" />
    <path
       id="path39"
       style=""
       d="m 430.41611,25.128336 h -3.08594 l -4.1276,-5.585937 -4.15365,5.585937 h -2.85156 l 5.67708,-7.252604 -5.625,-7.291667 h 3.08594 l 4.10156,5.494792 4.11458,-5.494792 h 2.86459 l -5.71615,7.161459 z" />
    <path
       id="path41"
       style=""
       d="m 175.68955,58.461672 h -2.42187 V 46.977297 l -3.61979,7.473958 h -1.82292 l -3.59375,-7.473958 v 11.484375 h -2.29167 V 43.917401 h 2.95573 l 3.95834,8.138021 3.82812,-8.138021 h 3.00781 z" />
    <path
       id="path43"
       style=""
       d="m 191.70518,58.461672 h -2.44792 v -5.768229 h -2.8776 l -4.50521,5.768229 h -2.8776 l 4.89583,-6.002604 q -1.88802,-0.520834 -2.76042,-1.588542 -0.87239,-1.080729 -0.87239,-2.825521 0,-1.158854 0.52083,-1.966145 0.52083,-0.807292 1.3151,-1.315105 0.78125,-0.494791 1.79688,-0.664062 1.01562,-0.182292 2.21354,-0.182292 h 5.59896 z m -2.44792,-7.695312 v -4.895834 h -3.08593 q -1.00261,0 -1.44532,0.0651 -0.44271,0.0651 -0.96354,0.351563 -0.50781,0.286458 -0.75521,0.78125 -0.23437,0.481771 -0.23437,1.054687 0,0.716146 0.14323,1.158855 0.15625,0.442708 0.625,0.833333 0.48177,0.377604 1.17187,0.520833 0.69011,0.130209 1.53646,0.130209 z" />
    <path
       id="path45"
       style=""
       d="m 206.54893,46.065839 h -7.57813 v 12.395833 h -2.44791 V 43.917401 h 10.02604 z" />
    <path
       id="path47"
       style=""
       d="m 222.19997,58.461672 h -3.20313 l -6.04166,-6.666667 h -1.32813 v 6.666667 h -2.44791 V 43.917401 h 2.44791 v 6.276042 q 1.21094,0 1.95313,-0.429688 0.74218,-0.442708 1.26302,-1.40625 0.18229,-0.351562 0.35156,-0.742187 0.18229,-0.403646 0.35156,-0.768229 0.67709,-1.471354 1.69271,-2.200521 1.01563,-0.729167 2.91667,-0.729167 h 1.11979 v 2.109375 h -1.08073 q -1.02865,0 -1.61458,0.442709 -0.57292,0.429687 -1.04167,1.523437 -0.52083,1.223958 -1.10677,1.835938 -0.57292,0.598958 -1.22396,0.911458 z" />
    <path
       id="path49"
       style=""
       d="m 237.10882,58.461672 h -2.42187 V 47.537193 l -7.61719,10.924479 h -2.21354 V 43.917401 h 2.42187 V 54.68563 l 7.53907,-10.768229 h 2.29166 z" />
    <path
       id="path51"
       style=""
       d="m 254.5307,58.461672 h -3.08594 l -4.1276,-5.585938 -4.15365,5.585938 h -2.85156 l 5.67708,-7.252604 -5.625,-7.291667 h 3.08594 l 4.10156,5.494792 4.11459,-5.494792 h 2.86458 l -5.71615,7.161459 z" />
    <path
       id="path53"
       style=""
       d="m 285.66351,50.805422 q 0,1.940104 -0.49479,3.4375 -0.49479,1.484375 -1.3151,2.447917 -0.80729,0.963541 -1.86198,1.471354 -1.05469,0.507812 -2.21354,0.507812 -0.8724,0 -1.52344,-0.299479 -0.63802,-0.299479 -1.14583,-0.546875 v 6.002604 h -2.42188 v -6.002604 q -0.79427,0.390625 -1.3151,0.625 -0.50782,0.221354 -1.60157,0.221354 -2.51302,0 -4.07552,-1.966146 -1.5625,-1.966145 -1.5625,-5.468749 0,-1.835938 0.50782,-3.26823 0.50781,-1.445312 1.32812,-2.421875 0.79427,-0.95052 1.86198,-1.445312 1.08073,-0.507812 2.14844,-0.507812 0.78125,0 1.41927,0.247395 0.65104,0.234375 1.28906,0.625 v -6.26302 h 2.42188 v 6.26302 q 0.59895,-0.351562 1.40625,-0.611979 0.80729,-0.260416 1.6276,-0.260416 2.57812,0 4.04948,1.953124 1.47135,1.940105 1.47135,5.260417 z m -2.51302,0.273438 q 0,-2.48698 -0.88541,-3.932292 -0.88542,-1.445313 -2.65625,-1.445313 -0.71615,0 -1.19792,0.117188 -0.48177,0.117187 -1.30208,0.442708 v 9.700521 q 0.61197,0.286458 1.01562,0.455729 0.41667,0.15625 1.17188,0.15625 1.83593,0 2.83854,-1.40625 1.01562,-1.419271 1.01562,-4.088541 z m -8.46354,4.882812 v -9.700521 q -0.50781,-0.234375 -1.02865,-0.390625 -0.52083,-0.169271 -1.15885,-0.169271 -1.75781,0 -2.8125,1.341146 -1.04167,1.341146 -1.04167,4.075521 0,2.539062 0.92448,3.997396 0.9375,1.458333 2.69532,1.458333 0.6901,0 1.27604,-0.182292 0.59896,-0.195312 1.14583,-0.429687 z" />
    <path
       id="path55"
       style=""
       d="m 302.3432,51.013755 q 0,1.770834 -0.50781,3.242188 -0.50782,1.458333 -1.4323,2.473958 -0.85937,0.963542 -2.03125,1.497396 -1.15885,0.520833 -2.46093,0.520833 -1.13282,0 -2.0573,-0.247396 -0.91145,-0.247395 -1.86197,-0.768229 v 6.09375 h -2.44792 V 43.917401 h 2.44792 v 1.523438 q 0.97656,-0.820313 2.1875,-1.367188 1.22395,-0.559895 2.60416,-0.559895 2.63021,0 4.08854,1.992187 1.47136,1.979167 1.47136,5.507812 z m -2.52604,0.0651 q 0,-2.630209 -0.89844,-3.932292 -0.89844,-1.302083 -2.76042,-1.302083 -1.05469,0 -2.12239,0.455729 -1.06771,0.455729 -2.04427,1.197916 v 8.242188 q 1.04166,0.46875 1.78385,0.638021 0.75521,0.16927 1.70573,0.16927 2.04427,0 3.1901,-1.380208 1.14584,-1.380208 1.14584,-4.088541 z" />
    <path
       id="path57"
       style=""
       d="m 317.46039,58.461672 h -2.4349 v -1.549479 q -0.32552,0.221354 -0.88541,0.625 -0.54688,0.390625 -1.06771,0.625 -0.61198,0.299479 -1.40625,0.494791 -0.79427,0.208334 -1.86198,0.208334 -1.96615,0 -3.33334,-1.302084 -1.36718,-1.302083 -1.36718,-3.320312 0,-1.653646 0.70312,-2.669271 0.71615,-1.028646 2.03125,-1.614583 1.32813,-0.585938 3.19011,-0.794271 1.86198,-0.208333 3.99739,-0.3125 v -0.377604 q 0,-0.833333 -0.29948,-1.380208 -0.28646,-0.546875 -0.83333,-0.859375 -0.52083,-0.29948 -1.25,-0.403646 -0.72917,-0.104167 -1.52344,-0.104167 -0.96354,0 -2.14844,0.260417 -1.18489,0.247396 -2.44791,0.729166 h -0.13021 v -2.486979 q 0.71615,-0.195312 2.07031,-0.429687 1.35417,-0.234375 2.66927,-0.234375 1.53646,0 2.66927,0.260417 1.14584,0.247395 1.97917,0.859374 0.82031,0.598959 1.25,1.54948 0.42969,0.95052 0.42969,2.35677 z m -2.4349,-3.580729 v -4.049479 q -1.11979,0.0651 -2.64323,0.195312 -1.51041,0.130209 -2.39583,0.377604 -1.05469,0.299479 -1.70573,0.9375 -0.65104,0.625 -0.65104,1.731771 0,1.25 0.75521,1.888021 0.75521,0.625 2.30468,0.625 1.28907,0 2.35678,-0.494792 1.0677,-0.507812 1.97916,-1.210937 z" />
    <path
       id="path59"
       style=""
       d="m 334.37444,58.461672 h -2.44792 v -6.549479 h -7.27864 v 6.549479 h -2.44792 V 43.917401 h 2.44792 v 5.885417 h 7.27864 v -5.885417 h 2.44792 z" />
    <path
       id="path61"
       style=""
       d="M 350.71559,58.461672 H 339.17913 V 43.917401 h 2.44792 v 12.434896 h 7.16146 V 43.917401 h 2.44791 v 12.434896 h 1.75782 v 5.598958 h -2.27865 z" />
    <path
       id="path63"
       style=""
       d="m 368.94476,43.917401 -8.48959,19.908854 h -2.61718 l 2.70833,-6.067708 -5.79427,-13.841146 h 2.65625 l 4.46615,10.78125 4.5052,-10.78125 z" />
    <path
       id="path65"
       style=""
       d="m 382.26507,54.386151 q 0,1.223958 -0.57292,2.070313 -0.55989,0.846354 -1.44531,1.367187 -0.88542,0.507812 -1.95312,0.742187 -1.06771,0.234375 -2.13542,0.234375 -1.51042,0 -2.8776,-0.286458 -1.36719,-0.286458 -2.69532,-0.885416 v -2.682292 h 0.16927 q 0.95052,0.833333 2.42188,1.289062 1.47135,0.45573 2.85156,0.45573 0.65104,0 1.34115,-0.117188 0.6901,-0.130208 1.19791,-0.403646 0.54688,-0.3125 0.8724,-0.742187 0.32552,-0.442709 0.32552,-1.197917 0,-0.78125 -0.32552,-1.25 -0.3125,-0.46875 -0.85938,-0.703125 -0.53385,-0.234375 -1.28906,-0.286458 -0.75521,-0.05208 -1.38021,-0.05208 h -2.12239 V 49.82886 h 1.47135 q 0.52084,0 1.35417,-0.03906 0.84635,-0.03906 1.36719,-0.208333 0.67708,-0.221354 1.0677,-0.625 0.40365,-0.403646 0.40365,-1.289063 0,-0.611979 -0.3125,-1.002604 -0.3125,-0.403646 -0.78125,-0.625 -0.48177,-0.221354 -1.08073,-0.299479 -0.58594,-0.07813 -1.04167,-0.07813 -1.32812,0 -2.61718,0.364583 -1.27604,0.351563 -2.14844,1.028646 h -0.16927 V 44.36011 q 1.08073,-0.351563 2.31771,-0.572917 1.23698,-0.221354 2.47396,-0.221354 1.01562,0 2.01822,0.182292 1.01563,0.182291 1.88803,0.624999 0.85937,0.442709 1.40625,1.210938 0.54687,0.755208 0.54687,1.875 0,1.145833 -0.71615,2.018229 -0.70312,0.859375 -1.90104,1.236979 v 0.09115 q 1.34115,0.325521 2.13542,1.223958 0.79427,0.885417 0.79427,2.356771 z" />
    <path
       id="path67"
       style=""
       d="m 397.04372,57.550214 q -1.49739,0.703125 -2.57812,0.963541 -1.06771,0.273438 -2.13542,0.273438 -1.58854,0 -2.91667,-0.45573 -1.32812,-0.468749 -2.27864,-1.406249 -0.95052,-0.9375 -1.48438,-2.369792 -0.52083,-1.432292 -0.52083,-3.346354 0,-3.476563 1.92708,-5.546875 1.92709,-2.083333 5.27344,-2.083333 1.26302,0 2.47396,0.351562 1.22396,0.351563 2.23958,0.859375 v 2.721354 h -0.14323 q -1.21094,-0.924479 -2.39583,-1.367187 -1.17188,-0.442709 -2.27865,-0.442709 -2.17448,0 -3.37239,1.458334 -1.1849,1.458333 -1.1849,4.049479 0,2.591146 1.1849,4.023437 1.18489,1.432292 3.37239,1.432292 0.76823,0 1.52344,-0.195313 0.76823,-0.195312 1.39323,-0.507812 0.49479,-0.247396 1.01562,-0.585938 0.53386,-0.351562 0.74219,-0.520833 h 0.14323 z" />
    <path
       id="path69"
       style=""
       d="m 413.55413,58.461672 h -3.20312 l -6.04167,-6.666667 h -1.32812 v 6.666667 H 400.5333 V 43.917401 h 2.44792 v 6.276042 q 1.21093,0 1.95312,-0.429688 0.74219,-0.442708 1.26302,-1.40625 0.18229,-0.351562 0.35156,-0.742187 0.1823,-0.403646 0.35157,-0.768229 0.67708,-1.471354 1.69271,-2.200521 1.01562,-0.729167 2.91666,-0.729167 h 1.11979 v 2.109375 h -1.08073 q -1.02864,0 -1.61458,0.442709 -0.57292,0.429687 -1.04167,1.523437 -0.52083,1.223958 -1.10677,1.835938 -0.57291,0.598958 -1.22395,0.911458 z" />
    <path
       id="path71"
       style=""
       d="m 428.46299,58.461672 h -2.42188 V 47.537193 l -7.61719,10.924479 h -2.21354 V 43.917401 h 2.42188 V 54.68563 l 7.53906,-10.768229 h 2.29167 z" />
    <path
       id="path73"
       style=""
       d="m 445.88486,58.461672 h -3.08594 l -4.1276,-5.585938 -4.15365,5.585938 h -2.85156 l 5.67708,-7.252604 -5.625,-7.291667 h 3.08594 l 4.10156,5.494792 4.11458,-5.494792 h 2.86459 l -5.71615,7.161459 z" />
    <path
       id="path75"
       style=""
       d="m 172.62966,79.399175 q 0.91146,0.911458 1.38021,2.213541 0.46875,1.289063 0.46875,3.033854 0,3.255209 -1.95313,5.403646 -1.95312,2.148438 -4.80469,2.148438 -1.40625,0 -2.59114,-0.46875 -1.1849,-0.481771 -2.01823,-1.471355 -1.04167,-1.236979 -1.5625,-3.111979 -0.50781,-1.88802 -0.50781,-4.596354 0,-0.976562 0.0911,-1.979166 0.0911,-1.015625 0.41667,-2.421875 0.26042,-1.210938 0.75521,-2.330729 0.50781,-1.119792 1.19791,-1.809896 0.9375,-0.950521 2.46094,-1.523438 1.53646,-0.585937 4.0625,-0.807291 1.02865,-0.09115 1.91406,-0.143229 0.88542,-0.06511 1.58855,-0.117188 v 2.252604 q -0.85938,0.05208 -1.70573,0.104167 -0.83334,0.05208 -1.66667,0.130208 -1.66667,0.143229 -3.02083,0.546875 -1.34115,0.403646 -1.96615,1.041667 -0.6901,0.690104 -1.04167,1.809896 -0.33854,1.10677 -0.4427,2.109375 0.97656,-0.703125 2.13541,-1.171875 1.17188,-0.481771 2.48698,-0.481771 1.22396,0 2.35677,0.403646 1.13282,0.403645 1.96615,1.236979 z m -0.63802,5.390625 q 0,-2.408855 -1.15886,-3.59375 -1.15885,-1.197917 -3.05989,-1.197917 -1.13281,0 -2.17448,0.364583 -1.04167,0.351563 -1.97917,0.950521 -0.026,0.325521 -0.0521,0.768229 -0.013,0.429688 -0.013,0.794271 0,2.265625 0.3776,3.671875 0.37761,1.40625 1.06771,2.239583 0.59896,0.703125 1.30208,1.002604 0.70313,0.286459 1.51042,0.286459 1.96615,0 3.07292,-1.419271 1.10677,-1.419271 1.10677,-3.867187 z" />
    <path
       id="path77"
       style=""
       d="m 190.92393,77.250737 -8.48958,19.908854 h -2.61719 l 2.70833,-6.067708 -5.79427,-13.841146 h 2.65625 l 4.46615,10.78125 4.50521,-10.78125 z" />
    <path
       id="path79"
       style=""
       d="m 205.85883,91.795008 h -2.44792 V 79.308029 h -5.42969 q -0.0391,1.080729 -0.0781,2.083333 -0.0391,1.002604 -0.0781,1.809896 -0.0911,2.174479 -0.29948,3.476562 -0.20833,1.289063 -0.54687,2.148438 -0.3125,0.807291 -0.70313,1.315104 -0.3776,0.494792 -0.82031,0.898437 -0.44271,0.390625 -0.98958,0.585938 -0.53386,0.195312 -1.17188,0.195312 -0.22135,0 -0.65104,-0.01302 -0.41667,-0.01302 -0.54688,-0.01302 v -2.135417 h 0.13021 q 0.10417,0 0.29948,0.01302 0.19531,0.01302 0.32552,0.01302 0.3125,0 0.63802,-0.09115 0.33855,-0.09115 0.57292,-0.338542 0.66406,-0.651041 1.06771,-2.200521 0.40364,-1.549479 0.53385,-4.479166 0.0521,-1.067708 0.0911,-2.526042 0.0521,-1.471354 0.0911,-2.799479 h 10.01303 z" />
    <path
       id="path81"
       style=""
       d="m 223.08539,84.529383 q 0,3.554687 -1.82292,5.611979 -1.82292,2.057292 -4.88281,2.057292 -3.08594,0 -4.90886,-2.057292 -1.80989,-2.057292 -1.80989,-5.611979 0,-3.554688 1.80989,-5.611979 1.82292,-2.070313 4.90886,-2.070313 3.05989,0 4.88281,2.070313 1.82292,2.057291 1.82292,5.611979 z m -2.52604,0 q 0,-2.825521 -1.10677,-4.192708 -1.10678,-1.380209 -3.07292,-1.380209 -1.99219,0 -3.09896,1.380209 -1.09375,1.367187 -1.09375,4.192708 0,2.734375 1.10677,4.153646 1.10677,1.40625 3.08594,1.40625 1.95312,0 3.05989,-1.39323 1.1198,-1.40625 1.1198,-4.166666 z" />
    <path
       id="path83"
       style=""
       d="m 240.01247,91.795008 h -3.20313 l -6.04166,-6.666667 h -1.32813 v 6.666667 h -2.44791 V 77.250737 h 2.44791 v 6.276042 q 1.21094,0 1.95313,-0.429688 0.74218,-0.442708 1.26302,-1.40625 0.18229,-0.351562 0.35156,-0.742187 0.18229,-0.403646 0.35156,-0.768229 0.67709,-1.471354 1.69271,-2.200521 1.01563,-0.729167 2.91667,-0.729167 h 1.11979 v 2.109375 h -1.08073 q -1.02865,0 -1.61458,0.442708 -0.57292,0.429688 -1.04167,1.523438 -0.52083,1.223958 -1.10677,1.835937 -0.57292,0.598959 -1.22396,0.911459 z" />
    <path
       id="path85"
       style=""
       d="m 265.24684,95.284591 h -2.27864 v -3.528646 h -10.9375 v 3.528646 h -2.27865 v -5.572917 h 1.57552 q 1.52344,-2.51302 2.26563,-5.79427 0.75521,-3.294271 0.75521,-6.666667 h 9.14062 v 12.460937 h 1.75781 z m -4.20573,-5.572917 V 79.308029 h -4.38802 q -0.16927,3.268229 -1.0026,5.963541 -0.83333,2.695313 -1.91406,4.440104 z" />
    <path
       id="path87"
       style=""
       d="m 279.9083,91.795008 h -2.43489 v -1.549479 q -0.32552,0.221354 -0.88542,0.625 -0.54688,0.390625 -1.06771,0.625 -0.61198,0.299479 -1.40625,0.494791 -0.79427,0.208334 -1.86198,0.208334 -1.96614,0 -3.33333,-1.302084 -1.36719,-1.302083 -1.36719,-3.320312 0,-1.653646 0.70313,-2.669271 0.71614,-1.028646 2.03125,-1.614583 1.32812,-0.585938 3.1901,-0.794271 1.86198,-0.208333 3.9974,-0.3125 v -0.377604 q 0,-0.833334 -0.29948,-1.380209 -0.28646,-0.546875 -0.83334,-0.859375 -0.52083,-0.299479 -1.25,-0.403645 -0.72916,-0.104167 -1.52343,-0.104167 -0.96355,0 -2.14844,0.260417 -1.1849,0.247395 -2.44792,0.729166 h -0.13021 v -2.486979 q 0.71615,-0.195312 2.07032,-0.429687 1.35416,-0.234375 2.66927,-0.234375 1.53646,0 2.66927,0.260416 1.14583,0.247396 1.97916,0.859375 0.82032,0.598959 1.25,1.549479 0.42969,0.950521 0.42969,2.356771 z m -2.43489,-3.580729 V 84.1648 q -1.1198,0.0651 -2.64323,0.195312 -1.51042,0.130208 -2.39584,0.377604 -1.05468,0.299479 -1.70573,0.9375 -0.65104,0.625 -0.65104,1.731771 0,1.25 0.75521,1.888021 0.75521,0.625 2.30469,0.625 1.28906,0 2.35677,-0.494792 1.06771,-0.507812 1.97917,-1.210937 z" />
    <path
       id="path89"
       style=""
       d="m 306.02809,87.393966 q 0,1.054688 -0.42969,1.875 -0.41666,0.820313 -1.15885,1.367188 -0.83333,0.611979 -1.82292,0.885416 -0.97656,0.273438 -2.57812,0.273438 h -6.01563 V 77.250737 h 5.625 q 1.62761,0 2.44792,0.117188 0.83333,0.104166 1.5625,0.481771 0.82031,0.429687 1.19792,1.119791 0.39062,0.690104 0.39062,1.627604 0,1.080729 -0.61198,1.875 -0.61198,0.794271 -1.57552,1.236979 v 0.130209 q 1.28906,0.3125 2.1224,1.210937 0.84635,0.885417 0.84635,2.34375 z m -3.29427,-6.419271 q 0,-0.46875 -0.20833,-0.846354 -0.19532,-0.377604 -0.61198,-0.585937 -0.54688,-0.273438 -1.23698,-0.299479 -0.67708,-0.03906 -1.67969,-0.03906 h -2.55208 v 3.984375 h 3.05989 q 0.96355,0 1.41927,-0.0651 0.46875,-0.07813 0.9375,-0.364583 0.4948,-0.3125 0.67709,-0.729167 0.19531,-0.429688 0.19531,-1.054688 z m 0.76823,6.432292 q 0,-0.716146 -0.23438,-1.158854 -0.23437,-0.455729 -1.02864,-0.833333 -0.49479,-0.234375 -1.06771,-0.273438 -0.57292,-0.05208 -1.58854,-0.05208 h -3.13802 v 4.752604 h 2.31771 q 1.45833,0 2.23958,-0.09115 0.79427,-0.104167 1.36719,-0.429688 0.57291,-0.32552 0.84635,-0.79427 0.28646,-0.46875 0.28646,-1.119792 z" />
    <path
       id="path91"
       style=""
       d="m 318.86664,87.328862 q 0,-0.664063 -0.23438,-1.158854 -0.22135,-0.507813 -0.74218,-0.820313 -0.54688,-0.32552 -1.25,-0.390625 -0.69011,-0.0651 -1.99219,-0.0651 h -2.29167 v 4.947917 h 2.23958 q 1.30209,0 2.01823,-0.104167 0.71615,-0.117187 1.23698,-0.429687 0.53386,-0.338542 0.76823,-0.794271 0.2474,-0.46875 0.2474,-1.184896 z m 2.52604,-0.03906 q 0,1.054688 -0.42969,1.914063 -0.41666,0.859375 -1.14583,1.393229 -0.85938,0.651042 -1.83594,0.924479 -0.97656,0.273438 -2.51302,0.273438 h -5.5599 V 77.250737 h 2.44792 V 82.9148 h 3.17708 q 1.64063,0 2.53907,0.16927 0.91146,0.169271 1.80989,0.833334 0.75521,0.559896 1.13282,1.432291 0.3776,0.872396 0.3776,1.940104 z m 2.4349,-10.039062 h 2.44791 v 14.544271 h -2.44791 z" />
    <path
       id="path93"
       style=""
       d="m 343.28069,91.795008 h -2.44792 V 79.360112 h -7.27864 v 12.434896 h -2.44792 V 77.250737 h 12.17448 z" />
    <path
       id="path95"
       style=""
       d="m 360.25986,84.776779 h -10.71614 q 0,1.341146 0.40364,2.34375 0.40365,0.989583 1.10677,1.627604 0.67709,0.625 1.60157,0.9375 0.9375,0.3125 2.05729,0.3125 1.48437,0 2.98177,-0.585938 1.51041,-0.598958 2.14844,-1.171875 h 0.1302 v 2.669271 q -1.23698,0.520833 -2.52604,0.872396 -1.28906,0.351562 -2.70833,0.351562 -3.61979,0 -5.65104,-1.953125 -2.03125,-1.966145 -2.03125,-5.572916 0,-3.567708 1.9401,-5.664062 1.95313,-2.096355 5.13021,-2.096355 2.94271,0 4.53125,1.71875 1.60156,1.71875 1.60156,4.882813 z m -2.38281,-1.875 q -0.013,-1.927084 -0.97656,-2.981771 -0.95052,-1.054687 -2.90365,-1.054687 -1.96614,0 -3.13802,1.158854 -1.15885,1.158854 -1.3151,2.877604 z" />
    <path
       id="path97"
       style=""
       d="m 376.22341,91.795008 h -2.42188 V 80.870529 l -7.61718,10.924479 H 363.9708 V 77.250737 h 2.42188 v 10.768229 l 7.53906,-10.768229 h 2.29167 z m -1.39323,-20.273437 q -0.0651,1.927083 -1.22396,3.007812 -1.14583,1.080729 -3.34635,1.080729 -2.20052,0 -3.35938,-1.080729 -1.14583,-1.080729 -1.21094,-3.007812 h 2.22657 q 0.013,1.367187 0.59896,1.979166 0.59895,0.611979 1.74479,0.611979 1.15885,0 1.74479,-0.598958 0.58594,-0.598958 0.59896,-1.992187 z" />
    <path
       id="path99"
       style=""
       d="m 401.75726,91.795008 h -2.44792 V 86.20907 q -1.18489,0.364584 -2.26562,0.585938 -1.08073,0.221354 -2.35677,0.221354 -2.34375,0 -3.58073,-1.145833 -1.23698,-1.158854 -1.23698,-3.333334 v -5.286458 h 2.44791 v 4.036458 q 0,0.833334 0.10417,1.497396 0.10417,0.651042 0.44271,1.132813 0.33854,0.46875 0.95052,0.716146 0.61198,0.247395 1.70573,0.247395 0.89844,0 1.95312,-0.16927 1.05469,-0.182292 1.83594,-0.416667 v -7.044271 h 2.44792 z" />
    <path
       id="path101"
       style=""
       d="m 417.87704,91.795008 h -2.43489 v -1.549479 q -0.32552,0.221354 -0.88542,0.625 -0.54687,0.390625 -1.06771,0.625 -0.61198,0.299479 -1.40625,0.494791 -0.79427,0.208334 -1.86198,0.208334 -1.96614,0 -3.33333,-1.302084 -1.36719,-1.302083 -1.36719,-3.320312 0,-1.653646 0.70313,-2.669271 0.71614,-1.028646 2.03125,-1.614583 1.32812,-0.585938 3.1901,-0.794271 1.86198,-0.208333 3.9974,-0.3125 v -0.377604 q 0,-0.833334 -0.29948,-1.380209 -0.28646,-0.546875 -0.83333,-0.859375 -0.52084,-0.299479 -1.25,-0.403645 -0.72917,-0.104167 -1.52344,-0.104167 -0.96354,0 -2.14844,0.260417 -1.18489,0.247395 -2.44792,0.729166 h -0.1302 v -2.486979 q 0.71614,-0.195312 2.07031,-0.429687 1.35417,-0.234375 2.66927,-0.234375 1.53646,0 2.66927,0.260416 1.14583,0.247396 1.97917,0.859375 0.82031,0.598959 1.25,1.549479 0.42968,0.950521 0.42968,2.356771 z m -2.43489,-3.580729 V 84.1648 q -1.11979,0.0651 -2.64323,0.195312 -1.51042,0.130208 -2.39583,0.377604 -1.05469,0.299479 -1.70573,0.9375 -0.65104,0.625 -0.65104,1.731771 0,1.25 0.7552,1.888021 0.75521,0.625 2.30469,0.625 1.28906,0 2.35677,-0.494792 1.06771,-0.507812 1.97917,-1.210937 z" />
    <path
       id="path103"
       style=""
       d="m 438.6713,84.529383 q 0,-2.799479 -1.08072,-4.179688 -1.08073,-1.393229 -2.9948,-1.393229 -1.99218,0 -3.04687,1.458334 -1.04167,1.445312 -1.04167,4.114583 0,2.760416 1.09375,4.166666 1.09375,1.39323 2.99479,1.39323 1.90105,0 2.98177,-1.380209 1.09375,-1.393229 1.09375,-4.179687 z m -10.58593,0.677083 h -3.02084 v 6.588542 h -2.44791 V 77.250737 h 2.44791 v 5.898438 h 3.08594 q 0.32552,-3.007813 2.09636,-4.648438 1.78385,-1.653646 4.375,-1.653646 3.00781,0 4.79166,2.057292 1.78386,2.057292 1.78386,5.625 0,3.528646 -1.75782,5.598958 -1.75781,2.070313 -4.8177,2.070313 -2.89063,0 -4.63542,-1.875 -1.73177,-1.875 -1.90104,-5.117188 z" />
  </g>
</svg>
